<?xml version="1.0" encoding="utf-8"?>
<!-- Generator: Adobe Illustrator 27.5.0, SVG Export Plug-In . SVG Version: 6.00 Build 0)  -->
<svg version="1.1" id="Layer_2_00000123407479791102527140000013373200180054519975_"
	 xmlns="http://www.w3.org/2000/svg" xmlns:xlink="http://www.w3.org/1999/xlink" x="0px" y="0px" viewBox="0 0 1800 1800"
	 style="enable-background:new 0 0 1800 1800;" xml:space="preserve">
<style type="text/css">
	.st0{fill:#DCE235;}
</style>
<g>
	<g>
		<g>
			<g>
				<g>
					<path class="st0" d="M915.6,198.1l-3.6,3.4C912.4,201.7,913.4,201,915.6,198.1z"/>
					<path class="st0" d="M187,1208.4c-0.2,0.4-0.4,0.7-0.5,1.1C186.9,1208.8,187,1208.5,187,1208.4z"/>
					<path class="st0" d="M778.3,334.9c0.1-0.1,0.1-0.2,0.2-0.2c0.2-0.4,0.4-0.8,0.6-1.2L778.3,334.9z"/>
					<path class="st0" d="M927.2,132.8c-39.5,52.8-53.2,64.4-91.7,120.8c-19.3,26.2-38.9,55-57.1,81.1
						c-6.1,14.2-24.4,33.9-32.6,50.1l-5.6,4.5c-2.8,5.6-6.5,11.8-11,16.2l-0.2-0.6c-4.2,8.3-11,16.2-13.1,20.4l-0.2-0.6l-6.3,9.2
						l0.5-2c-8.1,13.9-17.7,27.4-26.8,38.8l2.6,0.4c-20.3,23.8-23.1,35.8-42.1,56.8l-0.2-0.6c-15.8,32.4-36.3,43.1-53,76.3
						c2.1-4.1-2.1,0.9-2.4,0.3c-9.3,14.1-19.6,28.9-16.1,31.8c-7.2,9.9-7,7.3-9.4,7.6c1.7,1.1-3.9,10.3-9.4,18.1l2-4l-15.6,22.7
						l6.2-2.2c-9.4,11.2-5.9,0.3-13.3,12.2l2.6,1.7c-12.3,16-23.1,22.8-36.4,37.3c-48.6,65.1-93.2,140.5-141.9,198.5l-3.9,1.3
						c-3.6-0.8-8.1,19.9-12.3,20.4l-3.9,8c-1.9,1.6-5.5,5.5-3.6,1.5c-4.9,6.5-4.5,7-7.1,12.4l-6.8,5.8c-20.1,25-32.7,49.5-53.1,76.4
						c-27.2,30.3-68.6,94.5-92.5,131.5c-32,53.1-85.1,103.4-117.4,158.1c-1.6,1.4-3.8,6.3-3.5,6.5l-34.3,46.7
						c0,0-165.3,226.9-17.5,70.6l-0.2,1.6c20-24.6,32-40.6,41.7-60.5c5.8-0.1,15.6-20.8,21.2-26l-0.1,0.8
						c8.4-17.8,25.7-30.6,34-47.5c-0.1,0.8,0.7,1.9-1.8,5.4c7.5-11.3,17.5-27,20.3-26.3c18.4-26.7,45.9-62.7,54.6-82l-0.2,1.6
						c4.6-11.3,8.6-12.7,15.2-24.3c0.7-0.4,1.4-1,1.4-0.8c5.2-12.1,21.7-30.8,26.8-39.9l1.8,0.5l14.7-21.1l-5.9,7.6
						c-2-5.6,13.9-14,22.2-30.9c10.7-13.8,12.4-34.6,25-47.9c3.2-8.3-1.4,8.3,4.7-3.1c2.3,1.2-2.2,5.8,1.4,4.3
						c6.4-11,14.3-15.3,22-29l2,0.6c9-18.7,24.6-29.7,29.8-42.7c11-18,13-8,22.7-28l7.2-5.3c5.8-7.3,1.3-7.4,8.4-15
						c1,1.5,8.8-9.9,6.5-4c15.9-17.5,24.9-40.9,46.6-63.4c1.3-7.4,12-18.9,12.9-24.4c1.7,0.2,18.5-25.2,10.8-9.2
						c-0.7,1.4-2.3,3.5-2.6,3l0.4,2.8c13.3-12.2,17.1-27.2,27.8-41c-3.6,3.8-7.4,9.5-5.8,5l9.7-13l-0.6,3.7l14.9-19l-3.6,1.5
						c7.8-9,13-10.3,18.5-22.8c2.2-5.8-8.8,7.5-2-3c10.4-12,26-30,38.3-46c-3,0.2,0.3-4.2,3.2-9l2,0.6c10.3-19,8.2-3.8,18.8-22.3
						v2.3l-0.1-7c8-17.9,9.4-6,17.5-26.4c-4.7,7-5.9,0.7,0.9-7.3v3.3c3-4.9,3.5-6.9,6.1-9.8c-1.2,3.4,1.2,3.1,5.9-3.9l-1.4,6l6.5-15
						c8.9-8.8,18.2-26.1,23.4-28.7c0,0,16.6-20.7,17.7-27.4c-1.6,5.4,7.5-6,6.8-1.4c2.3-6.8,12.8-24.2,19.4-29.5l-0.7,1.4
						c19.4-23,27.5-43.5,45.5-63.7c-2.6-0.4,6.8-11.2,2.3-10c14-24.3,34.6-37.7,33.1-51.2c7-10.6,10.5-10.9,14.8-16l-1.4,2.7
						c13.3-19.7,17.3-25.4,27.8-39.6c4.4-7.7,1.8-11.3,11.9-23.5c-1.6,5.1,1.9-0.3,5.4-5.1c-2,3.2-2.2,4.5,3.3-1.1
						c0.2-1.2,0.9-2.7,1.7-4.2c0.1,0,0.4-0.2,0.5,0.1c5.3-8.3,3.9-7.3,1-3.7c-0.1-0.3-0.6-0.2-1.8,0.7c7.8-7,16.6-23.2,19.6-22.5
						c16.8-24.4,26.8-43.4,40.3-64c2.8-1.4,0.5,4.1-3.2,10.2l9.8-14.5c1.7,1.4-4.9,8.9-7.7,13.5c15-14.9,22.3-36.9,39.2-54.8
						l1.6-5.1l1.1-1c-0.8-0.5,1.4-5.6,3.3-8.7c3.5-1.7,3.4,2.7,10.3-7.2c7.1-6.7,15.2-22.6,21.7-33.3c-4.2,5.3-3.8,2.9-2.6,0.2
						c3.5-4.9,7-6.7,9.1-10.9l2.4,1c-3.3,0.5,7.2-14.3,7.6-16.7c3.5-1.7-4.2,8.6-3.9,10.6c14-19.8,7-9.9,21-29.7
						c6-11.6-3.3,0.5-1.5-5.8c6.3-9.6,11.4-19.6,20.3-29.4l-4.2,2.1c11.2-18.4,18.9-28.7,29.2-39.1c78.8-140.3-0.5-41.9-0.5-41.9
						C983.4,40.8,969.6,71,927.2,132.8z"/>
				</g>
			</g>
		</g>
	</g>
</g>
<g>
	<g>
		<g>
			<g>
				<g>
					<path class="st0" d="M1638.9,1359.2l-4.5-5C1634.2,1354.7,1635.3,1356,1638.9,1359.2z"/>
					<path class="st0" d="M348.6,286c-0.4-0.3-0.9-0.6-1.3-0.8C348.2,285.8,348.5,286,348.6,286z"/>
					<path class="st0" d="M1460.9,1170.3c0.1,0.1,0.2,0.2,0.3,0.2c0.5,0.3,1,0.7,1.5,0.9L1460.9,1170.3z"/>
					<path class="st0" d="M1719.2,1388.6c-67.5-57.6-82.8-76-154.7-133.5c-33.5-28.3-70.1-57.5-103.4-84.5
						c-17.8-10.4-43.3-36-63.7-49.2l-6-7.4c-7-4.6-14.9-10.3-20.7-16.4l0.8-0.1c-10.5-6.8-20.7-16.4-25.9-19.8l0.8-0.1l-11.7-9.4
						l2.5,1c-17.6-12.6-34.8-26.8-49.4-39.9l-0.2,2.8c-30.6-28.9-45.5-35-72.7-61.6l0.8-0.1c-40.7-25.9-55.5-51.6-97.2-78.8
						c5.2,3.4-1.3-2.6-0.5-2.7c-17.9-14-36.8-29.3-40-26c-12.7-10.6-9.5-9.7-10-12.5c-1.2,1.6-12.8-7-22.8-15.1l5.1,3.2l-28.9-23.2
						l3.2,7.6c-14.4-13.4-0.9-6.7-16-18.1l-1.8,2.6c-20.5-17.9-29.7-31.7-48.5-50.3c-83.2-71-178.7-140.1-253.4-209.4L703,543
						c0.7-3.9-24.8-14.1-25.8-19l-10.1-6.4c-2.2-2.6-7.1-7.6-2.1-4.4c-8.3-7.1-8.9-6.8-15.6-11.1l-7.7-9.2
						c-32.1-28.9-63-49.2-97.4-78.9c-39.2-38.3-120.8-100.9-167.8-137c-67.3-49.3-132.9-121.7-202.2-171.7c-1.8-2.1-8-5.9-8.2-5.6
						l-59.6-50.3c0,0-289.9-242.9-87.2-37.3l-2-0.7c31.5,28.6,51.9,46.1,77,62.1c0.6,6.5,26.7,22.8,33.4,30.3l-1-0.3
						c22.3,13.9,39.3,36.6,60.7,50.2c-1-0.3-2.2,0.3-6.7-3.3c14.4,11.3,34.3,26.5,33.6,29.4c34,27.4,80.1,67.4,104.4,82l-2-0.7
						c14.1,8,16.1,12.9,30.8,23.2c0.5,0.9,1.4,1.8,1.1,1.8c15.2,8.9,39.3,32.1,50.8,40.1l-0.4,2l26.9,21.8l-9.7-8.6
						c6.6-0.9,18.2,19.1,39.5,32.7c17.7,15.5,43.1,22.6,60.3,40.1c10.4,5.7-10.3-3.7,4.2,6.1c-1.2,2.3-7.3-4-5.1,0.5
						c13.9,10,19.9,19.9,37.1,32.1l-0.6,2.1c23.4,14.8,38.2,35.2,54.4,44.2c22.8,16.9,10.8,16.7,36,32.6l7.1,9.4
						c9.4,8.4,9.1,3.2,19,13.2c-1.7,0.8,12.7,12.4,5.4,8.3c22.7,22.3,51.8,38.2,81,68.4c9.1,3.3,24,18.2,30.7,20.6
						c-0.1,1.8,32.2,27.1,12.1,14.4c-1.7-1.1-4.4-3.4-3.9-3.7l-3.4-0.3c15.9,18.1,34.5,26.1,52.3,41.6c-4.9-5-12.2-10.8-6.6-7.8
						l16.6,14.2l-4.6-1.6l24.4,21.6l-2.1-4.4c11.6,11,13.7,17.3,29.4,26.5c7.3,4-9.9-11.8,3.5-1.5c15.5,14.7,38.7,36.7,59.2,54.6
						c-0.5-3.4,5.1,1.4,11.2,5.8l-0.6,2.1c24,16.3,5.3,10.1,28.8,26.8l-2.8-0.5l8.5,1.6c22.4,13.5,8.1,12.1,33.6,26.3
						c-8.9-7-1.3-6.8,8.9,2.8l-4-0.8c6.2,4.6,8.7,5.7,12.4,9.3c-4.2-2.2-3.7,0.6,5.3,7.6l-7.4-3l18.8,11
						c11.4,12.2,33.3,27.1,36.8,33.5c0,0,26.6,23.9,34.8,26.8c-6.7-3.2,8,10,2.3,8c8.4,4.3,30.5,20.5,37.5,29.2l-1.8-1.1
						c29.7,27.6,55.2,41.9,81.3,67.2c0.2-2.8,14.1,10.4,12.4,5.1c30.7,21.8,48.8,48.4,65.1,50.1c13.5,10.6,14.2,14.6,20.7,20.6
						l-3.4-2.2c25.1,19.9,32.3,25.8,50.4,41.2c9.7,6.9,13.8,4.8,29.5,19.2c-6.4-3.1,0.5,2.2,6.6,7.3c-4.1-3-5.7-3.6,1.6,4
						c1.5,0.5,3.4,1.7,5.2,2.9c0,0.2,0.2,0.5,0,0.5c10.6,8,9.2,6.2,4.6,2c0.4,0,0.2-0.6-1-2.2c9.2,10.5,29.6,24.5,29.1,27.8
						c31.1,25,55,41,81.3,61.4c1.9,3.5-4.9-0.4-12.7-6.1l18.5,14.7c-1.5,1.5-11.2-7.7-17.1-12c19.4,20.6,46.7,34.4,70,57.9l6.3,3.1
						l1.3,1.5c0.5-0.8,7,3,10.9,5.9c2.4,4.4-3,3.1,9.6,13.4c8.8,9.6,28.7,22.7,42.3,32.8c-6.8-6.1-3.9-5-0.4-3
						c6.3,5.2,8.7,9.6,14.1,13l-1,2.4c-0.9-3.9,18,11.6,21,12.8c2.4,4.4-10.7-6.9-13.2-7.1c25.3,20.7,12.6,10.4,37.9,31.1
						c14.6,9.7-0.9-3.9,6.9-0.2c12.1,9.5,24.8,17.7,37.4,30.2l-2.9-5.3c23.3,17.2,36.5,28.4,50,42.6c177.3,123.8,50.8,9.9,50.8,9.9
						C1835.8,1474.8,1798,1451.8,1719.2,1388.6z"/>
				</g>
			</g>
		</g>
	</g>
</g>
<g>
	<g>
		<g>
			<g>
				<g>
					<path class="st0" d="M1604.8,643.3l-5-1.5C1599.8,642.2,1601.1,642.7,1604.8,643.3z"/>
					<path class="st0" d="M305.3,493c-0.4,0-0.9,0-1.2,0.1C305,493.1,305.3,493,305.3,493z"/>
					<path class="st0" d="M1408.9,589c0.1,0,0.2,0,0.3,0c0.4,0,1,0,1.4-0.1L1408.9,589z"/>
					<path class="st0" d="M1670.5,621.9c-68.6-9.1-86.3-15.5-157.7-22c-33.9-4.3-70.3-7.5-103.6-10.8c-16.2,1.5-43.6-5-62.6-4.4
						l-7-2.7c-6.5,0.2-14.2,0-20.5-1.8l0.5-0.5c-9.8,0.3-20.5-1.8-25.4-1.6l0.5-0.5l-11.7-1.1l2.1-0.6c-16.9-0.4-34.2-2.3-49.3-4.8
						l1,2.5c-32.2-6.3-44.7-2.9-73.6-9.4l0.5-0.5c-37.8,1.8-58.1-10.9-97-9.6c4.9-0.2-1.9-1.4-1.5-1.9c-17.7-1.4-36.5-3.2-37.3,1.3
						c-12.8-1.5-10.3-2.6-11.8-4.6c-0.2,2-11.4,1.5-21.4,0.5l4.7-0.2l-28.8-2.7l5.2,4.4c-15.1-2.8-3.3-5-18-5.8l-0.2,3.1
						c-21-3.1-32.8-9.2-52.9-13.8C820.1,523.3,728.2,520.6,650,506l-3.2-2.7c-1.1-3.6-22.3,2.5-25-1l-9.3,0.5
						c-2.5-0.9-7.9-2.2-3.2-2.4c-8.5-1.1-8.7-0.6-15-0.3l-8.9-3.2c-33.3-5.5-62.2-4.7-97.3-9.6c-41.8-9.2-121.8-14.5-167.9-17.5
						c-65-2.4-138.4-24.6-205.1-26.5c-2.1-0.7-7.8-0.3-7.8,0.1L47,435.8c0,0-292.7-35.3-73.5,18.8l-1.6,0.6
						c32.8,5.6,53.6,8.4,76.8,7.4c3.1,5,27.1,3.6,34.7,6l-0.8,0.3c20.6-1.2,41.2,7.7,61,6.8c-0.8,0.3-1.4,1.5-5.8,1
						c14.2,1.1,33.7,2.3,34.5,5.1c33.9,3.2,81,9.9,103.1,8.2l-1.6,0.6c12.7-1.4,16,1.4,30,1.6c0.7,0.4,1.7,0.7,1.5,0.9
						c13.8-1.3,39.3,4.1,50.3,4.2l0.5,1.9l26.8,2.7l-10-1.5c4-4.5,19.9,5.4,39.7,4.5c18.1,2.7,38-5.8,56.7-1.3
						c9.3-1.2-8.4,2.8,5.3,2.6c0.1,2.6-6.5,0.9-3.2,3.3c13.4,0.3,21.4,5.1,37.9,5.3l0.4,2.1c21.7-1.1,39.8,7.3,54.4,5.4
						c22.1,0.9,14,7.6,37.3,6.4l8.6,3.7c9.7,1.6,7.4-2.5,18.1,0.1c-0.9,1.6,13.5,2.9,7,3.8c24.2,5.5,50.2,2,82,10.2
						c7.4-2.5,23.4,1.4,28.9-0.5c0.7,1.5,32.6,4,13.9,5c-1.6,0.1-4.4-0.3-4.1-0.8l-2.4,1.7c18,5.8,33.7,1.9,51.9,4.5
						c-5.3-1.3-12.5-1.9-7.6-2.7l16.9,2.2l-3.7,1.2L836,561l-3.2-2.4c12.2,2.5,16.2,6.4,30.4,5.2c6.5-0.9-11.4-4.1,1.7-3.2
						c16.3,3.3,40.8,8.2,61.8,11.3c-1.7-2.5,4-1.8,9.8-1.6l0.4,2.1c22.7-0.2,7.7,5.3,30.1,5.7l-2.1,1.2l6.3-3.5
						c20.5-1.6,10.3,5.4,33.2,2.6c-8.8-0.7-3.6-4.8,7.1-2.7l-3,1.6c6,0.3,8.1-0.3,12.1,0.6c-3.7,0.6-2.2,2.6,6.6,3.3l-6.2,1.7
						l17.1-1.6c12.6,3.5,33.3,3.3,38.3,6.6c0,0,27.5,4.5,34.2,2.3c-5.8,1.2,9.4,3.7,4.8,5.3c7.4-1.2,28.8-0.5,37,2.7l-1.6,0.1
						c31.1,5.9,53.9,3.1,81.7,9.1c-1-2.4,13.7,0.5,10.4-2.8c29.4,0.5,52.3,12.1,63.9,4.3c13.3,1,15.4,3.9,22.2,5.2l-3.2,0.1
						c24.9,2.1,32.1,2.9,50.5,5.2c9.3,0.2,11.2-3.9,27.6-0.9c-5.5,1.1,1.2,1.5,7.4,2.2c-4-0.2-5.3,0.3,2.7,2.3
						c1.2-0.4,3-0.5,4.7-0.6c0.1,0.1,0.4,0.3,0.2,0.4c10.4,0.6,8.6-0.1,3.9-0.9c0.3-0.2-0.1-0.6-1.5-1.2c10.4,3.4,29.8,3.3,30.7,6.3
						c31,2.9,53.5,2.5,79.3,4.4c2.7,1.8-3.4,2.4-11,2.1l18.3,1.6c-0.4,2.1-10.6,0-16.3-0.2c21.3,6,45.2,1.8,70.3,7.9l5.5-1.1
						l1.5,0.5c0-0.9,5.9-1.4,9.7-1.3c3.4,2.3-0.7,4.2,11.9,5.6c9.8,2.9,28.5,2.4,41.6,2.9c-7-1.1-4.6-1.9-1.5-2.2
						c6.3,0.7,9.7,2.9,14.7,2.7l0.3,2.6c-2.2-2.6,16.8-0.6,19.2-1.4c3.4,2.3-10,0.5-11.7,1.7c25.3,2.7,12.7,1.3,38,4.1
						c13.7-0.3-2.2-2.7,4.5-4.1c12,0.9,23.8,0.5,37.3,3.6l-4.1-2.7c22.6,0.9,36,2.7,50.8,6.7c168.9,1.2,38-20.7,38-20.7
						C1783.5,626.7,1748.9,629.2,1670.5,621.9z"/>
				</g>
			</g>
		</g>
	</g>
</g>
<g>
	<g>
		<g>
			<g>
				<g>
					<path class="st0" d="M1607.4,493.4l-4.9-1.9C1602.5,491.9,1603.7,492.5,1607.4,493.4z"/>
					<path class="st0" d="M323.4,245.9c-0.4,0-0.9,0-1.2,0C323,246,323.3,246,323.4,245.9z"/>
					<path class="st0" d="M1416.1,424.5c0.1,0,0.2,0,0.3,0.1c0.4,0,1,0,1.4,0L1416.1,424.5z"/>
					<path class="st0" d="M1674.4,477c-67.7-14.2-84.9-21.9-155.6-33.8c-33.5-6.8-69.5-12.8-102.4-18.6c-16.2,0.3-43.1-8.3-62.1-9
						l-6.8-3.3c-6.5-0.3-14.1-1.1-20.3-3.3l0.5-0.5c-9.8-0.4-20.3-3.3-25.1-3.5l0.5-0.5l-11.6-2l2.1-0.4
						c-16.8-1.7-33.9-4.9-48.8-8.5l0.8,2.5c-31.6-8.7-44.3-6.3-72.7-14.9l0.5-0.5c-37.8-1.1-57.1-15.3-96-16.9
						c4.8,0.2-1.8-1.6-1.3-2c-17.5-2.7-36.2-6-37.3-1.5c-12.7-2.5-10.1-3.4-11.4-5.4c-0.3,2-11.5,0.7-21.4-1.1l4.7,0.1l-28.5-4.8
						l4.9,4.8c-14.8-4-2.9-5.3-17.5-7.1l-0.4,3.1c-20.7-4.6-32-11.6-51.7-17.8c-83.4-17.5-174.9-27-251.7-47.4l-3-3
						c-0.8-3.7-22.4,0.8-24.8-2.8l-9.4-0.2c-2.4-1.1-7.7-2.8-3-2.7c-8.3-1.7-8.7-1.2-14.9-1.4l-8.6-3.8c-32.7-8-61.6-9.4-96.2-16.9
						c-40.9-12.3-120.3-23.6-166.1-30c-64.6-7.3-136.1-35-202.4-41.8c-2-0.9-7.7-0.9-7.8-0.5l-59.6-12c0,0-289.1-57.1-74.7,13.2
						l-1.6,0.4c32.3,8.1,52.8,12.4,76,13.1c2.7,5.2,26.7,5.6,34.1,8.6l-0.8,0.2c20.6,0.4,40.5,10.8,60.3,11.4
						c-0.8,0.2-1.5,1.4-5.9,0.6c14.1,2.1,33.4,4.8,34,7.6c33.5,5.8,80,16,102.2,15.9L292,241c12.7-0.5,15.9,2.6,29.8,3.8
						c0.7,0.5,1.6,0.9,1.4,1c13.8-0.2,38.9,7,49.9,7.9l0.4,1.9l26.5,4.7l-9.8-2.3c4.4-4.1,19.4,6.9,39.2,7.5c17.8,4.1,38.4-3,56.6,3
						c9.3-0.5-8.5,2.1,5.1,3c0,2.6-6.5,0.4-3.5,3c13.3,1.3,20.9,6.7,37.4,8.1l0.3,2.1c21.7,0.5,39.1,10.2,53.8,9.5
						c22,2.6,13.4,8.6,36.7,9.1l8.3,4.3c9.6,2.3,7.5-1.9,18,1.4c-1,1.5,13.3,3.9,6.7,4.3c23.7,7.3,49.9,5.8,81,16.4
						c7.6-1.9,23.3,3.1,28.9,1.7c0.6,1.6,32.1,6.4,13.5,6c-1.6,0-4.3-0.6-4-1.1l-2.5,1.5c17.5,7.1,33.5,4.4,51.4,8.4
						c-5.2-1.7-12.4-2.9-7.3-3.3l16.7,3.5l-3.8,0.9l24.7,5.8l-3-2.7c12,3.4,15.6,7.6,29.9,7.4c6.5-0.4-11-4.9,2-3.1
						c16,4.5,40.1,11.3,60.8,15.9c-1.5-2.6,4.1-1.5,9.9-0.8l0.3,2.1c22.6,1.5,7.3,5.9,29.6,7.9l-2.2,1l6.6-3
						c20.5-0.1,9.9,6.1,32.9,5.1c-8.8-1.3-3.3-5.1,7.3-2.2l-3.1,1.4c6,0.7,8.1,0.3,12,1.5c-3.7,0.3-2.4,2.4,6.4,3.7l-6.3,1.2
						l17.1-0.3c12.3,4.5,32.9,5.8,37.6,9.5c0,0,27.1,6.6,33.9,4.9c-5.8,0.8,9.1,4.3,4.4,5.6c7.5-0.7,28.7,1.7,36.7,5.5l-1.6-0.1
						c30.5,8.2,53.5,7.2,80.8,15.2c-0.8-2.5,13.6,1.6,10.5-2c29.3,2.7,51.3,16,63.4,9c13.2,2,15.1,5.1,21.8,6.9l-3.2-0.1
						c24.6,4,31.8,5.3,49.9,9c9.2,0.9,11.5-3,27.6,1.1c-5.6,0.6,1.1,1.6,7.2,2.8c-3.9-0.5-5.3-0.1,2.5,2.5c1.2-0.3,3-0.3,4.7-0.2
						c0,0.1,0.3,0.3,0.1,0.5c10.3,1.4,8.6,0.5,3.9-0.6c0.3-0.2,0-0.6-1.4-1.3c10.1,4.2,29.4,5.5,30.2,8.6
						c30.7,5.2,53.1,6.5,78.7,10.3c2.6,2-3.6,2.2-11.1,1.3l18.1,2.9c-0.6,2.1-10.6-0.8-16.2-1.4c20.8,7.6,44.9,5.1,69.5,13.1
						l5.5-0.7l1.4,0.6c0.1-0.9,6-1,9.8-0.6c3.2,2.5-1.1,4.2,11.4,6.5c9.5,3.7,28.2,4.5,41.3,6c-6.9-1.7-4.5-2.2-1.3-2.3
						c6.2,1.1,9.5,3.7,14.5,3.8l0.1,2.6c-2-2.8,16.8,0.6,19.3,0.1c3.2,2.5-10-0.3-11.8,0.8c25.1,4.6,12.5,2.3,37.6,6.9
						c13.7,0.7-2-2.8,4.8-3.7c11.9,1.8,23.7,2.3,36.9,6.4l-3.9-3c22.5,2.6,35.6,5.4,50.1,10.5c168.3,13.9,39.4-17.7,39.4-17.7
						C1786.7,490.2,1752,490.2,1674.4,477z"/>
				</g>
			</g>
		</g>
	</g>
</g>
<g>
	<g>
		<g>
			<g>
				<g>
					<path class="st0" d="M1606.8,880l-5.2-0.7C1601.7,879.8,1603,880.1,1606.8,880z"/>
					<path class="st0" d="M307.4,950c-0.4,0.1-0.9,0.2-1.2,0.3C307,950.2,307.3,950.1,307.4,950z"/>
					<path class="st0" d="M1405.6,859.4c0.1,0,0.2,0,0.3,0c0.4-0.1,0.9-0.2,1.3-0.3L1405.6,859.4z"/>
					<path class="st0" d="M1667.6,847.9c-68.8,2.6-87.2-0.8-158.4,4.8c-34,1.5-70.2,4.4-103.4,6.7c-15.6,4.2-43.6,2.4-62.1,6.2
						l-7.3-1.5c-6.4,1.3-13.9,2.4-20.4,1.7l0.4-0.6c-9.5,2-20.4,1.7-25.1,2.7l0.4-0.6l-11.7,0.9l2-0.9c-16.7,2.4-33.9,3.5-49.2,3.6
						l1.4,2.3c-32.6-0.8-44.3,4.6-73.8,3.1l0.4-0.6c-36.8,8.1-58.9-1-96.8,6.8c4.7-1-2.1-1.1-1.8-1.7c-17.6,1.6-36.4,3-36.4,7.5
						c-12.8,0.6-10.5-0.9-12.3-2.5c0.2,2-10.9,3.4-20.9,4.1l4.6-1l-28.7,2.2l5.8,3.5c-15.3-0.3-4.1-4.4-18.6-2.7l0.4,3.1
						c-21.1,0.5-33.7-3.6-54.2-4.8c-84.8,3.2-175.4,16.1-254.5,14.8l-3.6-2.2c-1.7-3.3-21.5,6.2-24.6,3.2l-9.1,2.1
						c-2.6-0.5-8.1-0.8-3.6-1.9c-8.5,0.3-8.7,0.9-14.7,2.3l-9.2-1.6c-33.5,0.1-61.7,5.8-97,6.8c-42.5-2.1-121.9,6.2-167.6,11
						c-64.2,8.6-139.9-1-205.5,8.4c-2.2-0.4-7.7,1-7.6,1.4l-60.4,2.8c0,0-292.9,14.4-68.9,30.8l-1.5,0.8c33.1,0,54-0.7,76.6-5.7
						c3.8,4.4,27.2-1,35,0.1l-0.7,0.4c20-4.6,41.7,0.7,61-3.5c-0.7,0.4-1.1,1.7-5.5,2c14.1-1.3,33.4-3.4,34.6-0.8
						c33.8-2.5,81.1-3.8,102.5-9.2l-1.4,0.8c12.2-3.5,16-1.3,29.7-3.5c0.8,0.3,1.8,0.4,1.6,0.6c13.3-3.6,39.2-2.6,50-4.4l0.8,1.7
						l26.8-1.9l-10,0.2c3.2-5.1,20.4,2,39.7-2.2c18.2-0.4,36.3-12.1,55.3-10.8c8.9-2.8-7.7,4.1,5.6,1.7c0.6,2.5-6.2,1.9-2.6,3.8
						c13.2-1.9,21.8,1.4,38-1.2l0.8,2c21.1-4.8,40.3,0.5,54.2-3.8c21.8-2.8,15,5.1,37.7,0l9,2.2c9.8-0.1,6.8-3.7,17.7-2.9
						c-0.6,1.7,13.8,0.6,7.5,2.6c24.7,1.3,49.6-6.4,82.1-3.7c6.8-3.7,23.2-2.6,28.3-5.3c0.9,1.4,32.6-1.5,14.5,2.6
						c-1.6,0.3-4.3,0.4-4.2-0.1l-2.1,2.1c18.6,2.7,33.4-3.8,51.6-4.2c-5.4-0.4-12.6,0.2-7.9-1.4l16.9-0.6l-3.4,1.8l25.3-0.4
						l-3.6-1.8c12.4,0.4,16.9,3.6,30.7,0c6.2-1.9-11.8-2.1,1.2-3.5c16.6,0.5,41.4,1.3,62.5,0.7c-2.1-2.2,3.6-2.4,9.4-3.2l0.8,2
						c22.2-4,8.4,3.9,30.5,0.5l-1.9,1.5l5.6-4.5c19.8-5,11,3.5,33-3c-8.8,0.8-4.4-4.2,6.5-3.9l-2.6,2.1c6-0.7,7.9-1.6,11.9-1.5
						c-3.5,1.2-1.7,2.9,7.1,2.1l-5.8,2.7l16.5-4.4c13,1.4,33.2-2.3,38.6,0.1c0,0,27.7-0.2,33.9-3.5c-5.5,2.1,9.8,2,5.6,4.4
						c7.1-2.5,28.1-5.3,36.7-3.5l-1.6,0.3c31.5,0.6,53.4-6,81.7-4.7c-1.4-2.2,13.5-1.8,9.7-4.5c28.9-4.5,53.4,3.2,63.4-6.5
						c13.2-1.2,15.8,1.3,22.7,1.4l-3.1,0.7c24.8-2.1,31.9-2.6,50.4-3.3c9.1-1.4,10.4-5.7,26.9-5.6c-5.2,2,1.5,1.3,7.6,1
						c-3.9,0.5-5.1,1.2,3,1.9c1.1-0.6,2.9-1,4.5-1.4c0.1,0.1,0.4,0.2,0.2,0.4c10.3-1.1,8.4-1.6,3.6-1.6c0.2-0.3-0.2-0.6-1.7-1
						c10.8,1.6,29.7-1.7,31.2,1.1c30.9-2.3,52.8-6.5,78.5-9c3,1.3-3,3-10.4,4l18.2-1.5c0,2.2-10.4,1.8-16,2.5
						c21.9,2.3,44.6-5.9,70.3-4.1l5.2-2l1.5,0.2c-0.1-0.9,5.5-2.4,9.3-2.9c3.7,1.7,0,4.3,12.6,3.5c10.1,1.3,28.3-2.4,41.3-4.1
						c-7.1,0.1-4.8-1.1-1.8-1.9c6.3-0.4,10,1.3,14.9,0.2l0.7,2.5c-2.6-2.2,16.3-3.4,18.6-4.6c3.7,1.7-9.7,2.1-11.2,3.6
						c25.3-1.6,12.6-0.8,37.9-2.4c13.4-2.6-2.6-2.2,3.8-4.8c11.9-1.1,23.4-3.5,37.2-2.7l-4.5-2c22.3-2.9,35.7-3.4,50.9-1.9
						c165.8-27.2,33.8-26.7,33.8-26.7C1779.2,833.6,1745.7,841.9,1667.6,847.9z"/>
				</g>
			</g>
		</g>
	</g>
</g>
<g>
	<g>
		<g>
			<g>
				<g>
					<path class="st0" d="M1664.6,649.5l-5.7,2.1C1659.2,651.9,1660.7,651.5,1664.6,649.5z"/>
					<path class="st0" d="M325.3,1396.9c-0.4,0.3-0.8,0.6-1.2,0.9C325,1397.2,325.3,1397,325.3,1396.9z"/>
					<path class="st0" d="M1443.7,736.8c0.1-0.1,0.2-0.1,0.3-0.2c0.4-0.3,0.9-0.7,1.3-1L1443.7,736.8z"/>
					<path class="st0" d="M1714.8,588.5c-71.4,38.5-92.3,45.2-164.8,87.7c-35.2,19.2-72.1,40.9-106,60.5
						c-14.6,12-44.9,25.1-62.8,38.3l-8.4,2.5c-6.2,4.5-13.6,9.5-20.8,12.3l0.1-0.7c-9.2,6.8-20.8,12.3-25.3,15.6l0.1-0.7l-11.9,6.9
						l1.7-1.8c-16.5,11-34.2,21-50.3,29.1l2.4,1.3c-34.8,16.4-44.7,27.5-76.4,41.6l0.1-0.7c-35.2,26.7-62.5,30.1-99,57.1
						c4.6-3.4-2.7,0.1-2.6-0.6c-17.8,10.7-37,21.8-35.1,26c-13.3,7.3-11.5,4.8-14,4.2c1.1,1.7-10,8.8-20.3,14.7l4.4-3.3l-29.3,17.1
						l7.6,0.1c-16.2,7.8-6.2-1.8-20.8,7.4l1.7,2.6c-22,11.6-37,14.5-59.2,24.2c-88,47.5-177.9,106.8-261.8,147.3l-4.7-0.1
						c-3.2-2.1-19.9,16.9-24.6,15.9l-8.7,6.6c-3,0.9-8.9,3.5-4.5,0.2c-8.8,4.8-8.7,5.4-14.5,9.8l-10.4,3.4
						c-35.3,17.8-62.6,37.7-99.3,57.2c-45.7,20.5-125.8,69.8-171.9,98.1c-63.9,41.5-147.9,72.7-213,115.8c-2.4,0.8-7.6,5-7.4,5.3
						l-62.5,34.3c0,0-302.5,167.2-59.3,64.1l-1.2,1.5c35-17.4,56.6-29,78.3-45.4c6,2,28.2-15.2,36.9-18.3l-0.6,0.7
						c19.1-14.7,44.2-21.3,62.7-35.3c-0.6,0.8-0.4,2.1-5,4.7c14.3-8.6,33.8-20.7,36.2-18.9c34.5-20.1,83.8-46.1,104-62.3l-1.2,1.5
						c11.3-9.6,16.3-9.6,29.8-18.8c0.9-0.1,2-0.5,2-0.3c12.5-10.2,40.3-23,50.9-30.3l1.6,1.2l27.4-15.8l-10.5,5.4
						c1.2-6.3,22.4-9,40.9-22.9c19-9.9,33.1-30.1,53.7-38.9c8.2-7.2-6.4,7.8,6.7-1.5c1.7,2-5.7,5-1.1,4.8
						c13-8.7,23.6-10.2,39.6-21.1l1.7,1.4c20.1-15.4,42.6-20.8,55.5-32c21.8-14,18-3.3,39.7-19.8l10.5-2.8c10.3-5.2,5.6-6.9,17.4-12
						c0.1,1.9,14.8-6.7,9-1.6c26.6-11.8,49.5-31.9,85-46.6c5.6-6.9,23.3-14.5,27.5-19.7c1.6,0.8,33.7-18.5,16.4-5.3
						c-1.5,1.1-4.4,2.7-4.5,2.1l-1.3,3c20.8-7.4,33.5-21,52.6-31c-5.9,2.5-13.2,6.8-8.9,2.9l17.6-9.5l-2.8,3.5l26.5-13.7l-4.6,0.2
						c13.2-6.2,19.4-5.7,32.3-16.2c5.7-5-13.4,4.3-0.3-3.7c17.7-8.3,44.2-20.7,66.2-32.2c-3.1-0.9,2.7-4.1,8.5-7.8l1.7,1.4
						c21.7-15.3,10.6-0.9,32.4-15.6l-1.3,2.3l4-7c18.7-15,13.1-2.6,33.5-20.1c-8.9,5.4-6.4-1.5,5.2-6.9l-1.9,3.3
						c6-3.8,7.6-5.7,12-7.6c-3.2,3-0.6,3.5,8.3-1.8l-4.9,5.5l15.4-12.7c14.3-5.6,34-19.6,40.8-20.2c0,0,29.1-14.7,34.2-21
						c-4.8,4.8,11.2-3.3,7.8,1c6.4-5.9,27.3-19.6,37.2-22.5l-1.5,1.1c33.4-16,53.7-33.5,84-47.3c-2.4-1.3,13.5-8.7,8.3-9.2
						c28.6-19.3,57.6-25.2,64-39.3c13.4-8,17.2-7.1,24.5-10.7l-3,2.2c25.2-14.9,32.6-19.1,51.7-29.5c9-6.1,8.5-10.6,25.9-19.2
						c-4.7,4.5,2.1,0.4,8.5-3.2c-3.9,2.5-4.9,3.7,4,0.1c0.9-1.1,2.6-2.4,4.1-3.6c0.1,0.1,0.5,0,0.4,0.2c10.3-6.4,8.2-5.9,3.2-3.3
						c0.1-0.4-0.5-0.4-2.2,0c12.1-4.2,30.6-17.2,33.3-15.4c31.6-18.4,52.9-33.7,78.9-49.5c3.7-0.4-1.8,4.3-9.3,9.1l18.6-11
						c0.9,2-10.2,7.1-15.8,10.7c24.1-9.5,44.5-28.8,72.3-40.7l4.6-4.5l1.7-0.6c-0.5-0.7,4.8-5.1,8.5-7.5c4.6-0.4,1.8,3.9,14.8-3.5
						c11.2-4.2,28.8-17.1,41.8-25.5c-7.4,3.8-5.6,1.6-2.8-0.8c6.5-3.7,11.1-4.1,15.8-7.6l1.9,1.9c-3.7-0.6,15.7-11.7,17.6-14
						c4.6-0.4-9.3,7-10.2,9.2c26-14.8,13-7.4,38.9-22.1c13-9.4-3.7-0.7,1.9-6.3c12-7.3,23.2-15.5,38-22l-5.6,0.5
						c22.2-14.4,36.2-21.9,52.8-28.6c163.1-111.8,24.1-42,24.1-42C1826.3,516.8,1794.6,542,1714.8,588.5z"/>
				</g>
			</g>
		</g>
	</g>
</g>
<g>
	<g>
		<g>
			<g>
				<g>
					<path class="st0" d="M1609.8,1119.5l-5.4,0.8C1604.6,1120.7,1606.1,1120.6,1609.8,1119.5z"/>
					<path class="st0" d="M310.5,1554.1c-0.4,0.2-0.8,0.4-1.2,0.6C310.2,1554.3,310.5,1554.2,310.5,1554.1z"/>
					<path class="st0" d="M1400.4,1156.4c0.1,0,0.2-0.1,0.3-0.1c0.4-0.2,0.9-0.4,1.3-0.7L1400.4,1156.4z"/>
					<path class="st0" d="M1663.1,1071.3c-69.1,21.9-88.7,23.9-159.3,49.3c-34.1,11-70,24.1-103.1,35.7
						c-14.7,8.5-43.6,14.6-61.3,23.5l-7.8,0.6c-6.1,3.1-13.5,6.2-20.2,7.4l0.2-0.7c-9.1,4.6-20.2,7.4-24.8,9.7l0.2-0.7l-11.6,4.1
						l1.8-1.4c-16.3,7.1-33.5,12.9-48.9,17.3l2,1.8c-33.3,8.4-43.7,16.9-74,23.8l0.2-0.7c-35.1,18.2-60,15.6-96.3,33.9
						c4.5-2.3-2.4-0.5-2.2-1.1c-17.4,6.5-36.1,13.1-34.9,17.5c-12.9,4.2-10.9,2.1-13.1,1c0.7,1.9-10.2,6.4-20.1,9.8l4.4-2.3
						l-28.5,10.2l6.8,1.7c-15.6,4.1-5.3-3.1-19.6,2.7l1.2,2.9c-21.2,6.5-35.1,6.1-56.2,10.7c-85.1,27-173.6,65-254.2,86.1l-4.2-1.1
						c-2.6-2.7-20.1,12.1-24.1,10.1l-8.7,4.5c-2.8,0.3-8.4,1.5-4.1-0.8c-8.5,2.7-8.5,3.3-14.3,6.3l-9.8,1c-34,9.6-61.1,23-96.6,34
						c-43.7,10-122,40.4-167.1,57.9c-62.8,26.4-142.1,38.5-206.2,66.1c-2.3,0.3-7.5,3.2-7.3,3.5l-60.5,19.7
						c0,0-293.2,96.6-61.8,49.2l-1.3,1.2c33.6-9.3,54.6-15.9,76.2-27.1c5.1,3.2,27.3-8.6,35.5-9.8l-0.6,0.6
						c19-10.1,42.5-11.1,60.9-20.6c-0.6,0.6-0.7,1.9-5.1,3.5c14-5.3,33-12.7,34.9-10.5c33.6-12,81.2-26.6,101.5-37.9l-1.3,1.2
						c11.4-6.9,15.8-5.7,29.2-11.8c0.9,0.1,1.9-0.1,1.8,0.1c12.5-7.2,39.1-13.5,49.6-18.3l1.3,1.5l26.7-9.3l-10.1,3
						c1.9-5.8,21.2-3.9,39.7-13.4c18.4-5.5,33.6-22,53.3-26c8.3-5.2-6.7,6.2,6.2,0c1.2,2.3-5.8,3.6-1.7,4.4
						c12.8-5.6,22.5-4.8,38.3-11.9l1.3,1.7c20.1-10.6,41-10.9,54-18.9c21.4-8.9,16.6,0.7,38.2-10.6l9.7-0.4c9.9-2.9,6-5.5,17.2-7.9
						c-0.1,1.8,14.1-3.3,8.3,0.4c25.4-5.7,48.6-20.2,82.3-26.8c6-5.5,22.9-9,27.3-13.1c1.3,1.1,32.7-10.7,15.4-1.6
						c-1.5,0.8-4.3,1.6-4.3,1.1l-1.6,2.6c19.6-2.7,32.8-13.1,51.2-18.7c-5.6,1.2-12.7,3.8-8.4,0.9l17-5.4l-3,2.7l25.5-7.5l-4.1-0.8
						c12.7-3.1,18.1-1.3,31.1-8.7c5.8-3.6-12.6,1.3,0.3-3.7c16.9-4.2,42.3-10.5,63.6-16.9c-2.7-1.5,3-3.3,8.7-5.7l1.3,1.7
						c21.5-10.1,9.6,1.4,31.1-8.1l-1.5,2l4.5-5.9c18.8-10.4,12.1,0.3,32.6-12.2c-8.7,3.3-5.5-2.8,5.6-5.6l-2.1,2.7
						c5.9-2.4,7.6-3.8,11.7-4.8c-3.2,2.2-1,3.3,7.7,0l-5.1,4.3l15.5-8.9c13.5-2.3,33.1-11.6,39.2-10.8c0,0,28.1-8,33.5-12.9
						c-5,3.6,10.5-0.8,6.8,2.7c6.5-4.4,27.1-13.1,36.3-13.8l-1.5,0.8c32.1-8.3,52.6-20.9,81.6-27.6c-2-1.8,13.2-5.5,8.6-7.1
						c28.2-12.5,54.9-12,62.6-24.2c13.1-4.9,16.4-3.2,23.4-5.1l-3,1.5c24.6-9,31.7-11.5,50.2-17.4c8.9-3.9,9-8.4,25.8-13
						c-4.8,3.4,1.8,0.8,8-1.2c-3.9,1.6-4.9,2.6,3.6,0.9c1-0.9,2.6-1.8,4.2-2.6c0.1,0.1,0.5,0.1,0.4,0.3c10.1-4,8.1-3.9,3.3-2.5
						c0.2-0.3-0.3-0.5-2-0.5c11.4-1.5,29.7-10.1,31.9-7.8c30.7-11,51.9-21.2,77.3-30.9c3.4,0.4-2.2,3.7-9.5,6.8l18.1-6.6
						c0.5,2.1-10.1,4.7-15.6,7c22.8-4,43.7-18.3,70.2-23.8l4.7-3.4l1.6-0.2c-0.4-0.8,5-3.9,8.7-5.4c4.2,0.6,1.1,4.2,13.7-0.2
						c10.5-1.6,28.1-10.3,40.8-15.7c-7.1,2.1-5.2,0.3-2.4-1.3c6.3-2.2,10.5-1.6,15.1-4l1.4,2.2c-3.2-1.4,15.7-7.9,17.7-9.7
						c4.2,0.6-9.3,4.8-10.4,6.7c25.2-8.7,12.6-4.3,37.8-13c12.9-6.3-3.2-1.4,2.5-5.7c11.8-4.5,22.8-10,37-13.1l-5-0.7
						c21.8-9.1,35.3-13.4,51.1-16.3c161-73,27.3-35.4,27.3-35.4C1772.5,1026,1740.7,1043.5,1663.1,1071.3z"/>
				</g>
			</g>
		</g>
	</g>
</g>
<g>
	<g>
		<g>
			<g>
				<g>
					<path class="st0" d="M1581.8,1569.8l-5.2-0.3C1576.7,1569.9,1578.1,1570.1,1581.8,1569.8z"/>
					<path class="st0" d="M282.5,1727c-0.4,0.1-0.9,0.2-1.2,0.4C282.1,1727.2,282.4,1727.1,282.5,1727z"/>
					<path class="st0" d="M1378.6,1562.7c0.1,0,0.2,0,0.3,0c0.4-0.1,0.9-0.3,1.3-0.4L1378.6,1562.7z"/>
					<path class="st0" d="M1640.7,1533.6c-68.9,7.2-87.6,5.1-158.6,15.4c-34,3.8-70.1,9.1-103.3,13.7c-15.4,5.3-43.6,5.3-61.9,10.4
						l-7.5-1c-6.3,1.7-13.8,3.3-20.4,3.1l0.3-0.6c-9.4,2.6-20.4,3-25,4.3l0.3-0.6l-11.6,1.7l1.9-1c-16.6,3.6-33.8,5.7-49.1,6.9
						l1.5,2.2c-32.8,1.3-44.1,7.6-73.8,8.1l0.3-0.6c-36.4,10.6-59.1,2.9-96.7,13.3c4.7-1.3-2.2-0.9-1.9-1.5
						c-17.5,2.8-36.3,5.4-36,10c-12.8,1.5-10.6-0.2-12.5-1.7c0.3,2-10.7,4.1-20.7,5.5l4.5-1.3l-28.6,4.1l6.1,3.1
						c-15.3,0.8-4.4-4.1-18.9-1.4l0.6,3.1c-21.1,1.9-34-1.3-54.7-1.1c-84.9,8.9-174.9,27.8-254.4,31.9l-3.8-1.9
						c-1.9-3.2-21.1,7.7-24.5,4.9l-9,2.7c-2.6-0.3-8.2-0.3-3.7-1.6c-8.5,0.9-8.6,1.5-14.6,3.2l-9.4-1c-33.6,2.4-61.6,9.9-96.9,13.3
						c-42.8,0.8-121.9,14.4-167.5,22.2c-63.8,12.9-140.4,8.4-205.7,22.2c-2.2-0.2-7.6,1.5-7.5,1.9l-60.4,6.8c0,0-293,34.1-67.1,35.4
						l-1.4,0.9c33.3-2.2,54.1-4.3,76.5-10.8c4.2,4.1,27.2-2.8,35.1-2.3L60,1756c19.7-6,41.9-2.1,60.9-7.6c-0.7,0.5-1,1.8-5.4,2.4
						c14.1-2.3,33.3-5.6,34.7-3.1c33.7-4.8,81.1-9.3,102.3-16.1l-1.4,0.9c12-4.4,15.9-2.4,29.6-5.5c0.8,0.3,1.8,0.3,1.7,0.5
						c13.1-4.5,39.2-5.2,49.9-7.7l0.9,1.7l26.7-3.6l-10.1,0.8c2.9-5.3,20.6,0.6,39.7-4.9c18.3-1.6,35.7-14.6,54.8-14.5
						c8.7-3.4-7.5,4.7,5.8,1.3c0.7,2.5-6.1,2.3-2.4,4c13.1-2.8,22,0,38.1-3.7l0.9,1.9c20.8-6.2,40.4-2.2,54.2-7.4
						c21.7-4.3,15.4,4.1,37.8-2.5l9.2,1.6c9.8-0.7,6.6-4.1,17.6-4.1c-0.5,1.8,13.9-0.3,7.7,2.1c24.8-0.3,49.3-9.8,82.2-9.2
						c6.6-4.1,23.1-4.1,28.1-7.2c1,1.3,32.6-3.7,14.7,1.6c-1.5,0.4-4.3,0.7-4.2,0.2l-2,2.2c18.9,1.4,33.2-6.1,51.5-7.7
						c-5.5,0-12.6,1-8-0.9l17-1.8l-3.3,2.1l25.3-2.1l-3.7-1.6c12.5-0.5,17.2,2.5,30.8-2.1c6.1-2.4-12-1.3,0.9-3.5
						c16.7-0.6,41.6-1.5,62.8-3.5c-2.2-2,3.4-2.6,9.2-3.8l0.9,1.9c22-5.4,8.7,3.4,30.6-1.5l-1.8,1.6l5.4-4.8
						c19.6-6.3,11.3,2.8,32.9-5.2c-8.8,1.4-4.7-3.9,6.3-4.3l-2.5,2.2c5.9-1.1,7.8-2.2,11.9-2.3c-3.4,1.5-1.6,3,7.2,1.6l-5.6,3.1
						l16.2-5.5c13.1,0.5,33.2-4.5,38.8-2.5c0,0,27.8-2,33.8-5.7c-5.3,2.5,10,1.4,5.9,4c6.9-2.9,27.9-7.2,36.6-6l-1.6,0.4
						c31.6-1.5,53.2-9.6,81.7-10.2c-1.6-2.1,13.4-2.7,9.4-5.2c28.7-6.4,53.8-0.4,63.2-10.8c13.2-2.1,15.9,0.2,22.8-0.1l-3.1,0.9
						c24.7-3.7,31.9-4.7,50.3-6.7c9.1-2,10-6.4,26.6-7.4c-5.1,2.3,1.6,1.2,7.7,0.5c-3.9,0.7-5.1,1.5,3.2,1.6
						c1.1-0.7,2.8-1.2,4.4-1.7c0.1,0.1,0.4,0.2,0.3,0.4c10.2-1.8,8.4-2.1,3.6-1.8c0.2-0.3-0.2-0.6-1.8-0.9c10.9,0.9,29.7-3.7,31.4-1
						c30.8-4.4,52.6-10,78.2-14.3c3.1,1.1-2.8,3.2-10.2,4.6l18.2-2.7c0.1,2.1-10.3,2.5-15.9,3.6c22.2,0.8,44.4-8.8,70.3-8.8l5.1-2.3
						l1.6,0.1c-0.2-0.9,5.4-2.8,9.1-3.5c3.8,1.4,0.3,4.3,12.9,2.7c10.2,0.6,28.2-4.3,41.2-6.9c-7.1,0.5-4.9-0.8-2-1.8
						c6.3-0.8,10.2,0.6,14.9-0.8l0.9,2.4c-2.8-2.1,16.2-4.5,18.4-5.8c3.8,1.4-9.6,2.8-11,4.4c25.3-3.3,12.6-1.6,37.9-4.9
						c13.3-3.5-2.7-2.1,3.5-5c11.9-1.9,23.3-5.1,37.1-5.2l-4.6-1.7c22.2-4.4,35.6-5.8,51-5.4c164.6-38.2,32.2-29,32.2-29
						C1751.8,1511.9,1718.7,1522.4,1640.7,1533.6z"/>
				</g>
			</g>
		</g>
	</g>
</g>
<g>
	<g>
		<g>
			<g>
				<g>
					<path class="st0" d="M1589.7,1433.9l-4.9-1.3C1584.8,1433,1586.1,1433.5,1589.7,1433.9z"/>
					<path class="st0" d="M336.4,1334.4c-0.4,0-0.8,0.1-1.2,0.1C336,1334.5,336.3,1334.4,336.4,1334.4z"/>
					<path class="st0" d="M1399.7,1387.3c0.1,0,0.2,0,0.3,0c0.4-0.1,0.9-0.1,1.3-0.1L1399.7,1387.3z"/>
					<path class="st0" d="M1652.1,1409.9c-66.2-6.4-83.4-12.1-152.3-15.8c-32.7-3-67.8-4.8-99.8-6.8c-15.5,2.2-42.1-3.3-60.3-1.9
						l-6.8-2.5c-6.3,0.5-13.6,0.5-19.8-1l0.4-0.5c-9.4,0.7-19.8-1-24.4-0.6l0.4-0.5l-11.3-0.6l2-0.6c-16.3,0.2-32.9-1-47.5-2.8
						l1,2.4c-31.1-5.1-43-1.2-71.1-6.5l0.4-0.5c-36.3,3.3-56.2-8.7-93.5-5.8c4.7-0.4-1.9-1.3-1.5-1.9c-17-0.7-35.2-1.8-35.8,2.7
						c-12.4-1-10-2.2-11.4-4.1c-0.1,2-10.9,2-20.6,1.3l4.5-0.4L977,1362l5.1,4.2c-14.6-2.3-3.4-4.9-17.5-5.1l-0.1,3.1
						c-20.3-2.2-31.8-7.9-51.3-11.8c-81.6-7.8-170-6.9-245.6-18.4l-3.2-2.6c-1.2-3.5-21.4,3.4-24,0l-9,0.9c-2.4-0.8-7.6-1.9-3.2-2.3
						c-8.2-0.8-8.4-0.2-14.4,0.3l-8.6-2.8c-32.1-4.2-59.9-2.3-93.8-5.8c-40.4-7.6-117.5-9.7-161.9-10.9
						c-62.6,0.2-133.8-19.2-197.9-18.4c-2-0.6-7.5,0-7.5,0.4l-58.2-5.1c0,0-282.3-23.8-70,21.6l-1.5,0.6c31.7,4.4,51.8,6.3,74.1,4.3
						c3.1,4.9,26.1,2.6,33.5,4.6l-0.7,0.3c19.7-2,39.8,6.1,58.8,4.5c-0.8,0.3-1.3,1.5-5.6,1.3c13.7,0.5,32.5,1,33.3,3.7
						c32.7,1.9,78.1,6.8,99.3,4.2l-1.5,0.6c12.1-1.9,15.5,0.8,28.9,0.4c0.7,0.4,1.6,0.7,1.5,0.8c13.2-1.8,37.9,2.6,48.5,2.2l0.5,1.8
						l25.9,1.6l-9.6-1.1c3.7-4.6,19.3,4.6,38.3,2.9c17.5,2,36.4-7.3,54.4-3.5c8.9-1.6-7.9,3.1,5.2,2.4c0.2,2.6-6.2,1.1-3,3.4
						c12.8-0.2,20.7,4.3,36.6,3.8l0.5,2c20.8-2,38.5,5.7,52.4,3.3c21.3,0,13.7,7,36.1,4.9l8.3,3.4c9.4,1.2,7-2.8,17.4-0.6
						c-0.8,1.6,13.1,2.4,6.9,3.5c23.4,4.5,48.3,0.1,79.1,7c7-2.7,22.6,0.5,27.8-1.6c0.7,1.5,31.4,2.7,13.5,4.4
						c-1.5,0.1-4.2-0.1-4-0.7l-2.3,1.8c17.5,5.1,32.4,0.5,50,2.5c-5.2-1.1-12.1-1.4-7.4-2.4l16.3,1.6l-3.5,1.4l24.3,2.9l-3.2-2.3
						c11.8,2,15.7,5.8,29.4,4c6.2-1.1-11.1-3.6,1.6-3.3c15.8,2.7,39.5,6.6,59.8,8.9c-1.7-2.4,3.7-1.9,9.4-1.9l0.5,2
						c21.8-1,7.6,5,29.1,4.5l-2,1.2l6-3.7c19.6-2.4,10.1,4.9,32,1.3c-8.5-0.3-3.6-4.7,6.7-3l-2.8,1.7c5.8,0.1,7.8-0.6,11.6,0.1
						c-3.5,0.8-2,2.6,6.5,3l-5.9,1.9l16.3-2.2c12.2,3,32.1,2,37,5.1c0,0,26.6,3.4,32.9,1c-5.5,1.4,9.1,3.3,4.8,5.1
						c7.1-1.5,27.6-1.6,35.6,1.3l-1.6,0.1c30,4.7,51.9,1,78.8,5.9c-1.1-2.4,13.2,0,9.9-3.2c28.3-0.7,50.7,10.1,61.5,1.8
						c12.8,0.5,15,3.3,21.5,4.3l-3.1,0.2c24,1.2,30.9,1.6,48.7,3.3c8.9-0.2,10.7-4.3,26.5-2c-5.3,1.3,1.2,1.5,7.2,2
						c-3.8,0-5,0.5,2.7,2.2c1.1-0.4,2.9-0.6,4.5-0.8c0.1,0.1,0.4,0.3,0.2,0.4c10,0.2,8.3-0.5,3.7-1.1c0.3-0.2-0.1-0.6-1.5-1.2
						c10.1,3,28.7,2.1,29.7,5.1c29.9,1.7,51.4,0.4,76.3,1.3c2.7,1.7-3.2,2.6-10.5,2.6l17.7,0.9c-0.3,2.1-10.2,0.4-15.7,0.4
						c20.7,5.1,43.5,0,67.8,5.1l5.2-1.3l1.4,0.4c0-0.9,5.6-1.7,9.3-1.7c3.3,2.1-0.6,4.3,11.6,5.1c9.5,2.6,27.4,1.3,40.1,1.3
						c-6.8-0.9-4.5-1.7-1.5-2.1c6.1,0.4,9.4,2.6,14.2,2.1l0.4,2.6c-2.2-2.6,16.1-1.3,18.4-2.1c3.3,2.1-9.6,0.9-11.2,2.1
						c24.4,1.7,12.2,0.9,36.6,2.6c13.2-0.9-2.2-2.6,4.2-4.3c11.5,0.4,22.9-0.4,36,2.1l-4-2.6c21.7,0,34.6,1.3,49,4.7
						c162.3-5.3,35.9-22.1,35.9-22.1C1760.8,1410.3,1727.6,1414.2,1652.1,1409.9z"/>
				</g>
			</g>
		</g>
	</g>
</g>
</svg>
