<?xml version="1.0" encoding="utf-8"?>
<!-- Generator: Adobe Illustrator 27.5.0, SVG Export Plug-In . SVG Version: 6.00 Build 0)  -->
<svg version="1.1" id="Layer_1" xmlns="http://www.w3.org/2000/svg" xmlns:xlink="http://www.w3.org/1999/xlink" x="0px" y="0px"
	 viewBox="0 0 1800 1800" style="enable-background:new 0 0 1800 1800;" xml:space="preserve">
<style type="text/css">
	.st0{fill:#C2B394;}
</style>
<g>
	<g>
		<g>
			<g>
				<g>
					<path class="st0" d="M900.6,216.2l-1.2,4.9C900,221.1,900.5,219.8,900.6,216.2z"/>
					<path class="st0" d="M901,1461.9c0.1,0.4,0.1,0.8,0.3,1.2C901.2,1462.2,901.1,1462,901,1461.9z"/>
					<path class="st0" d="M861.4,407.5c0-0.1,0-0.2,0-0.3c-0.1-0.4-0.2-0.9-0.3-1.3L861.4,407.5z"/>
					<path class="st0" d="M864.6,156.5c-1.4,65.9-6.8,83.4-4.6,151.6c-0.4,32.6,0.8,67.3,1.5,99.2c4.2,15.1,0.1,41.8,3.6,59.7
						l-2.4,6.9c1.2,6.2,2,13.4,0.7,19.6l-0.7-0.4c1.8,9.2,0.7,19.6,1.6,24.2l-0.7-0.4l0.3,11.2l-1-1.9c1.9,16.1,2.1,32.6,1.2,47.2
						l2.9-1.2c-3.2,31.2,2.8,42.6-1.1,70.7l-0.7-0.4c7.7,35.6-5.2,56.2,2.1,92.9c-0.9-4.6-1.5,2-2.2,1.6c0.8,16.9,1.3,34.9,7,35.2
						c-0.1,12.3-1.8,10-4,11.6c2.5-0.1,3.5,10.6,3.7,20.2l-1-4.4l0.8,27.5l4.7-5.4c-1.4,14.6-5.8,3.7-4.6,17.7l3.9-0.2
						c-0.8,20.2-6.7,32-9.6,51.6c-1.7,81.2,8.3,168.4,1.4,244l-2.9,3.3c-4.3,1.5,6.3,20.8,2.4,23.7l2,8.8c-0.8,2.5-1.6,7.7-2.6,3.3
						c-0.2,8.1,0.5,8.3,1.8,14.2l-2.7,8.7c-2.1,32.1,3.1,59.3,2,93.1c-5.4,40.5-0.4,116.8,2.5,160.8c6.4,61.8-10.7,133.6-3.3,196.9
						c-0.6,2.1,0.8,7.4,1.2,7.3l-0.6,57.9c0,0-1.6,280.7,33.9,67.4l0.9,1.4c2.3-31.7,2.8-51.6-1.9-73.5c5.8-3.5,0.6-26,2.5-33.4
						l0.5,0.7c-4.4-19.3,3.7-39.8-0.3-58.4c0.5,0.7,2,1.1,2.1,5.4c-0.7-13.6-2-32.1,1.3-33.2c-0.9-32.4,0.7-77.7-4.7-98.5l0.9,1.4
						c-3.6-11.8-0.5-15.3-2.4-28.6c0.4-0.7,0.7-1.7,0.8-1.5c-3.6-12.9-0.6-37.6-2.1-48.1l2.2-0.7l-0.5-25.7l-0.5,9.6
						c-6.1-3.3,3.8-19.4-0.1-38c0.8-17.4-12.7-35.3-9.7-53.5c-2.9-8.6,4.7,7.6,2.5-5.3c3.2-0.4,2,6,4.5,2.7
						c-1.5-12.7,3.3-20.8,1.1-36.4l2.5-0.6c-4.5-20.4,3.3-38.5-1.1-52c-2.1-21,7.4-14.1,2.5-36l3.4-8.5c0.5-9.4-4.1-6.7-2.5-17.1
						c2.1,0.6,1.7-13.1,3.7-7c3.3-23.5-4.7-47.7,0.9-78.7c-4.1-6.7-1.7-22.3-4.8-27.3c1.8-0.8,0.3-31.2,4.2-13.7
						c0.3,1.5,0.3,4.2-0.4,4l2.4,2.1c4.6-17.7-2.5-32.1-1.8-49.6c-0.8,5.2-0.6,12.1-2.3,7.5l0.3-16.2l2.1,3.4l1.2-24.2L906,956
						c1.3-11.8,5.6-16,2-29.3c-2-6-3.4,11.2-4.2-1.3c1.7-15.8,4.4-39.5,5.1-59.7c-2.9,1.9-2.8-3.5-3.3-9.1l2.5-0.6
						c-3.5-21.4,5.5-7.9,2.7-29.1l1.7,1.9l-5.2-5.6c-4.9-19.2,5.2-10.4-1.6-31.7c0.4,8.4-5.5,4-4.4-6.4l2.4,2.6
						c-0.5-5.7-1.5-7.7-1-11.5c1.3,3.4,3.5,1.8,3.1-6.6l3,5.7l-4.4-16c2.6-12.3-0.7-31.9,2.7-36.9c0,0,1.7-26.5-2.1-32.6
						c2.3,5.3,3.2-9.3,5.9-5.1c-2.6-6.9-4.7-27.2-2-35.3l0.3,1.5c2.8-30-3.9-51.4-0.4-78.3c-2.9,1.2-1.3-13-5-9.5
						c-3.7-27.9,7.5-50.8-3.9-60.9c-0.6-12.7,2.7-15,3.3-21.6l0.6,3c-0.9-23.8-1-30.7-0.8-48.3c-1.1-8.8-6.4-10.2-5.1-26
						c2.1,5.1,1.7-1.3,1.7-7.3c0.3,3.8,1.1,4.9,2.5-2.8c-0.7-1.1-1.1-2.8-1.4-4.4c0.2-0.1,0.3-0.4,0.5-0.2c-0.7-9.9-1.4-8.1-1.7-3.6
						c-0.3-0.2-0.7,0.2-1.3,1.6c2.7-10.2-0.2-28.5,3.4-29.8c-0.8-29.6-4.6-50.8-6-75.5c1.9-2.8,3.5,3,4.2,10.2l-0.7-17.5
						c2.7,0.1,1.5,10.1,2.1,15.4c4.3-20.8-4.3-43-0.4-67.4l-2.1-5.1l0.4-1.5c-1.1,0.1-2.6-5.4-3-9c2.3-3.5,5.4,0.2,5.2-11.9
						c2.3-9.6-1.1-27.2-2.4-39.7c-0.4,6.8-1.7,4.6-2.5,1.7c-0.1-6.1,2.3-9.5,1.2-14.2l3.2-0.6c-3,2.4-3.2-15.8-4.5-18
						c2.3-3.4,2,9.4,3.8,10.9c-0.3-24.3-0.1-12.1-0.4-36.4c-2.4-12.9-3,2.4-5.7-3.8c-0.6-11.4-2.8-22.6-0.9-35.7l-2.8,4.2
						c-2.2-21.5-1.8-34.3,1-48.8c-22.8-159.9-31.1-33.7-31.1-33.7C854.3,49,862.4,81.5,864.6,156.5z"/>
				</g>
			</g>
		</g>
	</g>
</g>
<g>
	<g>
		<g>
			<g>
				<g>
					<path class="st0" d="M1487.8,216.2l-1.2,4.9C1487.2,221.1,1487.7,219.8,1487.8,216.2z"/>
					<path class="st0" d="M1488.3,1461.9c0.1,0.4,0.1,0.8,0.3,1.2C1488.4,1462.2,1488.3,1462,1488.3,1461.9z"/>
					<path class="st0" d="M1448.6,407.5c0-0.1,0-0.2,0-0.3c-0.1-0.4-0.2-0.9-0.3-1.3L1448.6,407.5z"/>
					<path class="st0" d="M1451.8,156.5c-1.4,65.9-6.8,83.4-4.6,151.6c-0.4,32.6,0.8,67.3,1.5,99.2c4.2,15.1,0.1,41.8,3.6,59.7
						l-2.4,6.9c1.2,6.2,2,13.4,0.7,19.6l-0.7-0.4c1.8,9.2,0.7,19.6,1.6,24.2l-0.7-0.4l0.3,11.2l-1-1.9c1.9,16.1,2.1,32.6,1.2,47.2
						l2.9-1.2c-3.2,31.2,2.8,42.6-1.1,70.7l-0.7-0.4c7.7,35.6-5.2,56.2,2.1,92.9c-0.9-4.6-1.5,2-2.2,1.6c0.8,16.9,1.3,34.9,7,35.2
						c-0.1,12.3-1.8,10-4,11.6c2.5-0.1,3.5,10.6,3.7,20.2l-1-4.4l0.8,27.5l4.7-5.4c-1.4,14.6-5.8,3.7-4.6,17.7l3.9-0.2
						c-0.8,20.2-6.7,32-9.6,51.6c-1.7,81.2,8.3,168.4,1.4,244l-2.9,3.3c-4.3,1.5,6.3,20.8,2.4,23.7l2,8.8c-0.8,2.5-1.6,7.7-2.6,3.3
						c-0.2,8.1,0.5,8.3,1.8,14.2l-2.7,8.7c-2.1,32.1,3.1,59.3,2,93.1c-5.4,40.5-0.4,116.8,2.5,160.8c6.4,61.8-10.7,133.6-3.3,196.9
						c-0.6,2.1,0.8,7.4,1.2,7.3l-0.6,57.9c0,0-1.6,280.7,33.9,67.4l0.9,1.4c2.3-31.7,2.8-51.6-1.9-73.5c5.8-3.5,0.6-26,2.5-33.4
						l0.5,0.7c-4.4-19.3,3.7-39.8-0.3-58.4c0.5,0.7,2,1.1,2.1,5.4c-0.7-13.6-2-32.1,1.3-33.2c-0.9-32.4,0.7-77.7-4.7-98.5l0.9,1.4
						c-3.6-11.8-0.5-15.3-2.4-28.6c0.4-0.7,0.7-1.7,0.8-1.5c-3.6-12.9-0.6-37.6-2.1-48.1l2.2-0.7l-0.5-25.7l-0.5,9.6
						c-6.1-3.3,3.8-19.4-0.1-38c0.8-17.4-12.7-35.3-9.7-53.5c-2.9-8.6,4.7,7.6,2.5-5.3c3.2-0.4,2,6,4.5,2.7
						c-1.5-12.7,3.3-20.8,1.1-36.4l2.5-0.6c-4.5-20.4,3.3-38.5-1.1-52c-2.1-21,7.4-14.1,2.5-36l3.4-8.5c0.5-9.4-4.1-6.7-2.5-17.1
						c2.1,0.6,1.7-13.1,3.7-7c3.3-23.5-4.7-47.7,0.9-78.7c-4.1-6.7-1.7-22.3-4.8-27.3c1.8-0.8,0.3-31.2,4.2-13.7
						c0.3,1.5,0.3,4.2-0.4,4l2.4,2.1c4.6-17.7-2.5-32.1-1.8-49.6c-0.8,5.2-0.6,12.1-2.3,7.5l0.3-16.2l2.1,3.4l1.2-24.2l-2.5,3.3
						c1.3-11.8,5.6-16,2-29.3c-2-6-3.4,11.2-4.2-1.3c1.7-15.8,4.4-39.5,5.1-59.7c-2.9,1.9-2.8-3.5-3.3-9.1l2.5-0.6
						c-3.5-21.4,5.5-7.9,2.7-29.1l1.7,1.9l-5.2-5.6c-4.9-19.2,5.2-10.4-1.6-31.7c0.4,8.4-5.5,4-4.4-6.4l2.4,2.6
						c-0.5-5.7-1.5-7.7-1-11.5c1.3,3.4,3.5,1.8,3.1-6.6l3,5.7l-4.4-16c2.6-12.3-0.7-31.9,2.7-36.9c0,0,1.7-26.5-2.1-32.6
						c2.3,5.3,3.2-9.3,5.9-5.1c-2.6-6.9-4.7-27.2-2-35.3l0.3,1.5c2.8-30-3.9-51.4-0.4-78.3c-2.9,1.2-1.3-13-5-9.5
						c-3.7-27.9,7.5-50.8-3.9-60.9c-0.6-12.7,2.7-15,3.3-21.6l0.6,3c-0.9-23.8-1-30.7-0.8-48.3c-1.1-8.8-6.4-10.2-5.1-26
						c2.1,5.1,1.7-1.3,1.7-7.3c0.3,3.8,1.1,4.9,2.5-2.8c-0.7-1.1-1.1-2.8-1.4-4.4c0.2-0.1,0.3-0.4,0.5-0.2c-0.7-9.9-1.4-8.1-1.7-3.6
						c-0.3-0.2-0.7,0.2-1.3,1.6c2.7-10.2-0.2-28.5,3.4-29.8c-0.8-29.6-4.6-50.8-6-75.5c1.9-2.8,3.5,3,4.2,10.2l-0.7-17.5
						c2.7,0.1,1.5,10.1,2.1,15.4c4.3-20.8-4.3-43-0.4-67.4l-2.1-5.1l0.4-1.5c-1.1,0.1-2.6-5.4-3-9c2.3-3.5,5.4,0.2,5.2-11.9
						c2.3-9.6-1.1-27.2-2.4-39.7c-0.4,6.8-1.7,4.6-2.5,1.7c-0.1-6.1,2.3-9.5,1.2-14.2l3.2-0.6c-3,2.4-3.2-15.8-4.5-18
						c2.3-3.4,2,9.4,3.8,10.9c-0.3-24.3-0.1-12.1-0.4-36.4c-2.4-12.9-3,2.4-5.7-3.8c-0.6-11.4-2.8-22.6-0.9-35.7l-2.8,4.2
						c-2.2-21.5-1.8-34.3,1-48.8c-22.8-159.9-31.1-33.7-31.1-33.7C1441.5,49,1449.6,81.5,1451.8,156.5z"/>
				</g>
			</g>
		</g>
	</g>
</g>
<g>
	<g>
		<g>
			<g>
				<g>
					<path class="st0" d="M313.4,216.2l-1.2,4.9C312.8,221.1,313.3,219.8,313.4,216.2z"/>
					<path class="st0" d="M313.8,1461.9c0.1,0.4,0.1,0.8,0.3,1.2C314,1462.2,313.9,1462,313.8,1461.9z"/>
					<path class="st0" d="M274.2,407.5c0-0.1,0-0.2,0-0.3c-0.1-0.4-0.2-0.9-0.3-1.3L274.2,407.5z"/>
					<path class="st0" d="M277.4,156.5c-1.4,65.9-6.8,83.4-4.6,151.6c-0.4,32.6,0.8,67.3,1.5,99.2c4.2,15.1,0.1,41.8,3.6,59.7
						l-2.4,6.9c1.2,6.2,2,13.4,0.7,19.6l-0.7-0.4c1.8,9.2,0.7,19.6,1.6,24.2l-0.7-0.4l0.3,11.2l-1-1.9c1.9,16.1,2.1,32.6,1.2,47.2
						l2.9-1.2c-3.2,31.2,2.8,42.6-1.1,70.7l-0.7-0.4c7.7,35.6-5.2,56.2,2.1,92.9c-0.9-4.6-1.5,2-2.2,1.6c0.8,16.9,1.3,34.9,7,35.2
						c-0.1,12.3-1.8,10-4,11.6c2.5-0.1,3.5,10.6,3.7,20.2l-1-4.4l0.8,27.5l4.7-5.4c-1.4,14.6-5.8,3.7-4.6,17.7l3.9-0.2
						c-0.8,20.2-6.7,32-9.6,51.6c-1.7,81.2,8.3,168.4,1.4,244l-2.9,3.3c-4.3,1.5,6.3,20.8,2.4,23.7l2,8.8c-0.8,2.5-1.6,7.7-2.6,3.3
						c-0.2,8.1,0.5,8.3,1.8,14.2l-2.7,8.7c-2.1,32.1,3.1,59.3,2,93.1c-5.4,40.5-0.4,116.8,2.5,160.8c6.4,61.8-10.7,133.6-3.3,196.9
						c-0.6,2.1,0.8,7.4,1.2,7.3l-0.6,57.9c0,0-1.6,280.7,33.9,67.4l0.9,1.4c2.3-31.7,2.8-51.6-1.9-73.5c5.8-3.5,0.6-26,2.5-33.4
						l0.5,0.7c-4.4-19.3,3.7-39.8-0.3-58.4c0.5,0.7,2,1.1,2.1,5.4c-0.7-13.6-2-32.1,1.3-33.2c-0.9-32.4,0.7-77.7-4.7-98.5l0.9,1.4
						c-3.6-11.8-0.5-15.3-2.4-28.6c0.4-0.7,0.7-1.7,0.8-1.5c-3.6-12.9-0.6-37.6-2.1-48.1l2.2-0.7l-0.5-25.7l-0.5,9.6
						c-6.1-3.3,3.8-19.4-0.1-38c0.8-17.4-12.7-35.3-9.7-53.5c-2.9-8.6,4.7,7.6,2.5-5.3c3.2-0.4,2,6,4.5,2.7
						c-1.5-12.7,3.3-20.8,1.1-36.4l2.5-0.6c-4.5-20.4,3.3-38.5-1.1-52c-2.1-21,7.4-14.1,2.5-36l3.4-8.5c0.5-9.4-4.1-6.7-2.5-17.1
						c2.1,0.6,1.7-13.1,3.7-7c3.3-23.5-4.7-47.7,0.9-78.7c-4.1-6.7-1.7-22.3-4.8-27.3c1.8-0.8,0.3-31.2,4.2-13.7
						c0.3,1.5,0.3,4.2-0.4,4l2.4,2.1c4.6-17.7-2.5-32.1-1.8-49.6c-0.8,5.2-0.6,12.1-2.3,7.5l0.3-16.2l2.1,3.4l1.2-24.2l-2.5,3.3
						c1.3-11.8,5.6-16,2-29.3c-2-6-3.4,11.2-4.2-1.3c1.7-15.8,4.4-39.5,5.1-59.7c-2.9,1.9-2.8-3.5-3.3-9.1l2.5-0.6
						c-3.5-21.4,5.5-7.9,2.7-29.1l1.7,1.9l-5.2-5.6c-4.9-19.2,5.2-10.4-1.6-31.7c0.4,8.4-5.5,4-4.4-6.4l2.4,2.6
						c-0.5-5.7-1.5-7.7-1-11.5c1.3,3.4,3.5,1.8,3.1-6.6l3,5.7l-4.4-16c2.6-12.3-0.7-31.9,2.7-36.9c0,0,1.7-26.5-2.1-32.6
						c2.3,5.3,3.2-9.3,5.9-5.1c-2.6-6.9-4.7-27.2-2-35.3l0.3,1.5c2.8-30-3.9-51.4-0.4-78.3c-2.9,1.2-1.3-13-5-9.5
						c-3.7-27.9,7.5-50.8-3.9-60.9c-0.6-12.7,2.7-15,3.3-21.6l0.6,3c-0.9-23.8-1-30.7-0.8-48.3c-1.1-8.8-6.4-10.2-5.1-26
						c2.1,5.1,1.7-1.3,1.7-7.3c0.3,3.8,1.1,4.9,2.5-2.8c-0.7-1.1-1.1-2.8-1.4-4.4c0.2-0.1,0.3-0.4,0.5-0.2c-0.7-9.9-1.4-8.1-1.7-3.6
						c-0.3-0.2-0.7,0.2-1.3,1.6c2.7-10.2-0.2-28.5,3.4-29.8c-0.8-29.6-4.6-50.8-6-75.5c1.9-2.8,3.5,3,4.2,10.2l-0.7-17.5
						c2.7,0.1,1.5,10.1,2.1,15.4c4.3-20.8-4.3-43-0.4-67.4l-2.1-5.1l0.4-1.5c-1.1,0.1-2.6-5.4-3-9c2.3-3.5,5.4,0.2,5.2-11.9
						c2.3-9.6-1.1-27.2-2.4-39.7c-0.4,6.8-1.7,4.6-2.5,1.7c-0.1-6.1,2.3-9.5,1.2-14.2l3.2-0.6c-3,2.4-3.2-15.8-4.5-18
						c2.3-3.4,2,9.4,3.8,10.9c-0.3-24.3-0.1-12.1-0.4-36.4c-2.4-12.9-3,2.4-5.7-3.8c-0.6-11.4-2.8-22.6-0.9-35.7l-2.8,4.2
						c-2.2-21.5-1.8-34.3,1-48.8C281.3-139.8,273-13.6,273-13.6C267.1,49,275.2,81.5,277.4,156.5z"/>
				</g>
			</g>
		</g>
	</g>
</g>
<g>
	<g>
		<g>
			<g>
				<g>
					<path class="st0" d="M1579,923.7l-4.9-1.2C1574.2,923.1,1575.4,923.6,1579,923.7z"/>
					<path class="st0" d="M333.3,924.1c-0.4,0.1-0.8,0.1-1.2,0.3C333,924.3,333.2,924.2,333.3,924.1z"/>
					<path class="st0" d="M1387.7,884.5c0.1,0,0.2,0,0.3,0c0.4-0.1,0.9-0.2,1.3-0.3L1387.7,884.5z"/>
					<path class="st0" d="M1638.8,887.7c-65.9-1.4-83.4-6.8-151.6-4.6c-32.6-0.4-67.3,0.8-99.2,1.5c-15.1,4.2-41.8,0.1-59.7,3.6
						l-6.9-2.4c-6.2,1.2-13.4,2-19.6,0.7l0.4-0.7c-9.2,1.8-19.6,0.7-24.2,1.6l0.4-0.7l-11.2,0.3l1.9-1c-16.1,1.9-32.6,2.1-47.2,1.2
						l1.2,2.9c-31.2-3.2-42.6,2.8-70.7-1.1l0.4-0.7c-35.6,7.7-56.2-5.2-92.9,2.1c4.6-0.9-2-1.5-1.6-2.2c-16.9,0.8-34.9,1.3-35.2,7
						c-12.3-0.1-10-1.8-11.6-4c0.1,2.5-10.6,3.5-20.2,3.7l4.4-1l-27.5,0.8l5.4,4.7c-14.6-1.4-3.7-5.8-17.7-4.6l0.2,3.9
						c-20.2-0.8-32-6.7-51.6-9.6c-81.2-1.7-168.4,8.3-244,1.4l-3.3-2.9c-1.5-4.3-20.8,6.3-23.7,2.4l-8.8,2c-2.5-0.8-7.7-1.6-3.3-2.6
						c-8.1-0.2-8.3,0.5-14.2,1.8l-8.7-2.7c-32.1-2.1-59.3,3.1-93.1,2c-40.5-5.4-116.8-0.4-160.8,2.5c-61.8,6.4-133.6-10.7-196.9-3.3
						c-2.1-0.6-7.4,0.8-7.3,1.2l-57.9-0.6c0,0-280.7-1.6-67.4,33.9l-1.4,0.9c31.7,2.3,51.6,2.8,73.5-1.9c3.5,5.8,26,0.6,33.4,2.5
						l-0.7,0.5c19.3-4.4,39.8,3.7,58.4-0.3c-0.7,0.5-1.1,2-5.4,2.1c13.6-0.7,32.1-2,33.2,1.3c32.4-0.9,77.7,0.7,98.5-4.7l-1.4,0.9
						c11.8-3.6,15.3-0.5,28.6-2.4c0.7,0.4,1.7,0.7,1.5,0.8c12.9-3.6,37.6-0.6,48.1-2.1l0.7,2.2l25.7-0.5l-9.6-0.5
						c3.3-6.1,19.4,3.8,38-0.1c17.4,0.8,35.4-12.7,53.5-9.7c8.6-2.9-7.6,4.7,5.3,2.5c0.4,3.2-6,2-2.7,4.5
						c12.7-1.5,20.8,3.3,36.4,1.1l0.6,2.5c20.4-4.5,38.5,3.3,52-1.1c21-2.1,14.1,7.4,36,2.5l8.5,3.4c9.4,0.5,6.7-4.1,17.1-2.5
						c-0.6,2.1,13.1,1.7,7,3.7c23.5,3.3,47.7-4.7,78.7,0.9c6.7-4.1,22.3-1.7,27.3-4.8c0.8,1.8,31.2,0.3,13.7,4.2
						c-1.5,0.3-4.2,0.3-4-0.4l-2.1,2.4c17.7,4.6,32.1-2.5,49.6-1.8c-5.2-0.8-12.1-0.6-7.5-2.3l16.2,0.3l-3.4,2.1l24.2,1.2l-3.3-2.5
						c11.8,1.3,16,5.6,29.3,2c6-2-11.2-3.4,1.3-4.2c15.8,1.7,39.5,4.4,59.7,5.1c-1.9-2.9,3.5-2.8,9.1-3.3l0.6,2.5
						c21.4-3.5,7.9,5.5,29.1,2.7l-1.9,1.7l5.6-5.2c19.2-4.9,10.4,5.2,31.7-1.6c-8.4,0.4-4-5.5,6.4-4.4l-2.6,2.4
						c5.7-0.5,7.7-1.5,11.5-1c-3.4,1.3-1.8,3.5,6.6,3.1l-5.7,3l16-4.4c12.3,2.6,31.9-0.7,36.9,2.7c0,0,26.5,1.7,32.6-2.1
						c-5.3,2.3,9.3,3.2,5.1,5.9c6.9-2.6,27.2-4.7,35.3-2l-1.5,0.3c30,2.8,51.4-3.9,78.3-0.4c-1.2-2.9,13-1.3,9.5-5
						c27.9-3.7,50.8,7.5,60.9-3.9c12.7-0.6,15,2.7,21.6,3.3l-3,0.6c23.8-0.9,30.7-1,48.3-0.8c8.8-1.1,10.2-6.4,26-5.1
						c-5.1,2.1,1.3,1.7,7.3,1.7c-3.8,0.3-4.9,1.1,2.8,2.5c1.1-0.7,2.8-1.1,4.4-1.4c0.1,0.2,0.4,0.3,0.2,0.5c9.9-0.7,8.1-1.4,3.6-1.7
						c0.2-0.3-0.2-0.7-1.6-1.3c10.2,2.7,28.5-0.2,29.8,3.4c29.6-0.8,50.8-4.6,75.5-6c2.8,1.9-3,3.5-10.2,4.2l17.5-0.7
						c-0.1,2.7-10.1,1.5-15.4,2.1c20.8,4.3,43-4.3,67.4-0.4l5.1-2.1l1.5,0.4c-0.1-1.1,5.4-2.6,9-3c3.5,2.3-0.2,5.4,11.9,5.2
						c9.6,2.3,27.2-1.1,39.7-2.4c-6.8-0.4-4.6-1.7-1.7-2.5c6.1-0.1,9.5,2.3,14.2,1.2l0.6,3.2c-2.4-3,15.8-3.2,18-4.5
						c3.4,2.3-9.4,2-10.9,3.8c24.3-0.3,12.1-0.1,36.4-0.4c12.9-2.4-2.4-3,3.8-5.7c11.4-0.6,22.6-2.8,35.7-0.9l-4.2-2.8
						c21.5-2.2,34.3-1.8,48.8,1c159.9-22.8,33.7-31.1,33.7-31.1C1746.2,877.4,1713.7,885.5,1638.8,887.7z"/>
				</g>
			</g>
		</g>
	</g>
</g>
<g>
	<g>
		<g>
			<g>
				<g>
					<path class="st0" d="M1579,1510.9l-4.9-1.2C1574.2,1510.3,1575.4,1510.8,1579,1510.9z"/>
					<path class="st0" d="M333.3,1511.3c-0.4,0.1-0.8,0.1-1.2,0.3C333,1511.5,333.2,1511.4,333.3,1511.3z"/>
					<path class="st0" d="M1387.7,1471.7c0.1,0,0.2,0,0.3,0c0.4-0.1,0.9-0.2,1.3-0.3L1387.7,1471.7z"/>
					<path class="st0" d="M1638.8,1474.9c-65.9-1.4-83.4-6.8-151.6-4.6c-32.6-0.4-67.3,0.8-99.2,1.5c-15.1,4.2-41.8,0.1-59.7,3.6
						l-6.9-2.4c-6.2,1.2-13.4,2-19.6,0.7l0.4-0.7c-9.2,1.8-19.6,0.7-24.2,1.6l0.4-0.7l-11.2,0.3l1.9-1c-16.1,1.9-32.6,2.1-47.2,1.2
						l1.2,2.9c-31.2-3.2-42.6,2.8-70.7-1.1l0.4-0.7c-35.6,7.7-56.2-5.2-92.9,2.1c4.6-0.9-2-1.5-1.6-2.2c-16.9,0.8-34.9,1.3-35.2,7
						c-12.3-0.1-10-1.8-11.6-4c0.1,2.5-10.6,3.5-20.2,3.7l4.4-1l-27.5,0.8l5.4,4.7c-14.6-1.4-3.7-5.8-17.7-4.6l0.2,3.9
						c-20.2-0.8-32-6.7-51.6-9.6c-81.2-1.7-168.4,8.3-244,1.4l-3.3-2.9c-1.5-4.3-20.8,6.3-23.7,2.4l-8.8,2c-2.5-0.8-7.7-1.6-3.3-2.6
						c-8.1-0.2-8.3,0.5-14.2,1.8l-8.7-2.7c-32.1-2.1-59.3,3.1-93.1,2c-40.5-5.4-116.8-0.4-160.8,2.5c-61.8,6.4-133.6-10.7-196.9-3.3
						c-2.1-0.6-7.4,0.8-7.3,1.2l-57.9-0.6c0,0-280.7-1.6-67.4,33.9l-1.4,0.9c31.7,2.3,51.6,2.8,73.5-1.9c3.5,5.8,26,0.6,33.4,2.5
						l-0.7,0.5c19.3-4.4,39.8,3.7,58.4-0.3c-0.7,0.5-1.1,2-5.4,2.1c13.6-0.7,32.1-2,33.2,1.3c32.4-0.9,77.7,0.7,98.5-4.7l-1.4,0.9
						c11.8-3.6,15.3-0.5,28.6-2.4c0.7,0.4,1.7,0.7,1.5,0.8c12.9-3.6,37.6-0.6,48.1-2.1l0.7,2.2l25.7-0.5l-9.6-0.5
						c3.3-6.1,19.4,3.8,38-0.1c17.4,0.8,35.4-12.7,53.5-9.7c8.6-2.9-7.6,4.7,5.3,2.5c0.4,3.2-6,2-2.7,4.5
						c12.7-1.5,20.8,3.3,36.4,1.1l0.6,2.5c20.4-4.5,38.5,3.3,52-1.1c21-2.1,14.1,7.4,36,2.5l8.5,3.4c9.4,0.5,6.7-4.1,17.1-2.5
						c-0.6,2.1,13.1,1.7,7,3.7c23.5,3.3,47.7-4.7,78.7,0.9c6.7-4.1,22.3-1.7,27.3-4.8c0.8,1.8,31.2,0.3,13.7,4.2
						c-1.5,0.3-4.2,0.3-4-0.4l-2.1,2.4c17.7,4.6,32.1-2.5,49.6-1.8c-5.2-0.8-12.1-0.6-7.5-2.3l16.2,0.3l-3.4,2.1l24.2,1.2l-3.3-2.5
						c11.8,1.3,16,5.6,29.3,2c6-2-11.2-3.4,1.3-4.2c15.8,1.7,39.5,4.4,59.7,5.1c-1.9-2.9,3.5-2.8,9.1-3.3l0.6,2.5
						c21.4-3.5,7.9,5.5,29.1,2.7l-1.9,1.7l5.6-5.2c19.2-4.9,10.4,5.2,31.7-1.6c-8.4,0.4-4-5.5,6.4-4.4l-2.6,2.4
						c5.7-0.5,7.7-1.5,11.5-1c-3.4,1.3-1.8,3.5,6.6,3.1l-5.7,3l16-4.4c12.3,2.6,31.9-0.7,36.9,2.7c0,0,26.5,1.7,32.6-2.1
						c-5.3,2.3,9.3,3.2,5.1,5.9c6.9-2.6,27.2-4.7,35.3-2l-1.5,0.3c30,2.8,51.4-3.9,78.3-0.4c-1.2-2.9,13-1.3,9.5-5
						c27.9-3.7,50.8,7.5,60.9-3.9c12.7-0.6,15,2.7,21.6,3.3l-3,0.6c23.8-0.9,30.7-1,48.3-0.8c8.8-1.1,10.2-6.4,26-5.1
						c-5.1,2.1,1.3,1.7,7.3,1.7c-3.8,0.3-4.9,1.1,2.8,2.5c1.1-0.7,2.8-1.1,4.4-1.4c0.1,0.2,0.4,0.3,0.2,0.5c9.9-0.7,8.1-1.4,3.6-1.7
						c0.2-0.3-0.2-0.7-1.6-1.3c10.2,2.7,28.5-0.2,29.8,3.4c29.6-0.8,50.8-4.6,75.5-6c2.8,1.9-3,3.5-10.2,4.2l17.5-0.7
						c-0.1,2.7-10.1,1.5-15.4,2.1c20.8,4.3,43-4.3,67.4-0.4l5.1-2.1l1.5,0.4c-0.1-1.1,5.4-2.6,9-3c3.5,2.3-0.2,5.4,11.9,5.2
						c9.6,2.3,27.2-1.1,39.7-2.4c-6.8-0.4-4.6-1.7-1.7-2.5c6.1-0.1,9.5,2.3,14.2,1.2l0.6,3.2c-2.4-3,15.8-3.2,18-4.5
						c3.4,2.3-9.4,2-10.9,3.8c24.3-0.3,12.1-0.1,36.4-0.4c12.9-2.4-2.4-3,3.8-5.7c11.4-0.6,22.6-2.8,35.7-0.9l-4.2-2.8
						c21.5-2.2,34.3-1.8,48.8,1c159.9-22.8,33.7-31.1,33.7-31.1C1746.2,1464.6,1713.7,1472.7,1638.8,1474.9z"/>
				</g>
			</g>
		</g>
	</g>
</g>
<g>
	<g>
		<g>
			<g>
				<g>
					<path class="st0" d="M1579,336.5l-4.9-1.2C1574.2,335.9,1575.4,336.3,1579,336.5z"/>
					<path class="st0" d="M333.3,336.9c-0.4,0.1-0.8,0.1-1.2,0.3C333,337.1,333.2,337,333.3,336.9z"/>
					<path class="st0" d="M1387.7,297.3c0.1,0,0.2,0,0.3,0c0.4-0.1,0.9-0.2,1.3-0.3L1387.7,297.3z"/>
					<path class="st0" d="M1638.8,300.5c-65.9-1.4-83.4-6.8-151.6-4.6c-32.6-0.4-67.3,0.8-99.2,1.5c-15.1,4.2-41.8,0.1-59.7,3.6
						l-6.9-2.4c-6.2,1.2-13.4,2-19.6,0.7l0.4-0.7c-9.2,1.8-19.6,0.7-24.2,1.6l0.4-0.7l-11.2,0.3l1.9-1c-16.1,1.9-32.6,2.1-47.2,1.2
						l1.2,2.9c-31.2-3.2-42.6,2.8-70.7-1.1l0.4-0.7c-35.6,7.7-56.2-5.2-92.9,2.1c4.6-0.9-2-1.5-1.6-2.2c-16.9,0.8-34.9,1.3-35.2,7
						c-12.3-0.1-10-1.8-11.6-4c0.1,2.5-10.6,3.5-20.2,3.7l4.4-1l-27.5,0.8l5.4,4.7c-14.6-1.4-3.7-5.8-17.7-4.6l0.2,3.9
						c-20.2-0.8-32-6.7-51.6-9.6c-81.2-1.7-168.4,8.3-244,1.4l-3.3-2.9c-1.5-4.3-20.8,6.3-23.7,2.4l-8.8,2c-2.5-0.8-7.7-1.6-3.3-2.6
						c-8.1-0.2-8.3,0.5-14.2,1.8l-8.7-2.7c-32.1-2.1-59.3,3.1-93.1,2c-40.5-5.4-116.8-0.4-160.8,2.5c-61.8,6.4-133.6-10.7-196.9-3.3
						c-2.1-0.6-7.4,0.8-7.3,1.2l-57.9-0.6c0,0-280.7-1.6-67.4,33.9l-1.4,0.9c31.7,2.3,51.6,2.8,73.5-1.9c3.5,5.8,26,0.6,33.4,2.5
						L120,339c19.3-4.4,39.8,3.7,58.4-0.3c-0.7,0.5-1.1,2-5.4,2.1c13.6-0.7,32.1-2,33.2,1.3c32.4-0.9,77.7,0.7,98.5-4.7l-1.4,0.9
						c11.8-3.6,15.3-0.5,28.6-2.4c0.7,0.4,1.7,0.7,1.5,0.8c12.9-3.6,37.6-0.6,48.1-2.1l0.7,2.2l25.7-0.5l-9.6-0.5
						c3.3-6.1,19.4,3.8,38-0.1c17.4,0.8,35.4-12.7,53.5-9.7c8.6-2.9-7.6,4.7,5.3,2.5c0.4,3.2-6,2-2.7,4.5
						c12.7-1.5,20.8,3.3,36.4,1.1l0.6,2.5c20.4-4.5,38.5,3.3,52-1.1c21-2.1,14.1,7.4,36,2.5l8.5,3.4c9.4,0.5,6.7-4.1,17.1-2.5
						c-0.6,2.1,13.1,1.7,7,3.7c23.5,3.3,47.7-4.7,78.7,0.9c6.7-4.1,22.3-1.7,27.3-4.8c0.8,1.8,31.2,0.3,13.7,4.2
						c-1.5,0.3-4.2,0.3-4-0.4l-2.1,2.4c17.7,4.6,32.1-2.5,49.6-1.8c-5.2-0.8-12.1-0.6-7.5-2.3l16.2,0.3l-3.4,2.1l24.2,1.2l-3.3-2.5
						c11.8,1.3,16,5.6,29.3,2c6-2-11.2-3.4,1.3-4.2c15.8,1.7,39.5,4.4,59.7,5.1c-1.9-2.9,3.5-2.8,9.1-3.3l0.6,2.5
						c21.4-3.5,7.9,5.5,29.1,2.7l-1.9,1.7l5.6-5.2c19.2-4.9,10.4,5.2,31.7-1.6c-8.4,0.4-4-5.5,6.4-4.4l-2.6,2.4
						c5.7-0.5,7.7-1.5,11.5-1c-3.4,1.3-1.8,3.5,6.6,3.1l-5.7,3l16-4.4c12.3,2.6,31.9-0.7,36.9,2.7c0,0,26.5,1.7,32.6-2.1
						c-5.3,2.3,9.3,3.2,5.1,5.9c6.9-2.6,27.2-4.7,35.3-2l-1.5,0.3c30,2.8,51.4-3.9,78.3-0.4c-1.2-2.9,13-1.3,9.5-5
						c27.9-3.7,50.8,7.5,60.9-3.9c12.7-0.6,15,2.7,21.6,3.3l-3,0.6c23.8-0.9,30.7-1,48.3-0.8c8.8-1.1,10.2-6.4,26-5.1
						c-5.1,2.1,1.3,1.7,7.3,1.7c-3.8,0.3-4.9,1.1,2.8,2.5c1.1-0.7,2.8-1.1,4.4-1.4c0.1,0.2,0.4,0.3,0.2,0.5c9.9-0.7,8.1-1.4,3.6-1.7
						c0.2-0.3-0.2-0.7-1.6-1.3c10.2,2.7,28.5-0.2,29.8,3.4c29.6-0.8,50.8-4.6,75.5-6c2.8,1.9-3,3.5-10.2,4.2l17.5-0.7
						c-0.1,2.7-10.1,1.5-15.4,2.1c20.8,4.3,43-4.3,67.4-0.4l5.1-2.1l1.5,0.4c-0.1-1.1,5.4-2.6,9-3c3.5,2.3-0.2,5.4,11.9,5.2
						c9.6,2.3,27.2-1.1,39.7-2.4c-6.8-0.4-4.6-1.7-1.7-2.5c6.1-0.1,9.5,2.3,14.2,1.2l0.6,3.2c-2.4-3,15.8-3.2,18-4.5
						c3.4,2.3-9.4,2-10.9,3.8c24.3-0.3,12.1-0.1,36.4-0.4c12.9-2.4-2.4-3,3.8-5.7c11.4-0.6,22.6-2.8,35.7-0.9l-4.2-2.8
						c21.5-2.2,34.3-1.8,48.8,1c159.9-22.8,33.7-31.1,33.7-31.1C1746.2,290.2,1713.7,298.3,1638.8,300.5z"/>
				</g>
			</g>
		</g>
	</g>
</g>
</svg>
