<?xml version="1.0" encoding="utf-8"?>
<!-- Generator: Adobe Illustrator 27.5.0, SVG Export Plug-In . SVG Version: 6.00 Build 0)  -->
<svg version="1.1" id="Layer_1" xmlns="http://www.w3.org/2000/svg" xmlns:xlink="http://www.w3.org/1999/xlink" x="0px" y="0px"
	 viewBox="0 0 1800 1800" style="enable-background:new 0 0 1800 1800;" xml:space="preserve">
<style type="text/css">
	.st0{fill:#E4EB24;}
</style>
<g>
	<path class="st0" d="M319.5,396c0.3-5.9,0-12.9,2.3-17.3c-0.1-2,0.8-3.9,1.1-5.7l0.2,0.2l0.8-2.7c0.1,0.2,0.1,0.3,0.2,0.6
		c0.8-3.8,2.5-7.6,4.4-10.6l-1-0.3c4.1-4.7,5.4-10.7,10.7-13.7c4.4-8.5,11.3-8.5,17.4-15.6c0.4,1.6,4.6-2.7,5.6-3.2
		c1.9-2,3.3-5.4,5-3.2c0.3-2.1,4.1-3.1,6.2-4.2l-1.5,1c3.5-1.6,6.7-3.1,6.6-4.5c-0.3-3.6,13-5.5,15.8-7.7c0.5-0.3-1.4-1-1.5-1.5
		c-1.6-1.7-2.8-3.9-3.8-6.2c-4.1-0.6-9.7-1.7-13.6-2.8c-12.3-4.1-28.6-10.7-33.9-22.7c0.8-1.3-5.2-2.6-4.4-3.9
		c-0.9-0.2-3.3-2.9-1.7-2.5c-10.6-13.5-15.6-29.9-15.9-47.5c-28.7-4.1,1.3,18.9-32.4,50.1c-8.2,10.5-17.8,18.4-30.1,23.8
		c-22,8-41.1,15.6-2.5,13.3l-0.3,0.4c10.5-2.5,18.4-8.7,27-14.2l-0.1,0.3c3.5-4.5,9.4-6.3,12.4-11.3c0,0.2,0.3,0.6-0.2,1.2
		c8-8.5,17.7-20.4,18.8-32.1l0.2,0.5c0.1-1.4,0.3-2.3,0.4-3.2c1,6.2,6.8,14.5,9.1,20.7c-0.5,1.4,3.7,4.4,3.6,7
		c1.5,2.2,2.3,0.6,3.8,3.2c-0.7,0.3,2.1,3.2,0.4,2.4c6.5,7.2,15.2,15,24.7,18.1c-0.2,0.8,8,4.3,2.8,3.2c-0.4-0.1-1.1-0.5-0.9-0.7
		l-0.9,0.4c2.3,2.3,5.6,3.7,8.6,3.4c-0.7-1,0.9-0.6,1.4-0.3c-0.3,0.1-0.8,0.3-1,0.3c0.5,0.8,4.7,0.2,6.1,0.4c-1.1,1-3.3,0.6-4.8,0.9
		c2.6,0.1,2.1,0.2,2.2,0.3l-2-0.2c0.9,0.8-3.5-0.5-2.7,0.1c-0.3-0.1,2.2,0.6,1.4,1.2c-0.9-0.1-1.5-0.9-1.3,0.7
		c1.5,0.2,0.5,2.1-0.8,2.1l0.3-1c-1.4,0.9-1.7,1.5-2.7,1.7c0.7-0.8-16.8,5.7-21,13c-1.1,1-7.3,5.9-9.5,7.1l0.3-0.4
		c-6.2,5-8.9,12.3-13.7,18.5c1,0.2-1.4,3.6,0.2,3.2c-1.2,3.5-2.9,6.4-4.5,9.5c-1.3-2-8.2-18-12.4-23.2c-4.1-0.9-0.4-1.9-3.2-5.1
		c-1.5-2.9-5.7-5.5-8.5-7.4c2.6,3.4-4.1-2.1-2.6-2.8c-2.6-0.5-8-4.1-1.5-1.3c-5-3.7-4.1-3.1-8.6-6c-3.5-1.3,0,1.2-2,1.1
		c-2.8-1.5-5.8-2.4-8.7-4.6c0.2,0.4,0.4,0.9,0.6,1.4c-5.7-4.3-36.5-12-33.9-3.1c16.8,9.3,31.8,10.8,48,23.4
		c16.4,16.8,23.3,35.3,26.3,57.5C308.1,396.1,315.4,396.1,319.5,396z"/>
</g>
<g>
	<path class="st0" d="M338.9,856.4c-7-9.1-0.2-5-12.5-8.4c-7.2-2.7-18.9-7-20.4-14.9c0.8-1.3-3.8-1-3.1-2.4c-0.9,0-2.4-1.8-1.1-1.6
		c-2.5-2.1-1.5-2-2.6-4.5c-1.6-2.9-3.4-6.1-4.6-9.1c-2.5-3.9-0.2-10.9-5.6-11.4c-1.7-1.4-4.1-3.4-4.4-5.6c-0.5,7.6-7.3,7.3-7.3,13.7
		c-2.1,11.4-11.6,17.3-17.2,25.9c-5,7.4-47.1,17.1-20.8,20.8c-28.4,2.7,14.4,13.7,20.9,20.4c7.7,8.4,10.3,15,13.8,25.1
		c3,11.6-2,10.7,10.7,12c0.1-0.9,0.3-0.9,0.7-2c0.1,0.2,0.3,0.3,0.3,0.5c0.1-0.6,1.3-1.5,1.3-0.5c0.5-1.1,2-0.9,2.7-1.7
		c-0.4,1,1.6-0.3,1.9-0.2c-0.1,0.3-0.2,0.5-0.3,0.8c2.8-0.5,1.4-4.7,2-6.8c2.1-8.6,3.7-16.9,10.9-22.4c2.3-6.2,7.7-5,11.2-10.3
		c-0.4,0.7,0.5,0.3,0.6,0.5c4.2-1.8,5-8,9.2-6.1c-0.4-1.5,3.1-2.2,4.5-3l-0.9,0.7c1.9-1,5-0.9,5.3-3.4c-0.9,0.1-2,0.1-3.1,0.1
		c1.9-0.9,6.1-1.2,2.1-1.7C334.5,859.2,341.8,858.3,338.9,856.4z M318.5,858.1c-1.1,0.1-2.2,0.2-3.2,0.3c2.4,0.1,2.1,0.1,2.3,0.3
		l-1.9-0.1c1.4,0.5-3.8-0.3-2.5,0l-0.9-0.2c1.5,0.2,4.9,1.2,1.8,0.8c0.2,0.6,0.9,0.5,1.6,1c0.9,0.9-0.3,0.8-0.6,0.1
		c-0.2,1.5-0.9-0.6-1.5,0c-0.2-0.3-0.3-0.6-0.5-0.9c1.8,3.2-10.9,5-11.4,9.4c0.3-1.4-2.2,0.5-2.1-0.9c-0.5,1.6-3,4.9-4.8,5.6
		l0.2-0.3c-4.3,2.9-5.1,7.9-8.4,11c1.2,1.6,1.2,2.7-0.3,3.8c-0.1,0.4,0,1.5,0.2,4.3c-0.2,0.8-0.3,0.6-0.3,0.2
		c-0.2-0.9-0.2-1.1-0.2-1.7c-0.5,4.5-0.3,6.2-0.4,10.2c0.1-3.2-0.1-8-0.1-2.6c0-3.5-0.4-2.5-0.3-5.8c-0.2-1-5-4.1-1.8-4.1
		c-0.9-0.8-0.6-2.4,0.2-0.8c0.2-2.1-1-1.8-1.9-3c-1.6-1.6-2.3-4.2-4.1-5.2c-0.5,0.3-0.8-0.3-1.1-0.9l0.2,0.7
		c-0.3-0.2-0.7-0.4-0.9-0.6c2.1-3-3.8-6.5-6.2-7.9c1.5,2.8-3.2-1.5-1.6-2.1c-2,0.2-6.1-2.6-1.1-0.9c-3.8-2.8-1.9-1.5-5.9-4.1
		c-2.6-0.7-0.2,1.1-1.7,1.3c-2-1-4.1-1.4-6.1-3.1c0.1,0.4,0.2,0.8,0.3,1.2c-4.5-0.9-6.1-3.1-9.1-4.1c0.6,0,1.3,0,2-0.1l-0.2,0.4
		c9-1.6,12.7-6.9,18.8-9.5c2.1-3.4,7-4.1,8.7-7.9c0,0.2,0.3,0.5-0.1,1c3.4-4.2,7.3-6.9,9.5-11.8c0.5-1.2,0.7-2.6,0.6-4.7l0.1,0.6
		c-0.2-2.7,0.3-1.2,0.5-3.6c0.1,0.3,0.1,0.3,0.1,0.4c0-3.2,0.6-3.2,0.8-6v2.2c0.3-1.5,0.1-7.5,0.3-4.1c0,1.6,0,2.7,0.1,1.5
		c0.1,0.8,0.6-8,1.2-2.8c0.2,1.4-0.1,3.8-0.3,5.7c0.4,1,0.9,5,0.8,5.6c1.5,0.3,0.3,3.8,2.1,3.8c0.9,0.7,1.1,2.1,1,3.1
		c-0.6,1.2,2.7,3.1,2.1,5.1c1,1.6,2,0.2,2.8,2.1c-0.6,0.3,1.4,2.4,0,1.9c4.4,4.9,10.9,10.9,17.4,12.3c0,0.7,2.6,1.5,0.6,2
		c-0.2,0.1-0.3,0-0.1-0.3c-2.1,2.8,2.2-0.3,3,0.9c-2,0.3-0.9,0.9,0.4,0.4c-4.3,1.1,1.9,0.2,3.2,0.3C319.4,857.9,319,858,318.5,858.1
		z"/>
</g>
<g>
	<path class="st0" d="M1161.4,1474.8c-8.3-13.7-35.1-9.4-41-27.1c-7-5.1-11.3-14.9-15.4-24.8c-1.2-11.6,0.7-19.8-13.6-17.2
		c2.1,58.4-95.9,69.6-41.5,70.7c11.6-0.7,26.4-16.3,31.5-18.6c22.1-23.3,9.8-32.8,27.4-1.5c1.9,5.5,28,18.8,21.5,16.7
		c-2.1,1.7,2.2,2.1,3.5,1.9c2.1-1.8-1.2,1.7,1.9,0.3c-4.2,1.2,2.2,0.2,3.5,0.3c-1.2,0.7-3.2,0.5-4.5,0.8c5.6,0.3-0.3,0.4-2.4,0.1
		c4.2,1.3-0.3,0.3,0.9,1.6c1.3-0.4,1.5,2.5,0.3,0.6c-0.5,1.3-0.5,0.2-1.2-0.2c-0.8,0.2-1,0.6-0.4-0.8c-4,6-12.7,5.7-15.7,11.9
		c0.5-1.5-2.4,0.6-2.2-0.8c-5.4,7.1-12.1,12.3-16.4,20.9c1,0.7,1.5,3.2-0.2,3.5c-0.4-0.2,0,8-0.8,3.5c-0.6,4.4,0.4,10.8-0.5,11.5
		c-1.2-3,0.3-5.1-1.1-8.5c-1.1-2.7-2-8.4-1.1-6.5c-1.3-3.8-5-7.9-7.7-11c-3.4-0.1,0.9-5-9.4-10.3c1.8,3-3.2-1.8-2-2.3
		c-2.3-0.4-6.2-3.1-1.3-1.1c-3.8-2.1-6.8-6.8-8.7-3.6c-1.8-0.3-7.7-4.7-6.8-2.4c-5.4-3.8-29.2-9.3-27.4-0.9
		c16.9,10.3,42,12.8,49.2,35c9.7,15.2,1.7,36.3,23.1,24c2-1.4,2-2.7,2-2.7c0.2-27.7,22.1-43.1,42.3-53.7l-1.1,0.8
		c2.8-1.7,14.2-3.8,4.7-3.6c1.9-0.9,4.3,0.1,5.1-1.7C1149.5,1479.6,1163.9,1476.1,1161.4,1474.8z"/>
</g>
<g>
	<path class="st0" d="M1640.8,651.9c-8.6-13.9-35.3-9.7-41.5-27.4c-7-5.1-11.3-14.9-15.4-24.8c-1.2-11.6,0.7-19.8-13.6-17.2
		c2.1,58.4-95.9,69.6-41.5,70.7c11.6-0.7,26.4-16.3,31.5-18.6c22.1-23.3,9.7-32.8,27.4-1.5c1.9,5.5,28,18.8,21.5,16.7
		c-2.1,1.7,2.2,2.1,3.5,1.9c2.1-1.8-1.2,1.7,1.9,0.3c-4.2,1.2,2.2,0.2,3.5,0.3c-1.2,0.7-3.2,0.5-4.5,0.8c5.6,0.3-0.3,0.4-2.4,0.1
		c0.5,0.2,2.5,0.5,2.1,1c-0.7,0.1-1.9-0.8-1.1,0.6c1.3-0.4,1.5,2.5,0.3,0.6c-0.8,1.7-0.8-1.2-2.1,0.3c0.1-0.2,0.7-1.4,0.4-1.1
		c-4.1,5.9-12.6,5.6-15.6,11.8c0.5-1.5-2.4,0.6-2.2-0.8c-5.4,7.1-12.1,12.3-16.4,20.9c1,0.7,1.5,3.2-0.2,3.5c-0.4-0.2,0,8-0.8,3.5
		c-0.6,4.4-0.3,7.4-0.5,11.5c0-3.8,0-2.9,0-6.7c-0.1,1.8-0.3,0.2-0.2,3.7c1.6-6.2-6-12.5-2.3-11.5c-1.1-1.2-0.7-2.5,0.3-0.6
		c-1.3-3.8-5-7.9-7.7-11c-3.4-0.1,0.9-5-9.4-10.3c1.8,3-3.2-1.8-2-2.3c-2.3-0.4-6.2-3.1-1.3-1.1c-4.4-3.5-41.7-18.8-42.8-6.9
		c16.9,10.3,42,12.7,49.2,34.9c9.7,15.2,1.7,36.3,23.1,24c0.5,1.5,2.4-0.8,1.8-2.1l0.1,1.3c0.2-27.7,22.2-45,42.4-55.5l-1.1,0.8
		c2.8-1.7,14.2-3.8,4.7-3.6c1.9-0.9,4.3,0.1,5.1-1.7C1629.6,656.2,1639.8,653.4,1640.8,651.9z"/>
</g>
<g>
	<path class="st0" d="M1574.7,1242.1c-1.5-1.3-2.2-3.2-3.2-4.9c-4.7-0.6-9.2-2.3-13.6-3.8c-4.9-2.7-12.3-6-13.8-11.5
		c0.7-0.9-3.3-1.4-2.7-2.3c-0.7-0.1-2.1-1.7-0.9-1.5c-6.2-8.5-9-16.8-9.4-28.2c-21.8-2.1,2.8,8.4-26.7,36.1
		c-6.1,8.2-49.5,17.5-13.4,17.4l-0.2,0.3c7-1.5,11-5.3,16.5-8.7v0.2c1.9-2.9,6.2-3.8,7.7-6.9c0,0.2,0.2,0.4-0.1,0.8
		c4.9-5.5,9.9-10.9,11.4-18.4c0.8,3.3,4,6.8,4.4,9.6c-0.3,1,2.4,2.6,2.1,4.4c0.9,1.4,1.6,0.3,2.5,1.9c-0.5,0.3,1.2,2.1,0.1,1.5
		c4.2,4.4,9.6,9.5,15.3,10.9c-0.1,0.4,4.8,2.7,1.6,2.1c-0.3-0.1-0.7-0.3-0.6-0.4c-1.3,0.4,0.6,1.4,1.1,1.8c0.4-0.1,1.3-0.4,1.6-0.3
		c-0.2-0.5,0.7-0.4,1-0.1c-0.3,0.1-0.6,0.2-0.9,0.3c0.3,0.6,1.3-0.3,1.4,0.1c0.5,3.2,2.4-0.8,2.7,0.2c0.3,1-2.4,0.3-3.4,0.5
		c1.9,0.1,1.6,0.1,1.7,0.2l-1.5-0.1c1,0.5-2.7-0.3-2,0c0.4,0.2,0.9,0.2,1.4,0.3c0.9,0.9-1.7-0.6-0.8,0.8c0.9-0.3,1,2,0.3,0.5
		c-0.4,0.7-0.8-0.9-1.7,0.3c0,0-1.7,1.1-2.2,1.6c-1.6,1.5-8.6,6.1-9.5,6.4c-0.9,0.3-1.8,0.4-1.7-0.5c-0.5,1.4-2.8,4.2-4.3,4.8
		l0.2-0.3c-4.2,3.3-5.1,7.6-8.4,11.5c0.8,0.2-0.9,2.2,0.3,2.1c-0.6,1.8-1.4,3.2-2.2,4.7c-0.9-1.3-2.6-4.8,0.1-1.6
		c-1.4-2-1.8-4.4,0.2-0.5c-1.1-4-4.9-8.4-7.3-10.9c-2.6-0.4,0.1-1.6-1.8-3.3c-0.9-1.8-3.7-3.3-5.2-4.4c1.4,2.3-2.6-1.3-1.5-1.7
		c-1.5-0.1-5-2.5-1-0.8c-3.3-2.6-1.6-1.3-5.2-3.6c-2.2-0.8-0.1,0.9-1.4,0.9c-1.8-1-3.7-1.4-5.3-2.8c0.1,0.3,0.2,0.7,0.3,0.9
		c-4.3-2.7-21.5-7.4-20.8-0.8c9.1,6.4,20.9,7.4,28.8,14.8c8.8,8.8,13.7,21.5,15.5,34c14.6,0.1,10,1.9,13-10.3
		c-0.2-1.1,0.5-2.5,0.6-3.4c0.3,0.4,0.5-1.5,0.6-1.5l0.2,0.3c0.3-2.3,1.4-4.5,2.6-6.2l-0.8-0.2c2.7-2.7,3.1-6.5,6.4-8
		c2.3-5.4,6.9-4.8,10.3-9.3c0.6,1,5-2.6,4.2-3.9c0.9-0.5,2.1-1.1,3.1-0.4c0-1.3,2.8-2.1,4.2-2.8l-0.9,0.6c2.2-1.4,2.3-1.3,3.6-2.8
		c1.1-1.3,3.7,0.3,2.4-1.6C1570.7,1244.8,1577.4,1243.5,1574.7,1242.1z"/>
</g>
<g>
	<path class="st0" d="M1377.2,414.5c1.5-0.7,2.7-1.5,3.8-3.1c0.1,0.9,1.2-0.3,1.8-0.7c3.2-1.2,2.3-5,5.9-3.3c-0.8-0.4,1-1.3,2.7-2
		l-0.4,0.4c1.3-0.2,1.3-1.5,1.7-2.4c-0.6,0.1-1.3,0.1-2,0.1c1.2-0.9,1.9,0,2.5-1l-1.1-0.1c4-2.4,5.6-0.7,2.2-4.5
		c-1.2-3.6-4-4-7.4-4.6c-2-0.5-4-1.6-5.8-2.5c-2.1-1.5-6.5-3.8-6-6.6c0.3-0.4-0.3-0.5-0.9-0.7c-1-0.2-2.8-1.4-1.7-1.7
		c-1.7-2.1-2.7-5.6-4-8.4c-0.9-1.8-0.6-5.7-2.3-6.5c-2.4-0.1-4.5-2-5.2-4.2c-1.8,7.3-4.7,3.3-7.8,13.9c-1.9,4.1-6.5,6.8-8.4,10.6
		c-2.9,4.7-28.6,10.3-13.8,14c-18.3,4.3,16.4,9.8,17.2,17.6c1.5,3.1,3.2,6.2,4.3,9.4c1,7.6,0.6,9,8.4,9.1c0.2-0.6,0.3-0.5,0.6-1.2
		c0.1,0.1,0.1,0.2,0.2,0.3c0.1-0.4,0.8-1,0.8-0.3c0.5-0.7,1-0.7,1.6-1c-0.3,0.6,1-0.2,1.2-0.1l-0.1,0.5c3.2-1.1,2.2-5,3.3-7.9
		c0-0.9,1-1.7,0-2.2c2.3-2.6,2.7-6.6,5.6-7.8C1374.3,416.3,1375.8,415.1,1377.2,414.5z M1336.5,401.8L1336.5,401.8
		C1336.5,401.8,1336.5,401.8,1336.5,401.8L1336.5,401.8z M1374.4,403.9c-0.4,0.1-4.5,3.2-4.6,2.3c-0.3,1.2-1.8,3.2-3.1,3.7l0.1-0.2
		c-2.4,1.4-3.1,4.4-4.6,6c1.5,3.2-0.9,1.2-0.1,5.7c-0.3,1-0.4-1.1-0.3-1.3c-0.4,3.2-0.2,4-0.3,6.8c0.2-2.7-0.3-3.1-0.2-5.6
		c-0.3-0.7-3.2-2-1.2-2.5c-0.6-0.4-0.5-1.5,0.1-0.5c0.2-1.5-1.2-1.4-1.7-2.5c-0.4-0.9-0.9-1.6-1.7-2c-2.3,0.2,0.9-3.2-5.3-5.6
		c0.6,1.9-1-0.7-1.4-0.9l0.3-0.5c-1.1,0.3-4.1-1.6-0.8-0.6c-6.8-5.7-2.5,1-8.8-3.6c0.3,2-3.7-0.6-4.2-0.9c5.1-0.7,8.2-4.7,11.9-6.2
		c1.2-2.4,4.6-2.6,5.6-5c0,0.2,0.2,0.4,0,0.7c1.9-2.7,4.9-4.7,5.5-6.5c0.4-0.9,0.4-2.1,0.4-3.2l0.1,0.4c-0.2-1.9,0.3-0.8,0.3-2.5
		c0,0.2,0.1,0.3,0.1,0.3c0-2.3,0.4-2.1,0.4-3.9v1.5c0.2-0.9,0-5.4,0.2-2.7c0,1.1,0,1.8,0.1,0.9c0.1,0.7,0.3-6,0.9-2.5
		c0.3-0.6-0.3,2.2,0,1.9c-0.6,2.1,0.4,4.2,0.3,6.2c0.6-0.3,0.6,1.1,0.7,1.6c0,0.9,1.7,0.8,0.8,1.9c-0.5,0.9,1.9,2,1.4,3.4
		c0.7,1,1.4,0,2,1.3c-0.4,0.3,0.8,1.6-0.1,1.4c2.7,3,6.8,7.3,10.7,7.5c-0.2,0.4,1.2,0.8-0.3,1.1c-0.1,0-0.2,0,0-0.2
		c-2,1.7,1.5,0.2,2.1,0.5c-1.5,0.2-0.8,0.5,0.3,0.3c-3.2,0.7,1.2,0.1,2.3,0.1c-0.9,0.3-2.2,0.3-3.2,0.3c1.8,0,1.5,0.1,1.7,0.2
		l-1.4-0.1c1.4,0.3-2.9-0.2-1.8,0.1l-0.8-0.1c4.9,0.9,0.3,0.1,2,0.9c0.5-0.3,2.1,1.4,0.4,0.3c0,0.6-1.4-0.3-1.6-0.6
		c0.3,0.3,0.4,0.6,0.5,1c-0.3-0.1-0.4-0.1-0.5,0C1376.7,402.7,1375.1,404.2,1374.4,403.9z"/>
</g>
<g>
	<path class="st0" d="M1135.5,237.3c1.2-0.2,1.3-2-0.3-2.5c2.1-0.1-0.1-1.2,1-1.2c-1.5-0.7,1.3-1.4-0.1-2.1c0.2,0,0.7,0,0.8,0.2
		c-0.5-1.3,1.6-3.3-1.2-4.7l0.3,0.1c-1.2-0.4-0.2-0.5-0.8-1c0.2,0,0.3-0.1,0.3-0.1c-1.2-0.4-0.2-1.4-0.7-1.7
		c0.9,0.2,0.8-0.3,0.6-0.9l-0.2,0.3c-2.1-0.1,1.3-0.7-0.1-1.4c0.3-0.6-4.4-1.3-3.3-1.9c-0.9-0.3,1.6,0.3,0.9-0.2
		c1.1,0,0.7,0.2,1.5,0.1c-0.5-0.4,1.1-0.8,0.3-1.3h0.9c-1.5-0.7,1.1-1.4-0.3-1.8c-0.7-0.8,2.6-0.5,0.9-1.3l1.1-0.3
		c0.2-0.3-1.4-0.3-0.9-0.6c3.7-0.4-0.6-1.6,1.6-3c0.7,0.1,0.9,0.9,0.9,1.5c0.1,1.5,0.8-2.1,0.9-0.9l0.3-0.7c0.3,0.5,0,1.5,0.6,0.3
		c0.4,2.4,2.2,0,3.6,0.3c1.5,1.9,4.1,0.2,5.6-0.9c2.2-2.2,4.7,3.7,6.9,1.1c0.1,0.2,0.3-0.3,0.3-0.4l2.1,0.2c0,0,9.9,0.6,2.4-11.6
		c-0.2-1.2-2-1.3-2.5,0.3c-0.1-2.1-1.2,0.1-1.2-1c-0.7,1.5-1.4-1.3-2.1,0.1c0-0.2,0-0.7,0.2-0.8c-1.3,0.5-3.3-1.6-4.7,1.2l0.1-0.3
		c-0.4,1.2-0.5,0.2-1,0.8c0-0.2-0.1-0.3-0.1-0.3c-0.4,1.2-1.4,0.2-1.7,0.7c0.2-0.9-0.3-0.8-0.9-0.6l0.3,0.2
		c-0.1,2.1-0.7-1.3-1.4,0.1c-0.6-0.3-1.3,4.4-1.9,3.3c-0.3,0.9,0.3-1.6-0.2-0.9c0-1.1,0.2-0.7,0.1-1.5c-0.4,0.5-0.8-1.1-1.3-0.3
		v-0.9c-0.7,1.5-1.4-1.1-1.8,0.3c-0.8,0.7-0.5-2.6-1.3-0.9l-0.3-1.1c-0.3-0.2-0.3,1.4-0.6,0.9c-0.3-1.9-0.7-1.3-2.1-1.6
		c0.8,0.2,1.1-0.3,2.1-0.2c-0.9-0.2-1.6-1.3-0.6-1.2c0.9-1-1.4-1.8-0.2-2.7c-1,0.1-0.4-0.4-1.7-0.3c-1.3-1,2.6-1.8-1.4-2.1
		c-0.2-0.3,1.1-0.8,1.3-0.7c-0.3-0.9-0.3-1.1-0.3-1.7c-0.3-0.3-2.2-0.3-1.8-0.9c0.7,0.2,0.6-0.1,0.6-0.3c0.1,0.2,0.3,0.2,0.9-0.1
		c-0.3,0-0.3-0.1-0.5-0.2c0.1,0,0.1,0,0.2,0c-0.4-0.5-0.5,0-1,0c1.9-1.3,0.4-2.2-0.9-3.7c0.6-0.1,1.2,0.1,1.5,0.3l-0.3-0.6
		c0.9,0,0.5,0.3,0.7,0.5c1.5-0.8-1.5-1.5-0.1-2.4l-0.7-0.2l0.1-0.1c-0.3,0-0.9-0.2-1-0.3c2.9,0.3,2.1-1.8,0.1-1.7
		c0-0.2,0.8-0.3,0.4-0.5h1.1c-1,0.1-1.1-0.6-1.5-0.6c1.4,0.3,1.4,0.6,1.1-0.9c-0.8-0.3-3.2,0.2-2.3-1.5c-1.3,0.6-2.1-0.9-0.6-1.5
		c-11.1-6.8-13.1-0.1-9.2,4.9c-2.3,3.7-2.1,7.7,0.1,11l-0.9,0.3c0.6,0.3,0.6,0.8,0,0.7c0.6,0.3,0.3,0.7,0.6,0.9
		c-0.4-0.1-0.2,0.3-0.2,0.4l-0.3-0.1c0.7,0.6,0.7,1.1,0.4,1.6h1c-1.1,1,1.2,2.1-0.6,2.5c2.1,1.4-0.1,0.9-0.3,2.3
		c0.2-0.8-0.3-1.1-0.2-2.1c-0.2,0.9-1.3,1.6-1.2,0.6c-1-0.9-1.8,1.4-2.7,0.2c0.1,1-0.4,0.4-0.3,1.7c-1,1.3-1.8-2.6-2.1,1.4
		c-0.3,0.2-0.8-1.1-0.7-1.3c-0.9,0.3-1.1,0.3-1.7,0.3c-0.3,0.3-0.3,2.2-0.9,1.8c0.2-0.7-0.1-0.6-0.3-0.6c0.2-0.1,0.2-0.3-0.1-0.9
		c0,0.3-0.1,0.3-0.2,0.5c0-0.1,0-0.1,0-0.2c-0.5,0.4,0,0.5,0,1c-1.3-1.9-2.2-0.4-3.7,0.9c-0.1-0.6,0.1-1.2,0.3-1.5l-0.6,0.3
		c0-0.9,0.3-0.5,0.5-0.7c-0.8-1.5-1.5,1.5-2.4,0.1l-0.2,0.7l-0.1-0.1c0,0.3-0.2,0.9-0.3,1c0.3-2.9-1.8-2.1-1.7-0.1
		c-0.2,0-0.3-0.8-0.5-0.4v-1.1c0.1,1-0.6,1.1-0.6,1.5c0.3-1.4,0.6-1.4-0.9-1.1c-0.3,0.8,0.2,3.2-1.5,2.3c0.6,1.3-0.9,2.1-1.5,0.6
		c-6.8,11.1-0.2,13.1,4.9,9.2c3.7,2.3,7.7,2.1,11-0.1l0.3,0.9c0.3-0.6,0.8-0.6,0.7,0c0.3-0.6,0.7-0.3,0.9-0.6
		c-0.1,0.4,0.3,0.2,0.4,0.2l-0.1,0.3c0.6-0.7,1.1-0.7,1.6-0.4v-1c1,1.1,2.1-1.2,2.5,0.6c1.3-2.7,2,1.8,3.2-0.7
		c0.2,1-0.3,2.1-1.6,1.9c-1.5,0.1,2.1,0.8,0.9,0.9l0.7,0.3c-0.5,0.3-1.5,0-0.3,0.6c-2.4,0.4,0,2.2-0.3,3.6c-1.9,1.5-0.2,4.1,0.9,5.6
		c2.2,2.2-3.7,4.7-1.1,6.9C1124.9,234.5,1121.1,245.1,1135.5,237.3z M1137.1,211.8c0.2,0.1,0.4,0.1,0.6,0.2
		C1137.4,212,1137.3,211.9,1137.1,211.8z"/>
</g>
<g>
	<path class="st0" d="M557.5,523.2c-0.8-0.8-2.2,0.1-2.1,1.4c-0.8-1.4-1,0.5-1.4-0.1c-0.1,1.3-1.7-0.2-1.8,1c0-0.1-0.2-0.5-0.1-0.6
		c-1,0.9-3.5,0.5-3.8,2.9l-0.1-0.3c0.1,1-0.4,0.3-0.6,1c-0.1-0.1-0.2-0.1-0.2-0.2c0,1-1.1,0.8-1.3,1.3c-0.2-0.9-0.7-0.1-0.7-0.1
		c0.6,1.5-1-0.6-1.2,0.7c-0.6,0.1-0.9,1.9-0.9,2.6c-0.4-0.7-0.1-0.5-0.4-1.1c-0.3,0.5-1-0.4-1.3,0.3l-0.3-0.5
		c-0.1,1.4-1.6-0.1-1.5,1.1c-0.4,0.8-1.3-1.5-1.5,0l-0.7-0.6c-0.3,0,0.3,1-0.3,0.9c-1.5-2.1-1.3,1-3.2,0.3c0.2,0.6,0,0.9-0.3,0.9
		c0.4-0.7-0.7-0.9,0-1.5c0,0-0.1-1-1-0.8c0.6-0.1,0.6-0.7,1.3-0.9c-0.7,0.2-1.6-0.4-0.9-0.9c0.2-1.3-1.7-1.1-1.4-2.4
		c-4.2,0.9,0.6-2.2-3.2-1.2c-0.3-0.3,0.3-1,0.6-1c-1.3-2.1-1.3-0.9-2.6-1.6c0.6-0.1,0.3-0.3,0.3-0.4c0.2,0.1,0.3,0,0.5-0.4
		c-0.5,0.1-0.5-0.5-1,0.2c1.4-1.9-4.2-3.3-1.2-3.2l-0.4-0.4c0.6-0.3,0.5,0.2,0.7,0.3c0.7-1.2-1.7-0.9-1.2-2.1
		c-0.1,0-0.5,0.3-0.4-0.1c0,0.1-0.1,0.3-0.2,0.2l0.1-0.1c-0.3,0.2-0.7,0.2-0.9,0.1c1.5-0.7,1.4-1.6-0.2-2c-0.9,1-0.3-0.7,0.3-0.7
		c-0.6,0.4-1-0.1-1.3,0c1.3-0.2,1,0,0.3-1.2c-0.8,0.2-2.2,1.2-2.1-0.4l-0.6,0.4c-3.6-5.3-9.2-0.2-8.2,1c-0.6,2.9,1.8,3,3.5,5
		c0.3,4,2.1,7.4,5.2,9.7l-0.4,0.5c0.4,0,0.9,0.4,0.3,0.6c0.6,0.1,0.5,0.5,0.8,0.6c-0.5,0.1,0.4,0.4-0.2,0.5c0.7,0.3,1.6,1,1.6,1
		c-0.3,1.3,1.7,1.3,0.8,2.4c2.3,0.2-0.3,2.4,2,2.7c-0.3,0.1-2.1-0.1-2.1,1.7c-0.1-0.6-1.3,0.3-1.7-0.3c-1.3-0.2-1.1,1.7-2.4,1.4
		c0.9,4.2-2.2-0.6-1.2,3.2c-0.3,0.3-1-0.3-1-0.6c-2.1,1.3-0.9,1.3-1.6,2.6c-0.1-0.6-4.1,1.4-4,1.2c-1.2-0.7-0.9,1.7-2.1,1.2
		c0,0.1,0.2,1.2,0.1,1.4c-0.7-1.5-1.6-1.4-2,0.2c1,0.9-0.8,0.8-0.7,1c-0.2-1.3,0-1-1.2-0.3c0.2,0.8,1.2,2.2-0.4,2.1l0.4,0.6
		c-5.3,3.6,4,6.4,6.1,4.7c4-0.3,7.4-2.1,9.7-5.2l0.5,0.4c0-0.4,0.4-0.9,0.6-0.3c0.1-0.6,0.5-0.5,0.6-0.8c0.1,0.5,0.4-0.4,0.5,0.2
		c0.3-0.7,0.8-1,1.4-1l-0.3-0.6c1.3,0.3,1.3-1.7,2.4-0.8c0.2-2.3,2.4,0.3,2.7-2c0.3,1.1,1.4-0.3,0.8-1.4c4.2,4.8-0.7,4,2.1,4.9
		l0.6,0.1c-0.4,0.5-0.9,0.6,0.2,0.7c-1.4,1.5,1.2,2,1.5,3.2c-0.6,1.9,1.8,3.7,3.2,4.7c2.5,1.2-0.3,5.5,2.5,6.6c0.4-0.1,1,1.5,1.2,2
		c3.2,9,12.4-2.8,7.4-4c1.4-0.8-0.5-1,0.1-1.4c-1.3-0.1,0.2-1.7-1-1.8c0.1,0,0.5-0.2,0.6-0.1c-0.9-1-0.5-3.5-2.9-3.8l0.3-0.1
		c-1,0.1-0.3-0.4-1-0.6c0.1-0.1,0.1-0.2,0.2-0.2c-1,0-0.8-1.1-1.3-1.3c0.9-0.2,0.3-0.6,0-1c0,0,0.7-0.7-0.6-0.9
		c-0.1-0.6-3.5,0.4-3.1-0.5c-0.8,0.1,1-0.5,1.6-0.9c-0.5-0.3,0.4-1-0.3-1.3l0.5-0.3c-1.4-0.1,0.1-1.6-1.1-1.5
		c-0.8-0.4,1.5-1.3,0-1.5l0.6-0.7c0-0.3-1,0.3-0.9-0.3c2.1-1.5-1-1.3-0.3-3.2c-1,0.3-0.8-0.5-1.5-0.3c0.3-0.2,2.8-2.9,3.8-1.3
		c0.5,0.9-0.1-1.8,0.4-0.9l0.1-0.6c0.5,0.4,0.6,0.9,0.7-0.2c1.5,1.4,2-1.2,3.2-1.5c1.9,0.6,3.7-1.8,4.7-3.2c1.2-2.5,5.5,0.3,6.6-2.5
		C558.3,531.7,569.5,529.2,557.5,523.2z"/>
</g>
<g>
	<path class="st0" d="M311.6,1383.7c-0.8-1.1-2.6-0.5-2.6,1.2c-0.8-2-1.3,0.4-1.5-0.6c-0.3,1.7-1.9-0.7-2.1,0.8c0-0.2-0.2-0.7,0-0.8
		c-1.2,0.9-4-0.4-4.5,2.7l-0.1-0.3c-0.1,1.3-0.5,0.3-0.8,1.1c-0.1-0.2-0.2-0.2-0.2-0.3c-0.1,1.3-1.4,0.6-1.5,1.3
		c-0.2-0.9-0.5-0.5-1.1-0.2h0.4c0.5,2.1-1.1-1-1.4,0.5c-0.8-0.1,0,4.5-0.9,3.8c0,1-0.2-1.6-0.4-0.8c-0.3-1,0-0.7-0.3-1.5
		c-0.3,0.7-1.1-0.9-1.5,0.1l-0.3-0.8c-0.3,1.7-1.8-0.6-1.8,0.9c-0.6,0.9-1.3-2.2-1.6-0.4l-0.7-1c-0.4-0.1,0.2,1.5-0.3,1
		c-1.1-2.2-1.4-0.7-2.8,0c0-0.3,0-1-1-0.9c0.9-0.1,0.9-0.7,1.9-0.8c-1,0.1-2-0.7-0.9-1.1c0.6-1.4-1.9-1.5-1.1-2.8
		c-0.9,0.3-0.6-0.3-1.7,0.2c-1.5-0.7,1.9-2.7-2-1.9c-0.3-0.4,0.8-1.2,1-1c-1-2.7-1.9-1-2.8-2.1c0.8,0,0.5-0.3,0.5-0.4
		c0.2,0.1,0.4,0.1,0.8-0.3c-0.3,0-0.3,0-0.5,0c0.1,0,0.1-0.1,0.2-0.1c-0.6-0.4-0.5,0.2-1,0.3c2.3-2.4-4.6-3.9-0.5-3.7l-0.4-0.6
		c0.9-0.3,0.6,0.2,0.9,0.3c1.2-1.2-1.9-1.1-0.9-2.5h-0.8l0.1-0.1c-0.3,0.1-0.9,0.1-1.1,0c0.3-0.2,0.8-0.3,1.1-0.4l-0.1,0.1
		c1.2-0.7,0.5-1.5-0.8-1.9c-1.1,0.9-0.5,0-0.5-0.3l0.7-0.3c-0.7,0.2-0.9-0.3-1.4-0.3c1.4-0.2,1.5,0.3,0.8-1.3
		c-0.9-0.1-3,1.1-2.6-0.8c-1.1,0.9-2.3-0.5-1.1-1.5c-12.8-3.7-12.5,3.7-7.3,7.5c-0.8,4.4,0.4,8.7,3.8,11.4l-0.7,0.5
		c0.6,0,0.9,0.6,0.3,0.8c0.7,0.2,0.5,0.7,0.9,0.7c-0.4,0.1-0.1,0.3,0,0.4h-0.3c0.9,0.4,1,1,0.9,1.6l0.9-0.3
		c-0.8,1.3,1.8,1.8,0.3,2.8c2.6,0.8,0.1,2.3,0.3,3.7c-0.1-0.9-0.7-0.9-0.8-1.9c0.1,1-0.7,2-1.1,0.9c-1.4-0.6-1.5,1.9-2.8,1.1
		c0.3,0.9-0.3,0.6,0.2,1.7c-0.7,1.5-2.7-1.9-1.9,2c-0.4,0.3-1.2-0.8-1-1c-2.7,1-1,1.9-2.1,2.8c0-0.8-0.3-0.5-0.4-0.5
		c0.1-0.2,0.1-0.4-0.3-0.8c0,0.3,0,0.3,0,0.5c0-0.1-0.1-0.1-0.1-0.2c-0.4,0.6,0.2,0.5,0.3,1c-2.4-2.3-3.9,4.6-3.7,0.5l-0.6,0.4
		c-0.3-0.9,0.2-0.6,0.3-0.9c-1.2-1.2-1.1,1.9-2.5,0.9v0.8l-0.1-0.1c0.1,0.3,0.1,0.9,0,1.1c-0.2-0.4-0.3-1-0.6-1.4l0.3,0.3
		c-1-1.6-2.3,0.3-1.6,1.5c-0.3,0.1-0.6-0.6-0.7-0.3l-0.3-0.7c0.2,0.7-0.3,0.9-0.3,1.4c-0.2-1.4,0.3-1.5-1.3-0.8
		c-0.1,0.9,1.1,3-0.8,2.6c0.9,1.1-0.5,2.3-1.5,1.1c-3.7,12.7,3.8,12.5,7.5,7.3c4.4,0.8,8.7-0.4,11.4-3.8l0.5,0.7
		c0-0.6,0.6-0.9,0.8-0.3c0.2-0.7,0.7-0.5,0.7-0.9c0.1,0.4,0.3,0.1,0.4,0v0.3c0.4-0.9,1-1,1.6-0.9l-0.3-0.9c1.3,0.8,1.8-1.8,2.8-0.3
		c0.5-2.9,2.7,1,3.2-1.8c-0.1,0.3,0.3,0.4,0.3,0.7c0.3-0.3,0.6-0.5,0.8-0.9c0.3,0.9,0.4,2.8-1,3.1c-1.4,0.5,2.3,0.1,1,0.6l0.8,0.1
		c-0.5,0.4-1.3,0.7,0,0.8c-2.2,1.2,0.9,2.3,1,3.8c-1.3,2.1,1.3,4.4,2.7,5.7c2.8,1.6-1.9,6.1,1.3,7.6c0.7,0.2,0.9,1.6,1,2.4
		c1.6,10.5,16.7-1.8,10.6-3.6c2-0.8-0.4-1.3,0.6-1.5c-1.7-0.3,0.7-1.9-0.8-2.1c0.2,0,0.7-0.2,0.8,0c-0.9-1.2,0.4-4-2.7-4.5l0.3-0.1
		c-1.3-0.1-0.3-0.5-1.1-0.8c0.2-0.1,0.2-0.2,0.3-0.2c-1.3-0.1-0.6-1.4-1.3-1.5c0.9-0.2,0.5-0.5,0.2-1.1v0.4c-2.1,0.5,1-1.1-0.5-1.4
		c0.1-0.8-4.5,0-3.8-0.9c-1,0,1.6-0.2,0.8-0.4c1-0.3,0.7,0,1.5-0.3c-0.7-0.3,0.9-1.1-0.1-1.5l0.8-0.3c-1.7-0.3,0.6-1.8-0.9-1.8
		c-0.9-0.6,2.2-1.3,0.4-1.6l1-0.7c0.1-0.4-1.5,0.2-1-0.3c3.2-1.5-1.1-1.5,0.4-3.7c-1.4,0.2-0.9-0.6-1.8-0.5c1-0.5,3.2-0.9,3.6,0.8
		c0.5,1.4,0.1-2.3,0.6-1l0.1-0.8c0.4,0.5,0.7,1.3,0.8,0c1.2,2.2,2.3-0.9,3.8-1c2.1,1.3,4.4-1.3,5.7-2.7c1.6-2.8,6.1,1.9,7.6-1.3
		c0.2-0.7,1.6-0.9,2.4-1C312.6,1395.5,323.2,1392.7,311.6,1383.7z"/>
</g>
<g>
	<path class="st0" d="M739.7,1563.2c-1.2-2.1-5.7-0.5-5.7-2.6c-3-1.7-5.6-0.3-8.3-0.8c0.6-0.8-1.5-0.9-0.6-0.5
		c-0.5,1.5-0.5-1.1-1.5-0.3c-0.6-0.3-2.1,2.8-2.7,1.9c0.8-1.5-0.7-3.5-2.7-3.3c-0.9,0.3,0-2-1.2-1c-0.1-1.6-0.2-0.3-0.9-0.5
		c0.3-2.4-2.9-0.6-3.8-2.5c2.6-3.3,2.1-3.9,3-6.8c-3.5-1.6,1.9-1.7-1.5-3.2c3.1-1.4-0.6-3.2,0.9-3.8c0.6,0.8,0.9-0.9-0.2-0.4
		c2.2-0.3-0.7-5.7,1.4-3.4c-0.2-0.9,0.6-0.6,0.3,0c1.3-0.5-0.6-1.9,0.6-2.6c-2.5-1,2.9-0.9-0.4-2.7c1.1-0.8,1,0.2,0.3-1.2
		c1.1,0.7,0.8,0.9,1.1-0.7c-1.9-0.3-1-1.9-2-1.9c-4-18.3-12.1,7.4-10.7,13.4c-2.1,0.6,0.3,5.5-1.6,6.5c1.5,1.9-1.9,1.8-0.4,3.6
		c-0.2-0.3-0.4,0-0.6-0.1c0.3,3.2-0.1,2.3-0.7,1l0.4-0.7c-1.1,2.3-2.1-1.5-3.4,0.1c0.8-1.9-2.6-1.2-4.2-2.1
		c-1.6,3.5-1.7-1.9-3.2,1.5c-1.4-3.1-3.2,0.6-3.8-0.9c0.8-0.6-0.9-0.9-0.4,0.2c-0.3-2.2-5.7,0.7-3.4-1.4h-0.7
		c1.9-1.4-2.6-0.8-2.7,0.2c0.6-3.2-1.8-0.6-2.2-1.1c0.5-1.4-0.3,0.1-0.8,0.2c0.7-1.1,0.9-0.8-0.7-1.1c-0.5,0.7-0.7,2.3-1.9,1.2
		c-4.7,0.6-8.1,5.8-5.1,7.4c5.2,2.3,13.7,3.4,18.6,4.8c1.5-0.2,2.1,0.2,3.8,0.6c-0.3-0.8,2.7-0.6,2.7,0.3c0.5-0.9,3.7,1,3.5,1
		c0.9,0.7,2.4-2.7,2-0.3c0.8-1.1,0,5-2,4.1c-1.1-0.3,1.4,1.2,0.3,1c-0.1,1.4-3.2,6.9-2.1,11c1,2.7-4.7,4.9-2.6,7.5
		c-6.2,12.7,10.2,8.8,7.4,4.1c1.3,0.5,1-3.9,2.1-2.9c1.4-2.1,0.5-5,0.8-6.3c-1.1-1.1,1.6-2.9,0.5-2.6c-1.5-0.5,1.1-0.5,0.3-1.5
		c0-0.9-3.9-3.2-1.2-2.7c1.4,1,2.9-1.6,2.7-2.7c-0.3-0.9,2,0,1-1.2c1.6,0,0.4-0.3,0.5-0.9c1.9,0.3,2-3.4,1.1-4.3
		c0.6-0.6,4.3-0.4,4.1,1.7c-0.2,0.7,1.5-0.9,1.5-0.8c0.1,1.5,2.3,1.3,4.4,1.5C724.3,1566.9,747.4,1579,739.7,1563.2z M712.6,1553.9
		c1.5,0.9-2.4,0.2-0.7,0.6C711.3,1553.5,712.5,1554.8,712.6,1553.9z"/>
</g>
<g>
	<path class="st0" d="M1413.6,942.9c0.3-2-5.7-1.2-5.3-3.5c-4.1-3-6,0.5-8.8-1.6c-0.9,1.9-0.3-1.5-1.4-0.5c-0.5-0.5-2.9,3.5-3.2,2.3
		c-0.3,0.3,0.5-1.7,0.8-2.2c-0.5-0.2-1.3-1.1-0.9-1.6c-1.3,1.2-0.9-1.6-2.1-0.4c-1,0.3,0.4-2.6-1-1.3l0.1-1.2
		c-0.9,0.8-1.1,0.6-0.8-0.8c0-1-3.3,0.3-2.3-1c0.9-0.9-0.5-1.7,1.8-0.9c-0.9-0.6-1-1.8,0-1.5c1.4-0.8-0.5-2.3,0.9-2.9
		c-4.6-2.8,2.5-1.2-1.8-3.7c0-0.4,1.3-0.4,1.5-0.2c1.2-3.1-2.1-2.6-0.2-3.6c0.9,0.9,1-0.7-0.3-0.4c2.3-0.6,1.2-2.3,0.7-4.2
		c1.3,0.9,1.8-0.2,1.6,1.1c1.7-0.2-0.8-2.1,0.9-2.5c-0.5-0.4-0.9-0.7-1.3-1.1c4.1,1.4,0.6-1.7,1.4-2.1c1.8,0.8,0-0.2-0.2-0.9
		c1.2,0.8,0.9,1.1,1.4-0.5c-0.6-0.5-3.1-1.1-1.5-2.2c-2.1-9.1-13.2-10.9-10.2-0.2c-5.6,3.6-3.6,11.5-6,13.2c-0.1,1.5,0.9,4.1-1,4.5
		c1.5,2.1-3.6,4.2-1.7,1.1c-0.6,0.9-1.8,1-1.5,0c-0.8-1.4-2.3,0.5-2.9-0.9c-3,4.6-1.1-2.5-3.7,1.8c-0.5-3-2.3-1.4-3.7-0.7
		c0.7-1.3-0.5-2.1-0.5-0.4c0-3.2-6,0.7-3.2-1.9c-1.2,0.2-0.3-0.8,0.2-0.4c0.1-1-3.1-0.4-2.9-0.3c0-0.3-0.5,0.8-0.7,0.7
		c1.3-2.6-1-2.7-1.7-0.8c-0.7-1.7,0.7-1.5-1.2-0.4c0.8-1.2,1.1-0.9-0.5-1.4c-0.5,0.6-1.1,3.1-2.2,1.5c-9.1,2.1-10.9,13.2-0.2,10.2
		c4.8,6,11.5,3.8,15,6.3c-0.2-1,2.8-0.6,2.7,0.7c1.7-1.5,2.5,2,4,1.3c-0.4,0.9-1.3,2.1-2.5,1.5c-1.4-0.5,1.7,1.5,0.4,1.2
		c1.5,1.5-1.4-0.3,0,1.2c-1.8,0.3-3.9,7.3-3.2,9.7c-0.4,3.9-4.4,3.4-4.6,9.1c-3.7,11.1,12.5,7.8,12,3.1c-0.4-2.3,4.8-2.7,2.2-6.9
		c-0.1-0.2-0.1-2.1,0.2-3.1c0.9,0.9,1-1.2,0.6-0.5c-1.9-0.9,1.5-0.3,0.5-1.4c0.5-0.5-3.5-2.9-2.3-3.2c0.1-0.3,3.1,1.5,3.1-0.4
		l0.8,0.3c-1.2-1.3,1.6-0.9,0.4-2.1c-0.3-1,2.6,0.4,1.3-1l1.2,0.1c0.3-0.3-1.2-0.8-0.5-0.9c3.5,0.9,0.1-1.8,2.7-2.6
		c-2.4-2.1,3.1,0,1.6,1.7c-0.3,0.8,1.7-1.1,1.8-0.9c0.1,0.7-0.4,1.4,0.6,0.5c0.4,1.8,7.3,3.9,9.7,3.2
		C1402.5,949.2,1416.3,963.1,1413.6,942.9z"/>
</g>
<g>
	<path class="st0" d="M716.8,281.1c-4.8,1.5-5.7,3.1-9.2,5c0.9,0.3-0.4,0-0.7,0.4c-0.5,0.3-0.2,2.7-0.9,1.5c0-1.1-0.9,0-1.3-0.5
		c-0.9,1.2-2.4,0.3-2.9,1.2c-1-1.4-2.9,2.4-3.3,1c-1.3-0.6-0.7-0.7-1.8-2.1c1.2-0.5-0.5-0.6,0-1.2c-1.3-2.3-2.8-2.4-3.4-4.7
		c-1.6,0.3-0.1-1.3-1.2-0.8c0.7-1.1-2.6-2.7-1-2.4c-0.4-0.4,0.1-0.5,0.2-0.1c-0.1-0.8-1-1.7-1.6-1.7c1.6-1-1.2-1.2-0.4-1.7
		c-0.8-2.2-0.8,0.1-1.7-1.6c-12.7-8,6.9,19.2,5.9,18.2c0.5,1.7-0.4,0.3-0.5,1.3c0.4-0.2,0.2,1.3,0,0.3c-0.1,0.5-0.6-0.2-0.6-0.4
		c-0.5,1.4-2.4,1.2-3,1.5c-2.3,1.3-2.4,2.8-4.7,3.4c0.3,1.6-1.3,0-0.8,1.2c-1.1-0.7-2.7,2.6-2.4,1c0,0-1.1,0.1-1.8,1
		c0.2,0.8-1-0.8-1.4,0.8c0.5,0.3-0.3,0.3-0.3,0.1c-0.3,1.2,0-0.5-1.1,0.5c-9.4,15.5,17.3-5.1,18.5-4.9c2.4-2.3,3.4,8,6.9,10.3
		c0.9,6.1,9.7,14.5,6.7,4.4c0.2-2.9-2.9-5-3.9-7.6c-0.3,0.9,0-0.4-0.4-0.7c-0.3-0.5-2.7-0.2-1.5-0.9c1-0.1,0.3-2-0.3-2.5
		c-0.2-1.4,0.1-3.4-1.8-4.4C697.8,293.3,729.7,283.7,716.8,281.1z M697.6,290.3c-0.1,0-0.3,0-0.3-0.1
		C697.5,290.3,697.6,290.3,697.6,290.3z M697.6,289.6c0.6-0.3-0.1,0.8-0.3,0.3C697.6,289.9,697.8,289.7,697.6,289.6z M697.5,290.1
		c-0.1,0.1-0.1,0.1-0.2,0.1C697.2,290.1,697.4,290.1,697.5,290.1z M700.5,294.5c0.1-0.1,0.2-0.2,0.2-0.2
		C700.6,294.4,700.6,294.5,700.5,294.5z"/>
</g>
<g>
	<path class="st0" d="M1405.4,1445.1c-4,1.1-7.2,4-9.9,5.4c-0.5,0.3-0.2,2.7-0.9,1.5c0-0.7-0.5-0.6-1.1-0.3
		c-0.8-0.2-1.9,0.9-2.8,0.4c-0.3,0.6-2.7,0.4-3,1.9c-0.9,0.3-0.5-1.7-1.4-0.2c-0.6-0.1-0.1-0.8,0.4-0.9c-1.4,0.2-0.3-1.5-1.5-1.8
		c1.5-0.7-3.8-5.5-4.3-6.5c0.6-0.2-3.2-3.7-1.2-2.7c-0.1-0.8-1-1.8-1.6-1.7c1.4-1-0.9-1.5-1-2c-15.1-13,4.9,17.6,4.8,17.3
		c0.5,1.7-0.4,0.3-0.5,1.3c0.4-0.2,0.2,1.3,0,0.3c-0.1,0.5-0.6-0.2-0.6-0.4c0,0.9-2.1,1.5-2.3,0.9c-2.1,1.5-3.2,3.1-5.4,4
		c0.3,1.6-1.3,0-0.8,1.2c-1.1-0.7-2.7,2.6-2.4,1c0,0-1.1,0.1-1.8,1c-0.2,0.9-0.3-1.1-1.6,1c-0.1-0.3-0.3,0.4-0.3,0.4
		c-0.1-0.8-0.1-0.5-0.9-0.1c0.1,0.6,0.4,1.1-0.5,1.2c-7.5,12.9,16.7-5.8,18-5.2c2-4,3.1,1.2,3.8,2.7c1.5,2.7,4.5,8.6,6.3,11.6
		c5.4,10.3,5.7-0.7,3.8-2.9c-0.6-2.1-3.5-4.2-3.3-5c-0.8,0.3,0.2-0.7-0.5-0.9c-0.3-0.5-2.7-0.2-1.5-0.9c1-0.1,0.3-2-0.3-2.5
		c-0.1-1.4,0.1-3.3-1.8-4.4C1386.5,1457.1,1418.3,1447.9,1405.4,1445.1z M1389.1,1458.6c0.1-0.1,0.2-0.2,0.2-0.2
		C1389.2,1458.5,1389.2,1458.6,1389.1,1458.6z"/>
</g>
<g>
	<path class="st0" d="M458.9,1206c-3.8-1.6-8.1-1.2-11.1-1.8c-0.6-0.1-1.8,2-1.7,0.6c0.4-0.5,0-0.8-0.7-0.9
		c-0.5-0.6-2.1-0.4-2.5-1.4c-0.6,0.3-2.4-1.3-3.5-0.3c-0.9-0.3,0.7-1.6-0.9-0.9c-0.4-0.4,0.4-0.7,0.9-0.4c-1.2-0.7,0.7-1.5-0.1-2.3
		c1.5,0.3,0.3-6.7,0.6-7.8c0.6,0.3-0.3-4.9,0.7-2.8c0.4-0.7,0.3-2.1-0.3-2.3c1.7,0,0.3-1.7,0.4-2.2c-4-19.6-6.9,16.9-6.8,16.6
		c-0.7,1.6-0.5-0.1-1.2,0.7c0.4,0.1-0.7,1.1-0.2,0.2c-0.3,0.3-0.3-0.5-0.2-0.7c-0.6,0.8-2.6,0-2.3-0.8c-2.6,0-4.4,0.5-6.8-0.1
		c-0.8,1.5-1-0.8-1.4,0.5c-0.4-1.2-3.7,0.4-2.5-0.7c0,0-0.9-0.6-2.1-0.3c-0.7,0.6,0.4-1.1-1.9-0.2c0.2-0.3-0.4,0.2-0.5,0.2
		c0.4-0.7,0.3-0.4-0.6-0.6c-0.3,0.5-0.3,1.1-1.1,0.6c-13.9,5.6,16.8,5.6,17.4,6.9c4-2,1.7,2.8,1.4,4.5c-0.4,3.1-1.6,9.6-2.1,13.1
		c-2.1,11.5,5,3,4.8,0.1c0.8-2-0.2-5.5,0.4-6.1c-0.8-0.3,0.5-0.4,0.2-1c0.1-0.6-2-1.8-0.6-1.7c0.9,0.6,1.4-1.4,1.3-2.1
		c0.8-1.1,2.1-2.6,1.3-4.6C436.6,1203.9,467.4,1216.1,458.9,1206z M437.7,1206.7c0.1,0,0.3,0,0.3,0
		C437.9,1206.7,437.9,1206.7,437.7,1206.7z"/>
</g>
</svg>
