<?xml version="1.0" encoding="utf-8"?>
<!-- Generator: Adobe Illustrator 27.5.0, SVG Export Plug-In . SVG Version: 6.00 Build 0)  -->
<svg version="1.1" id="Layer_1" xmlns="http://www.w3.org/2000/svg" xmlns:xlink="http://www.w3.org/1999/xlink" x="0px" y="0px"
	 viewBox="0 0 1800 1800" style="enable-background:new 0 0 1800 1800;" xml:space="preserve">
<style type="text/css">
	.st0{fill:#E4EB24;}
</style>
<path class="st0" d="M331,492.3c0.3-6.9,0-15.1,2.7-20.2c-0.1-2.3,0.9-4.6,1.3-6.7l0.2,0.2l0.9-3.1c0.1,0.2,0.1,0.4,0.2,0.7
	c0.9-4.5,2.9-8.9,5.2-12.4l-1.2-0.3c4.8-5.5,6.3-12.5,12.5-16c5.1-9.9,13.2-9.9,20.3-18.2c0.5,1.9,5.4-3.1,6.6-3.7
	c2.2-2.3,3.9-6.3,5.9-3.7c0.4-2.5,4.8-3.6,7.2-4.9l-1.7,1.2c4.1-1.9,8.8-3.9,13.2-5.1c-2-0.1-3.8-0.1-5.5-0.2
	c4.1-1,15.2-0.5,7.4-2.6c3.2-3,7.8-3.8,11.1-6.4c0.6-0.4-1.6-1.2-1.8-1.8c-1.9-2-3.3-4.6-4.4-7.2c-4.8-0.7-11.3-2-15.9-3.3
	c-14.4-4.8-33.4-12.5-39.7-26.6c0.9-1.5-6.1-3-5.2-4.6c-1.1-0.2-3.9-3.4-2-2.9c-12.4-15.8-18.2-35-18.6-55.6
	c-33.6-4.8,1.5,22.1-37.9,58.6c-9.6,12.3-20.8,21.5-35.2,27.8c-25.7,9.4-48.1,18.2-2.9,15.6l-0.3,0.5c12.3-2.9,21.5-10.2,31.6-16.6
	l-0.1,0.3c4.1-5.3,11-7.4,14.5-13.2c0,0.2,0.3,0.7-0.2,1.4c9.3-9.9,20.7-23.9,22-37.5l0.2,0.6c0.1-1.6,0.3-2.7,0.5-3.7
	c1.2,7.3,7.9,17,10.6,24.2c-0.6,1.6,4.3,5.1,4.2,8.2c1.8,2.6,2.7,0.7,4.4,3.8c-0.8,0.4,2.5,3.7,0.5,2.8c7.6,8.4,17.8,17.5,28.9,21.2
	c-0.2,0.9,9.3,5,3.3,3.7c-0.5-0.1-1.3-0.6-1.1-0.8l-1.1,0.5c2.7,2.7,6.6,4.3,10.1,4c-0.8-1.2,1-0.7,1.6-0.3
	c-0.4,0.1-0.9,0.3-1.2,0.4c0.6,0.9,1.5,0.3,2.3,0.1c-4.1,2,3.2,0.1,4.8,0.4c-1.3,1.2-3.9,0.7-5.6,1.1c3,0.1,2.5,0.2,2.6,0.4
	l-2.3-0.2c1.1,0.9-4.1-0.6-3.2,0.1c-0.3-0.1-0.6-0.2-1-0.3c0.7,0.3,3.6,1,2.6,1.7c-1-0.1-1.7-1-1.5,0.8c1.8,0.2,0.6,2.4-0.9,2.5
	l0.3-1.2c-1.6,1-2,1.7-3.2,2c0.8-0.9-0.1-1.6-2.5,0l1.1-2c-6.5,8.1-18.3,8.7-23.2,17.2c0.8-1.9-3.4,1.1-2.9-0.7
	c-1.1,2.3-5.6,7.6-8.2,9l0.3-0.5c-7.3,5.9-10.4,14.4-16,21.6c1.2,0.2-1.6,4.2,0.2,3.8c-1.4,4.1-3.4,7.5-5.3,11.1
	c-1.5-2.3-6.8-12.7-1.3-5.3c-2.8-4.6-2.5-6.9,0.2-0.9c-2.2-7.9-8.5-14.8-13.4-20.9c-4.8-1.1-0.5-2.2-3.7-6c-1.8-3.4-6.7-6.4-9.9-8.7
	c3,4-4.8-2.4-3-3.3c-3-0.6-9.3-4.8-1.8-1.5c-5.8-4.3-4.8-3.6-10-7c-4.1-1.5,0,1.4-2.3,1.3c-3.3-1.8-6.8-2.8-10.2-5.4
	c0.2,0.5,0.5,1.1,0.7,1.6c-6.7-5-42.7-14-39.6-3.6c19.6,10.9,37.2,12.6,56.1,27.4c19.2,19.6,27.3,41.3,30.7,67.3
	C317.7,492.4,326.3,492.4,331,492.3z"/>
<path class="st0" d="M291.8,851.4c-8.2-10.7-0.2-5.9-14.6-9.8c-8.4-3.2-22.1-8.2-23.9-17.4c0.9-1.5-4.5-1.2-3.6-2.8
	c-1,0-2.8-2.1-1.3-1.9c-2.9-2.4-1.7-2.3-3-5.3c-1.9-3.4-4-7.1-5.4-10.7c-2.9-4.6-0.2-12.8-6.6-13.3c-2-1.6-4.8-4-5.2-6.6
	c-0.6,8.9-8.5,8.5-8.5,16c-2.4,13.3-13.6,20.2-20.1,30.3c-5.8,8.7-55.1,20-24.3,24.3c-33.2,3.1,16.8,16,24.4,23.9
	c9,9.8,12.1,17.6,16.1,29.3c3.5,13.6-2.3,12.5,12.5,14c0.1-1,0.4-1.1,0.8-2.3c0.1,0.2,0.3,0.4,0.4,0.6c0.1-0.7,1.5-1.8,1.5-0.6
	c0.6-1.3,2.3-1.1,3.2-2c-0.5,1.2,1.9-0.3,2.2-0.2c-0.1,0.3-0.2,0.6-0.3,0.9c3.3-0.6,1.6-5.5,2.3-7.9c2.5-10.1,4.3-19.8,12.7-26.2
	c2.7-7.2,9-5.9,13.1-12.1c-0.5,0.8,0.6,0.3,0.7,0.6c4.9-2.1,5.9-9.3,10.8-7.1c-0.5-1.8,3.6-2.6,5.3-3.5l-1,0.8c2.2-1.2,5.8-1,6.2-4
	c-1.1,0.1-2.3,0.1-3.6,0.1c2.2-1,7.1-1.4,2.5-2C286.6,854.7,295.1,853.7,291.8,851.4z M267.9,853.4c-1.3,0.1-2.6,0.2-3.8,0.3
	c2.8,0.1,2.5,0.1,2.7,0.3l-2.2-0.1c1.6,0.6-4.4-0.4-2.9,0l-1.1-0.2c1.7,0.2,5.7,1.4,2.1,0.9c0.2,0.7,1,0.6,1.9,1.2
	c1.1,1-0.3,0.9-0.7,0.1c-0.2,1.7-1-0.7-1.7,0c-0.2-0.4-0.4-0.7-0.6-1c2.1,3.7-12.8,5.9-13.3,11c0.4-1.6-2.6,0.6-2.5-1
	c-0.6,1.9-3.5,5.7-5.6,6.5l0.2-0.4c-5,3.4-6,9.2-9.8,12.9c1.4,1.9,1.4,3.2-0.4,4.4c-0.1,0.5,0,1.8,0.2,5c-0.2,0.9-0.3,0.7-0.4,0.2
	c-0.2-1-0.2-1.3-0.2-2c-0.6,5.3-0.3,7.2-0.5,11.9c0.1-3.8-0.1-9.4-0.1-3c0-4.1-0.5-2.9-0.3-6.8c-0.2-1.2-5.9-4.8-2.1-4.8
	c-1.1-0.9-0.7-2.8,0.2-0.9c0.2-2.4-1.2-2.1-2.2-3.5c-1.9-1.9-2.7-4.9-4.8-6.1c-0.6,0.3-0.9-0.3-1.3-1l0.2,0.8
	c-0.4-0.2-0.8-0.5-1.1-0.7c2.5-3.5-4.4-7.6-7.3-9.2c1.8,3.3-3.7-1.7-1.9-2.4c-2.3,0.2-7.1-3-1.3-1.1c-4.5-3.3-2.2-1.7-6.9-4.8
	c-3-0.8-0.2,1.3-2,1.5c-2.3-1.2-4.8-1.6-7.1-3.6c0.1,0.5,0.2,0.9,0.3,1.4c-5.3-1.1-7.1-3.6-10.7-4.8c0.7,0,1.5,0,2.3-0.1l-0.2,0.5
	c10.5-1.9,14.9-8.1,22-11.1c2.5-4,8.2-4.8,10.2-9.2c0,0.2,0.3,0.6-0.1,1.2c4-4.9,8.5-8.1,11.1-13.8c0.6-1.4,0.8-3,0.7-5.5l0.1,0.7
	c-0.2-3.1,0.3-1.4,0.6-4.2c0.1,0.3,0.1,0.4,0.1,0.5c0-3.7,0.7-3.8,0.9-7v2.6c0.3-1.7,0.1-8.8,0.3-4.8c0,1.9,0,3.1,0.1,1.8
	c0.1,0.9,0.7-9.4,1.4-3.3c0.2,1.6-0.1,4.5-0.3,6.7c0.5,1.2,1.1,5.9,0.9,6.6c1.8,0.4,0.4,4.4,2.5,4.4c1,0.8,1.3,2.4,1.2,3.6
	c-0.7,1.4,3.2,3.6,2.5,6c1.2,1.9,2.3,0.2,3.3,2.5c-0.7,0.4,1.6,2.8,0,2.2c5.2,5.7,12.7,12.7,20.4,14.4c0,0.8,3,1.7,0.7,2.3
	c-0.2,0.1-0.3,0-0.1-0.3c-2.5,3.3,2.6-0.3,3.5,1.1c-2.3,0.3-1.1,1.1,0.5,0.5c-5,1.3,2.2,0.2,3.8,0.3
	C269,853.2,268.5,853.3,267.9,853.4z"/>
<path class="st0" d="M458.3,1282.8c-9-7.4-0.7-8-15.3-10.5c-8.7-3.3-22.8-8.2-24.8-17.7c0.9-1.5-4.5-1.2-3.6-2.8
	c-1,0-2.8-2.1-1.3-1.9c-2.9-2.4-1.7-2.3-3-5.3c-1.9-3.4-4-7.1-5.4-10.7c-2.9-4.6-0.2-12.8-6.6-13.3c-2-1.6-4.8-4-5.2-6.6
	c-1,10.1-8.6,7.8-8.6,15.8c-2.4,13.3-13.6,20.2-20.1,30.3c-5.8,8.7-55.1,20-24.3,24.3c-33.4,3.1,17.5,16.3,24.9,24.2
	c9,9.8,12.1,17.6,16.1,29.3c3.5,13.6-2.3,12.5,12.5,14c0.1-1,0.4-1.1,0.8-2.3c0.1,0.2,0.3,0.4,0.4,0.6c0.1-0.7,1.5-1.8,1.5-0.6
	c0.6-1.3,2.3-1.1,3.2-2c-0.5,1.2,1.9-0.3,2.2-0.2c-0.1,0.3-0.2,0.6-0.3,0.9c3.3-0.6,1.6-5.5,2.3-7.9c2.5-10.1,4.3-19.8,12.7-26.2
	c2.7-7.2,9-5.9,13.1-12.1c-0.5,0.8,0.6,0.3,0.7,0.6c4.9-2.1,5.9-9.3,10.8-7.1c-0.5-1.8,3.6-2.6,5.3-3.5l-1,0.8c2.2-1.2,5.8-1,6.2-4
	c-1.1,0.1-2.3,0.1-3.6,0.1c2.2-1,7.1-1.4,2.5-2C452.7,1285.2,456.4,1284.9,458.3,1282.8z M432.7,1283.6c-1.3,0.1-2.6,0.2-3.8,0.3
	c2.8,0.1,2.5,0.1,2.7,0.3l-2.2-0.1c1.6,0.6-4.4-0.4-2.9,0l-1.1-0.2c1.7,0.2,5.7,1.4,2.1,0.9c0.2,0.7,1,0.6,1.9,1.2
	c1.1,1-0.3,0.9-0.7,0.1c-0.2,1.7-1-0.7-1.7,0c-0.2-0.4-0.4-0.7-0.6-1c2.1,3.7-12.8,5.9-13.3,11c0.4-1.6-2.6,0.6-2.5-1
	c-0.6,1.9-3.5,5.7-5.6,6.5l0.2-0.4c-5,3.4-6,9.2-9.8,12.9c1.4,1.8,1.3,3.3-0.4,4.4c-0.1,0.5,0,1.8,0.2,5c-0.2,0.9-0.3,0.7-0.4,0.2
	c-0.2-1-0.2-1.3-0.2-2c-0.6,5.3-0.3,7.2-0.5,11.9c0.1-3.8-0.1-9.4-0.1-3c0-4.1-0.5-2.9-0.3-6.8c-0.2-1.2-5.9-4.8-2.1-4.8
	c-1.1-0.9-0.7-2.8,0.2-0.9c0.2-2.4-1.2-2.1-2.2-3.5c-1.9-1.9-2.7-4.9-4.8-6.1c-0.5,0.3-0.5-0.2-0.8-0.7l0.2,0.7
	c-0.5-0.1-1.2-0.5-1.6-0.9c2.5-3.5-4.4-7.6-7.3-9.2c1.8,3.3-3.7-1.7-1.9-2.4c-2.3,0.2-7.1-3-1.3-1.1c-4.5-3.3-2.2-1.7-6.9-4.8
	c-3-0.8-0.2,1.3-2,1.5c-2.3-1.2-4.8-1.6-7.1-3.6c0.1,0.5,0.2,0.9,0.3,1.4c-5.3-1.1-7.1-3.6-10.7-4.8c0.7,0,1.5,0,2.3-0.1l-0.2,0.5
	c10.5-1.9,14.9-8.1,22-11.1c2.5-4,8.2-4.8,10.2-9.2c0,0.2,0.3,0.6-0.1,1.2c4-4.9,8.5-8.1,11.1-13.8c0.6-1.4,0.8-3,0.7-5.5l0.1,0.7
	c-0.2-3.1,0.3-1.4,0.6-4.2c0.1,0.3,0.1,0.4,0.1,0.5c0-3.7,0.7-3.8,0.9-7v2.6c0.3-1.7,0.1-8.8,0.3-4.8c0,1.9,0,3.1,0.1,1.8
	c0.1,0.9,0.7-9.4,1.4-3.3c0.2,1.6-0.1,4.5-0.3,6.7c0.5,1.2,1.1,5.9,0.9,6.6c1.8,0.4,0.4,4.4,2.5,4.4c1,0.8,1.3,2.4,1.2,3.6
	c-0.7,1.4,3.2,3.6,2.5,6c1.2,1.9,2.3,0.2,3.3,2.5c-0.7,0.4,1.6,2.8,0,2.2c5.2,5.7,12.7,12.7,20.4,14.4c0,0.8,3,1.7,0.7,2.3
	c-0.2,0.1-0.3,0-0.1-0.3c-2.5,3.3,2.6-0.3,3.5,1.1c-2.3,0.3-1.1,1.1,0.5,0.5c-5,1.3,2.2,0.2,3.8,0.3
	C433.8,1283.4,433.3,1283.5,432.7,1283.6z"/>
<path class="st0" d="M1219.4,1452c-9.7-16-41.1-11-47.9-31.7c-8.2-6-13.2-17.4-18-29c-1.4-13.6,0.8-23.2-15.9-20.1
	c2.4,68.3-112.1,81.4-48.5,82.7c13.6-0.8,30.9-19.1,36.8-21.7c25.8-27.3,11.5-38.4,32.1-1.7c2.2,6.4,32.7,22,25.2,19.5
	c-2.5,2,2.6,2.5,4.1,2.2c2.4-2.1-1.4,2,2.2,0.4c-4.9,1.4,2.6,0.2,4.1,0.3c-1.4,0.8-3.8,0.6-5.3,0.9c6.6,0.3-0.4,0.5-2.8,0.1
	c4.9,1.5-0.3,0.4,1.1,1.9c1.5-0.5,1.7,2.9,0.3,0.7c-0.6,1.5-0.6,0.2-1.4-0.2c-0.9,0.2-1.2,0.7-0.5-0.9c-4.7,7-14.8,6.7-18.4,13.9
	c0.6-1.7-2.8,0.7-2.6-0.9c-6.3,8.3-14.1,14.4-19.2,24.5c1.2,0.8,1.8,3.7-0.2,4.1c-0.5-0.2,0,9.4-0.9,4.1c-0.7,5.1-0.4,8.6-0.6,13.5
	c0-4.4,0-3.4,0-7.8c-0.1,2.1-0.3,0.2-0.2,4.3c1.9-7.3-7-14.6-2.7-13.4c-1.3-1.4-0.8-2.9,0.3-0.7c-1.5-4.5-5.9-9.2-9-12.9
	c-4-0.1,1-5.9-11-12c2.1,3.5-3.8-2.1-2.3-2.7c-2.7-0.5-7.3-3.6-1.5-1.3c-4.5-2.5-7.9-8-10.2-4.2c-2.1-0.4-9-5.5-7.9-2.8
	c-6.3-4.5-34.2-10.9-32-1.1c19.8,12.1,49.1,15,57.5,40.9c11.3,17.8,2,42.4,27,28.1c0.6,1.8,2.8-0.9,2.1-2.4l0.1,1.4
	c0.2-32.4,26-52.6,49.6-64.9l-1.3,0.9c3.3-2,16.6-4.5,5.5-4.2c2.2-1.1,5,0.1,6-2C1205.5,1457.6,1222.4,1453.5,1219.4,1452z"/>
<path class="st0" d="M1623.6,730.6c-10.1-16.2-41.3-11.3-48.5-32.1c-8.2-6-13.2-17.4-18-29c-1.4-13.6,0.8-23.2-15.9-20.1
	c2.4,68.3-112.1,81.4-48.5,82.7c13.6-0.8,30.9-19.1,36.8-21.7c25.8-27.3,11.4-38.3,32-1.7c2.2,6.4,32.7,22,25.2,19.5
	c-2.5,2,2.6,2.5,4.1,2.2c2.4-2.1-1.4,2,2.2,0.4c-4.9,1.4,2.6,0.2,4.1,0.3c-1.4,0.8-3.8,0.6-5.3,0.9c6.6,0.3-0.3,0.5-2.8,0.1
	c0.6,0.2,2.9,0.6,2.4,1.2c-0.8,0.1-2.2-0.9-1.3,0.7c1.5-0.5,1.7,2.9,0.3,0.7c-0.9,2-0.9-1.4-2.5,0.3c0.1-0.2,0.8-1.6,0.5-1.3
	c-4.8,6.9-14.7,6.6-18.3,13.8c0.6-1.7-2.8,0.7-2.6-0.9c-6.3,8.3-14.1,14.4-19.2,24.5c1.2,0.8,1.8,3.7-0.2,4.1
	c-0.5-0.2,0,9.4-0.9,4.1c-0.7,5.1-0.4,8.6-0.6,13.5c0-4.4,0-3.4,0-7.8c-0.1,2.1-0.3,0.2-0.2,4.3c1.9-7.3-7-14.6-2.7-13.4
	c-1.3-1.4-0.8-2.9,0.3-0.7c-1.5-4.5-5.9-9.2-9-12.9c-4-0.1,1-5.9-11-12c2.1,3.5-3.8-2.1-2.3-2.7c-2.7-0.5-7.3-3.6-1.5-1.3
	c-5.1-4.1-48.8-22-50.1-8.1c19.8,12.1,49.1,14.9,57.5,40.8c11.3,17.8,2,42.4,27,28.1c0.6,1.8,2.8-0.9,2.1-2.4l0.1,1.5
	c0.2-32.4,26-52.6,49.6-64.9l-1.3,0.9c3.3-2,16.6-4.5,5.5-4.2c2.2-1.1,5,0.1,6-2C1610.5,735.6,1622.5,732.3,1623.6,730.6z"/>
<path class="st0" d="M1540.9,1302.6c-1.7-1.5-2.6-3.7-3.7-5.7c-5.5-0.7-10.8-2.7-15.9-4.5c-5.7-3.1-14.4-7-16.1-13.5
	c0.8-1.1-3.9-1.6-3.2-2.7c-0.8-0.1-2.4-2-1.1-1.7c-7.3-9.9-10.5-19.6-11-33c-25.5-2.4,3.3,9.8-31.2,42.2
	c-7.1,9.6-57.9,20.5-15.7,20.4l-0.2,0.4c8.2-1.7,12.9-6.2,19.3-10.2v0.2c2.2-3.4,7.2-4.4,9-8.1c0,0.2,0.2,0.5-0.1,0.9
	c5.7-6.4,11.6-12.7,13.3-21.5c0.9,3.9,4.7,7.9,5.2,11.2c-0.4,1.2,2.8,3,2.4,5.1c1.1,1.6,1.9,0.3,2.9,2.2c-0.6,0.3,1.4,2.4,0.1,1.8
	c4.9,5.1,11.2,11.1,17.9,12.8c-0.1,0.5,5.6,3.2,1.9,2.5c-0.3-0.1-0.8-0.3-0.7-0.5c-1.5,0.5,0.7,1.6,1.3,2.1c0.5-0.1,1.5-0.5,1.9-0.3
	c-0.2-0.6,0.8-0.5,1.2-0.1c-0.4,0.1-0.7,0.2-1,0.3c0.4,0.7,1.1,0.1,1.6,0.1c-3.6,1.1,1.9,0.2,3.1,0.2c-1,0.6-2.8,0.4-4,0.6
	c2.2,0.1,1.9,0.1,2,0.2l-1.7-0.1c1.2,0.6-3.1-0.3-2.3,0c0.5,0.2,1.1,0.2,1.6,0.4c1,1.1-2-0.7-0.9,0.9c1.1-0.4,1.2,2.3,0.3,0.6
	c-0.5,1.4-0.9-1-2,0.4l0.6-1.4c-3.7,5.4-11.4,5.2-14.2,10.7c0.4-1.3-2.1,0.5-2-0.6c-0.6,1.6-3.3,4.9-5,5.6l0.2-0.3
	c-4.9,3.9-6,8.9-9.8,13.5c0.9,0.2-1,2.6,0.4,2.5c-0.7,2.1-1.6,3.7-2.6,5.5c-1.1-1.5-3-5.6,0.1-1.9c-1.6-2.3-2.1-5.1,0.2-0.6
	c-1.3-4.7-5.7-9.8-8.5-12.8c-3-0.5,0.1-1.9-2.1-3.9c-1-2.1-4.3-3.9-6.1-5.1c1.6,2.7-3-1.5-1.8-2c-1.8-0.1-5.9-2.9-1.2-0.9
	c-3.9-3-1.9-1.5-6.1-4.2c-2.6-0.9-0.1,1-1.6,1c-2.1-1.2-4.3-1.6-6.2-3.3c0.1,0.4,0.2,0.8,0.3,1.1c-5-3.1-25.1-8.6-24.3-0.9
	c10.6,7.5,24.4,8.7,33.7,17.3c10.3,10.3,16,25.1,18.1,39.8c17.1,0.1,11.7,2.2,15.2-12c-0.2-1.3,0.6-2.9,0.7-4
	c0.3,0.5,0.6-1.7,0.7-1.7l0.2,0.4c0.4-2.7,1.6-5.3,3-7.3l-0.9-0.2c3.1-3.1,3.6-7.6,7.5-9.4c2.7-6.3,8.1-5.6,12-10.9
	c0.7,1.2,5.8-3,4.9-4.6c1-0.6,2.5-1.3,3.6-0.5c0-1.5,3.3-2.5,4.9-3.3l-1,0.7c2.6-1.6,12.4-3.3,4.2-3.3c1.9-0.4,7-1.2,2.8-1.9
	C1536.2,1305.8,1544,1304.3,1540.9,1302.6z"/>
<path class="st0" d="M892,364.4c-4.7-11.1-20.6-5.4-24-17.9c-6.3-2.7-6.8-14.2-10.5-20.2c-2.8-0.1-5.3-2.3-6-4.9
	c-3.7,7.8-11.9,20.1-18.9,28.7c-3.4,5.5-33.5,12-16.1,16.4c-21.4,5,19.1,11.4,20,20.6c9.3,15,0.8,25.6,19.8,19.7
	c6.1-4.7,2.5-17,10.5-20.9c1.8-4.6,7.2-5.5,10.2-8.4c3.8-1.4,2.7-5.8,6.9-3.9c-0.9-0.5,1.2-1.5,3.2-2.3c-0.6,1.5,3.8-3.5-0.8-2.2
	c1.5-0.7,4.3-1,1.6-1.3C889,366.8,894.7,366,892,364.4z M823,367.1c-0.2-0.1-0.1-0.1,0.1-0.1C823.1,367,823,367.1,823,367.1z
	 M875.1,365.6c-0.9,0.1-1.8,0.2-2.7,0.2c2.1,0,1.8,0.1,2,0.2l-1.6-0.1c1.6,0.4-3.4-0.2-2.1,0.1l-0.9-0.1c5.7,1.1,0.3,0.1,2.3,1.1
	c3,0.7-0.3,1.2-1.4-0.3c1.6,2.6-6.6,2.7-7,6.3c0.2-1-1.7,0.2-1.8-0.8c-4.2,6.4-10.3,8.6-9,17.8c-0.3,1.2-0.5-1.3-0.4-1.5
	c-0.5,3.7-0.2,4.7-0.4,8c1.4-5.5-3.7-9.2-1.6-9.4c-0.7-0.5-0.6-1.8,0.1-0.6c-0.5-2-2.6-3.9-4-5.2c-2.7,0.2,1.1-3.7-6.2-6.5
	c0.9,2.2-2.3-1.3-1.2-1.6c-1.3,0.3-4.8-1.9-0.9-0.7c-8-6.7-2.9,1.2-10.3-4.2c-12.3,2,13.5-9.2,15.5-14.1c0,0.2,0.2,0.5,0,0.8
	c3.5-4.7,7.5-6.1,6.9-11.4l0.1,0.5c-0.2-2.2,0.3-0.9,0.3-2.9c0,0.2,0.1,0.3,0.1,0.4c0-2.7,0.5-2.4,0.5-4.6v1.8
	c0.2-1.1,0-6.3,0.2-3.1c0,1.3,0,2.1,0.1,1.1c0.1-2.6,1.1-6.3,1-0.7c-0.4,6.6,1.4,12.8,5.9,16.8c-1.2,5.2,13.3,10.1,12.1,11.5
	c-2.3,2,1.7,0.2,2.5,0.6c-1.8,0.2-0.9,0.6,0.3,0.3C868.5,366.2,878.7,365,875.1,365.6z"/>
<path class="st0" d="M1353.2,444.3c1.8-0.8,3.2-1.7,4.4-3.6c0.1,1,1.4-0.4,2.1-0.8c3.8-1.4,2.7-5.8,6.9-3.9
	c-0.9-0.5,1.2-1.5,3.2-2.3l-0.5,0.5c1.5-0.2,1.5-1.8,2-2.8c-0.7,0.1-1.5,0.1-2.3,0.1c1.4-1,2.2,0,2.9-1.2l-1.3-0.1
	c4.7-2.8,6.6-0.8,2.6-5.3c-1.4-4.2-4.7-4.7-8.7-5.4c-2.3-0.6-4.7-1.9-6.8-2.9c-2.5-1.8-7.6-4.5-7-7.7c0.4-0.5-0.3-0.6-1.1-0.8
	c-1.2-0.2-3.3-1.6-2-2c-2-2.5-3.1-6.6-4.7-9.8c-1.1-2.1-0.7-6.7-2.7-7.6c-2.8-0.1-5.3-2.3-6.1-4.9c-2.1,8.5-5.5,3.9-9.1,16.3
	c-2.2,4.8-7.6,7.9-9.8,12.4c-3.4,5.5-33.5,12-16.1,16.4c-21.4,5,19.2,11.5,20.1,20.6c1.7,3.6,3.7,7.2,5,11
	c1.2,8.9,0.7,10.5,9.8,10.7c0.2-0.7,0.3-0.6,0.7-1.4c0.1,0.1,0.1,0.2,0.2,0.4c0.1-0.5,0.9-1.2,0.9-0.3c0.6-0.8,1.2-0.8,1.9-1.2
	c-0.3,0.7,1.2-0.2,1.4-0.1l-0.1,0.6c3.8-1.3,2.6-5.9,3.9-9.2c0-1,1.2-2,0-2.6c2.7-3,3.1-7.7,6.6-9.1
	C1349.8,446.4,1351.5,445,1353.2,444.3z M1305.6,429.5l-0.1-0.1c0.1,0,0.1,0,0.2,0L1305.6,429.5z M1349.9,431.9
	c-0.5,0.1-3.8,2.5-3.6,3.5c0.2-1-1.7,0.2-1.8-0.8c-0.3,1.4-2.1,3.7-3.6,4.3l0.1-0.2c-2.8,1.6-3.6,5.1-5.4,7c1.8,3.8-1.1,1.4-0.1,6.7
	c-0.3,1.2-0.5-1.3-0.4-1.5c-0.5,3.7-0.2,4.7-0.4,8c0.2-3.2-0.4-3.6-0.2-6.5c-0.4-0.8-3.8-2.3-1.4-2.9c-0.7-0.5-0.6-1.8,0.1-0.6
	c0.2-1.8-1.4-1.6-2-2.9c-0.5-1-1.1-1.9-2-2.3c-2.7,0.2,1.1-3.7-6.2-6.5c0.7,2.2-1.2-0.8-1.6-1l0.4-0.6c-1.3,0.3-4.8-1.9-0.9-0.7
	c-8-6.7-2.9,1.2-10.3-4.2c0.4,2.3-4.3-0.7-4.9-1c6-0.8,9.6-5.5,13.9-7.2c1.4-2.8,5.4-3,6.5-5.9c0,0.2,0.2,0.5,0,0.8
	c2.2-3.1,5.7-5.5,6.4-7.6c0.5-1,0.5-2.4,0.5-3.8l0.1,0.5c-0.2-2.2,0.3-0.9,0.3-2.9c0,0.2,0.1,0.3,0.1,0.4c0-2.7,0.5-2.4,0.5-4.6v1.8
	c0.2-1.1,0-6.3,0.2-3.1c0,1.3,0,2.1,0.1,1.1c0.1,0.8,0.4-7,1-2.9c0.4-0.7-0.4,2.6,0,2.2c-0.7,2.4,0.5,4.9,0.3,7.2
	c0.7-0.3,0.7,1.3,0.8,1.9c0,1.1,2,0.9,0.9,2.2c-0.6,1,2.2,2.3,1.6,4c0.8,1.2,1.6,0,2.3,1.5c-0.5,0.3,0.9,1.9-0.1,1.6
	c3.2,3.5,7.9,8.5,12.5,8.8c-0.2,0.5,1.4,0.9-0.3,1.3c-0.1,0-0.2,0,0-0.2c-2.3,2,1.7,0.2,2.5,0.6c-1.8,0.2-0.9,0.6,0.3,0.3
	c-3.7,0.8,1.4,0.1,2.7,0.1c-1,0.3-2.6,0.3-3.8,0.4c2.1,0,1.8,0.1,2,0.2l-1.6-0.1c1.6,0.4-3.4-0.2-2.1,0.1l-0.9-0.1
	c5.7,1.1,0.3,0.1,2.3,1.1c0.6-0.3,2.4,1.6,0.5,0.4c0,0.7-1.6-0.3-1.9-0.7c0.3,0.3,0.5,0.7,0.6,1.2c-0.3-0.1-0.5-0.1-0.6,0
	C1352.6,430.5,1350.7,432.3,1349.9,431.9z"/>
<path class="st0" d="M1074.5,258.5c1.4-0.2,1.5-2.3-0.4-2.9c2.4-0.1-0.1-1.4,1.2-1.4c-1.8-0.8,1.5-1.6-0.1-2.4c0.2,0,0.8,0,0.9,0.2
	c-0.6-1.5,1.9-3.9-1.4-5.5l0.4,0.1c-1.4-0.5-0.2-0.6-0.9-1.2c0.2,0,0.3-0.1,0.3-0.1c-1.4-0.5-0.2-1.6-0.8-2c1.1,0.2,0.9-0.3,0.7-1.1
	l-0.2,0.4c-2.4-0.1,1.5-0.8-0.1-1.6c0.3-0.7-5.1-1.5-3.9-2.2c-1.1-0.4,1.9,0.3,1-0.2c1.3,0,0.8,0.2,1.8,0.1
	c-0.6-0.5,1.3-0.9,0.4-1.5h1c-1.8-0.8,1.3-1.6-0.4-2.1c-0.8-0.9,3-0.6,1-1.5l1.3-0.4c0.2-0.4-1.6-0.3-1-0.7c4.3-0.5-0.7-1.9,1.9-3.5
	c0.8,0.1,1.1,1.1,1,1.8c0.1,1.7,0.9-2.5,1-1l0.4-0.8c0.3,0.6,0,1.7,0.7,0.3c0.5,2.8,2.6,0,4.2,0.3c1.7,2.2,4.8,0.2,6.6-1
	c2.6-2.6,5.5,4.3,8.1,1.3c0.1,0.2,0.3-0.3,0.3-0.5c0,0,2.4,0.2,2.4,0.2s11.6,0.7,2.8-13.6c-0.2-1.4-2.3-1.5-2.9,0.4
	c-0.1-2.4-1.4,0.1-1.4-1.2c-0.8,1.8-1.6-1.5-2.4,0.1c0-0.2,0-0.8,0.2-0.9c-1.5,0.6-3.9-1.9-5.5,1.4l0.1-0.4
	c-0.5,1.4-0.6,0.2-1.2,0.9c0-0.2-0.1-0.3-0.1-0.3c-0.5,1.4-1.6,0.2-2,0.8c0.2-1.1-0.3-0.9-1.1-0.7l0.4,0.2c-0.1,2.4-0.8-1.5-1.6,0.1
	c-0.7-0.3-1.5,5.1-2.2,3.9c-0.4,1.1,0.3-1.9-0.2-1c0-1.3,0.2-0.8,0.1-1.8c-0.5,0.6-0.9-1.3-1.5-0.4v-1c-0.8,1.8-1.6-1.3-2.1,0.4
	c-0.9,0.8-0.6-3-1.5-1l-0.4-1.3c-0.4-0.2-0.3,1.6-0.7,1c-0.3-2.2-0.8-1.5-2.5-1.9c0.9,0.2,1.3-0.4,2.4-0.2c-1.1-0.2-1.9-1.5-0.7-1.4
	c1.1-1.2-1.6-2.1-0.2-3.2c-1.2,0.1-0.5-0.5-2-0.4c-1.5-1.2,3-2.1-1.6-2.5c-0.2-0.4,1.3-0.9,1.5-0.8c-0.4-1-0.4-1.3-0.3-2
	c-0.4-0.4-2.6-0.4-2.1-1.1c0.8,0.2,0.7-0.1,0.7-0.3c0.1,0.2,0.4,0.2,1-0.1c-0.3,0-0.4-0.1-0.6-0.2c0.1,0,0.1,0,0.2,0
	c-0.5-0.6-0.6,0-1.2,0c2.2-1.5,0.5-2.6-1-4.3c0.7-0.1,1.4,0.1,1.7,0.4l-0.3-0.7c1.1,0,0.6,0.4,0.8,0.6c1.7-0.9-1.7-1.8-0.1-2.8
	l-0.8-0.2l0.1-0.1c-0.4,0-1.1-0.2-1.2-0.4c3.4,0.3,2.5-2.1,0.1-2c0-0.2,0.9-0.4,0.5-0.6h1.3c-1.2,0.1-1.3-0.7-1.8-0.7
	c1.6,0.3,1.6,0.7,1.3-1.1c-0.9-0.3-3.7,0.2-2.7-1.7c-1.5,0.7-2.5-1.1-0.7-1.8c-13-7.9-15.3-0.1-10.8,5.7c-2.7,4.3-2.5,9,0.1,12.9
	l-1,0.3c0.7,0.4,0.7,0.9,0,0.8c0.7,0.4,0.3,0.8,0.7,1c-0.5-0.1-0.2,0.3-0.2,0.5l-0.4-0.1c0.8,0.7,0.8,1.3,0.5,1.9h1.2
	c-1.3,1.2,1.4,2.4-0.7,2.9c2.5,1.6-0.1,1.1-0.4,2.7c0.2-0.9-0.4-1.3-0.2-2.4c-0.2,1.1-1.5,1.9-1.4,0.7c-1.2-1.1-2.1,1.6-3.2,0.2
	c0.1,1.2-0.5,0.5-0.4,2c-1.2,1.5-2.1-3-2.5,1.6c-0.4,0.2-0.9-1.3-0.8-1.5c-1,0.4-1.3,0.4-2,0.3c-0.4,0.4-0.4,2.6-1.1,2.1
	c0.2-0.8-0.1-0.7-0.3-0.7c0.2-0.1,0.2-0.4-0.1-1c0,0.3-0.1,0.4-0.2,0.6c0-0.1,0-0.1,0-0.2c-0.6,0.5,0,0.6,0,1.2
	c-1.5-2.2-2.6-0.5-4.3,1c-0.1-0.7,0.1-1.4,0.4-1.7l-0.7,0.3c0-1.1,0.4-0.6,0.6-0.8c-0.9-1.7-1.8,1.7-2.8,0.1l-0.2,0.8l-0.1-0.1
	c0,0.4-0.2,1.1-0.4,1.2c0.3-3.4-2.1-2.5-2-0.1c-0.2,0-0.4-0.9-0.6-0.5v-1.3c0.1,1.2-0.7,1.3-0.7,1.8c0.3-1.6,0.7-1.6-1.1-1.3
	c-0.3,0.9,0.2,3.7-1.7,2.7c0.7,1.5-1.1,2.5-1.8,0.7c-7.9,13-0.2,15.3,5.7,10.8c4.3,2.7,9,2.5,12.9-0.1l0.3,1c0.4-0.7,0.9-0.7,0.8,0
	c0.4-0.7,0.8-0.3,1-0.7c-0.1,0.5,0.3,0.2,0.5,0.2l-0.1,0.4c0.7-0.8,1.3-0.8,1.9-0.5v-1.2c1.2,1.3,2.4-1.4,2.9,0.7
	c1.5-3.1,2.3,2.1,3.8-0.8c0.2,1.2-0.4,2.4-1.9,2.2c-1.7,0.1,2.5,0.9,1,1l0.8,0.4c-0.6,0.3-1.7,0-0.3,0.7c-2.8,0.5,0,2.6-0.3,4.2
	c-2.2,1.7-0.2,4.8,1,6.6c2.6,2.6-4.3,5.5-1.3,8.1C1062.1,255.2,1057.7,267.6,1074.5,258.5z M1076.4,228.7c0.2,0.1,0.5,0.1,0.7,0.2
	C1076.8,228.9,1076.6,228.8,1076.4,228.7z"/>
<path class="st0" d="M584.8,476.7c-0.9-0.9-2.6,0.1-2.5,1.6c-0.9-1.6-1.2,0.6-1.6-0.1c-0.1,1.5-2-0.2-2.1,1.2c0-0.1-0.2-0.6-0.1-0.7
	c-1.2,1.1-4.1,0.6-4.4,3.4l-0.1-0.3c0.1,1.2-0.5,0.4-0.7,1.2c-0.1-0.1-0.2-0.1-0.2-0.2c0,1.2-1.3,0.9-1.5,1.5
	c-0.2-1-0.8-0.1-0.8-0.1c0.7,1.7-1.2-0.7-1.4,0.8c-0.7,0.1-1,2.2-1.1,3c-0.5-0.8-0.1-0.6-0.5-1.3c-0.3,0.6-1.2-0.5-1.5,0.4l-0.4-0.6
	c-0.1,1.6-1.9-0.1-1.8,1.3c-0.5,0.9-1.5-1.7-1.7,0l-0.8-0.7c-0.4,0,0.3,1.2-0.3,1c-1.7-2.5-1.5,1.2-3.8,0.4c0.2,0.7,0,1.1-0.4,1.1
	c0.5-0.8-0.8-1.1,0-1.7c0,0-0.1-1.2-1.2-0.9c0.7-0.1,0.7-0.8,1.5-1c-0.8,0.2-1.9-0.5-1.1-1c0.2-1.5-2-1.3-1.6-2.8
	c-4.9,1,0.7-2.6-3.7-1.4c-0.4-0.4,0.4-1.2,0.7-1.2c-1.5-2.5-1.5-1.1-3-1.9c0.7-0.1,0.4-0.3,0.3-0.5c0.2,0.1,0.4,0,0.6-0.5
	c-0.6,0.1-0.6-0.6-1.2,0.2c1.6-2.2-4.9-3.9-1.4-3.7l-0.5-0.5c0.7-0.4,0.6,0.2,0.8,0.3c0.8-1.4-2-1-1.4-2.4c-0.1,0-0.6,0.3-0.5-0.1
	c0,0.1-0.1,0.3-0.2,0.2l0.1-0.1c-0.3,0.2-0.8,0.2-1,0.1c1.8-0.8,1.6-1.9-0.2-2.3c-1,1.2-0.4-0.8,0.3-0.8c-0.7,0.5-1.2-0.1-1.5,0
	c1.5-0.2,1.2,0,0.4-1.4c-0.9,0.2-2.6,1.4-2.5-0.5l-0.7,0.5c-4.2-6.2-10.8-0.2-9.6,1.2c-0.7,3.4,2.1,3.5,4.1,5.9
	c0.3,4.7,2.4,8.7,6.1,11.3l-0.5,0.6c0.5,0,1,0.5,0.4,0.7c0.7,0.1,0.6,0.6,0.9,0.7c-0.6,0.1,0.5,0.5-0.2,0.6c0.8,0.3,1.9,1.2,1.9,1.2
	c-0.4,1.5,2,1.5,0.9,2.8c2.7,0.2-0.3,2.8,2.3,3.1c-0.4,0.1-2.5-0.1-2.5,2c-0.1-0.7-1.5,0.4-2-0.4c-1.5-0.2-1.3,2-2.8,1.6
	c1,4.9-2.6-0.7-1.4,3.7c-0.4,0.4-1.2-0.4-1.2-0.7c-2.5,1.5-1.1,1.5-1.9,3c-0.1-0.7-4.8,1.6-4.7,1.4c-1.4-0.8-1,2-2.4,1.4
	c0,0.1,0.2,1.4,0.1,1.6c-0.8-1.8-1.9-1.6-2.3,0.2c1.2,1-0.9,0.9-0.8,1.2c-0.2-1.5,0-1.2-1.4-0.4c0.2,0.9,1.4,2.6-0.5,2.5
	c0,0,0.5,0.7,0.5,0.7c-6.2,4.2,4.7,7.5,7.1,5.5c4.7-0.3,8.7-2.4,11.3-6.1l0.6,0.5c0-0.5,0.5-1,0.7-0.4c0.1-0.7,0.6-0.6,0.7-0.9
	c0.1,0.6,0.5-0.5,0.6,0.2c0.3-0.8,0.9-1.2,1.6-1.2l-0.4-0.7c1.5,0.4,1.5-2,2.8-0.9c0.2-2.7,2.8,0.3,3.1-2.3c0.4,1.3,1.6-0.3,0.9-1.6
	c4.9,5.6-0.8,4.7,2.4,5.7l0.7,0.1c-0.5,0.6-1,0.7,0.2,0.8c-1.6,1.7,1.4,2.3,1.8,3.8c-0.7,2.2,2.1,4.3,3.7,5.5
	c2.9,1.4-0.3,6.4,2.9,7.7c0.5-0.1,1.2,1.7,1.4,2.3c3.7,10.5,14.5-3.3,8.7-4.7c1.6-0.9-0.6-1.2,0.1-1.6c-1.5-0.1,0.2-2-1.2-2.1
	c0.1,0,0.6-0.2,0.7-0.1c-1.1-1.2-0.6-4.1-3.4-4.4l0.3-0.1c-1.2,0.1-0.4-0.5-1.2-0.7c0.1-0.1,0.1-0.2,0.2-0.2c-1.2,0-0.9-1.3-1.5-1.5
	c1-0.2,0.3-0.7,0-1.2c0,0,0.8-0.8-0.7-1c-0.1-0.7-4.1,0.5-3.6-0.6c-0.9,0.1,1.2-0.6,1.9-1c-0.6-0.3,0.5-1.2-0.4-1.5l0.6-0.4
	c-1.6-0.1,0.1-1.9-1.3-1.8c-0.9-0.5,1.7-1.5,0-1.7l0.7-0.8c0-0.4-1.2,0.3-1-0.3c2.5-1.7-1.2-1.5-0.4-3.8c-1.2,0.3-0.9-0.6-1.8-0.3
	c0.3-0.2,3.3-3.4,4.4-1.5c0.6,1.1-0.1-2.1,0.5-1.1l0.1-0.7c0.6,0.5,0.7,1,0.8-0.2c1.7,1.6,2.3-1.4,3.8-1.8c2.2,0.7,4.3-2.1,5.5-3.7
	c1.4-2.9,6.4,0.3,7.7-2.9C585.7,486.6,598.8,483.7,584.8,476.7z"/>
<path class="st0" d="M263.2,1464.6c-0.9-1.3-3-0.6-3,1.4c-0.9-2.3-1.5,0.5-1.8-0.7c-0.3,2-2.2-0.8-2.5,0.9c0-0.2-0.2-0.8,0-0.9
	c-1.4,1.1-4.7-0.5-5.3,3.2l-0.1-0.4c-0.1,1.5-0.6,0.4-0.9,1.3c-0.1-0.2-0.2-0.2-0.2-0.3c-0.1,1.5-1.6,0.7-1.8,1.5
	c-0.2-1.1-0.6-0.6-1.3-0.2h0.5c0.6,2.4-1.3-1.2-1.6,0.6c-0.9-0.1,0,5.3-1.1,4.4c0,1.2-0.2-1.9-0.5-0.9c-0.4-1.2,0-0.8-0.4-1.8
	c-0.4,0.8-1.3-1-1.7,0.1l-0.3-0.9c-0.3,2-2.1-0.7-2.1,1.1c-0.7,1.1-1.5-2.6-1.9-0.5l-0.8-1.2c-0.5-0.1,0.2,1.7-0.4,1.2
	c-1.3-2.6-1.6-0.8-3.3,0c0-0.3,0-1.2-1.2-1.1c1-0.1,1.1-0.8,2.2-0.9c-1.2,0.1-2.3-0.8-1.1-1.3c0.7-1.6-2.2-1.8-1.3-3.3
	c-1.1,0.4-0.7-0.4-2,0.2c-1.8-0.8,2.2-3.1-2.3-2.2c-0.3-0.5,0.9-1.4,1.2-1.2c-1.2-3.2-2.2-1.2-3.3-2.5c0.9,0,0.6-0.3,0.6-0.5
	c0.2,0.1,0.5,0.1,0.9-0.4c-0.3,0-0.4,0-0.6,0c0.1,0,0.1-0.1,0.2-0.1c-0.7-0.5-0.6,0.2-1.2,0.3c2.7-2.8-5.4-4.6-0.6-4.3l-0.5-0.7
	c1-0.3,0.7,0.2,1,0.4c1.4-1.4-2.2-1.3-1.1-2.9h-0.9l0.1-0.1c-0.4,0.1-1.1,0.1-1.3,0c0.4-0.2,0.9-0.4,1.3-0.5l-0.1,0.1
	c1.4-0.8,0.6-1.7-0.9-2.2c-1.3,1-0.6,0-0.6-0.4l0.8-0.3c-0.8,0.2-1.1-0.4-1.6-0.3c1.6-0.2,1.8,0.3,0.9-1.5c-1-0.1-3.5,1.3-3-0.9
	c-1.3,1.1-2.7-0.6-1.3-1.7c-15-4.3-14.6,4.3-8.5,8.8c-0.9,5.2,0.5,10.2,4.4,13.3l-0.8,0.6c0.7,0,1.1,0.7,0.3,0.9
	c0.8,0.2,0.6,0.8,1,0.8c-0.5,0.1-0.1,0.3,0,0.5H213c1,0.5,1.2,1.2,1.1,1.9l1.1-0.4c-0.9,1.5,2.1,2.1,0.3,3.3c3,0.9,0.1,2.7,0.3,4.3
	c-0.1-1-0.8-1.1-0.9-2.2c0.1,1.2-0.8,2.3-1.3,1.1c-1.6-0.7-1.8,2.2-3.3,1.3c0.4,1.1-0.4,0.7,0.2,2c-0.8,1.8-3.1-2.2-2.2,2.3
	c-0.5,0.3-1.4-0.9-1.2-1.2c-3.2,1.2-1.2,2.2-2.5,3.3c0-0.9-0.3-0.6-0.5-0.6c0.1-0.2,0.1-0.5-0.4-0.9c0,0.3,0,0.4,0,0.6
	c0-0.1-0.1-0.1-0.1-0.2c-0.5,0.7,0.2,0.6,0.3,1.2c-2.8-2.7-4.6,5.4-4.3,0.6l-0.7,0.5c-0.3-1,0.2-0.7,0.4-1c-1.4-1.4-1.3,2.2-2.9,1.1
	v0.9l-0.1-0.1c0.1,0.4,0.1,1.1,0,1.3c-0.2-0.5-0.4-1.2-0.7-1.6l0.4,0.4c-1.2-1.9-2.7,0.3-1.9,1.8c-0.3,0.1-0.7-0.7-0.8-0.3l-0.3-0.8
	c0.2,0.8-0.4,1.1-0.3,1.6c-0.2-1.6,0.3-1.8-1.5-0.9c-0.1,1,1.3,3.5-0.9,3c1.1,1.3-0.6,2.7-1.7,1.3c-4.3,14.9,4.4,14.6,8.8,8.5
	c5.2,0.9,10.2-0.5,13.3-4.4l0.6,0.8c0-0.7,0.7-1.1,0.9-0.3c0.2-0.8,0.8-0.6,0.8-1c0.1,0.5,0.3,0.1,0.5,0v0.4c0.5-1,1.2-1.2,1.9-1.1
	l-0.4-1.1c1.5,0.9,2.1-2.1,3.3-0.3c0.6-3.4,3.1,1.2,3.8-2.1c-0.1,0.4,0.3,0.5,0.3,0.8c0.3-0.3,0.7-0.6,0.9-1.1
	c0.4,1.1,0.5,3.3-1.2,3.6c-1.6,0.6,2.7,0.1,1.2,0.7l0.9,0.1c-0.6,0.5-1.5,0.8,0,0.9c-2.6,1.4,1.1,2.7,1.2,4.5
	c-1.5,2.4,1.5,5.1,3.2,6.7c3.3,1.9-2.2,7.1,1.5,8.9c0.8,0.2,1,1.9,1.2,2.8c1.9,12.3,19.5-2.1,12.4-4.2c2.3-0.9-0.5-1.5,0.7-1.8
	c-2-0.3,0.8-2.2-0.9-2.5c0.2,0,0.8-0.2,0.9,0c-1.1-1.4,0.5-4.7-3.2-5.3l0.4-0.1c-1.5-0.1-0.4-0.6-1.3-0.9c0.2-0.1,0.2-0.2,0.3-0.2
	c-1.5-0.1-0.7-1.6-1.5-1.8c1.1-0.2,0.6-0.6,0.2-1.3v0.5c-2.4,0.6,1.2-1.3-0.6-1.6c0.1-0.9-5.3,0-4.4-1.1c-1.2,0,1.9-0.2,0.9-0.5
	c1.2-0.4,0.8,0,1.8-0.4c-0.8-0.4,1-1.3-0.1-1.7l0.9-0.3c-2-0.3,0.7-2.1-1.1-2.1c-1.1-0.7,2.6-1.5,0.5-1.9l1.2-0.8
	c0.1-0.5-1.7,0.2-1.2-0.4c3.8-1.8-1.3-1.8,0.5-4.3c-1.6,0.2-1-0.7-2.1-0.6c1.2-0.6,3.8-1.1,4.2,0.9c0.6,1.6,0.1-2.7,0.7-1.2l0.1-0.9
	c0.5,0.6,0.8,1.5,0.9,0c1.4,2.6,2.7-1.1,4.5-1.2c2.4,1.5,5.1-1.5,6.7-3.2c1.9-3.3,7.1,2.2,8.9-1.5c0.2-0.8,1.9-1,2.8-1.2
	C264.4,1478.4,276.8,1475.1,263.2,1464.6z"/>
<path class="st0" d="M783.1,1583.8c-1.4-2.4-6.7-0.6-6.7-3c-3.5-2-6.6-0.3-9.7-0.9c0.7-0.9-1.8-1.1-0.7-0.6
	c-0.6,1.7-0.6-1.3-1.7-0.4c-0.7-0.4-2.5,3.3-3.1,2.2c0.9-1.8-0.8-4.1-3.2-3.9c-1.1,0.3,0-2.3-1.4-1.2c-0.1-1.9-0.2-0.4-1-0.6
	c0.3-2.8-3.4-0.7-4.5-2.9c3-3.9,2.5-4.6,3.5-7.9c-4.1-1.9,2.2-2-1.7-3.8c3.6-1.6-0.7-3.8,1-4.4c0.7,0.9,1-1-0.2-0.5
	c2.6-0.4-0.8-6.7,1.6-4c-0.2-1.1,0.7-0.7,0.4,0c1.5-0.6-0.7-2.2,0.7-3c-2.9-1.2,3.4-1-0.5-3.1c1.3-0.9,1.2,0.2,0.3-1.4
	c1.3,0.8,0.9,1.1,1.3-0.8c-2.2-0.3-1.2-2.2-2.3-2.2c-4.7-21.4-14.1,8.6-12.5,15.7c-2.4,0.7,0.3,6.4-1.9,7.6c1.8,2.2-2.2,2.1-0.5,4.2
	c-0.2-0.3-0.5,0-0.7-0.1c0.3,3.7-0.1,2.7-0.8,1.2c0,0,0.5-0.8,0.5-0.8c-1.3,2.7-2.5-1.7-4,0.1c0.9-2.2-3-1.4-4.9-2.5
	c-1.9,4.1-2-2.2-3.8,1.7c-1.6-3.6-3.8,0.7-4.4-1c0.9-0.7-1-1-0.5,0.2c-0.4-2.6-6.7,0.8-4-1.6h-0.8c2.2-1.6-3-0.9-3.2,0.2
	c0.7-3.8-2.1-0.7-2.6-1.3c0.6-1.6-0.3,0.1-0.9,0.2c0.8-1.3,1.1-0.9-0.8-1.3c-0.6,0.8-0.8,2.7-2.2,1.4c-5.5,0.7-9.5,6.8-6,8.6
	c6.1,2.7,16,4,21.8,5.6c1.7-0.2,2.4,0.2,4.4,0.7c-0.3-0.9,3.1-0.7,3.1,0.4c0.6-1.1,4.3,1.2,4.1,1.2c1.1,0.8,2.8-3.1,2.3-0.3
	c0.9-1.3,0,5.9-2.3,4.8c-1.3-0.3,1.6,1.4,0.4,1.2c-0.1,1.6-3.8,8.1-2.5,12.9c1.2,3.2-5.5,5.7-3,8.8c-7.2,14.8,11.9,10.3,8.7,4.8
	c1.5,0.6,1.2-4.6,2.4-3.4c1.6-2.4,0.6-5.9,0.9-7.4c-1.3-1.3,1.9-3.4,0.6-3c-1.7-0.6,1.3-0.6,0.4-1.7c0-1.1-4.6-3.8-1.4-3.1
	c1.6,1.2,3.4-1.9,3.1-3.2c-0.3-1.1,2.3,0,1.2-1.4c1.9,0,0.5-0.3,0.6-1c2.2,0.4,2.3-4,1.3-5c0.7-0.7,5-0.5,4.8,2
	c-0.2,0.8,1.7-1.1,1.7-0.9c0.1,1.7,2.7,1.5,5.1,1.8C765,1588.2,792.1,1602.3,783.1,1583.8z M751.4,1573c1.8,1.1-2.8,0.2-0.8,0.7
	C749.9,1572.5,751.3,1574,751.4,1573z"/>
<path class="st0" d="M1433.4,996.7c0.3-2.3-6.7-1.4-6.2-4.1c-4.8-3.5-7,0.6-10.3-1.9c-1,2.2-0.3-1.8-1.6-0.6
	c-0.6-0.6-3.4,4.1-3.7,2.7c-0.3,0.3,0.6-2,0.9-2.6c-0.6-0.2-1.5-1.3-1.1-1.9c-1.5,1.4-1.1-1.9-2.4-0.5c-1.2,0.4,0.5-3-1.2-1.5
	l0.1-1.4c-1.1,0.9-1.3,0.7-0.9-0.9c0-1.2-3.9,0.3-2.7-1.2c1-1-0.6-2,2.1-1.1c-1-0.7-1.2-2.1,0-1.7c1.6-0.9-0.6-2.7,1.1-3.4
	c-5.4-3.3,2.9-1.4-2.1-4.3c0-0.5,1.5-0.5,1.8-0.2c1.4-3.6-2.5-3-0.2-4.2c1,1.1,1.2-0.8-0.3-0.5c2.7-0.7,1.4-2.7,0.8-4.9
	c1.5,1.1,2.1-0.2,1.9,1.3c2-0.2-0.9-2.5,1-2.9c-0.6-0.5-1-0.8-1.5-1.3c4.8,1.6,0.7-2,1.6-2.4c2.1,0.9,0-0.2-0.2-1
	c1.4,0.9,1.1,1.3,1.6-0.6c-0.7-0.6-3.6-1.3-1.8-2.6c-2.5-10.7-15.4-12.7-11.9-0.2c-6.5,4.2-4.2,13.5-7,15.4
	c-0.1,1.8,1.1,4.8-1.2,5.3c1.8,2.5-4.2,4.9-2,1.3c-0.7,1-2.1,1.2-1.7,0c-0.9-1.6-2.7,0.6-3.4-1.1c-3.5,5.4-1.3-2.9-4.3,2.1
	c-0.6-3.5-2.7-1.6-4.3-0.8c0.8-1.5-0.6-2.4-0.6-0.5c0-3.7-7,0.8-3.8-2.2c-1.4,0.2-0.3-0.9,0.2-0.5c0.1-1.2-3.6-0.5-3.4-0.3
	c0-0.4-0.6,0.9-0.8,0.8c1.5-3-1.2-3.2-2-0.9c-0.8-2,0.8-1.8-1.4-0.5c0.9-1.4,1.3-1.1-0.6-1.6c-0.6,0.7-1.3,3.6-2.6,1.8
	c-10.7,2.4-12.7,15.4-0.2,11.9c5.6,7,13.4,4.4,17.6,7.4c-0.2-1.2,3.3-0.7,3.1,0.8c2-1.7,2.9,2.3,4.7,1.5c-0.5,1.1-1.5,2.5-2.9,1.7
	c-1.6-0.6,2,1.8,0.5,1.4c1.8,1.7-1.6-0.4,0,1.4c-2.1,0.3-4.6,8.5-3.7,11.4c-0.5,4.6-5.2,4-5.4,10.7c-4.3,13,14.6,9.1,14,3.6
	c-0.5-2.7,5.6-3.1,2.6-8.1c-0.1-0.2-0.1-2.5,0.2-3.6c1,1,1.2-1.4,0.7-0.6c-2.2-1,1.8-0.3,0.6-1.6c0.6-0.6-4.1-3.4-2.7-3.7
	c0.1-0.3,3.6,1.8,3.6-0.5c0,0,0.9,0.3,0.9,0.3c-1.4-1.5,1.9-1.1,0.5-2.4c-0.4-1.2,3,0.5,1.5-1.2l1.4,0.1c0.4-0.3-1.4-0.9-0.6-1.1
	c4.1,1,0.1-2.1,3.1-3c-2.8-2.5,3.6,0,1.9,2c-0.3,0.9,2-1.3,2.1-1.1c0.1,0.8-0.5,1.6,0.7,0.6c0.5,2.1,8.5,4.6,11.4,3.7
	C1420.4,1004.1,1436.5,1020.3,1433.4,996.7z"/>
<path class="st0" d="M719.4,223.7c-5.6,1.8-6.7,3.6-10.8,5.8c1.1,0.3-0.5,0-0.8,0.5c-0.6,0.4-0.2,3.1-1.1,1.8c0-1.3-1,0-1.5-0.6
	c-1.1,1.4-2.8,0.3-3.4,1.4c-1.2-1.6-3.4,2.8-3.9,1.2c-1.5-0.7-0.8-0.8-2.1-2.4c1.4-0.6-0.6-0.7,0-1.4c-1.5-2.7-3.3-2.8-4-5.5
	c-1.9,0.3-0.1-1.5-1.4-0.9c0.8-1.3-3-3.1-1.2-2.8c-0.5-0.5,0.1-0.6,0.2-0.1c-0.1-0.9-1.2-2-1.9-2c1.9-1.2-1.4-1.4-0.5-2
	c-0.9-2.6-0.9,0.1-2-1.9c-14.9-9.4,8.1,22.5,6.9,21.3c0.6,2-0.5,0.3-0.6,1.5c0.5-0.2,0.2,1.5,0,0.3c-0.1,0.6-0.7-0.2-0.7-0.5
	c-0.6,1.6-2.8,1.4-3.5,1.7c-2.7,1.5-2.8,3.3-5.5,4c0.3,1.9-1.5,0-0.9,1.4c-1.3-0.8-3.1,3-2.8,1.2c0,0-1.3,0.1-2.1,1.2
	c0.2,0.9-1.2-0.9-1.6,0.9c0.6,0.4-0.4,0.4-0.4,0.1c-0.4,1.4,0-0.6-1.3,0.6c-11,18.1,20.2-6,21.6-5.7c2.8-2.7,4,9.4,8.1,12
	c1,7.1,11.3,16.9,7.8,5.1c0.2-3.4-3.4-5.8-4.6-8.9c-0.3,1.1,0-0.5-0.5-0.8c-0.4-0.6-3.1-0.2-1.8-1.1c1.2-0.1,0.3-2.3-0.3-2.9
	c-0.2-1.6,0.1-4-2.1-5.2C697.2,237.9,734.5,226.7,719.4,223.7z M697,234.5c-0.1,0-0.3,0-0.3-0.1C696.8,234.4,696.9,234.4,697,234.5z
	 M697,233.6c0.7-0.4-0.1,0.9-0.3,0.3C696.9,234,697.2,233.8,697,233.6z M696.8,234.2c-0.1,0.1-0.1,0.1-0.2,0.1
	C696.5,234.2,696.7,234.2,696.8,234.2z M700.3,239.4c0.1-0.1,0.2-0.2,0.2-0.2C700.5,239.3,700.5,239.4,700.3,239.4z"/>
<path class="st0" d="M1400.9,1533.6c-4.7,1.3-8.4,4.7-11.6,6.3c-0.6,0.4-0.2,3.1-1.1,1.8c0-0.8-0.6-0.7-1.3-0.3
	c-0.9-0.2-2.2,1.1-3.3,0.5c-0.3,0.7-3.1,0.5-3.5,2.2c-1,0.4-0.6-2-1.6-0.2c-0.7-0.1-0.1-0.9,0.5-1c-1.6,0.2-0.4-1.8-1.7-2.1
	c1.7-0.8-4.5-6.4-5-7.6c0.7-0.2-3.7-4.3-1.4-3.1c-0.1-0.9-1.2-2.1-1.9-2c1.6-1.2-1-1.7-1.2-2.3c-17.7-15.2,5.7,20.6,5.6,20.2
	c0.6,2-0.5,0.3-0.6,1.5c0.5-0.2,0.2,1.5,0,0.3c-0.1,0.6-0.7-0.2-0.7-0.5c0,1.1-2.4,1.8-2.7,1c-2.4,1.8-3.7,3.6-6.3,4.7
	c0.3,1.9-1.5,0-0.9,1.4c-1.3-0.8-3.1,3-2.8,1.2c0,0-1.3,0.1-2.1,1.2c-0.2,1-0.4-1.3-1.9,1.2c-0.1-0.4-0.3,0.5-0.4,0.5
	c-0.1-0.9-0.1-0.6-1-0.1c0.1,0.7,0.5,1.3-0.6,1.4c-8.8,15.1,19.5-6.8,21.1-6.1c2.3-4.7,3.6,1.4,4.5,3.2c1.8,3.1,5.3,10,7.4,13.6
	c6.3,12.1,6.7-0.8,4.5-3.4c-0.7-2.4-4.1-4.9-3.9-5.9c-0.9,0.3,0.2-0.8-0.6-1.1c-0.4-0.6-3.1-0.2-1.8-1.1c1.2-0.1,0.3-2.3-0.3-2.9
	c-0.1-1.6,0.1-3.9-2.1-5.2C1378.8,1547.6,1416,1536.8,1400.9,1533.6z M1381.8,1549.3c0.1-0.1,0.2-0.2,0.2-0.2
	C1382,1549.2,1382,1549.3,1381.8,1549.3z"/>
</svg>
