<?xml version="1.0" encoding="utf-8"?>
<!-- Generator: Adobe Illustrator 27.5.0, SVG Export Plug-In . SVG Version: 6.00 Build 0)  -->
<svg version="1.1" id="Layer_1" xmlns="http://www.w3.org/2000/svg" xmlns:xlink="http://www.w3.org/1999/xlink" x="0px" y="0px"
	 viewBox="0 0 1800 1800" style="enable-background:new 0 0 1800 1800;" xml:space="preserve">
<style type="text/css">
	.st0{fill:#E4EB24;}
</style>
<path class="st0" d="M331,492.3c-0.2-4.2,0.8-9.2,0.3-13.1c0.4-0.6,0.9-1.2,1.3-1.8c-0.1-0.9-0.1-1.9,0-2.8c0.1-0.9,0.4-1.9,0.9-2.7
	l0.2,0.2c-0.1-1.4,0.3-2.7,0.6-3.9c0.2-0.6,0.3-1.2,0.4-1.6c0.1-0.5,0.2-0.9,0.3-1.2l0.2,0.2l0.9-3.1c0.1,0.2,0.1,0.4,0.2,0.7
	c0.9-4.5,2.9-8.9,5.2-12.4l-1.2-0.3c1.4-1.8,2.4-3.4,3.4-4.8c0.9-1.5,1.7-2.8,2.5-4c1.5-2.6,3.2-5,6.5-7.5l0.1,0.3
	c2.4-4.9,5.9-7.4,9.4-9.7c3.6-2.3,7.2-4.3,10.9-8.5c-0.9,1,0.8,0.2,0.9,0.5c2-1.5,4.2-2.9,5.7-4.2c1.6-1.3,2.5-2.5,2-3.5
	c3.3-1.7,3.1-0.8,3.9-0.2c-0.2-0.4,0.3-1.1,1.3-1.9c1.6-1,3.8-2.1,5.9-3l-1.7,1.2c1-0.5,2-1,3.1-1.4l3.3-1.3l3.2-1.3
	c1.1-0.4,2.4-0.8,3.6-1.1c-2-0.1-3.8-0.1-5.5-0.2c3.2-0.8,4.8-0.8,6-0.7c1.2,0.1,1.9,0.2,3.9-0.3c0.1-0.3,0.3-0.6,0.4-1l-2.9-0.6
	c0.5-0.4,1.1-0.8,1.6-1.2c0.3-0.2,0.6-0.4,0.8-0.6l0.4-0.3l0.4-0.2c1.1-0.5,2.2-1,3.2-1.5c0.5-0.3,1-0.4,1.4-0.6
	c0.4-0.2,0.8-0.4,1.2-0.6c0.4-0.2,0.7-0.5,1-0.6c0.3-0.2,0.6-0.3,0.8-0.5l0.3-0.3l0.2-0.1c0,0,0.1-0.1,0-0.1
	c-0.4-0.3-0.9-0.6-1.3-0.9l-0.7-0.7l-0.4-0.4l-0.2-0.2c-0.1-0.1-0.1-0.2-0.2-0.3l-0.8-1.1c-0.3-0.4-0.5-0.6-0.9-1.3
	c-0.3-0.6-0.6-1.2-0.9-1.8l-0.5-0.9c-0.2-0.3-0.3-0.8-0.5-1.2l-7.8-1.3c-0.3,0-0.6-0.1-0.9-0.2l-0.8-0.2l-1.6-0.4l-3.2-0.8l-1.6-0.4
	c-0.5-0.1-1.1-0.3-1.5-0.4l-2.8-1l-2.8-1l-1.4-0.5c-0.4-0.1-0.5-0.2-0.8-0.3c-4.2-1.6-8-3.5-11.8-5.7c-3.7-2.2-7.2-4.7-10.4-7.3
	c-3.1-2.8-6-5.7-8.4-8.9l0.2-1.5c0.5-0.7-1-1.4-2.5-2.2c-1.6-0.7-3.1-1.6-2.7-2.4c-0.7-0.5-1.5-1-2.2-1.5c-0.2-0.8-0.9-2.2,0.2-1.4
	c-1.4-1.9-1.6-1.8-3-2.9l-0.6-2.7c-2.2-4.1-4.5-7.7-6.7-11.5s-4.1-7.9-5.3-12.7c-0.1-1.7-0.5-3.5-0.7-5.5c-0.3-2-0.6-4.1-0.9-6.3
	c-0.6-4.4-1.1-9.2-1.4-14h-16.1c0.4,7.7,0,15.3-0.8,21.1c-0.4,4.6-1.7,9.3-3.8,13.7c-2,4.4-4.7,8.7-7.7,12.6
	c-2.9,4-6.2,7.7-9.5,11.2c-3.2,3.6-6.4,7-9.4,10.7c-0.6,0.2-1.5,1.6-1.3,1.8c-4.4,3.6-9.1,6.9-14,9.7c0,0-0.3,0.2-0.8,0.5
	s-1.2,0.8-2.2,1.2c-0.9,0.5-2.1,1.1-3.3,1.8c-1.3,0.6-2.7,1.3-4.2,2.1c-6.1,2.9-14,5.8-20.2,8c-3.1,1.1-5.8,2-7.5,2.9
	c-1.7,0.9-2.5,1.8-1.8,2.7c0.3,0.4,1,0.9,2.2,1.3s2.8,0.9,4.9,1.1c1.1,0.1,2.3,0.3,3.6,0.4s2.8,0.1,4.4,0.1c1.6,0,3.4-0.1,5.3-0.2
	c1.9-0.2,4-0.4,6.2-0.7l-0.3,0.5c2.6-0.7,4.9-1.4,7-2.2c2.1-0.7,4-1.6,5.8-2.5c1.8-0.8,3.3-1.9,4.8-2.9c1.5-1.1,2.9-2.3,4.2-3.6
	c1.1,0.7,3-0.5,4.9-1.8c1.8-1.5,3.7-3.1,4.9-3.6l-0.1,0.3c1-1.4,2.3-2.4,3.5-3.5c1.3-1.1,2.7-1.9,4-2.9s2.7-1.9,3.9-3.1
	c1.2-1.1,2.3-2.3,3.1-3.7c0,0.2,0.3,0.7-0.2,1.4c0.6-0.8,1.3-1.6,1.9-2.3c0.8-1,1.6-1.9,2.3-2.7c1.4-1.7,2.6-2.8,3.2-2.6
	c3.3-4.4,7.1-9.9,9.8-15.4c2.8-5.5,4.7-10.8,4.8-14.5l0.2,0.6c0.1-1.6,0.3-2.7,0.5-3.7c0.3,0.9,0.7,1.8,1.3,2.7l-0.9,0.5
	c2,2.9,3,5.9,4,8.7c0.5,1.4,1,2.7,1.6,3.9c0.6,1.2,1.3,2.2,2.3,2.9c2.1,2.8,2.2,4.2,2.3,5.5c0.2,1.3,0.5,2.7,3.5,5.1l0.7,3.1
	c1.8,2.6,2.7,0.7,4.4,3.8c-0.8,0.4,2.5,3.7,0.5,2.8c2.2,3.5,5.5,6,9,8.7c3.6,2.6,7.3,5.4,11,9.2c1.4,0,3.1,0.8,4.7,1.7
	c1.6,0.9,3.2,1.7,4.2,1.6c-0.2,0.9,9.3,5,3.3,3.7c-0.5-0.1-1.3-0.6-1.1-0.8l-1.1,0.5c1.1,1.1,2.3,1.9,3.6,2.6c1.3,0.6,2.6,1,3.9,1.4
	l0.5,0.1c0.1,0,0.4,0.1,0.4,0.1c0.1,0,0.1-0.1,0.2-0.1c0.2-0.1,0.3-0.1,0.5-0.2c0.4-0.1,0.8,0,1,0.1c0-0.3-0.6-0.5,0.3-0.9l1.3,0.6
	c-0.4,0.1-0.9,0.3-1.2,0.4c0.2,0.2,0.3,0.3,0.5,0.4c0.1,0.1,0.2,0.2,0.2,0.2c0.6-0.2,1.1-0.3,1.6-0.5c0,0.2-0.8,0.5-1.3,0.7
	c-0.4,0.2-0.6,0.2,1.6,0.1c1.2-0.1,2-0.2,2.5-0.3c0.5-0.1,0.9-0.2,2-0.1c-0.1,0.2-0.4,0.4-0.9,0.6c-0.9,0.1-1.8,0.2-2.8,0.3
	c-0.6,0.1-1.3,0.1-1.9,0.2c3,0.1,2.5,0.2,2.6,0.4l-2.3-0.2c0.4,0.1,0.3,0.2,0.1,0.3c-0.2,0-0.6,0-1.1-0.1c-0.9-0.1-2-0.3-2.3-0.3
	c-0.1,0-0.1,0,0.1,0.2c-0.3-0.1-0.6-0.2-1-0.3c1,0.3,1.9,0.7,2.7,1.1c0.3,0.4,0.2,0.6-0.1,0.6c-0.2,0-0.6-0.1-0.8-0.2
	c-0.3-0.1-0.5-0.2-0.6-0.1c-0.1,0.1-0.1,0.3-0.1,1.1c0.3-0.2,0.7,0.2,0.9,0.7c0.1,0.2,0.1,0.5-0.1,0.8c-0.1,0.1,0,0.1-0.2,0.2
	c-0.1,0.1-0.3,0.2-0.4,0.3c-0.3,0.2-0.7,0.3-1.1,0.5l0.3-1.2c-1.6,1-2,1.7-3.2,2c0.8-0.9-0.1-1.6-2.5,0l1.1-2
	c-1.3,1.4-2.6,2.7-3.9,4.1c-4.1,1.2-8.9,5.8-11.1,5.7c0,0-2,1.1-3.9,2.7c-2,1.5-4,3.5-4.3,4.7c0.4-0.9-0.4-0.7-1.3-0.4
	c-0.9,0.3-1.8,0.6-1.6-0.3c-1.1,2.3-5.6,7.6-8.2,9l0.3-0.5c-2,1.6-3.6,3.5-5.1,5.2c-0.7,0.9-1.3,1.8-2,2.7c-0.6,0.9-1.2,1.8-1.8,2.7
	c-1.1,1.8-2.2,3.7-3.3,5.5c-1.2,1.8-2.3,3.7-3.8,5.5c1.2,0.2-1.6,4.2,0.2,3.8c-0.8,2.3-1.7,4.3-2.7,6.2c-0.8,1.7-1.8,3.3-2.6,4.9
	c-0.5-0.8-0.9-1.6-1.3-2.5c-0.9-1.8-1.9-3.4-2.9-5.2c0.3-1.2,1.7,0.3,2.9,2.4c-0.9-1.7-1.7-3.5-2.7-5.2c0.5-0.2,1,0.5,1.5,1.4
	c0.5,1,1,2.2,1.4,2.9c-0.3-1.8-0.9-3.5-1.9-5.1c-0.4-0.8-0.9-1.6-1.4-2.4s-1.1-1.5-1.7-2.3c-2.2-3.1-4.8-6-6.5-9.8l-1.7-0.8
	l-0.2-0.5c-0.3,0.3-1.9-0.8-2.8-1.6c0-1.5,1.7-1.3-0.9-4.4c-0.7-1.5-2.4-3.1-4.2-4.6c-1-0.7-2-1.5-2.9-2.2c-1-0.7-2-1.3-2.8-1.9
	c1.6,1.6,0.7,1.5-0.3,1.1c-0.7-0.7-1.2-1.4-1.6-2c-0.4-0.6-0.9-1.1-1.6-1.5l0.5-0.9c-0.4,0.2-1.4-0.3-2.4-0.9
	c-1.3-0.7-2.8-1.6-3.2-1.6c-0.3-1.4,2.9,1.2,3.8,1c-3.2-2.4-4-3-4.9-3.6c-0.4-0.3-0.8-0.6-1.6-1.1c-0.7-0.5-1.8-1.2-3.5-2.3
	c-4.1-1.5,0,1.4-2.3,1.3c-3.3-1.8-6.8-2.8-10.2-5.4c0.2,0.5,0.5,1.1,0.7,1.6c-6.5-2.4-10.2-4-14.2-6.7c-6.4-1.2-11.5-1.4-15.3-1.4
	c-1.9,0.1-3.5,0.1-4.9,0.3c-1.4,0.2-2.5,0.4-3.3,0.6c-3.5,1-3.5,2.3-1.9,3.6c1.5,1.3,4.5,2.5,7.1,3.6c1.3,0.5,2.5,1,3.3,1.4
	c0.9,0.3,1.4,0.5,1.4,0.5c4.2,1.9,7.9,3.4,11.4,4.8c3.5,1.4,6.8,2.7,10.2,4.1c6.8,3,14.1,6.1,22.7,13c7,6.6,10.3,11.8,13.4,16.9
	c0.8,1.3,1.6,2.6,2.3,4c0.4,0.7,0.8,1.4,1.2,2.1c0.4,0.7,0.8,1.5,1.2,2.2c0.9,1.5,1.6,3.2,2.6,4.9c0.8,1.8,1.9,3.8,2.8,6
	c1.6,4.3,3,8.8,4.1,13.4c1.1,4.6,1.8,9.3,2.2,13.8c0.5,1.1,0.7,2.5,0.9,4h3.7c0,0,0,0.1,0,0.1H327c0,0,0-0.1,0-0.1H331z"/>
<path class="st0" d="M291.8,851.4c-0.2-0.2-0.4-0.3-0.7-0.6c-0.2-0.3-0.5-0.6-0.7-0.8l-0.2-0.2l-0.2-0.3V849
	c-0.3-0.4-0.6-0.7-0.9-1.3s-0.6-1.1-0.9-1.7c-0.1-0.1-0.2-0.3-0.3-0.5l-0.3-0.6l-0.5-1.1l-2.6-0.4c-0.8-0.1-1.5-0.3-2.2-0.5l-4.2-1
	c-0.4-0.1-0.7-0.2-0.9-0.3l-0.9-0.3l-1.7-0.6c-1.1-0.4-2.3-0.8-3.3-1.3s-2-0.9-3-1.4l-0.4-0.2l-0.3-0.1l-0.4-0.2l-0.8-0.4
	c-1.1-0.6-2.2-1.2-3.2-1.8c-4.2-2.6-7.8-6-10.3-9.8l0.4-1.3c0.5-0.7-0.6-1-1.7-1.3c-1.2-0.3-2.3-0.7-1.9-1.5
	c-0.6-0.3-1.1-0.5-1.7-0.8c0-0.6-0.4-1.6,0.4-1.1c-0.9-1.3-1.1-1.1-2.2-1.8l-0.1-2c-0.2-0.5-0.5-1-0.7-1.5l-0.4-0.7
	c-0.1-0.2-0.1-0.1-0.3-0.6l-0.4-0.7c-0.5-1-1-1.9-1.5-2.8c-0.3-0.5-0.5-0.9-0.8-1.4l-0.7-1.5l-1.3-3c-0.1-0.2-0.2-0.5-0.3-0.7
	l-0.3-0.9l-0.5-1.8c-0.3-1.2-0.7-2.4-1.1-3.6c-0.2-1.8-0.4-3.6-0.7-5.4c-0.5-0.1-1-0.1-1.5-0.2c-0.4-0.1-0.7-0.2-1.1-0.3
	c-0.4-0.1-0.7-0.3-1.1-0.4c-0.2-0.1-0.4-0.2-0.5-0.2l-0.4-0.3c-0.3-0.4-0.6-0.8-1-1.2l-0.3-0.3L231,788c-0.1-0.2-0.3-0.3-0.4-0.5
	c-0.1-0.2-0.3-0.3-0.4-0.4l-0.2-0.2l-0.2-0.2c-0.2-0.2-0.4-0.5-0.6-0.7c-0.7-0.8-1-1.5-1-2.4c-0.1,0.7-0.2,1.7-0.6,2.7
	c-0.1,0.3-0.2,0.6-0.3,0.8c-0.2,0.3-0.3,0.6-0.4,0.9c-0.2,0.6-0.7,1.2-1,1.8l-0.4,0.7c-0.1,0.2-0.3,0.5-0.5,0.7
	c-0.4,0.5-0.7,0.9-1.1,1.3c-0.5,0.4-1,0.8-1.6,1.1L222,794l-0.2,0.1l-0.3,0.1c-0.4,0.1-0.7,0.3-1.1,0.4c-0.1,0.9-0.2,1.7-0.3,2.6
	l-0.2,1.3c0,0.2-0.1,0.5-0.1,0.6l-0.1,0.5c-0.4,1.2-0.8,2.5-1.1,3.7l-0.3,0.9l-0.1,0.5c-0.1,0.1-0.1,0.3-0.2,0.4l-0.7,1.5
	c-0.5,1-1,2.1-1.5,3.1l-1.8,2.9l-0.5,0.7l-0.2,0.4c0,0.1-0.3,0.4-0.3,0.5l-0.6,0.7l-1.2,1.4l-1.3,1.4c-3.4,3.7-6.9,6.9-9.6,10.9
	c-0.5,0.1-0.9,1.1-0.7,1.3c-2.9,2.3-6,4.4-9.2,6.2c0,0-0.7,0.4-1.9,1.1c-0.6,0.3-1.3,0.7-2.2,1.2c-0.8,0.4-1.8,0.9-2.8,1.4
	c-4,2-9.1,4-13.1,5.7c-2,0.8-3.7,1.6-4.9,2.4c-1.1,0.8-1.6,1.7-1.1,2.6c0.5,0.9,2,1.9,5,2.7c1.6,0.4,3.5,0.8,5.9,1
	c-1.5,0-2.8,0.2-4,0.3c-1.3,0.2-2.5,0.4-3.4,0.6c-0.9,0.3-1.7,0.5-2.3,0.8c-2.4,1.2-2.5,2.5-1.5,3.6c0.9,1.2,2.9,2.2,4.5,3.1
	c0.8,0.4,1.6,0.8,2.1,1s0.9,0.4,0.9,0.4c2.7,1.4,5,2.5,7.3,3.4c2.3,0.9,4.4,1.7,6.6,2.5c3.6,2.1,8.5,3.9,14.2,8.2
	c4.5,4.4,6.4,7.8,8.2,11.2c0.4,0.9,0.9,1.7,1.4,2.6c0.2,0.4,0.5,0.9,0.7,1.3c0.5,1,1.1,2.1,1.6,3.2c1.2,2.1,2.2,5.2,3.4,8.1l0.1,0.3
	c0,0.1,0.1,0.2,0.1,0.4l0.2,0.7c0.1,0.5,0.2,1,0.4,1.5c0.2,1,0.5,2,0.7,3.1c0.1,0.5,0.3,1,0.4,1.6l0.1,0.4c0,0.1,0.1,0.3,0.1,0.5
	c0,0.4,0.1,0.8,0.1,1.2c0.1,1.6,0.3,3.3,0.4,5c0,0.4,0.1,0.8,0.1,1.2c1,0.1,2.1,0.1,3.1,0.2c0.8,0,1.6,0,2.4,0.1c1,0,2,0,3,0
	c1.3,0,1.8,0.2,2,0.4c0,0,0.1,0.1,0.1,0.3c0.1-0.3,0-0.6,0.2-0.9c0.1-0.3,0.4-0.6,0.6-1.4c0.1,0.2,0.3,0.4,0.4,0.6
	c0.2-0.3,0.3-0.7,0.6-0.9c0.3-0.2,0.6-0.3,0.9-0.1v0.4c0.3-0.6,1-1,1.6-1.2c0.3-0.1,0.5-0.2,0.8-0.3s0.6-0.2,0.8-0.5v0.5l2.2-0.7
	c-0.1,0.3-0.2,0.6-0.3,0.9c0.2-0.2,0.6-0.3,0.9-0.5l1-0.4l0.2-4.2l0.1-2c0-0.4,0.1-0.5,0.1-0.8l0.1-0.7c0.4-1.8,0.7-3.5,1.1-5.2
	c0.1-0.4,0.2-0.9,0.3-1.2l0.4-0.9c0.3-0.6,0.5-1.2,0.8-1.8s0.5-1.2,0.8-1.8c0.1-0.3,0.3-0.6,0.4-0.9c0.2-0.3,0.3-0.5,0.5-0.8
	c-0.4-0.2-0.7-0.3-1.1-0.5c0.8-1.1,1.5-2.2,2.2-3.3c0.2-0.2,0.3-0.6,0.4-0.7c0.1-0.1,0.2-0.3,0.3-0.4c0.2-0.2,0.3-0.5,0.5-0.7
	c0.6-1,1.1-1.9,1.5-2.7c0.9-1.7,2-3.3,4.3-4.8l0.2,0.2c1.2-3.5,3.6-5.1,6-6.4c2.4-1.4,4.9-2.5,7.1-5.7c-0.5,0.8,0.6,0.3,0.7,0.6
	c0.6-0.5,1.3-1,1.9-1.5c0.3-0.2,0.6-0.5,0.9-0.7c0.1-0.1,0.3-0.2,0.4-0.4l0.2-0.2l0.1-0.1l0.2-0.1c2-1.4,3-2.7,2.2-3.5
	c0.9-0.5,1.6-0.7,2.1-0.9s0.9-0.2,1.2-0.2c0.6,0,0.9,0.3,1.6,0.5c-0.5-0.3,0.1-1,1-1.6c1.1-0.6,2.7-1.3,4.3-1.9l-1,0.8l1.3-0.5
	c0.4-0.2,0.8-0.3,1.3-0.5l2.8-0.9l0.4-1.2l0.4-0.9c-1.1,0.1-2.3,0.1-3.6,0.1c1.4-0.8,2.3-0.8,3-0.8c0.4,0,0.7,0,0.9-0.2
	c0.3-0.1,0.5-0.5,0.6-0.8l-2-0.2c0.7-0.5,1.5-0.9,2.3-1.3c0.8-0.3,1.5-0.6,2.2-0.9c0.7-0.3,1.3-0.5,1.8-0.8s0.9-0.5,1.3-0.8l0.2-0.2
	c0-0.1,0.2-0.2,0.1-0.2C292.6,852,292.2,851.8,291.8,851.4z M267.9,853.4c-1.3,0.1-2.6,0.2-3.8,0.3c2.8,0.1,2.5,0.1,2.7,0.3
	l-2.2-0.1c0.6,0.1,0.4,0.2,0.1,0.2s-0.9,0-1.5-0.1c-1.2-0.1-2.3-0.3-1.5-0.1l-1.1-0.2c1.2,0.2,2.3,0.5,3.3,0.7
	c0.4,0.2,0.5,0.3,0.5,0.4c-0.1,0.1-0.9-0.1-1.4-0.2c-0.2,0-0.4-0.1-0.3,0c0,0.1,0.2,0.3,0.6,0.7c0.1-0.1,0.8,0.1,1.3,0.5
	c0.5,0.3,0.6,0.8,0,0.8c-0.2-0.2-0.5-0.5-0.7-0.7c-0.2,0.3,0,0.7-0.4,0.7c-0.2-0.5-1-1.1-1.3-0.7c-0.2-0.4-0.4-0.7-0.6-1
	c0.1,0.3,0.2,0.5,0.3,0.9c0,0.2,0,0.3,0,0.5v0.3v0.1l-0.1,0.2c-3,0.5-6.2,4.1-7.9,3.7c0,0-1.4,0.7-2.8,1.8c-1.4,1-2.7,2.5-2.8,3.5
	c0.2-0.8-0.4-0.7-1.1-0.5c-0.7,0.1-1.4,0.3-1.4-0.5c-0.6,1.9-3.5,5.7-5.6,6.5l0.2-0.4c-2.9,2.2-4.6,5-6.2,7.6
	c-0.8,1.3-1.5,2.6-2.2,3.9c-0.2,0.3-0.4,0.6-0.6,0.9l-0.2,0.2l-0.1,0.1c0,0-0.1,0-0.1,0.1c-0.1,0.1-0.3,0.1-0.4,0.1
	c0.9,0.8,0.1,0.9,1.1,2.1c0,1.2-0.6,1.7-0.9,1.8s-0.5-0.1-0.6,0.5c-0.1,0.5,0,1.8,0.2,5c-0.2,0.9-0.3,0.7-0.4,0.2
	c-0.1-0.5-0.2-1.2-0.2-1.2v-0.8c-0.3,2.6-0.3,3.5-0.4,4.5c0,3,0,4.6-0.1,7.4c0-0.1,0-0.3,0-0.5c0-2.3,0-2.4,0-3.1c0,0,0-0.2,0-0.8
	c0-0.1,0-0.5,0-1.4c0-0.2,0-0.4,0-0.7c-0.1,0-0.1,0.8-0.1,1.7c0,0.3,0,0.5,0,1.8c0-2.2-0.1-2.9-0.2-3.6c-0.1-0.7-0.2-1.4-0.1-3.2
	c-0.4-1.2-1-1.2-2-2.2c-0.4-0.4-1-1-1.5-1.8c0.3-1.1,1-1.1,1.4-0.8c-0.3-0.4-0.6-0.9-0.9-1.4c0.7-1,0.8,0.3,1.1,0.5
	c0.1-1.9-0.4-1.9-1.4-2.7l-0.3-0.3l-0.2-0.1l-0.3-0.4c-0.4-0.5-0.9-1-1.3-1.6c-0.8-1.1-1.5-2.3-2-3.7l-1.4-0.4l-0.1-0.4
	c-0.1,0.1-0.5,0.1-0.9-0.1c0-0.2-0.1-0.5-0.4-0.9l0.2,0.8c-0.4-0.2-0.8-0.5-1.1-0.7c0.2-1.2,1.7-1.3-0.2-3.4
	c-0.4-1.1-1.6-2.2-2.9-3.2c-1.4-1-2.9-1.9-4.2-2.6c1,1.2,0.3,1.2-0.4,1c-1-0.9-1-2.1-2.1-2.5l0.6-0.9c-0.3,0.3-1.1,0-1.9-0.4
	c-1-0.4-2-1-2.3-1c-0.1-1.2,2.2,0.6,2.9,0.3c-2.2-1.7-2.8-2.1-3.4-2.5c-0.6-0.4-1.1-0.8-3.5-2.3c-3-0.8-0.2,1.3-2,1.5
	c-2.3-1.2-4.8-1.6-7.1-3.6c0.1,0.5,0.2,0.9,0.3,1.4c-4.6-1.4-7-2.5-9.6-4.7c-0.4,0-0.7-0.1-1.1-0.1c0.7,0,1.5,0,2.3-0.1l-0.2,0.5
	c7.2-1.6,11.6-3.7,15-7.9c0.9,0.8,2.3,0,3.6-1c1.3-1.1,2.5-2.3,3.4-2.5v0.3c1.3-2.1,3.3-3.2,5.3-4.5c2-1.2,3.9-2.6,4.9-4.7
	c0,0.2,0.3,0.6-0.1,1.2c0.4-0.5,0.9-1.1,1.4-1.7c0.5-0.7,1.1-1.3,1.6-1.9c1-1.2,1.9-1.9,2.5-1.6c0.5-0.8,1.1-1.6,1.7-2.4
	c0.6-0.8,1.1-1.7,1.7-2.6c0.6-0.9,1.1-1.8,1.7-2.7l0.4-0.7c0-0.1,0.2-0.3,0.1-0.2c0,0,0,0,0-0.1l0.2-0.4c0.4-1,0.6-2.2,0.5-4.5
	c0-0.2,0-0.3,0-0.5l0.1,0.7c-0.1-1.6,0-2.1,0.2-2.4c0.1-0.3,0.3-0.4,0.4-1.8c0.1,0.3,0.1,0.4,0.1,0.5c0-2.1,0.3-3.3,0.5-4.2
	c0.2-0.9,0.3-1.4,0.4-2.8v2.6c0.1-1,0.2-2.1,0.2-3.2c0-4.8,0-2.7,0.1-1.6c0,1.9,0,3.1,0.1,1.8c0,0.7,0.1,0.2,0.1-0.6
	c0.1-0.8,0.2-2,0.3-3c0.1-0.9,0.3-1.6,0.5-1.7c0.2,0,0.4,0.6,0.5,2c0.3-0.5,0.1,0.2,0,1.1c-0.1,0.9-0.3,1.9,0.1,2
	c-0.2,2.8-0.3,0.9-0.4,3.6c0.2,0.1,0.4,1.5,0.5,2.7c0.1,1.2,0.2,2.2,0.7,2.4l-0.4,1.6c0,0,0.1,0,0.1-0.1c0.3-0.1,0.6,0.3,0.8,0.8
	c0.2,0.5,0.3,1.1,0.4,1.7c0.2,1.1,0.2,1.8,1.3,1.9c0.1,0,0.1,0.1,0.2,0.1l0.1,0.2c0.1,0.2,0.3,0.4,0.4,0.6c0.2,0.4,0.3,0.7,0.4,1
	c0.1,0.6,0.1,1.2,0.1,1.7c0,1,0.1,2.1,2.4,3.6l0.1,2.4c1.2,1.9,2.3,0.2,3.3,2.5c-0.7,0.4,1.6,2.8,0,2.2c1.4,2.6,3.8,4.2,6.3,6
	c2.6,1.7,5.2,3.6,7.6,6.6c2.2-0.4,4.8,2.3,6.5,1.8c0,0.2,0.3,0.5,0.8,0.9c0.2,0.2,0.4,0.3,0.6,0.5c0.3,0.3,0.3,0.6-0.7,0.9
	c-0.2,0.1-0.3,0-0.1-0.3c-0.2,0.3-0.4,0.5-0.6,0.8c-0.1,0.5-0.1,0.6,0,0.7c0.1,0,0.3,0,0.5-0.1c0.6-0.2,1.6-0.4,2-0.2c0,0,0,0,0-0.1
	c0.1-0.2-0.2-0.3,0.8-0.5l0.3,0.2l0.5,0.3c-0.5,0.1-1,0.2-1.4,0.3c0.1,0.2,0.1,0.3,0.1,0.5c0.6-0.1,1.2-0.2,1.8-0.3
	c-0.2,0.2-1.1,0.4-1.7,0.5c-0.5,0.1-0.7,0.1,1.3,0.1c1.1,0,1.9-0.1,2.4-0.2c0.6-0.1,1-0.1,1.8-0.1
	C269,853.2,268.5,853.3,267.9,853.4z"/>
<path class="st0" d="M458.3,1282.8c-0.4-0.3-0.8-0.5-1.2-0.9c-0.2-0.2-0.4-0.3-0.7-0.6c-0.2-0.3-0.5-0.6-0.7-0.8l-0.2-0.2l-0.2-0.3
	l-0.4-0.6c-0.3-0.4-0.6-0.7-0.9-1.3c-0.3-0.6-0.6-1.1-0.9-1.7c-0.1-0.1-0.2-0.3-0.3-0.5l-0.3-0.6l-0.5-1.1l-2.6-0.4
	c-0.8-0.1-1.5-0.3-2.2-0.5l-4.2-1c-0.4-0.1-0.7-0.2-0.9-0.3l-0.9-0.3l-1.7-0.6c-1.1-0.4-2.3-0.8-3.3-1.3s-2-0.9-3-1.4l-0.4-0.2
	l-0.3-0.1l-0.4-0.2l-0.8-0.4c-1.1-0.6-2.2-1.2-3.2-1.8c-4.2-2.6-7.8-6-10.3-9.8l0.4-1.3c0.5-0.7-0.6-1-1.7-1.3
	c-1.2-0.3-2.3-0.7-1.9-1.5c-0.6-0.3-1.1-0.5-1.7-0.8c0-0.6-0.4-1.6,0.4-1.1c-0.9-1.3-1.1-1.1-2.2-1.8l-0.1-2c-0.2-0.5-0.5-1-0.7-1.5
	l-0.4-0.7c-0.1-0.2-0.1-0.1-0.3-0.6l-0.4-0.7c-0.5-1-1-1.9-1.5-2.8c-0.3-0.5-0.5-0.9-0.8-1.4l-0.7-1.5l-1.3-3
	c-0.1-0.2-0.2-0.5-0.3-0.7l-0.3-0.9l-0.5-1.8c-0.3-1.2-0.7-2.4-1.1-3.6c-0.2-1.8-0.4-3.6-0.7-5.4c-0.5-0.1-1-0.1-1.5-0.2
	c-0.4-0.1-0.7-0.2-1.1-0.3c-0.4-0.1-0.7-0.3-1.1-0.4c-0.2-0.1-0.4-0.2-0.5-0.2l-0.4-0.3c-0.3-0.4-0.6-0.8-1-1.2l-0.3-0.3l-0.2-0.2
	c-0.1-0.2-0.3-0.3-0.4-0.5c-0.1-0.1-0.3-0.3-0.4-0.4l-0.2-0.2l-0.2-0.2c-0.2-0.2-0.4-0.5-0.6-0.7c-0.7-0.8-1-1.5-1-2.4
	c-0.1,0.7-0.2,1.7-0.6,2.7c-0.1,0.3-0.2,0.6-0.3,0.8c-0.2,0.3-0.3,0.6-0.4,0.9c-0.2,0.6-0.7,1.2-1,1.8l-0.4,0.7
	c-0.1,0.2-0.3,0.5-0.5,0.7c-0.4,0.5-0.7,0.9-1.1,1.3c-0.5,0.4-1,0.8-1.6,1.1l-0.4,0.2l-0.2,0.1l-0.3,0.1c-0.4,0.1-0.7,0.3-1.1,0.4
	c-0.1,0.9-0.2,1.7-0.3,2.6l-0.2,1.3c0,0.2-0.1,0.5-0.1,0.6l-0.1,0.5c-0.4,1.2-0.8,2.5-1.1,3.7l-0.3,0.9l-0.1,0.5
	c-0.1,0.1-0.1,0.3-0.2,0.4l-0.7,1.5c-0.5,1-1,2.1-1.5,3.1l-1.8,2.9l-0.5,0.7l-0.2,0.4c0,0.1-0.3,0.4-0.3,0.5l-0.6,0.7l-1.2,1.4
	l-1.3,1.4c-3.4,3.7-6.9,6.9-9.6,10.9c-0.5,0.1-0.9,1.1-0.7,1.3c-2.9,2.3-6,4.4-9.2,6.2c0,0-0.7,0.4-1.9,1.1
	c-0.6,0.3-1.3,0.7-2.2,1.2c-0.8,0.4-1.8,0.9-2.8,1.4c-4,2-9.1,4-13.1,5.7c-2,0.8-3.7,1.6-4.9,2.4c-1.1,0.8-1.6,1.7-1.1,2.6
	s2,1.9,5,2.7c1.6,0.4,3.5,0.8,5.9,1c-1.5,0-2.8,0.2-4,0.3c-1.3,0.2-2.5,0.4-3.4,0.6c-0.9,0.3-1.7,0.5-2.3,0.8
	c-2.4,1.2-2.5,2.5-1.5,3.6c0.9,1.2,2.9,2.2,4.5,3.1c0.8,0.4,1.6,0.8,2.1,1s0.9,0.4,0.9,0.4c2.7,1.4,5,2.5,7.3,3.4s4.4,1.7,6.6,2.5
	c4.1,2.4,9,4.2,14.7,8.5c4.5,4.4,6.4,7.8,8.2,11.2c0.4,0.9,0.9,1.7,1.4,2.6c0.2,0.4,0.5,0.9,0.7,1.3c0.5,1,1.1,2.1,1.6,3.2
	c1.2,2.1,2.2,5.2,3.4,8.1l0.1,0.3c0,0.1,0.1,0.2,0.1,0.4l0.2,0.7c0.1,0.5,0.2,1,0.4,1.5c0.2,1,0.5,2,0.7,3.1c0.1,0.5,0.3,1,0.4,1.6
	l0.1,0.4c0,0.1,0.1,0.3,0.1,0.5c0,0.4,0.1,0.8,0.1,1.2c0.1,1.6,0.3,3.3,0.4,5c0,0.4,0.1,0.8,0.1,1.2c1,0.1,2.1,0.1,3.1,0.2
	c0.8,0,1.6,0,2.4,0.1c1,0,2,0,3,0c1.3,0,1.8,0.2,2,0.4c0,0,0.1,0.1,0.1,0.3c0.1-0.3,0-0.6,0.2-0.9c0.1-0.3,0.4-0.6,0.6-1.4
	c0.1,0.2,0.3,0.4,0.4,0.6c0.2-0.3,0.3-0.7,0.6-0.9c0.3-0.2,0.6-0.3,0.9-0.1v0.4c0.3-0.6,1-1,1.6-1.2c0.3-0.1,0.5-0.2,0.8-0.3
	c0.3-0.1,0.6-0.2,0.8-0.5v0.5l2.2-0.7c-0.1,0.3-0.2,0.6-0.3,0.9c0.2-0.2,0.6-0.3,0.9-0.5l1-0.4l0.2-4.2l0.1-2c0-0.4,0.1-0.5,0.1-0.8
	l0.1-0.7c0.4-1.8,0.7-3.5,1.1-5.2c0.1-0.4,0.2-0.9,0.3-1.2l0.4-0.9c0.3-0.6,0.5-1.2,0.8-1.8c0.3-0.6,0.5-1.2,0.8-1.8
	c0.1-0.3,0.3-0.6,0.4-0.9c0.2-0.3,0.3-0.5,0.5-0.8c-0.4-0.2-0.7-0.3-1.1-0.5c0.8-1.1,1.5-2.2,2.2-3.3c0.2-0.2,0.3-0.6,0.4-0.7
	c0.1-0.1,0.2-0.3,0.3-0.4c0.2-0.2,0.3-0.5,0.5-0.7c0.6-1,1.1-1.8,1.5-2.7c0.9-1.7,2-3.3,4.3-4.8l0.2,0.2c1.2-3.5,3.6-5.1,6-6.4
	c2.4-1.4,4.9-2.5,7.1-5.7c-0.5,0.8,0.6,0.3,0.7,0.6c0.6-0.5,1.3-1,1.9-1.5c0.3-0.2,0.6-0.5,0.9-0.7c0.1-0.1,0.3-0.2,0.4-0.4l0.2-0.2
	l0.1-0.1l0.2-0.1c2-1.4,3-2.7,2.2-3.5c0.9-0.5,1.6-0.7,2.1-0.9c0.5-0.2,0.9-0.2,1.2-0.2c0.6,0,0.9,0.3,1.6,0.5c-0.5-0.3,0.1-1,1-1.6
	c1.1-0.6,2.7-1.3,4.3-1.9l-1,0.8l1.3-0.5c0.4-0.2,0.8-0.3,1.3-0.5l2.8-0.9l0.4-1.2l0.4-0.9c-1.1,0.1-2.3,0.1-3.6,0.1
	c1.4-0.8,2.3-0.8,3-0.8c0.4,0,0.7,0,0.9-0.2c0.3-0.1,0.5-0.5,0.6-0.8l-2-0.2c0.7-0.5,1.5-0.9,2.3-1.3c0.8-0.3,1.5-0.6,2.2-0.9
	s1.3-0.5,1.8-0.8s0.9-0.5,1.3-0.8l0.2-0.2C458.2,1282.9,458.4,1282.8,458.3,1282.8z M432.7,1283.6c-1.3,0.1-2.6,0.2-3.8,0.3
	c2.8,0.1,2.5,0.1,2.7,0.3l-2.2-0.1c0.6,0.1,0.4,0.2,0.1,0.2s-0.9,0-1.5-0.1c-1.2-0.1-2.3-0.3-1.5-0.1l-1.1-0.2
	c1.2,0.2,2.3,0.5,3.3,0.7c0.4,0.2,0.5,0.3,0.5,0.4c-0.1,0.1-0.9-0.1-1.4-0.2c-0.2,0-0.4-0.1-0.3,0c0,0.1,0.2,0.3,0.6,0.7
	c0.1-0.1,0.8,0.1,1.3,0.5c0.5,0.3,0.6,0.8,0,0.8c-0.2-0.2-0.5-0.5-0.7-0.7c-0.2,0.3,0,0.7-0.4,0.7c-0.2-0.5-1-1.1-1.3-0.7
	c-0.2-0.4-0.4-0.7-0.6-1c0.1,0.3,0.2,0.5,0.3,0.9c0,0.2,0,0.3,0,0.5v0.3v0.1l-0.1,0.2c-3,0.5-6.2,4.1-7.9,3.7c0,0-1.4,0.7-2.8,1.8
	c-1.4,1-2.7,2.5-2.8,3.5c0.2-0.8-0.4-0.7-1.1-0.5c-0.7,0.1-1.4,0.3-1.4-0.5c-0.6,1.9-3.5,5.7-5.6,6.5l0.2-0.4
	c-2.9,2.2-4.6,5-6.2,7.6c-0.8,1.3-1.5,2.6-2.2,3.9c-0.2,0.3-0.4,0.6-0.6,0.9l-0.2,0.2l-0.1,0.1c0,0-0.1,0-0.1,0.1
	c-0.1,0.1-0.3,0.1-0.4,0.1c0.9,0.8,0.1,0.9,1.1,2.1c0,1.2-0.6,1.7-0.9,1.8c-0.3,0.1-0.5-0.1-0.6,0.5c-0.1,0.5,0,1.8,0.2,5
	c-0.2,0.9-0.3,0.7-0.4,0.2c-0.1-0.5-0.2-1.2-0.2-1.2v-0.8c-0.3,2.6-0.3,3.5-0.4,4.5c0,3,0,4.6-0.1,7.4c0-0.1,0-0.3,0-0.5
	c0-2.3,0-2.4,0-3.1c0,0,0-0.2,0-0.8c0-0.1,0-0.5,0-1.4c0-0.2,0-0.4,0-0.7c-0.1,0-0.1,0.8-0.1,1.7c0,0.3,0,0.5,0,1.8
	c0-2.2-0.1-2.9-0.2-3.6c-0.1-0.7-0.2-1.4-0.1-3.2c-0.4-1.2-1-1.2-2-2.2c-0.4-0.4-1-1-1.5-1.8c0.3-1.1,1-1.1,1.4-0.8
	c-0.3-0.4-0.6-0.9-0.9-1.4c0.7-1,0.8,0.3,1.1,0.5c0.1-1.9-0.4-1.9-1.4-2.7l-0.3-0.3l-0.2-0.1l-0.3-0.4c-0.4-0.5-0.9-1-1.3-1.6
	c-0.8-1.1-1.5-2.3-2-3.7l-1.4-0.4l-0.1-0.4c-0.1,0.1-0.2,0.1-0.4,0.1c0-0.2-0.2-0.4-0.4-0.8l0.2,0.7c-0.5-0.1-1.2-0.5-1.6-0.9
	c0.2-1.2,1.7-1.3-0.2-3.4c-0.4-1.1-1.6-2.2-2.9-3.2c-1.4-1-2.9-1.9-4.2-2.6c1,1.2,0.3,1.2-0.4,1c-1-0.9-1-2.1-2.1-2.5l0.6-0.9
	c-0.3,0.3-1.1,0-1.9-0.4c-1-0.4-2-1-2.3-1c-0.1-1.2,2.2,0.6,2.9,0.3c-2.2-1.7-2.8-2.1-3.4-2.5c-0.6-0.4-1.1-0.8-3.5-2.3
	c-3-0.8-0.2,1.3-2,1.5c-2.3-1.2-4.8-1.6-7.1-3.6c0.1,0.5,0.2,0.9,0.3,1.4c-4.6-1.4-7-2.5-9.6-4.7c-0.4,0-0.7-0.1-1.1-0.1
	c0.7,0,1.5,0,2.3-0.1l-0.2,0.5c7.2-1.6,11.6-3.7,15-7.9c0.9,0.8,2.3,0,3.6-1c1.3-1.1,2.5-2.3,3.4-2.5v0.3c1.3-2.1,3.3-3.2,5.3-4.5
	c2-1.2,3.9-2.6,4.9-4.7c0,0.2,0.3,0.6-0.1,1.2c0.4-0.5,0.9-1.1,1.4-1.7c0.5-0.7,1.1-1.3,1.6-1.9c1-1.2,1.9-1.9,2.5-1.6
	c0.5-0.8,1.1-1.6,1.7-2.4c0.6-0.8,1.1-1.7,1.7-2.6c0.6-0.9,1.1-1.8,1.7-2.7l0.4-0.7c0-0.1,0.2-0.3,0.1-0.2c0,0,0,0,0-0.1l0.2-0.4
	c0.4-1,0.6-2.2,0.5-4.5c0-0.2,0-0.3,0-0.5l0.1,0.7c-0.1-1.6,0-2.1,0.2-2.4c0.1-0.3,0.3-0.4,0.4-1.8c0.1,0.3,0.1,0.4,0.1,0.5
	c0-2.1,0.3-3.3,0.5-4.2c0.2-0.9,0.3-1.4,0.4-2.8v2.6c0.1-1,0.2-2.1,0.2-3.2c0-4.8,0-2.7,0.1-1.6c0,1.9,0,3.1,0.1,1.8
	c0,0.7,0.1,0.2,0.1-0.6c0.1-0.8,0.2-2,0.3-3c0.1-0.9,0.3-1.6,0.5-1.7c0.2,0,0.4,0.6,0.5,2c0.3-0.5,0.1,0.2,0,1.1
	c-0.1,0.9-0.3,1.9,0.1,2c-0.2,2.8-0.3,0.9-0.4,3.6c0.2,0.1,0.4,1.5,0.5,2.7c0.1,1.2,0.2,2.2,0.7,2.4l-0.4,1.6c0,0,0.1,0,0.1-0.1
	c0.3-0.1,0.6,0.3,0.8,0.8c0.2,0.5,0.3,1.1,0.4,1.7c0.2,1.1,0.2,1.8,1.3,1.9c0.1,0,0.1,0.1,0.2,0.1l0.1,0.2c0.1,0.2,0.3,0.4,0.4,0.6
	c0.2,0.4,0.3,0.7,0.4,1c0.1,0.6,0.1,1.2,0.1,1.7c0,1,0.1,2.1,2.4,3.6l0.1,2.4c1.2,1.9,2.3,0.2,3.3,2.5c-0.7,0.4,1.6,2.8,0,2.2
	c1.4,2.6,3.8,4.2,6.3,6c2.6,1.7,5.2,3.6,7.6,6.6c2.2-0.4,4.8,2.3,6.5,1.8c0,0.2,0.3,0.5,0.8,0.9c0.2,0.2,0.4,0.3,0.6,0.5
	c0.3,0.3,0.3,0.6-0.7,0.9c-0.2,0.1-0.3,0-0.1-0.3c-0.2,0.3-0.4,0.5-0.6,0.8c-0.1,0.5-0.1,0.6,0,0.7c0.1,0,0.3,0,0.5-0.1
	c0.6-0.2,1.6-0.4,2-0.2c0,0,0,0,0-0.1c0.1-0.2-0.2-0.3,0.8-0.5l0.3,0.2l0.5,0.3c-0.5,0.1-1,0.2-1.4,0.3c0.1,0.2,0.1,0.3,0.1,0.5
	c0.6-0.1,1.2-0.2,1.8-0.3c-0.2,0.2-1.1,0.4-1.7,0.5c-0.5,0.1-0.7,0.1,1.3,0.1c1.1,0,1.9-0.1,2.4-0.2c0.6-0.1,1-0.1,1.8-0.1
	C433.8,1283.4,433.3,1283.5,432.7,1283.6z"/>
<path class="st0" d="M1219.4,1452l-0.3-0.2c-0.1-0.1-0.2-0.2-0.3-0.3l-0.7-0.6c-0.2-0.2-0.5-0.6-0.7-0.9l-0.4-0.5
	c-0.1-0.2-0.3-0.3-0.4-0.6c-0.3-0.5-0.6-0.9-0.9-1.4c-0.1-0.3-0.3-0.4-0.5-0.7l-0.5-1c-0.3-0.7-0.7-1.4-1-2l-5.8-1.1
	c-0.9-0.2-1.9-0.3-2.8-0.5l-2.3-0.7c-1.5-0.5-3.1-0.9-4.5-1.4s-2.7-1.1-4.1-1.6c-0.7-0.3-1.4-0.5-2-0.8l-1.1-0.5
	c-0.7-0.3-1.5-0.7-2.2-1c-1.4-0.7-2.8-1.5-4.2-2.3c-5.4-3.2-10.1-7.4-13.5-12.2l0.3-1.4c0.5-0.7-0.7-1.1-2-1.6s-2.6-1.1-2.2-1.8
	c-0.6-0.4-1.3-0.7-1.9-1.1c-0.1-0.6-0.6-1.8,0.4-1.2c-1.1-1.5-1.3-1.4-2.5-2.2l-0.2-2.2c-1.6-3.3-3.5-6.1-5.3-9
	c-1.8-3-3.4-6.1-4.3-9.9c-0.1-2.6-0.6-5.8-1.1-9.2c-0.4-3.4-0.9-7.2-1.2-10.9h-2.3c0,0,0,0,0,0h-11.3c0,0,0,0,0,0h-2.5
	c0.4,6,0.3,12-0.3,16.6c-0.2,3.6-1.2,7.3-2.9,10.8c-1.7,3.5-3.9,6.8-6.3,9.8c-2.4,3.1-5.1,5.9-7.6,8.6c-2.6,2.8-5,5.5-7.3,8.5
	c-0.5,0.1-1.1,1.3-1,1.5c-3.5,2.8-7.2,5.4-11,7.6c0,0-0.9,0.5-2.3,1.3c-0.7,0.4-1.6,0.9-2.6,1.4s-2.1,1.1-3.3,1.7
	c-4.8,2.3-11,4.7-15.9,6.5c-2.4,0.9-4.5,1.8-5.9,2.6c-1.3,0.9-2,1.7-1.4,2.6s2.3,1.9,5.8,2.6c0.9,0.2,1.8,0.4,2.9,0.5
	s2.3,0.2,3.6,0.3c1.3,0.1,2.8,0.1,4.4,0.1c1.6-0.1,3.3-0.1,5.1-0.3l-0.2,0.5c8.4-2.1,13.5-4.5,17.6-9.2c1,0.7,2.5-0.2,4.1-1.3
	c1.5-1.2,3-2.6,4-3v0.3c0.8-1.2,1.8-2.1,2.8-2.9s2.2-1.5,3.3-2.3c1.1-0.8,2.3-1.5,3.2-2.4c1-0.9,1.9-1.9,2.4-3.1
	c0,0.3,0.4,0.8-0.4,1.7c0.6-0.7,1.2-1.5,1.9-2.3c0.6-0.8,1.3-1.6,1.8-2.2c1.1-1.4,2.2-2.3,2.8-2c2.7-3.6,5.7-8.1,8-12.6
	c1.8-3.7,3.1-7.3,3.5-10.2c1,1.8,1.5,3.5,2.2,5.3c0.4,1.1,0.7,2.2,1.2,3.2c0.5,0.9,1.1,1.8,1.9,2.3c1.8,2.2,1.7,3.4,1.7,4.6
	c0.1,1.1,0.2,2.3,2.8,4.1l0.3,2.7c1.4,2.2,2.4,0.4,3.8,3c-0.8,0.4,1.9,3.1,0.2,2.4c1.7,2.9,4.5,4.9,7.3,7c3,2.1,6,4.3,8.9,7.6
	c1.2-0.1,2.6,0.5,3.9,1.2s2.6,1.3,3.5,1.1c-0.2,0.8,7.5,4.1,2.5,3.3c-0.4-0.1-1.1-0.4-0.9-0.7l-1,0.6c0.4,0.5,0.9,0.9,1.4,1.3
	c0.2,0.2,0.5,0.4,0.7,0.5l0.4,0.2l0.2,0.1c0.1,0-0.1,0-0.1-0.1c0.1,0,0.3-0.1,0.6-0.2c0.5-0.3,1.6-0.5,1.9-0.2
	c0.1-0.3-0.4-0.4,0.6-0.7l0.9,0.5l-0.3,0.1c-0.4,0.1-0.7,0.2-1.1,0.3l0.1,0.1c0.2,0.2,0.2,0.3,0.3,0.5c0.6-0.1,1.2-0.3,1.7-0.4
	c-0.1,0.2-1,0.4-1.6,0.5c-0.5,0.1-0.7,0.1,1.4,0.1c1.2,0,1.9-0.1,2.4-0.2c0.6-0.1,1-0.1,1.9-0.1c-0.2,0.2-0.6,0.3-1.2,0.5
	c-1.4,0.1-2.8,0.3-4.1,0.4c2.9,0.1,2.5,0.2,2.7,0.3l-2.3-0.1c0.5,0.1,0.4,0.2,0,0.2s-0.9-0.1-1.5-0.1c-0.4,0-0.8-0.1-1.5-0.2
	c-0.1,0-0.2,0-0.2,0c0.6,0.1,1.1,0.3,1.6,0.5l0.6,0.2c0.5,0.3,0.4,0.5,0.2,0.5c-0.2,0-0.6-0.1-0.9-0.1c-0.3-0.1-0.6-0.2-0.7-0.1
	s0.1,0.3,0.3,0.9c0.2-0.2,0.8,0.2,1.1,0.5c0.4,0.4,0.4,0.9-0.3,1c-0.1-0.3-0.3-0.6-0.5-0.8c-0.3,0.4-0.2,0.8-0.7,0.8
	c0-0.3-0.2-0.6-0.4-0.8c-0.1-0.1-0.2-0.2-0.3-0.2c0,0,0.2-0.1,0.1-0.1h-0.1l-0.1,0.1c-0.1,0-0.2,0.1-0.3,0.1
	c-0.2,0.1-0.4,0.2-0.7,0.4l0.4-0.9l0.2-0.5l-0.1,0.1l-0.4,0.5l-0.7,0.9c-0.5,0.6-1,1.2-1.5,1.8c-3.4,0.8-7.2,4.8-9.1,4.5
	c0,0-1.6,0.9-3.2,2.2c-1.6,1.2-3.2,2.8-3.4,3.9c0.3-0.8-0.4-0.7-1.2-0.5c-0.7,0.2-1.5,0.4-1.4-0.4c-0.8,2.1-4.3,6.5-6.6,7.4l0.2-0.4
	c-3.3,2.7-5.4,5.8-7.2,8.8c-0.9,1.5-1.8,3-2.7,4.5c-0.5,0.8-1,1.5-1.5,2.2c-0.3,0.4-0.5,0.8-0.8,1.1l-0.4,0.6l-0.2,0.3
	c1,0.5,0.1,0.9,1.3,1.8c0,0.8-0.3,1.5-0.7,1.8c-0.3,0.4-0.6,0.4-0.8,0.5c-0.4,0.2-0.4,0.7-0.1,5.7c-0.2,1-0.3,0.9-0.5,0.5
	c-0.1-0.4-0.2-1.2-0.3-1.2v-0.9c-0.2,1.5-0.3,2.5-0.3,3.3c-0.1,0.8-0.1,1.3-0.2,2c0,3.3,0,5-0.1,8.2c0-0.2,0-0.4,0-0.7
	c0-2.4,0-2.6,0-3.4c0,0,0-0.2,0-0.8c0-0.2,0-1,0-2.9c0,0.8,0,1.1-0.1,1.4c0-0.2,0-0.3,0-0.7c-0.1-0.1-0.1,0.8-0.1,1.7
	c0,0.3,0,0.5,0,1.9c0-2.4-0.2-3.2-0.2-4c-0.1-0.8-0.2-1.6-0.1-3.5c-0.4-1.2-0.9-1.6-1.7-2.5c-0.6-0.7-1.5-1.6-2.4-3.1
	c0.3-1,1.2-0.8,1.7-0.3c-0.3-0.6-0.7-1.1-1.1-1.7c0.4-0.4,0.7-0.2,0.9,0.1c0.2,0.3,0.3,0.7,0.5,0.9c0-1-0.1-1.5-0.4-1.9
	c-0.1-0.2-0.3-0.4-0.5-0.6l-0.1-0.1v0.1l-0.1-0.1l-0.3-0.5l-0.7-0.9c-1.9-2.5-4-4.8-5.3-7.9l-1.5-0.6l-0.1-0.4
	c-0.3,0.3-1.7-0.5-2.4-1.2c0.1-1.3,1.7-1.3-0.5-3.8c-0.5-1.3-1.9-2.6-3.4-3.8c-0.8-0.6-1.6-1.2-2.4-1.7s-1.6-1-2.3-1.5
	c1.2,1.3,0.4,1.3-0.3,1c-0.6-0.5-0.9-1.1-1.2-1.7c-0.3-0.5-0.7-1-1.3-1.2l0.5-0.8c-0.4,0.2-1.2-0.2-2-0.7c-1.1-0.6-2.3-1.3-2.7-1.2
	c-0.2-1.3,2.5,0.9,3.2,0.6c-2.6-1.9-3.3-2.4-4-2.9c-0.3-0.2-0.7-0.5-1.3-0.9c-0.6-0.4-1.4-1-2.8-1.8c-3.4-1.1-0.1,1.3-2.1,1.4
	c-2.7-1.4-5.6-2.1-8.3-4.3c0.2,0.5,0.3,1,0.4,1.5c-5.3-1.8-8.2-3.1-11.3-5.5c-5.2-0.7-9.3-0.7-12.4-0.5c-1.6,0.1-2.9,0.3-4,0.5
	s-2,0.5-2.7,0.8c-2.9,1.1-2.9,2.4-1.6,3.6c1.2,1.2,3.5,2.4,5.5,3.3c1,0.4,1.9,0.9,2.6,1.2c0.7,0.3,1.1,0.5,1.1,0.5
	c3.3,1.6,6.1,2.8,8.9,4c2.7,1.1,5.3,2.1,8,3.1c5.1,1.5,10.9,3.7,17.7,9c5.4,5.2,7.9,9.3,10.2,13.4c0.6,1,1.2,2,1.7,3.1
	c0.3,0.5,0.6,1.1,0.9,1.6c0.3,0.6,0.6,1.1,0.9,1.7c0.2,0.3,0.3,0.6,0.5,0.9l0.2,0.3l0.1,0.1l0.1,0.3l0.3,0.6
	c0.2,0.4,0.3,0.8,0.5,1.1c0.7,1.5,1.4,3.1,2.2,4.8c0.2,0.4,0.3,0.9,0.5,1.4s0.3,1,0.5,1.5c0.3,1,0.7,2,1,3c0.2,0.5,0.3,1,0.5,1.6
	l0.1,0.4c0,0.1,0.1,0.3,0.1,0.5c0.1,0.4,0.1,0.7,0.2,1.1c0.3,1.5,0.5,3,0.8,4.5c0.2,1.3,0.4,2.7,0.6,4l0.1,0.5
	c0,0.2,0.1,0.3,0.1,0.6c0,0.5,0,1,0.1,1.5c0,1,0.1,2,0.1,3.1c1.1,0,2.3,0.1,3.3,0.1c0.8,0,1.5,0,2.3,0h1.7h1.2c0.3,0,0.6,0,0.9,0.1
	c0.2,0,0.4,0.1,0.5,0.1c0.2,0,0.3,0.1,0.4,0.2s0.2,0.1,0.2,0.2c0,0,0.1,0.1,0.1,0.3c0.1-0.3,0-0.7,0.3-1c0.1-0.4,0.5-0.7,0.8-1.6
	c0.1,0.2,0.3,0.5,0.5,0.8c0.2-0.4,0.4-0.8,0.7-1.1c0.4-0.3,0.8-0.4,1.2-0.1v0.5c0.4-0.8,1.4-1.1,2.1-1.4c0.4-0.1,0.7-0.2,1.1-0.3
	c0.5-0.1,0.8-0.3,1.1-0.5v0.6l2-0.5l0.1-2v-0.5l0.1,1.4v-0.9c0-0.3,0-0.6,0-0.8l0.1-1.2l0.3-2.4l0.6-4.5l0.3-2.2
	c0-0.2,0-0.4,0.1-0.5l0.1-0.4l0.2-0.8c0.3-1,0.6-2,0.9-3s0.6-1.9,0.9-2.9c0.4-0.8,0.8-1.6,1.2-2.4c0.4-0.8,0.8-1.6,1.2-2.3
	c0.2-0.4,0.4-0.8,0.6-1.1c0.2-0.4,0.4-0.7,0.7-1.2c-0.4-0.1-0.9,0.1-1.3,0c0.1-0.1,0.4-0.6,0.4-0.5l0.2-0.3c0.1-0.2,0.3-0.3,0.4-0.5
	c0.3-0.3,0.5-0.6,0.7-1c0.4-0.6,0.9-1.2,1.2-1.8c0.7-1.1,1.3-2.2,1.9-3.2c1.2-2,2.5-4,5.2-5.9l0.1,0.3c1.6-4,4.5-5.9,7.3-7.7
	c2.9-1.7,5.8-3.2,8.5-6.8c-0.7,0.9,0.7,0.3,0.8,0.5c1.5-1.2,3.2-2.3,4.4-3.5c1.2-1.1,1.8-2.1,1.3-3.1c0.2-0.1,0.3-0.2,0.5-0.2
	l0.2-0.1l0.2-0.1c0.1,0,0.2-0.1,0.3-0.1c0.4-0.2,0.7-0.3,1-0.4c0.6-0.2,1-0.3,1.3-0.2c0.6,0,0.8,0.4,1.4,0.6c-0.3-0.4,0.4-1.1,1.6-2
	c1.3-0.8,3.1-1.6,4.8-2.3l-1.3,0.9l2.3-1l2.6-0.9l2.5-0.9c0.4-0.1,0.8-0.3,1.3-0.4l1.4-0.4l0.2-0.6c-0.7,0-1.4,0.1-2.2,0.1l-2.6-0.1
	c0.4-0.1,0.8-0.2,1.2-0.2c1.4-0.7,2.3-0.6,3.1-0.6c0.4,0,0.7,0,1-0.2c0.1-0.1,0.3-0.2,0.4-0.4c0.1-0.2,0.2-0.4,0.3-0.6l-2.4-0.3
	c0.8-0.6,1.8-1.2,2.7-1.6c0.9-0.4,1.8-0.8,2.6-1.2c0.8-0.4,1.5-0.6,2.1-1s1.1-0.6,1.5-0.9l0.3-0.2l0.1-0.1l0.1-0.1c0,0,0,0-0.1,0
	L1219.4,1452z"/>
<path class="st0" d="M1623.6,730.6l-0.6-0.4l-0.3-0.2c-0.1-0.1-0.2-0.2-0.3-0.3l-0.7-0.6c-0.2-0.2-0.5-0.6-0.7-0.9l-0.4-0.5
	c-0.1-0.2-0.3-0.3-0.4-0.6c-0.3-0.5-0.6-0.9-0.9-1.4c-0.1-0.3-0.3-0.4-0.5-0.7l-0.5-1c-0.3-0.7-0.7-1.4-1-2l-5.8-1.1
	c-0.9-0.2-1.9-0.3-2.8-0.5l-2.3-0.7c-1.5-0.5-3.1-0.9-4.5-1.4s-2.7-1.1-4.1-1.6c-0.7-0.3-1.4-0.5-2-0.8l-1.1-0.5
	c-0.7-0.3-1.5-0.7-2.2-1c-1.4-0.7-2.8-1.5-4.2-2.3c-5.4-3.2-10.1-7.4-13.5-12.2l0.3-1.4c0.5-0.7-0.7-1.1-2-1.6s-2.6-1.1-2.2-1.8
	c-0.6-0.4-1.3-0.7-1.9-1.1c-0.1-0.6-0.6-1.8,0.4-1.2c-1.1-1.5-1.3-1.4-2.5-2.2l-0.2-2.2c-1.6-3.3-3.5-6.1-5.3-9
	c-1.8-3-3.4-6.1-4.3-9.9c-0.1-2.6-0.6-5.8-1.1-9.2c-0.4-3.4-0.9-7.2-1.2-10.9h-2.3c0,0,0,0,0,0h-11.3c0,0,0,0,0,0h-2.5
	c0.4,6,0.3,12-0.3,16.6c-0.2,3.6-1.2,7.3-2.9,10.8c-1.7,3.5-3.9,6.8-6.3,9.8c-2.4,3.1-5.1,5.9-7.6,8.6c-2.6,2.8-5,5.5-7.3,8.5
	c-0.5,0.1-1.1,1.3-1,1.5c-3.5,2.8-7.2,5.4-11,7.6c0,0-0.9,0.5-2.3,1.3c-0.7,0.4-1.6,0.9-2.6,1.4s-2.1,1.1-3.3,1.7
	c-4.8,2.3-11,4.7-15.9,6.5c-2.4,0.9-4.5,1.8-5.9,2.6c-1.3,0.9-2,1.7-1.4,2.6c0.6,0.9,2.3,1.9,5.8,2.6c0.9,0.2,1.8,0.4,2.9,0.5
	c1.1,0.1,2.3,0.2,3.6,0.3c1.3,0.1,2.8,0.1,4.4,0.1c1.6-0.1,3.3-0.1,5.1-0.3l-0.2,0.5c8.4-2.1,13.5-4.5,17.6-9.2
	c1,0.7,2.5-0.2,4.1-1.3c1.5-1.2,3-2.6,4-3v0.3c0.8-1.2,1.8-2.1,2.8-2.9c1-0.8,2.2-1.5,3.3-2.3c1.1-0.8,2.3-1.5,3.2-2.4
	c1-0.9,1.9-1.9,2.4-3.1c0,0.3,0.4,0.8-0.4,1.7c0.6-0.7,1.2-1.5,1.9-2.3c0.6-0.8,1.3-1.6,1.8-2.2c1.1-1.4,2.2-2.3,2.8-2
	c2.7-3.6,5.7-8.1,8-12.6c1.8-3.7,3.1-7.3,3.5-10.2c1,1.8,1.5,3.5,2.1,5.3c0.4,1.1,0.7,2.2,1.2,3.2c0.5,0.9,1.1,1.8,1.9,2.3
	c1.8,2.2,1.7,3.4,1.7,4.6c0.1,1.1,0.2,2.3,2.8,4.1l0.3,2.7c1.4,2.2,2.4,0.4,3.8,3c-0.8,0.4,1.9,3.1,0.2,2.4c1.7,2.9,4.5,4.9,7.3,7
	c3,2.1,6,4.3,8.9,7.6c1.2-0.1,2.6,0.5,3.9,1.2c1.3,0.7,2.6,1.3,3.5,1.1c-0.2,0.8,7.5,4.1,2.5,3.3c-0.4-0.1-1.1-0.4-0.9-0.7l-1,0.6
	c0.4,0.5,0.9,0.9,1.4,1.3c0.2,0.2,0.5,0.4,0.7,0.5l0.4,0.2l0.2,0.1c0.1,0-0.1,0-0.1-0.1c0.1,0,0.3-0.1,0.6-0.2
	c0.5-0.3,1.6-0.5,1.9-0.2c0.1-0.3-0.4-0.4,0.6-0.7l0.9,0.5l-0.3,0.1c-0.4,0.1-0.7,0.2-1.1,0.3l0.1,0.1c0.2,0.2,0.2,0.3,0.3,0.5
	c0.6-0.1,1.2-0.3,1.7-0.4c-0.1,0.2-1,0.4-1.6,0.5c-0.5,0.1-0.7,0.1,1.4,0.1c1.2,0,1.9-0.1,2.4-0.2c0.6-0.1,1-0.1,1.9-0.1
	c-0.2,0.2-0.6,0.3-1.2,0.5c-1.4,0.1-2.8,0.3-4.1,0.4c2.9,0.1,2.5,0.2,2.7,0.3l-2.3-0.1c0.5,0.1,0.4,0.2,0,0.2
	c-0.3,0-0.9-0.1-1.5-0.1c-0.4,0-0.8-0.1-1.5-0.2c-0.1,0-0.2,0-0.2,0c0.6,0.1,1.1,0.3,1.6,0.5l0.6,0.2c0.5,0.3,0.4,0.5,0.2,0.5
	c-0.2,0-0.6-0.1-0.9-0.1c-0.3-0.1-0.6-0.2-0.7-0.1s0.1,0.3,0.3,0.9c0.2-0.2,0.8,0.2,1.1,0.5c0.4,0.4,0.4,0.9-0.3,1
	c-0.1-0.3-0.3-0.6-0.5-0.8c-0.3,0.4-0.2,0.8-0.7,0.8c0-0.3-0.2-0.6-0.4-0.8c-0.1-0.1-0.2-0.2-0.3-0.2c0,0,0.2-0.1,0.1-0.1h-0.1
	l-0.1,0.1c-0.1,0-0.2,0.1-0.3,0.1c-0.2,0.1-0.4,0.2-0.7,0.4l0.4-0.9l0.2-0.5v0l-0.1,0.1l-0.4,0.5l-0.7,0.9c-0.5,0.6-1,1.2-1.5,1.8
	c-3.4,0.8-7.2,4.8-9.1,4.5c0,0-1.6,0.9-3.2,2.2c-1.6,1.2-3.2,2.8-3.4,3.9c0.3-0.8-0.4-0.7-1.2-0.5c-0.7,0.2-1.5,0.4-1.4-0.4
	c-0.8,2.1-4.3,6.5-6.6,7.4l0.2-0.4c-3.3,2.7-5.4,5.8-7.2,8.8c-0.9,1.5-1.8,3-2.7,4.5c-0.5,0.8-1,1.5-1.5,2.2
	c-0.3,0.4-0.5,0.8-0.8,1.1l-0.4,0.6l-0.2,0.3c1,0.5,0.1,0.9,1.3,1.8c0,0.8-0.3,1.5-0.7,1.8c-0.3,0.4-0.6,0.4-0.8,0.5
	c-0.4,0.2-0.4,0.7-0.1,5.7c-0.2,1-0.3,0.9-0.5,0.5c-0.1-0.4-0.2-1.2-0.3-1.2v-0.9c-0.2,1.5-0.3,2.5-0.3,3.3c-0.1,0.8-0.1,1.3-0.2,2
	c0,3.3,0,5-0.1,8.2c0-0.2,0-0.4,0-0.7c0-2.4,0-2.6,0-3.4c0,0,0-0.2,0-0.8c0-0.2,0-1,0-2.9c0,0.8,0,1.1-0.1,1.4c0-0.2,0-0.3,0-0.7
	c-0.1-0.1-0.1,0.8-0.1,1.7c0,0.3,0,0.5,0,1.9c0-2.4-0.2-3.2-0.2-4c-0.1-0.8-0.2-1.6-0.1-3.5c-0.4-1.2-0.9-1.6-1.7-2.5
	c-0.6-0.7-1.5-1.6-2.4-3.1c0.3-1,1.2-0.8,1.7-0.3c-0.3-0.6-0.7-1.1-1.1-1.7c0.4-0.4,0.7-0.2,0.9,0.1c0.2,0.3,0.3,0.7,0.5,0.9
	c0-1-0.1-1.5-0.4-1.9c-0.1-0.2-0.3-0.4-0.5-0.6l-0.1-0.1v0.1l-0.1-0.1l-0.3-0.5l-0.7-0.9c-1.9-2.5-4-4.8-5.3-7.9l-1.5-0.6l-0.1-0.4
	c-0.3,0.3-1.7-0.5-2.4-1.2c0.1-1.3,1.7-1.3-0.5-3.8c-0.5-1.3-1.9-2.6-3.4-3.8c-0.8-0.6-1.6-1.2-2.4-1.7s-1.6-1-2.3-1.5
	c1.2,1.3,0.4,1.3-0.3,1c-0.6-0.5-0.9-1.1-1.2-1.7c-0.3-0.5-0.7-1-1.3-1.2l0.5-0.8c-0.4,0.2-1.2-0.2-2-0.7c-1.1-0.6-2.3-1.3-2.7-1.2
	c-0.2-1.3,2.5,0.9,3.2,0.6c-2.6-1.9-3.3-2.4-4-2.9c-0.3-0.2-0.7-0.5-1.3-0.9c-0.6-0.4-1.4-1-2.8-1.8c-3.4-1.1-0.1,1.3-2.1,1.4
	c-2.7-1.4-5.6-2.1-8.3-4.3c0.2,0.5,0.3,1,0.4,1.5c-5.3-1.8-8.2-3.1-11.3-5.5c-5.2-0.7-9.3-0.7-12.4-0.5c-1.6,0.1-2.9,0.3-4,0.5
	s-2,0.5-2.7,0.8c-2.9,1.1-2.9,2.4-1.6,3.6c1.2,1.2,3.5,2.4,5.5,3.3c1,0.4,1.9,0.9,2.6,1.2c0.7,0.3,1.1,0.5,1.1,0.5
	c3.3,1.6,6.1,2.8,8.9,4c2.7,1.1,5.3,2.1,8,3.1c5,1.3,10.9,3.6,17.7,8.9c5.4,5.2,7.9,9.3,10.2,13.4c0.6,1,1.2,2,1.7,3.1
	c0.3,0.5,0.6,1.1,0.9,1.6c0.3,0.6,0.6,1.1,0.9,1.7c0.2,0.3,0.3,0.6,0.5,0.9l0.2,0.3l0.1,0.1l0.1,0.3l0.3,0.6
	c0.2,0.4,0.3,0.8,0.5,1.1c0.7,1.5,1.4,3.1,2.2,4.8c0.2,0.4,0.3,0.9,0.5,1.4s0.3,1,0.5,1.5c0.3,1,0.7,2,1,3c0.2,0.5,0.3,1,0.5,1.6
	l0.1,0.4c0,0.1,0.1,0.3,0.1,0.5c0.1,0.4,0.1,0.7,0.2,1.1c0.3,1.5,0.5,3,0.8,4.5c0.2,1.3,0.4,2.7,0.6,4l0.1,0.5
	c0,0.2,0.1,0.3,0.1,0.6c0,0.5,0,1,0.1,1.5c0,1,0.1,2,0.1,3.1c1.1,0,2.3,0.1,3.3,0.1c0.8,0,1.5,0,2.3,0h1.7h1.2c0.3,0,0.6,0,0.9,0.1
	c0.2,0,0.4,0.1,0.5,0.1c0.2,0,0.3,0.1,0.4,0.2c0.1,0.1,0.2,0.1,0.2,0.2c0,0,0.1,0.1,0.1,0.3c0.1-0.3,0-0.7,0.3-1
	c0.1-0.4,0.5-0.7,0.8-1.6c0.1,0.2,0.3,0.5,0.5,0.8c0.2-0.4,0.4-0.8,0.7-1.1c0.4-0.3,0.8-0.4,1.2-0.1v0.5c0.4-0.8,1.4-1.1,2.1-1.4
	c0.4-0.1,0.7-0.2,1.1-0.3c0.5-0.1,0.8-0.3,1.1-0.5v0.6l2-0.5l0.1-2v-0.5l0.1,1.5v-0.9c0-0.3,0-0.6,0-0.8l0.1-1.2l0.3-2.4l0.6-4.5
	l0.3-2.2c0-0.2,0-0.4,0.1-0.5l0.1-0.4l0.2-0.8c0.3-1,0.6-2,0.9-3s0.6-1.9,0.9-2.9c0.4-0.8,0.8-1.6,1.2-2.4c0.4-0.8,0.8-1.6,1.2-2.3
	c0.2-0.4,0.4-0.8,0.6-1.1c0.2-0.4,0.4-0.7,0.7-1.2c-0.4-0.1-0.9,0.1-1.3,0c0.1-0.1,0.4-0.6,0.4-0.5l0.2-0.3c0.1-0.2,0.3-0.3,0.4-0.5
	c0.3-0.3,0.5-0.6,0.7-1c0.4-0.6,0.9-1.2,1.2-1.8c0.7-1.1,1.3-2.2,1.9-3.2c1.2-2,2.5-4,5.2-5.9l0.1,0.3c1.6-4,4.5-5.9,7.3-7.7
	c2.9-1.7,5.8-3.2,8.5-6.8c-0.7,0.9,0.7,0.3,0.8,0.5c1.5-1.2,3.2-2.3,4.4-3.5c1.2-1.1,1.8-2.1,1.3-3.1c0.2-0.1,0.3-0.2,0.5-0.2
	l0.2-0.1l0.2-0.1c0.1,0,0.2-0.1,0.3-0.1c0.4-0.2,0.7-0.3,1-0.4c0.6-0.2,1-0.3,1.3-0.2c0.6,0,0.8,0.4,1.4,0.6c-0.3-0.4,0.4-1.1,1.6-2
	c1.3-0.8,3.1-1.6,4.8-2.3l-1.3,0.9l2.3-1l2.6-0.9l2.5-0.9c0.4-0.1,0.8-0.3,1.3-0.4l1.4-0.4l0.2-0.6c-0.7,0-1.4,0.1-2.2,0.1l-2.6-0.1
	c0.4-0.1,0.8-0.2,1.2-0.2c1.4-0.7,2.3-0.6,3.1-0.6c0.4,0,0.7,0,1-0.2c0.1-0.1,0.3-0.2,0.4-0.4s0.2-0.4,0.3-0.6l-2.4-0.3
	c0.8-0.6,1.8-1.2,2.7-1.6c0.9-0.4,1.8-0.8,2.6-1.2c0.8-0.4,1.5-0.6,2.1-1s1.1-0.6,1.5-0.9l0.3-0.2l0.1-0.1V730.6
	C1623.7,730.6,1623.7,730.6,1623.6,730.6z"/>
<path class="st0" d="M1540.9,1302.6l-0.5-0.4l-0.1-0.1l-0.1-0.2l-0.3-0.4c-0.4-0.6-0.8-1.2-1.2-1.8l-0.3-0.4l-0.4-0.8
	c-0.2-0.5-0.5-1.1-0.8-1.6l-4.3-0.8l-2.1-0.4c-0.7-0.2-1.2-0.4-1.7-0.6c-2.2-0.8-4.4-1.5-6.6-2.3l-0.8-0.3l-0.4-0.1l-0.2-0.1
	c-0.1,0-0.1,0-0.1-0.1l-0.8-0.4l-1.7-0.8c-1.1-0.6-2.2-1.1-3.2-1.7s-2-1.3-3-2s-1.8-1.5-2.7-2.3c-1.8-1.5-3.2-3.3-4.6-5.1l0.2-1
	c0.4-0.5-0.5-0.9-1.5-1.3s-2-0.8-1.7-1.4c-0.5-0.3-1-0.5-1.4-0.8c-0.1-0.5-0.4-1.4,0.3-0.9c-0.8-1.2-1-1.1-1.9-1.7l-0.2-1.7
	c-0.6-1.3-1.2-2.4-1.9-3.5l-0.5-0.8c-0.2-0.3-0.3-0.6-0.5-0.8l-1-1.7c-0.3-0.6-0.7-1.1-1-1.7s-0.6-1.2-0.9-1.8
	c-0.3-0.6-0.5-1.3-0.8-1.9c-0.2-0.7-0.5-1.3-0.6-2.1c-0.2-4-1.3-9.6-1.7-15.3h-12c0,1.1,0,2.3,0.1,3.4c0,1.1,0.1,2.2,0,3.3
	c-0.1,2.1-0.1,4.2-0.4,5.9c-0.1,1.4-0.3,2.8-0.6,4.1c-0.4,1.4-0.9,2.7-1.5,4c-1.3,2.6-2.9,5.1-4.8,7.4c-3.7,4.7-7.9,8.5-11.3,13
	c-0.4,0.1-0.9,1-0.7,1.1l-2,1.6c-0.7,0.5-1.3,1.1-2.1,1.5l-2.1,1.4c-0.7,0.5-1.4,0.9-2.2,1.3c0,0-0.7,0.4-1.8,1
	c-0.6,0.3-1.2,0.7-2,1.1s-1.6,0.8-2.5,1.2c-3.6,1.9-8.3,3.5-12,5c-3.7,1.3-6.3,2.6-5.5,4c0.4,0.7,1.7,1.3,4.4,1.9
	c0.7,0.1,1.4,0.3,2.2,0.4c0.8,0.1,1.7,0.1,2.7,0.2c1,0,2.1,0.1,3.3,0.1c1.2,0,2.5-0.2,3.9-0.3l-0.2,0.4c3.2-0.7,5.7-1.7,7.9-2.7
	c0.6-0.2,1.1-0.5,1.5-0.9c0.5-0.3,0.9-0.7,1.4-1c0.9-0.7,1.7-1.5,2.5-2.3c0.8,0.6,1.9-0.2,3-1.1s2.3-1.9,3-2.2v0.2
	c1.1-1.8,2.9-2.8,4.7-3.9c1.7-1.2,3.4-2.4,4.3-4.2c0,0.2,0.2,0.5-0.1,0.9c0.8-1.1,1.7-2.3,2.6-3.2c0.9-1,1.7-1.7,2.1-1.5
	c1-1.4,2-3,3.1-4.5c1.1-1.6,2-3.4,2.9-5c0.5-0.8,0.8-1.7,1.1-2.5c0.3-0.8,0.6-1.6,0.9-2.4c0.2-0.8,0.5-1.5,0.6-2.2
	c0-0.1,0-0.2,0-0.2c0.7,1.2,1.1,2.5,1.5,3.6c0.3,0.9,0.5,1.7,0.9,2.4c0.4,0.7,0.9,1.3,1.5,1.7c1.4,1.7,1.2,2.6,1.3,3.5
	c0.1,0.9,0.2,1.7,2.2,3.1l0.2,2c1.1,1.6,1.9,0.3,2.9,2.2c-0.6,0.3,1.4,2.4,0.1,1.8c0.3,0.5,0.7,1.1,1.1,1.5c0.4,0.5,0.9,0.9,1.4,1.3
	c1,0.8,2,1.6,3.1,2.5c1.1,0.8,2.3,1.5,3.4,2.5c0.6,0.5,1.1,1,1.7,1.5s1.1,1.1,1.7,1.7c0.9-0.1,2,0.4,2.9,1c1,0.6,2,1,2.6,0.8
	c-0.1,0.5,5.6,3.2,1.9,2.5c-0.3-0.1-0.8-0.3-0.7-0.5l-0.7,0.4c0.3,0.4,0.7,0.7,1,1c0.2,0.1,0.4,0.3,0.5,0.4l0.3,0.2l0.2,0.1
	c0.1,0,0.2-0.1,0.4-0.1c0.4-0.2,1.2-0.3,1.5-0.2c0.1-0.2-0.3-0.3,0.5-0.5l0.7,0.4c-0.4,0.1-0.7,0.2-1,0.3l0.1,0.1
	c0.1,0.1,0.2,0.3,0.2,0.3c0.5-0.1,0.9-0.2,1.3-0.3c-0.1,0.1-0.8,0.3-1.2,0.4c-0.4,0.1-0.5,0.1,1.1,0.1c0.9,0,1.4-0.1,1.8-0.2
	s0.7-0.1,1.4-0.1c-0.1,0.1-0.5,0.3-0.9,0.3c-1,0.1-2.1,0.2-3.1,0.3c2.2,0.1,1.9,0.1,2,0.2l-1.7-0.1c0.4,0.1,0.3,0.2,0,0.2
	s-0.7,0-1.1-0.1c-0.8-0.1-1.6-0.3-1.2-0.1c0.3,0.1,0.6,0.2,0.9,0.2l0.7,0.2c0.4,0.2,0.3,0.3,0.1,0.4c-0.2,0-0.4,0-0.7-0.1
	c-0.2-0.1-0.4-0.1-0.5-0.1c-0.1,0.1,0.1,0.2,0.2,0.7c0.1-0.1,0.6,0.1,0.8,0.4c0.3,0.3,0.3,0.7-0.2,0.8c-0.1-0.2-0.2-0.4-0.3-0.6
	c-0.2,0.3-0.2,0.6-0.5,0.6c0-0.2-0.1-0.5-0.3-0.6c-0.1-0.1-0.1-0.1-0.3-0.1c-0.3,0.1-0.6,0.2-0.9,0.5l0.6-1.4
	c-0.8,0.9-1.5,1.8-2.3,2.7c-2.6,0.6-5.5,3.6-6.9,3.4c0,0-1.2,0.7-2.4,1.6c-1.2,0.9-2.4,2.2-2.6,3c0.4-1.3-2.1,0.5-2-0.6
	c-0.6,1.6-3.3,4.9-5,5.6l0.2-0.3c-2.5,2-4.1,4.4-5.4,6.7c-1.4,2.3-2.5,4.6-4.4,6.8c0.9,0.2-1,2.6,0.4,2.5c-0.5,1.4-1,2.7-1.7,3.8
	c-0.3,0.6-0.6,1.2-0.9,1.7c-0.6-1.1-1.2-2.1-1.9-3.2c0.3-0.7,1.2,0.1,2,1.3l-1.7-3.2c0.7-0.3,1.3,1.7,1.9,2.6
	c-0.2-1.1-0.6-2.1-1.1-3.1c-0.3-0.5-0.6-1-0.9-1.5s-0.7-0.9-1.1-1.4c-0.7-0.9-1.5-1.8-2.2-2.8c-0.3-0.5-0.7-1-1-1.5
	s-0.6-1.1-0.9-1.7l-1-0.5c0-0.1-0.1-0.1-0.1-0.2l0-0.1c0,0,0,0,0,0c0,0,0-0.1-0.1-0.1l0,0.1c-0.4,0.1-1.3-0.4-1.7-0.9
	c0.1-1,1.3-1-0.4-2.8c-0.4-0.9-1.4-2-2.6-2.9s-2.6-1.7-3.6-2.4c0.9,1,0.3,1-0.3,0.8c-0.4-0.4-0.7-0.9-0.9-1.3
	c-0.3-0.4-0.5-0.7-1-0.9l0.4-0.6c-0.6,0.4-3-1.5-3.6-1.4c-0.1-1,1.8,0.7,2.4,0.5c-2-1.5-2.4-1.9-3-2.2c-0.5-0.3-1-0.7-3.1-2
	c-2.6-0.9-0.1,1-1.6,1c-1-0.6-2.1-0.9-3.1-1.4c-1.1-0.5-2.1-1-3.1-1.9c0.1,0.4,0.2,0.8,0.3,1.1c-4.1-1.3-6.2-2.4-8.6-4.1
	c-1-0.1-1.9-0.3-2.8-0.4s-1.7-0.1-2.5-0.1c-1.6,0-2.9-0.1-4.1,0c-2.4,0.2-4,0.6-5.1,1c-2.2,0.8-2.2,1.8-1.2,2.7
	c0.9,0.9,2.6,1.9,4.1,2.5c0.8,0.3,1.4,0.7,1.9,0.9c0.5,0.2,0.8,0.4,0.8,0.4c5,2.3,8.7,3.9,12.8,5.3c1,0.4,2,0.9,3.1,1.3
	c0.5,0.2,1.1,0.4,1.6,0.7c0.5,0.3,1.1,0.6,1.6,0.8c0.6,0.3,1.1,0.6,1.7,0.9s1.2,0.6,1.8,1c1.7,1.7,3,2.5,4.3,3.5c1,1,1.9,2,2.7,2.8
	c0.4,0.4,0.8,0.9,1.1,1.3c0.3,0.4,0.6,0.9,0.9,1.3c0.6,0.8,1.2,1.6,1.7,2.4s0.9,1.6,1.4,2.4c1.8,3.1,3.4,6.2,5.8,11.3
	c0.2,0.6,0.4,1.3,0.7,1.9c0.2,0.6,0.5,1.3,0.7,1.9c0.4,1.3,0.7,2.7,1.1,4c0.5,2.7,1.2,5.4,1.3,8.1c0.4,0.7,0.6,1.5,0.7,2.4h13.6
	c-0.2-2.5,0.5-5.5,0.1-7.8c0.3-0.4,0.6-0.7,0.9-1c-0.1-0.5-0.1-1.1-0.1-1.7c0.1-0.6,0.2-1.1,0.5-1.6l0.2,0.1
	c-0.1-0.8,0.1-1.6,0.3-2.3c0.2-0.7,0.4-1.3,0.4-1.7l0.2,0.1l0.5-1.8l0.2,0.4c0.4-2.7,1.6-5.3,3-7.3l-0.9-0.2c0.9-1,1.5-2,2.1-2.8
	c0.5-0.9,1-1.6,1.4-2.4c0.9-1.5,1.9-3,3.9-4.4l0.1,0.2c1.2-3.1,3.4-4.5,5.5-5.8c2.2-1.3,4.4-2.4,6.5-5.1c-0.5,0.7,0.5,0.2,0.6,0.4
	c1.2-0.9,2.5-1.8,3.3-2.6c0.9-0.8,1.4-1.6,1-2.4c0.1-0.1,0.2-0.1,0.3-0.2c0.1,0,0.1-0.1,0.2-0.1l0.1-0.1h0.1h0.1
	c0.3-0.1,0.6-0.2,0.8-0.3c0.4-0.1,0.7-0.2,1-0.2c0.5,0,0.6,0.3,1,0.4c-0.3-0.3,0.3-0.9,1.2-1.5c1-0.6,2.3-1.2,3.7-1.8l-1,0.7
	l1.8-0.8l2-0.7c1.3-0.5,2.5-0.9,4-1.3l0.1-0.4c-0.4,0-0.9,0-1.3,0l-2.4-0.1c0.4-0.1,0.8-0.2,1.1-0.2c1-0.5,1.7-0.4,2.3-0.4
	c0.3,0,0.5,0,0.7-0.2s0.4-0.5,0.5-0.8l-1.8-0.3c0.6-0.4,1.3-0.9,2-1.2c0.7-0.3,1.4-0.6,1.9-0.9c0.6-0.3,1.1-0.5,1.6-0.7
	c0.5-0.3,0.8-0.5,1.1-0.7l0.2-0.2l0.1-0.1c0,0,0.1-0.1,0-0.1L1540.9,1302.6z"/>
<path class="st0" d="M892,364.4l-0.2-0.2l-0.2-0.3c-0.2-0.2-0.3-0.4-0.5-0.7c-0.2-0.2-0.4-0.4-0.6-0.7l-0.7-1.2
	c-0.2-0.4-0.5-0.8-0.7-1.2l-0.4-0.6c-0.1-0.2-0.3-0.6-0.4-0.9c-1.7-0.4-3.4-0.8-5.2-1.2l-1.3-0.3l-0.6-0.1l-0.5-0.2l-1.8-0.8
	c-1.2-0.5-2.4-1.1-3.6-1.6c-0.2-0.1-0.2-0.1-0.3-0.2l-0.2-0.1l-0.5-0.3l-0.9-0.6c-2.4-1.5-4.4-3.6-5.8-5.8l0.4-0.9
	c0.4-0.5-0.3-0.6-1.1-0.8c-0.8-0.2-1.6-0.3-1.3-0.8c-0.4-0.1-0.8-0.3-1.1-0.4c0-0.4-0.2-1,0.4-0.8c-0.5-0.8-0.7-0.7-1.4-1l0.1-1.3
	c-0.9-2.3-2-4.4-3.1-6.4c-0.1-0.1-0.1-0.3-0.2-0.5l-0.1-0.6l-0.3-1.1l-0.6-2.2c-0.4-1.4-0.7-2.8-1.1-4.3h-0.4h-0.3l-0.5-0.1
	c-0.4,0-0.7-0.1-1.1-0.2c-0.3-0.1-0.7-0.2-1-0.3l-0.5-0.2c-0.2-0.1-0.2-0.2-0.3-0.2c-0.3-0.6-0.6-1-1.1-1.4
	c-0.1-0.1-0.2-0.2-0.3-0.3l-0.2-0.1l-0.1-0.1c-0.1-0.2-0.2-0.3-0.3-0.4c-0.1-0.1-0.2-0.3-0.3-0.4c0-0.1-0.1-0.1-0.1-0.2v-0.2
	c-0.1-0.3-0.1-0.5-0.2-0.8c0,0.3-0.1,0.5-0.1,0.8c0,0.3-0.1,0.6-0.3,1c-0.4,0.7-0.5,1.5-1.1,2.2c-0.2,0.4-0.4,0.8-0.7,1.1L849,327
	c-0.1,0.2-0.4,0.3-0.6,0.5c-0.4,0.3-0.9,0.5-1.3,0.8c-0.2,0.1-0.5,0.2-0.7,0.3s-0.4,0.2-0.8,0.2c-0.5,1.6-0.9,3.2-1.4,4.7
	c-0.2,0.8-0.5,1.7-0.7,2.5c-0.3,0.6-0.7,1.1-1.1,1.7l-2.2,3.5l-0.3,0.4l-0.2,0.2l-0.4,0.4l-0.8,0.8c-2,2.1-4,3.9-5.5,6.3
	c-0.3,0-0.5,0.7-0.4,0.8l-1.4,1.1c-0.5,0.4-0.9,0.7-1.4,1l-1.5,0.9c-0.5,0.3-1,0.6-1.5,0.9c0,0-0.5,0.3-1.2,0.7
	c-0.4,0.2-0.8,0.5-1.3,0.8c-0.5,0.3-1.1,0.5-1.7,0.8c-2.4,1.3-5.7,2.5-8.1,3.7c-2.5,1.1-4.3,2.3-3.7,3.7c0.3,0.7,1.3,1.4,3.2,2.1
	c0.5,0.2,1,0.4,1.6,0.5c0.3,0,0.6,0.1,0.9,0.2c-0.5,0-1,0.1-1.4,0.1c-1.7,0.4-2.9,0.8-3.7,1.3c-1.6,0.9-1.7,1.9-1,2.7
	c0.6,0.9,1.7,1.7,2.7,2.2c0.5,0.3,1,0.5,1.3,0.7s0.5,0.3,0.5,0.3c3.3,1.8,5.7,2.8,8.6,3.7c2.3,0.8,5.4,1.7,9,4.4
	c1.3,1.3,2.3,2.5,3,3.6c0.4,0.6,0.7,1.1,1,1.6s0.5,1.1,0.8,1.6l0.4,0.8l0.2,0.4l0.1,0.2l0.2,0.5c0.5,1.2,1.1,2.5,1.8,3.9
	c0.3,0.7,0.7,1.4,1,2.1c0.1,0.2,0.2,0.3,0.3,0.6s0.1,0.6,0.2,0.9c0.1,0.6,0.2,1.3,0.3,1.9c0.5,2.6,1,5.4,1.6,8.3
	c0.4,0,0.9-0.1,1.4-0.1c0.6,0.1,1.2,0.1,1.8,0.1c0.5,0,1.1,0,1.6,0c0.6,0,1.2,0,1.8,0s1.2,0.1,1.2,0.3c0,0,0.1,0.1,0.1,0.2
	c0.1-0.2,0.1-0.4,0.2-0.5c0-0.2,0.3-0.4,0.5-0.9c0.1,0.1,0.1,0.2,0.2,0.4c0.1-0.2,0.2-0.4,0.3-0.6c0.2-0.1,0.4-0.2,0.6,0v0.3
	c0.3-0.4,0.6-0.6,0.9-0.7c0.1-0.1,0.3-0.1,0.4-0.2c0.2-0.1,0.4-0.2,0.6-0.3v0.3l1.4-0.4l-0.1,0.6c0.4-0.2,0.7-0.5,1.1-0.7l0.5-0.3
	l0.3-0.1l0.4-0.1c0.3-1.9,0.7-3.7,1-5.5c0.2-0.8,0.4-1.7,0.6-2.5c0.1-0.4,0.2-0.8,0.3-1.2l0.1-0.3l0.1-0.2l0.2-0.3l-0.7-0.6
	c1-1.4,1.8-2.7,2.4-3.9c0.2-0.3,0.3-0.6,0.5-0.9c0.1-0.3,0.3-0.7,0.4-0.7c0.2-0.3,0.3-0.5,0.5-0.8c0.6-1.1,1.1-2.1,2.7-3l0.1,0.2
	c0.1-0.6,0.3-1.1,0.6-1.5c0.2-0.4,0.6-0.8,0.9-1.1c0.7-0.6,1.4-1.1,2.2-1.4c0.8-0.4,1.6-0.7,2.3-1.3s1.5-1.2,2.1-2.3
	c-0.3,0.5,0.4,0.2,0.5,0.4l0.6-0.5c0.1-0.1,0.7-0.4,1-0.7c0.8-0.5,1.6-1,2.1-1.4c1.2-0.9,1.6-1.7,0.9-2.3c0.5-0.3,1.1-0.4,1.5-0.5
	c0.4-0.1,0.7-0.1,1-0.1c0.5,0,0.8,0.2,1.4,0.4c-0.9-0.5,1.2-1.5,3.2-2.3l-0.5,0.5l1.1-0.4c0.3-0.9,0.6-1.6,0.9-2.4
	c-0.7,0.1-1.5,0.1-2.3,0.1c0.9-0.5,1.5-0.6,1.9-0.6c0.2,0,0.4,0,0.6-0.1c0.2-0.1,0.3-0.3,0.4-0.5l-1.3-0.1c0.9-0.5,2-0.9,2.9-1.4
	c0.9-0.3,1.6-0.6,2-1l0.1-0.2c0-0.1,0.1-0.1,0-0.1L892,364.4z M823,367.1c0,0-0.1-0.1-0.1-0.1c0.1,0,0.1,0,0.2,0L823,367.1z
	 M875.1,365.6c-0.9,0.1-1.8,0.2-2.7,0.2c2.1,0,1.8,0.1,2,0.2l-1.6-0.1c0.8,0.2-0.1,0.1-1,0.1c-0.9-0.1-1.7-0.2-1.1,0l-0.9-0.1
	c0.9,0.1,1.8,0.3,2.6,0.5c0.6,0.2,0.5,0.3,0.2,0.2c-0.3,0-0.8-0.1-1-0.1s0,0.1,0.5,0.5c0.1-0.1,0.6,0.1,1,0.3s0.6,0.5,0.2,0.5
	c-0.2-0.2-0.4-0.3-0.7-0.4c-0.1,0.2,0.1,0.4-0.2,0.4c-0.2-0.3-0.9-0.7-1.1-0.4c-0.2-0.2-0.4-0.5-0.6-0.7c0.3,0.3,0.5,0.7,0.6,1.2
	c-0.3-0.1-0.5-0.1-0.6,0c0-0.1-0.7,0.4-1.1,0.7c-0.9,0.6-1.6,1.1-2.3,0.9c0,0-0.9,0.4-1.8,1.2c-0.9,0.7-1.8,1.6-1.8,2.3
	c0.1-0.5-0.3-0.5-0.8-0.4c-0.5,0-0.9,0.1-1-0.4c-0.1,0.7-0.7,1.6-1.4,2.5c-0.3,0.4-0.7,0.8-1.1,1.1c-0.4,0.3-0.7,0.6-1.1,0.7
	l0.1-0.2c-1,0.7-1.7,1.5-2.4,2.3c-0.6,0.8-1.1,1.7-1.6,2.6c-0.2,0.4-0.5,0.9-0.7,1.3c-0.2,0.3-0.1,0.2-0.1,0.3s0,0.1-0.1,0.2
	c-0.1,0.2-0.3,0.4-0.5,0.3c0.5,0.8,0.1,0.7,0.7,1.8c0,0.5-0.1,0.9-0.3,1c-0.2,0.3-0.5,0-0.6,0.1c-0.1,0.2-0.1,0.9,0.1,3.8
	c-0.2,1.2-0.4-0.8-0.4-0.9v-0.6c-0.2,1.8-0.2,2.3-0.3,2.9c0,1.9,0,3.2-0.1,5.1c0-0.1,0-0.2,0-0.3c0-0.9,0-1.3,0-1.6
	c0-1.5-0.1-1.9-0.2-2.4c-0.1-0.4-0.1-0.9,0-2.2c-0.1-0.4-0.4-0.5-0.6-0.7c-0.3-0.1-0.7-0.3-1.1-0.7c-0.2-0.2-0.4-0.4-0.6-0.6
	c0.2-0.8,0.6-1,0.9-0.9l-0.6-0.8c0.4-0.8,0.5,0.1,0.7,0.2c0-0.7-0.1-1-0.2-1.2c-0.1-0.1-0.2-0.2-0.3-0.3c-0.1-0.1-0.3-0.2-0.4-0.3
	c-0.3-0.2-0.7-0.4-0.9-0.8c-0.1-0.1-0.1-0.1-0.2-0.3c-0.1-0.2-0.2-0.4-0.4-0.6c-0.2-0.4-0.4-0.8-0.6-1.3l-1-0.2v-0.2
	c-0.3,0.2-1.1-0.2-1.5-0.5c0.2-0.8,1.3-1,0-2.3c-0.2-0.8-1-1.5-1.9-2.1c-0.9-0.6-2-1.1-2.8-1.6c0.6,0.8,0.1,0.8-0.3,0.7
	c-0.3-0.3-0.5-0.7-0.6-1c-0.2-0.3-0.3-0.6-0.7-0.7l0.4-0.6c-0.5,0.5-2.3-0.8-2.8-0.8c0-0.9,1.4,0.4,1.9,0.1c-2.9-2.2-1.4-1.1-4.4-3
	c-2-0.5-0.2,0.9-1.4,1.1c-0.7-0.4-1.5-0.6-2.3-0.9s-1.5-0.7-2.2-1.4c0.1,0.3,0.1,0.7,0.1,1c-2.3-0.5-3.7-1.1-5-2
	c2.3-0.4,4-1.1,5.6-1.9c1.6-0.8,2.8-1.9,3.8-3.3c0.7,0.6,1.5,0.1,2.3-0.6c0.8-0.7,1.6-1.5,2.2-1.6v0.2c0.7-1.5,2.1-2.1,3.4-2.9
	c1.3-0.8,2.6-1.6,3.1-3c0,0.2,0.2,0.5,0,0.8c1.3-1.7,2.7-3.9,3.6-3.4c1-1.6,3-4.3,2.8-4.2c0.3-0.6,0.4-1.2,0.5-2.2c0-0.4,0-1,0-1.6
	l0.1,0.5c-0.1-1.1,0-1.5,0.1-1.7s0.2-0.2,0.2-1.2c0,0.2,0.1,0.3,0.1,0.4c0-1.5,0.2-2.3,0.3-2.8c0.1-0.6,0.2-0.8,0.2-1.8v1.8
	c0.1-0.7,0.1-1.3,0.1-2.1c0-3.3,0-1.9,0.1-1c0,1.3,0,2.1,0.1,1.1c0,0.5,0,0.1,0.1-0.5s0.1-1.5,0.2-2.2c0.1-0.7,0.2-1.3,0.3-1.4
	c0.1-0.1,0.3,0.2,0.4,1.2c0.2-0.4,0.1,0.1,0,0.8s-0.2,1.5,0,1.4c-0.2,2-0.2,0.7-0.3,2.7c0.2,0,0.2,1,0.3,1.8
	c0.1,0.8,0.2,1.5,0.5,1.5l-0.2,1.2c0.2-0.2,0.3-0.1,0.4,0.1c0.3,0.4,0.3,1.2,0.4,1.8c0.1,0.6,0.2,0.9,0.8,0.8
	c0.3,0.2,0.4,0.5,0.4,0.7c0,0.3-0.2,0.5-0.3,0.7c-0.1,0.7,0,1.4,1.6,2.3v1.7c0.8,1.2,1.6,0,2.3,1.5c-0.5,0.3,0.9,1.9-0.1,1.6
	c0.4,0.9,1,1.5,1.8,2.2c0.7,0.6,1.5,1.2,2.3,1.8c0.8,0.5,1.7,1.1,2.5,1.8c0.4,0.3,0.8,0.7,1.2,1.2c0.4,0.4,0.8,0.8,1.2,1.3
	c0.8-0.2,1.6,0.1,2.3,0.5l0.3,0.1c0.1,0,0.2,0.1,0.2,0.1c0.1,0,0.1,0,0.2,0c0.1,0,0.3-0.1,0.5-0.2c-0.2,0.2,0.2,0.4,0.4,0.7
	c0.2,0.2,0.1,0.4-0.7,0.6c-0.1,0-0.2,0,0-0.2c-0.2,0.2-0.4,0.3-0.6,0.5c-0.2,0.5-0.2,0.5,0.1,0.5c0.2-0.1,0.8-0.2,1.2-0.2
	c0.3,0,0.5,0,0.6,0c0.2-0.1-0.1-0.2,0.7-0.4l0.5,0.2l-1.1,0.2c0,0.1,0,0.2,0,0.3l1.4-0.2c-0.2,0.1-0.9,0.2-1.3,0.3
	c-0.4,0.1-0.5,0.1,0.9,0c0.8,0,1.3-0.1,1.8-0.1c0.4-0.1,0.7-0.1,1.3-0.1C876,365.5,875.6,365.6,875.1,365.6z"/>
<path class="st0" d="M1353.2,444.3c0.8-0.4,1.6-0.7,2.3-1.3c0.7-0.6,1.5-1.2,2.1-2.3c-0.3,0.5,0.4,0.2,0.5,0.4l0.6-0.5
	c0.1-0.1,0.7-0.4,1-0.7c0.8-0.5,1.6-1,2.1-1.4c1.2-0.9,1.6-1.7,0.9-2.3c0.5-0.3,1.1-0.4,1.5-0.5c0.4-0.1,0.7-0.1,1-0.1
	c0.5,0,0.8,0.2,1.4,0.4c-0.9-0.5,1.2-1.5,3.2-2.3l-0.5,0.5l1.1-0.4c0.3-0.9,0.6-1.6,0.9-2.4c-0.7,0.1-1.5,0.1-2.3,0.1
	c0.9-0.5,1.5-0.6,1.9-0.6c0.2,0,0.4,0,0.6-0.1c0.2-0.1,0.3-0.3,0.4-0.5l-1.3-0.1c0.9-0.5,2-0.9,2.9-1.4c0.9-0.3,1.6-0.6,2-1l0.1-0.2
	c0-0.1,0.1-0.1,0-0.1l-0.9-0.7l-0.2-0.2l-0.2-0.3c-0.2-0.2-0.3-0.4-0.5-0.7c-0.2-0.2-0.4-0.4-0.6-0.7l-0.7-1.2
	c-0.2-0.4-0.5-0.8-0.7-1.2l-0.4-0.6c-0.1-0.2-0.3-0.6-0.4-0.9c-1.7-0.4-3.4-0.8-5.2-1.2l-1.3-0.3l-0.6-0.1l-0.5-0.2l-1.8-0.8
	c-1.2-0.5-2.4-1.1-3.6-1.6c-0.2-0.1-0.2-0.1-0.3-0.2l-0.2-0.1l-0.5-0.3l-0.9-0.6c-2.4-1.5-4.4-3.6-5.8-5.8l0.4-0.9
	c0.4-0.5-0.3-0.6-1.1-0.8c-0.8-0.2-1.6-0.3-1.3-0.8c-0.4-0.1-0.8-0.3-1.1-0.4c0-0.4-0.2-1,0.4-0.8c-0.5-0.8-0.7-0.7-1.4-1l0.1-1.3
	c-0.9-2.3-2-4.4-3.1-6.4c-0.1-0.1-0.1-0.3-0.2-0.5l-0.1-0.6l-0.3-1.1l-0.6-2.2c-0.4-1.4-0.7-2.8-1.1-4.3h-0.4h-0.3l-0.5-0.1
	c-0.4,0-0.7-0.1-1.1-0.2c-0.3-0.1-0.7-0.2-1-0.3l-0.5-0.2c-0.2-0.1-0.2-0.2-0.3-0.2c-0.3-0.6-0.6-1-1.1-1.4
	c-0.1-0.1-0.2-0.2-0.3-0.3l-0.2-0.1l-0.1-0.1c-0.1-0.2-0.2-0.3-0.3-0.4c-0.1-0.1-0.2-0.3-0.3-0.4c0-0.1-0.1-0.1-0.2-0.2v-0.2
	c-0.1-0.3-0.1-0.5-0.2-0.8c0,0.3-0.1,0.5-0.1,0.8c0,0.3-0.1,0.6-0.3,1c-0.4,0.7-0.5,1.5-1.1,2.2c-0.2,0.4-0.4,0.8-0.7,1.1l-0.3,0.5
	c-0.1,0.2-0.4,0.3-0.6,0.5c-0.4,0.3-0.9,0.5-1.3,0.8c-0.2,0.1-0.5,0.2-0.7,0.3s-0.4,0.2-0.8,0.2c-0.5,1.6-0.9,3.2-1.4,4.7
	c-0.2,0.8-0.5,1.7-0.7,2.5c-0.3,0.6-0.7,1.1-1.1,1.7l-2.2,3.5l-0.3,0.4l-0.2,0.2l-0.4,0.4l-0.8,0.8c-2,2.1-4,3.9-5.5,6.3
	c-0.3,0-0.5,0.7-0.4,0.8l-1.4,1.1c-0.5,0.4-0.9,0.7-1.4,1l-1.5,0.9c-0.5,0.3-1,0.6-1.5,0.9c0,0-0.5,0.3-1.2,0.7
	c-0.4,0.2-0.8,0.5-1.3,0.8s-1.1,0.5-1.7,0.8c-2.4,1.3-5.7,2.5-8.1,3.7c-2.5,1.1-4.3,2.3-3.7,3.7c0.3,0.7,1.3,1.4,3.2,2.1
	c0.5,0.2,1,0.4,1.6,0.5c0.3,0,0.6,0.1,0.9,0.2c-0.5,0-1,0.1-1.4,0.1c-1.7,0.4-2.9,0.8-3.7,1.3c-1.6,0.9-1.7,1.9-1,2.7
	c0.6,0.9,1.7,1.7,2.7,2.2c0.5,0.3,1,0.5,1.3,0.7s0.5,0.3,0.5,0.3c3.3,1.8,5.7,2.8,8.6,3.7c2.4,0.9,5.6,1.8,9.1,4.4
	c1.3,1.3,2.3,2.5,3,3.6c0.4,0.6,0.7,1.1,1,1.6s0.5,1.1,0.8,1.6l0.4,0.8l0.2,0.4l0.1,0.2l0.2,0.5c0.5,1.2,1.1,2.5,1.8,3.9
	c0.3,0.7,0.7,1.4,1,2.1c0.1,0.2,0.2,0.3,0.3,0.6c0.1,0.3,0.1,0.6,0.2,0.9c0.1,0.6,0.2,1.3,0.3,1.9c0.5,2.6,1,5.4,1.6,8.3
	c0.4,0,0.9-0.1,1.4-0.1c0.6,0.1,1.2,0.1,1.8,0.1c0.5,0,1.1,0,1.6,0c0.6,0,1.2,0,1.8,0c0.6,0,1.2,0.1,1.2,0.3c0,0,0.1,0.1,0.1,0.2
	c0.1-0.2,0.1-0.4,0.2-0.5c0-0.2,0.3-0.4,0.5-0.9c0.1,0.1,0.1,0.2,0.2,0.4c0.1-0.2,0.2-0.4,0.3-0.6c0.2-0.1,0.4-0.2,0.6,0v0.3
	c0.3-0.4,0.6-0.6,0.9-0.7c0.1-0.1,0.3-0.1,0.4-0.2c0.2-0.1,0.4-0.2,0.6-0.3v0.3l1.4-0.4l-0.1,0.6c0.4-0.2,0.7-0.5,1.1-0.7l0.5-0.3
	l0.3-0.1l0.4-0.1c0.3-1.9,0.7-3.7,1-5.5c0.2-0.8,0.4-1.7,0.6-2.5c0.1-0.4,0.2-0.8,0.3-1.2l0.1-0.3l0.1-0.2l0.2-0.3l-0.7-0.6
	c1-1.4,1.8-2.7,2.4-3.9c0.2-0.3,0.3-0.6,0.5-0.9c0.1-0.3,0.3-0.7,0.4-0.7c0.2-0.3,0.3-0.5,0.5-0.8c0.6-1.1,1.1-2.1,2.7-3l0.1,0.2
	c0.1-0.6,0.3-1.1,0.6-1.5c0.2-0.4,0.6-0.8,0.9-1.1C1351.7,445.1,1352.4,444.6,1353.2,444.3z M1305.6,429.5c0,0-0.1-0.1-0.1-0.1
	c0.1,0,0.1,0,0.2,0L1305.6,429.5z M1349.9,431.9c0,0-0.9,0.4-1.8,1.2c-0.9,0.7-1.8,1.6-1.8,2.3c0.1-0.5-0.3-0.5-0.8-0.4
	c-0.5,0-0.9,0.1-1-0.4c-0.1,0.7-0.7,1.6-1.4,2.5c-0.3,0.4-0.7,0.8-1.1,1.1c-0.4,0.3-0.7,0.6-1.1,0.7l0.1-0.2c-1,0.7-1.7,1.5-2.4,2.3
	c-0.6,0.8-1.1,1.7-1.6,2.6c-0.2,0.4-0.5,0.9-0.7,1.3c-0.2,0.3-0.1,0.2-0.1,0.3s0,0.1-0.1,0.2c-0.1,0.2-0.3,0.4-0.5,0.3
	c0.5,0.8,0.1,0.7,0.7,1.8c0,0.5-0.1,0.9-0.3,1c-0.2,0.3-0.5,0-0.6,0.1c-0.1,0.2-0.1,0.9,0.1,3.8c-0.2,1.2-0.4-0.8-0.4-0.9v-0.6
	c-0.2,1.8-0.2,2.3-0.3,2.9c0,1.9,0,3.2-0.1,5.1c0-0.1,0-0.2,0-0.3c0-0.9,0-1.3,0-1.6c0-1.5-0.1-1.9-0.2-2.4c-0.1-0.4-0.1-0.9,0-2.2
	c-0.1-0.4-0.4-0.5-0.6-0.7c-0.3-0.1-0.7-0.3-1.1-0.7c-0.2-0.2-0.4-0.4-0.6-0.6c0.2-0.8,0.6-1,0.9-0.9l-0.6-0.8
	c0.4-0.8,0.5,0.1,0.7,0.2c0-0.7-0.1-1-0.2-1.2c-0.1-0.1-0.2-0.2-0.3-0.3c-0.1-0.1-0.3-0.2-0.4-0.3c-0.3-0.2-0.7-0.4-0.9-0.8
	c-0.1-0.1-0.1-0.1-0.2-0.3s-0.2-0.4-0.4-0.6c-0.2-0.4-0.4-0.8-0.6-1.3l-1-0.2v-0.2c-0.3,0.2-1.1-0.2-1.5-0.5c0.2-0.8,1.3-1,0-2.3
	c-0.2-0.8-1-1.5-1.9-2.1c-0.9-0.6-2-1.1-2.8-1.6c0.6,0.8,0.1,0.8-0.3,0.7c-0.3-0.3-0.5-0.7-0.6-1c-0.2-0.3-0.3-0.6-0.7-0.7l0.4-0.6
	c-0.5,0.5-2.3-0.8-2.8-0.8c0-0.9,1.4,0.4,1.9,0.1c-2.9-2.2-1.4-1.1-4.4-3c-2-0.5-0.2,0.9-1.4,1.1c-0.7-0.4-1.5-0.6-2.3-0.9
	c-0.8-0.3-1.5-0.7-2.2-1.4c0.1,0.3,0.1,0.7,0.1,1c-2.3-0.5-3.7-1.1-5-2c2.3-0.4,4-1.1,5.6-1.9c1.6-0.8,2.8-1.9,3.8-3.3
	c0.7,0.6,1.5,0.1,2.3-0.6s1.6-1.5,2.2-1.6v0.2c0.7-1.5,2.1-2.1,3.4-2.9c1.3-0.8,2.6-1.6,3.1-3c0,0.2,0.2,0.5,0,0.8
	c1.3-1.7,2.7-3.9,3.6-3.4c1-1.6,3-4.3,2.8-4.2c0.3-0.6,0.4-1.2,0.5-2.2c0-0.4,0-1,0-1.6l0.1,0.5c-0.1-1.1,0-1.5,0.1-1.7
	c0.1-0.2,0.2-0.2,0.2-1.2c0,0.2,0.1,0.3,0.1,0.4c0-1.5,0.2-2.3,0.3-2.8c0.1-0.6,0.2-0.8,0.2-1.8v1.8c0.1-0.7,0.1-1.3,0.1-2.1
	c0-3.3,0-1.9,0.1-1c0,1.3,0,2.1,0.1,1.1c0,0.5,0,0.1,0.1-0.5s0.1-1.5,0.2-2.2c0.1-0.7,0.2-1.3,0.3-1.4c0.1-0.1,0.3,0.2,0.4,1.2
	c0.2-0.4,0.1,0.1,0,0.8s-0.2,1.5,0,1.4c-0.2,2-0.2,0.7-0.3,2.7c0.2,0,0.2,1,0.3,1.8c0.1,0.8,0.2,1.5,0.5,1.5l-0.2,1.2
	c0.2-0.2,0.3-0.1,0.4,0.1c0.3,0.4,0.3,1.2,0.4,1.8s0.2,0.9,0.8,0.8c0.3,0.2,0.4,0.5,0.4,0.7c0,0.3-0.2,0.5-0.3,0.7
	c-0.1,0.7,0,1.4,1.6,2.3v1.7c0.8,1.2,1.6,0,2.3,1.5c-0.5,0.3,0.9,1.9-0.1,1.6c0.4,0.9,1,1.5,1.8,2.2c0.7,0.6,1.5,1.2,2.3,1.8
	c0.8,0.5,1.7,1.1,2.5,1.8c0.4,0.3,0.8,0.7,1.2,1.2c0.4,0.4,0.8,0.8,1.2,1.3c0.8-0.2,1.6,0.1,2.3,0.5l0.3,0.1c0.1,0,0.2,0.1,0.2,0.1
	c0.1,0,0.1,0,0.2,0s0.3-0.1,0.5-0.2c-0.2,0.2,0.2,0.4,0.4,0.7c0.2,0.2,0.1,0.4-0.7,0.6c-0.1,0-0.2,0,0-0.2c-0.2,0.2-0.4,0.3-0.6,0.5
	c-0.2,0.5-0.2,0.5,0.1,0.5c0.2-0.1,0.8-0.2,1.2-0.2c0.3,0,0.5,0,0.6,0c0.2-0.1-0.1-0.2,0.7-0.4l0.5,0.2l-1.1,0.2c0,0.1,0,0.2,0,0.3
	l1.4-0.2c-0.2,0.1-0.9,0.2-1.3,0.3c-0.4,0.1-0.5,0.1,0.9,0c0.8,0,1.3-0.1,1.8-0.1c0.4-0.1,0.7-0.1,1.3-0.1c-0.2,0.1-0.6,0.2-1.1,0.2
	c-0.9,0.1-1.8,0.2-2.7,0.2c2.1,0,1.8,0.1,2,0.2l-1.6-0.1c0.8,0.2-0.1,0.1-1,0.1c-0.9-0.1-1.7-0.2-1.1,0l-0.9-0.1
	c0.9,0.1,1.8,0.3,2.6,0.5c0.6,0.2,0.5,0.3,0.2,0.2c-0.3,0-0.8-0.1-1-0.1s0,0.1,0.5,0.5c0.1-0.1,0.6,0.1,1,0.3
	c0.4,0.2,0.6,0.5,0.2,0.5c-0.2-0.2-0.4-0.3-0.7-0.4c-0.1,0.2,0.1,0.4-0.2,0.4c-0.2-0.3-0.9-0.7-1.1-0.4c-0.2-0.2-0.4-0.5-0.6-0.7
	c0.3,0.3,0.5,0.7,0.6,1.2c-0.3-0.1-0.5-0.1-0.6,0c0-0.1-0.7,0.4-1.1,0.7C1351.3,431.6,1350.6,432.1,1349.9,431.9z"/>
<path class="st0" d="M1074.5,258.5l0.4,0.1c0.9-1.3,1.1-2.1-0.8-3c2.3-0.1,0.2-1.1,1-1.4h0.2c-1.8-0.8,1.5-1.6-0.1-2.4
	c0.2,0,0.8,0,0.9,0.2c-0.3-0.6-0.8-1.3,0.5-1.4c-0.4-1.3,0.3-3.2-1.9-4.1l0.4,0.1c-1.4-0.5-0.2-0.6-0.9-1.2c0.2,0,0.3-0.1,0.3-0.1
	c-1.4-0.5-0.2-1.6-0.8-2h0.9l-0.2-1.1l-0.2,0.4c-2.4-0.1,1.5-0.8-0.1-1.6c0.3-0.7-5.1-1.5-3.9-2.2c-1.1-0.4,1.9,0.3,1-0.2
	c1.3,0,0.8,0.2,1.8,0.1c-0.6-0.5,1.3-0.9,0.4-1.5h1c-1.8-0.8,1.3-1.6-0.4-2.1c-0.8-0.9,3-0.6,1-1.5l1.3-0.4c0.2-0.4-1.6-0.3-1-0.7
	c0.8,0,0.7-0.5,1.5-0.3c1.3-1-1.9-2,0.4-3.2c0.3,0.1,0.6,0.3,0.9,0.6l0.1,1.2c0.1,1.7,0.9-2.5,1-1l0.4-0.8c0.1,0.3,0.3,0.6,0.1,1
	c0.3,0.1,0.3-0.2,0.6-0.7l0.4,1.1c1.3,0.8,2.4-1.2,3.8-0.8c1.7,2.2,4.8,0.2,6.6-1c2.6-2.6,5.5,4.3,8.1,1.3c0.1,0.2,0.3-0.3,0.3-0.5
	l2.4,0.2c0,0,11.6,0.7,2.8-13.6l0.1-0.4c-1.3-0.9-2.1-1.1-3,0.8c-0.1-2.3-1.1-0.2-1.4-1v-0.2c-0.8,1.8-1.6-1.5-2.4,0.1
	c0-0.2,0-0.8,0.2-0.9c-0.6,0.3-1.3,0.8-1.4-0.5c-1.3,0.4-3.2-0.3-4.1,1.9l0.1-0.4c-0.5,1.4-0.6,0.2-1.2,0.9c0-0.2-0.1-0.3-0.1-0.3
	c-0.5,1.4-1.6,0.2-2,0.8v-0.9l-1.1,0.2l0.4,0.2c-0.1,2.4-0.8-1.5-1.6,0.1c-0.7-0.3-1.5,5.1-2.2,3.9c-0.4,1.1,0.3-1.9-0.2-1
	c0-1.3,0.2-0.8,0.1-1.8c-0.5,0.6-0.9-1.3-1.5-0.4v-1c-0.8,1.8-1.6-1.3-2.1,0.4c-0.9,0.8-0.6-3-1.5-1l-0.4-1.3
	c-0.4-0.2-0.3,1.6-0.7,1c0-0.8-0.5-0.7-0.3-1.5c-0.4-0.6-0.9-0.3-1.3,0c-0.1-0.2-0.4-0.4-0.9-0.4c0.9,0.2,1.3-0.4,2.4-0.2
	c-1-0.3-1.9-1.1-0.8-1.5l0.1,0.1c1.1-1.2-1.6-2.1-0.2-3.2c-1.2,0.1-0.5-0.5-2-0.4c-1.5-1.2,3-2.1-1.6-2.5c-0.2-0.5,1.1-0.6,1.3-0.9
	l0.2,0.1c-0.4-1-0.4-1.3-0.3-2c-0.4-0.4-2.6-0.4-2.1-1.1c0.8,0.2,0.7-0.1,0.7-0.3c0.1,0.2,0.4,0.2,1-0.1c-0.3,0-0.4-0.1-0.6-0.2
	c0.1,0,0.1,0,0.2,0c-0.3-0.4-0.6-0.3-0.7-0.1c-0.1,0-0.3,0-0.5,0.1c1.1-0.4-0.1-1.2,1.4-1.2c-0.3-1.2-1.8-2.1-2.4-3.1
	c0.7-0.1,1.4,0.1,1.7,0.4l-0.3-0.7c1.1,0,0.6,0.4,0.8,0.6c1.7-0.9-1.7-1.8-0.1-2.8l-0.8-0.2l0.1-0.1c-0.4,0-1.1-0.2-1.2-0.4
	c0.9-0.1,2.2,0,2.1-0.5c0.9-0.4-0.5-1.1-1-1.6c-0.2,0.3-0.7,0.2-1,0.1c0-0.2,0.9-0.4,0.5-0.6h1.3c-1.2,0.1-1.3-0.7-1.8-0.7
	c0.9-0.1,0.8,0.4,1.5,0.4c-0.1-1-0.1-0.5-0.2-1.5c-0.9-0.5-1.2,0.1-2.3-0.2c-0.2-0.5-1.1-0.9-0.4-1.5l-1.1,0.2
	c-0.9-0.9-0.7-1.4,0.4-2c-9.1-6.6-12.4-1.4-12.4-1.4c-2.5,2.7,0.8,4,1.6,7.1c-0.6,2.7-2.7,3.4-1.9,6.3c-0.2,1.3,0.3,2.8,0.6,4.1
	c1.7,0.6,0,1.7,1.4,2.5l-1,0.3c0.5,0.3,0.8,0.6,0.3,0.8h-0.3c0.7,0.4,0.3,0.8,0.7,1h-0.3l0.1,0.5l-0.4-0.1c0.8,0.7,0.8,1.3,0.5,1.9
	h1.2c-1.3,1.3,1.1,1.8-0.4,2.9h-0.3c1.4,0.7,1.1,1.2,0.6,1.8c-0.3-0.1-0.9-0.1-1,0.9c0.2-0.9-0.4-1.3-0.2-2.4
	c-0.3,1-1.1,1.9-1.5,0.8l0.1-0.1c-1.2-1.1-2.1,1.6-3.2,0.2c0.1,1.2-0.5,0.5-0.4,2c-1.2,1.5-2.1-3-2.5,1.6c-0.5,0.2-0.6-1.1-0.9-1.3
	l0.1-0.2c-1,0.4-1.3,0.4-2,0.3c-0.4,0.4-0.4,2.6-1.1,2.1c0.2-0.8-0.1-0.7-0.3-0.7c0.2-0.1,0.2-0.4-0.1-1c0,0.3-0.1,0.4-0.2,0.6
	c0-0.1,0-0.1,0-0.2c-0.4,0.3-0.3,0.6-0.1,0.7c0,0.1,0,0.3,0.1,0.5c-0.4-1.1-1.2,0.1-1.2-1.4c-1.2,0.3-2.1,1.8-3.1,2.4
	c-0.1-0.7,0.1-1.4,0.4-1.7l-0.7,0.3c0-1.1,0.4-0.6,0.6-0.8c-0.9-1.7-1.8,1.7-2.8,0.1l-0.2,0.8l-0.1-0.1c0,0.4-0.2,1.1-0.4,1.2
	c-0.1-0.9,0-2.2-0.5-2.1c-0.4-0.9-1.1,0.5-1.6,1c0.3,0.2,0.2,0.7,0.1,1c-0.2,0-0.4-0.9-0.6-0.5v-1.3c0.1,1.2-0.7,1.3-0.7,1.8
	c-0.1-0.9,0.4-0.8,0.4-1.5c-1,0.1-0.5,0.1-1.5,0.2c-0.5,0.9,0.1,1.2-0.2,2.3c-0.5,0.2-0.9,1.1-1.5,0.4l0.2,1.1
	c-0.9,0.9-1.4,0.7-2-0.4c-6.6,9.1-1.4,12.4-1.4,12.4c2.6,2.5,4-0.8,7.1-1.6c2.7,0.6,3.4,2.7,6.3,1.9c1.3,0.2,2.8-0.3,4.1-0.6
	c0.6-1.7,1.7,0,2.5-1.4l0.3,1c0.3-0.5,0.6-0.8,0.8-0.3v0.3c0.4-0.7,0.8-0.3,1-0.7v0.3l0.5-0.1l-0.1,0.4c0.7-0.8,1.3-0.8,1.9-0.5
	v-1.2c1.3,1.3,1.8-1.1,2.9,0.4v0.3c1.5-3.1,2.3,2.1,3.8-0.8c-0.2,0.3,0,0.5,0.1,0.7c-0.1,0.5-0.4,0.9-0.8,1.4l-1.2,0.1
	c-1.7,0.1,2.5,0.9,1,1l0.8,0.4c-0.3,0.1-0.6,0.3-1,0.1c-0.1,0.3,0.2,0.3,0.7,0.6l-1.1,0.4c-0.8,1.3,1.2,2.4,0.8,3.8
	c-2.2,1.7-0.2,4.8,1,6.6c2.6,2.6-4.3,5.5-1.3,8.1c-0.2,0.1,0.3,0.3,0.5,0.3l-0.2,2.4C1060.9,255.7,1060.2,267.3,1074.5,258.5z
	 M1076.4,228.7c0.2,0.1,0.5,0.1,0.7,0.2C1076.8,228.9,1076.6,228.8,1076.4,228.7z"/>
<path class="st0" d="M584.8,476.7l-0.1-0.3c-1.5,0-2.3,0.2-2.4,1.9c-0.9-1.5-1,0.3-1.6,0v-0.1c-0.1,1.5-2-0.2-2.1,1.2
	c0-0.1-0.2-0.6-0.1-0.7c-0.4,0.5-0.9,1.1-1.4,0.3c-1.1,0.9-2.9,1.3-3,3.1l-0.1-0.3c0.1,1.2-0.5,0.4-0.7,1.2
	c-0.1-0.1-0.2-0.1-0.2-0.2c0,1.2-1.3,0.9-1.5,1.5l-0.3-0.6l-0.9,0.6l0.4-0.1c0.7,1.7-1.2-0.7-1.4,0.8c-0.7,0.1,0.5,4.1-0.6,3.6
	c0.1,0.9-0.4-1.4-0.5-0.6c-0.5-0.8-0.1-0.6-0.5-1.3c-0.3,0.6-1.2-0.5-1.5,0.4l-0.4-0.6c-0.1,1.6-1.9-0.1-1.8,1.3
	c-0.5,0.9-1.5-1.7-1.7,0l-0.8-0.7c-0.4,0,0.3,1.2-0.3,1c-0.3-0.6-0.7-0.2-0.8-0.9c-1.3-0.4-1.1,2.2-3,1.3c0.2,0.7-0.1,0.9-0.2,1.1
	h-0.2c0.5-0.8-0.8-1.1,0-1.7c0,0-0.1-1.2-1.2-0.9c0.7-0.1,0.7-0.8,1.5-1c-0.8,0.1-1.8-0.3-1.2-1h0.1c0.2-1.5-2-1.3-1.6-2.8
	c-0.7,0.4-0.6-0.3-1.5,0.3c-1.5-0.5,1-2.9-2.2-1.7c-0.4-0.4,0.4-0.9,0.5-1.2h0.2c-0.7-0.7-0.9-1-1.1-1.7c-0.5-0.2-1.9,0.5-1.9-0.2
	c0.7-0.1,0.4-0.3,0.3-0.5c0.2,0.1,0.4,0,0.6-0.5c-0.2,0.1-0.3,0-0.5,0l0.1-0.1c-0.4-0.3-0.5-0.1-0.5,0.1c-0.1,0-0.2,0.1-0.3,0.2
	c0.5-0.8-0.6-1,0.3-1.6c-0.8-1-2.2-1.2-3-1.9c0.4-0.4,1-0.4,1.3-0.2l-0.5-0.5c0.7-0.4,0.6,0.2,0.8,0.3c0.8-1.4-2-1-1.4-2.4l-0.5,0.1
	c0,0,0-0.1,0-0.2l-0.1,0.2l-0.1,0l0.1-0.1c-0.3,0.2-0.8,0.2-1,0.1c0.6-0.4,1.4-0.7,1.2-1.2c0.4-0.7-0.8-0.8-1.4-1.1
	c0,0.3-0.4,0.4-0.6,0.4c-0.1-0.2,0.4-0.7,0.1-0.7l0.8-0.5c-0.7,0.5-1.2-0.1-1.5,0c0.6-0.4,0.7,0.1,1.2-0.1c-0.5-0.8-0.3-0.4-0.8-1.3
	c-0.9-0.1-0.7,0.5-1.6,0.7c-0.4-0.3-1.2-0.4-0.9-1.2l-0.7,0.5c-1-0.5-1.1-1-0.7-1.9c-9.1-2.7-8.9,3.1-8.9,3.1
	c-0.7,3.4,2.1,3.5,4.1,5.9c0.9,2.6-0.2,4,1.7,6.2c0.5,1.3,1.5,2.4,2.3,3.4c1.4,0,0.8,1.5,2.1,1.7l-0.5,0.6c0.4,0.1,0.8,0.2,0.6,0.6
	l-0.2,0.1c0.7,0.1,0.6,0.6,0.9,0.7l-0.2,0.1l0.3,0.4l-0.3,0.1c0.8,0.3,1.2,0.9,1.2,1.6l0.7-0.4c-0.3,1.6,1.5,1.2,1.1,2.7l-0.2,0.1
	c2.7,0.2-0.3,2.8,2.3,3.1c-0.3,0-0.4,0.3-0.6,0.4c0.1,0.1,0.2,0.2,0.3,0.3c-0.5,0-0.8,0.8-1.3,0.1c0,0-1.2,0.1-0.9,1.2
	c-0.1-0.7-0.8-0.7-1-1.5c0.1,0.8-0.3,1.8-1,1.2v-0.1c-1.5-0.2-1.3,2-2.8,1.6c0.4,0.7-0.3,0.6,0.3,1.5c-0.5,1.5-2.9-1-1.7,2.2
	c-0.4,0.4-0.9-0.4-1.2-0.5v-0.2c-0.7,0.7-1,0.9-1.7,1.1c-0.2,0.5,0.5,1.9-0.2,1.9c-0.1-0.7-0.3-0.4-0.5-0.3c0.1-0.2,0-0.4-0.5-0.6
	c0.1,0.2,0,0.3,0,0.5l-0.1-0.1c-0.3,0.4-0.1,0.5,0.1,0.5c0,0.1,0.1,0.2,0.2,0.3c-0.8-0.5-1,0.6-1.6-0.3c-1,0.8-1.2,2.2-1.9,3
	c-0.4-0.4-0.4-1-0.2-1.3l-0.5,0.5c-0.4-0.7,0.2-0.6,0.3-0.8c-1.4-0.8-1,2-2.4,1.4l0.1,0.5c0,0-0.1,0-0.2,0l0.2,0.1l0,0.1l-0.1-0.1
	c0.2,0.3,0.2,0.8,0.1,1c-0.4-0.6-0.7-1.4-1.2-1.2c-0.7-0.4-0.8,0.8-1.1,1.4c0.3,0,0.4,0.4,0.4,0.6c-0.2,0.1-0.7-0.4-0.7-0.1
	l-0.5-0.8c0.5,0.7-0.1,1.2,0,1.5c-0.4-0.6,0.1-0.7-0.1-1.2c-0.8,0.5-0.4,0.3-1.3,0.8c-0.1,0.9,0.5,0.7,0.7,1.6
	c-0.3,0.4-0.4,1.2-1.2,0.9l0.5,0.7c-0.5,1-1,1.1-1.9,0.7c-2.7,9.1,3.1,8.9,3.1,8.9c3.4,0.6,3.5-2.1,5.9-4.1c2.6-0.9,4,0.2,6.2-1.7
	c1.3-0.5,2.4-1.5,3.4-2.3c0-1.4,1.5-0.8,1.7-2.1l0.6,0.5c0.1-0.4,0.2-0.8,0.6-0.6l0.1,0.2c0.1-0.7,0.6-0.6,0.7-0.9l0.1,0.2l0.4-0.3
	l0.1,0.3c0.3-0.8,0.9-1.2,1.6-1.2l-0.4-0.7c1.6,0.3,1.2-1.5,2.7-1.1l0.1,0.2c0.2-2.7,2.8,0.3,3.1-2.3c0,0.3,0.3,0.4,0.4,0.6
	c0.5-0.5,1-0.9,0.5-2.2c1.2,1.3,2.2,2.7,2,4.7l-0.7,0.5c-1.1,0.6,2.1-0.1,1.1,0.5l0.7,0.1c-0.2,0.2-0.3,0.5-0.6,0.5
	c0.1,0.3,0.3,0.2,0.8,0.3l-0.5,0.7c0.1,1.5,1.9,1.7,2.3,3.1c-0.7,2.2,2.1,4.3,3.7,5.5c2.9,1.4-0.3,6.4,2.9,7.7
	c-0.1,0.2,0.3,0.2,0.5,0.1l0.9,2.2c0,0,4.9,10.5,10.3-2.2l0.3-0.1c0-1.5-0.2-2.3-1.9-2.4c1.5-0.9-0.3-1,0-1.6h0.1
	c-1.5-0.1,0.2-2-1.2-2.1c0.1,0,0.6-0.2,0.7-0.1c-0.5-0.4-1.1-0.9-0.3-1.4c-0.9-1.1-1.3-2.9-3.1-3l0.3-0.1c-1.2,0.1-0.4-0.5-1.2-0.7
	c0.1-0.1,0.1-0.2,0.2-0.2c-1.2,0-0.9-1.3-1.5-1.5l0.6-0.3l-0.6-0.9l0.1,0.4c-1.7,0.7,0.7-1.2-0.8-1.4c-0.1-0.7-4.1,0.5-3.6-0.6
	c-0.9,0.1,1.4-0.4,0.6-0.5c0.8-0.5,0.6-0.1,1.3-0.5c-0.6-0.3,0.5-1.2-0.4-1.5l0.6-0.4c-1.6-0.1,0.1-1.9-1.3-1.8
	c-0.9-0.5,1.7-1.5,0-1.7l0.7-0.8c0-0.4-1.2,0.3-1-0.3c0.6-0.3,0.2-0.7,0.9-0.8c0.4-1.3-2.2-1.1-1.3-3c-1.2,0.3-0.9-0.6-1.8-0.3
	c0.3-0.2,0-0.7,0.2-0.9c0,0,0.1-0.1,0.1-0.1c0.1-0.1,0.3-0.1,0.6-0.1c0.1,0,0.1,0.1,0,0.2l0.7-0.3c0.2-0.3,0.3-0.5,0.2-0.7
	c0.6-0.3,1.3-0.4,2.1-0.3l0.5,0.7c0.6,1.1-0.1-2.1,0.5-1.1l0.1-0.7c0.2,0.2,0.5,0.3,0.5,0.6c0.3-0.1,0.2-0.3,0.3-0.8l0.7,0.5
	c1.5-0.1,1.7-1.9,3.1-2.3c2.2,0.7,4.3-2.1,5.5-3.7c1.4-2.9,6.4,0.3,7.7-2.9c0.2,0.1,0.2-0.3,0.1-0.5l2.2-0.9
	C587,487,597.5,482.1,584.8,476.7z M548.1,495.1c0,0.2,0,0.3-0.2,0.3l-0.1-0.2C547.9,495.2,548,495.1,548.1,495.1z"/>
<path class="st0" d="M263.2,1464.6l-0.1-0.4c-1.7-0.4-2.6-0.3-2.9,1.8c-0.9-2.1-1.2,0.1-1.8-0.5v-0.2c-0.3,2-2.2-0.8-2.5,0.9
	c0-0.2-0.2-0.8,0-0.9c-0.5,0.5-1.1,1.2-1.6,0c-1.3,0.8-3.4,0.8-3.7,3.2l-0.1-0.4c-0.1,1.5-0.6,0.4-0.9,1.3c-0.1-0.2-0.2-0.2-0.2-0.3
	c-0.1,1.5-1.6,0.7-1.8,1.5l-0.3-0.8l-1,0.6h0.5c0.6,2.4-1.3-1.2-1.6,0.6c-0.9-0.1,0,5.3-1.1,4.4c0,1.2-0.2-1.9-0.5-0.9
	c-0.4-1.2,0-0.8-0.4-1.8c-0.4,0.8-1.3-1-1.7,0.1l-0.3-0.9c-0.3,2-2.1-0.7-2.1,1.1c-0.7,1.1-1.5-2.6-1.9-0.5l-0.8-1.2
	c-0.5-0.1,0.2,1.7-0.4,1.2c-0.2-0.8-0.8-0.5-0.8-1.3c-1.1-0.7-1.4,1.3-2.5,1.3c0-0.3,0-1.2-1.2-1.1c1-0.1,1.1-0.8,2.2-0.9
	c-1.1,0-2.2-0.6-1.2-1.3h0.1c0.7-1.6-2.2-1.8-1.3-3.3c-1.1,0.4-0.7-0.4-2,0.2c-1.8-0.8,2.2-3.1-2.3-2.2c-0.4-0.5,0.8-1,0.9-1.3
	l0.3,0.1c-0.7-0.9-0.8-1.2-1-2c-0.5-0.2-2.6,0.3-2.3-0.5c0.9,0,0.6-0.3,0.6-0.5c0.2,0.1,0.5,0.1,0.9-0.4c-0.3,0-0.4,0-0.6,0
	c0.1,0,0.1-0.1,0.2-0.1c-0.4-0.3-0.6-0.2-0.7,0.1c-0.1,0-0.3,0.1-0.5,0.2c0.9-0.8-0.5-1.2,0.9-1.7c-0.7-1.2-2.5-1.6-3.3-2.5
	c0.7-0.3,1.4-0.3,1.8-0.1l-0.5-0.7c1-0.3,0.7,0.2,1,0.4c1.4-1.4-2.2-1.3-1.1-2.9h-0.9l0.1-0.1c-0.4,0.1-1.1,0.1-1.3,0
	c0.4-0.2,0.9-0.4,1.3-0.5l-0.1,0.1c0.1-0.1,0.3-0.1,0.4-0.3c0.2-0.1,0.4-0.3,0.2-0.5c0.7-0.7-0.8-1-1.5-1.4
	c-0.1,0.3-0.6,0.4-0.9,0.4c-0.1-0.3,0.7-0.7,0.3-0.8l0.8-0.3c-0.8,0.2-1.1-0.4-1.6-0.3c0.8-0.4,0.9,0.2,1.6,0
	c-0.5-1-0.2-0.5-0.7-1.5c-1.1-0.3-1.1,0.5-2.2,0.5c-0.4-0.4-1.4-0.6-0.8-1.4l-1,0.5c-1.1-0.7-1.2-1.3-0.3-2.2
	c-10.9-4.1-12.3,2.3-12.3,2.3c-1.6,3.1,1.9,3.5,3.8,6.5c0.4,3-1.4,4.4,0.3,7.1c0.3,1.5,1.2,2.8,1.9,4.1c1.8,0.1,0.6,1.8,2.2,2.1
	l-0.8,0.6c0.5,0.1,1,0.3,0.6,0.8l-0.3,0.1c0.8,0.2,0.6,0.8,1,0.8l-0.3,0.1l0.3,0.4H213c1,0.5,1.2,1.2,1.1,1.9l1.1-0.4
	c-0.8,1.7,1.6,1.5,0.6,3.2l-0.3,0.1c2.7,0.5,0.4,2.1,0.9,3.1c-0.4,0.1-0.7,0.4-0.6,1.2c-0.1-1-0.8-1.1-0.9-2.2
	c0,1.1-0.6,2.2-1.3,1.2v-0.1c-1.6-0.7-1.8,2.2-3.3,1.3c0.4,1.1-0.4,0.7,0.2,2c-0.8,1.8-3.1-2.2-2.2,2.3c-0.5,0.4-1-0.8-1.3-0.9
	l0.1-0.3c-0.9,0.7-1.2,0.8-2,1c-0.2,0.5,0.3,2.6-0.5,2.3c0-0.9-0.3-0.6-0.5-0.6c0.1-0.2,0.1-0.5-0.4-0.9c0,0.3,0,0.4,0,0.6
	c0-0.1-0.1-0.1-0.1-0.2c-0.3,0.4-0.2,0.6,0.1,0.7c0,0.1,0.1,0.3,0.2,0.5c-0.8-0.9-1.2,0.5-1.7-0.9c-1.2,0.7-1.6,2.5-2.5,3.3
	c-0.3-0.7-0.3-1.4-0.1-1.8l-0.7,0.5c-0.3-1,0.2-0.7,0.4-1c-1.4-1.4-1.3,2.2-2.9,1.1v0.9l-0.1-0.1c0.1,0.4,0.1,1.1,0,1.3
	c-0.2-0.5-0.4-1.2-0.7-1.6l0.4,0.4c-0.1-0.2-0.2-0.4-0.4-0.4c-0.1-0.2-0.3-0.3-0.5-0.2c-0.7-0.7-1,0.8-1.4,1.5
	c0.3,0.1,0.4,0.6,0.4,0.9c-0.3,0.1-0.7-0.7-0.8-0.3l-0.3-0.8c0.2,0.8-0.4,1.1-0.3,1.6c-0.4-0.8,0.2-0.9,0-1.6
	c-1,0.5-0.5,0.2-1.5,0.7c-0.3,1.1,0.5,1.1,0.5,2.2c-0.4,0.4-0.6,1.4-1.4,0.8l0.5,1c-0.7,1.1-1.3,1.2-2.2,0.3
	c-4.1,10.9,2.3,12.3,2.3,12.3c3.1,1.6,3.5-2,6.5-3.8c3-0.4,4.4,1.4,7.1-0.3c1.5-0.3,2.8-1.2,4.1-1.9c0.1-1.8,1.8-0.6,2.1-2.2
	l0.6,0.8c0.1-0.5,0.3-1,0.8-0.6l0.1,0.3c0.2-0.8,0.8-0.6,0.8-1l0.1,0.3l0.4-0.3v0.4c0.5-1,1.2-1.2,1.9-1.1l-0.4-1.1
	c1.7,0.8,1.5-1.6,3.2-0.6l0.1,0.3c0.6-3.4,3.1,1.2,3.8-2.1c-0.1,0.4,0.3,0.5,0.3,0.8c0.3-0.3,0.7-0.6,0.9-1.1
	c0.3,0.9,0.4,1.9-0.1,3.1l-1.1,0.5c-1.6,0.6,2.7,0.1,1.2,0.7l0.9,0.1c-0.3,0.2-0.5,0.5-0.9,0.5c0,0.4,0.3,0.3,0.9,0.4l-0.9,0.7
	c-0.3,1.6,2,2.2,2.1,3.8c-1.5,2.4,1.5,5.1,3.2,6.7c3.3,1.9-2.2,7.1,1.5,8.9c-0.2,0.2,0.4,0.2,0.6,0.2l0.6,2.6c0,0,3.3,12.4,13.8-1.2
	l0.4-0.1c0.4-1.7,0.3-2.6-1.8-2.9c2.1-0.9-0.1-1.2,0.5-1.8h0.2c-2-0.3,0.8-2.2-0.9-2.5c0.2,0,0.8-0.2,0.9,0c-0.5-0.5-1.2-1.1,0-1.6
	c-0.8-1.3-0.8-3.4-3.2-3.7l0.4-0.1c-1.5-0.1-0.4-0.6-1.3-0.9c0.2-0.1,0.2-0.2,0.3-0.2c-1.5-0.1-0.7-1.6-1.5-1.8l0.8-0.3l-0.6-1v0.5
	c-2.4,0.6,1.2-1.3-0.6-1.6c0.1-0.9-5.3,0-4.4-1.1c-1.2,0,1.9-0.2,0.9-0.5c1.2-0.4,0.8,0,1.8-0.4c-0.8-0.4,1-1.3-0.1-1.7l0.9-0.3
	c-2-0.3,0.7-2.1-1.1-2.1c-1.1-0.7,2.6-1.5,0.5-1.9l1.2-0.8c0.1-0.5-1.7,0.2-1.2-0.4c0.8-0.2,0.5-0.8,1.3-0.8
	c0.9-1.4-2.5-1.5-0.8-3.5c-1.6,0.2-1-0.7-2.1-0.6c1.1-0.5,2.3-0.7,3.7-0.2l0.5,1.1c0.6,1.6,0.1-2.7,0.7-1.2l0.1-0.9
	c0.2,0.3,0.5,0.5,0.5,0.9c0.4,0,0.3-0.3,0.4-0.9l0.7,0.9c1.6,0.3,2.2-2,3.8-2.1c2.4,1.5,5.1-1.5,6.7-3.2c1.9-3.3,7.1,2.2,8.9-1.5
	c0.2,0.2,0.2-0.4,0.2-0.6l2.6-0.6C264.4,1478.4,276.8,1475.1,263.2,1464.6z"/>
<path class="st0" d="M783.1,1583.8l0.1-0.3c-1.2-1-2.1-1.4-3.4-0.3c0.3-1.7-1.1-0.5-1.3-1.1l0.1-0.1c-1.2,1.1-1.5-1.5-2.6-0.6
	c0.1-0.1,0.2-0.6,0.4-0.6c-0.7,0.1-1.6,0.2-1.4-0.8c-1.5-0.1-3.4-1.1-4.7,0.2l0.1-0.3c-0.8,0.9-0.7,0-1.4,0.3c0-0.1,0-0.2,0-0.3
	c-0.8,0.9-1.7-0.3-2.3,0l0.1-0.7l-1.2-0.2l0.4,0.3c-0.6,1.7-0.6-1.3-1.7-0.4c-0.7-0.4-2.5,3.3-3.1,2.2c-0.6,0.7,0.7-1.3,0-0.8
	c0.2-0.9,0.4-0.5,0.5-1.3c-0.7,0.3-0.7-1.2-1.5-0.8l0.2-0.7c-1.3,1.1-1.4-1.4-2.4-0.3c-1.1,0.3,0-2.3-1.4-1.2l-0.1-1.1
	c-0.4-0.3-0.6,1.1-0.9,0.5c0.2-0.6-0.4-0.6,0-1.2c-0.8-1.2-2.5,0.8-3.4-1.2c-0.1,0.1-0.1,0.2-0.2,0.3l-0.9-0.8
	c0.9-0.3,0.2-1.5,1.2-1.4c0,0,0.8-1-0.2-1.6c0.6,0.4,1-0.2,1.8,0.2c-0.7-0.5-1.1-1.6-0.2-1.7l0.1,0.1c1.2-1.1-0.5-2.6,0.8-3.5
	c-0.9-0.2-0.2-0.7-1.3-0.8c-0.7-1.5,2.8-1.6-0.4-3c0-0.6,1-0.5,1.2-0.7l0.1,0.2c0-1.1,0.1-1.4,0.3-2.2c-0.2-0.5-1.7-0.9-1.2-1.5
	c0.6,0.4,0.5,0.1,0.6-0.2c0.1,0.2,0.3,0.3,0.8,0.1c-0.2-0.1-0.3-0.2-0.4-0.3c0,0,0.1,0,0.2,0c-0.1-0.5-0.3-0.5-0.4-0.3
	c-0.1,0-0.2-0.1-0.4,0c0.9-0.2,0.3-1.3,1.3-1c0.1-1.4-0.7-2.6-0.8-3.8c0.6,0,1,0.4,1.1,0.8v-0.8c0.8,0.2,0.3,0.6,0.4,0.8
	c1.5-0.6-0.7-2.2,0.7-3l-0.6-0.4h0.1c-0.3-0.1-0.7-0.4-0.8-0.6c0.7,0,1.6,0.4,1.7-0.1c0.8-0.2,0-1.3-0.2-1.9
	c-0.2,0.3-0.5,0.1-0.7-0.1c0-0.3,0.8-0.2,0.5-0.5l0.9,0.2c-0.9-0.1-0.7-0.9-1.1-1.1c0.7,0,0.5,0.6,1,0.8c0.2-1.1,0.1-0.5,0.3-1.6
	c-0.5-0.8-0.9-0.1-1.6-0.6c0-0.6-0.5-1.2,0.2-1.6h-0.9c-0.4-1.1-0.1-1.7,0.9-2.1c-4.7-8.8-8.6-3.9-8.6-3.9c-3,2.4-1.1,4.5-1.3,8
	c-1.2,2.8-3,3.1-3.1,6.3c-0.5,1.4-0.6,3-0.7,4.5c1,1-0.5,1.8,0.3,2.9l-0.8,0.1c0.3,0.4,0.4,0.7,0,0.9l-0.2-0.1
	c0.4,0.5,0,0.9,0.2,1.2l-0.2-0.1v0.5l-0.3-0.2c0.4,0.9,0.2,1.6-0.2,2.2l0.9,0.2c-1.3,1.1,0.3,2.1-1.1,3l-0.2-0.1
	c1.8,2.2-2.2,2.1-0.5,4.2c-0.2-0.3-0.5,0-0.7-0.1c0,0.5,0,0.9,0.3,1.3c0,0-0.1,0.1-0.1,0.2c0.4,0-0.3,1.6-0.6,1.2l0.3-0.7
	c-0.3,0.1-0.5,0.3-0.6,0.2c0.3-0.3,0.4-1-0.1-1l0.5-0.8l-1,1.1c-0.3-0.9-1.5-0.2-1.4-1.2c0,0-1-0.8-1.6,0.2c0.4-0.6-0.2-1,0.2-1.8
	c-0.5,0.7-1.6,1.1-1.7,0.2l0.1-0.1c-1.1-1.2-2.6,0.5-3.5-0.8c-0.2,0.9-0.7,0.2-0.8,1.3c-1.5,0.7-1.6-2.8-3,0.4c-0.6,0-0.5-1-0.7-1.2
	l0.2-0.1c-1.1,0-1.4-0.1-2.2-0.3c-0.5,0.2-0.9,1.7-1.5,1.2c0.4-0.6,0.1-0.5-0.2-0.6c0.2-0.1,0.3-0.3,0.1-0.8
	c-0.1,0.2-0.2,0.3-0.3,0.4c0,0,0-0.1,0-0.2c-0.5,0.1-0.5,0.3-0.3,0.4c0,0.1-0.1,0.2,0,0.4c-0.2-0.9-1.3-0.3-1-1.3
	c-1.4-0.1-2.6,0.7-3.8,0.8c0-0.6,0.4-1,0.8-1.1h-0.8c0.2-0.8,0.6-0.3,0.8-0.4c-0.6-1.5-2.2,0.7-3-0.7l-0.4,0.6v-0.1
	c-0.1,0.3-0.4,0.7-0.6,0.8c0-0.7,0.4-1.6-0.1-1.7c-0.2-0.8-1.3,0-1.9,0.2c0.3,0.2,0.1,0.5-0.1,0.7c-0.3,0-0.2-0.8-0.5-0.5l0.2-0.9
	c-0.1,0.9-0.9,0.7-1.1,1.1c0-0.7,0.6-0.5,0.8-1c-1.1-0.2-0.5-0.1-1.6-0.3c-0.8,0.5-0.1,0.9-0.6,1.6c-0.6,0-1.2,0.5-1.6-0.2v0.9
	c-1.1,0.4-1.7,0.1-2.1-0.9c-8.8,4.7-3.9,8.6-3.9,8.6c2.4,3,4.5,1,8,1.3c2.8,1.2,3.1,3,6.3,3.1c1.4,0.5,3,0.6,4.5,0.7
	c1-1,1.8,0.5,2.9-0.3l0.1,0.8c0.4-0.3,0.7-0.4,0.9,0l-0.1,0.2c0.5-0.4,0.9,0,1.2-0.2l-0.1,0.2h0.5l-0.2,0.3c0.9-0.4,1.6-0.2,2.2,0.2
	l0.2-0.9c1.1,1.3,2.1-0.3,3,1.1l-0.1,0.2c2.2-1.8,2.1,2.2,4.2,0.5c-0.3,0.2,0,0.5-0.1,0.7c0.8,0,1.6,0,2.1-1.6
	c0.5,0.2,0.3,0.6,0.2,1.3c0.1-0.3,0.2-0.5,0.4-0.6c-0.1,2.1-0.3,4.1-1.8,5.5l-0.9-0.1c-1.3-0.3,1.6,1.4,0.4,1.2l0.5,0.5
	c-0.3,0-0.6,0.2-0.8-0.1c-0.1,0.3,0.1,0.4,0.4,0.8l-0.9,0.2c-1,1.2,0.2,2.8-0.5,4.2c-2.1,1.4-1.5,5.1-1.2,7.3c1.1,3.2-4.7,5-3.3,8.4
	c-0.2,0,0.1,0.4,0.3,0.4l-0.9,2.5c0,0-3.8,12.2,9,5.6l0.3,0.1c1-1.2,1.4-2.1,0.3-3.4c1.7,0.3,0.5-1.1,1.1-1.3l0.1,0.1
	c-1.1-1.2,1.5-1.5,0.6-2.6c0.1,0.1,0.6,0.2,0.6,0.4c-0.1-0.7-0.2-1.6,0.8-1.4c0.1-1.5,1.1-3.4-0.2-4.7l0.3,0.1
	c-0.9-0.8,0-0.7-0.3-1.4c0.1,0,0.2,0,0.3,0c-0.9-0.8,0.3-1.7,0-2.3l0.7,0.1l0.2-1.2l-0.3,0.4c-1.7-0.6,1.3-0.6,0.4-1.7
	c0.4-0.7-3.3-2.5-2.2-3.1c-0.7-0.6,1.3,0.7,0.8,0c0.9,0.2,0.5,0.4,1.3,0.5c-0.3-0.7,1.2-0.7,0.8-1.5l0.7,0.2
	c-1.1-1.3,1.4-1.4,0.3-2.4c-0.3-1.1,2.3,0,1.2-1.4l1.1-0.1c0.3-0.4-1.1-0.6-0.5-0.9c0.6,0.2,0.6-0.4,1.2,0c1.2-0.8-0.8-2.5,1.2-3.4
	c-1.1-0.6-0.2-1.1-1.1-1.6c0.3,0.1,0.4-0.5,0.7-0.6c0.1,0,0.3,0,0.4,0c0.1,0.1,0.2,0.2,0.3,0.3c0.1,0.1,0,0.2-0.2,0.1l0.7,0.3
	c0.4-0.1,0.5-0.3,0.6-0.4c0.9,0.3,1.7,0.7,2.4,1.4l-0.1,0.9c-0.3,1.3,1.4-1.6,1.2-0.4l0.5-0.5c0,0.3,0.2,0.6-0.1,0.8
	c0.3,0.1,0.4-0.1,0.8-0.4l0.2,0.9c1.2,1,2.8-0.2,4.2,0.5c1.4,2.1,5.1,1.5,7.3,1.2c3.2-1.1,5,4.7,8.4,3.3c0,0.2,0.4-0.1,0.4-0.3
	l2.5,0.9C777.5,1592.8,789.7,1596.6,783.1,1583.8z M751.4,1573l0.6,0.3c-0.5,0.5-0.9,0-1.3,0.7c0,0,0,0,0,0c0-0.3-0.5-0.4-0.7-0.6
	l0.6,0.3c-0.1-0.3-0.3-0.5-0.2-0.6C750.7,1573.4,751.4,1573.5,751.4,1573z"/>
<path class="st0" d="M1433.4,996.7l0.2-0.3c-1-1.4-1.8-1.9-3.4-0.5c0.7-2.2-1-0.7-1.1-1.5l0.1-0.2c-1.5,1.3-1.1-2-2.5-0.9
	c0.1-0.2,0.3-0.7,0.5-0.7c-0.7,0-1.7,0.2-1.2-1.1c-1.5-0.2-3.2-1.5-4.9,0.1l0.2-0.3c-1,1.1-0.7-0.1-1.6,0.4c0-0.1,0-0.2,0-0.2
	c-1,0.9-1.6-0.5-2.2-0.1l0.3-0.8l-1.2-0.2l0.3,0.3c-1,2.2-0.3-1.8-1.6-0.6c-0.6-0.6-3.4,4.1-3.7,2.7c-0.8,0.9,1-1.6,0.1-1
	c0.5-1.2,0.5-0.6,0.8-1.6c-0.8,0.4-0.4-1.6-1.4-1l0.3-0.9c-1.5,1.4-1.1-1.9-2.4-0.5c-1.2,0.4,0.5-3-1.2-1.5l0.1-1.4
	c-0.3-0.4-0.9,1.4-1.1,0.6c0.3-0.8-0.3-0.8,0.2-1.5c-0.5-1.5-2.5,0.7-3.1-1.2c0.1,0,0.2,0,0.4,0c0,0,1.1-0.9-0.2-1.7
	c0.8,0.6,1.3,0.1,2.3,0.6c-0.9-0.7-1.3-1.8-0.1-1.8l0.1,0.1c1.6-0.9-0.6-2.7,1.1-3.4c-1.1-0.4-0.3-0.7-1.7-1.1
	c-0.9-1.7,3.6-1.1-0.4-3.2c0-0.6,1.2-0.2,1.6-0.4l0.2,0.2c0-1.1,0.1-1.5,0.5-2.2c-0.3-0.5-2.2-1.4-1.5-1.9c0.7,0.5,0.7,0.2,0.8-0.1
	c0.1,0.2,0.3,0.4,1,0.3c-0.2-0.1-0.3-0.3-0.4-0.4c0.1,0,0.1,0,0.2,0.1c-0.1-0.5-0.4-0.6-0.6-0.4c-0.1-0.1-0.3-0.1-0.5-0.1
	c1.2,0,0.4-1.2,1.8-0.8c0.2-1.4-0.9-2.8-1-4.1c0.7,0.2,1.3,0.6,1.4,1.1v-0.8c1,0.4,0.4,0.7,0.5,1c2-0.2-0.9-2.5,1-2.9l-0.7-0.5h0.2
	c-0.4-0.2-0.9-0.6-1-0.8c0.9,0.2,2,0.8,2.1,0.3c1-0.1,0-1.3-0.2-2c-0.3,0.2-0.7-0.1-1-0.3c0.1-0.3,1-0.1,0.7-0.4l1.2,0.4
	c-1.1-0.3-0.9-1.1-1.4-1.4c0.9,0.2,0.6,0.7,1.2,1c0.3-1.1,0.1-0.5,0.4-1.6c-0.7-0.9-1.1-0.3-2.1-1c0-0.6-0.7-1.4,0.3-1.6l-1.1-0.2
	c-0.4-1.2-0.1-1.7,1.2-1.9c-5.8-10.1-11-6-11-6c-3,1.8-0.6,4.4-1,7.9c-1.6,2.6-3.9,2.5-4.3,5.7c-0.7,1.3-0.8,3-1.1,4.4
	c1.3,1.3-0.7,1.8,0.3,3.1l-1-0.1c0.3,0.4,0.5,0.9-0.1,0.9l-0.3-0.1c0.5,0.7-0.1,0.9,0.2,1.3l-0.3-0.1l-0.1,0.5l-0.3-0.2
	c0.4,1,0.2,1.7-0.4,2.2l1.1,0.4c-1.7,0.8,0.3,2.2-1.6,2.8l-0.3-0.1c1.9,2.1-1.2,1.8-1.3,3.1c-0.3-0.2-0.8-0.2-1.3,0.5
	c0.6-0.8,0.1-1.3,0.6-2.3c-0.7,0.9-1.8,1.3-1.8,0.1l0.1-0.1c-0.9-1.6-2.7,0.6-3.4-1.1c-0.4,1.1-0.7,0.3-1.1,1.7
	c-1.7,0.9-1.1-3.6-3.2,0.4c-0.6,0-0.2-1.2-0.4-1.6l0.2-0.2c-1.1,0-1.5-0.1-2.2-0.5c-0.5,0.3-1.4,2.2-1.9,1.5
	c0.5-0.7,0.2-0.7-0.1-0.8c0.2-0.1,0.4-0.3,0.3-1c-0.1,0.2-0.3,0.3-0.4,0.4c0-0.1,0-0.1,0.1-0.2c-0.5,0.1-0.6,0.4-0.4,0.6
	c-0.1,0.1-0.1,0.3-0.1,0.5c0-1.2-1.2-0.4-0.8-1.8c-1.4-0.2-2.8,0.9-4.1,1c0.2-0.7,0.6-1.3,1.1-1.4h-0.8c0.4-1,0.7-0.4,1-0.5
	c-0.2-2-2.5,0.9-2.9-1l-0.5,0.7v-0.2c-0.2,0.4-0.6,0.9-0.8,1c0.2-0.9,0.8-2,0.3-2.1c-0.1-1-1.3,0-2,0.2c0.2,0.3-0.1,0.7-0.3,1
	c-0.3-0.1-0.1-1-0.4-0.7l0.4-1.2c-0.3,1.1-1.1,0.9-1.4,1.4c0.2-0.9,0.7-0.6,1-1.2c-1.1-0.3-0.5-0.1-1.6-0.4c-0.9,0.7-0.3,1.1-1,2.1
	c-0.6,0-1.4,0.7-1.6-0.3l-0.2,1.1c-1.2,0.4-1.7,0.1-1.9-1.2c-10.1,5.8-6,11-6,11c1.8,3.1,4.4,0.6,7.9,1c2.6,1.6,2.5,3.9,5.7,4.3
	c1.3,0.7,3,0.8,4.4,1.1c1.3-1.3,1.8,0.7,3.1-0.3l-0.1,1c0.4-0.3,0.9-0.5,0.9,0.1l-0.1,0.3c0.7-0.5,0.9,0.1,1.3-0.2l-0.1,0.3l0.5,0.1
	l-0.2,0.3c1-0.4,1.7-0.2,2.2,0.4l0.4-1.1c0.8,1.7,2.2-0.3,2.8,1.6l-0.1,0.3c2.6-2.3,1.6,2.9,4.2,0.8c-0.3,0.3-0.1,0.6-0.3,0.8
	c0.3,0,0.5,0,0.8-0.1c-0.4,0.8-0.9,1.5-1.8,2l-1.1-0.3c-1.6-0.6,2,1.8,0.5,1.4l0.6,0.7c-0.3,0-0.7,0.1-1-0.2
	c-0.2,0.3,0.1,0.4,0.4,0.9h-1.1c-1.3,1.1,0.2,3-0.8,4.2c-2.7,0.9-2.1,4.9-1.8,7.2c1.4,3.6-6.2,4.1-4.5,7.8c-0.3,0,0.2,0.4,0.3,0.5
	l-1.2,2.4c0,0-5.3,11.6,11.5,7.8l0.3,0.2c1.4-1,1.9-1.8,0.5-3.4c2.2,0.7,0.7-1,1.5-1.1l0.2,0.1c-1.3-1.5,2-1.1,0.9-2.5
	c0.2,0.1,0.7,0.3,0.7,0.5c0-0.7-0.2-1.7,1.1-1.2c0.2-1.5,1.5-3.2-0.1-4.9l0.3,0.2c-1.1-1,0.1-0.7-0.4-1.6c0.1,0,0.2,0,0.2,0
	c-0.9-1,0.5-1.6,0.1-2.2l0.8,0.3l0.2-1.2l-0.3,0.3c-2.2-1,1.8-0.3,0.6-1.6c0.6-0.6-4.1-3.4-2.7-3.7c-0.9-0.8,1.6,1,1,0.1
	c1.2,0.5,0.6,0.5,1.6,0.8c-0.4-0.8,1.6-0.4,1-1.4l0.9,0.3c-1.4-1.5,1.9-1.1,0.5-2.4c-0.4-1.2,3,0.5,1.5-1.2l1.4,0.1
	c0.4-0.3-1.4-0.9-0.6-1.1c0.8,0.3,0.8-0.3,1.5,0.2c1.6-0.5-1-2.7,1.6-3.2c-0.8-0.5-0.8-0.8-0.8-1.2c1.2,0.3,2.3,0.9,3,2.1l-0.3,1.1
	c-0.6,1.6,1.8-2,1.4-0.5l0.7-0.6c0,0.3,0.1,0.7-0.2,1c0.3,0.2,0.4-0.1,0.9-0.4v1.1c1.1,1.3,3-0.2,4.2,0.8c0.9,2.7,4.9,2.1,7.2,1.8
	c3.6-1.4,4.1,6.2,7.8,4.5c0,0.3,0.4-0.2,0.5-0.3l2.4,1.2C1425.6,1008.2,1437.2,1013.5,1433.4,996.7z"/>
<path class="st0" d="M719.4,223.7L719.4,223.7c-1,0.1-1.6,0.3-1.9,1.2c-0.5-0.7-0.8,0.3-1.1,0.2V225c-0.2,0.9-1.4,0.1-1.6,0.9
	c0-0.1-0.1-0.3,0-0.4c-0.3,0.3-0.8,0.7-1,0.3c-0.8,0.6-2.2,1-2.4,2.1v-0.1c-0.1,0.7-0.4,0.3-0.6,0.7c-0.1,0-0.1-0.1-0.1-0.1
	c-0.1,0.7-1,0.6-1.2,1l-0.2-0.3l-0.7,0.4l0.3-0.1c0.3,0.9-0.8-0.2-1.1,0.6c-0.5,0.1-0.1,2.2-0.8,2.1c0,0.5-0.1-0.7-0.3-0.3
	c-0.2-0.4,0-0.4-0.2-0.7c-0.2,0.4-0.8-0.1-1.1,0.4l-0.2-0.3c-0.2,0.9-1.3,0.1-1.4,0.9c-0.4,0.6-0.9-0.8-1.2,0.2l-0.5-0.3
	c-0.3,0.1,0.1,0.7-0.3,0.6c-0.1-0.3-0.5,0-0.5-0.4c-0.9-0.1-1,1.3-2.3,1c0.1,0.7-0.5,0.5-0.4,1c-0.1-0.2-0.9,0.4-0.7-0.4
	c0-0.1,0.1-0.1,0.1,0l-0.1-0.4c-0.3-0.1-0.5-0.1-0.6,0.1l-0.6-0.1c0.2-0.5-0.5-0.8-0.2-1.2c0,0-0.2-0.9-0.7-0.8
	c0.4,0,0.3-0.5,0.7-0.6c-0.5,0-1-0.4-0.8-0.8h0.1c-0.1-1-1.3-1.2-1.2-2.1c-0.4,0.2-0.4-0.3-0.8,0.1c-0.9-0.5,0.3-1.9-1.4-1.4
	c-0.3-0.3,0.1-0.6,0.1-0.8h0.1c-0.5-0.6-0.6-0.8-0.8-1.3c-0.3-0.2-1,0.2-1.1-0.4c0.4,0,0.2-0.2,0.1-0.3c0.1,0.1,0.2,0.1,0.3-0.3
	c-0.1,0-0.1,0-0.2,0c-0.2-0.2-0.3-0.1-0.3,0c0,0-0.1,0.1-0.2,0.1c0.2-0.5-0.4-0.8,0-1.1c-0.5-0.8-1.4-1.1-1.9-1.7
	c0.2-0.2,0.5-0.2,0.7,0l-0.3-0.4c0.4-0.2,0.4,0.2,0.5,0.3c0.3-0.9-1.2-0.9-1-1.9h-0.2H688v-0.1c-0.2,0.1-0.4,0-0.5,0
	c0.3-0.3,0.7-0.4,0.5-0.7c0.2-0.4-0.5-0.7-0.9-0.9c0,0.2-0.2,0.2-0.3,0.2c-0.1-0.2,0.2-0.4,0-0.5l0.2-0.1c-0.3,0.1-0.6-0.3-0.7-0.3
	c0.3-0.3,0.4,0.1,0.7,0c-0.4-0.7-0.2-0.3-0.6-1c-0.5-0.2-0.4,0.3-0.8,0.3c-0.2-0.3-0.7-0.4-0.6-0.9l-0.3,0.3
	c-0.6-0.4-0.7-0.8-0.6-1.4c-5.4-2.9-4.7,1.2-4.7,1.2c0.2,2.3,1.8,2.6,3.2,4.5c0.8,1.9,0.3,2.8,1.6,4.5c0.4,0.9,1.1,1.8,1.6,2.7
	c0.8,0.1,0.6,1.2,1.4,1.4l-0.2,0.4c0.3,0.1,0.5,0.2,0.4,0.5h-0.1c0.4,0.1,0.4,0.5,0.6,0.6h-0.1l0.2,0.3h-0.2
	c0.5,0.3,0.7,0.8,0.8,1.2l0.4-0.2c0,1.1,1,1,0.9,2h-0.1c1.5,0.5,0.1,1.9,1.6,2.4c-0.2-0.1-0.2,0.2-0.3,0.2c0.4,0.4,0.7,0.9,1.4,0.5
	c0.1,0.2,0,0.3-0.1,0.4c-0.1-0.1-0.2-0.2-0.4,0.1l-0.1-0.3l0.2,0.8c-0.2,0.9-0.7-0.5-0.8,0.7c0.2-0.2,0.5,0.7,0.1,0.7l-0.1-0.4
	c-0.1,0.2-0.1,0.3-0.2,0.3c0-0.2-0.2-0.5-0.4-0.3l-0.1-0.5l-0.1,0.8c-0.5-0.2-0.8,0.5-1.2,0.2c0,0-0.9,0.2-0.8,0.7
	c0-0.4-0.5-0.3-0.6-0.7c0,0.5-0.4,1-0.8,0.8v-0.1c-1,0.1-1.2,1.3-2.1,1.2c0.2,0.4-0.3,0.4,0.1,0.8c-0.5,0.9-1.9-0.3-1.4,1.4
	c-0.3,0.3-0.6-0.1-0.8-0.1v-0.1c-0.6,0.5-0.8,0.6-1.3,0.8c-0.2,0.3,0.2,1-0.4,1.1c0-0.4-0.2-0.2-0.3-0.1c0.1-0.1,0.1-0.2-0.3-0.3
	c0,0.1,0,0.1,0,0.2c-0.2,0.2-0.1,0.3,0,0.3c0,0,0.1,0.1,0.1,0.2c-0.5-0.2-0.8,0.4-1.1,0c-0.8,0.5-1.1,1.4-1.7,1.9
	c-0.2-0.2-0.2-0.5,0-0.7l-0.4,0.3c-0.2-0.4,0.2-0.4,0.3-0.5c-0.9-0.3-0.9,1.2-1.9,1v0.4h-0.1c0.1,0.2,0,0.4,0,0.5
	c-0.3-0.3-0.4-0.7-0.7-0.5c-0.4-0.2-0.7,0.5-0.9,0.9c0.2,0,0.2,0.2,0.2,0.3c-0.2,0.1-0.4-0.2-0.5,0l-0.1-0.2
	c0.1,0.3-0.3,0.6-0.3,0.7c-0.3-0.3,0.1-0.4,0-0.7c-0.7,0.4-0.3,0.2-1,0.6c-0.2,0.5,0.3,0.4,0.3,0.8c-0.3,0.2-0.4,0.7-0.9,0.6
	l0.3,0.3c-0.4,0.6-0.8,0.7-1.4,0.6c-2.9,5.4,1.2,4.7,1.2,4.7c2.7-0.2,3.1-1.8,5-3.2c1.9-0.8,2.8-0.3,4.5-1.6
	c0.9-0.4,1.8-1.1,2.7-1.6c0.1-0.8,1.2-0.6,1.4-1.4l0.4,0.2c0.1-0.3,0.2-0.5,0.5-0.4v0.1c0.1-0.4,0.5-0.4,0.6-0.6v0.1l0.3-0.2v0.2
	c0.3-0.5,0.8-0.7,1.2-0.8l-0.2-0.4c1.1,0,1-1,2-0.9v0.1c0.5-1.5,1.9-0.1,2.4-1.6c-0.1,0.2,0.2,0.2,0.2,0.3c0.4-0.4,0.9-0.7,0.5-1.4
	c0.3-0.2,0.4,0.1,0.6,0.4c-0.2-0.3,0-0.6,0.3-0.8l-0.1,0.2l0.5-0.4c1.1,1.4,2.2,2.7,2.3,4.4l-0.3,0.3c-0.6,0.3,1.2,0.1,0.7,0.5
	l0.4,0.1c-0.1,0.1-0.1,0.3-0.3,0.3c0.1,0.2,0.2,0.2,0.5,0.3l-0.2,0.4c0.2,1,1.3,1.4,1.6,2.4c-0.1,1.5,1.6,3.3,2.7,4.3
	c1.8,1.3,0.5,4.5,2.4,5.7c-0.1,0.1,0.2,0.2,0.3,0.1l0.8,1.7c0,0,3.8,7.9,5.5-0.5h0.1c-0.2-1-0.4-1.6-1.3-1.9
	c0.7-0.5-0.3-0.8-0.2-1.1h0.1c-0.9-0.2-0.1-1.4-0.9-1.6c0.1,0,0.3-0.1,0.4,0c-0.3-0.3-0.7-0.8-0.3-1c-0.6-0.8-1-2.2-2.1-2.4h0.1
	c-0.7-0.1-0.3-0.4-0.7-0.6c0-0.1,0.1-0.1,0.1-0.1c-0.7-0.1-0.6-1-1-1.2l0.3-0.2l-0.4-0.7l0.1,0.3c-0.9,0.3,0.2-0.8-0.6-1.1
	c-0.1-0.5-2.2-0.1-2.1-0.8c-0.5,0,0.7-0.1,0.3-0.3c0.4-0.2,0.4,0,0.7-0.2c-0.4-0.2,0.1-0.8-0.4-1.1l0.3-0.2
	c-0.9-0.2-0.1-1.3-0.9-1.4c-0.6-0.4,0.8-0.9-0.2-1.2l0.3-0.5c-0.1-0.3-0.7,0.1-0.6-0.3c0.3-0.1,0-0.5,0.4-0.5c0.1-0.9-1.3-1-1-2.3
	c-0.7,0.1-0.5-0.5-1-0.4c0.2-0.1-0.4-0.9,0.4-0.7c0.1,0,0.1,0.1,0,0.1l0.4-0.1c0.4-0.7-0.6-0.7-0.9-1.1c1-0.7,2-1.3,3.2-1.4l0.3,0.3
	c0.3,0.6,0.1-1.2,0.5-0.7l0.1-0.4c0.1,0.1,0.3,0.1,0.3,0.3c0.2-0.1,0.2-0.2,0.3-0.5l0.4,0.2c1-0.2,1.4-1.3,2.4-1.6
	c1.5,0.1,3.3-1.6,4.3-2.7c1.3-1.8,4.5-0.5,5.7-2.4c0.1,0.1,0.2-0.2,0.1-0.3l1.7-0.8C719.9,229.2,727.8,225.4,719.4,223.7z
	 M697,234.5c-0.1,0-0.3,0-0.3-0.1C696.8,234.4,696.9,234.4,697,234.5z M697,233.6l0.3-0.1c-0.1,0.2-0.2,0.4-0.4,0.6
	c-0.1-0.1-0.2-0.1-0.2-0.2C696.9,234,697.2,233.8,697,233.6z M696.8,234.2c-0.1,0.1-0.1,0.1-0.2,0.1c0,0,0,0,0-0.1L696.8,234.2z
	 M700.3,239.4L700.3,239.4c0.1-0.1,0.1-0.1,0.2-0.2C700.5,239.3,700.5,239.4,700.3,239.4z"/>
<path class="st0" d="M1400.9,1533.6L1400.9,1533.6c-1,0.1-1.6,0.3-1.9,1.2c-0.5-0.7-0.8,0.3-1.1,0.2v-0.1c-0.2,0.9-1.4,0.1-1.6,0.9
	c0-0.1-0.1-0.3,0-0.4c-0.3,0.3-0.8,0.7-1,0.3c-0.8,0.6-2.2,1-2.4,2.1v-0.1c-0.1,0.7-0.4,0.3-0.6,0.7c-0.1,0-0.1-0.1-0.1-0.1
	c-0.1,0.7-1,0.6-1.2,1l-0.2-0.3l-0.7,0.4l0.3-0.1c0.3,0.9-0.8-0.2-1.1,0.6c-0.5,0.1-0.1,2.2-0.8,2.1c0,0.5-0.1-0.7-0.3-0.3
	c-0.2-0.4,0-0.4-0.2-0.7c-0.2,0.4-0.8-0.1-1.1,0.4l-0.2-0.3c-0.2,0.9-1.3,0.1-1.4,0.9c-0.4,0.6-0.9-0.8-1.2,0.2l-0.5-0.3
	c-0.3,0.1,0.1,0.7-0.3,0.6c-0.1-0.3-0.5,0-0.5-0.4c-0.9-0.1-1,1.3-2.3,1c0.1,0.7-0.5,0.5-0.4,1c-0.1-0.2-0.9,0.4-0.7-0.4
	c0-0.1,0.1-0.1,0.1,0l-0.1-0.4c-0.5-0.3-0.7,0.2-0.9,0.6c-0.2,0-0.4,0-0.4-0.2l0.4-0.1c-0.2-0.1-0.3-0.1-0.3-0.2
	c0.2,0,0.5-0.2,0.3-0.4l0.5-0.1l-0.8-0.1c0.2-0.5-0.5-0.8-0.2-1.2c0,0-0.2-0.9-0.7-0.8c0.4,0,0.3-0.5,0.7-0.6c-0.5,0-1-0.4-0.8-0.8
	h0.1c-0.1-1-1.3-1.2-1.2-2.1c-0.4,0.2-0.4-0.3-0.8,0.1c-0.9-0.5,0.3-1.9-1.4-1.4c-0.3-0.3,0.1-0.6,0.1-0.8h0.1
	c-0.5-0.6-0.6-0.8-0.8-1.3c-0.3-0.2-1,0.2-1.1-0.4c0.4,0,0.2-0.2,0.1-0.3c0.1,0.1,0.2,0.1,0.3-0.3c-0.1,0-0.1,0-0.2,0
	c-0.2-0.2-0.3-0.1-0.3,0c0,0-0.1,0.1-0.2,0.1c0.2-0.5-0.4-0.8,0-1.1c-0.5-0.8-1.4-1.1-1.9-1.7c0.2-0.2,0.5-0.2,0.7,0l-0.3-0.4
	c0.4-0.2,0.4,0.2,0.5,0.3c0.3-0.9-1.2-0.9-1-1.9h-0.4v-0.1c-0.2,0.1-0.4,0-0.5,0c0.3-0.3,0.7-0.4,0.5-0.7c0.2-0.4-0.5-0.7-0.9-0.9
	c0,0.2-0.2,0.2-0.3,0.2c-0.1-0.2,0.2-0.4,0-0.5l0.2-0.1c-0.3,0.1-0.6-0.3-0.7-0.3c0.3-0.3,0.4,0.1,0.7,0c-0.4-0.7-0.2-0.3-0.6-1
	c-0.5-0.2-0.4,0.3-0.8,0.3c-0.2-0.3-0.7-0.4-0.6-0.9l-0.3,0.3c-0.6-0.4-0.7-0.8-0.6-1.4c-5.4-2.9-4.7,1.2-4.7,1.2
	c0.2,2.8,1.8,3.1,3.2,5c0.8,1.9,0.3,2.8,1.6,4.5c0.4,0.9,1.1,1.8,1.6,2.7c0.8,0.1,0.6,1.2,1.4,1.4l-0.2,0.4c0.3,0.1,0.5,0.2,0.4,0.5
	h-0.1c0.4,0.1,0.4,0.5,0.6,0.6h-0.1l0.2,0.3h-0.2c0.5,0.3,0.7,0.8,0.8,1.2l0.4-0.2c0,1.1,1,1,0.9,2h-0.1c1.5,0.5,0.1,1.9,1.6,2.4
	c-0.2-0.1-0.2,0.2-0.3,0.2c0.4,0.4,0.7,0.9,1.4,0.5c0.1,0.2,0,0.3-0.1,0.4c-0.1-0.1-0.2-0.2-0.4,0.1l-0.1-0.3l0.2,0.8
	c-0.2,0.9-0.7-0.5-0.8,0.7c0.2-0.2,0.5,0.7,0.1,0.7l-0.1-0.4c-0.1,0.2-0.1,0.3-0.2,0.3c0-0.2-0.2-0.5-0.4-0.3l-0.1-0.5l-0.1,0.8
	c-0.5-0.2-0.8,0.5-1.2,0.2c0,0-0.9,0.2-0.8,0.7c0-0.4-0.5-0.3-0.6-0.7c0,0.5-0.4,1-0.8,0.8v-0.1c-1,0.1-1.2,1.3-2.1,1.2
	c0.2,0.4-0.3,0.4,0.1,0.8c-0.5,0.9-1.9-0.3-1.4,1.4c-0.3,0.3-0.6-0.1-0.8-0.1v-0.1c-0.6,0.5-0.8,0.6-1.3,0.8c-0.2,0.3,0.2,1-0.4,1.1
	c0-0.4-0.2-0.2-0.3-0.1c0.1-0.1,0.1-0.2-0.3-0.3c0,0.1,0,0.1,0,0.2c-0.2,0.2-0.1,0.3,0,0.3c0,0,0.1,0.1,0.1,0.2
	c-0.5-0.2-0.8,0.4-1.1,0c-0.8,0.5-1.1,1.4-1.7,1.9c-0.2-0.2-0.2-0.5,0-0.7l-0.4,0.3c-0.2-0.4,0.2-0.4,0.3-0.5
	c-0.9-0.3-0.9,1.2-1.9,1v0.4h-0.1c0.1,0.2,0,0.4,0,0.5c-0.3-0.3-0.4-0.7-0.7-0.5c-0.4-0.2-0.7,0.5-0.9,0.9c0.2,0,0.2,0.2,0.2,0.3
	c-0.2,0.1-0.4-0.2-0.5,0l-0.1-0.2c0.1,0.3-0.3,0.6-0.3,0.7c-0.3-0.3,0.1-0.4,0-0.7c-0.7,0.4-0.3,0.2-1,0.6c-0.2,0.5,0.3,0.4,0.3,0.8
	c-0.3,0.2-0.4,0.7-0.9,0.6l0.3,0.3c-0.4,0.6-0.8,0.7-1.4,0.6c-2.9,5.4,1.2,4.7,1.2,4.7c2.8-0.2,3.1-1.8,5-3.2
	c1.9-0.8,2.8-0.3,4.5-1.6c0.9-0.4,1.8-1.1,2.7-1.6c0.1-0.8,1.2-0.6,1.4-1.4l0.4,0.2c0.1-0.3,0.2-0.5,0.5-0.4v0.1
	c0.1-0.4,0.5-0.4,0.6-0.6v0.1l0.3-0.2v0.2c0.3-0.5,0.8-0.7,1.2-0.8l-0.2-0.4c1.1,0,1-1,2-0.9v0.1c0.5-1.5,1.9-0.1,2.4-1.6
	c-0.1,0.2,0.2,0.2,0.2,0.3c0.4-0.4,0.9-0.7,0.5-1.4c0.3-0.2,0.4,0.1,0.6,0.4c-0.2-0.3,0-0.6,0.3-0.8l-0.1,0.2l0.5-0.4
	c1.1,1.4,2.2,2.7,2.3,4.4l-0.3,0.3c-0.6,0.3,1.2,0.1,0.7,0.5l0.4,0.1c-0.1,0.1-0.1,0.3-0.3,0.3c0.1,0.2,0.2,0.2,0.5,0.3l-0.2,0.4
	c0.2,1,1.3,1.4,1.6,2.4c-0.1,1.5,1.6,3.3,2.7,4.3c1.8,1.3,0.5,4.5,2.4,5.7c-0.1,0.1,0.2,0.2,0.3,0.1l0.8,1.7c0,0,3.8,7.9,5.5-0.5
	h0.1c-0.2-1-0.4-1.6-1.3-1.9c0.7-0.5-0.3-0.8-0.2-1.1h0.1c-0.9-0.2-0.1-1.4-0.9-1.6c0.1,0,0.3-0.1,0.4,0c-0.3-0.3-0.7-0.8-0.3-1
	c-0.6-0.8-1-2.2-2.1-2.4h0.1c-0.7-0.1-0.3-0.4-0.7-0.6c0-0.1,0.1-0.1,0.1-0.1c-0.7-0.1-0.6-1-1-1.2l0.3-0.2l-0.4-0.7l0.1,0.3
	c-0.9,0.3,0.2-0.8-0.6-1.1c-0.1-0.5-2.2-0.1-2.1-0.8c-0.5,0,0.7-0.1,0.3-0.3c0.4-0.2,0.4,0,0.7-0.2c-0.4-0.2,0.1-0.8-0.4-1.1
	l0.3-0.2c-0.9-0.2-0.1-1.3-0.9-1.4c-0.6-0.4,0.8-0.9-0.2-1.2l0.3-0.5c-0.1-0.3-0.7,0.1-0.6-0.3c0.3-0.1,0-0.5,0.4-0.5
	c0.1-0.9-1.3-1-1-2.3c-0.7,0.1-0.5-0.5-1-0.4c0.2-0.1-0.4-0.9,0.4-0.7c0.1,0,0.1,0.1,0,0.1l0.4-0.1c0.4-0.7-0.6-0.7-0.9-1.1
	c1-0.7,2-1.3,3.2-1.4l0.3,0.3c0.3,0.6,0.1-1.2,0.5-0.7l0.1-0.4c0.1,0.1,0.3,0.1,0.3,0.3c0.2-0.1,0.2-0.2,0.3-0.5l0.4,0.2
	c1-0.2,1.4-1.3,2.4-1.6c1.5,0.1,3.3-1.6,4.3-2.7c1.3-1.8,4.5-0.5,5.7-2.4c0.1,0.1,0.2-0.2,0.1-0.3l1.7-0.8
	C1401.4,1539.1,1409.3,1535.3,1400.9,1533.6z M1381.8,1549.3L1381.8,1549.3c0.1-0.1,0.1-0.1,0.2-0.2
	C1382,1549.2,1382,1549.3,1381.8,1549.3z"/>
</svg>
