<?xml version="1.0" encoding="utf-8"?>
<!-- Generator: Adobe Illustrator 27.5.0, SVG Export Plug-In . SVG Version: 6.00 Build 0)  -->
<svg version="1.1" id="Layer_2_00000152250659052159477520000016802276324438667197_"
	 xmlns="http://www.w3.org/2000/svg" xmlns:xlink="http://www.w3.org/1999/xlink" x="0px" y="0px" viewBox="0 0 1800 1800"
	 style="enable-background:new 0 0 1800 1800;" xml:space="preserve">
<style type="text/css">
	.st0{fill:#E4EB24;}
</style>
<g>
	<g>
		<path class="st0" d="M1009.8,829.7c-15.7,10.7-42.1,21.3-75.6,21.3c-41.1,0-77.7-15.7-103-45.2c-19.3-21.3-32-50.8-36.5-87.3
			h-31.5v-24.9h28.9c0-2.5,0-5.1,0-7.6c0-8.1,0.5-15.7,1-22.8h-29.9v-25.4h33.5c6.1-35.5,21.3-65,41.6-85.8
			c25.9-26.9,58.9-42.1,100.5-42.1c29.9,0,53.3,8.6,67.5,16.2l-10.2,33.5c-12.7-7.6-34-14.2-56.8-14.2c-27.4,0-49.7,9.6-67,27.9
			c-15.2,14.7-25.4,37.6-30.5,64.5h141.6v25.4H837.3c-0.5,6.6-1,14.2-1,21.3c0,3,0,5.6,0,9.1h147.2v24.9H839.8
			c4.1,29.4,14.2,51.3,27.9,66.5c18.8,19.8,44.2,29.4,71.6,29.4c26.9,0,50.2-10.2,61.9-16.7L1009.8,829.7z"/>
		<g>
			<path class="st0" d="M1009.8,829.7c-15.7,10.7-42.1,21.3-75.6,21.3c-41.1,0-77.7-15.7-103-45.2c-19.3-21.3-32-50.8-36.5-87.3
				h-31.5v-24.9h28.9c0-2.5,0-5.1,0-7.6c0-8.1,0.5-15.7,1-22.8h-29.9v-25.4h33.5c6.1-35.5,21.3-65,41.6-85.8
				c25.9-26.9,58.9-42.1,100.5-42.1c29.9,0,53.3,8.6,67.5,16.2l-10.2,33.5c-12.7-7.6-34-14.2-56.8-14.2c-27.4,0-49.7,9.6-67,27.9
				c-15.2,14.7-25.4,37.6-30.5,64.5h141.6v25.4H837.3c-0.5,6.6-1,14.2-1,21.3c0,3,0,5.6,0,9.1h147.2v24.9H839.8
				c4.1,29.4,14.2,51.3,27.9,66.5c18.8,19.8,44.2,29.4,71.6,29.4c26.9,0,50.2-10.2,61.9-16.7L1009.8,829.7z"/>
			<g>
				<g>
					<g>
						<path class="st0" d="M790.3,736.9c-0.1-1.7-0.3-3.4-0.4-5.1C789.6,731.9,789.6,733.2,790.3,736.9z"/>
						<path class="st0" d="M991,717.8c0,0.6,0.1,1.3,0.1,1.9C991.1,718.4,991,718,991,717.8z"/>
						<path class="st0" d="M776,650.2C775.9,650.2,775.9,650.2,776,650.2C776,650.3,776,650.3,776,650.2
							C775.9,650.3,775.9,650.3,776,650.2z"/>
						<path class="st0" d="M828.7,784.9c-1.6-2.4-2.9-4.8-4.2-7.1c-1.2-2.4-2.5-4.6-3.5-6.9c-1.1-2.2-2-4.5-2.9-6.7
							s-1.7-4.4-2.4-6.5c-2.9-8.5-4.7-16.3-6.1-23.9c-0.3-1.9-0.7-3.8-0.9-5.6c-0.3-1.7-0.5-3.4-0.8-5.1c-0.2-1.9-0.5-3.8-0.7-5.7
							c-0.5-3.8-1-7.6-1.5-11.4v-0.2h-0.2h-0.4h-0.7H803h-2.9c-1.9,0-3.8-0.1-5.8-0.1c-3.8,0-7.7-0.1-11.6-0.1
							c-1.9,0-3.8-0.1-5.8-0.1c-0.1-0.1-0.2-0.1-0.4-0.2v-0.2l0,0l0,0v0.2v0.8c0,0.3,0,0.6,0,0.9v0.4v-0.6c0-0.5,0-1,0-1.6v-0.3v0.2
							v0.4c0,0.6,0,1.1,0,1.7c0-0.1,0-0.1,0-0.2c0.1,0,0.1-0.1,0.2-0.1h0.1l0,0l0,0l0,0l0,0h0.2c2.8,0,5.6,0,8.4-0.1
							c6.5,0,13,0,19.6,0h0.2v-0.2v-0.3v-0.6v-1.2V702c0-1.6,0-3.3,0-4.9c0-3.3,0-6.6,0-9.9v-2.5v-2.4l0.1-3.3l0.2-3.8l0.3-5
							c0.4-6.7,0.9-13.4,1.3-20.1c-9.7,0-19.3,0.1-29,0.1c-1.8,0-1.2,0-1.4,0h-0.3l-0.6,0.1l-0.1-0.4l0,0v0.1v0.3v0.5v0.5v0.1v-0.3
							v-0.8v-0.8c0-0.2,0-0.1,0,0v0.1v0.5v0.5v0.2c0,0.1,0,0.1,0,0l0,0l-0.1-0.6c0.1,0,0.2,0,0.3,0c0-0.3,0.2-0.5,0.4-0.6
							c0.1-0.1,0.3-0.1,0.5-0.2l0,0h0.2h0.4c0.3,0,0.6,0,0.9,0c0.6,0,1.2,0,1.8-0.1c1.2,0,2.5,0,3.8-0.1c2,0,3.9,0,5.9,0
							c4.8,0,9.7,0,14.7,0h0.9h0.2h0.1v-0.1l0.1-0.5l0.4-1.8l0.7-3.6c0.5-2.4,1-4.9,1.5-7.3c0.2-1.2,0.5-2.5,0.7-3.7
							c0.2-1,0.5-2,0.7-3c0.3-1.2,0.6-2.5,0.9-3.7c0.3-1.2,0.6-2.4,0.8-3.6c0.3-1.2,0.6-2.3,0.9-3.5c0.6-2.3,1.1-4.5,1.6-6.5
							c1-1.9,2.3-3.8,3.4-5.7c1.5-5.6,4-12,7.4-16.7l0.1,0.5c0.8-2,1.8-4,2.8-5.9c1.1-1.9,2.1-3.8,3.3-5.4c2.2-3.4,4.3-6.1,5.4-8
							l0.1,0.5c1.1-1.4,2.1-2.7,3.2-4.1c1.1-1.3,2.2-2.6,3.3-4c-0.3,0.5-0.5,1.1-0.8,1.7c1.1-1.5,2.4-2.9,3.5-4.3
							c1.2-1.4,2.5-2.8,3.8-4.2s2.7-2.7,4-4c0.7-0.6,1.3-1.3,2-1.9c0.7-0.6,1.4-1.2,2.1-1.8c5.7-4.8,11.7-8.8,17.6-11.9l-1.7-0.7
							c1.6-0.9,3.2-1.5,4.7-2.3c0.8-0.4,1.5-0.7,2.2-1.1c0.7-0.3,1.5-0.6,2.2-0.9c1.4-0.6,2.8-1.2,4.1-1.8c1.3-0.5,2.7-1,3.9-1.5
							c1.3-0.5,2.5-1,3.7-1.4s2.4-0.9,3.6-1.3c2.4-0.7,4.7-1.5,7-2.2c1.2-0.3,2.3-0.6,3.5-0.9c1.2-0.3,2.3-0.6,3.5-0.8
							s2.4-0.5,3.6-0.7c0.6-0.1,1.2-0.2,1.9-0.3c0.6-0.1,1.3-0.2,1.9-0.2c1.3-0.1,2.6-0.3,4-0.4c1.4-0.2,2.8-0.2,4.2-0.2
							s2.9-0.1,4.5-0.1c1.5,0.1,3.2,0.1,4.8,0.2l-0.4,0.4c8.3-1.1,15.9-0.8,22.9,0.2c7,1.1,13.4,2.9,19.7,5.1
							c3.1,1.2,6.2,2.4,9.3,3.7c0.8,0.3,1.6,0.7,2.3,1l0.6,0.3c0.4,0.2,0.7,0.4,1.1,0.6c0.2,0.1,0.4,0.2,0.6,0.3l0.2,0.1h0.1
							c0,0,0,0,0,0.1l-0.1,0.3c-0.1,0.4-0.2,0.9-0.2,1.3c0,0.3,0,0.5-0.1,0.8c0,0.1,0,0.1,0,0.2l-0.2,0.8c-0.1,0.5-0.2,1.1-0.4,1.6
							c-0.2,1.1-0.5,2.2-0.7,3.3l-0.2,0.8l-0.1,0.4v0.2v0.1v0.6c0-0.8-0.2-0.6-0.5-0.5c-0.2,0.2-0.5,0.5-0.6,0.3
							c-0.1,0.5-0.2,1.1-0.3,1.6c-0.1,0.3-0.1,0.6-0.2,0.9l-0.1,0.4v0.2c0,0.1-0.1,0-0.1,0c-0.6-0.3-1.3-0.5-1.9-0.6
							c-0.6-0.1-1.4-0.2-3.1-0.6c-2.1-0.5-3.9-0.8-5.2-0.8s-2.1,0.2-2.3,0.7c-6.3-1.9-8.9-2.5-10-3.2c-1.1-0.6-0.9-1.1-1.6-1.8
							c0,0.3-0.8,0.4-2,0.4c-0.6,0-1.4,0-2.2-0.1c-0.9,0-1.8-0.1-2.8-0.2c-4.1-0.3-9.5-0.7-14.6-0.9l4.7-0.2
							c-4.9-0.3-9.8-0.2-14.7,0c-4.9,0.4-9.8,0.9-14.7,1.9l3.1,0.7l1.5,0.4l1.5,0.4c-7.7,0.7-8.8,0.5-9.8,0.1c-1-0.3-2-0.7-9.2,1.8
							l0.8,1.8c-2.6,0.7-5,1.6-7.3,2.4c-2.3,0.9-4.5,1.7-6.6,2.6c-2.1,0.9-4.1,1.9-6.1,2.8c-1,0.5-1.9,1-2.9,1.5s-1.9,1-2.9,1.5
							l-2.8,1.6c-0.9,0.5-1.8,1.2-2.8,1.8c-1.9,1.2-3.7,2.5-5.5,3.9s-3.5,2.8-5.4,4.4c-0.9,0.8-1.9,1.5-2.8,2.5
							c-0.9,0.9-1.9,1.9-2.9,2.9c-3.1,3.6-5.8,7.5-8.3,11.5s-4.6,8.2-6.6,12.4c-1.9,4.2-3.7,8.5-5.1,12.9c-0.7,2.2-1.4,4.4-2.1,6.6
							l-0.6,2c-0.3,0.9-0.5,1.8-0.8,2.7c-0.5,1.8-0.9,3.6-1.3,5.4c-0.9,3.6-1.6,7.1-2.3,10.7l-1,5.3l-0.5,2.7l-0.3,1.3l-0.1,0.7
							c0,0.1,0,0.1,0.1,0.1h0.2h0.3l10.8,0.2l2.7,0.1h2.8l5.6-0.1l9.3-0.1l6.5-0.1c4.3-0.1,8.7-0.2,13-0.2
							c17.4-0.3,34.7-0.6,51.7-0.8c8.5-0.1,17-0.2,25.4-0.2c3.9,0,7.9,0,11.8,0c1.7,0,3.4,0.1,4.9,0.1c0,0.9-0.1,1.7-0.1,2.6v0.2
							v0.1v0.1v0.2v0.2l0,0v0.4v0.8v0.8c0,0.2,0,0.1,0,0.2l0,0v0.2v0.2c0,0,0,0.1,0,0.3c-0.1,0.7-0.1,1.4-0.2,2.2
							c-0.9-0.1-1.8-0.2-2.7-0.3l-1.2-0.1l-0.6-0.1h-0.3c-0.1,0-0.1,0-0.2,0h-0.4l-3.4-1.5c-1.5-2.2-21,3.2-23.9,1.2l-8.8,1
							c-2.5-0.4-7.7-0.8-3.3-1.3c-8.2-0.1-8.4,0.3-14.3,0.9l-8.8-1.3c-16.1-0.5-31-0.1-46.2,0.3c-4,0.1-8,0.2-12,0.3
							c-3.2,0.1-6.5,0.1-9.8,0.2c-3.2,0.1-6.4,0.2-9.7,0.2h-0.6c-0.1,0,0,0.1-0.1,0.1v0.2v0.3l-0.1,1.2l-0.2,2.5
							c-0.1,1.7-0.2,3.3-0.3,5c-0.2,3.3-0.4,6.7-0.6,10.1c-0.1,1.4-0.1,2.8-0.2,4.2l-0.1,1.6c0,0.8,0,1.6-0.1,2.5
							c0,3.5-0.1,7-0.1,10.5c-0.1,2.1-0.2,4.2-0.2,6.4c0,1.1-0.1,2.2-0.1,3.3v0.9v0.4v0.2c0,0,0.1,0,0.2,0c0.5,0,1.1,0,1.6,0.1
							c4.4,0.1,9,0.3,14,0.4c2.5,0,5,0.1,7.5,0.1c1.5,0,3,0.1,4.6,0.1c3,0,6.1,0.1,9.3,0.1c12.7,0.1,26.5,0.1,40.6-0.1
							c14-0.2,28.2-0.5,41.7-0.9c6.7-0.2,13.3-0.4,19.6-0.6c0.8,0,1.6,0,2.3-0.1h1.2h0.6h0.2c0.6,0,1.1-0.1,1.7-0.1
							c1.2-0.1,2.4-0.2,3.5-0.3c0,0.6,0.1,1.1,0.1,1.6c0,0.3,0,0.5,0.1,0.7v0.2c0,0.1,0,0.1,0,0.1l0,0l0.1,0.1v0.1v1v1v0.5l0,0
							c0,0.1,0.1,0.1,0.1,0.2v0.1v0.1v0.2l0.1,1c0,0.7,0.1,1.3,0.1,2c-1.6,0.1-3.3,0.1-5,0.1c-1.3,0-2.7,0-4.1,0c-1.9,0-3.7,0-5.6,0
							c-7.4-0.1-15-0.2-22.6-0.4c-15.2-0.4-30.6-1.1-46-1.6c-7.7-0.3-15.4-0.6-23-0.8c-3.8-0.1-7.7-0.2-11.5-0.3l-3.5-0.1h-5.1h-5.1
							c-1.7,0-3.4,0-5,0c-3.3,0.1-6.5,0.2-9.8,0.2l-2.4,0.1c-0.1,0,0,0.1,0,0.1v0.2v0.3l0.1,0.6l0.2,1.2c0.3,1.6,0.5,3.3,0.8,4.9
							c0.5,3.2,1,6.4,1.5,9.6c0.2,1.6,0.6,3.2,0.9,4.8c0.3,1.6,0.7,3.2,1,4.8c0.2,0.8,0.3,1.6,0.5,2.4l0.5,1.8l0.8,2.9
							c0.6,1.9,1.2,3.8,1.8,5.6c1.3,3.7,2.8,7.4,4.5,10.9c0.5,2.2,3.6,7.2,3.8,7c2.2,4.7,4.8,9.3,7.7,13.8c2.9,4.4,6.1,8.6,9.9,12.7
							c3.8,4,7.8,7.4,12,10.8c4.3,3.2,8.8,6.1,13.5,8.7c0,0,1.1,0.5,3.1,1.5c0.5,0.2,1,0.5,1.7,0.8c0.6,0.3,1.3,0.6,2,0.9
							c1.5,0.6,3.1,1.4,5,2c0.9,0.3,1.9,0.7,2.9,1.1c1,0.3,2.1,0.7,3.3,1c2.2,0.8,4.7,1.3,7.3,2c5.2,1.2,11.1,2.1,17.3,2.6
							c1.6,0.1,3.1,0.2,4.7,0.3c1.6,0,3.2,0,4.9,0.1c1.6,0,3.3-0.1,5-0.2c1.7-0.1,3.3-0.2,5-0.4c6.7-0.6,13.5-1.9,20.1-3.6
							c6.6-1.7,13-3.9,18.9-6.5c0.7-0.3,1.5-0.6,2.2-0.9l0.8-0.4c0.6-0.3,1.1-0.6,1.7-0.9c1.1-0.7,2.2-1.3,3.4-2.1l0.2-0.1
							c0.1,0,0.1,0.1,0.1,0.1l0.1,0.3c0.1,0.2,0.2,0.4,0.3,0.6c0.2,0.4,0.3,0.8,0.5,1.2c0.4,0.9,0.7,1.7,1.1,2.5
							c0.2,0.4,0.4,0.9,0.5,1.3c0.1,0.2,0.2,0.4,0.3,0.6c0,0.1,0,0.1,0.1,0.2l0.1,0.3l0.2,0.6c0.6,1.6,1.1,3.1,1.7,4.5
							c2.1,5.6,3.9,9.2,5,10c1.1,0.9,1.7-1,1.4-6.5c-0.1-2.7-0.5-6.4-1-11c-0.3-2.5-0.8-5.4-1.3-8.9c-0.3-1.8-0.6-3.6-0.9-5.6
							c-0.2-1-0.4-2-0.6-3.1c-0.1-0.5-0.2-1.1-0.3-1.6l-0.2-0.8c0-0.1,0-0.2,0-0.2h-0.1l-0.2-0.1c-3,1.3-6.5,2.8-10.5,4.4
							c-1,0.4-2,0.8-3.1,1.2s-2.2,0.8-3.3,1.2l-0.4,0.2l-0.2,0.1H985l-0.6,0.2c-0.4,0.1-0.9,0.2-1.3,0.4c-0.9,0.3-1.8,0.5-2.7,0.7
							c-7.2,1.9-15.4,3.5-24.4,4.1l1.3-0.7c-7.4,0.9-14.1,1.1-20.3,0.9c-6.2-0.3-11.8-1-17.1-2s-10.2-2.2-14.9-3.7
							c-4.8-1.5-9.4-3.2-14-5.3c-0.3-1-1.7-2.4-3.7-3.9c-1-0.8-2.1-1.6-3.3-2.5c-1.1-0.9-2.4-1.9-3.7-2.9c-1.2-1-2.5-2.1-3.7-3.1
							c-1.1-1.1-2.3-2.1-3.3-3.1c-1.9-2.1-3.5-4.1-4.3-5.6l0.6,0.4c-6.2-6.4-10.4-15-13.3-23.8c-1.4-4.4-2.6-8.9-3.8-13.3
							c-0.3-1.1-0.5-2.2-0.8-3.3c-0.1-0.3-0.1-0.5-0.2-0.7l-0.2-0.6c-0.3-0.8-0.6-1.7-1-2.7c0.3,0.4,1.2,0.9,1.5,2.2
							c-0.3-1-0.6-2.3-0.9-3.5c0-0.2-0.1-0.3-0.1-0.5h0.4c0.3,0,0.6,0,0.9,0c0.6,0,1.1,0,1.7,0c0.6,0,1.1,0,1.5,0.1
							c0.2,0,0.5,0,0.7,0.1c0.1,0,0.1,0,0.3,0c0.3,0,0.6,0,0.8,0.1c2.1,0.2,3.5,0.4,3.7,0.9c32.6-0.4,78.1,0.3,99-2.4l-1.4,0.5
							c2.7-0.4,4.9-0.6,6.9-0.8c1-0.1,2-0.1,2.9-0.1c0.5,0,0.9,0,1.4,0c0.7,0,1.4,0,2.1,0c5.5,0,11.2,0.2,18.9,0
							c0-1.8-0.1-3.8-0.2-6c0.2-0.9,0.3-2.3,0.4-2c0-0.5-0.1-1.1-0.1-1.6c0-0.3,0-0.5-0.1-0.8c0-0.3,0-0.7-0.1-1
							c-0.1-1.3-0.1-2.7-0.2-4.1c0-0.7-0.1-1.4-0.1-2.1c0-0.3,0-0.6,0-1V707c0-0.4,0-0.8-0.1-1.2v-0.6c0-0.4,0-0.7,0-1.1
							c0-2.8-0.1-5.7-0.1-8.7c0-2.6,0-5.3-0.1-8c-4.1,0-8.2,0-12.2,0c-3.6,0-7.2,0-10.6-0.1c-5,0-9.5,0-12.6,0.2L954,686l-25.8,0.3
							l9.7,0.2c-3.3,3.1-19.5-1.9-38.3,0.1c-8.8-0.2-17.6,1.4-26.6,2.9c-4.5,0.7-9,1.4-13.5,1.8c-2.3,0.2-4.5,0.3-6.8,0.4H851h-1.6
							c-1,0-1.9-0.1-2.9-0.2c-2,0.4-2.6,0.4-2.4,0.3c0.2-0.1,1-0.4,1.7-0.8c0.7-0.3,1.2-0.6,0.9-0.8s-1.2-0.2-3.9,0.1
							c0.4-0.8,1.6-1.1,2.5-1.3s1.4-0.4,0.7-1c-1,0.1-1.9,0.1-2.8,0.2c-0.4,0-0.9,0-1.3,0c-0.2,0-0.1-0.1-0.1-0.2v-0.3V687
							c0.1-1.8,0.3-3.4,0.5-5c0.1-0.4,0.1-0.8,0.2-1.2l0.1-0.6v-0.3v-0.5c0.1-1.2,0.2-2.4,0.3-3.6c0.1-1.7,0.2-3.4,0.1-5.8
							c0.4,0.3,0.8,0.6,1.2,0.9c0-0.1,0-0.1,0.1-0.1l0.2-0.1l0.4-0.1c0.2-0.1,0.5-0.1,0.8-0.2c0.5-0.1,1.1-0.2,1.7-0.2
							c0.6-0.1,1.2-0.1,1.8-0.1h0.9c0.6,0,1.2,0,1.8,0c4.8,0,9.4,0.2,13.8,0.4c8.8,0.4,16.8,0.9,23.6-0.2c21.1-1,14.2,3.7,36.2,1.3
							l8.6,1.7c9.4,0.3,6.7-2.1,17.2-1.3c-0.6,1.1,13.2,0.9,7.1,1.9c2,0.1,4.1,0.2,6.1,0.3c1,0,2.1,0.1,3.1,0.1c1.3,0,2.6,0,4,0
							c7.5,0,15-0.1,22.5-0.2c-0.1-7.5-0.3-15.2-0.4-23.1c0-0.6,0-1.2-0.1-1.9c0-1.1,0-2.2-0.1-3.3c0-2.2-0.1-4.3-0.1-6.5
							c0-3.7-0.1-7.5-0.1-11.3c-3.9,0-7.8,0-11.8,0c-2,0-4,0-6,0s-4-0.1-6-0.1c-4.8-0.1-9.7-0.4-14.8-0.9
							c-6.8,2.1-22.4,0.8-27.5,2.4c-0.8-0.9-31.4-0.1-13.8-2.1c1.5-0.2,4.2-0.1,4,0.2l2.1-1.2c-17.8-2.3-32.3,1.3-49.8,0.9
							c5.2,0.4,12.1,0.3,7.5,1.1l-16.3-0.2l3.4-1l-3-0.1h-1.5h-0.4c-0.1,0-0.1,0-0.1,0l0,0h-0.2l-1.1-0.2l-1-0.2l-0.5-0.1h-0.1h-0.1
							v-0.1l0.1-0.3c-0.3,0.3-0.6,0.6-0.9,0.9l-0.1,0.1l-0.1,0.1l-0.1,0.2c-0.1,0.1-0.1,0.2-0.2,0.3c-0.5,0.1,0-0.6,0.1-0.9
							c0.2-0.4,0.4-0.7,0.6-1.1c0.4-0.6,0.8-1.1,1.1-1.4c0.1-0.2,0.3-0.3,0.4-0.5c0-0.1,0.1-0.1,0.1-0.2l0,0l0.1-0.4
							c0.1-0.3,0.2-0.5,0.2-0.8c0.6-2.2,1.2-4.7,1.9-7.7c0.5-2.8-0.8-0.5-1.8,1.1s-1.6,2.6,0.2-3c1.6-3.4,3.4-7.1,5.6-10.9
							c2.2-3.8,4.8-7.6,7.7-11.3c0.7-0.9,1.4-1.8,2.2-2.7s1.5-1.8,2.3-2.6c1.5-1.7,3.4-3.3,5.2-5c0.9-0.8,1.8-1.8,2.7-2.5
							c0.9-0.8,1.8-1.5,2.6-2.3c0.9-0.7,1.8-1.4,2.7-2.1c0.9-0.7,1.8-1.3,2.7-1.9c-1.1-0.1-0.7-0.8,0.5-1.9c0.6-0.5,1.4-1.1,2.3-1.8
							c0.9-0.7,2-1.3,3-2l1.1,0.8c3.9-2.6,6.5-3.8,8.2-4.3c1.8-0.5,2.7-0.5,3.6-0.4c0.9,0.1,1.8,0.2,3.6-0.2c0.9-0.1,2-0.4,3.4-0.8
							c1.4-0.4,3.2-0.8,5.4-1.4c-0.5,0.4-1,0.7-1.4,1.2c1.4-1.2,2.9-2.3,4.4-3.4c8.4-2.3,11-1.4,13.6-0.9c1.3,0.3,2.7,0.5,4.9,0.6
							c2.3,0.1,5.4-0.1,10.4-0.3c-3.9-0.4-4.7-1.2-3.4-1.7c0.7-0.2,1.9-0.4,3.5-0.4c1.7,0.1,3.8,0.3,6.1,0.9l-2.6,0.7
							c2.7,0.3,4.5,0.5,6,0.7c1.6,0.2,2.9,0.5,4.6,1c-1.6-0.1-2.1,0.3-1.3,0.8c0.4,0.3,1.2,0.6,2.3,1c0.6,0.2,1.2,0.4,2,0.6
							c0.7,0.2,1.6,0.5,2.5,0.8l-2.7-0.1h-2.7c2.4,0.3,4.9,0.6,7.3,1.1l1.8,0.3c0.1,0,0.4,0.1,0.6,0.2l0.7,0.2l1.5,0.4l1.4,0.4
							l0.7,0.2c0.2,0.1,0.5,0.2,0.8,0.3l3.2,1.3c4.4,2.6,9.4,5.6,14.6,8.7c0.5-0.6,0.8-2,1.2-3.1c0.4-1.2,0.7-2.3,1.1-3.5
							c0.7-2.4,1.4-4.7,2.1-7.1c1.4-4.6,2.8-9.2,4-13.3c0.7-2.4,1.5-4.6,2.1-6.4c0.3-0.7,0.5-1.4,0.7-2c0.3-0.7,0.5-1.4,0.8-2
							c0.5-1.2,0.9-2.3,1.4-3.1c0,0,0.2-0.7,0.6-2c0.4-1.3,0.9-3,1.5-5.2c0.3-1.1,0.6-2.3,1-3.6c0.2-0.6,0.4-1.3,0.5-2l0.1-0.3
							c0,0,0,0,0-0.1h-0.1l-0.1-0.1l-0.5-0.2c-0.3-0.2-0.6-0.3-1-0.5c-2.6-1.4-5.4-2.8-8.3-4.3c-3-1.4-6-2.9-9.1-4.2
							c-0.6-0.2-1.1-0.5-1.7-0.7c-0.5-0.2-0.9-0.3-1.4-0.5c-0.9-0.3-1.8-0.6-2.7-0.9c-1.7-0.5-3.3-1-4.7-1.3s-2.6-0.5-3.4-0.5
							c2.9,0.3,0.7-0.9-1.8-2c-2.4-1.2-5.1-2.3-2.7-2.4c-3.8-0.4-11.1-1.5-18.6-2.3c-7.5-0.9-15.1-1.4-19.4-2.2
							c0.6,0,1.1-0.1,1.7-0.1c-2-0.2-4-0.2-6-0.3c-2,0-3.9,0-5.8,0c-0.9,0-1.9,0-2.8,0c-0.9,0.1-1.9,0.1-2.8,0.2
							c-1.8,0.1-3.7,0.3-5.5,0.4c-1.8,0.2-3.6,0.5-5.3,0.7c-0.9,0.1-1.7,0.3-2.6,0.4c-0.9,0.2-1.7,0.3-2.6,0.5
							c-1.7,0.3-3.4,0.7-5.1,1c-1.7,0.4-3.3,0.9-5,1.3l-2.5,0.6l-2.4,0.8l-4.8,1.5c-1.6,0.6-3.2,1.2-4.8,1.7l-1.8,1
							c-0.8,0.3-1.6,0.6-2.4,1c-6.4,2.5-12.7,5.5-19.3,8.7c0.9,0.3-2,2.2-4.7,4.1c-2.6,2-4.8,3.8-2.7,3.5c-5.9,4.6-11.5,9-16.5,13.4
							c-2.6,2.1-4.8,4.3-7.1,6.4c-1.1,1-2.2,2.1-3.3,3.1c-0.5,0.5-1.1,1-1.6,1.5s-1,1-1.5,1.6c-7.8,8.2-12.7,15.8-13,21.8
							c-1.7,2.9-3,5.2-4.2,7.1c-1.2,1.9-2.1,3.4-3,4.7s-1.7,2.5-2.5,3.7s-1.6,2.4-2.3,4c0.3-1,0.7-2,1-3c-0.7,1.4-1.2,2.8-1.8,4.2
							c-0.5,1.3-1.1,2.6-1.5,3.8c-0.9,2.5-1.8,4.7-2.5,6.9c-0.7,2.1-1.4,4.1-1.9,6c-0.6,1.9-1.1,3.7-1.6,5.4
							c-0.5,1.8-0.9,3.5-1.3,5.2c-0.2,0.9-0.5,1.7-0.6,2.6c-0.1,0.6-0.3,1.3-0.4,2c-0.2,0.7-0.3,1.3-0.4,2c-0.1,0.3-0.1,0.7-0.2,1.1
							l-0.1,0.3c0,0.1,0,0.2-0.1,0.2c-0.2,0-0.4,0-0.6,0c-0.7,0.1-1.3,0.4-1.9,0.7c-0.3,0.2-0.6,0.3-1,0.5c-0.2,0.1-0.4,0.2-0.6,0.3
							h-0.1h-0.2l-0.3,0.1c-0.2,0-0.4,0.1-0.6,0.1c-1.7,0.3-3.7,0.6-6.2,0.8c-1,0.1-3.3,0.1-5.5,0.2c-2.3,0-4.8,0-7.7-0.1
							c3.1-0.5,3-0.7,1-0.8S760,631,756,631c0,0.9,0,1.8,0,2.7c0-1.1-0.1-2.1-0.1-2.8c1.9-0.1,2.3-0.3-0.6-0.6
							c-0.2,1.1-0.3,3.3-0.5,6.9c0.2,1,0.3,2.2,0.4,3.4c0.1,1.3,0.2,2.9,0.3,4.3c-0.1,0.1-0.1,0.6-0.3,0.3c0,1.1,0,2.2,0.1,3.1
							c0,0.5,0,0.9,0,1.3c0,0.2,0,0.5,0,0.7c0,0.4,0,0.9,0.1,1.2c0,0.6,0,1.2,0.1,1.7c0.1,2.1,0.2,3,0.2,3.2
							c0.1,0.2,0.1-0.4,0.2-1.6c0-1,0.1-2.4,0.1-4.2c0.1,0.1,0.2,0.1,0.3-0.2c0.1-0.1,0.1-0.3,0.2-0.5c0-0.1,0.1-0.2,0.1-0.4
							s0.1-0.5,0.1-0.8c0,0.2,0,0.4,0,0.6v0.4c0,0.3-0.1,0.5-0.1,0.8s-0.1,0.5-0.1,0.8c0,0.4,0,0.9-0.1,1.3c-0.1,1.9-0.1,3.9-0.2,6
							c0,1.9-0.1,3.8-0.1,5.7s0,3.8,0,5.7c5.9,0,11.5,0,15.8,0.1c1.1,0,2.1,0.1,3,0.1c0.5,0,0.9,0.1,1.3,0.1c0.2,0,0.4,0,0.6,0
							c0.1,0,0.2,0,0.4,0.1c0.5,0.1,0.8,0.2,1.1,0.3c0.1,0,0.1,0.1,0.2,0.1c0,0,0,0.1,0.1,0.1c0,0.1,0.1,0.1,0.1,0.2
							c2.1-0.1,4.3-0.2,6.3-0.3c0,1.1,0,2.3,0,3.4c0,0.6,0,1.2,0.1,1.8v0.9c0,0.6,0,1.2,0,1.8v1v0.6l0.1,1c0.1,0.6,0.1,1.3,0.2,1.9
							c0.1,0.7,0.1,1.3,0.2,2l0.1,1v0.5v0.3c0,0.1,0.1,0.2-0.1,0.2c-1.2,0.1-2.5,0.2-3.7,0.4l-2,0.2l-1,0.1h-0.5h-0.9
							c-3.2,0.1-6.4,0.2-9.7,0.3s-6.5,0.2-9.8,0.3c0,1,0,2.2,0.1,3.3c-0.5,1.7-1-0.2-1.4-4.6c2.6-0.3,6.6-0.5,11.2-0.7l-11.8,0.2
							l0.2,15.6c-0.2-0.1-0.4-0.7-0.5-1.7c-0.1-0.5-0.1-1.2-0.2-1.9c0-0.7-0.1-1.5-0.1-2.3c-0.1-2.9-0.1-6.7-0.1-10.4
							c3.2,0,6.5,0,9-0.1c-3.1-0.2-6.3-0.3-9.5-0.4c-0.1,3.1-0.2,6.4-0.2,9.7c0,1.9,0,3.9,0,5.8c0,1,0,2,0,3.1v2
							c0.1,3.5,0.1,7.1,0.2,10.7c0.1,3.3,0.2,6.5,0.3,9.8c4.7-0.1,9.5-0.3,14.3-0.4c3.9-0.1,7.8-0.2,11.7-0.3c1,0,2,0,3.1,0
							c0.8,0,1.5,0,2.3,0.1l1.1,0.1c0.3,0.1,0.8-0.1,0.7,0.5c0,0.8,0,1.6,0,2.4c0.4,0.5,0.9,1.2,1.4,2v0.4v0.7
							c0.5-0.2,2.4,5.3,3.4,8.9c-0.2,1.9-0.8,2-1.1,3.1c-0.1,0.6-0.2,1.4,0.1,2.9s0.7,3.5,1.6,6.6c0.9,5,3.3,11.8,6.7,18.6
							c3.3,6.8,7.5,13.6,11.3,19.1c-3.5-6.2-1.7-4.6,0.2-2.2c1.6,2.7,2.8,4.9,3.9,7c1.1,2,2.3,3.9,3.9,5.7l-0.9,1.4
							c-0.1-0.7,0.6-0.3,1.7,0.7c0.6,0.5,1.2,1.2,1.9,1.9s1.5,1.6,2.4,2.4c1.6,1.7,3.4,3.5,4.9,4.9s2.7,2.5,3.2,2.8
							c0.9,1.7-1.1,0.2-3.3-2c-1.1-1.1-2.4-2.3-3.4-3.2c-1-1-1.9-1.7-2.3-1.9c2.1,2.4,3.9,4.3,5.3,5.9c0.7,0.8,1.4,1.5,2,2.1
							s1.2,1.2,1.7,1.6c2,1.9,3.1,3.1,4.4,4.1c1.2,1.1,2.4,2.1,4.6,3.9c1.1,0.9,2.5,1.9,4.2,3.2c1.7,1.4,3.9,2.8,6.5,4.6
							c1.5,0.9,2.6,1.4,3.4,1.8c0.8,0.4,1.3,0.5,1.6,0.6c0.5,0.1,0.2-0.4-0.3-0.9c-1.1-1.1-2.9-2.7,0.3-1.6c1.3,0.7,2.6,1.5,3.9,2.2
							c1.3,0.7,2.6,1.3,4,2c1.3,0.6,2.7,1.3,4,1.9c1.4,0.6,2.8,1.2,4.1,1.8c0.7,0.3,1.4,0.6,2.1,0.9c0.7,0.3,1.4,0.5,2.1,0.8
							c1.4,0.6,2.9,1.1,4.3,1.7c1.5,0.5,3,1.1,4.5,1.7c0.8,0.3,1.5,0.6,2.3,0.9c0.8,0.3,1.6,0.6,2.4,0.8l-1.9-1.3l-1.8-1.4
							c10.6,2.9,19.2,4.2,27,5.3c3.9,0.6,7.5,0.9,11.2,1.4c1.8,0.2,3.6,0.3,5.4,0.5c0.9,0.1,1.8,0.2,2.7,0.3s1.8,0.1,2.8,0.2
							c20.5-1.8,35.6-7,46.3-12.1s17.2-10.1,21.1-13.6c1-0.9,1.7-1.7,2.4-2.4c0.6-0.7,1.2-1.4,1.6-1.9c0.9-1.1,1.2-1.9,1.2-2.3
							c-0.1-0.9-1.9-0.6-4.6,0.6c-2.5,0.9-6,2.5-9.9,4s-8.3,3.1-12.3,4.3c-1,0.3-2,0.6-3,0.9c-1,0.3-1.9,0.5-2.8,0.8
							c-1.8,0.5-3.5,0.9-4.9,1.2c-1.4,0.4-2.5,0.6-3.3,0.7c-0.8,0.2-1.2,0.3-1.2,0.3c-14.2,2.7-26.9,3.1-38.9,2.7
							c-1.5,0-3-0.2-4.4-0.3c-1.5-0.1-2.9-0.1-4.4-0.3c-2.9-0.4-5.8-0.6-8.6-1.1c-5.7-0.8-11.2-2.1-16.8-3.5
							c-11-3.2-22.1-7.6-33.2-14.9c-5.5-3.7-11.1-8-16.5-13.2c-2.7-2.7-5.4-5.6-8.1-8.7C833.7,791.8,831.1,788.5,828.7,784.9z"/>
					</g>
				</g>
			</g>
		</g>
	</g>
</g>
<g>
	<g>
		<path class="st0" d="M791.2,1125.5c-10.4,7.1-27.9,14.1-50.1,14.1c-27.2,0-51.4-10.4-68.2-29.9c-12.8-14.1-21.2-33.6-24.2-57.8
			h-20.8v-16.5h19.2c0-1.7,0-3.4,0-5c0-5.4,0.3-10.4,0.7-15.1H628v-16.8h22.2c4-23.5,14.1-43,27.6-56.8c17.1-17.8,39-27.9,66.5-27.9
			c19.8,0,35.3,5.7,44.7,10.8l-6.7,22.2c-8.4-5-22.5-9.4-37.6-9.4c-18.1,0-32.9,6.4-44.4,18.5c-10.1,9.7-16.8,24.9-20.2,42.7h93.7
			v16.8H677c-0.3,4.4-0.7,9.4-0.7,14.1c0,2,0,3.7,0,6h97.4v16.5h-95.1c2.7,19.5,9.4,33.9,18.5,44c12.4,13.1,29.2,19.5,47.4,19.5
			c17.8,0,33.3-6.7,41-11.1L791.2,1125.5z"/>
		<g>
			<path class="st0" d="M791.2,1125.5c-10.4,7.1-27.9,14.1-50.1,14.1c-27.2,0-51.4-10.4-68.2-29.9c-12.8-14.1-21.2-33.6-24.2-57.8
				h-20.8v-16.5h19.2c0-1.7,0-3.4,0-5c0-5.4,0.3-10.4,0.7-15.1H628v-16.8h22.2c4-23.5,14.1-43,27.6-56.8
				c17.1-17.8,39-27.9,66.5-27.9c19.8,0,35.3,5.7,44.7,10.8l-6.7,22.2c-8.4-5-22.5-9.4-37.6-9.4c-18.1,0-32.9,6.4-44.4,18.5
				c-10.1,9.7-16.8,24.9-20.2,42.7h93.7v16.8H677c-0.3,4.4-0.7,9.4-0.7,14.1c0,2,0,3.7,0,6h97.4v16.5h-95.1
				c2.7,19.5,9.4,33.9,18.5,44c12.4,13.1,29.2,19.5,47.4,19.5c17.8,0,33.3-6.7,41-11.1L791.2,1125.5z"/>
			<g>
				<g>
					<g>
						<path class="st0" d="M645.9,1064.1c-0.1-1.1-0.2-2.3-0.3-3.4C645.4,1060.8,645.4,1061.6,645.9,1064.1z"/>
						<path class="st0" d="M778.7,1051.4c0,0.4,0.1,0.9,0.1,1.3C778.8,1051.8,778.8,1051.5,778.7,1051.4z"/>
						<path class="st0" d="M636.4,1006.7L636.4,1006.7L636.4,1006.7L636.4,1006.7z"/>
						<path class="st0" d="M671.3,1095.9c-2-3.2-3.7-6.3-5.1-9.3c-1.4-3-2.5-5.9-3.5-8.7c-1.9-5.6-3.1-10.8-4-15.8
							c-0.2-1.3-0.5-2.5-0.6-3.7c-0.2-1.1-0.3-2.2-0.5-3.4c-0.2-1.3-0.3-2.5-0.5-3.8c-0.3-2.5-0.7-5-1-7.6v-0.1H656h-0.2h-0.5h-0.9
							h-1.9c-1.3,0-2.5,0-3.8-0.1c-2.5,0-5.1-0.1-7.7-0.1c-1.3,0-2.5-0.1-3.8-0.1c-0.1,0-0.2-0.1-0.2-0.1v-0.1l0,0l0,0v0.1v0.6v0.6
							v0.3v-0.4c0-0.3,0-0.7,0-1v-0.2v0.1v0.3c0,0.4,0,0.7,0,1.1v-0.1c0,0,0.1,0,0.1-0.1l0,0l0,0l0,0c0,0-0.1,0,0.1,0
							c1.8,0,3.7,0,5.6,0c4.3,0,8.6,0,12.9,0h0.1v-0.1v-0.2v-0.4v-0.8v-1.6v-3.3c0-2.2,0-4.4,0-6.6v-3.2l0.1-2.2l0.1-2.5l0.2-3.3
							c0.3-4.4,0.6-8.8,0.9-13.3c-6.4,0-12.8,0.1-19.2,0.1c-1.2,0-0.8,0-0.9,0h-0.2l-0.4,0.1l-0.1-0.3l0,0v0.1v0.2v0.3v0.3v0.1v-0.2
							v-0.5v-0.5c0-0.1,0,0,0,0v0.1v0.3v0.3v0.2c0,0.1,0,0,0,0v-0.4h0.2c0-0.2,0.1-0.3,0.3-0.4c0.1,0,0.2-0.1,0.3-0.1l0,0h0.1h0.3
							h0.6c0.4,0,0.8,0,1.2,0c0.8,0,1.6,0,2.5,0c1.3,0,2.6,0,3.9,0c3.2,0,6.4,0,9.7,0h0.6h0.2h0.1v-0.1l0.1-0.3l0.2-1.2l0.5-2.4
							c0.3-1.6,0.6-3.2,1-4.8c0.2-0.8,0.3-1.6,0.5-2.4c0.1-0.7,0.3-1.3,0.4-2c0.2-0.8,0.4-1.6,0.6-2.4c0.2-0.8,0.4-1.6,0.6-2.4
							c0.2-0.8,0.4-1.5,0.6-2.3c0.4-1.5,0.7-2.9,1.1-4.3c0.7-1.3,1.5-2.5,2.2-3.8c1-3.7,2.7-7.9,4.9-11.1l0.1,0.3
							c0.6-1.3,1.2-2.6,1.9-3.9c0.7-1.2,1.4-2.5,2.2-3.6c1.4-2.2,2.8-4.1,3.6-5.3v0.3l2.1-2.7c0.7-0.9,1.5-1.8,2.2-2.6
							c-0.2,0.4-0.4,0.7-0.5,1.1c1.5-1.9,3.1-3.8,4.9-5.6c0.8-0.9,1.8-1.8,2.7-2.6c0.9-0.9,1.8-1.7,2.8-2.5
							c3.7-3.1,7.7-5.8,11.7-7.9l-1.1-0.5c1.1-0.6,2.1-1,3.1-1.5c0.5-0.2,1-0.5,1.5-0.7s1-0.4,1.4-0.6c0.9-0.4,1.8-0.8,2.7-1.2
							s1.8-0.7,2.6-1c0.8-0.4,1.7-0.6,2.5-0.9c0.8-0.3,1.6-0.6,2.4-0.9c1.6-0.5,3.1-1,4.6-1.4c6.1-1.7,12.3-2.8,21.1-2.3l-0.2,0.2
							c5.5-0.7,10.5-0.6,15.2,0.1c4.6,0.7,8.9,1.9,13,3.4c2.1,0.8,4.1,1.6,6.2,2.5c0.5,0.2,1,0.4,1.5,0.7l0.4,0.2
							c0.2,0.1,0.5,0.3,0.7,0.4l0.4,0.2h0.1c0,0,0.1,0,0,0.1v0.2c-0.1,0.3-0.1,0.6-0.1,0.9c0,0.2,0,0.3,0,0.5c0,0.1,0,0.1,0,0.2
							l-0.1,0.5c-0.1,0.3-0.2,0.7-0.2,1.1c-0.2,0.7-0.3,1.4-0.5,2.2l-0.1,0.5l-0.1,0.3v0.1l0,0v0.4c0-0.5-0.2-0.4-0.3-0.3
							c-0.2,0.1-0.3,0.3-0.4,0.2l-0.2,1.1l-0.1,0.6l-0.1,0.3v0.1h-0.1c-0.4-0.2-0.8-0.3-1.3-0.4c-0.4-0.1-0.9-0.2-2.1-0.4
							c-2.8-0.7-4.7-0.7-5-0.1c-4.2-1.2-5.9-1.7-6.6-2.1c-0.8-0.4-0.6-0.7-1.1-1.2c-0.1,0.4-2,0.3-4.7,0.1s-6.3-0.5-9.7-0.6l3.1-0.2
							c-3.2-0.2-6.5-0.2-9.7,0c-3.3,0.2-6.5,0.6-9.7,1.2c1.4,0.3,2.7,0.6,4,1c-5.1,0.5-5.8,0.3-6.5,0c-0.7-0.2-1.3-0.5-6.1,1.2
							l0.5,1.2c-3.4,1-6.4,2.1-9.2,3.4c-2.8,1.2-5.4,2.5-7.9,3.8c-2.5,1.4-4.9,3-7.4,4.8c-1.2,0.9-2.3,1.9-3.5,2.9
							c-0.6,0.5-1.2,1-1.9,1.6c-0.6,0.6-1.3,1.2-1.9,1.9c-2,2.4-3.8,5-5.5,7.6c-1.6,2.6-3.1,5.4-4.4,8.2c-1.3,2.8-2.4,5.7-3.4,8.5
							c-0.5,1.4-1,2.9-1.4,4.4c-0.1,0.5-0.6,2-0.9,3.2c-0.3,1.2-0.6,2.4-0.8,3.6c-0.6,2.4-1,4.7-1.5,7.1l-0.7,3.5l-0.3,1.8l-0.2,0.9
							l-0.1,0.4c0,0.1,0,0,0.1,0h0.1h0.2c4.8,0.1,9.5,0.2,14.5,0.1l6.2-0.1l4.3-0.1c2.9-0.1,5.8-0.1,8.6-0.2
							c11.5-0.2,22.9-0.4,34.2-0.5c5.7,0,11.3-0.1,16.8-0.1c2.6,0,5.2,0,7.8,0c1.1,0,2.2,0,3.3,0.1c0,0.6,0,1.2-0.1,1.7
							c0,0.2,0,0.1,0,0.2v0.1v0.1l0,0v0.2v0.5v0.5c0,0.1,0,0.1,0,0.1l0,0v0.1v0.1c0,0,0,0,0,0.2c0,0.5-0.1,1-0.1,1.4
							c-0.6-0.1-1.2-0.1-1.8-0.2l-0.8-0.1l-0.4-0.1h-0.2c0,0,0,0-0.1,0h-0.3l-2.2-1c-1-1.4-13.9,2.1-15.8,0.8l-5.8,0.7
							c-1.6-0.3-5.1-0.5-2.2-0.8c-5.4-0.1-5.5,0.2-9.4,0.6l-5.8-0.9c-10.7-0.3-20.5-0.1-30.6,0.2c-2.6,0.1-5.3,0.1-8,0.2
							c-2.1,0-4.3,0.1-6.5,0.1c-2.1,0.1-4.3,0.1-6.4,0.2h-0.4c-0.1,0.1,0,0.3-0.1,0.4l-0.1,0.8l-0.1,1.6c-0.1,1.1-0.1,2.2-0.2,3.3
							c-0.1,2.2-0.3,4.4-0.4,6.7c0,0.9-0.1,1.8-0.1,2.8c0,0.9-0.1,1.8-0.1,2.7c0,2.3,0,4.6-0.1,7c0,1.4-0.1,2.8-0.2,4.2
							c0,0.7,0,1.5-0.1,2.2v0.6v0.3v0.1h0.1c0.4,0,0.7,0,1.1,0c2.9,0.1,6,0.2,9.2,0.2c4.5,0.1,9.2,0.2,14.2,0.3
							c8.4,0.1,17.6,0.1,26.9-0.1s18.7-0.3,27.6-0.6c4.5-0.1,8.8-0.3,13-0.4c1,0,1.9-0.1,2.9-0.1c0.4,0,0.8-0.1,1.1-0.1
							c0.8-0.1,1.6-0.1,2.3-0.2c0,0.4,0.1,0.7,0.1,1c0,0.2,0,0.3,0,0.5c0,0.1,0,0.2,0,0.2l0,0c0,0,0,0,0.1,0.1l0,0v0.7v0.7v0.3l0,0
							l0.1,0.1v0.1l0,0v0.1v0.7c0,0.4,0,0.9,0.1,1.3c-1,0-2.2,0.1-3.3,0.1c-2.1,0-4.2,0-6.4,0c-4.9,0-9.9-0.1-14.9-0.3
							c-10-0.3-20.2-0.7-30.4-1.1c-5.1-0.2-10.2-0.3-15.3-0.5c-2.5-0.1-5.1-0.1-7.6-0.2c-1.9,0-3.8,0-5.7-0.1c-2.2,0-4.5-0.1-6.7,0
							s-4.3,0.1-6.5,0.2h-1.6c0,0.5,0.1,1.1,0.2,1.6l0.5,3.2c0.3,2.1,0.7,4.3,1,6.4s0.9,4.3,1.3,6.4c0.1,0.5,0.2,1.1,0.4,1.6
							l0.3,1.2l0.5,1.9c0.4,1.3,0.8,2.5,1.2,3.7c0.9,2.5,1.8,4.9,2.9,7.2c0.3,1.5,2.4,4.8,2.5,4.7c1.5,3.1,3.2,6.2,5.1,9.1
							c1.9,2.9,4,5.7,6.5,8.4c2.5,2.6,5.1,4.9,7.9,7.1c2.8,2.1,5.8,4,8.9,5.7c0,0,0.7,0.4,2,1c0.7,0.3,1.5,0.7,2.4,1.1
							c1,0.4,2,0.9,3.3,1.3c2.5,1,5.5,1.9,8.9,2.7c3.4,0.8,7.3,1.4,11.4,1.7c4.1,0.3,8.5,0.3,13-0.1s8.9-1.2,13.3-2.4
							c4.4-1.1,8.6-2.6,12.5-4.3c0.5-0.2,1-0.4,1.5-0.6l0.5-0.3c0.4-0.2,0.7-0.4,1.1-0.6c0.7-0.4,1.5-0.9,2.2-1.4l0.1-0.1
							c0,0,0,0.1,0.1,0.1l0.1,0.2l0.2,0.4c0.1,0.3,0.2,0.6,0.3,0.8c0.2,0.6,0.5,1.1,0.7,1.7c0.1,0.3,0.2,0.6,0.4,0.8
							c0.1,0.1,0.1,0.3,0.2,0.4c0,0,0.1,0.2,0.1,0.3l0.1,0.4c0.4,1.1,0.8,2.1,1.1,3c1.4,3.7,2.6,6.1,3.3,6.6
							c0.8,0.6,1.1-0.7,0.9-4.3c-0.1-1.8-0.3-4.2-0.7-7.3c-0.2-1.6-0.5-3.6-0.9-5.9c-0.2-1.2-0.4-2.4-0.6-3.7
							c-0.1-0.7-0.2-1.4-0.4-2.1c-0.1-0.4-0.1-0.7-0.2-1.1l-0.1-0.6v-0.1h-0.1h-0.1c-2,0.8-4.3,1.8-7,2.9c-1.3,0.5-2.8,1-4.3,1.6
							c-0.4,0.2-0.7,0.2-1,0.3c-0.3,0.1-0.6,0.2-0.9,0.2c-0.6,0.2-1.2,0.3-1.8,0.5c-4.8,1.2-10.2,2.3-16.2,2.7l0.8-0.4
							c-9.8,1.2-17.7,0.5-24.7-0.7c-3.5-0.6-6.7-1.5-9.9-2.5c-3.1-1-6.2-2.1-9.3-3.5c-0.4-1.4-3.7-3.4-7-6.1
							c-0.8-0.7-1.7-1.4-2.4-2.1s-1.5-1.4-2.2-2.1c-1.3-1.4-2.3-2.7-2.9-3.7l0.4,0.2c-4.1-4.2-6.9-9.9-8.8-15.7
							c-1-2.9-1.7-5.9-2.5-8.8c-0.2-0.7-0.4-1.5-0.5-2.2l-0.3-0.9c-0.2-0.5-0.4-1.1-0.7-1.8c0.2,0.3,0.8,0.6,1,1.5
							c-0.2-0.7-0.4-1.5-0.6-2.3c0-0.1-0.1-0.2-0.1-0.3h0.3c0.2,0,0.4,0,0.6,0c0.4,0,0.8,0,1.1,0c0.4,0,0.7,0,1,0c0.2,0,0.3,0,0.4,0
							c0.1,0,0.1,0,0.2,0c0.2,0,0.4,0,0.5,0c1.4,0.1,2.3,0.3,2.5,0.6c21.6-0.3,51.7,0.2,65.5-1.6l-0.9,0.3c1.8-0.3,3.2-0.4,4.6-0.5
							c0.7,0,1.3-0.1,1.9-0.1c0.3,0,0.6,0,0.9,0c0.5,0,0.9,0,1.4,0c3.6,0,7.4,0.1,12.5,0c0-1.2-0.1-2.5-0.1-4
							c0.1-0.6,0.2-1.5,0.3-1.4c0-0.3-0.1-0.7-0.1-1.1s-0.1-0.8-0.1-1.2c0-0.9-0.1-1.8-0.1-2.7c0-0.5,0-0.9-0.1-1.4v-0.6v-0.4
							c0-0.3,0-0.5,0-0.8v-0.4v-0.7c0-1.9-0.1-3.8-0.1-5.8c0-1.7,0-3.5,0-5.3c-5.1,0-10.4,0-15.1-0.1c-3.3,0-6.3,0-8.4,0.1l-0.4-0.7
							l-17.1,0.2l6.4,0.2c-2.2,2-12.9-1.3-25.3,0c-5.8-0.1-11.7,0.9-17.6,1.9c-3,0.5-6,0.9-8.9,1.2c-1.5,0.1-3,0.2-4.5,0.3h-1.1h-1
							c-0.6,0-1.3-0.1-1.9-0.1c-1.3,0.2-1.7,0.3-1.6,0.2c0.1-0.1,0.7-0.3,1.1-0.5c0.4-0.2,0.8-0.4,0.6-0.5s-0.8-0.1-2.6,0
							c0.6-1.1,3.1-0.7,2.1-1.5c-0.7,0.1-1.3,0.1-1.9,0.1c-0.3,0-0.6,0-0.9,0c-0.1,0-0.1-0.1-0.1-0.1v-0.2v-0.4
							c0.1-1.2,0.2-2.3,0.3-3.3c0-0.3,0.1-0.5,0.1-0.8l0.1-0.4v-0.2v-0.3c0.1-0.8,0.1-1.6,0.2-2.4c0.1-1.1,0.1-2.3,0.1-3.8
							c0.3,0.2,0.5,0.4,0.8,0.6c0-0.1,0-0.1,0.1-0.1h0.1l0.2-0.1c0.2,0,0.3-0.1,0.5-0.1c0.4-0.1,0.7-0.1,1.1-0.2
							c0.4,0,0.8-0.1,1.2-0.1h0.6c0.4,0,0.8,0,1.2,0c3.2,0,6.2,0.1,9.2,0.3c5.8,0.3,11.1,0.6,15.6-0.2c14-0.7,9.4,2.5,24,0.8
							l5.7,1.1c6.2,0.2,4.5-1.4,11.4-0.8c-0.4,0.7,8.7,0.6,4.7,1.2c1.4,0.1,2.7,0.2,4.1,0.2c0.7,0,1.4,0,2,0.1c0.9,0,1.7,0,2.6,0
							c4.9,0,9.9-0.1,14.9-0.1c-0.1-5-0.2-10.1-0.3-15.3v-1.2c0-0.7,0-1.5,0-2.2c0-1.4,0-2.9-0.1-4.3c0-2.5-0.1-4.9-0.1-7.5
							c-2.6,0-5.2,0-7.8,0c-1.3,0-2.6,0-4,0c-1.3,0-2.6,0-4-0.1c-3.2-0.1-6.4-0.3-9.8-0.6c-4.5,1.4-14.9,0.6-18.2,1.6
							c-0.6-0.6-20.8-0.1-9.1-1.4c1-0.1,2.8-0.1,2.6,0.1l1.4-0.8c-11.8-1.5-21.4,0.8-33,0.6c3.4,0.3,8,0.2,5,0.8l-10.8-0.1l2.2-0.7
							l-2-0.1h-1h-0.3c-0.1,0-0.1,0-0.1,0h-0.1l-0.8-0.1L690,991l-0.3-0.1h-0.1l0,0l0,0l0.1-0.2c-0.2,0.2-0.4,0.4-0.6,0.6
							c-0.2,0.2-0.2,0.3-0.3,0.5c-0.3,0,0-0.4,0.1-0.6c0.1-0.3,0.3-0.5,0.4-0.7c0.3-0.4,0.5-0.7,0.7-0.9c0.1-0.1,0.2-0.2,0.2-0.3
							s0.1-0.1,0.1-0.1l0,0l0.1-0.3c0-0.2,0.1-0.4,0.2-0.5c0.4-1.4,0.8-3.1,1.2-5.1c0.6-3.8-3.4,6.2-1-1.2c1-2.2,2.2-4.7,3.7-7.2
							s3.2-5.1,5.1-7.5c1.9-2.4,4-4.5,6.4-6.8c0.6-0.6,1.2-1.2,1.8-1.7s1.2-1,1.8-1.5c1.2-0.9,2.4-1.9,3.6-2.7
							c-1.4-0.1,1.1-2.1,3.9-3.8l0.7,0.5c2.6-1.7,4.3-2.5,5.4-2.9c1.2-0.3,1.8-0.3,2.4-0.3c1.3,0.2,2.3,0,8.2-1.6
							c-0.3,0.2-0.6,0.5-1,0.8c0.9-0.8,1.9-1.5,2.9-2.3c5.6-1.5,7.3-0.9,9-0.6c0.9,0.2,1.8,0.3,3.3,0.4c1.5,0,3.6,0,6.9-0.2
							c-2.6-0.2-3.1-0.8-2.3-1.1c0.9-0.3,3.2-0.5,6.4,0.3l-1.7,0.5c3.5,0.5,4.8,0.4,7,1.2c-1.1,0-1.4,0.2-0.9,0.5
							c0.6,0.4,2,0.9,4.5,1.6c-1.2,0-2.4,0-3.6,0c1.6,0.2,3.2,0.4,4.8,0.7l1.2,0.2c0.1,0,0.3,0.1,0.4,0.1l0.5,0.1l1,0.3l1,0.3
							l0.5,0.1c0.2,0.1,0.4,0.1,0.5,0.2l2.1,0.8c2.9,1.7,6.2,3.7,9.7,5.7c0.3-0.4,0.5-1.3,0.8-2.1c0.2-0.8,0.5-1.5,0.7-2.3
							c0.5-1.6,0.9-3.1,1.4-4.7c0.9-3.1,1.8-6.1,2.7-8.8c0.5-1.6,1-3.1,1.4-4.3c0.2-0.5,0.3-0.9,0.5-1.3c0.2-0.5,0.3-0.9,0.5-1.3
							c0.3-0.8,0.6-1.5,0.9-2.1c0,0,0.6-1.9,1.4-4.8c0.2-0.7,0.4-1.5,0.7-2.4c0.1-0.4,0.2-0.9,0.4-1.3c0.2-0.3-0.2-0.3-0.4-0.4
							c-0.2-0.1-0.4-0.2-0.6-0.3c-1.7-0.9-3.6-1.9-5.5-2.9c-2-0.9-3.9-1.9-6-2.8c-0.4-0.2-0.8-0.3-1.1-0.4c-0.3-0.1-0.6-0.2-0.9-0.3
							c-0.6-0.2-1.2-0.4-1.8-0.6c-2.3-0.7-4.3-1.1-5.4-1.2c1.9,0.2,0.4-0.6-1.2-1.3c-1.6-0.8-3.4-1.5-1.8-1.6
							c-2.5-0.2-7.3-1-12.3-1.5c-4.9-0.6-10-0.9-12.9-1.5c0.4,0,0.7-0.1,1.1-0.1c-5.4-0.5-10.3-0.2-15.1,0.2
							c-1.2,0.2-2.4,0.3-3.5,0.5c-0.6,0.1-1.2,0.2-1.7,0.3c-0.6,0.1-1.1,0.2-1.7,0.3c-1.1,0.2-2.2,0.5-3.4,0.7
							c-1.1,0.3-2.2,0.6-3.3,0.8l-1.6,0.4l-1.6,0.5l-3.2,1c-1.1,0.4-2.1,0.8-3.2,1.1l-1.6,0.6l-1.6,0.6c-4.2,1.6-8.4,3.6-12.8,5.8
							c0.6,0.2-1.4,1.5-3.1,2.7c-1.7,1.3-3.2,2.5-1.8,2.3c-3.9,3-7.6,6-10.9,8.9c-3.3,2.9-6.3,5.6-8.9,8.3
							c-5.1,5.4-8.4,10.5-8.6,14.4c-2.2,3.8-3.6,6-4.8,7.8c-0.6,0.9-1.1,1.6-1.6,2.4c-0.5,0.8-1,1.6-1.5,2.7c0.2-0.7,0.4-1.3,0.7-2
							c-0.9,1.9-1.5,3.7-2.2,5.3c-0.6,1.6-1.2,3.1-1.6,4.6c-0.5,1.4-0.9,2.7-1.3,4c-0.4,1.3-0.7,2.4-1,3.6c-0.3,1.2-0.6,2.3-0.9,3.4
							c-0.1,0.6-0.3,1.1-0.4,1.7c-0.1,0.4-0.2,0.9-0.3,1.3c-0.1,0.4-0.2,0.9-0.3,1.3c0,0.2-0.1,0.5-0.1,0.7v0.2c0,0,0,0.2-0.1,0.1
							c-0.1,0-0.3,0-0.4,0c-0.5,0.1-0.8,0.3-1.2,0.5c-0.2,0.1-0.4,0.2-0.6,0.3c-0.1,0.1-0.2,0.1-0.4,0.2c-0.2,0.1-0.5,0.1-0.8,0.2
							c-1.1,0.2-2.4,0.4-4.1,0.5c-0.7,0.1-2.2,0.1-3.6,0.1c-1.5,0-3.2,0-5.1-0.1c2-0.3,2-0.5,0.7-0.5c-1.3-0.1-3.8-0.1-6.5,0
							c0,0.6,0,1.2,0,1.8c0-0.7,0-1.4-0.1-1.9c1.3-0.1,1.5-0.2-0.4-0.4c-0.1,0.8-0.2,2.2-0.4,4.5c0.1,0.7,0.2,1.4,0.3,2.3
							c0.1,0.9,0.1,1.9,0.2,2.9c-0.1,0.1-0.1,0.4-0.2,0.2c0,0.7,0,1.4,0,2.1c0,0.3,0,0.6,0,0.9c0,0.2,0,0.3,0,0.5c0,0.3,0,0.6,0,0.8
							c0,0.4,0,0.8,0,1.1c0.1,1.4,0.1,2,0.2,2.1c0,0.1,0.1-0.3,0.1-1c0-0.6,0.1-1.6,0.1-2.7c0.1,0.1,0.1,0.1,0.2-0.1
							c0-0.1,0.1-0.2,0.1-0.4c0-0.1,0-0.2,0.1-0.3c0-0.1,0-0.3,0.1-0.5v0.4v0.3c0,0.2,0,0.3-0.1,0.5c0,0.2,0,0.4-0.1,0.5
							c0,0.3,0,0.6,0,0.9c-0.1,1.3-0.1,2.6-0.1,4c0,1.2,0,2.5-0.1,3.8c0,1.2,0,2.5,0,3.7c3.9,0,7.6,0,10.5,0.1c0.7,0,1.4,0.1,2,0.1
							c0.3,0,0.6,0,0.8,0.1c0.1,0,0.3,0,0.4,0c0.1,0,0.2,0,0.2,0c0.3,0,0.5,0.1,0.7,0.2c0.1,0,0.2,0.1,0.2,0.1s0,0.1,0.1,0.1
							c1.5-0.1,2.9-0.1,4.1-0.2c0,0.8,0,1.5,0,2.3c0,0.4,0,0.8,0,1.2v0.6c0,0.4,0,0.8,0,1.2v0.6v0.4v0.7c0,0.4,0.1,0.9,0.1,1.3
							s0.1,0.9,0.1,1.3l0.1,0.7v0.3v0.2c0,0.1,0,0.1,0,0.1c-0.8,0.1-1.6,0.2-2.4,0.2l-1.3,0.1l-0.7,0.1h-0.3h-0.6
							c-2.1,0.1-4.3,0.1-6.4,0.2c-2.2,0.1-4.3,0.1-6.5,0.2c0,0.7,0,1.4,0,2.2c-0.4,1.2-0.7-0.1-1-3.1c1.7-0.2,4.4-0.4,7.4-0.5
							l-7.8,0.1l0.1,10.3c-0.2-0.1-0.3-0.5-0.4-1.2c-0.1-0.7-0.1-1.7-0.2-2.8c-0.1-1.9-0.1-4.4-0.1-6.9c2.2,0,4.3,0,6-0.1
							c-2.1-0.1-4.2-0.2-6.3-0.3c-0.1,2.1-0.1,4.2-0.1,6.4c0,1.3,0,2.6,0,3.8c0,1.1,0,2.2,0,3.3c0,2.3,0.1,4.7,0.1,7.1
							c0.1,2.2,0.1,4.3,0.2,6.5c5.6-0.2,11.3-0.3,17.2-0.5c0.7,0,1.3,0,2,0c0.5,0,1,0,1.5,0h0.7c0.2,0,0.6-0.1,0.5,0.3
							c0,0.5,0,1.1,0,1.6c0.3,0.4,0.6,0.8,0.9,1.3v0.3v0.5c0.3-0.1,1.6,3.5,2.2,5.9c-0.1,1.2-0.5,1.3-0.7,2.1
							c-0.1,0.4-0.1,0.9,0,1.9c0.2,1,0.5,2.3,1.1,4.4c0.6,3.3,2.2,7.8,4.4,12.3s5,9,7.5,12.6c-2.3-4.1-1.1-3,0.1-1.4
							c2.2,3.6,3,6,5.2,8.4l-0.6,1c-0.1-0.5,0.4-0.2,1.1,0.5c0.4,0.3,0.8,0.8,1.3,1.3s1,1,1.6,1.6c1.1,1.1,2.3,2.3,3.3,3.2
							c1,1,1.8,1.7,2.1,1.9c0.6,1.1-0.8,0.1-2.2-1.3c-0.7-0.7-1.6-1.5-2.3-2.1c-0.7-0.7-1.3-1.2-1.5-1.3c1.4,1.6,2.6,2.8,3.5,3.9
							s1.8,1.8,2.4,2.5c1.4,1.3,2.1,2.1,2.9,2.7c1.6,1.3,3.1,3,10.1,7.8c1,0.6,1.7,0.9,2.3,1.2c0.5,0.2,0.9,0.3,1.1,0.4
							c0.4,0.1,0.1-0.2-0.2-0.6c-0.7-0.7-1.9-1.8,0.2-1.1l2.6,1.5c0.9,0.5,1.8,0.9,2.6,1.3c0.9,0.4,1.8,0.9,2.7,1.3s1.8,0.8,2.7,1.2
							c0.9,0.4,1.9,0.8,2.8,1.1c0.9,0.4,1.9,0.8,2.9,1.1c1,0.4,2,0.7,3,1.1s2,0.8,3.1,1.2l-1.2-0.8l-1.2-0.9
							c7,1.9,12.7,2.8,17.9,3.5c2.6,0.4,5,0.6,7.4,0.9c1.2,0.1,2.4,0.2,3.6,0.3c1.2,0.1,2.4,0.3,3.6,0.3c13.5-1.2,23.5-4.7,30.6-8
							c7.1-3.4,11.4-6.7,13.9-9s3.5-3.9,3.4-4.4c-0.1-0.6-1.2-0.4-3.1,0.4c-1.7,0.6-4,1.6-6.5,2.7c-2.6,1-5.5,2-8.2,2.9
							s-5.2,1.5-7.1,1.9c-0.9,0.2-1.7,0.4-2.2,0.5s-0.8,0.2-0.8,0.2c-9.4,1.8-17.8,2.1-25.7,1.8c-7.9-0.4-15.3-1.5-22.6-3.5
							c-7.3-2.1-14.7-5.1-22-9.9c-3.7-2.4-7.3-5.3-10.9-8.7c-1.8-1.8-3.6-3.7-5.4-5.7C674.6,1100.4,672.9,1098.2,671.3,1095.9z"/>
					</g>
				</g>
			</g>
		</g>
	</g>
</g>
<g>
	<g>
		<path class="st0" d="M1171.9,1280.6c-11.7,7.9-31.3,15.8-56.2,15.8c-30.5,0-57.7-11.7-76.5-33.6c-14.3-15.8-23.8-37.7-27.2-64.9
			h-23.4v-18.5h21.5c0-1.9,0-3.8,0-5.7c0-6,0.4-11.7,0.8-17h-22.2v-18.9h24.9c4.5-26.4,15.8-48.3,30.9-63.7
			c19.2-20,43.7-31.3,74.7-31.3c22.2,0,39.6,6.4,50.1,12.1l-7.5,24.9c-9.4-5.7-25.3-10.6-42.2-10.6c-20.4,0-37,7.2-49.8,20.7
			c-11.3,10.9-18.9,27.9-22.6,47.9h105.2v18.9h-108.6c-0.4,4.9-0.8,10.6-0.8,15.8c0,2.3,0,4.1,0,6.8h109.4v18.5h-106.7
			c3,21.9,10.6,38.1,20.7,49.4c14,14.7,32.8,21.9,53.2,21.9c20,0,37.3-7.5,46-12.4L1171.9,1280.6z"/>
		<g>
			<path class="st0" d="M1171.9,1280.6c-11.7,7.9-31.3,15.8-56.2,15.8c-30.5,0-57.7-11.7-76.5-33.6c-14.3-15.8-23.8-37.7-27.2-64.9
				h-23.4v-18.5h21.5c0-1.9,0-3.8,0-5.7c0-6,0.4-11.7,0.8-17h-22.2v-18.9h24.9c4.5-26.4,15.8-48.3,30.9-63.7
				c19.2-20,43.7-31.3,74.7-31.3c22.2,0,39.6,6.4,50.1,12.1l-7.5,24.9c-9.4-5.7-25.3-10.6-42.2-10.6c-20.4,0-37,7.2-49.8,20.7
				c-11.3,10.9-18.9,27.9-22.6,47.9h105.2v18.9h-108.6c-0.4,4.9-0.8,10.6-0.8,15.8c0,2.3,0,4.1,0,6.8h109.4v18.5h-106.7
				c3,21.9,10.6,38.1,20.7,49.4c14,14.7,32.8,21.9,53.2,21.9c20,0,37.3-7.5,46-12.4L1171.9,1280.6z"/>
			<g>
				<g>
					<g>
						<path class="st0" d="M1008.7,1211.7c-0.1-1.3-0.3-2.5-0.3-3.8C1008.2,1208,1008.2,1208.9,1008.7,1211.7z"/>
						<path class="st0" d="M1157.8,1197.5c0,0.5,0.1,1,0.1,1.4C1157.9,1197.9,1157.9,1197.6,1157.8,1197.5z"/>
						<path class="st0" d="M998.1,1147.3L998.1,1147.3L998.1,1147.3C998.1,1147.3,998.1,1147.3,998.1,1147.3z"/>
						<path class="st0" d="M1037.3,1247.3c-2.3-3.5-4.2-7-5.7-10.4c-1.6-3.4-2.9-6.6-4-9.8c-2.1-6.3-3.5-12.1-4.5-17.8
							c-0.2-1.4-0.5-2.8-0.7-4.2c-0.2-1.3-0.4-2.5-0.6-3.8c-0.2-1.4-0.4-2.8-0.5-4.3c-0.4-2.8-0.8-5.6-1.2-8.5v-0.1h-0.1h-0.3h-0.5
							h-1.1h-2.1c-1.4,0-2.9,0-4.3-0.1c-2.8,0-5.7-0.1-8.6-0.1c-1.4,0-2.8-0.1-4.3-0.1c-0.1,0-0.2-0.1-0.3-0.1v-0.1l0,0l0,0v0.2v0.6
							v0.6v0.3v-0.5c0-0.4,0-0.8,0-1.2v-0.2v0.2v0.3c0,0.4,0,0.8,0,1.3v-0.1c0.1,0,0.1,0,0.2-0.1h0.1l0,0l0,0c0,0-0.1,0,0.1,0
							c2,0,4.1,0,6.3-0.1c4.8,0,9.7,0,14.5,0h0.1v-0.1v-0.2v-0.5v-0.9v-1.8v-3.7c0-2.4,0-4.9,0-7.4v-3.6l0.1-2.5l0.1-2.9l0.2-3.7
							c0.3-5,0.7-9.9,1-14.9c-7.2,0-14.4,0.1-21.5,0.1c-1.3,0-0.9,0-1.1,0h-0.2l-0.4,0.1l-0.1-0.3l0,0v0.1v0.2v0.4v0.4v0.1v-0.3
							v-0.6v-0.6c0-0.2,0,0,0,0v0.1v0.4v0.4v0.2c0,0.1,0,0,0,0l-0.1-0.5c0.1,0,0.2,0,0.2,0c0-0.2,0.1-0.3,0.3-0.5
							c0.1-0.1,0.2-0.1,0.4-0.1l0,0h0.2h0.3h0.7c0.4,0,0.9,0,1.4,0c0.9,0,1.9,0,2.8-0.1c1.5,0,2.9,0,4.4,0c3.6,0,7.2,0,10.9,0h0.7
							h0.2h0.1v-0.1l0.1-0.3l0.3-1.4l0.5-2.7c0.4-1.8,0.7-3.6,1.1-5.4c0.2-0.9,0.3-1.8,0.5-2.7c0.2-0.8,0.3-1.5,0.5-2.3
							c0.2-0.9,0.4-1.8,0.6-2.7c0.2-0.9,0.4-1.8,0.6-2.7c0.2-0.9,0.4-1.7,0.7-2.6c0.4-1.7,0.8-3.3,1.2-4.8c0.8-1.4,1.7-2.8,2.5-4.2
							c1.1-4.1,3-8.9,5.5-12.4l0.1,0.4c0.6-1.5,1.3-3,2.1-4.4c0.8-1.4,1.6-2.8,2.4-4c1.6-2.5,3.2-4.6,4-5.9v0.4l2.4-3
							c0.8-1,1.6-2,2.5-2.9c-0.2,0.4-0.4,0.8-0.6,1.2c1.7-2.2,3.5-4.3,5.5-6.3c0.9-1.1,2-2,3-2.9c1-1,2-1.9,3.1-2.8
							c4.2-3.5,8.7-6.5,13.1-8.8l-1.3-0.5c1.2-0.7,2.4-1.2,3.5-1.7c0.6-0.3,1.1-0.5,1.6-0.8c0.5-0.2,1.1-0.5,1.6-0.7
							c1.1-0.4,2.1-0.9,3.1-1.3s2-0.8,2.9-1.2c0.9-0.4,1.9-0.7,2.8-1s1.8-0.7,2.7-1c1.8-0.5,3.5-1.1,5.2-1.6
							c6.8-1.9,13.8-3.1,23.7-2.6l-0.3,0.3c6.2-0.8,11.8-0.6,17,0.2c5.2,0.8,10,2.1,14.6,3.8c2.3,0.9,4.6,1.7,6.9,2.8
							c0.6,0.2,1.2,0.5,1.7,0.8l0.4,0.2c0.3,0.2,0.5,0.3,0.8,0.5l0.4,0.2l0.1,0.1c0,0,0.1,0,0.1,0.1l-0.1,0.2
							c-0.1,0.3-0.1,0.6-0.2,1c0,0.2,0,0.4-0.1,0.6c0,0.1,0,0.1,0,0.2l-0.1,0.6c-0.1,0.4-0.2,0.8-0.3,1.2c-0.2,0.8-0.4,1.6-0.5,2.4
							l-0.1,0.6l-0.1,0.3v0.2l0,0v0.4c0-0.6-0.2-0.5-0.4-0.3c-0.2,0.2-0.4,0.4-0.5,0.2l-0.2,1.2c0,0.2-0.1,0.4-0.1,0.6l-0.1,0.3v0.2
							h-0.1c-0.5-0.2-0.9-0.3-1.4-0.5c-0.5-0.1-1.1-0.2-2.3-0.5c-3.2-0.8-5.3-0.8-5.6-0.1c-4.7-1.4-6.6-1.9-7.4-2.3
							c-0.8-0.5-0.6-0.8-1.2-1.3c-0.1,0.5-2.2,0.3-5.3,0.1c-3.1-0.2-7.1-0.5-10.8-0.6l3.5-0.2c-3.6-0.2-7.3-0.2-10.9,0
							c-3.7,0.3-7.3,0.7-10.9,1.4c1.5,0.4,3,0.6,4.5,1.1c-5.7,0.5-6.5,0.3-7.3,0c-0.7-0.2-1.5-0.5-6.8,1.3l0.6,1.3
							c-1.9,0.6-3.7,1.2-5.4,1.8c-1.7,0.7-3.4,1.3-4.9,2c-3.2,1.3-6,2.8-8.9,4.3c-1.4,0.8-2.8,1.6-4.2,2.5c-1.4,0.9-2.7,1.9-4.1,2.9
							c-1.3,1-2.6,2.1-4,3.2c-0.7,0.6-1.4,1.1-2.1,1.8c-0.7,0.7-1.4,1.4-2.1,2.1c-2.3,2.7-4.3,5.6-6.2,8.5c-1.8,3-3.4,6.1-4.9,9.2
							c-1.4,3.1-2.7,6.3-3.8,9.6c-0.6,1.6-1.1,3.3-1.6,4.9c-0.2,0.6-0.7,2.3-1,3.5c-0.4,1.3-0.6,2.7-1,4c-0.6,2.7-1.2,5.3-1.7,7.9
							l-0.8,4l-0.4,2l-0.2,1l-0.1,0.5c0,0.1,0,0,0.1,0h0.1h0.3l8,0.2c2.6,0.1,5.5,0,8.2,0l6.9-0.1l4.8-0.1c3.2-0.1,6.5-0.1,9.7-0.2
							c12.9-0.2,25.7-0.5,38.4-0.6c6.3-0.1,12.6-0.1,18.9-0.1c2.9,0,5.9,0,8.8,0c1.2,0,2.5,0.1,3.7,0.1c0,0.6,0,1.3-0.1,1.9
							c0,0.2,0,0.2,0,0.2v0.2v0.1l0,0v0.3v0.6v0.6c0,0.1,0,0.1,0,0.1l0,0v0.1v0.1c0,0,0,0,0,0.2c0,0.5-0.1,1.1-0.1,1.6
							c-0.7-0.1-1.3-0.1-2-0.2l-0.9-0.1l-0.4-0.1h-0.2c0,0,0,0-0.1,0h-0.3l-2.5-1.1c-1.1-1.6-15.6,2.4-17.7,0.9l-6.6,0.7
							c-1.8-0.3-5.7-0.6-2.5-1c-6.1-0.1-6.2,0.2-10.6,0.7l-6.5-1c-12-0.4-23.1-0.1-34.3,0.2c-3,0.1-5.9,0.2-8.9,0.3
							c-2.4,0-4.8,0.1-7.3,0.1c-2.4,0.1-4.8,0.1-7.2,0.2h-0.5c-0.1,0.1,0,0.3-0.1,0.4l-0.1,0.9l-0.1,1.8c-0.1,1.2-0.2,2.5-0.2,3.7
							c-0.2,2.5-0.3,5-0.5,7.5c0,1-0.1,2.1-0.1,3.1v1.2v1.8c0,2.6,0,5.2-0.1,7.8c-0.1,1.5-0.1,3.1-0.2,4.7c0,0.8-0.1,1.6-0.1,2.5
							v0.6v0.3v0.2h0.1c0.4,0,0.8,0,1.2,0c3.3,0.1,6.7,0.2,10.4,0.3c5,0.1,10.3,0.2,15.9,0.3c9.5,0.1,19.7,0.1,30.1-0.1
							s21-0.4,31-0.7c5-0.1,9.9-0.3,14.6-0.4c1.1,0,2.1-0.1,3.2-0.1c0.4,0,0.8-0.1,1.3-0.1c0.9-0.1,1.8-0.1,2.6-0.2
							c0,0.4,0.1,0.8,0.1,1.2c0,0.2,0,0.4,0,0.6c0,0.1,0,0.2,0,0.2l0,0c0,0,0.1,0,0.1,0.1v0.1v0.7v0.8v0.4l0,0l0.1,0.2v0.1l0,0v0.2
							v0.7c0,0.5,0.1,1,0.1,1.5c-1.2,0.1-2.4,0.1-3.7,0.1c-2.4,0-4.8,0-7.2,0c-5.5,0-11.1-0.2-16.8-0.3c-11.3-0.3-22.7-0.8-34.1-1.2
							c-5.7-0.2-11.4-0.4-17.1-0.6c-2.8-0.1-5.7-0.1-8.5-0.2c-2.1,0-4.3-0.1-6.4-0.1h-3.8c-1.3,0-2.5,0-3.7,0
							c-2.4,0.1-4.8,0.1-7.3,0.2h-1.8c0,0.5,0.2,1.2,0.2,1.8l0.6,3.6c0.4,2.4,0.8,4.8,1.1,7.2c0.2,1.2,0.4,2.4,0.7,3.6l0.8,3.6
							c0.1,0.6,0.3,1.2,0.4,1.8l0.4,1.3l0.6,2.1c0.4,1.4,0.9,2.8,1.4,4.2c1,2.8,2.1,5.5,3.3,8.1c0.4,1.6,2.7,5.4,2.8,5.2
							c1.7,3.5,3.6,6.9,5.7,10.2c2.2,3.3,4.5,6.4,7.3,9.5c2.8,3,5.8,5.5,8.9,8c3.2,2.4,6.5,4.5,10,6.4c0,0,0.8,0.4,2.3,1.1
							c0.7,0.4,1.6,0.8,2.7,1.3s2.3,1,3.7,1.5c0.7,0.3,1.4,0.5,2.2,0.8c0.8,0.2,1.6,0.5,2.4,0.8c1.7,0.6,3.5,1,5.4,1.5
							c3.9,0.9,8.2,1.6,12.8,1.9c4.6,0.4,9.5,0.3,14.5-0.2s10-1.4,14.9-2.7c4.9-1.3,9.6-2.9,14-4.8c0.5-0.2,1.1-0.5,1.6-0.7l0.6-0.3
							c0.4-0.2,0.8-0.4,1.2-0.7c0.8-0.5,1.7-1,2.5-1.6l0.1-0.1c0,0,0,0.1,0.1,0.1l0.1,0.2l0.2,0.5c0.1,0.3,0.3,0.6,0.4,0.9
							c0.3,0.7,0.5,1.3,0.8,1.9c0.1,0.3,0.3,0.6,0.4,0.9c0.1,0.2,0.1,0.3,0.2,0.5l0.1,0.1l0.1,0.2l0.2,0.5c0.4,1.2,0.9,2.3,1.2,3.4
							c1.6,4.1,2.9,6.8,3.7,7.5c0.8,0.6,1.2-0.8,1-4.8c-0.1-2-0.3-4.7-0.8-8.2c-0.2-1.9-0.6-4-1-6.6c-0.2-1.3-0.5-2.7-0.7-4.1
							c-0.1-0.8-0.3-1.5-0.4-2.3c-0.1-0.4-0.1-0.8-0.2-1.2l-0.1-0.6v-0.1h-0.1l-0.2-0.1c-2.2,0.9-4.8,2-7.8,3.2
							c-0.8,0.3-1.5,0.6-2.3,0.9s-1.6,0.6-2.5,0.9c-0.5,0.2-0.8,0.3-1.1,0.3c-0.3,0.1-0.6,0.2-1,0.3c-0.6,0.2-1.3,0.4-2,0.5
							c-5.3,1.4-11.4,2.6-18.2,3l0.9-0.5c-5.5,0.7-10.5,0.8-15,0.6c-4.6-0.2-8.8-0.7-12.7-1.5c-3.9-0.7-7.6-1.7-11.1-2.8
							c-3.5-1.1-7-2.4-10.4-3.9c-0.2-0.8-1.3-1.8-2.7-2.9c-0.7-0.6-1.5-1.2-2.4-1.9c-0.9-0.7-1.8-1.4-2.7-2.1
							c-0.9-0.8-1.9-1.5-2.7-2.3c-0.8-0.8-1.7-1.6-2.4-2.3c-1.4-1.5-2.6-3.1-3.2-4.2l0.4,0.3c-4.6-4.8-7.7-11.1-9.9-17.7
							c-1.1-3.3-1.9-6.6-2.8-9.9c-0.2-0.8-0.4-1.6-0.6-2.5l-0.3-1c-0.2-0.6-0.4-1.2-0.8-2c0.2,0.3,0.9,0.7,1.1,1.6
							c-0.2-0.8-0.5-1.7-0.7-2.6c0-0.1-0.1-0.2-0.1-0.3h0.3c0.2,0,0.4,0,0.6,0c0.4,0,0.9,0,1.3,0s0.8,0,1.1,0c0.2,0,0.3,0,0.5,0.1
							c0.1,0,0.1,0,0.3,0c0.2,0,0.4,0,0.6,0c1.6,0.1,2.6,0.3,2.8,0.6c24.2-0.3,58,0.3,73.5-1.7l-1.1,0.3c2-0.3,3.6-0.5,5.2-0.6
							c0.8-0.1,1.5-0.1,2.2-0.1c0.4,0,0.7,0,1,0c0.5,0,1,0,1.5,0c4.1,0,8.3,0.1,14,0c0-1.3-0.1-2.8-0.2-4.5c0.2-0.7,0.2-1.7,0.3-1.5
							c0-0.4-0.1-0.8-0.1-1.2c0-0.4-0.1-0.9-0.1-1.3c0-1-0.1-2-0.1-3c0-0.5,0-1-0.1-1.6v-0.7v-0.4c0-0.3,0-0.6,0-0.9v-0.5v-0.8
							c0-2.1-0.1-4.3-0.1-6.5c0-1.9,0-3.9,0-5.9c-5.8,0-11.6-0.1-16.9-0.1c-3.7,0-7,0-9.4,0.2l-0.5-0.8l-19.2,0.2l7.2,0.2
							c-2.5,2.3-14.5-1.4-28.4,0c-6.5-0.1-13.1,1-19.8,2.1c-3.3,0.5-6.7,1.1-10,1.4c-1.7,0.2-3.4,0.3-5,0.3h-1.3h-1.2
							c-0.7,0-1.4-0.1-2.1-0.1c-1.5,0.3-1.9,0.3-1.8,0.2c0.1-0.1,0.8-0.3,1.3-0.6c0.5-0.2,0.9-0.5,0.7-0.6c-0.2-0.1-0.9-0.2-2.9,0.1
							c0.3-0.6,1.2-0.8,1.9-0.9c0.7-0.2,1-0.3,0.5-0.8c-0.7,0.1-1.4,0.1-2.1,0.1c-0.3,0-0.6,0-1,0c-0.1,0-0.1-0.1-0.1-0.2v-0.2v-0.5
							c0.1-1.3,0.2-2.6,0.4-3.7c0-0.3,0.1-0.6,0.1-0.9l0.1-0.4v-0.2v-0.4c0.1-0.9,0.1-1.8,0.2-2.7c0.1-1.2,0.2-2.5,0.1-4.3
							c0.3,0.2,0.6,0.4,0.9,0.7c0-0.1,0-0.1,0.1-0.1h0.1l0.3-0.1c0.2,0,0.4-0.1,0.6-0.1c0.4-0.1,0.8-0.1,1.3-0.2
							c0.4,0,0.9-0.1,1.4-0.1h0.7c0.4,0,0.9,0,1.3,0c3.6,0,7,0.2,10.3,0.3c6.5,0.3,12.5,0.6,17.5-0.2c15.7-0.8,10.5,2.8,26.9,0.9
							l6.4,1.3c7,0.2,5-1.5,12.8-0.9c-0.5,0.8,9.8,0.6,5.3,1.4c1.5,0.1,3,0.2,4.6,0.2c0.8,0,1.5,0,2.3,0.1c1,0,2,0,2.9,0
							c5.6,0,11.2-0.1,16.7-0.2c-0.1-5.6-0.2-11.3-0.3-17.2v-1.4c0-0.8,0-1.6,0-2.4c0-1.6,0-3.2-0.1-4.8c0-2.8-0.1-5.6-0.1-8.4
							c-2.9,0-5.8,0-8.8,0c-1.5,0-3,0-4.5,0s-3,0-4.5-0.1c-3.6-0.1-7.2-0.3-11-0.7c-5,1.5-16.7,0.6-20.4,1.8
							c-0.6-0.7-23.3-0.1-10.3-1.6c1.1-0.1,3.1-0.1,3,0.2l1.6-0.9c-13.2-1.7-24,0.9-37,0.7c3.9,0.3,9,0.2,5.6,0.9l-12.1-0.1l2.5-0.8
							l-2.3-0.1h-1.1h-0.3c-0.1,0-0.1,0-0.1,0h-0.1l-0.8-0.1l-0.7-0.1l-0.3-0.1h-0.1l0,0v-0.1l0.1-0.2c-0.2,0.2-0.4,0.4-0.6,0.7
							c-0.2,0.2-0.2,0.3-0.3,0.5c-0.4,0.1,0-0.4,0.1-0.7c0.2-0.3,0.3-0.6,0.5-0.8c0.3-0.5,0.6-0.8,0.8-1c0.1-0.1,0.2-0.2,0.3-0.3
							c0-0.1,0.1-0.1,0.1-0.1l0,0l0.1-0.3c0.1-0.2,0.1-0.4,0.2-0.6c0.5-1.6,0.9-3.5,1.4-5.7c0.7-4.2-3.9,6.9-1.2-1.4
							c1.2-2.5,2.5-5.3,4.2-8.1c1.6-2.8,3.5-5.7,5.7-8.4c2.2-2.7,4.4-5.1,7.2-7.6c0.7-0.6,1.4-1.3,2-1.9c0.7-0.6,1.3-1.1,2-1.7
							c0.7-0.5,1.3-1,2-1.6c0.7-0.5,1.4-1,2-1.4c-0.8-0.1-0.5-0.6,0.4-1.4s2.4-1.8,3.9-2.8l0.8,0.6c2.9-2,4.8-2.8,6.1-3.2
							c1.3-0.4,2-0.4,2.7-0.3c1.4,0.2,2.6,0,9.2-1.8c-0.4,0.3-0.7,0.6-1.1,0.9c1-0.9,2.2-1.7,3.3-2.5c6.3-1.7,8.2-1,10.1-0.7
							c1,0.2,2,0.4,3.7,0.4c1.7,0.1,4,0,7.7-0.2c-2.9-0.3-3.5-0.9-2.5-1.2c0.5-0.2,1.4-0.3,2.6-0.3s2.8,0.2,4.6,0.6l-2,0.6
							c4,0.5,5.3,0.5,7.9,1.3c-1.2-0.1-1.6,0.2-1,0.6c0.3,0.2,0.9,0.4,1.7,0.8c0.8,0.3,1.9,0.6,3.3,1c-1.3,0-2.7,0-4,0
							c1.8,0.2,3.6,0.5,5.4,0.8l1.3,0.3c0.1,0,0.3,0.1,0.5,0.1l0.5,0.2l1.1,0.3l1.1,0.3l0.5,0.2c0.2,0.1,0.4,0.2,0.6,0.2l2.3,0.9
							c3.3,1.9,7,4.1,10.8,6.4c0.4-0.5,0.6-1.5,0.9-2.3c0.3-0.9,0.5-1.7,0.8-2.6c0.5-1.8,1.1-3.5,1.6-5.3c1-3.4,2.1-6.8,3-9.9
							c0.6-1.8,1.1-3.4,1.6-4.8c0.2-0.5,0.4-1,0.5-1.5c0.2-0.5,0.4-1,0.6-1.5c0.4-0.9,0.7-1.7,1-2.3c0,0,0.7-2.1,1.6-5.4
							c0.2-0.8,0.5-1.7,0.7-2.6c0.1-0.5,0.3-1,0.4-1.5l0.1-0.2c0.1-0.1-0.1-0.1-0.1-0.1l-0.4-0.2c-0.2-0.1-0.5-0.2-0.7-0.4
							c-1.9-1-4-2.1-6.2-3.2s-4.4-2.2-6.8-3.1c-0.4-0.2-0.8-0.3-1.3-0.5c-0.3-0.1-0.7-0.2-1-0.4c-0.7-0.2-1.3-0.5-2-0.7
							c-2.6-0.8-4.8-1.3-6-1.3c2.2,0.3,0.5-0.6-1.3-1.5s-3.8-1.7-2-1.8c-2.8-0.3-8.2-1.1-13.8-1.7c-5.5-0.7-11.2-1.1-14.4-1.7
							c0.4,0,0.8-0.1,1.2-0.1c-1.5-0.1-3-0.2-4.4-0.3c-1.5,0-2.9,0-4.3,0c-0.7,0-1.4,0-2.1,0s-1.4,0.1-2.1,0.1
							c-1.4,0.1-2.7,0.2-4.1,0.3c-1.3,0.2-2.6,0.4-3.9,0.5c-0.6,0.1-1.3,0.2-1.9,0.3c-0.6,0.1-1.3,0.3-1.9,0.4
							c-1.3,0.3-2.5,0.5-3.8,0.8c-1.2,0.3-2.5,0.6-3.7,1l-1.8,0.5l-1.8,0.6l-3.6,1.1c-1.2,0.4-2.4,0.9-3.5,1.3l-1.8,0.6l-1.8,0.7
							c-4.7,1.8-9.4,4.1-14.3,6.5c0.7,0.2-1.5,1.7-3.5,3c-1.9,1.5-3.6,2.8-2,2.6c-4.4,3.4-8.5,6.7-12.2,9.9c-3.7,3.2-7.1,6.3-10,9.4
							c-5.8,6.1-9.4,11.7-9.6,16.2c-2.5,4.3-4,6.8-5.4,8.7c-0.7,1-1.2,1.8-1.8,2.7c-0.6,0.9-1.2,1.8-1.7,3c0.2-0.8,0.5-1.5,0.8-2.3
							c-1,2.1-1.7,4.1-2.5,6c-0.7,1.8-1.3,3.5-1.8,5.1s-1,3.1-1.4,4.5s-0.8,2.7-1.2,4c-0.3,1.3-0.7,2.6-1,3.9
							c-0.2,0.6-0.3,1.3-0.5,1.9c-0.1,0.5-0.2,1-0.3,1.5s-0.2,1-0.3,1.5c-0.1,0.3-0.1,0.5-0.2,0.8v0.2c0,0.1,0,0.2-0.1,0.1
							c-0.1,0-0.3,0-0.5,0c-0.5,0.1-0.9,0.3-1.4,0.5c-0.2,0.1-0.5,0.2-0.7,0.4c-0.1,0.1-0.3,0.1-0.4,0.2c-0.2,0.1-0.6,0.1-0.9,0.2
							c-1.3,0.2-2.7,0.5-4.6,0.6c-0.7,0.1-2.4,0.1-4.1,0.1c-1.7,0-3.6,0-5.7-0.1c2.3-0.4,2.2-0.5,0.7-0.6s-4.3-0.1-7.3-0.1
							c0,0.7,0,1.3,0,2c0-0.8-0.1-1.6-0.1-2.1c1.4-0.1,1.7-0.2-0.4-0.4c-0.1,0.8-0.3,2.5-0.4,5.1c0.1,0.7,0.2,1.6,0.3,2.5
							c0.1,1,0.2,2.2,0.2,3.2c-0.1,0.1-0.1,0.5-0.2,0.2c0,0.8,0,1.6,0.1,2.3c0,0.3,0,0.7,0,1c0,0.2,0,0.4,0,0.5c0,0.3,0,0.6,0,0.9
							c0,0.5,0,0.9,0,1.3c0.1,1.5,0.1,2.3,0.2,2.4c0.1,0.1,0.1-0.3,0.1-1.2c0-0.7,0.1-1.8,0.1-3.1c0.1,0.1,0.1,0.1,0.2-0.1
							c0-0.1,0.1-0.2,0.1-0.4c0-0.1,0-0.2,0.1-0.3c0-0.1,0.1-0.4,0.1-0.6v0.5v0.3c0,0.2,0,0.4-0.1,0.6c0,0.2,0,0.4-0.1,0.6
							c0,0.3,0,0.7-0.1,1c-0.1,1.4-0.1,2.9-0.1,4.5c0,1.4-0.1,2.8-0.1,4.2c0,1.4,0,2.8,0,4.2c4.4,0,8.6,0,11.8,0.1
							c0.8,0,1.5,0.1,2.2,0.1c0.3,0,0.7,0,1,0.1c0.1,0,0.3,0,0.4,0c0.1,0,0.2,0,0.3,0c0.3,0.1,0.6,0.1,0.8,0.2
							c0.1,0,0.2,0.1,0.2,0.1l0.1,0.1c1.7-0.1,3.2-0.1,4.7-0.2c0,0.8,0,1.7,0,2.6c0,0.4,0,0.9,0,1.3v0.7c0,0.4,0,0.9,0,1.3v0.7v0.4
							v0.7c0,0.5,0.1,1,0.1,1.4c0,0.5,0.1,1,0.1,1.5l0.1,0.8v0.4v0.2c0,0.1,0,0.2,0,0.1c-0.9,0.1-1.8,0.2-2.7,0.3l-1.5,0.1l-0.8,0.1
							h-0.4H999c-2.4,0.1-4.8,0.2-7.2,0.2c-2.4,0.1-4.9,0.1-7.3,0.2c0,0.8,0,1.6,0.1,2.4c-0.4,1.3-0.8-0.2-1.1-3.5
							c1.9-0.2,4.9-0.4,8.3-0.5l-8.7,0.1l0.1,11.6c-0.2-0.1-0.3-0.5-0.4-1.3c-0.1-0.8-0.2-1.9-0.2-3.1c-0.1-2.2-0.1-5-0.1-7.7
							c2.4,0,4.8,0,6.7-0.1c-2.3-0.1-4.7-0.3-7.1-0.3c-0.1,2.3-0.1,4.7-0.1,7.2c0,1.4,0,2.9,0,4.3c0,1.2,0,2.5,0,3.7
							c0.1,2.6,0.1,5.3,0.2,7.9c0.1,2.4,0.1,4.9,0.2,7.3c3.5-0.1,7-0.2,10.6-0.3c2.9-0.1,5.8-0.2,8.7-0.2c0.8,0,1.5,0,2.3,0
							c0.6,0,1.1,0,1.7,0l0.8,0.1c0.2,0,0.6-0.1,0.5,0.4c0,0.6,0,1.2,0,1.8c0.3,0.4,0.7,0.9,1,1.5v0.3v0.5c0.4-0.1,1.7,3.9,2.5,6.6
							c-0.1,1.4-0.6,1.5-0.8,2.3c-0.1,0.4-0.1,1.1,0,2.1c0.2,1.1,0.5,2.6,1.2,4.9c0.7,3.7,2.5,8.7,4.9,13.8
							c2.4,5.1,5.6,10.1,8.4,14.2c-2.6-4.6-1.3-3.4,0.1-1.6c2.4,4,3.3,6.7,5.8,9.4l-0.7,1.1c-0.1-0.5,0.4-0.2,1.3,0.5
							c0.4,0.4,0.9,0.9,1.4,1.4s1.1,1.2,1.8,1.8c1.2,1.3,2.6,2.6,3.7,3.6c1.1,1.1,2,1.9,2.4,2.1c0.7,1.2-0.8,0.1-2.5-1.5
							c-0.8-0.8-1.8-1.7-2.5-2.4c-0.8-0.7-1.4-1.3-1.7-1.4c1.5,1.8,2.9,3.2,3.9,4.4c1.1,1.2,2,2.1,2.7,2.8c1.5,1.4,2.3,2.3,3.3,3.1
							c1.8,1.5,3.4,3.4,11.3,8.8c1.1,0.7,1.9,1,2.6,1.3c0.6,0.3,1,0.4,1.2,0.4c0.4,0.1,0.1-0.3-0.3-0.7c-0.8-0.8-2.1-2,0.2-1.2
							c1,0.5,1.9,1.1,2.9,1.6s2,1,2.9,1.5c1,0.5,2,1,3,1.4s2,0.9,3.1,1.3c0.5,0.2,1,0.4,1.6,0.7c0.5,0.2,1.1,0.4,1.6,0.6
							c1.1,0.4,2.1,0.8,3.2,1.3c1.1,0.4,2.2,0.8,3.4,1.2c0.6,0.2,1.1,0.4,1.7,0.7c0.6,0.2,1.2,0.4,1.8,0.6l-1.4-0.9l-1.3-1
							c7.9,2.2,14.3,3.1,20,4c2.9,0.4,5.6,0.7,8.3,1c1.3,0.2,2.7,0.2,4,0.4c0.7,0.1,1.3,0.1,2,0.2s1.4,0.1,2,0.2
							c15.2-1.3,26.4-5.2,34.4-9s12.8-7.5,15.6-10.1c2.8-2.6,4-4.3,3.9-5s-1.4-0.4-3.4,0.4c-1.9,0.7-4.4,1.8-7.3,3
							c-2.9,1.1-6.1,2.3-9.2,3.2c-0.8,0.2-1.5,0.5-2.2,0.7s-1.4,0.4-2.1,0.6c-1.3,0.4-2.6,0.6-3.6,0.9s-1.9,0.4-2.5,0.5
							s-0.9,0.2-0.9,0.2c-10.5,2-20,2.3-28.9,2c-1.1,0-2.2-0.1-3.3-0.2c-1.1-0.1-2.2-0.1-3.3-0.3c-2.1-0.3-4.3-0.4-6.4-0.8
							c-4.2-0.6-8.3-1.6-12.5-2.6c-8.2-2.4-16.4-5.7-24.7-11.1c-4.1-2.7-8.2-5.9-12.2-9.8c-2-2-4-4.2-6-6.4
							C1041,1252.4,1039,1250,1037.3,1247.3z"/>
					</g>
				</g>
			</g>
		</g>
	</g>
</g>
</svg>
