<?xml version="1.0" encoding="utf-8"?>
<!-- Generator: Adobe Illustrator 27.5.0, SVG Export Plug-In . SVG Version: 6.00 Build 0)  -->
<svg version="1.1" id="Layer_1" xmlns="http://www.w3.org/2000/svg" xmlns:xlink="http://www.w3.org/1999/xlink" x="0px" y="0px"
	 viewBox="0 0 1130 1183.2" style="enable-background:new 0 0 1130 1183.2;" xml:space="preserve">
<style type="text/css">
	.st0{fill:#4D7C04;}
	.st1{fill:#D7DF0C;}
</style>
<g id="Layer_2_00000031175191043767140440000007030617613112109205_">
	<path class="st0" d="M176.3,343.9l-0.8-0.5c-0.2-0.2-0.5-0.6-0.8-0.8c-0.2-0.1-0.3-0.4-0.5-0.6l-0.5-0.8l-0.2-0.4l-0.2-0.6
		l-0.5-1.1l-1.4-0.2l-0.7-0.1c-0.2,0-0.4-0.1-0.6-0.2l-2.4-0.5l-2.4-0.5c-0.4-0.1-0.8-0.2-1.1-0.2l-1-0.3l-4.1-1.2l-2.7-1
		c-2.8-1.1-5.7-2.4-8.3-3.9s-5.1-3.2-7.3-5.1c-2.2-1.9-4.3-3.9-6-6.1v-0.9c0.2-0.5-0.7-0.9-1.7-1.5c-1-0.5-2-1.1-1.8-1.7
		c-0.5-0.4-1-0.7-1.5-1.1c-0.2-0.5-0.6-1.5,0.1-0.8c-0.9-1.3-1.1-1.2-2-2l-0.5-1.8c-1.5-2.8-3.1-5.2-4.5-7.8
		c-1.5-2.6-2.7-5.4-3.5-8.6c-0.2-1.1-0.4-2.4-0.5-3.7c-0.2-1.3-0.4-2.8-0.7-4.2c-0.4-3-0.8-6.2-0.9-9.4h-1.5c0-0.1,0-0.2,0.1-0.2
		h-6.4c0,0.1,0,0.2,0,0.2h-1.5c0.2,5.2-0.1,10.3-0.7,14.2c-0.4,3.1-1.2,6.2-2.6,9.2c-1.4,3-3.1,5.9-5.1,8.6
		c-1.9,2.7-4.1,5.2-6.3,7.7s-4.4,4.7-6.4,7.1c-0.4,0.2-1,1.1-0.9,1.1c-3,2.4-6.1,4.7-9.4,6.5c0,0-0.2,0.1-0.5,0.3
		c-0.4,0.2-0.8,0.5-1.5,0.8c-0.6,0.3-1.4,0.8-2.2,1.2c-0.8,0.5-1.8,0.9-2.8,1.4c-4.1,2-9.5,3.9-13.7,5.2c-2.1,0.7-3.9,1.3-5.1,1.8
		c-1.1,0.5-1.7,1.1-1.2,1.5c0.2,0.2,0.7,0.5,1.5,0.7c0.8,0.2,1.8,0.5,3.2,0.5c0.7,0.1,1.5,0.2,2.4,0.2c0.8,0,1.8,0,2.9,0
		c1.1-0.1,2.2-0.2,3.5-0.2c1.2-0.2,2.6-0.3,4.1-0.6l-0.2,0.3c6.7-1.9,10.9-3.9,14.4-7.3c0.7,0.4,1.9-0.4,3.1-1.3
		c1.2-1,2.5-2.1,3.2-2.4l-0.1,0.2c0.7-0.8,1.5-1.5,2.4-2.2s1.8-1.3,2.7-2c0.8-0.7,1.8-1.3,2.5-2.1s1.5-1.5,2.1-2.4
		c0,0.2,0.2,0.5-0.5,1.2c0.5-0.5,1-1.2,1.5-1.8s1.1-1.2,1.5-1.8c0.9-1.1,1.7-1.9,2.1-1.8c2.1-2.9,4.7-6.5,6.5-10.1
		c1.8-3.6,3.1-7.1,3.4-9.5l0.1,0.4c0.1-1.4,0.3-2.1,0.6-3c0.2-0.4,0.3-0.8,0.5-1.4c0.2,1.1,0.5,2.3,1.2,3.7l-0.5,0.3
		c1.2,1.9,1.9,3.9,2.6,5.7c0.4,0.9,0.7,1.8,1.1,2.5s0.8,1.5,1.5,2c2.8,3.7,0.2,3.6,3.9,7l0.5,2c1.2,1.8,1.7,0.6,2.8,2.6
		c-0.5,0.2,1.7,2.4,0.5,1.7c1.5,2.2,3.6,3.9,5.9,5.7c2.3,1.8,4.7,3.6,7.3,6c0.8,0.1,2,0.6,3,1.2c1.1,0.6,2.1,1.1,2.7,1.1
		c-0.1,0.5,6.1,3.3,2.2,2.3c-0.3-0.1-0.8-0.4-0.8-0.5l-0.7,0.2c0.8,0.7,1.5,1.2,2.4,1.7c0.8,0.4,1.7,0.7,2.6,1
		c0.8,0.3,1.8,0.5,2.7,0.7c0.2,0.1,0.5,0.2,0.5,0.1c0,0,0.1,0,0.2,0c0.1,0,0.2,0.1,0.3,0.1c-0.1-0.2-0.5-0.3-0.1-0.5l0.9,0.4
		c-0.2,0.1-0.5,0.2-0.6,0.2c0.2,0.2,0.4,0.3,0.5,0.4c0.2-0.1,0.3-0.2,0.5-0.2l0.3-0.2c0,0,0,0,0,0.1c0,0.2-0.4,0.3-0.6,0.4
		c-0.2,0.1-0.2,0.1,1,0.1c0.7,0,1.1-0.1,1.4-0.2c0.3-0.1,0.5-0.2,1.1-0.1c0.1,0.2-0.1,0.3-0.3,0.4c-0.5,0.1-1.1,0.2-1.7,0.2
		c-0.4,0.1-0.8,0.1-1.1,0.2c1.7,0.1,1.4,0.2,1.4,0.3l-1.2-0.2c0.3,0.2-0.1,0.2-0.5,0.2c-0.4-0.1-0.8-0.2-1.1-0.2
		c-0.3-0.1-0.4-0.1-0.2,0.1c-0.2-0.1-0.3-0.2-0.5-0.2c0.5,0.2,0.9,0.5,1.2,0.8c0.1,0.2-0.1,0.4-0.2,0.4c-0.2,0-0.3-0.1-0.5-0.2
		c-0.2-0.1-0.2-0.2-0.3-0.1c0.1,0-0.2,0.1-0.3,0.2c-0.2,0.1-0.3,0.2-0.5,0.3c-0.3,0.2-0.7,0.5-1.1,1c1.7-0.8,1.3,0.7-0.8,1.5
		l0.3-0.8c-1.1,0.7-1.4,1.1-2.1,1.3c0.5-0.6,0-0.9-1.6,0.1l0.8-1.2c-0.9,0.8-1.8,1.7-2.6,2.6c-2.7,0.8-5.9,3.8-7.3,3.9
		c0,0-1.3,0.8-2.6,1.8c-1.3,1-2.7,2.3-2.9,3c0.3-0.5-0.2-0.4-0.8-0.2c-0.5,0.2-1.1,0.5-1-0.1c-0.8,1.5-3.8,4.9-5.4,5.8l0.2-0.3
		c-2.6,2.2-4.3,4.7-5.8,7c-0.4,0.6-0.8,1.2-1.1,1.8c-0.4,0.6-0.8,1.2-1.1,1.8c-0.8,1.1-1.5,2.4-2.4,3.7c0.7,0.1-1.1,2.8,0,2.4
		c-0.5,1.5-1.1,2.8-1.8,4.1c-0.6,1.2-1.2,2.4-1.8,3.4c-0.2,0.4-0.3,0.8-0.5,1.1c-0.2-0.5-0.4-0.8-0.6-1.3c-0.3-0.6-0.6-1.1-0.9-1.8
		c-0.5-1.1-1.2-2.3-1.8-3.5c0.2-0.8,1,0.2,1.8,1.6c-0.6-1.1-1.1-2.3-1.8-3.4c0.3-0.2,0.6,0.3,0.9,0.9c0.3,0.6,0.6,1.5,0.9,1.9
		c-0.2-1.1-0.7-2.3-1.3-3.3c-0.3-0.5-0.6-1.1-0.9-1.6c-0.3-0.5-0.7-1-1.1-1.5c-1.5-2.1-3.1-4-4.3-6.5l-1.1-0.6l-0.1-0.2
		c-0.1-0.2-0.2-0.4-0.5-0.7l0.3,0.6c-0.3,0-1.1-0.7-1.7-1.1c-0.1-0.9,1-0.7-0.8-2.8c-0.5-1-1.6-2.1-2.8-3.1c-0.6-0.5-1.3-1-1.9-1.5
		c-0.6-0.5-1.3-0.9-1.8-1.3c1.1,1.1,0.5,0.9-0.1,0.7c-0.5-0.5-0.8-0.8-1.1-1.3c-0.3-0.4-0.6-0.7-1.1-1l0.3-0.5
		c-0.2,0.1-0.8-0.3-1.5-0.7c-0.8-0.5-1.8-1.1-2.1-1.1c-0.3-0.8,1.9,0.9,2.4,0.8c-2.1-1.6-2.7-2-3.2-2.4c-0.3-0.2-0.5-0.4-1-0.7
		c-0.5-0.3-1.1-0.8-2.3-1.5c-2.7-1.1,0.1,0.8-1.4,0.6c-2.1-1.2-4.4-1.9-6.7-3.6c0.2,0.3,0.3,0.6,0.5,1c-4.3-1.7-6.7-2.7-9.4-4.4
		c-4.2-0.9-7.6-1.1-10.1-1.2c-1.3,0-2.4,0-3.2,0.1c-0.9,0.1-1.6,0.2-2.2,0.3c-2.3,0.5-2.3,1.2-1.2,2c1.1,0.8,3.1,1.5,4.8,2.2
		c0.8,0.3,1.7,0.6,2.2,0.8c0.6,0.2,0.9,0.4,0.9,0.4c2.8,1.1,5.4,2.2,7.7,3.1c2.4,0.9,4.6,1.8,6.9,2.8c4.5,2.4,9.4,4.6,15.2,9.3
		c4.7,4.4,7,7.9,9.2,11.3c0.5,0.8,1.1,1.8,1.6,2.7c0.2,0.5,0.5,0.9,0.8,1.4c0.2,0.5,0.5,1,0.8,1.5c0.6,1,1.1,2.1,1.8,3.4
		c0.5,1.2,1.2,2.5,1.8,4.1c1.1,2.9,2.1,6,2.8,9.1c0.7,3.1,1.2,6.3,1.5,9.3c0.3,0.8,0.4,1.7,0.5,2.8h10.2c-0.2-2.8,0.5-6.3,0.3-8.9
		c0.2-0.4,0.5-0.8,0.8-1.2c0-0.6,0-1.3,0.1-1.9c0.1-0.6,0.3-1.3,0.5-1.8l0.2,0.1c0-0.9,0.2-1.8,0.5-2.6c0.1-0.4,0.2-0.8,0.3-1.1
		c0.1-0.3,0.2-0.6,0.2-0.8l0.2,0.2l0.6-2.1c0,0.2,0.1,0.3,0.1,0.5c0.7-3.1,2.1-6,3.6-8.3l-0.7-0.2c0.9-1.2,1.6-2.3,2.2-3.3
		c0.6-1,1.1-1.8,1.7-2.7c1.1-1.7,2.2-3.3,4.4-5.1l0.1,0.2c1.8-3.1,4.1-4.9,6.4-6.5c2.4-1.6,4.7-3,7.3-5.7c-0.7,0.7,0.5,0.1,0.5,0.2
		c1.4-1,2.8-1.9,3.9-2.8c1.1-0.8,1.7-1.5,1.5-2.1c2.2-1.1,2-0.5,2.5-0.3c-0.2-0.2,0.2-0.7,0.9-1.1c0.3-0.2,0.7-0.5,1.1-0.7
		c0.2-0.1,0.5-0.2,0.6-0.3l0.4-0.2c0.2-0.1,0.4-0.2,0.5-0.2l-0.6,0.4l-0.4,0.3c0.3-0.2,1.1-0.5,1.8-0.8l2.1-0.8l2.1-0.8
		c0.7-0.3,1.5-0.5,2.2-0.8c-1.1,0-2.1-0.1-2.9-0.2c2.3-0.6,3.1-0.5,3.7-0.5c0.3,0,0.6,0.1,1.1-0.1c0.5-0.1,1.1-0.3,2.3-0.7l-1.7-0.4
		c0.5-0.1,0.8-0.2,1.2-0.3c1.4-1.1,2.8-1.6,4-2.4c1.2-0.5,2.1-1.1,2.7-1.5l0.2-0.2L176.3,343.9C176.2,344,176.4,343.9,176.3,343.9z"
		/>
	<path class="st0" d="M544.6,59.8v-0.2c-1.1-0.1-1.8,0-2.2,1c-0.4-1-0.9,0.2-1.2-0.2v-0.1c-0.4,1-1.4-0.3-1.8,0.6
		c0-0.1-0.1-0.4,0.1-0.4c-0.4,0.2-1,0.6-1.1,0.1c-1,0.5-2.5,0.6-2.9,1.7v-0.2c-0.2,0.8-0.5,0.2-0.8,0.7c-0.1-0.1-0.1-0.1-0.1-0.2
		c-0.2,0.8-1.2,0.5-1.4,0.8l-0.2-0.4l-0.8,0.3h0.3c0.2,1.1-0.8-0.5-1.2,0.4c-0.6,0-0.5,2.6-1.2,2.2c-0.2,0.6,0-0.9-0.3-0.4
		c-0.2-0.6,0.1-0.4-0.2-0.9c-0.3,0.4-0.9-0.4-1.2,0.2l-0.2-0.5c-0.4,1-1.4-0.2-1.6,0.7c-0.6,0.6-0.9-1.2-1.3-0.1l-0.5-0.6
		c-0.3,0,0,0.8-0.4,0.6c-0.1-0.4-0.5-0.2-0.4-0.6c-1-0.4-1.3,1.3-2.5,0.6c0,0.8-0.6,0.5-0.6,1.1c-0.1-0.1-0.2-0.1-0.2-0.1
		c0.1-0.2,0-0.2-0.5-0.4c0-0.1,0-0.1,0.1-0.2c0-0.1,0.1-0.1,0.2,0.1l-0.1-0.5c-0.2-0.1-0.2-0.2-0.4-0.2v-0.1h0.6l-1-0.2
		c0.3-0.6-0.4-1,0.2-1.3c0,0,0.1-1-0.7-1c0.5,0.1,0.5-0.5,1-0.5c-0.6-0.1-1.1-0.6-0.7-1h0.1c0.2-1.1-1.2-1.4-0.8-2.5
		c-0.5,0.2-0.4-0.3-1,0c-1-0.7,0.9-2-1.3-1.7c-0.2-0.4,0.3-0.6,0.4-0.9L517,56c-0.4-0.7-0.5-1-0.6-1.5c-0.3-0.2-1.3,0-1.2-0.6
		c0.4,0.1,0.3-0.2,0.2-0.3c0.1,0.1,0.2,0.1,0.4-0.2c-0.2,0-0.2,0-0.3-0.1h0.1c-0.2-0.2-0.3-0.2-0.3,0c-0.1,0-0.2,0.1-0.2,0.2
		c0.4-0.5-0.3-0.9,0.3-1.1c-0.4-0.9-1.3-1.3-1.8-2.1c0.3-0.2,0.6-0.1,0.9,0.1l-0.3-0.6c0.5-0.2,0.4,0.2,0.6,0.4
		c0.6-0.9-1.2-1.1-0.7-2.1h-0.2c0,0,0,0,0-0.1v0.1l-0.2-0.1l0.1-0.1c-0.2,0.1-0.6,0-0.6-0.2c0.4-0.2,1-0.3,0.8-0.6
		c0.3-0.4-0.5-0.8-0.8-1.1c0,0.2-0.2,0.2-0.5,0.2c-0.1-0.2,0.3-0.4,0.1-0.6l0.4-0.1c-0.3,0-0.6-0.4-0.8-0.4c0.4-0.2,0.5,0.2,0.8,0.2
		c-0.3-0.8-0.2-0.4-0.4-1.1c-0.6-0.3-0.5,0.2-1,0.2c-0.2-0.3-0.7-0.6-0.5-1.1l-0.5,0.3c-0.6-0.6-0.6-1-0.3-1.6
		c-5.6-3.9-5.9,0.6-5.9,0.6c-0.5,2.6,1.3,3.2,2.5,5.5c0.4,2.1-0.5,3,0.6,5.1c0.2,1,0.8,2.1,1.2,3.1c0.9,0.2,0.4,1.3,1.2,1.7
		l-0.4,0.3c0.2,0.2,0.5,0.3,0.3,0.6h-0.2c0.4,0.2,0.3,0.6,0.6,0.7h-0.2l0.2,0.3h-0.2c0.5,0.4,0.7,1,0.6,1.4l0.5-0.2
		c-0.3,1.2,0.9,1.2,0.5,2.3h-0.2c1.7,0.7-0.4,2.1,1.3,2.9c-0.2-0.1-0.2,0.2-0.4,0.2c0.3,0.5,0.6,1,1.6,0.7c0.1,0.3-0.2,0.4-0.4,0.5
		c-0.2-0.2-0.3-0.2-0.5,0.4c0.2-0.2,0.4,1,0,0.9l-0.1-0.5c-0.2,0.2-0.2,0.3-0.3,0.3c0.1-0.2-0.2-0.6-0.4-0.5v-0.6l-0.2,1
		c-0.6-0.3-1,0.4-1.3-0.2c0,0-1-0.1-1,0.7c0.1-0.5-0.5-0.5-0.5-1c-0.1,0.6-0.6,1.1-1,0.7v-0.1c-1.1-0.2-1.4,1.2-2.5,0.8
		c0.2,0.5-0.3,0.4,0,1c-0.7,1-2-0.9-1.7,1.3c-0.4,0.2-0.6-0.3-0.9-0.4l0.1-0.2c-0.7,0.4-1,0.5-1.5,0.6c-0.2,0.3,0,1.3-0.6,1.2
		c0.1-0.4-0.2-0.3-0.3-0.2c0.1-0.1,0.1-0.2-0.2-0.4c0,0.2,0,0.2-0.1,0.3v-0.1c-0.2,0.2-0.2,0.3,0,0.3c0,0.1,0.1,0.2,0.2,0.2
		c-0.5-0.4-0.9,0.3-1.1-0.3c-0.9,0.4-1.3,1.3-2.1,1.8c-0.2-0.3-0.1-0.6,0.1-0.9l-0.6,0.3c-0.2-0.5,0.2-0.4,0.4-0.6
		c-0.9-0.6-1.1,1.2-2.1,0.7v0.1c0,0,0,0-0.1,0h0.1l-0.1,0.3l-0.1-0.1c0.1,0.2,0,0.6-0.2,0.6c-0.2-0.4-0.3-1-0.6-0.8
		c-0.4-0.3-0.8,0.5-1.1,0.8c0.2,0,0.2,0.2,0.2,0.5c-0.2,0.1-0.4-0.3-0.6-0.1l-0.1-0.4c0,0.3-0.4,0.6-0.4,0.8
		c-0.2-0.4,0.2-0.5,0.2-0.8c-0.8,0.3-0.4,0.2-1.1,0.4c-0.3,0.6,0.2,0.5,0.2,1c-0.3,0.2-0.6,0.7-1.1,0.5l0.3,0.5
		c-0.6,0.6-1,0.6-1.6,0.3c-3.9,5.6,0.6,5.9,0.6,5.9c2.6,0.4,3.2-1.3,5.5-2.5c2.1-0.4,3,0.5,5.1-0.6c1-0.2,2.1-0.8,3.1-1.2
		c0.2-0.9,1.3-0.4,1.7-1.2l0.3,0.4c0.2-0.2,0.3-0.5,0.6-0.3v0.2c0.2-0.4,0.6-0.3,0.7-0.6v0.2l0.3-0.2v0.2c0.4-0.5,1-0.7,1.4-0.6
		l-0.2-0.5c1.2,0.3,1.2-0.9,2.3-0.5V77c0.7-1.7,2.1,0.4,2.9-1.3c-0.1,0.2,0.2,0.2,0.2,0.4c0.5-0.3,1-0.6,0.7-1.6
		c0.4-0.1,0.4,0.2,0.6,0.6c-0.2-0.4,0.1-0.6,0.3-0.8c0,0,0,0.1,0.1,0.1v0.1l0,0c0.8,1.4,1.4,2.8,1.2,4.4l-0.5,0.2
		c-0.8,0.2,1.3,0.3,0.6,0.6l0.4,0.2c-0.1,0.2-0.2,0.3-0.4,0.2c0.1,0.2,0.2,0.2,0.5,0.3l-0.4,0.4c-0.1,1.1,1.1,1.7,1.3,2.9
		c-0.6,1.6,1,3.7,2,5c1.7,1.7-0.6,4.8,1.3,6.4c-0.1,0.1,0.2,0.2,0.3,0.2l0.4,1.9c0,0,2.4,9,6.7,0.3h0.2c0.1-1.1,0-1.8-1-2.2
		c1-0.4-0.2-0.9,0.2-1.2h0.1c-1-0.4,0.3-1.4-0.6-1.8c0.1,0,0.4-0.1,0.4,0.1c-0.2-0.4-0.6-1-0.1-1.1c-0.5-1-0.6-2.5-1.7-2.9h0.2
		c-0.8-0.2-0.2-0.5-0.7-0.8c0.1-0.1,0.1-0.1,0.2-0.1c-0.8-0.2-0.5-1.2-0.8-1.4l0.4-0.2l-0.3-0.8v0.3c-1.1,0.2,0.5-0.8-0.4-1.2
		c0-0.6-2.6-0.5-2.2-1.2c-0.6-0.2,0.9,0,0.4-0.3c0.6-0.2,0.4,0.1,0.9-0.2c-0.4-0.3,0.4-0.9-0.2-1.2l0.5-0.2c-1-0.4,0.2-1.4-0.7-1.6
		c-0.6-0.6,1.2-0.9,0.1-1.3l0.6-0.5c0-0.3-0.8,0-0.6-0.4c0.4-0.1,0.2-0.5,0.6-0.4c0.4-1-1.3-1.3-0.6-2.5c-0.8,0-0.5-0.6-1.1-0.6
		c0.3-0.2-0.2-1,0.6-0.6c0.1,0,0.1,0.1-0.1,0.2l0.5-0.1c0.3-0.5,0.1-0.6-0.2-0.9c1-0.5,2.1-0.8,3.2-0.6l0.2,0.5
		c0.2,0.8,0.3-1.3,0.6-0.6l0.2-0.4c0.2,0.1,0.3,0.2,0.2,0.4c0.2-0.1,0.2-0.2,0.3-0.5l0.4,0.4c1.1,0.1,1.7-1.1,2.9-1.3
		c1.6,0.6,3.7-1,5-2c1.7-1.7,4.8,0.6,6.4-1.3c0.1,0.1,0.2-0.2,0.2-0.3l1.9-0.4C544.2,66.5,553.3,64.1,544.6,59.8z M520.3,65.9
		L520.3,65.9L520.3,65.9z M519.6,65.5C519.6,65.5,519.6,65.5,519.6,65.5C519.6,65.5,519.6,65.5,519.6,65.5
		C519.6,65.5,519.6,65.5,519.6,65.5z M513.7,67.8c-0.1,0.1-0.2,0-0.2-0.1C513.5,67.7,513.6,67.7,513.7,67.8z"/>
	<path class="st0" d="M282.1,605.7v-0.2c-1.2-0.2-1.8-0.1-2.3,1c-0.4-1-0.9,0.1-1.2-0.2v-0.1c-0.5,1-1.5-0.4-1.9,0.5
		c0-0.1-0.1-0.4,0.1-0.5c-0.5,0.3-1,0.6-1.2,0c-1,0.5-2.6,0.5-3,1.7v-0.2c-0.2,0.7-0.5,0.3-0.8,0.7c0-0.1-0.1-0.1-0.1-0.2
		c-0.3,0.7-1.2,0.5-1.5,0.8l-0.1-0.4l-0.8,0.3h0.4c0.2,1.2-0.8-0.5-1.3,0.4c-0.6,0-0.5,2.7-1.3,2.3c-0.2,0.6,0-0.9-0.3-0.4
		c-0.2-0.5,0.1-0.5-0.1-0.9c-0.4,0.4-0.8-0.5-1.3,0.1l-0.2-0.5c-0.5,1-1.5-0.3-1.6,0.6c-0.5,0.5-0.8-1.3-1.3-0.2l-0.5-0.5
		c-0.4,0,0,0.8-0.5,0.6c-0.1-0.4-0.5-0.2-0.5-0.6c-0.9-0.5-1.4,1.3-2.7,0.5c0,0.8-0.6,0.5-0.6,1.1c-0.1-0.4-1,0.2-0.6-0.6
		c0-0.1,0.1-0.1,0.2,0.1l-0.1-0.5c-0.5-0.4-0.6-0.2-0.9,0.2l-0.2-0.1c0.4-0.5-0.4-1,0.2-1.4c0,0,0.1-0.9-0.6-1
		c0.5,0.1,0.5-0.5,1.1-0.5c-0.5-0.1-1.1-0.6-0.6-1.1h0.1c0.3-1.1-1.2-1.5-0.7-2.6c-0.5,0.2-0.4-0.4-1-0.1c-0.9-0.7,0.9-2-1.3-1.8
		c-0.2-0.4,0.4-0.6,0.5-0.9l0.2,0.1c-0.4-0.7-0.5-0.9-0.5-1.6c-0.3-0.3-1.3,0-1.2-0.6c0.5,0.1,0.3-0.1,0.3-0.4
		c0.1,0.1,0.3,0.1,0.5-0.2c-0.1,0-0.2,0-0.3-0.1h0.1c-0.2-0.3-0.4-0.2-0.4,0c-0.1,0-0.1,0-0.3,0.1c0.5-0.5-0.3-0.9,0.4-1.2
		c-0.5-0.9-1.3-1.5-1.7-2.2c0.4-0.2,0.6-0.1,0.9,0.1l-0.3-0.5c0.5-0.1,0.4,0.3,0.5,0.4c0.6-0.9-1.2-1.2-0.6-2.2l-0.5-0.1l0.1-0.1
		c-0.1,0-0.1,0-0.2,0v-0.1l-0.1,0.1c-0.2,0-0.3-0.1-0.4-0.2c0.4-0.2,1-0.3,0.9-0.6c0.4-0.5-0.5-0.8-0.8-1.2c0,0.3-0.3,0.3-0.5,0.2
		c-0.1-0.2,0.4-0.5,0.1-0.5l0.5-0.2c-0.5,0.2-0.7-0.4-1-0.4c0.4-0.2,0.5,0.2,0.8,0.2c-0.3-0.8-0.1-0.4-0.4-1.2
		c-0.5-0.3-0.5,0.2-1.1,0.2c-0.2-0.4-0.7-0.6-0.5-1.1l-0.5,0.3c-0.5-0.6-0.6-1-0.3-1.6c-5.7-4.1-6.1,0.5-6.1,0.5
		c-0.9,2.5,0.8,3.1,1.9,5.5c0.3,2.2-0.5,3.1,0.5,5.2c0.2,1.1,0.7,2.2,1.1,3.2c0.9,0.3,0.4,1.4,1.2,1.8l-0.4,0.4
		c0.3,0.2,0.5,0.4,0.3,0.6h-0.1c0.5,0.2,0.3,0.6,0.5,0.7h-0.1l0.2,0.4h-0.2c0.5,0.5,0.6,1,0.6,1.5l0.5-0.2c-0.4,1.2,0.9,1.3,0.5,2.4
		h-0.1c1.7,0.8-0.5,2.1,1.2,2.9c-0.2-0.1-0.3,0.2-0.4,0.2c0.3,0.5,0.5,1.1,1.6,0.8c0.1,0.3-0.1,0.4-0.3,0.5
		c-0.2-0.2-0.4-0.6-0.6,0.3c0.3-0.2,0.4,1,0,0.9v-0.5c-0.2,0.2-0.2,0.4-0.4,0.3c0.1-0.3-0.1-0.6-0.4-0.5v-0.6l-0.3,1
		c-0.5-0.4-1,0.4-1.4-0.2c0,0-0.9-0.1-1,0.6c0.1-0.5-0.5-0.5-0.5-1.1c-0.1,0.5-0.6,1.1-1.1,0.6v-0.1c-1.1-0.3-1.5,1.2-2.6,0.7
		c0.2,0.5-0.4,0.4-0.1,1c-0.7,0.9-2-0.9-1.8,1.3c-0.4,0.2-0.6-0.4-0.9-0.5l0.1-0.2c-0.7,0.4-0.9,0.5-1.6,0.5c-0.3,0.3,0,1.3-0.6,1.2
		c0.1-0.5-0.1-0.3-0.4-0.3c0.1-0.1,0.1-0.3-0.2-0.5c0,0.1,0,0.2-0.1,0.3v-0.1c-0.3,0.2-0.2,0.4,0,0.4c0,0.1,0,0.1,0.1,0.3
		c-0.5-0.5-0.9,0.3-1.2-0.4c-0.9,0.5-1.5,1.3-2.2,1.7c-0.2-0.4-0.1-0.6,0.1-0.9l-0.5,0.3c-0.1-0.5,0.3-0.4,0.4-0.5
		c-0.9-0.6-1.2,1.2-2.2,0.6l-0.1,0.5l-0.1-0.1c0,0.1,0,0.2,0,0.2h-0.1l0.1,0.1c0,0.2-0.1,0.3-0.2,0.4c-0.2-0.4-0.3-1-0.6-0.9
		c-0.5-0.4-0.8,0.5-1.2,0.8c0.3,0,0.3,0.3,0.2,0.5c-0.2,0.1-0.5-0.4-0.5-0.1l-0.2-0.5c0.2,0.5-0.4,0.7-0.4,1
		c-0.2-0.4,0.2-0.5,0.2-0.8c-0.8,0.3-0.4,0.1-1.2,0.4c-0.3,0.5,0.2,0.5,0.2,1.1c-0.4,0.2-0.6,0.7-1.1,0.5l0.3,0.5
		c-0.6,0.5-1,0.6-1.6,0.3c-4.1,5.7,0.5,6.1,0.5,6.1c2.4,0.9,3.1-0.8,5.5-1.9c2.2-0.3,3.1,0.5,5.2-0.5c1.1-0.2,2.2-0.7,3.2-1.1
		c0.3-0.9,1.4-0.4,1.8-1.2l0.4,0.4c0.2-0.3,0.4-0.5,0.6-0.3v0.1c0.2-0.5,0.6-0.3,0.7-0.5v0.1l0.4-0.2v0.2c0.5-0.5,1-0.6,1.5-0.6
		l-0.2-0.5c1.2,0.4,1.3-0.9,2.4-0.5v0.1c0.8-1.7,2.1,0.5,2.9-1.2c-0.1,0.2,0.2,0.3,0.2,0.4c0.5-0.3,1.1-0.5,0.8-1.6
		c0.4-0.1,0.5,0.3,0.5,0.6c-0.1-0.4,0.1-0.6,0.3-0.7c0.8,1.7,1.9,3.4,1.5,5.3l-0.5,0.3c-0.8,0.3,1.4,0.4,0.6,0.6l0.5,0.2
		c-0.1,0.1-0.3,0.4-0.5,0.3c0,0.3,0.2,0.3,0.5,0.4l-0.5,0.5c-0.1,1.2,1.1,1.8,1.2,2.9c-0.6,1.6,0.9,3.8,1.8,5.2
		c1.7,1.7-0.8,4.9,1.1,6.7c-0.1,0.1,0.2,0.2,0.3,0.2l0.4,1.9c0,0,2.1,9.3,6.9,0.5h0.2c0.2-1.2,0.1-1.8-1-2.3c1-0.4-0.1-0.9,0.2-1.2
		h0.1c-1-0.5,0.4-1.5-0.5-1.9c0.1,0,0.4-0.1,0.5,0.1c-0.3-0.5-0.6-1,0-1.2c-0.5-1-0.5-2.6-1.7-3h0.2c-0.7-0.2-0.3-0.5-0.7-0.8
		c0.1,0,0.1-0.1,0.2-0.1c-0.7-0.3-0.5-1.2-0.8-1.5l0.4-0.1l-0.3-0.8v0.4c-1.2,0.2,0.5-0.8-0.4-1.3c0-0.6-2.7-0.5-2.3-1.3
		c-0.6-0.2,0.9,0,0.4-0.3c0.5-0.2,0.5,0.1,0.9-0.1c-0.4-0.4,0.5-0.8-0.1-1.3l0.5-0.2c-1-0.5,0.3-1.5-0.6-1.6
		c-0.5-0.5,1.3-0.8,0.2-1.3l0.5-0.5c0-0.4-0.8,0-0.6-0.5c0.4-0.1,0.2-0.5,0.6-0.5c0.5-0.9-1.3-1.4-0.5-2.7c-0.8,0-0.5-0.6-1.1-0.6
		c0.4-0.1-0.2-1,0.6-0.6c0.1,0,0.1,0.1-0.1,0.2l0.5-0.1c0.6-0.7-0.5-0.9-0.6-1.4c1.3-0.6,2.5-1.1,3.8-0.7l0.3,0.5
		c0.3,0.8,0.4-1.4,0.6-0.6l0.2-0.5c0.1,0.1,0.4,0.3,0.3,0.5c0.3,0,0.3-0.2,0.4-0.5l0.5,0.5c1.2,0.1,1.8-1.1,2.9-1.2
		c1.6,0.6,3.8-0.9,5.2-1.8c1.7-1.7,4.9,0.8,6.7-1.1c0.1,0.1,0.2-0.2,0.2-0.3l1.9-0.4C281.6,612.5,290.9,610.4,282.1,605.7z
		 M255.7,611.8h0.3H255.7L255.7,611.8z M255.9,611.6c-0.1-0.1-0.1-0.1-0.1-0.2C255.9,611.5,255.9,611.6,255.9,611.6z M258.2,618.3
		c0.1,0,0.2-0.1,0.2-0.1C258.4,618.3,258.3,618.3,258.2,618.3z"/>
	<path class="st0" d="M929.5,275.8v-0.2c-1-0.1-1.6-0.1-2,0.9c-0.3-0.9-0.8,0.1-1.1-0.1v-0.1c-0.4,0.9-1.3-0.3-1.6,0.5
		c0-0.1-0.1-0.3,0.1-0.4c-0.4,0.2-0.8,0.6-1,0c-0.9,0.4-2.2,0.5-2.6,1.5v-0.2c-0.2,0.7-0.4,0.2-0.7,0.6c0-0.1-0.1-0.1-0.1-0.1
		c-0.2,0.7-1,0.4-1.3,0.7l-0.1-0.4l-0.7,0.3h0.3c0.2,1-0.7-0.5-1.1,0.3c-0.5,0-0.5,2.3-1.1,2c-0.1,0.5,0-0.8-0.3-0.4
		c-0.1-0.5,0.1-0.4-0.1-0.7c-0.3,0.3-0.7-0.4-1.1,0.1l-0.1-0.4c-0.4,0.9-1.2-0.2-1.4,0.6c-0.5,0.5-0.7-1.1-1.1-0.1l-0.4-0.5
		c-0.3,0,0,0.7-0.4,0.5c-0.1-0.3-0.4-0.2-0.4-0.5c-0.8-0.4-1.2,1.1-2.3,0.4c0,0.7-0.6,0.4-0.6,1c0-0.1-0.2-0.1-0.3-0.1
		c0,0-0.1-0.1-0.3-0.2c0-0.1,0-0.2,0.1-0.3c0-0.1,0.1-0.1,0.1,0v-0.3l0,0l0,0v-0.1c-0.2-0.2-0.4-0.2-0.5-0.1l-0.3-0.1
		c0.3-0.5-0.3-0.9,0.2-1.2c0,0,0.1-0.8-0.6-0.8c0.4,0.1,0.4-0.4,0.9-0.4c-0.5-0.1-1-0.6-0.6-0.9h0.1c0.2-1-1-1.3-0.7-2.2
		c-0.5,0.2-0.3-0.3-0.9-0.1c-0.8-0.6,0.8-1.8-1.1-1.6c-0.2-0.3,0.3-0.5,0.4-0.8l0.1,0.1c-0.3-0.6-0.4-0.8-0.5-1.3
		c-0.2-0.2-1.1,0-1-0.5c0.4,0.1,0.3-0.1,0.2-0.3c0.1,0.1,0.2,0.1,0.4-0.2c-0.1,0-0.2,0-0.3-0.1c0,0,0,0,0.1,0
		c-0.2-0.2-0.3-0.2-0.3,0c-0.1,0-0.1,0-0.2,0.1c0.4-0.4-0.2-0.8,0.3-1c-0.4-0.8-1.1-1.2-1.5-1.9c0.3-0.2,0.6-0.1,0.8,0.1l-0.2-0.5
		c0.4-0.1,0.3,0.2,0.4,0.4c0.5-0.8-1-1-0.6-1.9h-0.1c0.1,0,0.1-0.1,0.1-0.2l-0.1,0.2l-0.3-0.1v-0.1c-0.2,0-0.5,0-0.5-0.1
		c0.3-0.2,0.9-0.2,0.8-0.6c0.3-0.4-0.4-0.7-0.7-1c0,0.2-0.2,0.2-0.4,0.2c-0.1-0.2,0.3-0.4,0.1-0.5l0.3-0.1c-0.3,0-0.4-0.3-0.7-0.3
		c0.3-0.2,0.4,0.2,0.7,0.1c-0.2-0.7-0.1-0.3-0.3-1c-0.5-0.3-0.5,0.2-0.9,0.1c-0.2-0.3-0.6-0.5-0.4-1l-0.4,0.2
		c-0.5-0.5-0.6-0.9-0.2-1.4c-4.8-3.6-5.2,0.4-5.2,0.4c-0.4,2.2,1.1,2.8,2,4.8c0.3,1.9-0.5,2.7,0.4,4.5c0.2,0.9,0.6,1.9,1,2.8
		c0.8,0.2,0.3,1.2,1,1.5l-0.3,0.3c0.2,0.1,0.4,0.3,0.3,0.5h-0.2c0.4,0.2,0.3,0.5,0.4,0.6h-0.1l0.1,0.3h-0.2c0.4,0.4,0.6,0.8,0.5,1.3
		l0.5-0.2c-0.3,1,0.8,1.1,0.4,2.1H900c1.5,0.7-0.4,1.8,1,2.5c-0.2-0.1-0.2,0.1-0.3,0.1c0.3,0.4,0.5,0.9,1.3,0.7v0.3
		c-0.1,0.1-0.3,0.2-0.6,0.2l0,0c-0.1,0-0.1,0.2-0.2,0.5c0.2-0.1,0.3,0.9,0,0.8v-0.4c-0.1,0.1-0.2,0.3-0.3,0.2c0-0.2-0.1-0.6-0.3-0.4
		v-0.5l-0.3,0.8c-0.5-0.3-0.9,0.3-1.2-0.2c0,0-0.8-0.1-0.8,0.6c0.1-0.4-0.4-0.4-0.4-0.9c-0.1,0.5-0.6,1-0.9,0.6V283
		c-1-0.2-1.3,1-2.2,0.7c0.2,0.5-0.3,0.3-0.1,0.9c-0.6,0.8-1.8-0.8-1.6,1.1c-0.3,0.2-0.5-0.3-0.8-0.4l0.1-0.1
		c-0.6,0.3-0.8,0.4-1.3,0.5c-0.2,0.2,0,1.1-0.5,1c0.1-0.4-0.1-0.3-0.3-0.2c0.1-0.1,0.1-0.2-0.2-0.4c0,0.1,0,0.2-0.1,0.3
		c0,0,0,0,0-0.1c-0.2,0.2-0.2,0.3,0,0.3c0,0.1,0,0.1,0.1,0.2c-0.4-0.4-0.8,0.2-1-0.3c-0.8,0.4-1.2,1.1-1.9,1.5
		c-0.2-0.3-0.1-0.6,0.1-0.8l-0.5,0.2c-0.1-0.4,0.2-0.3,0.4-0.4c-0.8-0.5-1,1-1.9,0.6l-0.1,0.4h-0.1c0,0.2,0,0.5-0.1,0.5
		c-0.2-0.3-0.2-0.9-0.6-0.8c-0.4-0.3-0.7,0.4-1,0.7c0.2,0,0.2,0.2,0.2,0.4c-0.2,0.1-0.4-0.3-0.5-0.1l-0.1-0.3c0,0.3-0.3,0.4-0.3,0.7
		c-0.2-0.3,0.2-0.4,0.1-0.7c-0.7,0.2-0.3,0.1-1,0.3c-0.3,0.5,0.2,0.5,0.1,0.9c-0.3,0.2-0.5,0.6-1,0.4l0.2,0.4
		c-0.5,0.5-0.9,0.6-1.4,0.2c-3.6,4.8,0.4,5.2,0.4,5.2c2.2,0.4,2.8-1.1,4.8-2c1.9-0.3,2.7,0.5,4.5-0.4c0.9-0.2,1.9-0.6,2.8-1
		c0.2-0.8,1.2-0.3,1.5-1l0.3,0.3c0.1-0.2,0.3-0.4,0.5-0.3v0.1c0.2-0.4,0.5-0.3,0.6-0.4v0.1l0.3-0.1v0.2c0.4-0.4,0.8-0.6,1.3-0.5
		l-0.2-0.5c1,0.3,1.1-0.8,2.1-0.4v0.1c0.7-1.5,1.8,0.4,2.5-1c-0.1,0.2,0.1,0.2,0.1,0.3c0.4-0.3,0.9-0.5,0.7-1.4
		c0.4-0.1,0.4,0.2,0.5,0.6c-0.1-0.4,0.2-0.6,0.4-0.7l-0.1,0.2l0.2-0.1c0.7,1.3,1.3,2.5,1,4l-0.4,0.2c-0.7,0.2,1.2,0.3,0.6,0.6
		l0.4,0.2c-0.1,0.1-0.2,0.3-0.4,0.2c0,0.2,0.1,0.2,0.4,0.3l-0.4,0.4c-0.1,1,0.9,1.6,1,2.6c-0.6,1.4,0.8,3.3,1.6,4.5
		c1.5,1.5-0.7,4.2,0.9,5.7c-0.1,0.1,0.2,0.2,0.3,0.2l0.3,1.7c0,0,1.8,8,5.9,0.5h0.2c0.1-1,0.1-1.6-0.9-2c0.9-0.3-0.1-0.8,0.1-1.1
		h0.1c-0.9-0.4,0.3-1.3-0.5-1.6c0.1,0,0.3-0.1,0.4,0.1c-0.2-0.4-0.6-0.8,0-1c-0.4-0.9-0.5-2.2-1.5-2.6h0.2c-0.7-0.2-0.2-0.4-0.6-0.7
		c0.1,0,0.1-0.1,0.1-0.1c-0.7-0.2-0.4-1-0.7-1.3l0.4-0.1l-0.3-0.7v0.3c-1,0.2,0.5-0.7-0.3-1.1c0-0.5-2.3-0.5-2-1.1
		c-0.5-0.1,0.8,0,0.4-0.3c0.5-0.1,0.4,0.1,0.7-0.1c-0.3-0.3,0.4-0.7-0.1-1.1l0.4-0.1c-0.9-0.4,0.2-1.2-0.6-1.4
		c-0.5-0.5,1.1-0.7,0.1-1.1l0.5-0.4c0-0.3-0.7,0-0.5-0.4c0.3-0.1,0.2-0.4,0.5-0.4c0.4-0.8-1.1-1.2-0.4-2.3c-0.7,0-0.4-0.6-1-0.6
		c0.3-0.1-0.2-0.9,0.6-0.6c0.1,0,0.1,0.1,0,0.1h0.4c0.4-0.4,0-0.7-0.3-0.9c0.9-0.4,1.8-0.6,2.8-0.4l0.2,0.4c0.2,0.7,0.3-1.2,0.6-0.6
		l0.2-0.4c0.1,0.1,0.3,0.2,0.2,0.4c0.2,0,0.2-0.1,0.3-0.4l0.4,0.4c1,0.1,1.6-0.9,2.6-1c1.4,0.6,3.3-0.8,4.5-1.6
		c1.5-1.5,4.2,0.7,5.7-0.9c0.1,0.1,0.2-0.2,0.2-0.3l1.7-0.3C929,281.7,937,279.9,929.5,275.8z M906.8,281c-0.1,0-0.1-0.1-0.1-0.1
		C906.8,280.9,906.8,280.9,906.8,281z M902,282.2c-0.2,0.3-0.3-0.1-0.5-0.2C901.8,282,901.9,282,902,282.2z"/>
	<path class="st0" d="M439.7,251.2c-0.1,0-0.2-0.3-0.3-0.4l-0.3-0.5c-0.2-0.4-0.4-0.7-0.6-1.1c-0.5-0.1-1.1-0.1-1.5-0.3l-1.3-0.3
		l-2.6-0.7l-2.6-0.6l-0.3-0.1h-0.1l-0.2-0.1l-0.3-0.1l-0.6-0.2c-0.8-0.3-1.7-0.6-2.5-1s-1.6-0.8-2.4-1.2c-3.1-1.8-5.8-4-7.8-6.6
		v-0.5c0.3-0.5-2.2-1.3-2-1.9c-0.3-0.2-0.6-0.4-0.8-0.6c-0.1-0.3-0.4-0.8,0-0.5c-0.5-0.8-0.6-0.7-1.2-1.2l-0.3-1
		c-0.8-1.7-1.8-3-2.6-4.6c-0.4-0.8-0.9-1.5-1.2-2.4c-0.3-0.8-0.7-1.7-0.9-2.6c-0.3-2.6-1-6.3-1.2-10.1h-5.2c0,0.8,0,1.5,0,2.3
		c0,0.7,0,1.5,0,2.2c-0.1,1.4-0.1,2.7-0.4,3.9c-0.3,3.6-2.2,7.2-4.5,10.4s-5,5.9-7.4,8.7c-0.2,0.1-0.6,0.6-0.6,0.7
		c-1.7,1.4-3.6,2.7-5.5,3.8c0,0-0.4,0.2-1.2,0.7c-0.4,0.2-0.8,0.5-1.3,0.7s-1.1,0.5-1.7,0.8c-2.4,1.2-5.5,2.2-8,3.1
		c-2.5,0.7-4.2,1.4-3.7,1.9c0.3,0.3,1.1,0.5,2.7,0.7c0.4,0,0.9,0.1,1.4,0.1s1.1,0,1.7-0.1c0.6,0,1.3-0.1,2-0.1
		c0.7-0.1,1.5-0.2,2.4-0.4l-0.1,0.2c2-0.5,3.5-1.2,4.9-1.8c1.4-0.7,2.5-1.5,3.5-2.4c0.8,0.4,2.9-1.8,3.7-2.2v0.1
		c0.8-1,1.9-1.7,2.9-2.5s2-1.6,2.7-2.6c0,0.1,0.1,0.3-0.3,0.7c1.2-1.4,2.6-3.3,3-3.1c0.6-0.9,1.3-1.8,2-2.8s1.2-2.1,1.8-3.1
		s0.9-2.1,1.3-3c0.2-0.5,0.3-0.9,0.4-1.3c0.1-0.4,0.1-0.8,0.2-1.2l0.1,0.2c0-0.8,0.2-1.3,0.4-1.8c0.1-0.2,0.2-0.5,0.3-0.7
		c0.1,0.6,0.3,1.3,0.7,1.9l-0.3,0.2c0.7,1.2,1.2,2.3,1.5,3.4c0.2,0.5,0.4,1.1,0.6,1.5c0.3,0.4,0.5,0.8,0.9,1.1
		c0.8,1.1,0.8,1.6,0.9,2.1s0.3,1,1.4,1.9l0.3,1.2c0.7,1,1,0.3,1.7,1.5c-0.3,0.1,1,1.4,0.2,1c0.4,0.7,1,1.2,1.6,1.8
		c0.6,0.5,1.2,1.1,1.9,1.6c0.7,0.5,1.4,1,2.1,1.6c0.4,0.3,0.7,0.6,1.1,0.9c0.4,0.3,0.7,0.6,1.1,1c0.5,0,1.2,0.4,1.8,0.7
		c0.6,0.4,1.2,0.6,1.6,0.6c0,0.3,3.5,2,1.3,1.3c-0.2-0.1-0.5-0.2-0.4-0.3l-0.4,0.1c0.4,0.4,0.9,0.7,1.4,1c0.5,0.2,1,0.4,1.5,0.5
		s1,0.3,1.5,0.4l0.2,0.1h0.1l0,0c0,0,0.1,0,0,0c0.1,0,0.1,0,0.2,0c-0.1-0.1-0.3-0.2,0-0.3l0.5,0.2c-0.1,0-0.2,0.1-0.4,0.2
		c0.1,0.1,0.2,0.2,0.3,0.3l0.3-0.1l0.2-0.1c0,0.1-0.2,0.2-0.4,0.2c-0.1,0.1-0.1,0.1,0.6,0c0.4,0,0.6-0.1,0.8-0.1s0.3-0.1,0.7,0
		c0,0.1,0,0.2-0.2,0.2c-0.5,0.1-1.1,0.1-1.6,0.2c1,0,0.8,0.1,0.8,0.2l-0.7-0.1c0.2,0.1,0,0.1-0.3,0.1c-0.4,0-1-0.2-0.8-0.1
		c-0.1,0-0.2-0.1-0.3-0.1c0.3,0.1,0.5,0.3,0.7,0.4c0.1,0.3-0.2,0.3-0.4,0.2c0,0-0.1,0-0.1-0.1c-0.3,0.1-0.7,0.4-1.2,0.9
		c1-0.5,0.8,0.4-0.5,0.9l0.2-0.4c-0.6,0.4-0.8,0.6-1.3,0.8c0.3-0.3,0-0.5-0.9,0.1l0.5-0.7l-1.5,1.5c-1.6,0.4-3.4,2.3-4.2,2.3
		c0,0-0.8,0.4-1.5,1c-0.8,0.6-1.6,1.3-1.7,1.7c0.2-0.3-0.1-0.2-0.5-0.1c-0.3,0.1-0.6,0.3-0.6,0c-0.2,0.4-0.8,1.2-1.4,1.8
		c-0.3,0.3-0.6,0.7-1,0.9c-0.3,0.3-0.6,0.5-0.8,0.7l0.1-0.2c-0.7,0.7-1.4,1.3-1.9,2s-1,1.4-1.4,2.1c-1,1.4-1.6,2.8-2.8,4.2
		c0.4,0-0.6,1.6,0,1.4c-0.3,0.9-0.7,1.7-1.1,2.4c-0.4,0.7-0.7,1.4-1,2c-0.1,0.2-0.2,0.4-0.3,0.6c-0.6-1.3-1.3-2.5-2-3.8
		c0.1-0.4,0.6,0.1,1.1,0.9l-1.1-2c0.3-0.1,0.7,1.1,1.1,1.7c-0.2-0.7-0.4-1.3-0.7-1.9c-0.2-0.3-0.3-0.6-0.5-0.9s-0.4-0.6-0.6-0.9
		c-0.4-0.6-0.9-1.2-1.3-1.8c-0.4-0.6-0.9-1.2-1.2-2l-0.6-0.4l-0.1-0.2c0,0-0.1,0-0.2,0c0,0,0,0,0-0.1v0.1c-0.2-0.1-0.6-0.4-0.8-0.7
		c-0.1-0.5,0.6-0.4-0.5-1.6c-0.3-0.6-0.9-1.2-1.6-1.8c-0.7-0.5-1.5-1.1-2.2-1.6c0.6,0.6,0.3,0.6-0.1,0.4c-0.3-0.3-0.5-0.5-0.6-0.8
		c-0.2-0.2-0.4-0.4-0.6-0.6l0.2-0.4c0,0.5-1.8-0.9-2.2-1c-0.2-0.5,1.1,0.5,1.4,0.5c-2.5-1.9-1.2-1-3.8-2.7c-1.5-0.7,0,0.5-0.8,0.4
		c-1.3-0.7-2.6-1.1-4-2.1c0.1,0.2,0.2,0.4,0.3,0.6c-2.5-0.9-3.9-1.6-5.5-2.6c-0.6-0.1-1.2-0.2-1.7-0.4c-0.6-0.1-1.1-0.1-1.6-0.2
		c-1-0.1-1.8-0.2-2.6-0.2c-1.5,0-2.5,0.1-3.2,0.2c-1.4,0.3-1.3,0.7-0.7,1.1c0.6,0.5,1.8,0.9,2.8,1.3c0.5,0.2,1,0.4,1.3,0.5
		s0.6,0.2,0.6,0.2c3.4,1.3,5.8,2.4,8.6,3.5c2.6,1.9,5.5,3.1,8.9,5.8c0.7,0.7,1.3,1.3,1.8,1.9c0.6,0.6,1,1.2,1.4,1.7s0.8,1,1.2,1.6
		c0.3,0.5,0.6,1,1,1.5c1.3,2,2.4,4.1,4,7.6c0.3,0.9,0.7,1.7,0.9,2.6c0.2,0.9,0.5,1.8,0.7,2.7c0.3,1.8,0.7,3.7,0.8,5.5
		c0.2,0.4,0.3,1,0.3,1.6h5.9c0-1.7,0.2-3.7,0.2-5.2l0.4-0.7c0-0.4,0-0.7,0-1.1c0.1-0.4,0.2-0.7,0.4-1.1l0.1,0.1
		c0.1-1.1,0.4-2.2,0.5-2.7l0.1,0.1l0.4-1.2v0.2c0.3-1.8,1.2-3.5,2.1-4.9l-0.4-0.1c1.2-1.4,1.6-2.5,2.3-3.5c0.6-1,1.3-2,2.6-3v0.1
		c0.3-0.5,0.5-0.9,0.8-1.3s0.6-0.7,0.9-1c0.6-0.6,1.3-1.1,2-1.6c0.7-0.4,1.4-0.9,2.1-1.4c0.7-0.6,1.5-1.1,2.2-1.9
		c-0.4,0.4,0.3,0,0.3,0.1c0.8-0.6,1.7-1.1,2.3-1.6s1-0.9,0.8-1.3c1.3-0.7,1.2-0.3,1.5-0.2c-0.1-0.1,0.2-0.4,0.5-0.7
		c0.2-0.1,0.4-0.3,0.7-0.4c0.1-0.1,0.2-0.1,0.4-0.2l0.2-0.1l0,0c-0.1,0.1-0.2,0.1-0.3,0.2l0.4-0.2c0.3-0.1,0.4-0.2,0.6-0.3l1.3-0.5
		l2.5-1c-0.6,0-1.2,0-1.7-0.1c1.3-0.4,1.7-0.3,2.1-0.3c0.2,0,0.4,0,0.6,0c0.3-0.1,0.6-0.2,1.3-0.4l-1-0.2c0.3-0.1,0.5-0.1,0.8-0.2
		c0.8-0.5,1.6-0.9,2.3-1.4c0.7-0.2,1.2-0.5,1.6-0.8c0.1-0.1,0.2-0.2,0.2-0.3C440.3,251.7,440,251.4,439.7,251.2z"/>
	<path class="st0" d="M149.4,797.1c-0.1,0-0.1-0.2-0.2-0.3l-0.2-0.3c-0.1-0.3-0.3-0.5-0.4-0.8c-0.3-0.1-0.8-0.1-1-0.2l-0.9-0.2
		l-1.8-0.5l-1.8-0.4l-0.2-0.1h-0.1l-0.1-0.1l-0.2-0.1L142,794c-0.6-0.2-1.2-0.4-1.7-0.7c-0.6-0.3-1.1-0.6-1.7-0.8
		c-2.2-1.3-4-2.8-5.4-4.6v-0.3c0.2-0.3-1.5-0.9-1.4-1.3c-0.2-0.1-0.4-0.3-0.6-0.4c-0.1-0.2-0.3-0.6,0-0.3c-0.3-0.6-0.4-0.5-0.8-0.8
		l-0.2-0.7c-0.6-1.2-1.3-2.1-1.8-3.2c-0.3-0.6-0.6-1-0.8-1.7c-0.2-0.6-0.5-1.2-0.6-1.8c-0.2-1.8-0.7-4.4-0.8-7h-3.6c0,0.6,0,1,0,1.6
		c0,0.5,0,1,0,1.5c-0.1,1-0.1,1.9-0.3,2.7c-0.2,2.5-1.5,5-3.1,7.2c-1.6,2.2-3.5,4.1-5.2,6.1c-0.1,0.1-0.4,0.4-0.4,0.5
		c-1.2,1-2.5,1.9-3.8,2.6c0,0-0.3,0.1-0.8,0.5c-0.3,0.1-0.6,0.3-0.9,0.5c-0.3,0.1-0.8,0.3-1.2,0.6c-1.7,0.8-3.8,1.5-5.6,2.2
		c-1.7,0.5-2.9,1-2.6,1.3c0.2,0.2,0.8,0.3,1.9,0.5c0.3,0,0.6,0.1,1,0.1s0.8,0,1.2-0.1c0.4,0,0.9-0.1,1.4-0.1c0.5-0.1,1-0.1,1.7-0.3
		l-0.1,0.1c1.4-0.3,2.4-0.8,3.4-1.3c1-0.5,1.7-1,2.4-1.7c0.6,0.3,2-1.3,2.6-1.5v0.1c0.6-0.7,1.3-1.2,2-1.7c0.7-0.6,1.4-1.1,1.9-1.8
		c0,0.1,0.1,0.2-0.2,0.5c0.8-1,1.8-2.3,2.1-2.2c0.4-0.6,0.9-1.3,1.4-2c0.5-0.7,0.8-1.5,1.3-2.2s0.6-1.5,0.9-2.1
		c0.1-0.3,0.2-0.6,0.3-0.9c0.1-0.3,0.1-0.6,0.1-0.8l0.1,0.1c0-0.6,0.1-0.9,0.3-1.3c0.1-0.1,0.1-0.3,0.2-0.5c0.1,0.4,0.2,0.9,0.5,1.3
		l-0.2,0.1c0.5,0.8,0.8,1.6,1,2.4c0.1,0.3,0.3,0.8,0.4,1c0.2,0.3,0.3,0.6,0.6,0.8c0.6,0.8,0.6,1.1,0.6,1.5c0.1,0.3,0.2,0.7,1,1.3
		l0.2,0.8c0.5,0.7,0.7,0.2,1.2,1c-0.2,0.1,0.7,1,0.1,0.7c0.3,0.5,0.7,0.8,1.1,1.3c0.4,0.3,0.8,0.8,1.3,1.1s1,0.7,1.5,1.1
		c0.3,0.2,0.5,0.4,0.8,0.6c0.3,0.2,0.5,0.4,0.8,0.7c0.3,0,0.8,0.3,1.3,0.5c0.4,0.3,0.8,0.4,1.1,0.4c0,0.2,2.4,1.4,0.9,0.9
		c-0.1-0.1-0.3-0.1-0.3-0.2l-0.3,0.1c0.3,0.3,0.6,0.5,1,0.7c0.3,0.1,0.7,0.3,1,0.3c0.3,0.1,0.7,0.2,1,0.3l0.1,0.1h0.1l0,0
		c0,0,0.1,0,0,0c0.1,0,0.1,0,0.1,0c-0.1-0.1-0.2-0.1,0-0.2l0.3,0.1c-0.1,0-0.1,0.1-0.3,0.1c0.1,0.1,0.1,0.1,0.2,0.2l0.2-0.1l0.1-0.1
		c0,0.1-0.1,0.1-0.3,0.1c-0.1,0.1-0.1,0.1,0.4,0c0.3,0,0.4-0.1,0.6-0.1s0.2-0.1,0.5,0c0,0.1,0,0.1-0.1,0.1c-0.3,0.1-0.8,0.1-1.1,0.1
		c0.7,0,0.6,0.1,0.6,0.1l-0.5-0.1c0.1,0.1,0,0.1-0.2,0.1c-0.3,0-0.7-0.1-0.6-0.1c-0.1,0-0.1-0.1-0.2-0.1c0.2,0.1,0.3,0.2,0.5,0.3
		c0.1,0.2-0.1,0.2-0.3,0.1c0,0-0.1,0-0.1-0.1c-0.2,0.1-0.5,0.3-0.8,0.6c0.7-0.3,0.6,0.3-0.3,0.6l0.1-0.3c-0.4,0.3-0.6,0.4-0.9,0.6
		c0.2-0.2,0-0.3-0.6,0.1l0.3-0.5l-1,1c-1.1,0.3-2.4,1.6-2.9,1.6c0,0-0.6,0.3-1,0.7c-0.6,0.4-1.1,0.9-1.2,1.2
		c0.1-0.2-0.1-0.1-0.3-0.1c-0.2,0.1-0.4,0.2-0.4,0c-0.1,0.3-0.6,0.8-1,1.3c-0.2,0.2-0.4,0.5-0.7,0.6c-0.2,0.2-0.4,0.3-0.6,0.5
		l0.1-0.1c-0.5,0.5-1,0.9-1.3,1.4s-0.7,1-1,1.5c-0.7,1-1.1,2-2,2.9c0.3,0-0.4,1.1,0,1c-0.2,0.6-0.5,1.2-0.8,1.7
		c-0.3,0.5-0.5,1-0.7,1.4c-0.1,0.1-0.1,0.3-0.2,0.4c-0.4-0.9-0.9-1.7-1.4-2.6c0.1-0.3,0.4,0.1,0.8,0.6l-0.8-1.4
		c0.2-0.1,0.5,0.8,0.8,1.2c-0.1-0.5-0.3-0.9-0.5-1.3c-0.1-0.2-0.2-0.4-0.3-0.6c-0.1-0.2-0.3-0.4-0.4-0.6c-0.3-0.4-0.6-0.8-0.9-1.3
		c-0.3-0.4-0.6-0.8-0.8-1.4l-0.4-0.3l-0.1-0.1c0,0-0.1,0-0.1,0c0,0,0,0,0-0.1v0.1c-0.1-0.1-0.4-0.3-0.6-0.5
		c-0.1-0.3,0.4-0.3-0.3-1.1c-0.2-0.4-0.6-0.8-1.1-1.3c-0.5-0.3-1-0.8-1.5-1.1c0.4,0.4,0.2,0.4-0.1,0.3c-0.2-0.2-0.3-0.3-0.4-0.6
		c-0.1-0.1-0.3-0.3-0.4-0.4l0.1-0.3c0,0.3-1.3-0.6-1.5-0.7c-0.1-0.3,0.8,0.3,1,0.3c-1.7-1.3-0.8-0.7-2.6-1.9c-1-0.5,0,0.3-0.6,0.3
		c-0.9-0.5-1.8-0.8-2.8-1.5c0.1,0.1,0.1,0.3,0.2,0.4c-1.7-0.6-2.7-1.1-3.8-1.8c-0.4-0.1-0.8-0.1-1.2-0.3c-0.4-0.1-0.8-0.1-1.1-0.1
		c-0.7-0.1-1.3-0.1-1.8-0.1c-1,0-1.7,0.1-2.2,0.1c-1,0.2-0.9,0.5-0.5,0.8c0.4,0.3,1.3,0.6,2,0.9c0.3,0.1,0.7,0.3,0.9,0.3
		c0.2,0.1,0.4,0.1,0.4,0.1c2.4,0.9,4,1.7,6,2.4c1.8,1.3,3.8,2.2,6.2,4c0.5,0.5,0.9,0.9,1.3,1.3c0.4,0.4,0.7,0.8,1,1.2
		s0.6,0.7,0.8,1.1c0.2,0.3,0.4,0.7,0.7,1c0.9,1.4,1.7,2.9,2.8,5.3c0.2,0.6,0.5,1.2,0.6,1.8c0.1,0.6,0.3,1.3,0.5,1.9
		c0.2,1.3,0.5,2.6,0.6,3.8c0.1,0.3,0.2,0.7,0.2,1.1h4.1c0-1.2,0.1-2.6,0.1-3.6l0.3-0.5c0-0.3,0-0.5,0-0.8c0.1-0.3,0.1-0.5,0.3-0.8
		l0.1,0.1c0.1-0.8,0.3-1.5,0.3-1.9l0.1,0.1l0.3-0.8v0.1c0.2-1.3,0.8-2.4,1.5-3.4l-0.3-0.1c0.8-1,1.1-1.7,1.6-2.4
		c0.4-0.7,0.9-1.4,1.8-2.1v0.1c0.2-0.3,0.3-0.6,0.6-0.9c0.2-0.3,0.4-0.5,0.6-0.7c0.4-0.4,0.9-0.8,1.4-1.1c0.5-0.3,1-0.6,1.5-1
		c0.5-0.4,1-0.8,1.5-1.3c-0.3,0.3,0.2,0,0.2,0.1c0.6-0.4,1.2-0.8,1.6-1.1c0.4-0.3,0.7-0.6,0.6-0.9c0.9-0.5,0.8-0.2,1-0.1
		c-0.1-0.1,0.1-0.3,0.3-0.5c0.1-0.1,0.3-0.2,0.5-0.3c0.1-0.1,0.1-0.1,0.3-0.1l0.1-0.1l0,0c-0.1,0.1-0.1,0.1-0.2,0.1l0.3-0.1
		c0.2-0.1,0.3-0.1,0.4-0.2l0.9-0.3l1.7-0.7c-0.4,0-0.8,0-1.2-0.1c0.9-0.3,1.2-0.2,1.5-0.2c0.1,0,0.3,0,0.4,0
		c0.2-0.1,0.4-0.1,0.9-0.3l-0.7-0.1c0.2-0.1,0.3-0.1,0.6-0.1c0.6-0.3,1.1-0.6,1.6-1c0.5-0.1,0.8-0.3,1.1-0.6
		c0.1-0.1,0.1-0.1,0.1-0.2C149.8,797.4,149.6,797.2,149.4,797.1z"/>
	<path class="st0" d="M262.1,104.8c-0.1,0-0.1-0.2-0.2-0.3l-0.2-0.3c-0.1-0.3-0.3-0.5-0.4-0.7c-0.3-0.1-0.7-0.1-1-0.2l-0.9-0.2
		l-1.7-0.5l-1.7-0.4l-0.2-0.1h-0.1l-0.1-0.1l-0.1,0l-0.4-0.1c-0.5-0.2-1.1-0.4-1.6-0.7c-0.5-0.3-1-0.5-1.6-0.8
		c-2-1.2-3.8-2.6-5.1-4.3v-0.3c0.2-0.3-1.4-0.9-1.3-1.2c-0.2-0.1-0.4-0.3-0.5-0.4c-0.1-0.2-0.3-0.5,0-0.3c-0.3-0.5-0.4-0.5-0.8-0.8
		l-0.2-0.7c-0.5-1.1-1.2-2-1.7-3c-0.3-0.5-0.6-1-0.8-1.6c-0.2-0.5-0.5-1.1-0.6-1.7c-0.2-1.7-0.7-4.1-0.8-6.6h-3.4c0,0.5,0,1,0,1.5
		s0,1,0,1.4c-0.1,0.9-0.1,1.8-0.3,2.6c-0.2,2.4-1.4,4.7-2.9,6.8c-1.5,2.1-3.3,3.9-4.8,5.7c-0.1,0.1-0.4,0.4-0.4,0.5
		c-1.1,0.9-2.4,1.8-3.6,2.5c0,0-0.3,0.1-0.8,0.5c-0.3,0.1-0.5,0.3-0.9,0.5s-0.7,0.3-1.1,0.5c-1.6,0.8-3.6,1.4-5.2,2
		c-1.6,0.5-2.7,0.9-2.4,1.2c0.2,0.2,0.7,0.3,1.8,0.5c0.3,0,0.6,0.1,0.9,0.1c0.3,0,0.7,0,1.1-0.1c0.4,0,0.9-0.1,1.3-0.1
		c0.5-0.1,1-0.1,1.6-0.3l-0.1,0.1c1.3-0.3,2.3-0.8,3.2-1.2c0.9-0.5,1.6-1,2.3-1.6c0.5,0.3,1.9-1.2,2.4-1.4v0.1
		c0.5-0.7,1.2-1.1,1.9-1.6s1.3-1,1.8-1.7c0,0.1,0.1,0.2-0.2,0.5c0.8-0.9,1.7-2.2,2-2c0.4-0.6,0.9-1.2,1.3-1.8c0.5-0.7,0.8-1.4,1.2-2
		c0.4-0.7,0.6-1.4,0.9-2c0.1-0.3,0.2-0.6,0.3-0.9s0.1-0.5,0.1-0.8l0.1,0.1c0-0.5,0.1-0.9,0.3-1.2c0.1-0.2,0.1-0.3,0.2-0.5
		c0.1,0.4,0.2,0.8,0.5,1.3l-0.2,0.1c0.5,0.8,0.8,1.5,1,2.2c0.1,0.3,0.3,0.7,0.4,1c0.2,0.3,0.3,0.5,0.6,0.7c0.5,0.7,0.5,1,0.6,1.4
		s0.2,0.7,0.9,1.2l0.2,0.8c0.5,0.7,0.7,0.2,1.1,1c-0.2,0.1,0.7,0.9,0.1,0.7c0.3,0.5,0.7,0.8,1,1.2c0.4,0.3,0.8,0.7,1.2,1
		c0.5,0.3,0.9,0.7,1.4,1c0.3,0.2,0.5,0.4,0.7,0.6c0.3,0.2,0.5,0.4,0.7,0.7c0.3,0,0.8,0.3,1.2,0.5c0.4,0.3,0.8,0.4,1,0.4
		c0,0.2,2.3,1.3,0.9,0.9c-0.1-0.1-0.3-0.1-0.3-0.2l-0.3,0.1c0.3,0.3,0.6,0.5,0.9,0.7c0.3,0.1,0.7,0.3,1,0.3c0.3,0.1,0.7,0.2,1,0.3
		l0.1,0.1l0,0l0,0l0,0h0.1c-0.1-0.1-0.2-0.1,0-0.2l0.3,0.1c-0.1,0-0.1,0.1-0.3,0.1c0.1,0.1,0.1,0.1,0.2,0.2l0.2-0.1l0.1-0.1
		c0,0.1-0.1,0.1-0.3,0.1c-0.1,0.1-0.1,0.1,0.4,0c0.3,0,0.4-0.1,0.5-0.1s0.2-0.1,0.5,0c0,0.1,0,0.1-0.1,0.1c-0.3,0.1-0.7,0.1-1,0.1
		c0.7,0,0.5,0.1,0.5,0.1l-0.5-0.1c0.1,0.1,0,0.1-0.2,0.1c-0.3,0-0.7-0.1-0.5-0.1c-0.1,0-0.1-0.1-0.2-0.1c0.2,0.1,0.3,0.2,0.5,0.3
		c0.1,0.2-0.1,0.2-0.3,0.1c0,0-0.1,0-0.1-0.1c-0.2,0.1-0.5,0.3-0.8,0.6c0.7-0.3,0.5,0.3-0.3,0.6l0.1-0.3c-0.4,0.3-0.5,0.4-0.9,0.5
		c0.2-0.2,0-0.3-0.6,0.1l0.3-0.5l-1,1c-1,0.3-2.2,1.5-2.7,1.5c0,0-0.5,0.3-1,0.7s-1,0.9-1.1,1.1c0.1-0.2-0.1-0.1-0.3-0.1
		c-0.2,0.1-0.4,0.2-0.4,0c-0.1,0.3-0.5,0.8-0.9,1.2c-0.2,0.2-0.4,0.5-0.7,0.6c-0.2,0.2-0.4,0.3-0.5,0.5l0.1-0.1
		c-0.5,0.5-0.9,0.9-1.2,1.3s-0.7,0.9-0.9,1.4c-0.7,0.9-1,1.8-1.8,2.7c0.3,0-0.4,1,0,0.9c-0.2,0.6-0.5,1.1-0.7,1.6
		c-0.3,0.5-0.5,0.9-0.7,1.3c-0.1,0.1-0.1,0.3-0.2,0.4c-0.4-0.9-0.8-1.7-1.3-2.5c0.1-0.3,0.4,0.1,0.7,0.6l-0.7-1.3
		c0.2-0.1,0.5,0.7,0.7,1.1c-0.1-0.5-0.3-0.9-0.5-1.2c-0.1-0.2-0.2-0.4-0.3-0.6c-0.1-0.2-0.3-0.4-0.4-0.6c-0.3-0.4-0.6-0.8-0.9-1.2
		c-0.3-0.4-0.6-0.8-0.8-1.3l-0.4-0.3l-0.1-0.1h-0.1l0,0l0,0c-0.1-0.1-0.4-0.3-0.5-0.4c-0.1-0.3,0.4-0.3-0.3-1
		c-0.2-0.4-0.6-0.8-1-1.2c-0.5-0.3-1-0.7-1.4-1c0.4,0.4,0.2,0.4-0.1,0.3c-0.2-0.2-0.3-0.3-0.4-0.5c-0.1-0.1-0.3-0.3-0.4-0.4l0.1-0.3
		c0,0.3-1.2-0.6-1.4-0.7c-0.1-0.3,0.7,0.3,0.9,0.3c-1.6-1.2-0.8-0.7-2.5-1.8c-1-0.5,0,0.3-0.5,0.3c-0.9-0.5-1.7-0.7-2.6-1.4
		c0.1,0.1,0.1,0.3,0.2,0.4c-1.6-0.6-2.6-1-3.6-1.7c-0.4-0.1-0.8-0.1-1.1-0.3c-0.4-0.1-0.7-0.1-1-0.1c-0.7-0.1-1.2-0.1-1.7-0.1
		c-1,0-1.6,0.1-2.1,0.1c-0.9,0.2-0.9,0.5-0.5,0.7c0.4,0.3,1.2,0.6,1.8,0.9c0.3,0.1,0.7,0.3,0.9,0.3c0.2,0.1,0.4,0.1,0.4,0.1
		c2.2,0.9,3.8,1.6,5.6,2.3c1.7,1.2,3.6,2,5.8,3.8c0.5,0.5,0.9,0.9,1.2,1.2c0.4,0.4,0.7,0.8,0.9,1.1c0.3,0.3,0.5,0.7,0.8,1
		c0.2,0.3,0.4,0.7,0.7,1c0.9,1.3,1.6,2.7,2.6,5c0.2,0.6,0.5,1.1,0.6,1.7c0.1,0.6,0.3,1.2,0.5,1.8c0.2,1.2,0.5,2.4,0.5,3.6
		c0.1,0.3,0.2,0.7,0.2,1h3.9c0-1.1,0.1-2.4,0.1-3.4l0.3-0.5c0-0.3,0-0.5,0-0.7c0.1-0.3,0.1-0.5,0.3-0.7l0.1,0.1
		c0.1-0.7,0.3-1.4,0.3-1.8l0.1,0.1l0.3-0.8v0.1c0.2-1.2,0.8-2.3,1.4-3.2l-0.3-0.1c0.8-0.9,1-1.6,1.5-2.3c0.4-0.7,0.9-1.3,1.7-2v0.1
		c0.2-0.3,0.3-0.6,0.5-0.9c0.2-0.3,0.4-0.5,0.6-0.7c0.4-0.4,0.9-0.7,1.3-1c0.5-0.3,0.9-0.6,1.4-0.9c0.5-0.4,1-0.7,1.4-1.2
		c-0.3,0.3,0.2,0,0.2,0.1c0.5-0.4,1.1-0.7,1.5-1s0.7-0.6,0.5-0.9c0.9-0.5,0.8-0.2,1-0.1c-0.1-0.1,0.1-0.3,0.3-0.5
		c0.1-0.1,0.3-0.2,0.5-0.3c0.1-0.1,0.1-0.1,0.3-0.1l0.1-0.1l0,0c-0.1,0.1-0.1,0.1-0.2,0.1l0.3-0.1c0.2-0.1,0.3-0.1,0.4-0.2l0.9-0.3
		l1.6-0.7c-0.4,0-0.8,0-1.1-0.1c0.9-0.3,1.1-0.2,1.4-0.2c0.1,0,0.3,0,0.4,0c0.2-0.1,0.4-0.1,0.9-0.3l-0.9,0.1
		c0.2-0.1,0.3-0.1,0.5-0.1c0.5-0.3,1-0.6,1.5-0.9c0.5-0.1,0.8-0.3,1-0.5c0.1-0.1,0.1-0.1,0.1-0.2
		C262.5,105.1,262.3,104.9,262.1,104.8z"/>
	<path class="st0" d="M932.6,717.2c-0.1,0-0.2-0.3-0.3-0.5l-0.3-0.6c-0.2-0.4-0.4-0.8-0.6-1.1l-0.8-0.1c-0.3-0.1-0.6-0.1-0.8-0.1
		l-1.4-0.4l-2.8-0.7l-2.8-0.7l-0.3-0.1l-0.1-0.1l-0.2-0.1l-0.4-0.1l-0.7-0.3l-1.3-0.6c-0.4-0.2-0.9-0.4-1.3-0.6
		c-0.8-0.4-1.7-0.9-2.5-1.3c-3.3-2-6.3-4.3-8.5-7.1v-0.6c0.4-0.6-2.4-1.3-2.2-2c-0.3-0.2-0.6-0.4-0.9-0.7c-0.1-0.4-0.4-0.9,0.1-0.6
		c-0.6-0.8-0.6-0.8-1.3-1.3l-0.4-1.1c-0.4-0.9-0.9-1.7-1.4-2.5l-0.4-0.6c-0.1-0.2-0.2-0.4-0.4-0.6l-0.7-1.2
		c-0.2-0.4-0.4-0.8-0.7-1.3c-0.2-0.4-0.4-0.8-0.6-1.3c-0.2-0.4-0.4-0.9-0.6-1.4c-0.1-0.5-0.4-0.9-0.5-1.5c-0.4-2.8-1.1-6.8-1.3-11
		h-5.7c0,0.8,0,1.6,0,2.5c0,0.8,0.1,1.6-0.1,2.3c-0.1,1.6-0.1,3-0.4,4.2c-0.1,1-0.3,2-0.6,3c-0.4,1-0.7,1.9-1.1,2.9
		c-0.9,1.8-1.9,3.7-3.2,5.4c-2.5,3.5-5.4,6.4-8.1,9.4c-0.2,0.1-0.6,0.6-0.6,0.7l-1.4,1.1c-0.5,0.4-0.9,0.8-1.5,1.1l-1.6,1
		c-0.5,0.4-1,0.7-1.6,0.9c0,0-0.5,0.3-1.3,0.7c-0.4,0.2-0.8,0.5-1.4,0.8c-0.6,0.3-1.2,0.6-1.8,0.8c-2.6,1.3-6,2.4-8.6,3.3
		c-2.7,0.8-4.5,1.5-4,2.1c0.3,0.3,1.2,0.6,3,0.8c0.4,0.1,0.9,0.1,1.5,0.1c0.6,0,1.1,0,1.8-0.1c0.7,0,1.4-0.1,2.2-0.1
		s1.6-0.3,2.6-0.4l-0.1,0.2c2.2-0.5,3.8-1.3,5.3-1.9c0.4-0.1,0.7-0.4,1.1-0.6c0.4-0.2,0.6-0.4,1-0.6c0.6-0.4,1.2-0.9,1.8-1.4
		c0.4,0.2,1.2-0.3,2-0.8c0.8-0.6,1.6-1.3,2-1.5l-0.1,0.1c0.8-1.1,2-1.8,3.2-2.7c1.1-0.8,2.2-1.7,2.9-2.8c0,0.1,0.1,0.3-0.1,0.6
		c0.6-0.7,1.1-1.5,1.8-2.1c0.6-0.7,1.1-1.1,1.3-1.1c0.6-0.9,1.4-2,2.1-3c0.7-1.1,1.3-2.3,2-3.4c0.4-0.6,0.6-1.1,0.8-1.7
		c0.2-0.6,0.4-1.1,0.6-1.6c0.2-0.5,0.4-1,0.5-1.5c0.1-0.5,0.1-0.9,0.2-1.3l0.1,0.2c0.1-0.8,0.2-1.4,0.4-1.9c0.1-0.3,0.2-0.5,0.3-0.8
		c0.1,0.7,0.4,1.4,0.8,2.3l-0.3,0.2c0.7,1.3,1.3,2.5,1.6,3.7c0.2,0.6,0.4,1.1,0.6,1.6c0.3,0.5,0.6,0.9,0.9,1.2
		c0.8,1.2,0.9,1.8,1,2.3c0.1,0.5,0.3,1.1,1.5,2.1l0.4,1.3c0.8,1.1,1.1,0.4,1.8,1.6c-0.3,0.1,1.1,1.6,0.3,1.1c0.2,0.4,0.5,0.7,0.8,1
		c0.3,0.3,0.6,0.6,0.9,0.9c0.6,0.6,1.3,1.1,2,1.7c0.8,0.6,1.5,1.1,2.3,1.7c0.4,0.3,0.8,0.6,1.1,1c0.4,0.4,0.8,0.7,1.2,1.1
		c0.6,0,1.3,0.4,1.9,0.8c0.6,0.4,1.3,0.7,1.7,0.7c0,0.3,3.8,2.2,1.4,1.5c-0.2-0.1-0.6-0.3-0.5-0.4l-0.4,0.1c0.5,0.4,1,0.8,1.5,1.1
		c0.6,0.2,1.1,0.4,1.6,0.6c0.6,0.1,1.1,0.3,1.7,0.5l0.2,0.1h0.1l0,0h0.1c0.1,0,0.1,0,0.2,0.1c-0.1-0.1-0.3-0.2-0.1-0.4l0.6,0.2
		c-0.1,0.1-0.3,0.1-0.4,0.1c0.1,0.1,0.3,0.2,0.4,0.3l0.3-0.1l0.2-0.1c0,0.1-0.3,0.2-0.4,0.3c-0.1,0.1-0.1,0.1,0.6,0
		c0.4,0,0.7-0.1,0.8-0.1c0.2-0.1,0.3-0.1,0.7-0.1c0.1,0.1,0,0.1-0.2,0.2c-0.6,0.1-1.2,0.1-1.8,0.2c1.1,0.1,0.8,0.1,0.8,0.1l-0.8-0.1
		c0.2,0.1-0.1,0.1-0.3,0.1c-0.2,0-0.5-0.1-0.7-0.1c-0.2,0-0.2-0.1-0.1,0.1c-0.1-0.1-0.2-0.1-0.3-0.1c0.3,0.1,0.6,0.3,0.8,0.5
		c0.1,0.1,0,0.2-0.1,0.3c-0.1,0-0.2,0-0.3-0.1c-0.1-0.1-0.1-0.1-0.2-0.1h-0.1c-0.1,0-0.1,0.1-0.1,0.1c-0.1,0.1-0.2,0.1-0.3,0.2
		c-0.2,0.1-0.4,0.4-0.8,0.6c1.1-0.6,0.8,0.4-0.5,1l0.2-0.5c-0.7,0.4-0.8,0.6-1.3,0.8c0.4-0.4,0-0.6-1,0.1l0.5-0.8
		c-0.6,0.6-1.1,1.1-1.7,1.6c-1.7,0.6-3.7,2.4-4.6,2.5c0,0-0.8,0.5-1.6,1.1c-0.8,0.6-1.7,1.4-1.8,1.9c0.4-0.7-1.3,0.5-1.1-0.1
		c-0.5,0.9-2.4,3.1-3.5,3.7l0.1-0.2c-1.6,1.4-2.7,3-3.7,4.4c-1,1.5-1.8,3-3,4.6c0.4,0-0.7,1.8,0,1.6c-0.4,0.9-0.7,1.8-1.1,2.5
		c-0.4,0.8-0.8,1.6-1.1,2.2c-0.1,0.2-0.2,0.5-0.3,0.7c-0.6-1.4-1.3-2.7-2.1-4c0.1-0.5,0.6,0.1,1.1,1.1l-1.1-2.2
		c0.4-0.1,0.8,1.2,1.2,1.8c-0.1-0.7-0.5-1.4-0.8-2.1c-0.1-0.4-0.4-0.7-0.6-1c-0.2-0.4-0.5-0.6-0.7-0.9c-0.5-0.6-1-1.3-1.4-2
		c-0.2-0.4-0.4-0.7-0.7-1.1c-0.2-0.4-0.4-0.7-0.6-1.1l-0.6-0.4l0,0l0,0c0.1,0,0-0.2-0.3-0.6l0.2,0.4c-0.1,0.1-0.7-0.4-1.1-0.7
		c-0.1-0.6,0.6-0.4-0.5-1.7c-0.4-0.6-1-1.3-1.8-2c-0.8-0.6-1.7-1.2-2.4-1.8c0.6,0.7,0.3,0.6-0.1,0.4c-0.3-0.3-0.5-0.6-0.7-0.8
		c-0.2-0.2-0.4-0.4-0.7-0.6l0.1-0.4c-0.3,0.2-2-1.1-2.3-1.1c-0.1-0.6,1.2,0.6,1.5,0.5c-1.3-1.1-1.6-1.3-2-1.6
		c-0.4-0.2-0.7-0.5-2.1-1.4c-1.7-0.7,0.1,0.6-0.8,0.4c-0.6-0.4-1.4-0.6-2.1-1c-0.7-0.4-1.4-0.8-2.2-1.3c0.1,0.2,0.2,0.4,0.3,0.6
		c-2.8-1-4.2-1.8-6-2.8c-0.6-0.1-1.3-0.3-1.9-0.4c-0.6-0.1-1.2-0.1-1.7-0.2c-1.1-0.1-2-0.2-2.8-0.2c-1.6,0-2.8,0.1-3.5,0.2
		c-1.5,0.3-1.5,0.8-0.8,1.2c0.6,0.5,1.9,1,3,1.4c0.6,0.2,1.1,0.4,1.4,0.6s0.6,0.2,0.6,0.2c3.7,1.4,6.4,2.6,9.3,3.7
		c0.7,0.4,1.4,0.6,2.2,1c0.4,0.2,0.8,0.4,1.1,0.6c0.4,0.2,0.8,0.4,1.1,0.6c0.4,0.2,0.8,0.4,1.2,0.7c0.4,0.2,0.8,0.5,1.3,0.8
		c1.2,0.8,2,1.5,3,2.2c0.7,0.7,1.3,1.4,2,2c0.3,0.3,0.6,0.6,0.8,0.9c0.2,0.3,0.5,0.6,0.7,0.9c0.4,0.6,0.9,1.1,1.3,1.7
		c0.4,0.6,0.7,1.1,1.1,1.7c1.3,2.2,2.6,4.4,4.3,8.2c0.1,0.5,0.4,0.9,0.5,1.4s0.4,0.9,0.5,1.4c0.3,1,0.5,2,0.8,3c0.4,2,0.8,4,0.8,5.9
		c0.2,0.5,0.3,1.1,0.4,1.7h6.4c-0.1-1.8,0.3-4,0.1-5.6c0.1-0.3,0.4-0.5,0.5-0.8c0-0.4,0-0.8,0-1.2c0.1-0.4,0.2-0.8,0.4-1.1l0.1,0.1
		c0-0.6,0.1-1.1,0.3-1.7c0.1-0.5,0.3-0.9,0.3-1.2l0.1,0.1l0.4-1.3l0.1,0.3c0.4-1.9,1.3-3.8,2.3-5.3l-0.4-0.1c0.6-0.8,1-1.5,1.4-2
		c0.4-0.6,0.7-1.2,1.1-1.7c0.7-1.1,1.4-2.1,2.8-3.2l0.1,0.1c1.1-2,2.5-3.1,4-4.1c1.5-1,3-1.9,4.7-3.6c-0.4,0.4,0.4,0.1,0.4,0.1
		c0.8-0.6,1.8-1.2,2.5-1.8c0.7-0.5,1.1-1,0.9-1.3c1.4-0.7,1.3-0.4,1.6-0.1c-0.1-0.1,0.1-0.4,0.6-0.7c0.2-0.1,0.4-0.3,0.7-0.4
		c0.1-0.1,0.3-0.1,0.4-0.2l0.2-0.1l0.4-0.1c-0.1,0.1-0.3,0.2-0.4,0.2l-0.2,0.2c0.2-0.1,0.7-0.4,1.1-0.5l1.3-0.6l1.3-0.6
		c0.4-0.1,0.9-0.4,1.4-0.5c-0.6,0-1.3-0.1-1.8-0.1c1.4-0.4,1.9-0.4,2.3-0.3c0.2,0,0.4,0,0.7,0c0.3-0.1,0.7-0.2,1.5-0.4l-1.1-0.3
		c0.3-0.1,0.6-0.1,0.8-0.2c0.8-0.8,1.8-1.1,2.5-1.5c0.8-0.3,1.3-0.7,1.7-1c0.1-0.1,0.2-0.1,0.2-0.2
		C933.3,717.9,933,717.5,932.6,717.2z"/>
	<path class="st0" d="M835.1,514.8L835.1,514.8c-0.7-0.2-1.2-0.1-1.4,0.6c-0.3-0.7-0.6,0.1-0.8-0.1v-0.1c-0.3,0.6-0.9-0.2-1.2,0.4
		c0-0.1-0.1-0.3,0.1-0.3c-0.3,0.2-0.6,0.4-0.7,0.1c-0.6,0.3-1.6,0.4-1.8,1.1v-0.1c-0.1,0.5-0.3,0.2-0.5,0.5
		c-0.1-0.1-0.1-0.1-0.1-0.1c-0.2,0.5-0.8,0.3-0.9,0.5l-0.1-0.3l-0.5,0.2h0.2c0.2,0.7-0.5-0.3-0.8,0.3c-0.4,0-0.3,1.7-0.8,1.4
		c-0.1,0.4,0-0.6-0.2-0.3c-0.1-0.4,0.1-0.3-0.1-0.6c-0.2,0.3-0.6-0.3-0.8,0.1l-0.1-0.3c-0.3,0.7-0.9-0.2-1,0.5
		c-0.4,0.4-0.6-0.8-0.8-0.1l-0.3-0.4c-0.2,0,0,0.5-0.3,0.4c-0.1-0.3-0.3-0.1-0.3-0.4c-0.6-0.3-0.8,0.8-1.6,0.4
		c0,0.5-0.4,0.3-0.4,0.7c0-0.1-0.1-0.1-0.1-0.1c0-0.1,0-0.2-0.3-0.2v-0.1c0-0.1,0.1-0.1,0.1,0.1l-0.1-0.3c-0.1-0.1-0.2-0.1-0.2-0.1
		s0,0,0-0.1h0.4l-0.6-0.2c0.2-0.4-0.3-0.6,0.1-0.9c0,0,0.1-0.6-0.5-0.6c0.3,0.1,0.3-0.3,0.7-0.3c-0.4-0.1-0.7-0.4-0.5-0.7h0.1
		c0.2-0.7-0.8-0.9-0.5-1.6c-0.3,0.1-0.3-0.2-0.6,0c-0.6-0.5,0.6-1.3-0.8-1.1c-0.2-0.3,0.2-0.4,0.3-0.6l0.1,0.1
		c-0.3-0.5-0.3-0.6-0.4-1c-0.2-0.2-0.8,0-0.8-0.4c0.3,0.1,0.2-0.1,0.2-0.2c0.1,0.1,0.2,0.1,0.3-0.2c-0.1,0-0.2,0-0.2-0.1h0.1
		c-0.2-0.2-0.2-0.1-0.2,0c-0.1,0-0.1,0.1-0.2,0.1c0.3-0.3-0.2-0.6,0.2-0.7c-0.3-0.6-0.8-0.9-1.2-1.3c0.2-0.1,0.4-0.1,0.6,0.1
		l-0.2-0.4c0.3-0.1,0.3,0.2,0.4,0.3c0.4-0.6-0.8-0.7-0.5-1.4h-0.1l0,0l0,0h-0.1l0.1-0.1c-0.2,0.1-0.4,0-0.4-0.1
		c0.3-0.2,0.6-0.2,0.5-0.4c0.2-0.3-0.3-0.5-0.5-0.7c0,0.2-0.2,0.2-0.3,0.1c-0.1-0.1,0.2-0.3,0.1-0.4l0.4-0.1
		c-0.3,0.2-0.5-0.2-0.6-0.2c0.3-0.2,0.3,0.1,0.5,0.1c-0.2-0.5-0.1-0.3-0.3-0.7c-0.4-0.2-0.3,0.2-0.7,0.1c-0.2-0.2-0.5-0.4-0.3-0.7
		l-0.3,0.2c-0.4-0.4-0.4-0.7-0.2-1c-3.6-2.5-3.8,0.4-3.8,0.4c-0.3,1.7,0.9,2,1.6,3.5c0.3,1.4-0.3,1.9,0.4,3.3c0.2,0.7,0.5,1.3,0.8,2
		c0.6,0.2,0.3,0.9,0.8,1.1l-0.3,0.2c0.2,0.1,0.3,0.2,0.2,0.4H813c0.3,0.1,0.2,0.4,0.4,0.5h-0.1l0.1,0.2h-0.1
		c0.3,0.3,0.5,0.6,0.4,0.9l0.3-0.1c-0.2,0.8,0.6,0.8,0.3,1.5h-0.1c1.1,0.5-0.3,1.3,0.8,1.8c-0.2-0.1-0.2,0.1-0.3,0.1
		c0.2,0.3,0.4,0.7,1,0.5c0,0.2-0.1,0.2-0.3,0.3c-0.1-0.1-0.2-0.2-0.3,0.3c0.2-0.1,0.3,0.6,0,0.6l-0.1-0.3c-0.1,0.1-0.1,0.2-0.2,0.2
		c0.1-0.2-0.1-0.4-0.3-0.3v-0.4l-0.2,0.6c-0.4-0.2-0.6,0.3-0.9-0.1c0,0-0.6-0.1-0.6,0.5c0.1-0.3-0.3-0.3-0.3-0.7
		c-0.1,0.4-0.4,0.7-0.7,0.5v-0.1c-0.7-0.2-0.9,0.8-1.6,0.5c0.1,0.3-0.2,0.3,0,0.6c-0.5,0.6-1.3-0.6-1.1,0.8
		c-0.3,0.2-0.4-0.2-0.6-0.3l0.1-0.1c-0.5,0.3-0.6,0.3-1,0.4c-0.2,0.2,0,0.8-0.4,0.8c0.1-0.3-0.1-0.2-0.2-0.2
		c0.1-0.1,0.1-0.2-0.2-0.3c0,0.1,0,0.2-0.1,0.2v-0.1c-0.2,0.2-0.1,0.2,0,0.2c0,0.1,0.1,0.1,0.1,0.2c-0.3-0.3-0.6,0.2-0.7-0.2
		c-0.6,0.3-0.9,0.8-1.3,1.2c-0.1-0.2-0.1-0.4,0.1-0.6l-0.4,0.2c-0.1-0.3,0.2-0.3,0.3-0.4c-0.6-0.4-0.7,0.8-1.4,0.5v0.1l0,0l0,0v0.2
		l-0.1-0.1c0.1,0.2,0,0.4-0.1,0.4c-0.2-0.3-0.2-0.6-0.4-0.5c-0.3-0.2-0.5,0.3-0.7,0.5c0.2,0,0.2,0.2,0.1,0.3
		c-0.1,0.1-0.3-0.2-0.4-0.1l-0.1-0.4c0.2,0.3-0.2,0.5-0.2,0.6c-0.2-0.3,0.1-0.3,0.1-0.5c-0.5,0.2-0.3,0.1-0.7,0.3
		c-0.2,0.4,0.2,0.3,0.1,0.7c-0.2,0.2-0.4,0.5-0.7,0.3l0.2,0.3c-0.4,0.4-0.7,0.4-1,0.2c-2.5,3.6,0.4,3.8,0.4,3.8
		c1.7,0.3,2-0.9,3.5-1.6c1.4-0.3,1.9,0.3,3.3-0.4c0.7-0.2,1.3-0.5,2-0.8c0.2-0.6,0.9-0.3,1.1-0.8l0.2,0.3c0.1-0.2,0.2-0.3,0.4-0.2
		v0.1c0.1-0.3,0.4-0.2,0.5-0.4v0.1l0.2-0.1v0.1c0.3-0.3,0.6-0.5,0.9-0.4l-0.1-0.3c0.8,0.2,0.8-0.6,1.5-0.3v0.1
		c0.5-1.1,1.3,0.3,1.8-0.8c-0.1,0.2,0.1,0.2,0.1,0.3c0.3-0.2,0.7-0.4,0.5-1c0.3-0.1,0.3,0.2,0.4,0.4c-0.1-0.3,0.1-0.4,0.2-0.5
		c0,0,0,0,0,0.1l0,0l0,0c0.5,0.9,0.9,1.8,0.7,2.8l-0.3,0.2c-0.5,0.2,0.9,0.2,0.4,0.4l0.3,0.1c-0.1,0.1-0.2,0.2-0.3,0.2
		c0.1,0.2,0.1,0.2,0.3,0.2l-0.3,0.3c-0.1,0.7,0.7,1.1,0.8,1.8c-0.4,1,0.7,2.4,1.3,3.2c1.1,1.1-0.4,3.1,0.8,4.1
		c-0.1,0.1,0.2,0.1,0.2,0.1l0.3,1.2c0,0,1.5,5.8,4.3,0.2h0.1c0.1-0.7,0-1.2-0.7-1.4c0.7-0.3-0.1-0.6,0.1-0.8h0.1
		c-0.6-0.3,0.2-0.9-0.4-1.2c0.1,0,0.3-0.1,0.3,0.1c-0.2-0.3-0.4-0.6-0.1-0.7c-0.3-0.6-0.4-1.6-1.1-1.8h0.1c-0.5-0.1-0.2-0.3-0.5-0.5
		c0.1-0.1,0.1-0.1,0.1-0.1c-0.5-0.2-0.3-0.8-0.5-0.9l0.3-0.1l-0.2-0.5v0.2c-0.7,0.2,0.3-0.5-0.3-0.8c0-0.4-1.7-0.3-1.4-0.8
		c-0.4-0.1,0.6,0,0.3-0.2c0.4-0.1,0.3,0.1,0.6-0.1c-0.3-0.2,0.3-0.6-0.1-0.8l0.3-0.1c-0.7-0.3,0.2-0.9-0.5-1
		c-0.4-0.4,0.8-0.6,0.1-0.8l0.4-0.3c0-0.2-0.5,0-0.4-0.3c0.3-0.1,0.1-0.3,0.4-0.3c0.3-0.6-0.8-0.8-0.4-1.6c-0.5,0-0.3-0.4-0.7-0.4
		c0.2-0.1-0.2-0.7,0.4-0.4c0.1,0,0.1,0.1-0.1,0.1l0.3-0.1c0.2-0.3,0-0.4-0.2-0.6c0.7-0.3,1.3-0.5,2-0.4l0.2,0.3
		c0.2,0.5,0.2-0.9,0.4-0.4l0.1-0.3c0.1,0.1,0.2,0.2,0.2,0.3c0.2-0.1,0.2-0.1,0.2-0.3l0.3,0.3c0.7,0.1,1.1-0.7,1.8-0.8
		c1,0.4,2.4-0.7,3.2-1.3c1.1-1.1,3.1,0.4,4.1-0.8c0.1,0.1,0.1-0.2,0.1-0.2l1.2-0.3C834.9,519.1,840.7,517.6,835.1,514.8z
		 M819.6,518.8L819.6,518.8L819.6,518.8z M819.2,518.5C819.1,518.5,819.1,518.5,819.2,518.5C819.1,518.5,819.1,518.5,819.2,518.5
		C819.1,518.5,819.1,518.5,819.2,518.5z M815.3,519.9c-0.1,0-0.1,0-0.2-0.1C815.2,519.9,815.3,519.9,815.3,519.9z"/>
	<path class="st0" d="M911.3,88.9c-0.2-0.2-0.5-0.5-0.7-0.8c-0.2-0.1-0.2-0.4-0.4-0.5l-0.4-0.6l-0.2-0.3l-0.2-0.5l-0.5-1l-1.2-0.2
		l-0.6-0.1c-0.2,0-0.4-0.1-0.5-0.1l-2.1-0.5l-2.1-0.5c-0.3-0.1-0.7-0.2-1-0.2l-0.9-0.2l-3.6-1.1l-2.4-0.9c-2.5-1-4.9-2.1-7.3-3.4
		c-2.3-1.3-4.5-2.8-6.5-4.5c-1.9-1.7-3.8-3.5-5.3-5.4v-0.8c0.2-0.4-0.6-0.9-1.5-1.3c-0.9-0.5-1.7-1-1.5-1.5
		c-0.4-0.3-0.9-0.6-1.2-0.9c-0.2-0.5-0.5-1.2,0.1-0.8c-0.9-1.2-0.9-1.1-1.7-1.8l-0.4-1.5c-1.3-2.4-2.6-4.6-3.9-6.9
		c-1.2-2.2-2.4-4.7-3.1-7.5c-0.3-1.9-0.7-4.3-1.1-6.9c-0.4-2.6-0.6-5.4-0.8-8.3h-1.2h-5.6h-1.2c0.2,4.6-0.1,9-0.6,12.5
		c-0.3,2.7-1.1,5.4-2.2,8c-1.2,2.6-2.7,5.2-4.4,7.5c-3.4,4.8-7.6,8.8-11.1,13c-0.3,0.2-0.9,0.9-0.8,1c-2.6,2.2-5.3,4.1-8.3,5.7
		c0,0-0.2,0.1-0.5,0.2c-0.3,0.2-0.7,0.5-1.3,0.8c-0.5,0.3-1.2,0.6-2,1.1c-0.8,0.4-1.6,0.8-2.5,1.2c-3.6,1.7-8.3,3.4-12,4.6
		c-1.9,0.6-3.4,1.1-4.4,1.5s-1.5,0.9-1.1,1.4c0.4,0.4,1.6,0.9,4.1,1.1c2.5,0.2,6.1,0.2,11.3-0.6l-0.2,0.2c5.9-1.7,9.5-3.5,12.6-6.4
		c0.5,0.3,1.6-0.4,2.8-1.2c1.1-0.9,2.2-1.8,2.9-2.1l-0.1,0.2c1.2-1.5,2.9-2.6,4.4-3.7c0.8-0.6,1.5-1.2,2.2-1.8
		c0.7-0.6,1.3-1.3,1.8-2.2c0,0.2,0.2,0.5-0.5,1.1c0.5-0.5,0.9-1.1,1.4-1.6c0.5-0.5,0.9-1.1,1.3-1.5c0.8-1,1.5-1.6,1.8-1.5
		c1.9-2.6,4.1-5.7,5.7-8.9c1.6-3.2,2.7-6.2,2.9-8.3l0.1,0.3c0.1-1.2,0.3-1.9,0.5-2.6c0.1-0.3,0.2-0.6,0.3-1c0.2,0.9,0.4,1.9,1.1,3.1
		l-0.4,0.3c1.1,1.7,1.7,3.4,2.3,5c0.3,0.8,0.5,1.5,0.9,2.2c0.4,0.7,0.8,1.2,1.2,1.7c2.5,3.2,0.2,3.2,3.4,6.1l0.5,1.7
		c1.1,1.5,1.5,0.5,2.5,2.2c-0.4,0.2,1.5,2.1,0.4,1.5c1.3,1.9,3.2,3.4,5.2,5c2,1.5,4.2,3.2,6.4,5.3c1.5,0.1,3.9,2.1,5,2
		c-0.1,0.5,5.3,2.9,1.9,2c-0.3-0.1-0.8-0.3-0.6-0.5l-0.6,0.2c0.7,0.6,1.4,1.1,2.1,1.5c0.8,0.3,1.5,0.6,2.2,0.9
		c0.8,0.2,1.5,0.4,2.3,0.6c0.2,0.1,0.5,0.2,0.4,0.1c0,0,0.1,0,0.2,0s0.2,0,0.2,0.1c-0.1-0.2-0.5-0.3-0.1-0.5l0.8,0.4
		c-0.2,0.1-0.4,0.2-0.5,0.2c0.2,0.2,0.4,0.3,0.5,0.4c0.2-0.1,0.3-0.1,0.5-0.2l0.2-0.2c0,0.2-0.3,0.3-0.5,0.4
		c-0.2,0.1-0.2,0.1,0.9,0.1c0.6,0,1-0.1,1.2-0.2c0.2-0.1,0.4-0.1,1-0.1c0.1,0.2-0.1,0.2-0.2,0.3c-0.5,0.1-1,0.1-1.5,0.2
		c-0.3,0.1-0.7,0.1-1,0.2c1.5,0.1,1.2,0.2,1.2,0.2l-1.1-0.1c0.2,0.2-0.1,0.2-0.5,0.2c-0.3-0.1-0.7-0.2-0.9-0.2
		c-0.2-0.1-0.3-0.1-0.2,0c0.2,0.2,0.5,0.3,0.7,0.5c0.1,0.2-0.1,0.3-0.2,0.4c-0.2,0-0.2-0.1-0.4-0.1c-0.1-0.1-0.2-0.1-0.2-0.1
		c0.1,0-0.2,0.1-0.2,0.2c-0.2,0.1-0.2,0.2-0.4,0.3c-0.3,0.2-0.6,0.5-1,0.9c1.5-0.8,1.2,0.6-0.7,1.3l0.2-0.6
		c-0.9,0.6-1.2,0.9-1.9,1.2c0.5-0.5,0-0.8-1.4,0.1l0.7-1.1c-0.8,0.8-1.5,1.5-2.3,2.2c-2.3,0.8-5.2,3.3-6.3,3.4c0,0-1.1,0.7-2.2,1.5
		c-1.2,0.9-2.3,2-2.6,2.6c0.2-0.5-0.2-0.3-0.7-0.2c-0.5,0.2-1,0.4-0.9-0.1c-0.7,1.3-3.3,4.3-4.8,5.1l0.2-0.2
		c-2.2,1.9-3.8,4.1-5.1,6.2c-0.7,1.1-1.3,2.1-1.9,3.2c-0.7,1-1.3,2.1-2.2,3.2c0.6,0.1-1,2.4,0,2.1c-0.5,1.3-1,2.5-1.6,3.6
		c-0.5,1.1-1.1,2.1-1.5,3c-0.2,0.3-0.3,0.7-0.4,1c-0.2-0.4-0.3-0.8-0.5-1.2c-0.2-0.5-0.5-1-0.8-1.5c-0.5-1-1.1-2-1.6-3.1
		c0.1-0.6,0.9,0.2,1.5,1.5c-0.5-1-1-2-1.5-3c0.2-0.1,0.5,0.3,0.9,0.9c0.3,0.5,0.5,1.2,0.9,1.7c-0.2-1-0.6-2-1.1-2.9
		c-0.2-0.5-0.5-0.9-0.8-1.4c-0.3-0.5-0.6-0.9-0.9-1.3c-1.2-1.8-2.7-3.5-3.8-5.6l-0.9-0.5l-0.2-0.2h-0.1c0-0.2-0.1-0.4-0.5-0.8
		l0.3,0.8c-0.3-0.2-0.9-0.6-1.3-1c-0.1-0.8,0.9-0.6-0.7-2.4c-0.5-0.9-1.4-1.8-2.5-2.7c-0.5-0.5-1.1-0.9-1.7-1.3
		c-0.5-0.4-1.1-0.8-1.6-1.2c0.9,0.9,0.4,0.9-0.1,0.5c-0.9-0.8-1.1-1.5-1.9-1.9l0.2-0.4c-0.2,0.1-0.8-0.2-1.4-0.6
		c-0.8-0.5-1.5-1-1.9-1c-0.2-0.8,1.7,0.8,2.1,0.7c-1.9-1.4-2.3-1.8-2.8-2.1c-0.2-0.2-0.5-0.3-0.9-0.6c-0.4-0.3-1-0.7-2-1.3
		c-2.3-0.9,0.1,0.7-1.2,0.5c-1.9-1.1-3.9-1.7-6-3.2c0.2,0.3,0.3,0.5,0.5,0.9c-3.8-1.5-6-2.4-8.3-3.9c-3.7-0.8-6.7-1-8.8-1.1
		c-1.1,0-2.1,0-2.9,0.1c-0.8,0.1-1.5,0.2-1.9,0.2c-2,0.4-2,1.1-1,1.7c0.9,0.7,2.7,1.3,4.3,1.9c0.8,0.3,1.5,0.5,1.9,0.8
		c0.5,0.2,0.9,0.3,0.9,0.3c2.5,1,4.7,1.9,6.8,2.8c2.1,0.9,4,1.6,6,2.5c3.9,1.9,8.2,3.8,13.2,7.9c4.2,3.9,6.2,6.9,8,9.9
		c0.5,0.8,0.9,1.5,1.4,2.3c0.2,0.4,0.5,0.8,0.7,1.2c0.2,0.5,0.5,0.9,0.7,1.3c1,1.8,2,3.9,3.2,6.5c0.9,2.6,1.8,5.3,2.5,8
		c0.6,2.7,1.1,5.5,1.2,8.2c0.2,0.7,0.4,1.5,0.5,2.4h1.9h5h1.9c-0.1-2.5,0.4-5.5,0.2-7.7c0.2-0.4,0.5-0.7,0.7-1.1
		c0-0.5,0-1.1,0.1-1.7c0.1-0.5,0.2-1.1,0.5-1.6l0.2,0.1c0-0.8,0.2-1.6,0.4-2.3c0.2-0.7,0.4-1.3,0.5-1.7l0.1,0.1l0.5-1.8
		c0,0.2,0.1,0.2,0.1,0.4c0.6-2.7,1.8-5.3,3.2-7.3l-0.6-0.1c0.9-1.1,1.4-2,2-2.9c0.5-0.9,1-1.6,1.5-2.4c0.9-1.5,1.9-2.9,3.9-4.5
		l0.1,0.2c1.5-2.8,3.6-4.3,5.6-5.6c2.1-1.4,4.2-2.6,6.5-5c-0.5,0.6,0.5,0.1,0.5,0.2c1.2-0.9,2.5-1.7,3.4-2.5
		c0.9-0.7,1.5-1.4,1.2-1.9c1.9-1,1.8-0.5,2.2-0.2c-0.1-0.2,0.2-0.6,0.8-1c0.3-0.2,0.6-0.4,1-0.6c0.2-0.1,0.4-0.2,0.5-0.3l0.3-0.2
		c0.2-0.1,0.3-0.2,0.5-0.2l-0.5,0.3l-0.3,0.2c0.2-0.2,1-0.5,1.5-0.8l1.9-0.8l1.8-0.8c0.6-0.2,1.3-0.5,1.9-0.7
		c-0.9,0-1.8-0.1-2.6-0.1c2-0.5,2.7-0.5,3.2-0.4c0.3,0,0.5,0.1,0.9,0c0.4-0.1,1-0.2,2-0.6l-1.5-0.4c0.4-0.1,0.8-0.2,1.1-0.2
		c1.2-1,2.5-1.4,3.5-2.1c1-0.4,1.8-1,2.3-1.3l0.2-0.2l0.1-0.1l0.1-0.1L911.3,88.9z"/>
	<path class="st0" d="M729.7,292c-0.1,0-0.1-0.2-0.2-0.3l-0.2-0.4c-0.1-0.3-0.3-0.5-0.4-0.8c-0.4-0.1-0.8-0.1-1.1-0.2l-1-0.2
		l-1.9-0.5l-1.9-0.4l-0.2-0.1h-0.1l-0.1-0.1l-0.2-0.1l-0.4-0.1c-0.6-0.2-1.3-0.4-1.9-0.7c-0.6-0.3-1.2-0.6-1.8-0.9
		c-2.3-1.3-4.3-3-5.8-4.9v-0.4c0.2-0.4-1.6-1-1.5-1.4c-0.2-0.1-0.4-0.3-0.6-0.4c-0.1-0.2-0.3-0.6,0-0.4c-0.4-0.6-0.4-0.5-0.9-0.9
		l-0.2-0.7c-0.6-1.3-1.3-2.2-1.9-3.4c-0.3-0.6-0.7-1.1-0.9-1.8c-0.2-0.6-0.5-1.3-0.7-1.9c-0.2-1.9-0.7-4.7-0.9-7.5H701
		c0,0.6,0,1.1,0,1.7c0,0.5,0,1.1,0,1.6c-0.1,1-0.1,2-0.3,2.9c-0.2,2.7-1.6,5.4-3.4,7.8c-1.7,2.4-3.7,4.4-5.5,6.5
		c-0.1,0.1-0.4,0.4-0.4,0.5c-1.3,1-2.7,2-4.1,2.8c0,0-0.3,0.1-0.9,0.5c-0.3,0.1-0.6,0.4-1,0.5s-0.8,0.4-1.3,0.6
		c-1.8,0.9-4.1,1.6-6,2.3c-1.9,0.5-3.1,1-2.8,1.4c0.2,0.2,0.8,0.4,2,0.5c0.3,0,0.7,0.1,1,0.1c0.4,0,0.8,0,1.3-0.1
		c0.4,0,1-0.1,1.5-0.1c0.5-0.1,1.1-0.1,1.8-0.3l-0.1,0.1c1.5-0.4,2.6-0.9,3.7-1.3c1-0.5,1.9-1.1,2.6-1.8c0.6,0.3,2.2-1.3,2.8-1.6
		v0.1c0.6-0.7,1.4-1.3,2.2-1.9s1.5-1.2,2-1.9c0,0.1,0.1,0.2-0.2,0.5c0.9-1,1.9-2.5,2.2-2.3c0.4-0.7,1-1.3,1.5-2.1s0.9-1.6,1.3-2.3
		c0.4-0.7,0.7-1.6,1-2.2c0.1-0.4,0.2-0.7,0.3-1s0.1-0.6,0.1-0.9l0.1,0.1c0-0.6,0.1-1,0.3-1.3c0.1-0.2,0.1-0.3,0.2-0.5
		c0.1,0.5,0.2,0.9,0.5,1.4l-0.2,0.1c0.5,0.9,0.9,1.7,1.1,2.5c0.1,0.4,0.3,0.8,0.4,1.1c0.2,0.3,0.4,0.6,0.7,0.8
		c0.6,0.8,0.6,1.2,0.7,1.6c0.1,0.4,0.2,0.7,1,1.4l0.2,0.9c0.5,0.7,0.7,0.2,1.3,1.1c-0.2,0.1,0.7,1,0.1,0.7c0.3,0.5,0.7,0.9,1.2,1.3
		c0.4,0.4,0.9,0.8,1.4,1.2c0.5,0.4,1,0.7,1.6,1.2c0.3,0.2,0.5,0.4,0.8,0.7s0.5,0.4,0.8,0.7c0.4,0,0.9,0.3,1.3,0.5
		c0.4,0.3,0.9,0.4,1.2,0.4c0,0.2,2.6,1.5,1,1c-0.1-0.1-0.4-0.1-0.3-0.2l-0.3,0.1c0.3,0.3,0.7,0.5,1,0.7c0.4,0.1,0.7,0.3,1.1,0.4
		c0.4,0.1,0.7,0.2,1.1,0.3l0.1,0.1l0,0l0,0l0,0h0.1c-0.1-0.1-0.2-0.1,0-0.2l0.4,0.1c-0.1,0-0.1,0.1-0.3,0.1c0.1,0.1,0.1,0.1,0.2,0.2
		l0.2-0.1l0.1-0.1c0,0.1-0.1,0.1-0.3,0.1c-0.1,0.1-0.1,0.1,0.4,0c0.3,0,0.4-0.1,0.6-0.1c0.1,0,0.2-0.1,0.5,0c0,0.1,0,0.1-0.1,0.1
		c-0.4,0.1-0.8,0.1-1.2,0.1c0.7,0,0.6,0.1,0.6,0.1l-0.5-0.1c0.1,0.1,0,0.1-0.2,0.1c-0.3,0-0.7-0.1-0.6-0.1c-0.1,0-0.1-0.1-0.2-0.1
		c0.2,0.1,0.4,0.2,0.5,0.3c0.1,0.2-0.1,0.2-0.3,0.1c0,0-0.1,0-0.1-0.1c-0.2,0.1-0.5,0.3-0.9,0.7c0.7-0.4,0.6,0.3-0.4,0.7l0.1-0.3
		c-0.4,0.3-0.6,0.4-1,0.6c0.2-0.2,0-0.4-0.7,0.1l0.4-0.5l-1.1,1.1c-1.2,0.3-2.5,1.7-3.1,1.7c0,0-0.6,0.3-1.1,0.7
		c-0.6,0.4-1.2,1-1.3,1.3c0.1-0.2-0.1-0.1-0.4-0.1c-0.2,0.1-0.4,0.2-0.4,0c-0.1,0.3-0.6,0.9-1,1.3c-0.2,0.2-0.4,0.5-0.7,0.7
		c-0.2,0.2-0.4,0.4-0.6,0.5l0.1-0.1c-0.5,0.5-1,1-1.4,1.5s-0.7,1-1,1.6c-0.7,1-1.2,2.1-2.1,3.1c0.3,0-0.4,1.2,0,1
		c-0.2,0.7-0.5,1.3-0.8,1.8s-0.5,1-0.7,1.5c-0.1,0.2-0.2,0.3-0.2,0.5c-0.4-1-0.9-1.9-1.5-2.9c0.1-0.3,0.4,0.1,0.8,0.7l-0.8-1.5
		c0.2-0.1,0.5,0.8,0.8,1.3c-0.1-0.5-0.3-1-0.5-1.4c-0.1-0.2-0.2-0.4-0.4-0.7c-0.1-0.2-0.3-0.4-0.4-0.7c-0.3-0.4-0.7-0.9-1-1.3
		s-0.7-0.9-0.9-1.5l-0.4-0.3l-0.1-0.1h-0.1c0,0,0,0,0-0.1v0.1c-0.2-0.1-0.5-0.3-0.6-0.5c-0.1-0.4,0.4-0.3-0.4-1.2
		c-0.2-0.4-0.7-0.9-1.2-1.3s-1.1-0.8-1.6-1.2c0.4,0.4,0.2,0.4-0.1,0.3c-0.2-0.2-0.4-0.4-0.4-0.6c-0.1-0.1-0.3-0.3-0.4-0.4l0.1-0.3
		c0,0.4-1.3-0.7-1.6-0.7c-0.1-0.4,0.8,0.4,1,0.4c-1.9-1.4-0.9-0.7-2.8-2c-1.1-0.5,0,0.4-0.6,0.3c-1-0.5-1.9-0.8-3-1.6
		c0.1,0.1,0.1,0.3,0.2,0.4c-1.9-0.7-2.9-1.2-4.1-1.9c-0.4-0.1-0.9-0.1-1.3-0.3c-0.4-0.1-0.8-0.1-1.2-0.1c-0.7-0.1-1.3-0.1-1.9-0.1
		c-1.1,0-1.9,0.1-2.4,0.1c-1,0.2-1,0.5-0.5,0.8c0.4,0.4,1.3,0.7,2.1,1c0.4,0.1,0.7,0.3,1,0.4s0.4,0.1,0.4,0.1c2.5,1,4.3,1.8,6.4,2.6
		c1.9,1.4,4.1,2.3,6.6,4.3c0.5,0.5,1,1,1.3,1.4c0.4,0.4,0.7,0.9,1,1.3s0.6,0.7,0.9,1.2c0.2,0.4,0.4,0.7,0.7,1.1c1,1.5,1.8,3.1,3,5.7
		c0.2,0.7,0.5,1.3,0.7,1.9c0.1,0.7,0.4,1.3,0.5,2c0.2,1.3,0.5,2.8,0.6,4.1c0.1,0.3,0.2,0.7,0.2,1.2h4.4c0-1.3,0.1-2.8,0.1-3.9
		l0.3-0.5c0-0.3,0-0.5,0-0.8c0.1-0.3,0.1-0.5,0.3-0.8l0.1,0.1c0.1-0.8,0.3-1.6,0.4-2l0.1,0.1l0.3-0.9v0.1c0.2-1.3,0.9-2.6,1.6-3.7
		l-0.3-0.1c0.9-1,1.2-1.9,1.7-2.6c0.4-0.7,1-1.5,1.9-2.2v0.1c0.2-0.4,0.4-0.7,0.6-1s0.4-0.5,0.7-0.7c0.4-0.4,1-0.8,1.5-1.2
		c0.5-0.3,1-0.7,1.6-1c0.5-0.4,1.1-0.8,1.6-1.4c-0.3,0.3,0.2,0,0.2,0.1c0.6-0.4,1.3-0.8,1.7-1.2c0.4-0.4,0.7-0.7,0.6-1
		c1-0.5,0.9-0.2,1.1-0.1c-0.1-0.1,0.1-0.3,0.4-0.5c0.1-0.1,0.3-0.2,0.5-0.3c0.1-0.1,0.1-0.1,0.3-0.1l0.1-0.1l0,0
		c-0.1,0.1-0.2,0.1-0.2,0.2l0.3-0.1c0.2-0.1,0.3-0.1,0.4-0.2l1-0.4l1.9-0.7c-0.4,0-0.9,0-1.3-0.1c1-0.3,1.3-0.2,1.6-0.2
		c0.1,0,0.3,0,0.4,0c0.2-0.1,0.4-0.1,1-0.3l-0.7-0.1c0.2-0.1,0.4-0.1,0.6-0.1c0.6-0.4,1.2-0.7,1.7-1c0.5-0.1,0.9-0.4,1.2-0.6
		c0.1-0.1,0.1-0.1,0.1-0.2C730.2,292.3,730,292.1,729.7,292z"/>
	<path class="st0" d="M1093.7,438c-0.1,0-0.2-0.3-0.3-0.6l-0.4-0.7c-0.3-0.5-0.5-0.9-0.8-1.4c-0.6-0.1-1.4-0.2-1.9-0.3l-1.7-0.4
		l-3.4-0.9l-3.3-0.8c-0.1,0-0.3-0.1-0.4-0.1l-0.2-0.1l-0.3-0.1l-0.4-0.2l-0.8-0.3l-1.6-0.6c-0.5-0.2-1.1-0.4-1.6-0.7
		c-1-0.5-2.1-1.1-3.1-1.6c-4-2.3-7.5-5.2-10.2-8.6v-0.7c0.4-0.6-2.8-1.6-2.6-2.4c-0.4-0.3-0.8-0.5-1.1-0.8c-0.1-0.4-0.5-1.1,0.1-0.7
		c-0.7-1-0.8-1-1.5-1.5l-0.4-1.3c-1.1-2.2-2.4-3.9-3.4-6c-0.3-0.5-0.5-1-0.8-1.5c-0.3-0.5-0.5-1-0.7-1.6c-0.4-1.1-0.9-2.2-1.2-3.4
		c-0.4-3.4-1.4-8.2-1.6-13.2h-1.4c0-0.1,0-0.2,0.1-0.3h-4.8c0,0.1,0,0.2,0,0.3h-0.7c0,1,0,2,0,2.9c0,1,0.1,1.9-0.1,2.8
		c-0.2,1.8-0.2,3.6-0.5,5c-0.2,1.2-0.3,2.4-0.7,3.5c-0.4,1.2-0.8,2.3-1.3,3.5c-1.1,2.2-2.3,4.5-3.9,6.5c-3,4.1-6.5,7.6-9.6,11.3
		c-0.3,0.1-0.8,0.8-0.7,0.9l-2,1.1c-0.6,0.5-1.1,0.9-1.8,1.3l-1.8,1.2c-0.6,0.4-1.2,0.8-1.9,1.1c0,0-0.6,0.3-1.5,0.9
		c-0.5,0.3-1,0.6-1.7,1c-0.7,0.3-1.4,0.7-2.2,1c-3.1,1.6-7.2,2.9-10.4,4c-3.2,0.9-5.5,1.8-4.8,2.5c0.3,0.4,1.4,0.7,3.5,0.9
		c0.5,0.1,1.1,0.1,1.8,0.1s1.4,0,2.2-0.1c0.8,0,1.7-0.1,2.7-0.2s2-0.3,3.1-0.5l-0.2,0.2c2.6-0.6,4.6-1.5,6.4-2.3
		c1.8-0.9,3.2-2,4.6-3.2c1,0.5,3.7-2.3,4.9-2.8v0.1c1-1.3,2.5-2.2,3.8-3.2c1.3-1,2.7-2,3.5-3.4c0,0.1,0.1,0.4-0.4,0.9
		c1.5-1.8,3.3-4.3,3.9-4.1c0.8-1.1,1.7-2.4,2.6-3.7c0.9-1.3,1.6-2.7,2.4-4c0.4-0.7,0.7-1.4,1-2c0.3-0.7,0.5-1.3,0.8-1.9
		c0.2-0.6,0.4-1.2,0.6-1.7c0.1-0.6,0.2-1.1,0.2-1.5l0.1,0.3c0-1.1,0.2-1.7,0.5-2.3c0.1-0.2,0.1-0.3,0.2-0.5c0.2,0.8,0.4,1.6,0.9,2.5
		l-0.4,0.2c0.9,1.5,1.5,3,2,4.4c0.3,0.7,0.5,1.4,0.8,2c0.3,0.6,0.7,1.1,1.1,1.5c1,1.4,1.1,2.1,1.2,2.8c0.1,0.6,0.4,1.3,1.8,2.5
		l0.4,1.5c0.9,1.3,1.3,0.4,2.2,1.9c-0.3,0.2,1.2,1.9,0.3,1.3c0.3,0.4,0.6,0.8,0.9,1.2c0.4,0.4,0.7,0.7,1.1,1.1
		c0.8,0.7,1.6,1.4,2.4,2.1c0.9,0.6,1.8,1.3,2.7,2.1c0.5,0.4,0.9,0.8,1.4,1.2c0.5,0.4,1,0.8,1.5,1.3c0.7,0,1.5,0.5,2.3,1
		c0.8,0.5,1.6,0.8,2.1,0.8c0,0.3,4.6,2.6,1.7,1.8c-0.2-0.1-0.6-0.3-0.6-0.4l-0.5,0.2c0.6,0.5,1.2,1,1.8,1.3s1.3,0.5,2,0.7
		c0.7,0.2,1.3,0.4,2,0.6l0.3,0.1h0.1c0,0,0.1,0,0,0h0.1h0.1c-0.1-0.1-0.3-0.2,0-0.3l0.7,0.3c-0.2,0.1-0.3,0.1-0.5,0.2
		c0.2,0.1,0.3,0.3,0.4,0.3l0.3-0.1l0.3-0.1c0,0.1-0.3,0.2-0.5,0.3c-0.1,0.1-0.2,0.1,0.8,0c0.5,0,0.8-0.1,1-0.1
		c0.2-0.1,0.4-0.1,0.9-0.1c0,0.1,0,0.2-0.2,0.3c-0.7,0.1-1.5,0.2-2.1,0.2c1.3,0.1,1,0.1,1,0.2l-0.9-0.1c0.2,0.1-0.1,0.2-0.4,0.1
		c-0.5-0.1-1.1-0.2-1.1-0.2c0.3,0.2,0.5,0.3,0.7,0.5c0.1,0.4-0.3,0.3-0.5,0.2c-0.1,0-0.1-0.1-0.1-0.1c-0.4,0.2-0.9,0.5-1.5,1.2
		c1.2-0.7,1,0.6-0.6,1.1l0.2-0.6c-0.8,0.5-1,0.8-1.7,1c0.4-0.4,0-0.7-1.2,0.1l0.6-0.9l-2,2c-2.1,0.6-4.5,2.9-5.5,2.9
		c0,0-1,0.5-2,1.4c-1,0.8-2,1.7-2.2,2.3c0.2-0.4-0.2-0.3-0.6-0.1c-0.4,0.2-0.8,0.4-0.7-0.1c-0.3,0.6-1,1.5-1.8,2.4
		c-0.4,0.4-0.8,0.9-1.2,1.2c-0.4,0.4-0.8,0.7-1.1,0.9l0.1-0.2c-1,0.9-1.8,1.8-2.5,2.6c-0.7,0.9-1.3,1.8-1.9,2.7
		c-0.3,0.4-0.6,0.9-0.9,1.3s-0.5,0.9-0.8,1.4c-0.6,0.9-1.2,1.8-1.9,2.8c0.5,0-0.8,2.1,0,1.9c-0.4,1.1-0.9,2.1-1.4,3.1
		s-0.9,1.9-1.3,2.7c-0.1,0.3-0.3,0.6-0.4,0.9c-0.8-1.7-1.6-3.2-2.5-4.9c0.1-0.6,0.8,0.2,1.4,1.2l-1.4-2.6c0.4-0.2,1,1.4,1.4,2.2
		c-0.2-0.9-0.6-1.7-1-2.5c-0.2-0.4-0.4-0.8-0.7-1.2c-0.3-0.4-0.6-0.8-0.8-1.1c-0.6-0.8-1.1-1.5-1.7-2.4c-0.5-0.8-1.1-1.6-1.6-2.6
		l-0.8-0.5l-0.1-0.2c-0.1,0.1-0.9-0.5-1.3-0.9c-0.1-0.7,0.7-0.5-0.6-2.1c-0.4-0.7-1.2-1.6-2.1-2.3c-1-0.7-2-1.5-2.8-2.1
		c0.8,0.8,0.4,0.7-0.1,0.5c-0.4-0.3-0.6-0.7-0.8-1c-0.2-0.3-0.5-0.5-0.8-0.7l0.3-0.5c0,0.6-2.4-1.2-2.8-1.3
		c-0.2-0.7,1.4,0.7,1.8,0.6c-1.6-1.2-2-1.6-2.4-1.8c-0.4-0.3-0.8-0.6-2.5-1.7c-2-0.9,0,0.6-1.1,0.5c-0.8-0.5-1.7-0.8-2.5-1.2
		c-0.9-0.4-1.7-0.9-2.6-1.5c0.1,0.2,0.3,0.5,0.4,0.7c-3.3-1.2-5.1-2.1-7.2-3.3c-0.8-0.2-1.6-0.3-2.3-0.5c-0.7-0.1-1.4-0.2-2-0.2
		c-1.3-0.1-2.4-0.3-3.3-0.3c-1.9,0-3.3,0.1-4.2,0.3c-1.8,0.3-1.8,0.9-0.9,1.5c0.8,0.6,2.3,1.2,3.7,1.7c0.7,0.2,1.3,0.5,1.7,0.7
		s0.7,0.3,0.7,0.3c4.4,1.7,7.6,3.1,11.1,4.5c0.9,0.4,1.7,0.8,2.6,1.2c0.5,0.2,0.9,0.4,1.4,0.6c0.5,0.3,0.9,0.5,1.4,0.8
		s1,0.5,1.5,0.8s1,0.6,1.5,1c0.8,0.3,1.9,1,3,1.9c0.9,0.9,1.6,1.7,2.4,2.4c0.4,0.4,0.7,0.7,1,1.1c0.3,0.4,0.6,0.7,0.9,1.1
		c0.5,0.7,1.1,1.3,1.5,2s0.8,1.3,1.3,2c1.6,2.6,3.2,5.4,5.2,9.9c0.4,1.1,0.8,2.2,1.2,3.4c0.3,1.2,0.6,2.3,1,3.5c0.4,2.4,1,4.8,1,7.1
		c0.2,0.6,0.3,1.3,0.4,2.1h1.5c0,0.1,0.1,0.2,0.1,0.4h4.3c-0.1-0.1-0.1-0.3-0.1-0.4h1.9c0-2.2,0.3-4.8,0.3-6.7l0.6-0.9
		c0-0.5-0.1-1,0-1.5s0.2-1,0.5-1.4l0.1,0.1c0-0.7,0.2-1.4,0.3-2c0.1-0.3,0.1-0.6,0.2-0.8c0.1-0.2,0.1-0.5,0.2-0.6l0.1,0.1l0.5-1.6
		l0.1,0.3c0.4-2.4,1.6-4.5,2.7-6.4l-0.5-0.1c1.5-1.8,2.1-3.3,3-4.5c0.4-0.6,0.8-1.3,1.3-1.9c0.5-0.7,1.2-1.3,2-1.9v0.1
		c0.3-0.6,0.7-1.1,1-1.6c0.4-0.5,0.8-0.9,1.2-1.3c0.8-0.8,1.7-1.4,2.6-2c0.9-0.6,1.8-1.1,2.7-1.9c0.4-0.4,0.9-0.7,1.4-1.1
		s1-0.8,1.5-1.4c-0.5,0.5,0.4,0,0.4,0.2c1-0.8,2.2-1.5,2.9-2.1c0.8-0.6,1.3-1.2,1.1-1.7c1.7-0.9,1.5-0.4,1.9-0.2
		c-0.1-0.2,0.2-0.5,0.7-0.8c0.2-0.2,0.5-0.4,0.9-0.5c0.2-0.1,0.3-0.2,0.5-0.3l0.2-0.1c0,0,0.3-0.2,0.4-0.2c-0.3,0.2-0.4,0.3-0.5,0.4
		l0.3-0.2c0.3-0.2,0.5-0.3,0.8-0.4l1.7-0.6l3.3-1.2c-0.8,0-1.5,0-2.2-0.1c1.7-0.5,2.3-0.4,2.8-0.4c0.2,0,0.5,0,0.8,0
		c0.4-0.1,0.8-0.3,1.7-0.5l-1.3-0.3c0.3-0.1,0.7-0.2,1-0.2c1-0.7,2.1-1.2,3-1.8c0.9-0.3,1.6-0.6,2-1.1c0.1-0.1,0.2-0.2,0.3-0.3
		C1094.5,438.7,1094.1,438.4,1093.7,438z"/>
</g>
<g id="Layer_3">
	<g>
		<path class="st0" d="M712.4,904.8c-2.1-15.6-1.7-32.6-5.5-47.2c0.4,2,0.7,4,1,6c-4-11.6-3.8-27.5-13.1-38.6
			c-3.1-4.9-6-9.7-7.4-15.2c-3.1-4.5,3.7,3.6-0.2-3.5c1.3-0.7,2.2,3.1,2.6,0.8c-5.8-19.5-17.9-43.2-25.9-61.7
			c0.6-2.3-6.4-10.3-6.7-15.6c-2.7-5.3-3.7-2.7-6.3-8.7c1.1-0.2-3.5-7.5-0.7-4.7c-6.6-13.9-18.4-26.2-25.6-40.4
			c7.1-11.3,1.5-21.9-6.5-27.8c-0.6,0.4-2.5,0.3-1.1-0.3c-1.2,0.3-0.5-0.4-0.6-0.8c0.6,0.2,0.6-1,1.1-0.4c0.6-4.2,4.9-8.3,6.9-11.9
			l-1.4-0.3c7.4-9,7-16.3,13.7-24.3c2.1-13.6,11.9-23.7,8.3-38.2c0.6,2.1,0.6-0.9,1-0.7c0.4-13.9-10.2-14.5-10-21.4
			c-3-0.3-5.7-3.5-9-4.8l2,0.7c-3.9-2.2-7.9-3.5-11.8-4.4c0.6,0.9,1.2,1.9,1.7,2.8c-3.7-1.1-3-4-6.8-3.6c-2.5,4.7-17.4-5.4-23.3-3.1
			c-1-33.4-43.7-30.1-66.1-35.9c-0.8-2-8.4,3.3-9.4,1.5c-1.1,0.6-6.8,1.8-4.9,0.1c-20.4,0.6-45.3,10.9-49.2,33.4
			c-76-6-54,72.7-23.2,111.2c-9.9,0.7-15.6,13.7-10.6,22.1c1,1.4,1.4,2.3,0.1,3.6c-9.8,14.3-22.1,23-28.7,36.4
			c0.5-2.2-4.7,4.1-4.3,1.4c-1.7,4.4-8.5,15.4-12.2,18.5l0.5-0.8c-10.7,13-16.6,28.3-26.4,41.9c1.6,0-3.5,7.5-0.8,6.4
			c-4.2,10-11,18.7-14.7,28.8c-0.4,7.9-3,13.1-6.9,18.9l0.5-1.9c-6,15.5-8.9,30.1-9.4,46.6c-0.6-3.8-1.2,2.9-1.4,4.4
			c0.1-2.5-0.3-3.2-1.3,1.7c0.1,0.6,0.7,2.4,0.2,3.1c-0.2,2.4,0.2,7.5,0.6,2.4c0.2,0.2,0.3-0.1,0.7-1c-9.6,30.5,23,80.7,9.2,60.7
			c5.4,9,6.5,13.9,0.1,1.4c6.9,16.7,19.4,31.4,35.2,40.6c1.2,8.6,18.8,15.6,26.9,19.4c-7.6-5.4,8.6,2.5,7.2,4.2
			c1.6-0.5,10.2,3.3,11.3,3.2c1.7,1.9-5.8-1.5-7-1.2c11,4.6,8.4,3.8,21.7,8.4c8.1,1.7-0.9-1.8,3.1-1.8c6.9,2,13.9,3.1,21.7,5.8
			c-0.7-0.6-1.5-1.2-2.1-1.9c11.9,2.1,19.3,3.3,29.7,6.6c18.7,2.5,76.5-3.8,32.4-10.2c-45-8.7-92.1-10.3-129-39.4
			c-47.5-34.4-53.5-101.9-29.8-152l0.3,0.3c0.9-4.3,3.8-10,5-13.6l0.3,0.3l2.7-6.1l-0.1,1.2c3.3-8.9,7.9-17.4,12.8-25.5h-1.6
			c9.1-12.7,13.2-24.4,23.3-36.2l0.2,0.4c8.9-18.9,22.3-27.3,33.2-46.1c-1.4,2.5,1.3-0.6,1.4-0.2c10.1-14.4,8.4-13.4,22.7-11.1
			c40.1,0.3,79.9-2.9,122.7-0.2c39.1-2.1,41-2.2,56.3,35.1c-1,2,9.3,9.8,8.2,11.9c1,0.4,6.6,9.4,3.4,6.6
			c39.4,74.6,99.5,197.5,2.3,254.7c-31.9,20.5-84.9,17.9-119.4,29.3c15.2,6.4,33.2,6,49.9,6.6l-0.8,0.6c25.4-1.5,43.4-8,66.2-16.6
			l-0.3,0.4c10.5-6.9,24.2-10.5,32.7-20c-0.2,0.5,0,1.1-1.7,2.6c21.9-16.5,41.2-48.3,39.6-75.1l0.3,1
			C711.5,916.3,712,912.9,712.4,904.8z M434,663.2c2.9-4.4,10.6-1.5,14.2-5.6l-0.1,0.6c11.9-5.5,4.6-16.7-1.9-23.6
			c-1.3-2.7-4.7-9.6-6.7-12.8l0.3,0.2c-5.2-5.2-5.2-13.5-9.6-19.3c0.3,0.2,1,0,1.7,1.4c-6.6-14.7-9.1-26.3-8.1-41.4l0.3,0.6
			c-0.1-3.1,2.2-5.2,4.3-6.2c6.1-7,15-4.2,22.7-4.8c-4.4,0.2-3.5-2.2,1-0.6c6.4,2.4,13,2.9,18.3-1.7c0.9,0.5-1.6-16.7,0.8-14.2
			c1.5,2.1,0.6-3.2,1.9-0.1c1.2,1.6,1.7-3.6,3.1-4c5.1-6.1,14.9-9.5,23.4-11.5c4.2,2,7.8-1.3,11.9,1c3.6-0.6,4-2.6,8.1-0.7
			c0.9,0.2,1.7,0.3,0.6,0.8c12.4-0.4,25,0.9,37.1,2.1c0.6,1,8.5,3.6,3.3,3.4c-0.4,0-1.1-0.3-1-0.6c-2.1,3.8,8.2,3.6,9.3,7.1
			c-1.5-3.7,1.3-0.7,1.7,1.2c-0.4-0.1-0.7-0.2-1.1-0.3c0.5,1.7,0.5,3.3,0.5,5.1c-0.2,1-1.1,2.8-0.2,3.6c-0.2-0.8,0.4-1.9,0.8-2.6
			c0,3.2,2.2,10,4.5,11.4c-0.2-0.2-0.3-1.8,0.1-1c0.5,1.1,2,1.7,3,2.7c5,7.2,15.2,1.6,23,3.6c-0.7-1.6,3.8-2.1,3.2-0.3
			c6.9-0.9,2.3,2.4,8.7,2.5l-0.7,0.7c4.2-5.2,5.8,1.3,9.8,1c-2.8-2.9,5.2-1,1.2-0.1c0.8,0.6,1.8,0.8,2.1,1.8
			c-1.5-0.4-1.1,1.3-0.4,2.1c-0.6-0.2-1.2-0.3-1.8-0.3c8.6,3.9,0.3,16.5,1.9,23.2c-0.6-1.9-2.4,2.6-3.1,0.8c0.6,2.7-1,9.7-3.3,11.8
			l0.1-0.6c-5.3,9-6.2,17.1-12.8,25.1c1.4,0.3-1.9,4.4,0.2,4.2c-3.3,10.6-28.6,27.8-11.2,32.4l-2.6-0.3c4.1,0.2,24.7,4.7,13.1,5.3
			c-3.1,1.3-26.7-0.6-10.6-0.9l1.3-1.2c-11-2.1-19.9,1.2-30.7,0.8c13.7,1.1-2.8,1.1-5.4,0.9l2.1-0.9l-15-0.6l2.1,1.2
			c-7.3-0.6-9.9-2.6-18.1-0.9c-3.7,0.9,6.9,1.7-0.7,1.9c-9.8-0.7-24.5-2-37-2.4c2,0.6-5.4,3-6,0.4c-13.2,1.7-4.9-2.5-18.1-1.2
			c-10.9,6-9.3-1.4-22,2.3c5.3-0.3,2.5,2.6-4,2l1.7-1.1c-3.5,0.4-6.2,0.7-9.8,0.6C439.8,665.9,431,667.1,434,663.2z"/>
		<path class="st0" d="M809.3,853.4c0-0.7-0.1-1.4-0.2-2.1l0.6,0.5c-0.4-1.7-0.7-3.3-1-4.9c-0.1-0.4-0.2-0.7-0.3-1.2
			c-0.1-0.4-0.3-0.7-0.3-1.1c-0.3-0.7-0.4-1.5-0.6-2.1c-0.7-2.8-1.7-5.4-2.7-7.7c-0.5-1.2-1-2.3-1.7-3.4c-0.6-1.1-1.2-2.1-1.8-3.1
			c-1.2-2-2.7-3.9-4.3-5.7c0.7-1.3-0.6-3.8-2.2-6.3c-1.8-2.5-3.8-5-4.4-6.6l0.4,0.2c-3.2-2.9-5.5-6.5-7.9-10.1c-2.4-3.5-5-7-8.6-9.3
			c0.4,0.1,0.9-0.3,1.9,0.6c-1-0.8-2.1-1.8-3.1-2.7c-0.6-0.6-1.2-1.1-1.8-1.6c-0.6-0.5-1.2-1-1.7-1.5c-2.1-1.9-3.5-3.5-3.3-4.2
			c-5.6-4.4-12.7-9.3-19.6-13c-6.9-3.7-13.8-6.2-18.5-6.6l0.7-0.2c-1.3-0.1-2.4-0.3-3.3-0.5c-0.9-0.3-1.8-0.5-2.6-0.7
			c-0.8-0.3-1.7-0.6-2.6-0.9c-1-0.3-2.1-0.6-3.5-0.7c-0.3-0.3-0.6-0.5-0.6-0.6c-0.7,0-1.6-0.1-2.3-0.2c-0.8-0.1-1.7-0.2-2.6-0.3
			c-1.9-0.3-3.8-0.7-5.7-1.1c-0.9-0.2-1.9-0.4-2.9-0.6c-0.5-0.1-0.9-0.2-1.4-0.3s-0.8-0.2-1.3-0.2c-1.7-0.3-3.1-0.4-4.4-0.3
			l-0.2-1.1c-3.7-0.3-7.4-0.6-11-0.5c1.4,0.2,2.8,0.3,4.1,0.4c-0.7,1.4-2.9,0.8-5.7,0.3c-1.5-0.4-3.1-0.6-4.9-0.7
			c-0.9-0.1-1.9,0-2.8,0.1c-0.9,0.1-1.9,0.3-3,0.6c-0.9,0-1.9,0.2-2.8,0.4c-0.5,0.1-0.9,0.3-1.4,0.4c-0.5,0.1-0.9,0.3-1.4,0.6
			c-1.9,0.7-3.6,1.7-5.4,2.6c-1.8,1-3.5,1.9-5.3,2.6c-1.8,0.7-3.5,1.3-5.5,1.4c-1.6,1.1-0.9,0.4-0.6-0.3c0.3-0.3,0.4-0.7,0.2-0.7
			c-0.3-0.1-0.7,0-2,0.6c-0.3-0.7,0.3-1.1,0.7-1.4c0.4-0.3,0.7-0.6-0.2-0.9c-1.2,0.6-2.5,0.8-3.6,1.1c-1.2,0.3-2.3,0.3-3.5,0.6
			c-2.3,0.5-4.9,0.9-7.8,2.6l-0.7-1c-0.9,0.6-1.9,1.2-2.8,1.7c-0.9,0.6-1.9,1-2.8,1.4s-1.9,0.7-2.8,1.2c-0.9,0.4-1.9,0.7-2.7,1.1
			c-3.5,1.3-6.8,2.8-8.7,5.1c-3.5,2.9-5.4,3-6.9,3.2c-0.8,0.2-1.7,0.4-2.7,1c-0.6,0.3-1.1,0.7-1.7,1.3c-0.6,0.6-1.3,1.4-2.1,2.3
			c-1.3,0.4-2.6,0.7-3.9,1.1c-1.7,1.2-1.9,2.1-2.2,3c-0.2,0.4-0.3,0.8-0.7,1.3c-0.4,0.5-1,0.9-1.9,1.7c-0.5-0.9-4.7,3.4-3.4,0.8
			c-0.6,0.4-1.1,0.7-1.6,1.2c-0.5,0.5-1,0.8-1.5,1.3c-0.9,0.9-1.9,1.9-2.7,2.9c-0.8,1-1.7,2.1-2.6,3.1c-0.8,1.1-1.7,2.2-2.5,3.4
			c-0.7,1.2-1.7,2.4-2.5,3.5c-0.8,1.2-1.7,2.5-2.6,3.7c-0.9,1.2-1.9,2.5-2.9,3.8c-1,1.3-2.1,2.6-3.2,3.9c0.1,1.8-1,4-2,6.1
			c-0.9,2.1-1.9,4.2-1.8,5.5c-0.5-0.1-1.9,3.1-3.1,5.2c-0.6,1.1-1,1.9-1.2,2c-0.2,0.1-0.3-0.1-0.3-0.6c0-0.4,0.1-1.1,0.3-2
			c0.2-0.7,0.6-1.7,0.9-1.6l-0.6-1.3c-2.6,3.1-3.6,6.7-4.4,10.1c-0.3,1.8-0.6,3.5-0.9,5.4c-0.3,1.8-0.7,3.6-1.3,5.5
			c1-2.1,1.7-5,1.9-2.9c-0.7,2.2-1.5,4.5-2,6.9l-0.6-1.7l-1.5,5.2c-0.5,1.7-0.8,3.5-1.2,5.3l1.4-1.2c-0.4,1.2-0.7,2.3-1.2,3.2
			c-0.4,0.9-0.7,1.9-1.1,2.7c-0.6,1.8-1,3.7-0.3,6.8c0.7,2.7,1.9-4.8,1.9,0.7c-0.3,1.7-0.7,3.6-1,5.7c-0.2,1-0.3,2.1-0.5,3.2
			c-0.1,0.6-0.2,1.1-0.3,1.7c-0.1,0.6-0.1,1.2-0.2,1.7c-0.4,4.6-0.5,9.5-0.1,14c1.2-1,1.5,1.4,2.1,3.8l-1.1,0.5
			c1.6,4.5,1.2,5.5,0.6,6.5c-0.6,1-1,2,0.7,6.5l-1-0.6c1,0.6,1.9,1.2,3,1.9c2.2,3.8,1.9,5,1.9,6.4c0,0.7,0,1.4,0.4,2.4
			c0.2,0.6,0.5,1.1,0.9,1.9c0.4,0.7,1,1.6,1.8,2.5c-1.5-3.4,1.8-2.5,3,1.9l-1.5-0.6c1.2,2.2,1.9,2.9,2.3,4.4
			c-1.2-1.2-1.9-0.1-0.1,3.2l-2.3-1.7c1.7,1.9,3.1,3.7,4.9,5.5c0.4,1.3,0.9,2.8,1.7,4.3c0.7,1.4,1.7,2.9,2.4,4.2
			c0.7,1.4,1.7,2.6,2.1,3.6c0.6,1.1,0.9,2,0.9,2.7c0,0,0.3,0.6,1,1.7c0.6,0.9,1.5,2.2,2.5,3.5c0.9,1.3,2.1,2.6,3.1,3.7
			c1.1,1.1,2,1.9,2.8,2.1c-2.4-1.1,1.6,4-0.6,3.5c0.7,0.4,1.7,1.1,2.8,1.9s2.3,1.8,3.4,2.8c0.6,0.6,1.2,1.1,1.7,1.6
			c0.6,0.6,1.1,1,1.6,1.6c0.9,1,1.7,2,2.1,2.9l-0.6-0.4c4.4,5,9.3,8.3,14.1,11.1c4.7,3,9.5,5.4,14.3,8.9c0.2-1.4,5.4,2.1,4.8-0.2
			c1.5,0.6,2.9,1,4.2,1.7c1.3,0.6,2.6,1.2,3.8,1.8c1.2,0.6,2.4,1.2,3.5,1.8c0.6,0.3,1.1,0.6,1.7,0.8c0.6,0.3,1.1,0.6,1.7,0.7
			c1.1,0.5,2.1,0.9,3.1,1.2c0.9,0.3,1.9,0.6,2.8,0.7c1.8,0.3,3.3,0,4.7-1c1.3,0.3,2.4,0.6,3.2,0.9c0.8,0.3,1.6,0.6,2.1,1
			c1.2,0.7,2,1.3,3.4,1.7l-1.4,0.1c2.6,0.4,4.7,0.6,6.6,0.9c1.9,0.2,3.4,0.3,4.9,0.5c1.5,0.2,3,0.3,4.4,0.4c0.7,0.1,1.6,0.2,2.4,0.3
			c0.8,0.1,1.7,0.2,2.7,0.2c3.9-0.5,4.4-2.8,11.2-2.4c-1.1,0.6-0.9,0.7-0.2,0.7c0.4,0,0.8,0,1.5,0c0.6-0.1,1.2-0.1,1.9-0.2
			c-1.7,0.3-2.1,0.7,1.3,1.1c0.5-0.3,1.2-0.6,1.9-0.7c0,0.1,0.2,0.2,0.1,0.3c1.1-0.2,1.8-0.3,2.3-0.5c0.5-0.2,0.7-0.3,0.7-0.3
			c0.1-0.2-0.6-0.2-1.7-0.1c0.1-0.2-0.1-0.3-0.7-0.6c1.2,0.3,2.5,0.2,3.8,0.1c1.4-0.1,2.8-0.3,4-0.5c2.6-0.4,4.6-0.7,5.1,0.1
			c6.3-1.5,11.5-3.4,16.1-5.6c1.2-0.6,2.4-1.1,3.5-1.7c1.2-0.6,2.2-1.2,3.4-1.8c0.6-0.3,1.2-0.6,1.7-0.8c0.6-0.3,1.1-0.6,1.7-0.9
			c1.1-0.6,2.2-1.2,3.4-1.9c1.5,0.3-0.5,2-3.1,3.5c2.2-1.2,4.4-2.2,6.7-3.5c0.3,0.6-0.6,1.2-1.9,1.9c-1.2,0.6-2.8,1.2-3.8,1.9
			c2.2-0.5,4.4-1.3,6.5-2.5c1-0.6,2-1.2,3.1-1.8c1-0.7,1.9-1.4,3-2.1s2-1.4,3-2.1c1-0.7,2-1.5,3.1-2.2c0.6-0.4,1.1-0.7,1.6-1.1
			c0.6-0.4,1.1-0.7,1.7-1.1c1.1-0.7,2.2-1.3,3.5-1.9c0.4-0.7,0.7-1.4,1.2-2.1l0.6-0.3c-0.1-0.1,0-0.5,0.2-0.9
			c0.3-0.2,0.7-0.4,1.2-0.8l-1,0.5c0.5-0.7,1.1-1.6,1.8-2.2c1.8-0.2,1.6,2,5.4-1.5c1-0.5,1.9-1.2,3-2.2c1-1,2-2.1,3.1-3.3
			c1.9-2.5,3.8-5.2,5.3-7.4c-2,2.1-1.9,0.9-1.3-0.3c1.7-1.9,3.5-2.4,4.4-4.3l1,0.6c-0.3-0.5,0.4-1.8,1.1-3.1c0.9-1.7,2-3.6,2.1-4.2
			c1.7-0.6-1.6,3.9-1.3,4.8c1.6-2.1,2.5-3.5,3.1-4.4c0.6-0.9,1-1.5,1.4-2c0.3-0.6,0.7-1.1,1.3-2.1c0.6-1,1.6-2.3,2.8-4.6
			c1.8-5.4-1.7,0.2-1.5-2.8c1.2-2.1,1.9-4.4,2.9-6.8c0.5-1.2,0.9-2.3,1.5-3.5c0.6-1.2,1.2-2.3,1.9-3.5c-0.6,0.4-1.2,0.7-1.9,1.1
			c1.3-4.4,2.4-7.7,3.4-10.6c0.3-0.7,0.6-1.5,0.8-2.1c0.3-0.7,0.6-1.4,0.8-2.1c0.6-1.4,1.2-2.7,1.9-4.1c0.6-6.9,0.5-12.5,0-17
			c0.6-5.1,0.9-10.3,0.9-15.6c0-1.2,0-2.4-0.1-3.6c0.6-1.3,1.1-3,1.5-5.1c0.3-1.3,0.6-2.9,0.8-4.5c0.3-1.7,0.4-3.5,0.6-5.6
			c0.2-2.1,0.2-4.4,0.3-6.9c0-1.2-0.1-2.6-0.2-3.9C809.4,854.7,809.3,854,809.3,853.4z"/>
		<path class="st1" d="M734.3,817.3c-0.2-0.1-0.3-0.2-0.4-0.3c-1.1-0.6-2.3-1.2-3.5-1.9c-1.2-0.6-2.6-1.2-3.9-1.8
			c-0.3-0.1-0.5-0.2-0.7-0.3c-0.3-0.1-0.4-0.2-0.6-0.3c-0.4-0.2-0.7-0.3-1.2-0.4c-1.5-0.5-2.7-0.7-3.4-0.7c1.2,0.2,0.3-0.4-0.7-0.8
			c-1-0.5-2.1-1-1.2-1c-1.7-0.2-4.7-0.6-7.9-1c-3.1-0.4-6.3-0.6-8.1-0.9c0.3,0,0.5-0.1,0.7-0.1c-3.4-0.3-6.7-0.2-9.6,0.2
			c-0.7,0.1-1.5,0.3-2.2,0.3c-0.4,0.1-0.7,0.1-1.1,0.2c-0.4,0.1-0.7,0.2-1.1,0.3c-0.7,0.2-1.5,0.3-2.1,0.5c-0.7,0.2-1.4,0.4-2.1,0.6
			l-1,0.3l-1,0.3l-2,0.6c-1.3,0.6-2.7,0.9-4,1.5c-2.7,1-5.4,2.3-8.1,3.7c0.4,0.2-0.8,0.9-1.9,1.7c-1.1,0.8-2,1.7-1.2,1.5
			c-2.5,1.9-4.9,3.8-6.9,5.6c-2.1,1.9-4,3.5-5.6,5.4c-3.2,3.5-5.4,6.7-5.5,9.2c-1.4,2.5-2.3,3.9-3.1,4.9c-0.7,1.1-1.4,1.9-2,3.2
			c0.2-0.5,0.3-0.8,0.5-1.3c-0.6,1.2-1,2.3-1.4,3.4c-0.4,1.1-0.7,2-1,3c-0.3,0.9-0.6,1.8-0.8,2.6c-0.3,0.7-0.5,1.6-0.7,2.3
			c-0.3,0.7-0.4,1.5-0.6,2.1c-0.1,0.4-0.3,0.7-0.3,1.1c-0.1,0.3-0.2,0.6-0.2,0.8c-0.1,0.3-0.2,0.6-0.2,0.8c0,0.2-0.1,0.3-0.1,0.5
			v0.2c0,0,0,0.1-0.1,0.1c-0.1,0-0.2,0-0.3,0c-0.3,0.1-0.6,0.2-0.7,0.3c-0.2,0.1-0.3,0.2-0.4,0.3l-0.3,0.1c-0.1,0-0.3,0.1-0.5,0.1
			c-0.7,0.2-1.6,0.3-2.6,0.3c-0.4,0-1.4,0.1-2.3,0.1s-2,0-3.2-0.1c1.3-0.3,1.2-0.3,0.4-0.3c-0.8-0.1-2.5,0-4.2,0c0,0.4,0,0.7,0,1.2
			c0-0.5,0-0.9-0.1-1.2c0.8-0.1,0.9-0.2-0.3-0.3c-0.1,0.5-0.2,1.4-0.3,2.9c0.1,0.4,0.2,0.9,0.2,1.5c0.1,0.6,0.1,1.2,0.2,1.9
			c0,0.1-0.1,0.3-0.1,0.2c0,0.5,0,0.9,0,1.3c0,0.3,0,0.4,0,0.6c0,0.1,0,0.3,0,0.3c0,0.2,0,0.4,0,0.6c0,0.3,0,0.5,0,0.7
			c0,0.8,0.1,1.3,0.1,1.4s0.1-0.2,0.1-0.7c0-0.4,0-1,0.1-1.8c0,0.1,0.1,0,0.2-0.1c0-0.1,0.1-0.2,0.1-0.3c0-0.1,0-0.1,0.1-0.2
			c0-0.1,0-0.3,0.1-0.3v0.3v0.2c0,0.1,0,0.3,0,0.3c0,0.1,0,0.3,0,0.3c0,0.2,0,0.4,0,0.6c0,0.8-0.1,1.7-0.1,2.6c0,0.7,0,1.7-0.1,2.4
			c0,0.7,0,1.7,0,2.4c2.5,0,4.9,0,6.8,0.1c0.5,0,0.8,0,1.2,0.1c0.2,0,0.4,0,0.6,0c0.1,0,0.2,0,0.3,0c0.1,0,0.1,0,0.2,0
			c0.2,0,0.4,0.1,0.5,0.1c0.2,0.1,0.1,0.1,0.2,0.2c0.9-0.1,1.9-0.1,2.6-0.2c0,0.5,0,1,0,1.5c0,0.3,0,0.6,0,0.7v0.4v0.7v0.4v0.3v0.4
			c0,0.3,0.1,0.6,0.1,0.8c0,0.3,0.1,0.6,0.1,0.8v0.5v0.3v0.1v0.1c-0.6,0.1-1.1,0.1-1.6,0.2l-0.8,0.1h-0.5h-0.3h-0.4
			c-2.7,0.1-5.4,0.2-8.2,0.3c0,0.5,0,0.9,0,1.4c-0.3,0.7-0.5-0.1-0.6-1.9c1.1-0.2,2.8-0.3,4.7-0.3l-4.9,0.1l0.1,6.6
			c-0.3-0.1-0.3-1.1-0.4-2.5c-0.1-1.2-0.1-2.9-0.1-4.4c1.4,0,2.7,0,3.8,0c-1.3-0.1-2.7-0.2-4-0.2c-0.1,1.3-0.1,2.7-0.1,4.1
			c0,0.8,0,1.7,0,2.5c0,0.7,0,1.4,0,2.1c0,1.5,0.1,3.1,0.1,4.4c0.1,1.4,0.1,2.8,0.2,4.2c3.5-0.1,7.2-0.3,11-0.3c0.5,0,0.8,0,1.3,0
			c0.3,0,0.6,0,0.9,0h0.5c0.2,0,0.4-0.1,0.3,0.3c0,0.3,0,0.7,0,1c0.2,0.3,0.4,0.5,0.6,0.8v0.2v0.3c0.3-0.1,1,2.2,1.4,3.7
			c-0.1,0.7-0.4,0.8-0.5,1.3s-0.1,1.5,0.7,4c0.4,2.1,1.4,4.9,2.8,7.9c1.4,2.9,3.1,5.8,4.8,8.1c-1.5-2.6-0.7-1.9,0.1-0.9
			c1.4,2.2,1.9,3.8,3.3,5.4l-0.3,0.5c0.1,0,0.4,0.2,0.6,0.5c0.5,0.5,1.1,1.2,1.9,1.9c0.7,0.7,1.5,1.5,2.1,2.1
			c0.6,0.6,1.2,1.1,1.4,1.2c0.4,0.7-0.5,0.1-1.4-0.8s-2.1-2-2.4-2.1c0.8,1,1.7,1.8,2.2,2.5c0.6,0.7,1.2,1.2,1.6,1.7
			c0.8,0.8,1.3,1.3,1.9,1.8c1.1,0.8,1.9,1.9,6.4,5c2.6,1.4,2.5,1.1,2,0.6s-1.2-1.2,0.1-0.7c1.1,0.6,2.1,1.2,3.3,1.8
			c0.6,0.3,1.2,0.6,1.7,0.7c0.6,0.3,1.2,0.5,1.8,0.7c1.2,0.6,2.4,0.9,3.6,1.5c0.6,0.3,1.2,0.5,1.9,0.7c0.6,0.3,1.3,0.6,2,0.7
			c-0.6-0.3-1.1-0.7-1.6-1.1c4.4,1.2,8.1,1.8,11.5,2.2c3.2,0.5,6.2,0.7,9.4,1c5.7-0.6,10.4-1.7,14.3-3c6.1-1.6,11.1-3.8,15-6.2
			l0.1,0.1c0.3,0.2,0.5,0,0.6-0.5c0.3-0.2,0.6-0.4,0.7-0.5l-0.6-2.3c0.5-0.6,0.7-1,0.6-1.3c-0.1-0.3-0.4-0.3-0.8-0.1
			c-0.1-0.7-0.2-1.7-0.3-2.7c-0.2-1.1-0.3-2.3-0.6-3.7c-0.2-0.7-0.3-1.6-0.4-2.3c-0.1-0.5-0.2-0.8-0.3-1.3c-0.1-0.3-0.1-0.5-0.2-0.7
			l-0.1-0.4v-0.1h-0.1H728c-1.2,0.6-2.8,1.2-4.4,1.9c-0.8,0.4-1.8,0.7-2.7,1c-0.3,0.1-0.5,0.2-0.6,0.3c-0.2,0.1-0.4,0.1-0.6,0.2
			c-0.4,0.1-0.7,0.3-1.2,0.3c-3.1,0.7-6.5,1.5-10.4,1.7l0.6-0.3c-6.3,0.7-11.4,0.3-15.7-0.5c-2.2-0.4-4.4-0.9-6.3-1.7
			c-2-0.6-4-1.4-5.9-2.2c-0.3-0.9-2.4-2.1-4.4-4c-0.6-0.5-1.1-0.8-1.6-1.3s-1-0.8-1.4-1.3c-0.7-0.8-1.5-1.8-1.9-2.4l0.3,0.2
			c-2.6-2.7-4.4-6.3-5.6-10.1c-0.6-1.9-1.1-3.8-1.7-5.6c-0.2-0.5-0.3-0.9-0.4-1.4l-0.2-0.6c-0.2-0.3-0.3-0.7-0.5-1.2
			c0.1,0.1,0.4,0.3,0.5,0.6c-0.1-0.4-0.2-0.7-0.3-1.1c0-0.1,0-0.2,0-0.3h0.2c0.2,0,0.3,0,0.4,0c0.3,0,0.5,0,0.7,0c0.3,0,0.5,0,0.6,0
			c0.1,0,0.2,0,0.3,0c0.1,0,0.1,0,0.2,0c0.2,0,0.3,0,0.4,0c0.9,0.1,1.5,0.2,1.6,0.4c13.8-0.2,33,0.2,41.9-1l-0.6,0.3
			c1.2-0.2,2.1-0.3,3-0.3c0.5,0,0.8-0.1,1.2-0.1c0.3,0,0.4,0,0.6,0c0.3,0,0.6,0,0.8,0c2.3,0,4.7,0.1,8,0c0-0.7-0.1-1.7-0.1-2.6
			c0.1-0.3,0.1-0.6,0.1-0.7c0,0.1,0,0.2,0,0.3c0-0.1,0-0.3,0-0.4l0,0c0-0.3,0-0.5-0.1-0.7c0-0.3,0-0.6-0.1-0.7
			c0-0.6-0.1-1.2-0.1-1.7c0-0.3,0-0.6,0-0.8c0-0.2,0-0.5,0-0.7c0-0.2,0-0.3,0-0.6V896v-0.5c0-1.2-0.1-2.4-0.1-3.7c0-1.1,0-2.2,0-3.4
			c-3.2,0-6.7,0-9.6-0.1c-2.1,0-4,0-5.4,0.1l-0.3-0.5l-10.9,0.1l4.1,0.1c-1.4,1.3-8.2-0.8-16.1,0c-3.7-0.1-7.5,0.6-11.3,1.2
			c-1.9,0.3-3.8,0.6-5.7,0.7c-0.9,0.1-1.9,0.2-2.9,0.2h-0.8h-0.7c-0.4,0-0.8-0.1-1.2-0.1c-1.7,0.3-0.8,0.1-0.3-0.3
			c0.3-0.2,0.5-0.3,0.4-0.3c-0.2-0.1-0.6-0.1-1.7,0c0.4-0.7,2-0.5,1.3-1c-0.4,0.1-0.8,0.1-1.2,0.1c-0.2,0-0.4,0-0.6,0
			c-0.1,0,0-0.1-0.1-0.1v-0.2v-0.3c0.1-0.7,0.2-1.5,0.3-2.1c0-0.2,0.1-0.3,0.1-0.6v-0.3c0-0.1,0-0.2,0-0.3c0.1-0.5,0.1-1,0.2-1.6
			c0.1-0.7,0.1-1.5,0.1-2.5c0.2,0.2,0.3,0.3,0.6,0.4c0.3-0.2,0.8-0.3,1.3-0.3c0.3,0,0.6-0.1,0.7-0.1h0.4h0.7c2,0,4,0.1,5.8,0.2
			c3.7,0.2,7.1,0.4,10-0.1c9-0.5,6,1.6,15.3,0.6l3.6,0.7c4,0.1,2.9-0.8,7.2-0.6c-0.3,0.5,5.6,0.4,3.1,0.7c0.8,0.1,1.7,0.1,2.6,0.2
			h1.3c0.6,0,1.1,0,1.7,0c3.1,0,6.3,0,9.5-0.1c-0.1-3.1-0.2-6.4-0.2-9.7v-0.8c0-0.5,0-0.9,0-1.4c0-0.9,0-1.9-0.1-2.8
			c0-1.6,0-3.1-0.1-4.8c-1.7,0-3.3,0-5,0c-1.7,0-3.4,0-5.1-0.1c-2-0.1-4.1-0.2-6.3-0.4c-2.9,0.8-9.5,0.4-11.6,1
			c-0.4-0.4-13.3-0.1-5.8-0.9c0.6-0.1,1.8-0.1,1.7,0.1l0.9-0.6c-7.5-1-13.6,0.6-21.1,0.4c2.1,0.2,5.1,0.2,3.1,0.5l-6.9-0.1l1.5-0.5
			h-1.3c-0.4,0-1,0-0.9,0l-0.5-0.1l-0.4-0.1c-0.1-0.1-0.3,0-0.3-0.3c-0.2,0.2-0.3,0.3-0.4,0.4c-0.1,0.2-0.2,0.2-0.2,0.3
			c-0.3,0,0-0.3,0.1-0.4c0.1-0.2,0.2-0.3,0.3-0.5c0.2-0.3,0.3-0.5,0.5-0.6c0.1-0.1,0.1-0.2,0.2-0.2c0,0,0-0.1,0.1-0.1l0.1-0.2
			c0-0.1,0.1-0.3,0.1-0.3c0.3-0.9,0.6-2,0.7-3.2c0.4-2.4-2.1,4-0.7-0.7c1.3-2.9,3.1-6.3,5.6-9.4c1.2-1.6,2.6-2.9,4.1-4.4
			c0.4-0.4,0.7-0.7,1.2-1.1c0.4-0.3,0.7-0.6,1.1-0.9c0.7-0.6,1.6-1.2,2.3-1.7c-0.9-0.1,0.7-1.3,2.5-2.5l0.5,0.3
			c1.7-1.1,2.7-1.7,3.5-1.9c0.7-0.3,1.2-0.3,1.6-0.2c0.7,0.1,1.5,0,5.3-1c0.4-0.3,0.8-0.6,1.2-1c3.5-0.9,4.6-0.6,5.7-0.4
			c1.1,0.3,2.2,0.3,6.5,0.2c-1.7-0.2-2-0.5-1.5-0.7c0.6-0.3,2.1-0.3,4.1,0.2l-1.1,0.3c2.2,0.3,3.1,0.3,4.4,0.7
			c-1.4,0-0.8,0.5,2.3,1.4c-0.7,0-1.6,0-2.2,0c1,0.2,2.1,0.3,3.1,0.5l0.7,0.2c0.3,0.1,0.7,0.3,1.2,0.4l0.6,0.2
			c0.3,0.1,0.4,0.2,0.6,0.3l1.3,0.6c1.9,1.1,4,2.4,6.2,3.6c0.3-0.3,0.3-0.8,0.5-1.3c0.2-0.5,0.3-1,0.5-1.5c0.3-1,0.6-2,0.9-3.1
			c0.6-1.9,1.2-3.9,1.7-5.6c0.3-1,0.6-1.9,0.9-2.7c0.1-0.3,0.3-0.6,0.3-0.8c0.1-0.3,0.3-0.6,0.3-0.8c0.3-0.6,0.4-1,0.6-1.3
			c0,0,0.4-1.2,0.9-3.1c0.2-0.5,0.3-1,0.4-1.5C734.1,818,734.2,817.7,734.3,817.3C734.6,817.5,734.3,817.4,734.3,817.3z"/>
		<path class="st0" d="M537.4,355.7c-2.3,3.5-4.4,3.7-5.6,7.9c-1,1.8-1.6,4-2.1,5.8c0.4,0.7,0.2,1.3-0.2,1.9c-0.3,0.6-0.6,1.2-0.3,2
			l-0.8,0.2c0.3,0.5,0.3,1-0.3,1.2l-0.2-0.1c0.3,0.7-0.3,1.2-0.1,1.7l-0.2-0.1l-0.2,0.7l-0.3-0.3c0.3,1.2-0.2,2.1-0.7,3l0.8,0.3
			c-1.7,1.5-0.2,2.8-1.8,4l-0.3-0.1c1.6,2.9-2.7,2.9-1.2,5.7c-0.2-0.4-0.5,0-0.7-0.1c-0.1,1.1-0.3,2.2,1.4,2.7
			c-0.3,0.7-0.7,0.5-1.4,0.3c0.7,0.3,0.8,0.9,0.7,1.6l-0.3-0.3l-0.3,1.7l1.5,0.1c-0.6,0.7-1.8-0.3-1.7,0.7l1.2,0.3
			c-0.6,1.2-2.6,1.4-3.7,2.3c-0.5,1.2-0.7,2.5-0.7,3.8c-0.1,1.3-0.2,2.6-0.2,4c-0.1,2.6-0.4,5.1-1.8,7.2l-0.9,0.1
			c-1.3-0.2,1.7,1.7,0.5,1.7l0.6,0.6c-0.3,0.1-0.6,0.4-0.7,0.1c-0.2,0.5,0.1,0.6,0.5,0.9l-0.9,0.4c-0.9,1.9,0.4,3.8-0.2,5.8
			c-1,1.2-1.2,3.1-1.1,4.9c0.2,1.9,0.6,3.8,1,5.2c0.8,2,0,4-0.8,6.1c-0.8,2.1-1.7,4.3-0.4,6.3c-0.2,0.2,0.3,0.5,0.4,0.5
			c-0.1,1.2-0.1,2.5-0.1,3.6c0,0,0,1.1,0.3,2.6c0.3,1.5,0.7,3.2,1.5,4.5c0.4,0.7,0.8,1.2,1.4,1.6c0.3,0.2,0.6,0.3,0.9,0.3
			c0.3,0,0.7,0,1-0.2c1.5-0.6,3.2-2.1,5.7-5.4l0.3,0.1c0.6-1.9,0.6-3.1-0.8-4.3c1.8-0.3,0.2-1.6,0.7-2h0.2c-1.4-1.1,1.1-2.3-0.2-3.4
			c0.2,0.1,0.6,0.1,0.7,0.3c-0.3-0.7-0.6-1.9,0.4-1.9c-0.3-1.9,0.3-4.4-1.3-5.8l0.3,0.1c-1.1-0.7-0.2-0.9-0.6-1.7
			c0.2,0,0.3-0.1,0.3-0.1c-1.1-0.8-0.1-2.2-0.5-2.9h0.7l-0.1-1.6l-0.2,0.6c-1.9-0.4,1.2-1.1,0.2-2.2c0.3-1-3.7-2.5-2.7-3.5
			c-0.8-0.6,1.4,0.6,0.7-0.3c1,0.1,0.6,0.5,1.4,0.3c-0.4-0.7,1.2-1.1,0.6-2.1l0.7,0.1c-1.2-1.4,1.3-2.1,0.1-3.1
			c-0.5-1.3,2.4-0.5,1.1-2l1.1-0.3c0.3-0.6-1.2-0.6-0.6-1.1c0.6,0.2,0.6-0.7,1.2-0.3c1.2-1.2-1-3.1,1.1-4.4
			c-1.2-0.6-0.3-1.4-1.2-1.9c0.6,0.1,0.5-1.8,1.4-0.6c0.1,0.1,0,0.3-0.2,0.3l0.7,0.3c1.7-0.7-0.4-2,0.1-3c-0.3,0.3-0.3,0.6-0.7,0.3
			l0.3-0.9l0.6,0.3l0.7-1.3h-0.7c0.6-0.6,1.9-0.6,1-1.6c-0.6-0.5-1.2,0.4-1.2-0.4c0.7-0.7,1.9-1.9,2.4-3.1c-0.8-0.2-0.7-0.4-0.8-0.7
			l0.7,0.2c-0.7-1.5,1.8,0,1.2-1.4l0.5,0.3l-1.5-0.7c-1.2-1.5,1.7-0.2,0-1.9c0,0.6-1.7-0.3-1.2-0.7l0.7,0.4
			c-0.1-0.4-0.3-0.6-0.1-0.7c0.3,0.3,1,0.4,1-0.1l0.7,0.6l-1-1.3c1-0.5,0.4-1.9,1.5-1.9c0,0,0.9-1.3,0-2c0.6,0.6,1.1-0.3,1.9,0.3
			c-0.6-0.6-0.8-1.9,0.1-2.1l0.1,0.2c1.4-1.4-0.2-3.2,1.4-4.4c-0.8-0.3-0.1-0.8-1.2-1.1c-0.3-1,0.6-1.5,1-1.9s0.6-0.9-0.8-1.9
			c0.1-0.7,1.1-0.6,1.4-0.7l0.1,0.3c0.3-1.4,0.4-1.8,0.8-2.7c-0.1-0.6-1.6-1.3-0.8-2c0.5,0.6,0.6,0.2,0.7-0.2c0,0.3,0.3,0.4,0.7,0.2
			c-0.2-0.2-0.3-0.3-0.3-0.4c0.1,0,0.1,0,0.2,0.1c0-0.6-0.3-0.6-0.4-0.4c-0.1-0.1-0.3-0.1-0.4-0.1c1-0.3,0.6-1.6,1.7-1.2
			c0.5-1.7,0-3.3,0.3-4.9c0.6,0.1,0.9,0.6,0.9,1.1l0.3-1c0.7,0.4,0.2,0.7,0.2,1.1c1.8-0.6-0.2-2.9,1.7-3.6l-0.5-0.6h0.2
			c-0.3-0.2-0.6-0.7-0.6-0.9c0.7,0.2,1.5,0.7,1.8,0.2c0.8-0.2,0.5-1.7,0.5-2.4c-0.3,0.3-0.6,0-0.7-0.3c0.2-0.3,0.8-0.2,0.7-0.6
			l0.8,0.5c-0.8-0.3-0.4-1.3-0.7-1.7c0.7,0.2,0.3,0.7,0.7,1.2c0.6-1.3,0.3-0.6,0.9-1.9c-0.3-1-0.8-0.3-1.5-1.1
			c0.2-0.7-0.1-1.7,0.7-2l-0.8-0.3c0.1-1.5,0.6-2.1,1.8-2.4c-0.3-3-0.8-4.9-1.6-6.1c-0.7-1.2-1.6-1.7-2.4-1.8
			c-1.7-0.2-3.2,1.2-3.2,1.2C537.8,348.1,539,351.3,537.4,355.7z"/>
		<path class="st0" d="M390,447.5c-0.2,3.1-1.7,4-0.7,7.1c0,0.4,0.1,0.7,0.1,1.2c0.1,0.4,0.2,0.7,0.3,1.2c0.3,0.7,0.5,1.5,0.7,2.1
			c1.4,0.5,0.3,1.9,1.6,2.6l-0.7,0.5c0.4,0.3,0.7,0.5,0.4,0.8h-0.3c0.6,0.3,0.4,0.8,0.7,1h-0.3l0.3,0.5h-0.3c0.7,0.6,0.9,1.3,0.8,2
			l0.8-0.3c-0.7,1.7,1.2,1.7,0.4,3.2h-0.3c1.3,0.6,1.1,1.2,0.8,2c-0.3,0.7-0.5,1.5,0.8,2c-0.3-0.2-0.4,0.3-0.6,0.3
			c0.5,0.7,0.7,1.5,2.5,1c0.2,0.6-0.4,0.6-1.1,0.8c0.7-0.3,1.2,0.2,1.3,0.6l-0.3-0.1l0.6,1.2l1.3-0.6c-0.3,0.7-1.7,0.7-1.2,1.2
			l1.2-0.4c0,0.9-1.6,2-2.1,3.1c0.3,1.9,1.6,3.5,2.6,5.1c1.1,1.7,2,3.2,1.7,5.3l-0.7,0.5c-1.2,0.6,2.1,0.2,1.1,0.7l0.7,0.2
			c-0.2,0.3-0.3,0.6-0.7,0.5c0.1,0.4,0.3,0.3,0.7,0.4l-0.6,0.7c0,1.7,1.9,2.1,2.2,3.6c-0.4,1.2,0.3,2.4,1.1,3.5
			c0.5,0.6,0.9,1.1,1.4,1.6c0.6,0.5,1,0.8,1.5,1.2c1.6,0.7,1.5,2.5,1.6,4.3c0.1,1.7,0.3,3.5,1.9,4.1c-0.1,0.2,0.4,0.2,0.6,0.1
			c0.4,0.7,0.8,1.6,1.2,2.4c0,0,0.4,0.7,1.1,1.6c0.7,0.8,1.7,1.8,2.8,2.2c1.1,0.5,2.3,0.5,3.4-0.6c1.1-1.1,2-3.1,3.1-6.5l0.3-0.1
			c-0.2-1.5-0.5-2.2-2.1-2.2c1.4-1.1-0.4-1-0.1-1.7l0.2-0.1c-1.7,0,0.1-2-1.4-2c0.2-0.1,0.6-0.3,0.7-0.2c-0.5-0.4-1.2-0.8-0.3-1.4
			c-0.9-1-1.5-2.9-3.2-2.9l0.3-0.1c-1.2,0.1-0.5-0.5-1.2-0.7c0.1-0.1,0.2-0.2,0.3-0.2c-1.2,0-0.9-1.3-1.6-1.5l0.6-0.3l-0.6-0.9
			l0.1,0.5c-1.8,0.7,0.7-1.2-0.7-1.5c-0.1-0.7-4.2,0.3-3.7-0.7c-1,0,1.5-0.3,0.6-0.6c0.8-0.5,0.7,0,1.3-0.5
			c-0.7-0.3,0.6-1.2-0.3-1.6l0.7-0.3c-1.7-0.3,0.3-1.9-1.2-1.9c-0.9-0.6,1.9-1.5,0.1-1.7l0.8-0.7c0-0.5-1.3,0.3-1-0.4
			c0.6-0.3,0.3-0.7,0.9-0.7c0.6-1.3-2.1-1.3-0.9-3.1c-1.3,0.2-0.8-0.7-1.8-0.6c0.6-0.3-0.4-1.2,1-1c0.1,0,0.2,0.2-0.1,0.3l0.7-0.2
			c1.1-1.2-1.2-1-1.2-1.8c-0.2,0.3,0,0.6-0.6,0.6l-0.2-0.7l0.6-0.1v-1.1l-0.7,0.4c0.3-0.6,1.5-1.2,0.3-1.4c-0.7-0.1-0.8,0.7-1.2,0.4
			c0.3-0.7,0.7-2,0.7-2.9c-0.8,0.3-0.8,0.1-1.1-0.1l0.7-0.3c-1.2-0.6,1.6-0.7,0.5-1.4l0.6-0.1l-1.7,0.3c-1.7-0.3,1.4-0.8-0.8-1.2
			c0.3,0.3-1.7,0.6-1.4,0.1l0.7-0.1c-0.3-0.2-0.6-0.2-0.5-0.4c0.4,0,1.1-0.3,0.8-0.6h0.9l-1.5-0.3c0.6-0.7-0.6-1.2,0.4-1.7
			c0,0,0.3-1.2-1-1.2c0.7,0.1,0.8-0.6,1.7-0.6c-0.8-0.1-1.7-0.7-0.9-1.3l0.1,0.1c0.6-1.4-1.7-1.9-0.8-3.1c-0.8,0.3-0.6-0.5-1.7-0.1
			c-1.4-0.9,1.8-2.6-1.7-2.3c-0.3-0.5,0.7-0.7,0.8-1.1l0.3,0.1c-0.5-0.9-0.6-1.2-0.6-1.9c-0.4-0.3-2-0.1-1.8-0.8
			c0.7,0.1,0.6-0.2,0.5-0.4c0.2,0.2,0.4,0.2,0.7-0.3c-0.3,0-0.3-0.1-0.5-0.1c0.1,0,0.1,0,0.2,0c-0.3-0.4-0.5-0.3-0.6-0.1
			c-0.1,0-0.3,0.1-0.4,0.2c0.7-0.6-0.3-1.2,0.8-1.4c-0.5-1.2-1.7-1.9-2.2-3c0.6-0.2,1.1,0,1.3,0.3l-0.3-0.7c0.8-0.1,0.6,0.4,0.7,0.6
			c1.2-1-1.6-1.7-0.4-2.9l-0.7-0.2l0.1-0.1c-0.3,0-0.8-0.2-0.9-0.3c0.7-0.3,1.7-0.2,1.6-0.6c0.6-0.5-0.5-1.1-0.9-1.7
			c-0.1,0.3-0.5,0.3-0.7,0.2c-0.1-0.3,0.6-0.5,0.3-0.6l1-0.1c-0.9,0.2-1-0.6-1.5-0.7c0.7-0.3,0.6,0.4,1.2,0.4
			c-0.2-1-0.1-0.6-0.3-1.6c-0.7-0.6-0.9,0.2-1.8-0.1c-0.3-0.5-0.9-0.9-0.4-1.6l-0.8,0.3c-0.7-0.9-0.6-1.5,0.3-2.1
			c-1.9-1.7-3.3-2.6-4.6-3.1c-1.2-0.5-2.2-0.4-3.1-0.2c-1.5,0.6-2.1,2-2.1,2c-0.9,1.5-0.7,2.6-0.2,3.8
			C388.7,444.5,389.5,445.7,390,447.5z"/>
		<path class="st0" d="M644.2,434.4c-1.1,0.8-2,1.2-2.9,1.7c-0.8,0.4-1.7,0.9-2.2,2.2c-0.9,0.9-1.6,2.3-2.2,3.4
			c0.6,1.3-1,1.4-0.6,2.6l-0.7-0.3c0.2,0.5,0.2,0.8-0.3,0.7l-0.2-0.2c0.3,0.6-0.3,0.7-0.2,1.1l-0.2-0.2l-0.3,0.5l-0.3-0.3
			c0.1,0.8-0.3,1.5-0.8,1.8l0.7,0.5c-1.6,0.5-0.4,1.9-1.9,2.1l-0.2-0.2c1.2,2.6-2.6,1-1.7,3.5c-0.2-0.3-0.5-0.2-0.6-0.3
			c-0.2,0.7-0.5,1.4,1,2.4c-0.3,0.4-0.7,0-1.3-0.3c0.6,0.4,0.7,0.9,0.5,1.3l-0.2-0.3l-0.4,1.1l1.3,0.6c-0.7,0.3-1.6-0.8-1.6-0.2
			l1,0.6c-0.6,0.6-2.4,0-3.6,0.3c-1.1,1.3-1.5,3.1-1.9,4.8c-0.5,1.7-1,3.2-2.7,4.2l-0.8-0.3c-1.2-0.6,1.4,1.7,0.3,1.2l0.4,0.6
			c-0.3,0-0.6,0.1-0.7-0.3c-0.3,0.3,0,0.4,0.3,0.7h-0.9c-1.2,0.9-0.3,2.6-1.1,3.8c-1.1,0.5-1.7,1.6-1.9,2.9c-0.3,1.2-0.1,2.7,0,3.7
			c0.3,0.7,0.1,1.4-0.4,2c-0.4,0.6-1,1.2-1.6,1.7c-0.6,0.6-1.2,1.2-1.6,1.8c-0.3,0.7-0.4,1.4-0.1,2.1c-0.3,0.1,0.2,0.4,0.3,0.4
			c-0.3,0.7-0.5,1.7-0.7,2.4c0,0-0.1,0.2-0.1,0.5c-0.1,0.3-0.2,0.7-0.2,1.2c0,0.6,0,1.1,0.1,1.7c0.1,0.6,0.3,1.2,0.6,1.7
			c0.3,0.6,0.6,1,1.2,1.3c0.5,0.4,1.1,0.5,1.9,0.4c1.5-0.3,3.5-1,6.6-2.5l0.3,0.1c0.5-0.5,0.7-0.9,0.7-1.3c0-0.4-0.3-0.8-0.8-1.4
			c1.8,0.3,0.4-0.8,1-1l0.2,0.1c-1.2-1,1.5-1.1,0.5-2.1c0.2,0.1,0.6,0.3,0.6,0.4c-0.1-0.6-0.3-1.3,0.7-1c0.1-1.2,1-2.6-0.3-3.9
			l0.3,0.2c-0.9-0.7,0.1-0.6-0.3-1.2c0.2,0,0.3,0,0.3,0c-0.8-0.8,0.3-1.4,0-1.9l0.6,0.3l0.2-0.9l-0.3,0.3c-1.7-0.8,1.4-0.3,0.6-1.3
			c0.5-0.5-3.1-2.8-1.9-3.1c-0.7-0.7,1.2,0.8,0.7,0.1c0.9,0.4,0.5,0.5,1.2,0.7c-0.3-0.6,1.2-0.3,0.8-1.2l0.7,0.3
			c-0.9-1.3,1.6-0.8,0.6-1.9c-0.3-1,2.3,0.6,1.3-0.8l1.1,0.2c0.3-0.3-1-0.7-0.4-0.9c0.6,0.3,0.7-0.3,1.2,0.3
			c1.2-0.3-0.5-2.2,1.7-2.5c-1-0.8-0.1-1-0.7-1.7c0.5,0.3,0.6-1,1.4,0.2c0.1,0.1,0,0.2-0.2,0.1l0.6,0.5c1.6,0.2-0.1-1.5,0.4-1.9
			c-0.3,0.1-0.4,0.3-0.7-0.1l0.4-0.5l0.5,0.5c0.3-0.3,0.6-0.4,0.7-0.6l-0.7-0.3c0.6-0.2,1.9,0.4,1.1-0.6c-0.4-0.6-1.2-0.2-1.1-0.7
			c0.7-0.3,1.9-0.6,2.6-1.1c-0.7-0.4-0.6-0.6-0.7-0.8l0.7,0.4c-0.5-1.2,1.7,0.6,1.3-0.5l0.4,0.3l-1.2-1c-0.9-1.5,1.6,0.6,0.3-1.3
			c-0.1,0.3-1.6-0.7-1-0.9l0.6,0.5c0-0.3-0.3-0.5,0-0.6c0.3,0.3,0.8,0.6,0.9,0.3l0.7,0.7l-0.7-1.2c0.9,0.1,0.6-1.1,1.5-0.7
			c0,0,1-0.6,0.2-1.4c0.5,0.6,1,0.3,1.7,0.8c-0.6-0.7-0.6-1.7,0.3-1.5l0.1,0.1c0.7-0.3,0.7-0.7,0.7-1.3c0.1-0.6,0.2-1.1,0.8-1.2
			c-0.7-0.5,0-0.6-1-1.2c-0.3-1.6,3.1-0.2,0.5-2.6c0.2-0.6,1,0,1.3-0.1l0.1,0.3c0.3-0.9,0.5-1.2,0.9-1.7c-0.1-0.5-1.3-1.6-0.6-1.8
			c0.4,0.6,0.5,0.3,0.6,0.1c0,0.2,0.2,0.4,0.7,0.4c-0.2-0.2-0.2-0.3-0.3-0.4c0.1,0,0.1,0.1,0.2,0.1c0.1-0.5-0.2-0.6-0.3-0.5
			c-0.1-0.1-0.2-0.2-0.4-0.3c0.9,0.3,0.7-0.9,1.6-0.3c0.6-1.1,0.2-2.4,0.4-3.4c0.6,0.3,0.7,0.7,0.7,1.2l0.3-0.7
			c0.6,0.6,0.2,0.6,0.2,0.8c1.6,0.3,0-2.1,1.6-2.1l-0.4-0.6h0.2c-0.3-0.3-0.5-0.7-0.5-0.8c0.6,0.4,1.2,1.1,1.6,0.7
			c0.7,0.2,0.4-1,0.5-1.7c-0.3,0.1-0.6-0.3-0.6-0.5c0.2-0.2,0.7,0.2,0.7-0.2l0.7,0.6c-0.7-0.6-0.3-1.1-0.6-1.5
			c0.6,0.4,0.3,0.7,0.6,1.1c0.6-0.7,0.3-0.4,0.8-1.2c-0.3-0.8-0.7-0.6-1.2-1.3c0.2-0.5-0.1-1.2,0.7-1.2l-0.7-0.5
			c0.1-1.1,0.5-1.4,1.5-1.2c-0.5-4.7-2-6.7-3.4-7.3s-2.8-0.2-2.8-0.2C644.7,429.1,645.6,431.7,644.2,434.4z"/>
	</g>
</g>
</svg>
