<?xml version="1.0" encoding="utf-8"?>
<!-- Generator: Adobe Illustrator 27.5.0, SVG Export Plug-In . SVG Version: 6.00 Build 0)  -->
<svg version="1.1" id="Layer_1" xmlns="http://www.w3.org/2000/svg" xmlns:xlink="http://www.w3.org/1999/xlink" x="0px" y="0px"
	 viewBox="0 0 1800 1800" style="enable-background:new 0 0 1800 1800;" xml:space="preserve">
<style type="text/css">
	.st0{fill:#E4EB24;}
</style>
<path class="st0" d="M949.9,1174.4c0.7-1,1.2-2.1-2.5-3.9c0.5,1-0.6,1.6-1.8,1.6s-2.6-0.6-2.5-2l2.3-0.1c-0.9-1.3-1.9-1.4-1.9-2.5
	c1.4,0.4,3.2-0.7,2-2.6c1,0.1,2.1,0.3,3.1,0.5c-1.8-0.9-3.6-1.8-5.4-2.5c0.2-1,0-2-0.3-2.9s-0.9-1.8-1.3-2.7
	c-0.9-1.7-1.8-3.1-0.8-4.5c0,0-0.1-0.4-0.4-1.1c-0.3-0.7-0.8-1.5-1.4-2.4c-1.1-1.7-2.9-3.3-4.8-3c1.3,0,1.5-1,1.7-2s0.3-2.1,1.7-2.4
	c-1.6-0.1-3.6-0.9-5.3-2.1c-1.6-1.2-3-2.7-2.9-4.4l0.5,0.1c-2.2-4-5.8-5.9-9.2-7.3c-1.7-0.8-3.4-1.4-4.9-2.3c-1.6-0.8-3-2-4.4-3.6
	c-0.9,2.5-3.8-0.6-4.5,2.9c-2.1,0-3.7-0.8-5.1-1.7c-0.7-0.5-1.4-1-2-1.5s-1.3-1-1.9-1.4c-0.6-0.4-1.2-0.8-1.8-1s-1.2-0.3-1.8-0.1
	c-1.2,0.3-2.4,1.3-3.6,3.7c-1.6-0.1-2.4-0.9-3-1.8s-1-1.8-1.8-2.3l0.9-0.4c-6.3-0.2-8.1-0.1-12.6-0.5c-2.3,1-2.6,5.8-6.5,4.8
	c1.2-2-0.4-1.6-1.9-1.4c0.9-0.4,1.2-1.1-0.9-2.3c-0.2,0.6-0.6,1-1,1.3c0-0.2-0.1-0.3-0.1-0.5c-2.4,1-1.9,1.5-0.7,1.6
	c0,0.3,0.1,0.7,0.5,1.2c-1.4-1.1-3.2-0.9-4.7-0.7c-1.5,0.2-2.7,0.2-3.2-1.4c-1.8,0.6-3.5,1.3-5,2.2c-0.8,0.4-1.5,0.9-2.2,1.4
	s-1.3,1-2,1.5c-1.3,1-2.4,2.1-3.6,3.1c-1.2,1-2.3,2-3.5,3c-1.4-1.2-0.8-3.2,0.7-4.6l-1.9,1.2l-1.9,1.3c-1.1-2.2,1.7-2.5,2.8-3.4
	c-3.3-0.7-5.5,1.6-7.5,3.9c-1,1.2-1.9,2.5-3.1,3.4c-1.1,1-2.5,1.7-4.3,2c0.1,0.8,0.1,1.6,0.2,2.3h-0.5c0.7,0.8,0.5,2.7,0.1,3.6
	c-2.1-1-3.2-3.8-5.5-1.5c-1.6,0.1-2.8,1.6-3.5,3.5c-0.8,1.8-1.2,4-1.7,5.6c1.4-1.1,1.9,0.1,2.1,1.1c-0.9,1.2-3.1,0.7-3,2.1l-1.8-1.2
	c1.5,1.4-0.3,4.7,0.3,5.7c-2.3-0.4-0.3-2.9-1.4-4.2c-1.6,2.7-1.9,3.4-2.3,4.1c-0.2,0.3-0.4,0.7-0.7,1.3c-0.3,0.6-0.7,1.5-1.4,2.9
	c0.2,1.9,1,2.1,1.7,2.1c0.8,0,1.7-0.1,2.5,1.1c-0.7,2.7,0.2,5.8-2.4,8h2.7c0.2,5.2-0.6,7.6-3.9,10.3c0.8,2.5,1.8,4.6,2.7,6.4
	c0.3,0.6,0.7,1.1,1,1.7c-0.3,2.8-0.5,5.7-0.5,8.7c0,0.7,0,1.4,0,2.2c-1,0.7-2.1,1.5-3.2,2.6c-0.7,0.7-1.5,1.6-2.2,2.6
	s-1.5,2.1-2.2,3.3c-1.5,2.5-2.9,5.5-4.2,9.2l-0.9-0.2c-0.2,8.3,1.5,13.9,7.8,17.1c-2.2,1.5-1.5,3.1-0.4,4.6c1.2,1.5,2.8,2.8,2.6,4
	l-0.5,0.1c3.1,1.1,3.8,3.6,4.7,6.2s2,5.3,5,5.8c-0.4,0.1-1.6,1.1-2.4,0.3c3,2.3,7.5,4.7,5.8,7.2c3.7,2.6,8,5.9,12.6,8
	c4.5,2.1,9.1,3,12.5,1.7l-0.6,0.7c2-1,3-0.9,4-0.5s1.9,0.9,3.8,0.6c0.1,0.4,0.3,0.7,0.2,0.8c2-1.2,4.3-0.8,6.6-0.3
	c1.1,0.3,2.2,0.5,3.2,0.6s1.9,0.2,2.6-0.2v2c1.1,0,2.2,0,3.3,0l3.2-0.2l-2.4-0.5c0.5-2.8,1.6-1.9,3.3-0.7c1.6,1.1,3.9,2.5,6.1,0.4
	c1.1,0.1,2.1-0.6,3.1-1.8c1-1.1,1.8-2.6,2.7-4.1c0.8-1.5,1.6-2.9,2.5-3.8c0.8-1,1.7-1.4,2.9-1c0.6-1.5,0.5-0.4,0.4,0.8
	c0,1.2,0.1,2.4,1.3,1.1c0.8,2.8-0.9,2.2,0.4,4.2c1.3-1.1,2.7-0.7,4.3-0.4c1.5,0.2,3.2,0.3,4.7-1.3l1,2.1c0.4-0.7,0.9-1.3,1.4-1.7
	c0.5-0.5,1-0.8,1.6-1s1.1-0.4,1.7-0.5c0.6-0.1,1.2-0.2,1.8-0.3c2.4-0.3,4.6-0.7,5.1-3.3c1.8-2.3,3.4-1.4,5-0.8
	c1.5,0.5,3.1,0.8,4-2.8c1.2,0.3,2.5,0.6,3.8,0.8c1.1-0.7,0.8-1.7,0.6-2.6s-0.3-1.8,1.2-2.2c1.2,1.5,3.6-1.5,3.8,1
	c3.4-1.4,4.8-4.8,6.2-8.2c1.5-3.4,2.9-6.8,7.1-9.4c-1.3-1.7-0.9-3.2-0.6-4.6c0.4-1.4,0.8-2.8-0.3-3.9c0.8,0.2,1.7-1.7,2.4-3
	c0.8-1.3,1.6-1.9,2.5,0.9c0.1,0.5-0.1,1.2-0.7,0.9l1.9,1.3c2.8-1.6,3.1-4,2.7-6.4c-0.3-2.4-1.3-4.9-0.5-7.1c-1,1.2-1.3,3-2.5,1.5
	c0.5-1.4,0.8-2.7,1.2-4.1l1.7,1.2c0.8-2.1,1.5-4.1,2.1-6.2l-2.4,0.6c0.8-1.5,2.2-2.4,3-3.4c0.9-1,1.1-2.2-0.5-4.1
	c-1.7-1.7-3.3,2.7-3.9-0.5c1.8-3.9,4.2-10.1,4.3-15.5c-2.6,0.8-2.6-0.7-3.3-2l2.2-0.4c-2-2.6-0.8-3.3,0.4-4c1.3-0.7,2.5-1.5,0.7-4.2
	c-1.1-0.1-2.2-0.2-3.3-0.3C948.1,1176.3,949.1,1175.4,949.9,1174.4z"/>
<path class="st0" d="M1074.4,669.9c-0.4-1.1-0.7-2.3-1-3.4c-0.3-1.1-0.7-2.2-0.9-3.3c-0.3-1.1-0.5-2.2-0.7-3.3
	c-0.1-0.5-0.2-1.1-0.3-1.6c-0.1-0.5-0.2-1.1-0.3-1.6c-0.4-2.1-0.7-4.3-1-6.4c-0.4-2.1-0.7-4.1-1-6.1c-0.1-0.5-0.2-1-0.2-1.5
	c-0.1-0.5-0.2-1-0.3-1.5c-0.2-1-0.4-1.9-0.6-2.9c-0.4-1.9-0.8-3.7-1.5-5.4c-0.6-1.7-1.2-3.4-2-4.9s-1.7-2.9-2.8-4.2
	c-4.6-8.6-4.8-12.1-5.2-15.8c-0.1-0.9-0.2-1.8-0.5-2.8c-0.2-1-0.7-2-1.3-3.2c-0.6-1.2-1.4-2.4-2.6-3.9c-1.1-1.5-2.7-3-4.6-4.9
	l-0.5-2.1c-0.2-0.7-0.4-1.4-0.6-2.1l-1.2-4.2c-1.2-1.9-2.4-2.9-3.4-3.6c-1-0.7-1.9-1.1-2.7-1.4c-0.9-0.4-1.7-0.8-2.7-1.7
	c-1-0.8-2.2-2-3.6-4.1c0.9-0.4-0.9-3-2.5-5c-1.5-2-2.7-3.5,0.1-2.2c-7.2-9-17.3-15.3-28.2-20.9c-11-5.7-22.8-10.7-35.8-17.8
	c-3.6,0.7-8.7-0.3-13.5-1.5c-2.4-0.5-4.8-0.9-6.9-1.2c-2.1-0.2-3.9-0.3-5.2,0.2c-0.1-0.4-1.9-1-4.3-1.6c-1.2-0.3-2.5-0.6-3.9-1
	c-1.4-0.3-2.7-0.5-4-0.8c-4.9-1-7.8-2,0.4-2.6c1.4-0.1,3.8,0.3,3.6,0.9l2.3-1.8c-1.9-0.9-3.9-1.6-5.8-2.1c-1.9-0.5-3.8-0.9-5.7-1.2
	c-3.8-0.5-7.6-0.4-11.3-0.3c-3.7,0.2-7.4,0.7-11.2,0.9c-1.9,0.1-3.8,0.3-5.7,0.3c-1.9,0.1-3.9,0.1-5.8-0.1c4.7,0.8,11,0.8,6.7,2.2
	l-7.3-0.3c-2.4-0.1-4.9,0-7.3-0.1l3-1.9c-7.3-0.3-14.7-0.3-22-0.1c1.1,0.7,2.1,1.4,3.2,2.1c-5.4-0.2-9.1-1.1-13-1.5
	c-1.9-0.1-3.9-0.1-6.1,0.2c-2.2,0.3-4.7,1-7.5,2.3c-5.1,2.7,10.4,1.5-0.6,4c-14.2,0.5-35.7,2.6-53.5,8c2.5,2-2.3,3.4-6.9,5.6
	l-1.3-1.9c-4.3,2.5-7,3.6-8.9,4.1s-3,0.2-4,0c-2.2-0.5-4.5-1.3-13,4.3l0.9-2.2c-0.9,2.2-1.8,4.3-2.6,6.6c-0.4,0.4-0.9,0.8-1.3,1.1
	l-0.3,0.3c-0.1,0.1-0.2,0.1-0.3,0.3c-0.3,0.2-0.6,0.5-1,0.7c-1.2,0.9-2.4,1.6-3.4,2.3c-2,1.4-3.6,2.4-5,3.2c-2.8,1.6-4.8,2.3-7,3.2
	s-4.5,1.8-7.5,3.9c-1.5,1.1-3.2,2.4-5.1,4.2c-1,0.9-2,1.8-3,2.8L715,570c-0.1,0.1,0,0.2,0,0.3l0.2,0.3c0.2,0.4,0.5,0.9,0.7,1.3
	c0.5,0.9,1,1.8,1.5,2.8c-0.5-1.4-0.9-2.6-1.1-3.4c0-0.2-0.1-0.4-0.1-0.6v-0.1l0.1-0.1c0.1,0,0.2-0.1,0.3-0.1c0.4-0.2,0.7-0.3,1-0.4
	c1.2-0.3,1.8,0,1.7,0.8c0,0.2-0.1,0.4-0.2,0.7v0.1l0.1,0.1c0.1,0.1,0.1,0.2,0.2,0.3c0.1,0.2,0.3,0.4,0.4,0.6c0.6,0.9,1.2,1.9,1.8,3
	c1.2,2.3,2.3,5,3.1,8.2c-1.2-1.2-2.4-2.4-3.6-3.7c3,7.5,5,9.9,6.4,14.9c-1.4-2.1-2.5-2.7-2.6-1.2c0,0.7,0.2,2,0.7,3.8
	c0.3,0.9,0.6,1.9,1,3.1c0.2,0.6,0.5,1.2,0.7,1.9c0.1,0.3,0.3,0.7,0.4,1c0.1,0.2,0.2,0.4,0.3,0.6l-0.5-0.4c-0.2-0.2-0.5-0.6-0.7-0.8
	l-1.4-1.8l-2.9-3.7l3.2,5.5c0.3,0.4,0.5,1,0.8,1.3l0.5,0.7l1.1,1.4l4.3,5.6c0.4,2.7,1.2,5.6,2.2,8.5l0.4,1.1l0.5,1.3
	c0.5,1.3,1,2.5,1.4,3.8c1,2.5,1.9,5,2.9,7.4c3.7,9.6,6.8,17.9,7.2,23.2c0,0,0.7,2.1,1.9,5.4c0.6,1.6,1.3,3.6,2.1,5.7
	s1.6,4.7,2.7,6.3c2.5-1.8,5.2-3.7,7.8-5.7c2.7-2,5.5-4.1,8-6c4.3-3.4,7.9-6.4,10.1-8.8c-0.7,0.9-0.6,1.3,0,1.2c0.4,0,1-0.2,1.7-0.5
	c0.4-0.2,0.8-0.3,1.2-0.4c0.4-0.1,0.8-0.3,1.3-0.4c3.5-1.1,7.5-2.4,4.9,0.5c1.2-1,2.6-2.2,4.2-3.4c0.4-0.3,0.8-0.6,1.3-0.9l0.3-0.2
	l0.2-0.1l0.3-0.2l0.3-0.2c0.1-0.1,0.2-0.1,0.2-0.1l0.2-0.1c0.4-0.3,0.8-0.7,1.3-1c0.9-0.7,1.9-1.4,3-2.1c1.1-0.6,2.2-1.3,3.4-1.9
	c0.6-0.3,1.2-0.6,1.8-0.9c0.6-0.3,1.2-0.5,1.8-0.8c1.2-0.5,2.4-0.9,3.5-1.2c2.3-0.7,4.5-0.9,6.1-0.8l-1,0.6
	c11.2-2.2,20.5-5.1,29.8-7.2c2.3-0.5,4.6-1.1,7-1.4c1.2-0.2,2.3-0.4,3.5-0.6c1.2-0.1,2.3-0.2,3.5-0.3c1.2-0.1,2.4-0.2,3.6-0.2
	c1.2,0,2.3,0,3.5,0.1c0.6,0,1.2,0.1,1.8,0.1s1.2,0.1,1.8,0.2c1.2,0.2,2.4,0.4,3.6,0.6c-0.4-1.4,2-1.5,4.3-1.7s4.3-0.5,3.2-2.3
	c5.4-0.3,10.4,0.5,14.8,1.8c2.2,0.6,4.3,1.5,6.2,2.3c1,0.4,1.9,0.9,2.8,1.3c0.5,0.2,0.9,0.4,1.3,0.6c0.4,0.2,0.8,0.4,1.3,0.7
	c6.7,3.4,11.3,5.9,17.1,3.4c4,2.3,5.7,4.5,6.8,6.4c0.5,1,0.9,1.9,1.4,2.7c0.4,0.9,0.8,1.8,1.5,2.6l-1.8-1c0.7,0.7,1.5,1.3,2.1,1.9
	c0.6,0.6,1.2,1.3,1.8,1.8c0.6,0.6,1.1,1.2,1.6,1.8c0.3,0.3,0.5,0.6,0.7,0.8c0.2,0.3,0.4,0.6,0.7,0.9c0.4,0.6,0.9,1.1,1.3,1.6
	c0.4,0.5,0.7,1.1,1.1,1.6c0.3,0.5,0.7,1,1,1.5s0.6,1,0.9,1.5c2.3,4.1,3.9,8,5.5,14c0.7,1.4,1.4,2.5,2.3,3.5c0.8,1,1.7,2,2.5,3.1
	c0.8,1.1,1.5,2.5,2.1,4.3c0.5,1.8,0.9,4.2,0.7,7.2c-1.1-1.9-1.5-1.6-1.5-0.3c0,0.7,0,1.6,0,2.6s0.1,2.2,0.1,3.3
	c-0.2-1.4-0.5-2.4-0.8-2.2c-0.2,0.1-0.4,0.4-0.6,1.1c-0.2,0.7-0.5,1.7-0.9,3.2c0.6,0.8,0.9,2.1,1.2,3.3c-0.2,0-0.3,0.3-0.5,0.1
	c0.1,0.9,0.1,1.7,0.2,2.4c0.1,0.7,0,1.2,0.1,1.7c0.1,0.9,0.2,1.3,0.3,1.4c0.2,0.2,0.6-1,0.9-2.7c0.3,0.2,0.7-0.1,1.2-1.1
	c-0.2,0.5-0.3,1-0.5,1.5s-0.3,1.1-0.5,1.6c-0.3,1.1-0.5,2.3-0.7,3.5c-0.3,2.4-0.9,4.9-1.3,7.1c-0.2,1.1-0.4,2.2-0.7,3.2
	s-0.6,1.8-0.9,2.6c-0.6,1.5-1.3,2.4-2.2,2.4c-2.5,11-5.5,20.5-8.8,29.7c-1.6,4.6-3.6,9-5.5,13.5c-1,2.2-2.1,4.4-3.2,6.6
	c-1.1,2.2-2.3,4.4-3.6,6.6c-1.3,0.5-1.7-0.5-1.3-2.2c0.2-0.9,0.5-1.9,1-3.1c0.4-1.2,1-2.5,1.6-3.8l-1.7,3.1l-1.9,3.1l-3.7,6.1
	c-1-0.8-0.1-2.7,1.2-4.9s3.3-4.7,4.1-6.7c-1.5,1.5-3,3.1-4.3,4.8s-2.6,3.5-3.7,5.3c-1.2,1.8-2.4,3.7-3.5,5.7c-0.6,1-1.1,2-1.7,3
	c-0.6,1-1.2,2-1.8,3c-1.2,2-2.4,4-3.6,6.1c-1.2,2-2.6,4-4.1,6c-1.4,2-2.9,3.9-4.6,5.8c-1.7,1.8-3.5,3.6-5.5,5.3l-1.2,4.5l-1,0.7
	c0.8,0.6-1.1,5.1-2.8,7.6c-1.8,0.4-2.7-0.4-4-0.3c-0.6,0-1.4,0.2-2.4,1s-2.2,2.1-3.9,4.2c-1.7,1.3-3.5,3.2-5.2,5.4
	c-0.9,1.1-1.7,2.3-2.5,3.6s-1.6,2.6-2.5,4c-0.8,1.4-1.6,2.8-2.4,4.2c-0.8,1.4-1.6,2.8-2.3,4.2c-1.4,2.9-2.8,5.6-4.1,8.1
	c3.6-4.7,3.5-2.5,2.7,0.1c-1.4,2.2-3.1,3.6-4.4,5.1c-1.4,1.4-2.6,2.8-3.2,4.8l-2-0.8c0.5,0.9-0.5,3.6-1.8,6.6
	c-1.5,3.8-3.3,7.9-3.3,9c-3.3,1.7,2.4-8.1,1.7-10.1c-2.6,4.8-4.2,7.7-5.3,9.8c-0.6,1-1,1.9-1.4,2.6c-0.3,0.7-0.6,1.3-0.9,1.9
	c-0.6,1.2-1.2,2.4-2.2,4.6c-1,2.2-2.6,5.1-4.6,10.2c-1.3,5.7-0.5,5.5,0.7,4.6s2.7-2.4,2.8,0.6c-1.8,4.7-2.8,9.6-4.3,14.5
	c-0.8,2.4-1.4,5-2.2,7.5c-0.4,1.3-0.9,2.5-1.4,3.8s-1.1,2.6-1.7,3.9l1.7-1.4l1.8-1.4c-0.5,2.3-0.8,4.5-1.1,6.6
	c-0.4,2.1-0.7,4.1-1.1,5.9c-0.7,3.8-1.2,7.3-2,10.5c-0.4,1.6-0.7,3.2-1,4.8s-0.7,3.1-1.1,4.6c-0.4,1.5-0.9,3-1.3,4.5
	c-0.4,1.5-0.8,3-1.3,4.6c0.1,2.2,0.2,4.3,0.4,6.4c0.3,2.1,0.5,4.1,0.8,6s0.5,3.8,0.8,5.6c0.4,1.8,0.7,3.5,1,5.2
	c0.4,1.7,0.7,3.3,1,4.8c0.1,0.4,0.2,0.8,0.3,1.1c0.2,3.1,0.4,6.3,0.8,9.4l1.6,20.6c-0.4,0.7-0.4,1.4,0.2,2.2l0.3,4.4v0h6.8
	c1.6,0.6,3.4,1.3,5.5,2c0.6,0.5,1.2,0.6,1.8,0.6c3.9,1.2,8.6,2.5,14.2,3.8c5,1.2,10.7,2.4,17.2,3.8c1.6,0.3,3.3,0.7,5,1
	c0.9,0.2,1.7,0.3,2.6,0.5c0.4,0.1,0.9,0.2,1.3,0.3l0.7,0.1l0.4,0.1l0.5,0.1c5.4,0.7,11.3,1.4,17.9,2.1l-1.5,0.8
	c8.9,0.4,17.5,0.8,25.4,1c0-14.5-0.4-27.9-1.3-40.3c-0.1-0.8-0.1-1.5-0.2-2.3l-0.1-1.1l-0.1-0.7c-0.1-0.9-0.2-1.8-0.3-2.6
	c-0.2-1.7-0.5-3.5-0.8-5.2s-0.5-3.4-0.9-5.1c-0.3-1.7-0.7-3.4-1.1-5.2c1.4-0.6,2.2-2.2,2.6-4.3c0.2-1,0.4-2.2,0.5-3.5
	s0.2-2.6,0.3-3.9c0.2-5.5,0.6-11.3,1.9-14l0.3,0.6c-0.4-7.7,2.3-15.2,5.8-22.1l1.3-2.6c0.4-0.9,0.8-1.7,1.3-2.6
	c0.9-1.7,1.8-3.4,2.5-5.1c0.4-0.9,0.7-1.7,1.1-2.6c0.4-0.9,0.8-1.7,1.1-2.6c0.7-1.8,1.2-3.5,1.6-5.4c0.1,0.6,1.1,1.5,0.2,4
	c0.4-1,0.8-2,1.2-3.1c0.5-1.3,1.2-2.6,1.8-3.9c0.6-1.3,1.2-2.6,1.8-3.9c0.6-1.3,1.2-2.5,1.9-3.6c2.7-4.4,5-7.5,6.6-7
	c6.4-11.1,15.9-23.6,25.1-35.1c1.2-1.5,2.3-2.9,3.4-4.4c1.2-1.5,2.3-3,3.4-4.4c2.2-2.9,4.3-5.7,6.2-8.5c3.8-5.4,6.8-10.5,8.6-14.8
	l-0.1,1.5c1.9-5,3.9-7.7,6.1-10.4c2.2-2.7,4.7-5.4,7.4-10.5c0.7-0.3,1.4-0.8,1.4-0.6c2.1-5.5,6.8-12.2,11.3-18.8
	c4.6-6.6,8.9-13,10.7-17.3l2.1,0.5c3.7-6.7,7.2-13.5,10.4-20.5c-1.3,2.6-2.8,5-4.2,7.5c-1.8-2.6,0.9-6,4.5-11c3.5-5,7.9-11.8,9-20.5
	c2.9-7.4,2.3-16,1.4-24.3c-0.9-8.3-2.2-16.3-0.2-24c-1-3.8-0.1-2.1,1-0.8c0.5,0.6,1.1,1.2,1.4,0.8c0.3-0.3,0.5-1.6,0.2-4.4
	c1.5-0.1,1.9,1.3,2.2,2.3c0.3,1,0.6,1.8,1.8,0.4c-0.4-5.7,0.6-10.3,1.2-15.4c0.6-5,1-10.5-0.7-17.5L1074.4,669.9z"/>
</svg>
