<?xml version="1.0" encoding="utf-8"?>
<!-- Generator: Adobe Illustrator 27.5.0, SVG Export Plug-In . SVG Version: 6.00 Build 0)  -->
<svg version="1.1" id="Layer_1" xmlns="http://www.w3.org/2000/svg" xmlns:xlink="http://www.w3.org/1999/xlink" x="0px" y="0px"
	 viewBox="0 0 1253.9 1253.9" style="enable-background:new 0 0 1253.9 1253.9;" xml:space="preserve">
<style type="text/css">
	.st0{fill:#4D7C04;}
	.st1{fill:#FFFFFF;}
</style>
<path class="st0" d="M740.6,757c-5.7-12.1-12.9-22.6-21-31.5c5.7-8.1-14.5-25.9-17-34.8h0.8c-9.7-6.5-14.5-17-21-26.7
	c-6.5-9.7-12.9-19.4-22.6-24.2c0.8,0,3.2-1.6,7.3,1.6c-12.1-10.5-29.1-22.6-26.7-27.5c-8.1-5.7-16.2-11.3-25.1-17.8
	c-8.9-5.7-18.6-11.3-27.5-16.2c-18.6-8.9-37.2-16.2-50.1-16.2l2.4-0.8c-7.3,0-11.3-0.8-16.2-2.4c-2.4-0.8-4-1.6-6.5-2.4
	c-2.4-0.8-5.7-0.8-9.7-1.6c-0.8-0.8-1.6-1.6-1.6-1.6c-4,0.8-8.9,0-12.9-0.8c-4.8-0.8-9.7-2.4-15.4-3.2c-10.5-1.6-20.2-4-25.9-3.2v-4
	c-9.7-0.8-19.4-0.8-29.1-0.8l10.5,1.6c-2.4,4.8-7.3,3.2-15.4,0.8c-7.3-2.4-17.8-4-28.3,0c-9.7-0.8-19.4,6.5-28.3,12.1
	c-4.8,3.2-8.9,5.7-13.7,8.1c-4.8,2.4-8.9,4-13.7,4c-8.1,6.5,6.5-9.7-6.5-2.4c-1.6-4.8,5.7-4.8,0.8-8.1c-6.5,3.2-12.9,3.2-18.6,4
	c-6.5,0.8-12.9,2.4-21,7.3l-2.4-3.2c-2.4,1.6-4.8,3.2-7.3,4.8c-2.4,1.6-4.8,3.2-7.3,4c-4.8,2.4-9.7,4-14.5,5.7
	c-9.7,2.4-17.8,6.5-22.6,13.7c-18.6,15.4-20.2-1.6-36.4,20.2c-4,0.8-7.3,0.8-11.3,1.6c-8.9,6.5-1.6,10.5-12.1,16.2
	c-1.6-3.2-12.9,8.1-10.5,0.8c-6.5,3.2-10.5,8.9-15.4,14.5s-8.9,11.3-12.9,17.8c-8.1,12.9-17,25.9-29.9,39.6c0.8,4.8-1.6,11.3-4.8,17
	c-2.4,5.7-4.8,11.3-4,15.4c-1.6,0-5.7,8.1-8.9,13.7c-1.6,2.4-2.4,4.8-4,4.8c-0.8,0-1.6-1.6-0.8-7.3c0-1.6,1.6-4.8,2.4-4l-2.4-4
	c-8.1,8.1-10.5,17.8-12.1,26.7c-0.8,4.8-1.6,9.7-2.4,14.5c-0.8,4.8-1.6,9.7-3.2,14.5c2.4-5.7,4.8-13.7,5.7-7.3l-4.8,17.8l-2.4-4.8
	l-4.8,13.7c-1.6,4.8-2.4,8.9-3.2,13.7l4.8-3.2c-2.4,6.5-4.8,11.3-7.3,15.4c-1.6,4.8-3.2,9.7-0.8,17.8c3.2,7.3,6.5-12.9,6.5,2.4
	c-1.6,8.9-4.8,20.2-5.7,32.3c-0.8,12.1-2.4,25.1-0.8,37.2c4-2.4,4.8,3.2,7.3,9.7l-4,1.6c9.7,24.1-7.9,11.5,2.3,34.4l6.6,2.8
	c12.9,19.4-4.8,14.5,13.7,34.8c-4-8.9,6.5-7.3,8.9,4l-4.8-1.6c3.2,5.7,4.8,7.3,6.5,11.3c-3.2-2.4-6.5,0-1.6,8.9l-7.3-4l14.5,13.7
	c0.8,4,1.6,7.3,4,11.3c2.4,4,4,7.3,6.5,11.3c4,7.3,8.1,12.9,7.3,17c0,0,0.8,1.6,2.4,4c1.6,2.4,4,5.7,6.5,9.7
	c5,6.5,10.1,12.9,14.5,14.3c-3.7,0.4,4.3,11.5-1.6,10.8c4,1.6,11.3,6.5,17,12.1c5.7,5.7,12.1,11.3,14.5,16.2l-1.6-0.8
	c5.7,6.5,11.3,12.9,17.8,17.8c6.5,4.8,12.9,8.1,19.4,12.1c6.5,4,12.9,7.3,19.4,10.5c6.5,4,12.9,8.1,18.6,12.9
	c0.8-4.8,14.5,4.8,13.7-2.4c8.1,2.4,14.5,5.7,21,8.9c6.5,3.2,12.1,6.5,17.8,8.9c10.5,5.7,20.2,8.1,28.3,0.8
	c14.5,2.4,15.4,8.9,22.6,10.5l-4,0.8c13.7,1.6,22.6,2.4,30.7,3.2c8.1,0.8,15.4,0.8,25.1,1.6c10.5-1.6,12.1-8.9,29.9-8.1
	c-5.7,4,1.6,2.4,8.1,2.4c-4,0.8-5.7,2.4,3.2,4c0.8-0.8,3.2-1.6,4.8-2.4c0,0,0.6,0.6,0.3,0.8c11-2.4,8.6-3.2,3.8-3.2
	c0-0.8,0-0.8-1.6-1.6c12.1,3.2,31.5-4.8,33.9,0.8c33.1-8.9,54.1-21.8,77.6-36.4c4,1.6-0.8,6.5-7.3,11.3l17.8-9.7
	c1.6,4-8.9,7.3-14.5,10.5c6.5-0.8,12.1-3.2,17-6.5c2.4-1.6,5.7-3.2,8.1-4.8c2.4-1.6,4.8-4,7.3-5.7c9.7-8.1,20.2-16.2,33.1-22.6
	l2.4-6.5l1.6-0.8c-0.8-1.6,2.4-7.3,4.8-9.7c5.7,0,5.7,7.3,15.4-2.4c4.8-2.4,10.5-8.1,16.2-14.5c4.8-7.3,8.9-14.5,12.9-20.2
	c-5.7,4.8-5.7,1.6-4-1.6c4.8-4.8,9.7-5.7,12.1-10.5l2.8,1.7c-2.1-3.4,7.7-17.4,7.7-20.3c5.7-0.8-4,10.5-2.4,13.7
	c16.2-22.6,8.1-11.3,22.6-34.8c4-14.5-5.7,0-5.7-8.1c3.2-5.7,4.8-12.1,6.5-17.8c2.4-6.5,4.8-12.1,9.7-17.8c-1.5,0.7-3.6,1.5-5.8,2.2
	c6.3-14.6,11.5-29.8,15.6-45.4c0.8-1.5,1.6-3,2.4-4.5c0-1.9,0-3.8,0-5.6c5.3-23.2,8-47.3,8-72c0-4.4-0.1-8.8-0.3-13.2
	c1.4-3.1,2.8-6.7,4.3-11c0.8-3.2,2.4-7.3,3.2-12.1s1.6-9.7,2.4-15.4c0.8-5.7,1.6-11.3,2.4-18.6c0-6.5,0-13.7,0-21.8l1.6,0.8
	C750.2,783.7,745.4,770,740.6,757z"/>
<path class="st0" d="M628.2,91.1c7.3-6.5-6.5-12.9-6.5-17.8h0.8c-6.5-2.4-8.1-7.3-10.5-12.9c-2.4-4.8-4.8-10.5-11.3-12.1
	c0.7,0,2.7-1.3,4.3-0.4c-6.4-4.7-14.7-9.4-12.4-14.1c-4-2.4-8.1-5.7-12.1-8.9c-4-2.4-8.9-5.7-13.7-8.1c-9.7-4-18.6-7.3-25.9-4.8
	l1.6-0.8c-8.1,3.2-8.1-2.4-16.2-1.6c0-0.8-0.8-1.6-0.8-1.6c-4,1.6-8.9,0.8-13.7,0c-4.8-0.8-9.7-2.4-12.1-1.6V3c-4.8,0-9.7,0-13.7,0
	l4.8,0.8c-0.8,4.8-3.2,3.2-7.3,0.8c-3.2-2.4-8.9-4-13.7-0.8c-4.8-0.8-8.9,5.7-12.9,10.5c-1.6,2.4-4,4.8-5.7,6.5
	c-1.6,1.6-4,3.2-6.5,2.4c-3.2,5.7,1.6-8.1-3.2-3.2c-1.6-4.8,2.4-4-0.8-7.3c-5.7,4-12.1-2.4-18.6,4l-1.6-3.2c-4,4.8-8.9,6.5-13.7,7.3
	c-4.8,0.8-9.7,1.6-10.5,6.5c-8.1,8.9-12.9-5.7-18.6,8.1c-2.4-0.8-4.8-0.8-7.3-1.6c-4.8,3.2,1.6,7.3-4.8,9.7
	c-2.4-2.4-7.3,3.2-7.3-1.6c-6.5,3.2-10.5,9.7-13.7,16.2c-3.2,7.3-7.3,13.7-15.4,18.6c1.6,3.2,0.8,6.5,0,9.7c-0.8,3.2-1.6,5.7,0,8.1
	c-1.6-0.8-3.2,3.2-5.7,6.5c-1.6,2.4-3.2,4-4-1.6c0-0.7,0.7-2.2,1.4-1.8l-3-2.3c-5.7,3.2-6.5,8.1-6.5,13.7c0,4.8,0.8,10.5-0.8,15.4
	c2.4-2.4,2.4-6.5,4.8-3.2l-3.2,8.9l-2.4-2.4c-1.6,4-3.2,8.9-4.8,13.7l4-1.6c-3.2,6.5-10.5,8.1-5.7,16.2c3.2,4,5.7-5.7,6.5,1.6
	c-1.6,4-4,9.7-5.7,16.2c-0.8,5.7-2.4,12.9-2.4,18.6c4.8-1.6,4.8,1.6,6.5,4.8l-4,0.8c7.2,11.1-7.6,6.6-1.1,17.2l6,0.5
	c10.5,8.1-6.5,8.9,8.1,17c-2.4-4,7.3-4.8,8.1,0.8h-4c1.6,2.4,4,3.2,4,5.7c-2.4-0.8-5.7,1.6-3.2,5.7l-5.7-0.8c3.2,1.6,7.3,4,10.5,5.7
	c-0.8,8.1,9.7,15.4,6.5,20.2c0,0,1.6,3.2,4,7.3c2.4,3.2,6.5,6.5,9.7,6.5c-4.8,0,0,7.3-5.7,8.1c5.7,0.8,16.2,6.5,17,12.9h-0.8
	c2.4,4,5.7,7.3,8.9,8.9c3.2,2.4,6.5,4,10.5,5.7c6.5,3.2,13.7,5.7,19.4,12.1c1.6-4,8.1,1.6,8.9-4.8c4,0,7.3,2.4,10.5,4
	c3.2,1.6,5.7,4,8.1,5.7c4.8,3.2,9.7,4.8,15.4-3.2c7.3,0.8,7.3,6.5,10.5,8.1l-1.6,0.8c13.7,0.8,17,0.8,27.5,1.6
	c4.8-1.6,5.7-9.7,14.5-8.1c-2.4,3.2,0.8,2.4,4,2.4c-1.6,0.8-2.4,1.6,1.6,4c0.8-0.8,1.6-1.6,2.4-2.4v0.8c5.7-1.6,4-2.4,1.6-3.2
	c0-0.8,0-0.8-0.8-2.4c5.7,4,15.4-2.4,17,3.2c16.2-4.8,25.1-14.5,35.6-21.8c2.4,2.4,0.8,5.7-2.4,8.9l8.1-4.8c1.6,4-4,4.8-6.5,6.5
	c6.5,0.8,11.3-3.2,16.2-8.1c4-4.8,8.9-9.7,16.2-11.3v-4h0.8c-0.8-1.6,0-4.8,0.8-6.5c4,1.6,5.7,6.5,10.5,2.4c3.2-0.8,5.7-3.2,8.1-7.3
	c1.6-4,3.2-8.1,4.8-11.3c-3.2,2.4-4,0-4-1.6c2.4-2.4,6.5-1.6,6.5-4l2.4,1.9c-1.5-2.9,2.3-8.8,1.6-10.8c4,0.8,0,5.7,1.6,8.1
	c7.3-10.5,4-5.7,10.5-17c0-8.1-4.8-1.6-7.3-6.5c2.4-5.7,0.8-12.1,6.5-17h-4.8c0.8-11.3,3.2-16.2,8.9-22.6c-0.8-2.4-0.8-4.8-1.6-7.3
	c-0.8-2.4-1.6-4.8-2.4-6.5c-0.3-0.7-0.6-1.5-0.9-2.1c1.1-7.2,1.7-14.6,1.7-22.1c0-2.3-0.1-4.6-0.2-6.9c1.5-1.4,3.2-3.2,5-5.3
	c2.4-3.2,4.8-7.3,7.3-12.9c0.8-2.4,2.4-5.7,3.2-8.9c0.8-3.2,1.6-7.3,2.4-11.3h1.6C645.2,109.7,640.3,98.4,628.2,91.1z"/>
<path class="st0" d="M1235.2,383.7c-3.2-8.1-8.9-13.7-15.4-19.4c6.5-6.5-8.9-17-9.7-22.6h0.8c-7.3-3.2-9.7-10.5-13.7-17
	c-3.2-6.5-7.3-12.9-14.5-15.4c0.7,0,2.8-1.4,4.4-0.3c-8-6.4-18.9-13.5-16.6-17.5c-4.8-3.2-10.5-7.3-16.2-11.3
	c-5.7-4-12.1-7.3-17.8-10.5c-12.1-5.7-23.4-9.7-32.3-8.1l1.6-0.8c-9.7,2.4-10.5-3.2-21-2.4c0-0.8-0.8-1.6-0.8-1.6
	c-5.7,1.6-11.3,0-17.8-0.8c-6.5-0.8-12.1-2.4-16.2-2.4v-4c-6.5,0-12.1,0-18.6,0l6.5,0.8c-1.6,4.8-4.8,3.2-9.7,0.8
	c-4.8-2.4-11.3-4-17.8-0.8c-6.5-0.8-12.1,5.7-17,11.3c-2.4,2.4-4.8,5.7-8.1,7.3c-2.4,1.6-5.7,3.2-8.9,2.4c-4,5.7,3.2-8.9-4-3.2
	c-1.6-4.8,3.2-4,0-7.3c-4,2.4-8.1,1.6-12.1,1.6s-8.1,0.8-12.9,4l-1.6-3.2c-5.7,5.7-12.1,8.1-18.6,8.9c-6.5,1.6-12.1,3.2-14.5,8.9
	c-10.5,10.5-15.4-4.8-23.4,11.3c-2.4,0-5.7,0-8.1-0.8c-5.7,4,0.8,8.1-6.5,11.3c-1.6-3.2-8.9,4.8-8.1-0.8c-8.1,4-12.9,12.1-17.8,20.2
	c-4.8,8.9-10.5,17-19.4,25.1c1.6,4,0,8.1-1.6,11.3c-1.6,4-2.4,7.3-1.6,9.7c-1.6,0-4,4.8-6.5,8.1c-2.4,3.2-4,5.7-4-1.6
	c0-1.6,0.8-3.2,1.6-2.4l-3.2-3.2c-6.5,4.8-7.3,10.5-8.1,17c0,3.2,0,6.5-0.8,9.7c0,3.2,0,6.5-1.6,9.7c2.4-3.2,3.2-8.1,4.8-4
	l-3.2,11.3l3.2-4c-2.4,5.7-4,11.3-5.7,17.8l4-1.6c-3.2,8.1-11.3,10.5-6.5,21c3.2,4.8,5.7-8.1,6.5,1.6c-1.6,5.7-4,12.9-5.7,21
	c-0.8,8.1-2.4,16.2-1.6,24.2c4-1.6,4.8,2.4,6.5,6.5l-4,0.8c8.1,14.5-8.1,7.3,0,22.6l-3.2-0.8l8.9,2.4c11.3,11.3-6.5,10.5,9.7,21.8
	c-2.4-5.7,7.3-5.7,8.1,1.6h-4c2.4,4,4,4,4.8,7.3c-3.2-1.6-5.7,0.8-2.4,6.5l-6.5-1.6c4,2.4,8.1,5.7,11.3,8.1c0,2.4,0.8,4.8,1.6,7.3
	c1.6,2.4,2.4,4.8,4,7.3c2.4,4,4.8,8.1,4,11.3c0,0,0.8,0.8,1.6,2.4c0.8,1.6,2.4,4,4,5.7c3.1,3.8,6.9,8.4,10.7,8.8
	c-4.6,0,1.2,8.9-4.3,8.9c6.5,1.6,19.4,9.7,21,17l-0.8-0.8c3.2,4.8,7.3,8.9,11.3,11.3c4,3.2,8.9,4.8,12.9,7.3c4,2.4,8.9,4,12.9,6.5
	c4,2.4,8.1,4.8,12.1,8.9c1.6-4.8,9.7,2.4,9.7-4c5.7,0.8,9.7,3.2,13.7,5.7c4,2.4,7.3,4.8,11.3,6.5c6.5,4,12.9,5.7,18.6-2.4
	c8.9,0.8,9.7,7.3,13.7,8.9l-0.8-0.8c17,1.6,22.6,1.6,35.6,2.4c6.5-1.6,7.3-9.7,18.6-8.1c-3.2,3.2,0.8,2.4,5.7,2.4
	c-2.4,0.8-3.2,1.6,2.4,4c0.8-0.8,1.6-1.6,3.2-2.4v0.8c7.3-1.6,5.7-3.2,2.4-3.2c0-0.8,0-0.8-1.6-2.4c8.1,3.2,20.2-3.2,21.8,2.4
	c21-5.7,33.1-16.2,47.7-25.9c3.2,1.6,0.8,5.7-3.2,9.7l10.5-6.5c1.6,4-5.7,5.7-8.9,8.1c8.1,0,14.5-4.8,21-10.5
	c5.7-5.7,12.1-11.3,21-14.5l0.8-4.8h0.8c-0.8-1.6,0-5.7,1.6-7.3c4,1.6,5.7,6.5,12.1,0.8c4-0.8,7.3-4.8,9.7-8.9
	c2.4-4.8,4.8-9.7,7.3-13.7c-4,3.2-4,0.8-4-1.6c2.4-3.2,7.3-2.4,8.1-6.5l2.7,2.2c-1.8-3.2,3.6-11.4,2.9-13.5c4.8,0-1.6,7.3,0,9.7
	c9.7-14.5,4.8-7.3,13.7-21.8c1.6-9.7-4.8-0.8-6.5-7.3c3.2-7.3,2.4-15.4,9.7-22.6l-5.7,0.8c2.4-14.5,5.7-21.8,12.1-29.9
	c0-3.2-0.8-6.5-0.8-9.7c-0.8-3.2-1.6-5.7-1.6-8.9c-0.6-2.2-1.1-4.1-1.6-5.9c1.5-10.8,2.1-21.8,1.7-32.9c0.8-1.2,1.5-2.5,2.3-4
	c1.6-2.4,2.4-4.8,4-7.3c0.8-2.4,2.4-5.7,3.2-9.7c0.8-3.2,2.4-7.3,3.2-11.3c0.8-4,1.6-8.9,1.6-13.7l1.6,0.8
	C1240.8,401.4,1238.4,391.7,1235.2,383.7z"/>
<path class="st1" d="M1064.6,352.9c6.5,2.4,6.5,7.3,12.9,7.3c2.4,1.6,6.5,1.6,8.9,2.4c2.4-2.4,3.2,1.6,6.5,0v2.4
	c0.8-0.8,1.6-0.8,1.6,0v0.8c1.6-0.8,1.6,0,2.4,0v0.8h0.8l-0.8,0.8c2.4-0.8,3.2,0,4,1.6l0.8-2.4c0.8,4,4.8,0,5.7,4v0.8
	c6.5-3.2,1.6,6.5,8.1,4c-0.8,0-0.8,0.8-0.8,1.6c1.6,0.8,3.2,1.6,6.5-2.4c0.8,0.8,0,1.6-1.6,3.2c1.6-1.6,2.4-1.6,3.2-0.8h-0.8
	l2.4,1.6l2.4-3.2c0,1.6-3.2,3.2-1.6,4l2.4-2.4c0.8,1.6-1.6,6.5-1.6,8.9c2.4,3.2,5.7,5.7,8.9,8.1c1.6,1.6,3.2,2.4,4,4
	c0.8,1.6,1.6,4,0.8,6.5l-1.6,1.6c-3.2,1.6,5.7-0.8,2.4,0.8h1.6c-0.8,0.8-0.8,1.6-1.6,1.6c0,0.8,0.8,0.8,1.6,0.8l-1.6,1.6
	c0,3.2,4.8,4,5.7,7.3c-2.4,5.7,4,10.5,7.3,14.5c3.2,2.4,1.6,6.5,0.8,10.5c-1.6,4-2.4,7.3,1.6,9.7c-0.8,0,0.8,0.8,0.8,0.8v5.7
	c0,0,0.8,7.3,4,11.3c4,4,11.3,6.5,23.4-7.3h0.8c1.6-4,1.6-6.5-2.4-8.1c4.8-0.8,0-3.2,1.6-4l0,0c-4-1.6,2.4-4.8-1.6-6.5h1.6
	c-0.8-1.6-2.4-3.2,0-4c-1.6-3.2-1.6-9.7-6.5-10.5h0.8c-3.2-0.8-0.8-1.6-2.4-2.4h0.8c-3.2-0.8-1.6-4-3.2-4.8l1.6-0.8l-1.6-2.4v0.8
	c-4.8,1.6,2.4-3.2-1.6-4c0-2.4-11.3,0-9.7-3.2c-2.4,0,4-0.8,1.6-1.6c2.4-0.8,1.6,0,3.2-0.8c-1.6-0.8,1.6-3.2-0.8-4l1.6-0.8
	c-4-0.8,0-5.7-3.2-4.8c-2.4-1.6,4.8-4,0-4.8l1.6-2.4c0-1.6-3.2,0.8-2.4-0.8c1.6-0.8,0.8-2.4,2.4-2.4c0.8-4-5.7-3.2-4-8.9
	c-3.2,0.8-2.4-1.6-4.8-0.8c0.8-0.8-2.4-3.2,1.6-3.2c0,0,0.8,0,0,0.8l1.6-0.8c1.6-4-4-2.4-4.8-4c0,0.8,0.8,1.6-0.8,1.6l-0.8-1.6
	l1.6-0.8l-0.8-3.2l-1.6,1.6c0-1.6,2.4-4.8-0.8-4c-1.6,0.8-0.8,2.4-2.4,2.4c0-2.4-0.8-5.7-2.4-8.1c-1.6,1.6-1.6,1.6-2.4,0.8l1.6-1.6
	c-4,0,2.4-4-0.8-4l0.8-0.8l-3.2,2.4c-4,0.8,1.6-4-4-1.6c0.8,0.8-2.4,3.2-3.2,2.4l1.6-1.6c-0.8,0-1.6,0-1.6,0
	c0.8-0.8,2.4-1.6,0.8-2.4l2.4-1.6l-4,1.6c0-2.4-3.2-2.4-2.4-4.8c0,0-1.6-3.2-4-1.6c1.6-0.8,0.8-2.4,2.4-4c-1.6,0.8-4.8,0.8-4.8-1.6
	l0,0c-1.6-4-7.3-0.8-8.9-4.8c-0.8,2.4-1.6,0-3.2,3.2c-4,0.8-2.4-8.9-8.1-0.8c-1.6,0-0.8-2.4-0.8-3.2h0.8c-3.2-0.8-4-0.8-5.7-2.4
	c-1.6,0-3.2,4-4.8,2.4c1.6-1.6,0.8-1.6,0-1.6c0.8,0,0.8-0.8,0.8-1.6c0,0.8-0.8,0.8-0.8,0.8l0,0c-1.6,0-1.6,0.8-0.8,0.8v0.8
	c0-2.4-3.2-0.8-2.4-4c-3.2-0.8-7.3,0.8-9.7,1.6c0-1.6,1.6-2.4,2.4-3.2h-2.4c0.8-2.4,1.6-0.8,2.4-0.8c-1.6-4-5.7,1.6-8.1-2.4
	l-0.8,1.6l0,0c0,0.8-0.8,1.6-1.6,2.4c0-1.6,0.8-4,0-4.8c-0.8-2.4-3.2,0-4.8,0.8c0.8,0.8,0,1.6,0,2.4c-0.8,0-0.8-2.4-1.6-1.6l0.8-2.4
	c0,2.4-2.4,2.4-3.2,3.2c0-1.6,1.6-1.6,1.6-2.4c-3.2,0-1.6,0-4-0.8c-1.6,1.6,0,2.4-1.6,4.8c-1.6,0-3.2,1.6-4,0v2.4
	c-2.4,1.6-4,0.8-5.7-1.6c-10.5,8.1-9.7,14.5-8.9,18.6c0,4,3.2,5.7,3.2,5.7C1053.3,359.4,1057.4,352.9,1064.6,352.9z"/>
<path class="st1" d="M498.9,95.9c3.2,1.6,3.2,5.7,6.5,4c1.6,0.8,3.2,0,4.8,0c1.6-2.4,1.6,0.8,3.2-1.6v1.6c0.8-0.8,0.8-0.8,0.8,0v0.8
	c0.8-0.8,0.8,0,1.6-0.8v0.8c0,0,0,0,0.8,0v0.8c0.8-0.8,1.6-0.8,2.4,0l0.8-1.6c0,2.4,2.4-0.8,2.4,2.4v0.8c4-4,0.8,4.8,4.8,0.8
	c-0.8,0.8-0.8,0.8-0.8,1.6c0.8,0,1.6,0,4-3.2c0.8,0,0,1.6-0.8,2.4c0.8-1.6,1.6-1.6,2.4-1.6l-0.8,0.8h1.6l1.6-3.2
	c0,1.6-2.4,3.2-0.8,3.2l1.6-2.4c0.8,0.8-1.6,4.8-2.4,7.3c1.6,1.6,3.2,1.6,5.7,2.4c2.4,0.8,4,1.6,3.2,4.8l-1.6,1.6
	c-2.4,2.4,4-2.4,2.4,0l1.6-0.8c0,0.8-0.8,0.8-1.6,1.6c0,0,0.8,0,1.6,0l-1.6,1.6c0,2.4,4,0.8,4,2.4c-2.4,4,2.4,4.8,5.7,5.7
	c5.7,0.8-4,9.7,2.4,9.7h0.8l0.8,3.2c0,0,0.8,3.2,4,4.8c3.2,0.8,9.7,0.8,20.2-8.9h0.8c0.8-2.4,0.8-4-3.2-4c4-1.6,0-1.6,0.8-2.4l0,0
	c-3.2,0,1.6-3.2-1.6-3.2c0,0,1.6-0.8,1.6,0c-0.8-0.8-2.4-1.6,0-2.4c-1.6-1.6-1.6-4.8-5.7-4h0.8c-2.4,0.8-0.8-0.8-2.4-0.8
	c0,0,0,0,0.8,0c-2.4,0.8-1.6-1.6-2.4-1.6l1.6-0.8l-1.6-1.6v0.8c-4,2.4,1.6-2.4-1.6-2.4c0-1.6-8.9,3.2-8.1,0.8
	c-1.6,0.8,3.2-1.6,1.6-1.6c1.6-1.6,1.6-0.8,3.2-1.6c-1.6,0,1.6-2.4-0.8-2.4l1.6-0.8c-3.2,0.8,0-3.2-2.4-2.4c-2.4,0,3.2-4,0-3.2
	l1.6-1.6c0-0.8-2.4,1.6-2.4,0c0.8-0.8,0-1.6,1.6-2.4c0.8-3.2-4.8,0-3.2-4.8c-2.4,1.6-1.6,0-4,0.8c0.8-0.8-1.6-1.6,1.6-3.2
	c0,0,0,0,0,0.8l1.6-0.8c1.6-3.2-3.2,0-3.2-1.6c0,0.8,0,0.8-0.8,1.6l-0.8-0.8l0.8-0.8l-0.8-1.6l-0.8,1.6c0-1.6,1.6-4-0.8-2.4
	c-1.6,0.8-0.8,2.4-2.4,2.4c0-1.6,0-4-0.8-5.7c-0.8,1.6-1.6,1.6-1.6,1.6l0.8-1.6c-2.4,0.8,1.6-3.2-0.8-3.2l0.8-0.8l-2.4,3.2
	c-3.2,2.4,1.6-3.2-2.4,0c0.8,0-1.6,3.2-2.4,2.4l0.8-1.6c-0.8,0-0.8,0.8-0.8,0c0.8-0.8,1.6-2.4,0.8-2.4l1.6-1.6l-2.4,2.4
	c0-2.4-2.4-0.8-1.6-3.2c0,0-0.8-1.6-2.4,0c0.8-1.6,0.8-2.4,1.6-4c-1.6,1.6-3.2,2.4-3.2,0l0,0c-0.8-2.4-4.8,0.8-5.7-1.6
	c-0.8,1.6-1.6,0.8-2.4,3.2c-2.4,1.6-1.6-6.5-4.8,0.8c-0.8,0,0-2.4-0.8-2.4l0,0c-1.6,0-2.4,0-3.2-0.8c-0.8,0.8-1.6,4-2.4,3.2
	c0.8-1.6,0-1.6,0-1.6s0.8-0.8,0-1.6c0,0.8,0,0.8-0.8,0.8l0,0c-0.8,0-0.8,0.8-0.8,0.8v0.8c0-2.4-1.6,0-1.6-3.2c-2.4,0-4,2.4-5.7,3.2
	c0-1.6,0.8-2.4,1.6-3.2h-1.6c0-1.6,0.8-0.8,1.6-1.6c-0.8-3.2-3.2,2.4-4.8-0.8l-0.8,1.6l0,0c0,0.8-0.8,1.6-0.8,2.4c0-1.6,0.8-4,0-4
	c-0.8-1.6-1.6,0.8-2.4,1.6c0.8,0,0,1.6,0,1.6s-0.8-1.6-0.8-0.8v-2.4c0,2.4-1.6,2.4-1.6,3.2c0-1.6,0.8-1.6,0.8-2.4
	c-1.6,0-0.8,0-2.4,0c-0.8,1.6,0,2.4-0.8,4c-0.8,0.8-1.6,1.6-2.4,0.8v2.4c-1.6,1.6-2.4,1.6-3.2-0.8c-4.8,8.1-3.2,14.5-2.4,17.8
	c0,3.2,1.6,4.8,1.6,4.8C494.1,103.2,494.9,96.8,498.9,95.9z"/>
<path class="st1" d="M445.6,698.8c8.9,2.4,10.5,9.7,20.2,8.1c4,1.6,8.9,0.8,13.7,0.8c3.2-4.8,5.7,1.6,8.9-2.4v3.2
	c0.8-0.8,2.4-1.6,2.4,0v0.8c1.6-1.6,2.4,0,4-0.8v0.8h1.6l-0.8,0.8c2.4-1.6,4.8-0.8,6.5,0.8l0.8-3.2c2.4,4.8,6.5-1.6,8.9,4.8v0.8
	c8.1-7.3,4.8,8.9,12.9,2.4c-0.8,0.8-0.8,1.6-0.8,2.4c2.4,0,4.8,0.8,8.1-5.7c1.6,0.8,0,2.4-0.8,4.8c1.6-2.4,3.2-3.2,4.8-2.4l-2.4,0.8
	c1.6,0,2.4,0.8,4,0.8l2.4-5.7c0.8,2.4-3.2,6.5-0.8,6.5l2.4-4c1.6,2.4,0,8.9,0,13.7c1.6,1.6,4,3.2,7.3,4c2.4,0.8,5.7,1.6,8.1,3.2
	c4.8,2.4,10.5,5.7,10.5,12.1l-2.4,2.4c-4,4,7.3-3.2,4,0l2.4-0.8c-0.8,0.8-0.8,2.4-2.4,2.4c0.8,0.8,0.8,0,3.2,0l-1.6,3.2
	c0,2.4,2.4,3.2,4,4c1.6,0.8,4,1.6,4.8,4c-0.8,4,0.8,7.3,3.2,9.7c3.2,2.4,6.5,4.8,9.7,7.3c5.7,2.4,4,8.1,2.4,12.9
	c-0.8,4.8-3.2,10.5,2.4,12.9c-0.8,0.8,0.8,0.8,1.6,0.8c0.8,2.4,0.8,4.8,0.8,8.1c0,0,0,2.4,1.6,5.7c0.8,3.2,2.4,6.5,5.7,9.7
	c2.4,2.4,7.3,4.8,12.9,3.2c5.7-0.8,12.9-4.8,22.6-15.4h0.8c2.4-5.7,1.6-9.7-4.8-12.1c6.5-1.6,0-4.8,1.6-6.5h0.8
	c-5.7-1.6,2.4-8.1-3.2-9.7c0.8,0,2.4-0.8,2.4,0c-1.6-2.4-4-4.8,0-5.7c-2.4-4.8-4-12.9-11.3-14.5h0.8c-4.8,0-1.6-2.4-4.8-3.2
	c0.8,0,0.8-0.8,0.8-0.8c-4.8,0-3.2-5.7-5.7-6.5l2.4-1.6c-0.8-1.6-1.6-2.4-2.4-3.2v1.6c-6.5,3.2,2.4-4.8-3.2-5.7
	c-0.8-3.2-16.2,3.2-14.5-1.6c-4,0.8,5.7-2.4,1.6-2.4c3.2-2.4,2.4-0.8,4.8-2.4c-2.4-0.8,1.6-4.8-2.4-5.7l2.4-1.6
	c-6.5,0.8-0.8-8.1-6.5-6.5c-4-0.8,5.7-7.3-1.6-6.5l2.4-4c-0.8-1.6-4.8,2.4-4,0c1.6-1.6,0-3.2,2.4-4c0-5.7-9.7-2.4-9.7-10.5
	c-4,3.2-4-0.8-7.3,0.8c1.6-1.6-4-4,1.6-5.7c0.8,0,0.8,0,0,0.8l2.4-1.6c0.8-6.5-6.5-1.6-8.1-4c0,1.6,1.6,1.6-0.8,3.2l-2.4-2.4
	l1.6-1.6l-2.4-4l-1.6,3.2c-0.8-2.4,1.6-7.3-3.2-4.8c-2.4,1.6-0.8,4.8-3.2,4c-0.8-3.2-3.2-8.1-5.7-11.3c-1.6,3.2-2.4,2.4-3.2,2.4
	l1.6-2.4c-5.7,1.6,2.4-6.5-3.2-5.7l1.6-1.6l-4,4.8c-5.7,3.2,1.6-6.5-5.7-0.8c1.6,0-2.4,6.5-3.2,4l1.6-2.4c-0.8,0-1.6,0.8-2.4,0
	c1.6-0.8,2.4-4,0.8-4l2.4-2.4l-4.8,3.2c-0.8-4-5.7-1.6-4-5.7c0,0-3.2-4-6.5,0c1.6-2.4,0-4,1.6-7.3c-2.4,2.4-6.5,3.2-6.5,0l0,0
	c-4-4.8-9.7,1.6-12.9-4c-0.8,3.2-2.4,0.8-3.2,5.7c-5.7,2.4-5.7-11.3-11.3,1.6c-2.4,0-1.6-4-2.4-4.8l0.8-0.8c-4,0-5.7,0-8.1-0.8
	c-1.6,0.8-3.2,7.3-5.7,4.8c1.6-2.4,0-2.4-0.8-2.4c0.8,0,0.8-0.8,0-3.2c0,0.8-0.8,0.8-0.8,1.6c0,0,0,0,0-0.8
	c-1.6,0.8-1.6,1.6-0.8,1.6c0,0,0,0.8,0,1.6c-0.8-3.2-4.8-0.8-4-4.8c-4.8,0-8.9,4-12.9,4.8c0-2.4,0.8-4,2.4-4.8v1.6
	c0.8-3.2,1.6-1.6,3.2-2.4c-2.4-5.7-8.1,4-11.3-0.8l-0.8,2.4v-0.8c0,1.6-1.6,3.2-1.6,3.2c0-3.2,0.8-6.5-1.6-6.5
	c-1.6-3.2-4.8,0.8-6.5,2.4c0.8,0.8,0.8,2.4,0,3.2c-0.8,0-1.6-3.2-2.4-1.6v-4c0,3.2-3.2,4-3.2,4.8c0-3.2,1.6-2.4,2.4-4
	c-4,0-1.6,0-5.7,0c-2.4,2.4,0,3.2-0.8,7.3c-1.6,0.8-4,3.2-5.7,0.8l0.8,3.2c-3.2,2.4-5.7,2.4-7.3-1.6c-12.9,13.7-12.1,23.4-10.5,29.1
	c1.6,5.7,5.7,8.1,5.7,8.1C430.2,710.2,435.1,700.5,445.6,698.8z"/>
</svg>
