<?xml version="1.0" encoding="utf-8"?>
<!-- Generator: Adobe Illustrator 27.5.0, SVG Export Plug-In . SVG Version: 6.00 Build 0)  -->
<svg version="1.1" id="Layer_2_00000054970500159151454800000016939384796755806601_"
	 xmlns="http://www.w3.org/2000/svg" xmlns:xlink="http://www.w3.org/1999/xlink" x="0px" y="0px" viewBox="0 0 1800 1800"
	 style="enable-background:new 0 0 1800 1800;" xml:space="preserve">
<style type="text/css">
	.st0{fill:#C2B394;}
</style>
<g>
	
		<ellipse transform="matrix(0.9352 -0.3542 0.3542 0.9352 -129.4629 101.2707)" class="st0" cx="211.9" cy="404.3" rx="251.3" ry="598.2"/>
	<g>
		<g>
			<g>
				<g>
					<path class="st0" d="M297.7,975.2c-0.6-0.1-1.3-0.3-1.9-0.4C297,975.2,297.5,975.2,297.7,975.2z"/>
					<path class="st0" d="M-60.8,189.1c-2-22.9-2.3-41.6-1.9-58.2c0.4-16.5,1.5-30.9,2.8-45.3c1.4-14.3,2.9-28.6,4.8-44.7
						c2-16.1,4.2-34.3,8.3-55.6c2.6-10,5.5-19.9,8.8-29.4c0.8-2.4,1.7-4.7,2.6-7c0.9-2.3,1.8-4.6,2.7-6.9c1-2.2,1.9-4.5,2.9-6.6
						s2-4.3,3.1-6.4c4.3-8.3,9-15.9,14.2-22.2l1.9-2.4l2-2.2l1-1.1l1-1l2-2l2.1-1.8l1-0.9l1.1-0.8c0.7-0.6,1.4-1.1,2.1-1.7
						c0.7-0.5,1.5-1,2.2-1.5c0.2-0.4,0.5-0.9,0.7-1.3c0.3-0.4,0.6-0.8,0.9-1.1c0.6-0.7,1.3-1.5,2.1-2.2s1.6-1.3,2.5-1.9
						c0.4-0.3,0.9-0.6,1.4-0.9s1-0.5,1.5-0.8c4-2.1,8.7-3.5,13.6-4.3c9.9-1.7,20.8-0.9,31-2.2c1.1,0.9,2.2,1.9,3.3,2.8
						c1.1,1,2.1,1.9,3.2,2.9c1.8-0.1,3.6-0.2,5.5,0s3.8,0.4,5.7,0.8c1.9,0.5,3.7,1.1,5.5,1.9c1.8,0.9,3.4,1.9,4.9,3.1l-0.9,1
						c5.6,0.6,11.2,2.8,16,5.1c1.2,0.6,2.3,1.2,3.4,1.7c1.1,0.6,2.1,1.1,3.1,1.6c2,1,3.7,1.7,5.1,2.1l-1,0.8
						c2.1,1.1,4.1,2.2,6.2,3.4l6.2,3.6l-3,0.2c9.5,4.1,18.7,9.5,27.2,15.8s16.2,13.2,22.9,20.4L173-61c6.9,8.1,13,14.6,18.8,20.2
						c1.4,1.4,2.9,2.7,4.3,4.1c1.4,1.3,2.8,2.6,4.1,3.8c2.7,2.5,5.4,4.9,8,7.3c10.4,9.6,20.2,19.3,30,36.6l-1.3,0.4
						c10.4,7.4,18.1,15.6,24.3,24c3.1,4.2,5.9,8.5,8.5,12.9c2.5,4.4,5,8.7,7.3,13.2c1.2,2.2,2.3,4.4,3.5,6.6
						c1.2,2.2,2.3,4.5,3.6,6.7c2.5,4.5,5,9,7.9,13.5s6,9.1,9.7,13.6c3.6,4.6,7.7,9.2,12.4,13.9c-4.7-4.7-0.8,3.7-2.2,3.9
						c13.6,19.5,26.4,41.5,35.4,37c4.1,7.7,5.1,11.2,4.7,13.3c-0.3,2.1-2,2.6-3.2,4.6c3.9-2.2,12.6,10.4,18.9,22.5l-4.3-4.9
						c6.3,11.4,12.5,22.9,18.5,34.5l4.2-10.5c3.4,10,1.6,12.2,0.3,14.2c-1.3,1.9-2.1,3.5,2.9,12.2l6.2-3.1c2.6,6.7,4.5,13,5.7,19.1
						c0.6,3,1.2,6,1.6,9s0.8,5.9,1.1,8.8c1.2,11.7,1.8,23.5,4.5,37.3c4.9,13.5,9.9,27.1,15,40.8c5,13.7,10.1,27.4,15.1,41.3
						s9.9,27.8,14.6,41.8s9.1,28,13.3,42.1c8.2,28.2,15.2,56.5,19.9,84.5c4.7,28,7,55.7,6.3,82.3l-4.8,5.1c-1.9,0.7-1.9,2.7-1.1,5.5
						s2.4,6.4,4.1,10c3.3,7.3,6.6,15,3.2,17.1c1.3,4,2.6,8.1,3.8,12.1c-1.3,3.5-2.6,10.7-4.4,4.7c-0.2,11.2,1.1,11.5,3.3,19.6
						c-1.6,4-3.3,8-5,11.9c-2.5,21.9-2.9,41.9-4.3,62.1c-0.7,10.1-1.8,20.2-3.6,30.3c-1.8,10.1-4.5,20.4-8.6,30.4
						c-1.6,2.9-3.4,5.8-5.1,8.9c-1.8,3-3.5,6.3-5.4,9.4c-3.7,6.4-7.8,13-12.2,19.3c-4.4,6.3-9.2,12.4-14.5,17.9
						c-2.6,2.8-5.3,5.2-8.1,7.7c-0.7,0.6-1.4,1.1-2.1,1.7c-0.7,0.6-1.4,1.2-2.2,1.7c-1.5,1-2.9,2.2-4.5,3.1l-2.3,1.5l-2.4,1.3
						l-1.2,0.7c-0.4,0.2-0.8,0.4-1.2,0.6l-2.4,1.2c-0.8,0.4-1.7,0.7-2.5,1.1c-0.8,0.3-1.6,0.8-2.5,1.1c-1.7,0.6-3.4,1.3-5.2,1.8
						c-7,2.1-14.4,3.5-22,3.8c-15.2,0.7-31-2.2-44.3-6.2c-9.6-2.3-19.1-6.2-28.5-11.2c-9.3-5-18.4-11.2-27-18.1
						c-17.4-13.9-33.2-30.8-48-48.5c-7.4-8.9-14.6-18.1-21.6-27.3s-14-18.5-20.9-27.6c-6.9-9.2-13.9-18.2-21.1-27
						c-1.8-2.2-3.6-4.4-5.4-6.5c-1.8-2.2-3.6-4.3-5.5-6.4c-3.6-4.3-7.4-8.4-11.2-12.5c-0.8-3-7-7.8-7.7-7.2
						c-7.5-11.3-14.7-22.8-21.7-34.5c-3.5-5.8-7-11.7-10.4-17.5c-3.4-5.9-6.8-11.8-10.1-17.8c0,0-3-5.4-8.1-14.3
						c-2.5-4.5-5.5-9.9-8.8-15.9c-3.3-6.1-7-12.8-10.8-19.9c-7.7-14.3-16.2-30.4-24.6-46.4S27,541.5,19.4,527.9
						c-7.6-13.6-14.6-25-20.4-32s-10.6-9.6-13.6-5.6s-4.5,14.6-3.1,34.1c0.4,4.9,0.9,10.3,1.7,16.3c0.8,6,1.7,12.6,3,19.7
						c2.4,14.4,6,31.2,10.9,50.7l-2.4-1.2c8.2,22.1,15.9,39.8,24.3,55s17.6,27.9,29.3,39.8c-1.6,2.4-1.2,5.7,0.3,9.5
						c0.8,1.9,1.8,3.9,3,6s2.6,4.2,4.1,6.4c5.9,8.6,13.1,17.3,14.7,22.8l-1.3-0.4c11.1,10,17.8,23.2,24.9,36.3
						c7,13.1,14.2,26.1,25.5,35c-1.3-0.4-3.9,0.9-7.9-4.2c6.6,7.8,14.8,16.8,20.9,24.4c3.1,3.8,5.6,7.2,7.2,10.1
						c1.6,2.8,2.2,5,1.3,6.2c8.3,9.1,17.3,19.2,27,29.3s19.9,20.1,30.4,29.3c10.4,9.2,21,17.4,31.1,24c10,6.6,19.6,11.4,27.7,14.1
						l-2.8,0.1c9.5,2.6,14.6,5.6,20,8.9c2.7,1.7,5.3,3.5,8.7,5.3c1.7,0.9,3.4,1.8,5.5,2.7c2,0.9,4.3,1.7,6.8,2.6
						c0.7,1.2,1.9,2.2,1.5,2.4c2.7,0.4,5.5,1.1,8.5,2c1.5,0.4,3.1,0.9,4.6,1.4c1.6,0.5,3.2,1,4.8,1.6c3.3,1.1,6.7,2.3,10.2,3.4
						c1.8,0.6,3.5,1.2,5.3,1.8s3.6,1.1,5.3,1.7c1.8,0.6,3.6,1,5.4,1.6c1.8,0.5,3.5,1,5.3,1.4c3.5,0.8,7,1.7,10.3,2.2
						c1.7,0.3,3.3,0.5,4.8,0.8c1.6,0.2,3.1,0.3,4.5,0.4c2.9,0.3,5.5,0.2,7.7,0l0.9,4c0.9,0,1.9,0.1,2.8,0.1h2.8c1.9,0,3.8,0,5.7-0.1
						c3.8-0.2,7.6-0.4,11.4-0.9c3.8-0.4,7.6-1.1,11.3-1.8c1.9-0.4,3.7-0.9,5.6-1.3c0.9-0.2,1.9-0.4,2.8-0.7l2.8-0.8
						c-2.8,0.7-5.6,1.1-8.5,1.6c-2.8,0.5-5.7,0.7-8.5,1c0.5-1.5,1.5-2.5,2.7-3.3c1.3-0.8,2.9-1.2,4.8-1.7c1-0.2,2-0.4,3.1-0.5
						s2.3-0.2,3.6-0.4c1.3-0.1,2.6-0.3,4-0.4c1.4-0.1,2.9-0.3,4.3-0.5c3-0.5,6.3-0.9,9.6-1.8c1.7-0.4,3.4-0.9,5.1-1.4
						c1.7-0.6,3.4-1.3,5.2-2c1.8-0.7,3.5-1.6,5.2-2.5s3.4-1.9,5.1-3.1c1.6-1.2,3.2-2.4,4.8-3.7c1.5-1.4,3-2.9,4.4-4.4
						c6.3-4.4,11.4-10.4,15.2-17.1c0.5-0.8,1-1.7,1.4-2.5c0.4-0.9,0.8-1.7,1.3-2.6c0.8-1.8,1.6-3.5,2.3-5.3
						c1.3-3.6,2.7-7.2,3.7-10.8c2.2-7.2,3.8-14.3,6.1-20.9c1-3.3,2.3-6.5,3.7-9.6c0.7-1.5,1.5-3,2.4-4.5c0.8-1.5,1.7-2.9,2.8-4.3
						c0.2-3.5,0.5-4.3,0.8-4c0.4,0.3,0.9,1.9,1.4,3.3c0.6,1.4,1.2,2.6,2.1,2.3c0.4-0.2,0.9-0.7,1.4-1.9c0.5-1.1,1-2.9,1.5-5.3
						c2.7,0.8,2.6,3.3,2.6,5.2s0,3.3,3.1,1.8c0.7-2.4,1.5-4.7,2.3-6.8s1.7-4.2,2.7-6.1c0.5-1,1-1.9,1.5-2.9s1-1.9,1.5-2.9
						c1-1.9,2-3.8,3-5.8c3.9-7.8,7.7-16.4,8.7-28.6l4.5,0.1c0-2,0-4,0.1-6s0.2-3.9,0.4-5.8c0.2-1.9,0.5-3.8,0.7-5.6
						c0.3-1.8,0.6-3.7,0.9-5.5c1.4-7.2,3.2-14,4.8-20.5c3.3-13,5.9-25,2.9-35.5c-0.2-4-0.1-7.3,0.1-10.1c0.3-2.8,0.7-5.1,1.2-7.1
						c1.1-4,2.7-6.6,4.1-9.3c2.8-5.4,5.1-11.2,0.7-27.7c2-4.3,3.8-8.6,5.7-13c0.3-7.1-1.7-9.6-3.3-12.3c-1.7-2.7-3.2-5.5-2.1-13.4
						c3.9,0.7,1.7-19.9,5.9-11c1.7-18-2.1-35.8-6-54.8c-4-19-8.1-39.2-7.4-62.9c-4.5-4.3-6.8-12.3-8.8-20.1
						c-2.1-7.7-4-15.2-7.5-18.3c0.7-0.5,0.5-3.6-0.1-7.5c-0.6-4-1.5-8.8-2.2-12.9c-1.3-8.1-1.4-13.1,5-1.2c1.1,2.1,1.8,6,0.6,6
						l4.9,2.1c0.5-6.9-0.2-13.2-1.7-19.2c-1.4-6-3.7-11.6-6.1-17.2c-2.4-5.6-5.2-11-7.6-16.7c-2.5-5.6-4.6-11.5-6.2-17.9
						c0.8,7.8,3.8,17.6-0.9,11.8c-1.9-7.8-4-15.6-6.1-23.4l4.9,3.8c-1.3-5.9-2.8-11.7-4.1-17.6l-4.4-17.5l-2.8,6.1
						c-3.2-17.4,2.2-25.9-10.4-42.6c-6.3-7.3-0.3,17.7-7.7,0.7c-4.8-23.2-13-57.8-23.5-86.2c-3.6,4.6-6.5-3-10.8-10.2l3.7-2.6
						c-4.6-6.7-6.6-11-7.4-14s-0.2-4.9,0.4-6.7c1.2-3.7,2.5-7.5-6.4-20.9l4,1.2l-11.9-3.7c-5-5.5-7.5-9.4-8.7-12.4
						c-1.2-3.1-1.2-5.4-1.2-7.7c-0.1-2.3-0.4-4.7-2.1-7.9c-0.9-1.6-2.2-3.5-4-5.6c-1.9-2.1-4.3-4.6-7.4-7.4c3.2,5.4,1.7,7.8-1.2,7.1
						c-3-0.7-7.3-4.7-10.1-11.9l5.6,1.5c-4.8-7.1-7.7-8.8-9.6-14.2c4.4,3.4,6.7-0.6,0.1-11.3l8.7,4.9c-6.1-5.8-12.2-11.5-18.4-17.1
						c-1.3-4.5-3.5-9.4-6-14.2c-2.6-4.8-5.5-9.6-8.3-14.1c-5.5-9-10.4-16.8-9.8-21.6c0,0-1.2-2.2-3.1-5.6c-1.9-3.4-4.6-7.9-7.7-12.5
						c-6.1-9.3-13.8-18.9-19.1-20.8c4,2.1,3.1-1.5,2.2-5.5c-0.9-3.9-1.9-8.1,1.9-6.9c-2.5-1.5-5.6-4-9-7.1c-3.8-3.7-7.5-7.5-11-11.4
						c-7-7.9-13.4-16.6-15.3-22.9l1.9,1.5c-12.3-19.5-26.4-33.5-40.6-46.5c-3.6-3.2-7.1-6.5-10.6-9.7c-1.8-1.6-3.5-3.2-5.3-4.9
						c-1.8-1.6-3.5-3.3-5.3-4.9c-3.5-3.4-7-6.8-10.4-10.5c-1.7-1.8-3.5-3.7-5.2-5.6s-3.4-3.9-5.1-6c-1,2.5-5.2-0.4-9.1-2.9
						c-4-2.4-7.8-4.4-7.8-0.2c-9.3-5.7-17.3-12.2-24.8-18.5c-0.9-0.8-1.8-1.6-2.8-2.4c-0.9-0.8-1.8-1.6-2.7-2.3
						c-1.8-1.6-3.6-3.1-5.3-4.6c-3.5-2.9-6.8-5.9-10.2-8.4c-1.7-1.3-3.3-2.5-4.9-3.7c-1.7-1.1-3.3-2.2-4.9-3.2
						c-3.2-2-6.4-3.5-9.5-4.6c-0.8-0.3-1.5-0.5-2.3-0.7s-1.6-0.4-2.3-0.5c-1.5-0.3-3.1-0.4-4.6-0.4c-3,0-6,0.7-8.9,2.1
						c-4.7-2-8.4-3.7-11.3-5.4c-3-1.7-5.3-3.3-7.4-4.8c-2-1.6-3.8-3-5.7-4.4c-1.9-1.4-3.9-2.6-6.5-3.7c1.7,0.2,3.5,0.3,5.2,0.5
						c-19.5-5.4-33-7-45.2-7.8c-3.1-0.2-6.1-0.3-9.1-0.3c-1.5,0-3,0-4.6,0c-1.5,0.1-3.1,0.1-4.7,0.2c-6.3,0.2-13.2,0.9-21.3,2.2
						c-3.9,1.3-6.8,2.9-9.4,4.8c-1.3,0.9-2.5,1.9-3.7,2.9s-2.3,2.1-3.6,3.1c-1.2,1.1-2.6,2.1-4.1,3.1c-1.5,1.1-3.1,2.2-5,3.3
						c-1,0.5-1.9,1.1-3,1.8c-1.1,0.6-2.2,1.2-3.4,1.8c-0.6,0.3-1.2,0.6-1.9,0.9c-0.6,0.3-1.3,0.7-2,1c-1.4,0.7-2.8,1.4-4.4,2.1
						c2.9-3.8,2.1-4.2-0.7-2.9c-1.4,0.6-3.2,1.8-5.2,3c-1,0.7-2.1,1.3-3.1,2.1s-2.1,1.5-3.1,2.3c2.5-2.2,4-3.8,3.3-4.2
						c-0.4-0.2-1.3-0.1-2.9,0.5c-0.8,0.3-1.8,0.7-3,1.2s-2.6,1.1-4.1,2c-0.8,2.2-2.7,4.6-4.4,6.8c-0.3-0.1-0.8,0-0.9-0.4
						c-1.5,1.6-2.8,3-3.8,4.1c-1.1,1.2-1.8,2.2-2.4,3c-1.2,1.6-1.7,2.5-1.6,2.9c0.1,0.6,2.3-1,5.3-3.6c0.1,0.7,1.1,0.7,3.6-0.1
						c-1,0.5-2.1,1.1-3.1,1.8s-2,1.4-3,2.2s-2,1.6-3,2.5s-1.9,1.8-2.9,2.8s-1.9,1.9-2.8,2.9s-1.8,2.1-2.6,3.1
						c-0.9,1-1.7,2.1-2.6,3.1c-0.8,1-1.6,2.1-2.3,3.1c-1.5,2-3,3.9-4.3,5.7c-1.3,1.8-2.5,3.3-3.7,4.6c-2.2,2.6-4.1,4.1-5.8,3.7
						c-6.1,10.8-10.3,21.3-13.6,31.3c-3.3,10-5.6,19.6-7.3,28.9c-3.4,18.7-5,36.2-6.7,54.8c-3.9,3.6-5.5-5.5-4.7-16.6
						c-1.3,8.9-2.4,17.8-3.2,26.6c-4.7-0.9-0.6-15.6,0.2-24c-6.8,15.2-7.1,32.1-6.7,49.2c0.5,17.2,1.7,34.7-1.9,53
						c1.2,2.6,2.5,5.1,3.7,7.6l-0.6,2.2c1-0.1,2.2,2,3.2,4.7s2,6.1,2.3,8.7c-4,5.2-9.6-0.1-8.7,18c-0.8,3.6-1,8-0.7,12.8
						c0.4,4.8,1.1,10,2.2,15.3c0.5,2.6,1.1,5.3,1.7,8c0.7,2.7,1.3,5.3,1.9,7.9c1.3,5.2,2.6,10.2,3.7,14.8c-0.4-10.1,2.3-7.1,4.2-2.9
						c0.5,4.4,0,8.1-0.4,11.4c-0.4,3.3-0.7,6.4,0.7,9.7l-5.4,1.6c2.4-2.1,4.5,3.6,6.5,10.1s3.7,13.9,5.2,15.3
						c-1.6,2.8-3.1-0.5-4.5-4.7s-2.8-9.4-4.5-10.3c1.4,8.9,2.3,14.5,3,18.3c0.7,3.9,1.1,6.1,1.4,8.3c0.8,4.4,1.5,8.9,5.1,26.5
						c7.8,18,4.5-4.4,11.1,3.7c4.3,16.3,11.5,31.4,12.6,50.9l3.4-7c5.5,14.8,9.3,26.7,11.9,37.6c0.7,2.7,1.2,5.4,1.7,8
						s0.9,5.2,1.3,7.8c0.7,5.2,1.2,10.4,1.5,15.8c3.2,6.7,6.4,12.9,9.5,18.8c3.1,5.8,6,11.3,8.9,16.4c5.7,10.2,11,18.9,15.8,26.3
						c2.4,3.7,4.7,7.1,6.9,10.2s4.3,5.9,6.2,8.4c3.9,5,7.3,8.9,10.3,11.9c6,5.9,10.2,8.2,13.1,7.7c2.9-0.4,4.4-3.6,4.9-8.3
						c0.6-4.6,0.3-10.8-0.5-17.4c-0.7-6.6-2-13.7-3.1-20.3C3,437.3,1.7,431.3,0.8,427c-1-4.3-1.6-7-1.6-7
						c-4.3-21.9-8.8-40.7-13.6-58.3c-4.8-17.6-10-34-15.4-51c-5.4-16.9-11-34.4-16.4-54.1C-51.6,237-56.8,215-60.8,189.1z"/>
				</g>
			</g>
		</g>
	</g>
</g>
<g>
	
		<ellipse transform="matrix(0.3508 -0.9365 0.9365 0.3508 -506.3401 2060.5974)" class="st0" cx="1233" cy="1395.5" rx="158.3" ry="779.1"/>
	<g>
		<g>
			<g>
				<g>
					<path class="st0" d="M740.6,1371.3l-6.5-5.8C733.8,1366.4,735.3,1368.1,740.6,1371.3z"/>
					<path class="st0" d="M542,1139.1C542,1139.2,542,1139.2,542,1139.1c0.2,0.1,0.3,0.1,0.5,0.1
						C542.3,1139.2,542.2,1139.2,542,1139.1z"/>
					<path class="st0" d="M857.8,1368c-24.6-13-44.2-24.4-61.4-34.9s-32-20.1-46.8-29.8c-14.8-9.7-29.7-19.5-46.8-30.5
						c-17.1-11.1-36.5-23.4-59.8-38.9c-10.7-7.9-21.5-15.9-32-24.1s-20.8-16.7-30.4-25.3c-9.6-8.6-18.4-17.4-25.6-26
						c-1.8-2.1-3.5-4.3-5-6.3c-1.5-2.1-2.9-4.1-4.1-6c-1.2-1.9-2.2-3.7-3-5.3l-0.4-0.8c0-0.1-0.1-0.1-0.2-0.2
						c-0.1-0.1-0.2-0.3-0.2-0.4c-2-0.3-3.2-1.9-3-3.5c0.1-1.1,0.8-2,1.7-2.7c0.4-0.4,0.9-0.7,1.5-0.9c0.1-0.1,0.2-0.1,0.4-0.2
						c0.1,0,0.1-0.1,0.2-0.1c0.1,0,0.1-0.1,0.3-0.2l1.3-0.6l1.4-0.6c3.8-1.6,8.3-3.1,13-4.6s9.5-3,14.1-4.7
						c3.5,0.8,7.1,1.7,10.6,2.6c8.9-2.9,20.3-4.7,30.1-2.7l-0.6,1.1c7.2-1.5,15.1-1.7,22.1-1.6s13,0.5,16.8,0l-0.7,1.1
						c6.1,0.2,12.1,0.5,18.3,0.8l-3.3,1.3c26.4-1,53.9,2.3,77.6,7.4l-1.3-4.9c25.4,6.5,43.1,8.7,60.2,11c17.1,2.3,33.7,4.8,56.1,13
						l-0.9,1c30.6,0.5,53.3,8.3,75.9,16.3c22.7,8.1,45.4,16.5,76.9,19.4c-7.8-0.7,2.5,3.2,1.6,4.1c27.8,6.6,57.2,14.9,60.3,6.3
						c19.9,6.3,15.4,7.8,16.9,12c1.1-3.9,18.9,0,34.5,4.8l-7.6-0.8c15,4.4,29.9,8.8,44.8,13.4l-6.3-10.1c22.9,10,3,10.7,26.1,16.7
						l1.7-6c32.1,12.4,47.9,28.1,77.4,43.9c64.1,25.1,131.7,48.5,197,74.5c65.3,25.9,128.5,54.5,182.6,88.8l2.8,6.8
						c-0.5,3.6,8.4,5.4,17.7,7.4c9.2,2,18.8,4.1,19.4,8.1l14.5,4.4c3.1,3.1,10.1,8.5,2.9,6.3c11.8,6.9,12.6,6.1,22.2,9.2l10.6,11
						c22.4,15,44.1,27,65.9,39.5c21.7,12.6,43.5,25.7,64.7,43.5c11.6,12,26.3,25.7,40.5,40.9c7.1,7.6,14,15.5,19.7,23.4
						c1.4,2,2.7,3.9,4,5.8c1.2,1.9,2.3,3.8,3.2,5.6l0.7,1.3l0.6,1.2c0.2,0.4,0.4,0.7,0.5,1.1c0.3,0.7,0.6,1.5,0.9,2.2
						c0.5,1.5,0.6,3.3,0.3,4.9c-0.3,1.7-1.1,3.3-2.3,4.6c-0.6,0.7-1.2,1.3-1.9,1.9c-0.3,0.3-0.7,0.6-1.1,0.8l-0.3,0.2l-0.1,0.1
						l-0.3,0.2l-1.3,0.7c-3.5,1.9-7.8,3.7-12.3,5.2c-9.1,3.1-19.2,5.2-28.9,6.8c-9.8,1.6-19.4,2.6-28.2,3.3c-25,2.9-51.9,1.4-79-2.4
						c-27.2-3.8-54.7-10-82.1-16.8c-54.9-13.7-109.4-30.1-162.6-37.8c-3.1-1.8-12.4-2-12.5-1.2c-31.5-8.6-62.9-17.8-94.1-27.4
						c0,0-28.5-8.6-65.8-19.8c-18.7-5.6-39.5-12-60.2-18.1s-41.2-12.1-59.1-16.8c-35.9-9.4-61.7-13.9-58.6-4.4
						c1.6,4.7,10.4,13,29.1,25.5s47.1,29.3,88.4,50.7l-2.8,0.6c25.3,10.4,46.2,18.3,65.5,24c19.3,5.8,37.1,9.4,56.2,11.1
						c1.5,5.3,12.3,8.7,24,11.5c11.8,2.8,24.6,5,30.4,8.1l-1.4,0.4c17,1,33.2,6.8,49.3,12.6c16.1,5.8,32.2,11.4,48.6,12
						c-1.4,0.4-2.6,2.7-9.9,1.2c11.6,2.2,25.3,4.5,36.2,7c10.9,2.4,19.1,5,19.4,7.8c27.7,5.2,60.8,11.9,91.9,16.2
						c15.6,2.2,30.6,3.7,44.1,4.4c13.5,0.7,25.4,0.5,34.7-0.9l-2.6,1.3c10.6-1.9,17.3-1.6,24.4-1c7,0.6,14.4,1.5,26.2,0.4
						c1.3,0.7,2.9,1.1,2.6,1.4c11.5-2.6,28.2-2.8,44.8-3.8c8.2-0.5,16.5-1.2,23.8-2.3c7.4-1.1,13.9-2.6,18.7-4.4l2.2,3.1
						c8.2-2.2,16.5-5.1,25.1-9.4c0.5-0.2,1.2-0.6,1.8-0.9l1.9-1c1.2-0.7,2.4-1.4,3.7-2.1c1.2-0.8,2.4-1.5,3.5-2.3s2.3-1.6,3.4-2.5
						c4.4-3.4,8.5-7.3,11.9-11.7c-5.4,6.3-12.1,11.4-19.4,15.5c0.5-3.2,3.4-5.9,7.7-9.5c2.2-1.8,4.6-3.8,7.2-6.2
						c2.6-2.4,5.4-5.3,7.9-8.7c2.5-3.4,4.9-7.5,6.6-12.1c1.8-4.6,2.9-9.7,3.1-15.2c0.3-5.4-0.4-11.2-1.9-16.8
						c-0.4-1.4-0.8-2.8-1.3-4.2c-0.5-1.4-1.1-2.8-1.7-4.2c-0.6-1.4-1.3-2.7-2-4.1c-0.4-0.7-0.7-1.2-1-1.8l-1-1.6
						c-3.6-8.7-9.4-15.7-15.7-21.6c-6.4-5.9-13.5-10.6-20.6-15c-14.2-8.8-28.3-16.3-38.5-28.4c-7.2-3.1-3.5-2.4-0.4-2.4
						c3.1,0.1,5.6-0.7-4.1-6.6c2.7-4.4,10.1,4.4,8.3-2.5c-9.3-6.3-15.6-13-22.6-20c-7-6.9-14.7-14-26.9-20.5l1.4-3.9
						c-16.7-7.4-29.8-17.7-41.9-27.2c-12.1-9.4-23.1-17.9-34.9-21c-16.4-8-20.2-13.6-24.4-18.9c-4.2-5.2-9-10.1-27.4-16.1
						l-10.3-11.9c-13.8-8.6-13.4,0.2-27.9-10.7c2.6-2.5-18.8-13.1-8-11c-16.8-11.9-36.1-19.7-56.6-28.3
						c-20.6-8.7-42.4-18.2-64.8-33.6c-6.7,0.5-15.7-2.9-24.3-6.4c-8.6-3.4-16.8-6.9-21.8-6.4c-0.1-1.6-12.3-7.2-20.8-11.6
						c-8.5-4.3-13.2-7.5,1.9-4.2c2.6,0.6,6.7,2.5,6,3.4l4.9-2.1c-12.4-9.6-25.6-14.2-39-18s-27.1-6.8-40.8-13.1
						c7.8,4.6,18.8,8.9,10.5,8.3c-8.5-3.8-17.1-7.5-25.6-11.3l6.7-0.8c-12.6-5.9-25.3-11.8-38-17.5l3.8,5.9
						c-18.2-9.5-22.3-18.7-45.9-21.6c-10.9-0.8,16,12.1-4.5,5.5c-24.4-12.5-61.2-30.7-93.7-43.6c1.5,5.4-7.3,2.1-16.7-0.2l0.3-4.1
						c-18.4-3.5-20.9-6.7-23.3-10s-4.8-6.8-22.9-10.6l4-1.6l-11.9,4.8c-17-1.5-20.6-4.8-24.7-8c-4.2-3.1-8.9-6.1-28.1-6.6
						c14.1,3.8,3.9,10.4-12.7,3.4l5.5-2.3c-9.7-2.2-13.3-1.6-19.4-4.4c6.2-0.2,4.6-4.4-9.5-8.1l10.8-1.7c-9.5-0.5-19-0.9-28.5-1.3
						c-9.6-5-22.9-8.7-34.6-12c-11.7-3.3-22-6.2-25.5-10c0,0-10.9-3.7-23.2-7c-12.4-3.3-26.2-6-32.1-4.4c9.9-1.3-14.3-8.9-6.3-11.4
						c-6.3,0.6-18.2-0.5-30.1-2.5c-11.9-2-23.8-5.1-30.2-8.8l2.7,0.1c-25-8-47.2-11.1-68.8-13.9c-21.6-2.7-42.5-5.1-65.5-11.4
						c0.7,2.5-5,2.1-10.2,2c-5.3-0.1-10,0.1-7.4,3.5c-24.5-0.5-46.3-5.9-64.8-8.7c-18.4-2.9-33.4-3.3-42.6,5.7
						c-11.3,0.3-18-0.6-23.5-1.8c-5.4-1.2-9.6-2.5-15.6-2.6l5.5-1.3c-10.9,0.9-20,2.1-28,3.4s-15,2.7-21.7,4.4
						c-6.7,1.7-13.1,3.6-20.2,6.2c-0.9,0.4-1.8,0.7-2.7,1.1s-1.8,0.8-2.8,1.2c-0.9,0.4-1.9,0.9-2.9,1.3c-0.5,0.2-0.9,0.4-1.5,0.7
						c-0.6,0.3-1.2,0.6-1.8,0.9c-4.8,2.4-9.6,5.4-14.5,9.2c-2.7,2.5-4.8,5-6.4,7.5c-1.6,2.4-2.8,4.9-3.8,7.2
						c-1.9,4.8-3,9.6-4.2,15.6c-0.7,3.8-1.3,8.1-1.6,13.3c-0.3,5.2-0.2,11.4,0.9,18.8c-1.5-3-2.2-4.3-2.6-4.4
						c-0.4,0-0.5,1.3-0.3,3.5c0.3,2.2,0.9,5.2,1.9,8.5c0.5,1.7,1.1,3.4,1.8,5.2c0.3,0.9,0.7,1.8,1,2.6l0.5,1.3l0.5,1.1
						c-0.2-0.5-0.5-0.9-0.7-1.3c-0.2-0.5-0.5-1-0.7-1.4c-0.4-0.9-0.8-1.6-1.2-2.2c-0.7-1.2-1.1-1.8-1.4-1.4
						c-0.2,0.4-0.2,1.6,0.3,4.1c0.1,0.6,0.3,1.3,0.5,2.1c0.2,0.6,0.3,1.4,0.5,2.1c0.4,1.6,0.9,3.3,1.6,5.3c2,1.6,4.3,4.5,6.4,7
						c-0.2,0.3,0,0.9-0.5,0.8c2.9,4.2,5.1,6.9,6.6,8.6s2.4,2.4,2.7,2.5c0.6,0.1-0.9-2.6-3.2-6.5c0.7,0.1,0.8-0.9,0.1-3.7
						c1.8,4.9,4.8,10,8.3,15c3.5,4.9,7.5,9.6,11.2,13.8c7.4,8.3,13.5,14.7,12.3,17.5c9.9,9.2,19.7,16.9,29.1,23.8
						c9.4,6.9,18.6,12.9,27.7,18.5c18.1,11.3,35.6,21,54.1,31.9c2.4,5.1-7.5,1.9-18.4-4.2c8.6,5.5,17.3,10.8,26,16
						c-2.6,3.5-16-7.5-24.3-12.1c13.1,13.1,29.9,21.9,47.4,30.6s35.8,17.4,52.5,30.6l9.3,1.4l1.9,1.7c0.8-1.6,10.2,0.9,16,3.4
						c3.4,6.1-4.6,7.4,13.9,17.2c6.4,5.5,17,10.7,28.5,15.4c11.5,4.7,23.9,9,34,13c-10.1-5.8-5.8-6-0.7-4.9c9.3,4.6,13,10.6,21,12.8
						l-1.3,5c-0.8-3,5.9-1.2,13.3,1.4c7.4,2.6,15.6,5.9,17.8,5.8c3.7,6-15.9-4.1-19.5-2.8c18.9,9,23.7,11.1,28.4,13.3
						c4.7,2.2,9.5,4.4,28.5,13c21.8,5.9-1.7-6,9.9-5.6c18.2,7.3,37.1,12,56.5,23.8l-4.7-7c35.1,11.7,55.1,20.6,76.2,34.4
						c33.4,8.9,59.7,14.7,79.9,18.5c20.3,3.7,34.6,5.4,44.2,5.6c19.3,0.4,19.8-4.8,11.9-12c-7.8-7.1-23.9-16.2-38-23.7
						c-14.1-7.4-26.2-13.1-26.2-13.1c-47.7-24.3-85-39.2-125.2-54.2c-20.1-7.5-40.9-15.1-63.8-24.1
						C911.6,1391.8,886.5,1381.4,857.8,1368z"/>
				</g>
			</g>
		</g>
	</g>
</g>
<g>
	
		<ellipse transform="matrix(0.8526 -0.5226 0.5226 0.8526 -712.4261 257.2855)" class="st0" cx="99.8" cy="1391.4" rx="372" ry="497.8"/>
	<g>
		<g>
			<g>
				<g>
					<path class="st0" d="M-267.6,1295.4c-0.2-10.8,0.1-20.7,0.9-29.7c0.3-4.5,0.8-8.8,1.3-13c0.5-4.1,1.1-8.1,1.7-12
						c2.5-15.4,5.7-28.5,9.3-41.5c3.6-13,7.6-25.7,12.5-40.1c2.4-7.2,5.1-14.8,8.2-23c3.1-8.2,6.6-17,10.8-26.5
						c9.4-17.4,20-34.6,32.3-50.2s26.1-29.8,41.1-41.3c4.9-8.6,15.6-15.7,27.2-21.5c11.7-5.9,24.1-10.7,33.4-17.4
						c1.6,0.3,3.2,0.6,4.8,0.9l4.7,1c6.4-4.3,14.8-8.2,22.7-7l-0.2,1.4c0.6-0.4,1.3-0.7,2-1s1.3-0.6,2-0.8c1.4-0.5,2.7-1,4.1-1.4
						c2.8-0.8,5.6-1.3,8.2-1.7c5.3-0.8,9.9-1.2,12.6-2.3l-0.4,1.4c2.3-0.3,4.6-0.6,6.9-0.8l6.9-0.6l-2.3,2.1c19.7-4.6,41-3.5,59,1.1
						l-0.7-5.9c4.9,1.5,9.3,2.8,13.5,3.9c4.2,1.2,8.1,2,11.8,2.8c1.9,0.4,3.7,0.7,5.5,1.1c1.8,0.4,3.5,0.7,5.2,1
						c3.4,0.6,6.8,1.2,10.1,1.8c6.6,1.2,13.1,2.7,19.9,5.1c3.4,1.2,6.9,2.7,10.5,4.4c3.6,1.9,7.4,3.9,11.3,6.6l-1,1.1
						c12.2,0.9,22.4,4.2,31.3,8.7c1.1,0.6,2.2,1.1,3.3,1.7c1.1,0.6,2.1,1.2,3.2,1.8c2.1,1.3,4.1,2.5,6.1,3.9
						c3.9,2.7,7.8,5.5,11.5,8.5c7.5,5.8,14.8,11.9,23.2,17.6c8.4,5.6,17.9,10.9,29.8,15.4c-6-2.3,0.3,3.9-0.9,4.7
						c9.4,6.1,18.9,13,26.8,17.4c4,2.2,7.6,3.8,10.7,4.3s5.8,0,7.7-2c12.3,11.5,7.6,11.9,6.2,16.5c3.3-3.6,15.3,4.9,24.6,14.3
						l-5.6-3c9.2,8.5,18,17.5,26.6,26.6c0.7-3.9,1.5-7.8,2.1-11.7c5.7,8.5,4.3,11.3,3.4,13.7c-0.9,2.3-1.5,4.2,5.5,10.8l5.8-5
						c8.2,11.4,12.3,22.2,15.7,33.2c0.8,2.8,1.6,5.6,2.4,8.3c0.8,2.8,1.6,5.6,2.4,8.5s1.7,5.8,2.7,8.8c0.9,3,2,6.1,3.2,9.2
						c14.1,23.5,28.3,47.5,41.3,72.4s24.9,50.6,34.5,77s16.9,53.4,20.9,80.2c4,26.8,4.5,53.5,1,78.6l-5.8,4.3
						c-4.2,0.9-1.2,7.7,1.6,14.9c1.4,3.6,2.9,7.3,3.3,10.3c0.5,3,0.1,5.3-1.9,6.1c0.9,4,1.8,7.9,2.6,11.9c-1.9,3.1-4.4,9.6-5.5,3.7
						c-0.8,5.3-1,8-0.7,10.4c0.1,1.2,0.4,2.3,0.7,3.7c0.3,1.3,0.6,2.9,0.9,4.9c-1.2,1.7-2.4,3.5-3.6,5.2l-3.7,5
						c-3.1,10-5.6,19.5-8,29c-2.4,9.4-4.8,18.7-7.4,28s-5.7,18.5-9.7,27.7s-8.8,18.2-15,26.9c-2.3,2.3-4.6,4.8-7.1,7.4
						c-1.2,1.3-2.4,2.6-3.7,4c-1.3,1.3-2.5,2.7-3.8,4.1c-5.2,5.5-10.6,11.4-16.5,17.4c-5.9,5.9-12,12-18.6,18
						c-6.6,5.9-13.5,11.8-20.7,17.4s-14.7,10.9-22.4,15.8c-7.7,4.9-15.5,9.5-23.3,13.4c-7.8,4-15.6,7.6-23.1,10.6
						c-1.9,0.8-3.8,1.4-5.6,2.2c-0.9,0.4-1.8,0.7-2.7,1.1c-0.9,0.3-1.8,0.6-2.7,1c-1.8,0.6-3.6,1.2-5.3,1.9
						c-1.8,0.6-3.5,1.1-5.2,1.6c-18.8,7-40.1,9.3-61.6,7.7c-21.5-1.5-43.1-6.8-64-13.8c-20.9-7.1-41.1-16-60.9-24.9
						c-9.9-4.4-19.7-8.9-29.5-13.2c-4.9-2.1-9.8-4.2-14.8-6.2c-4.9-2.1-9.9-3.9-14.9-5.8c-0.9-1.2-3.2-2.1-5.3-2.6s-4.1-0.7-4.3-0.2
						c-21.9-13.7-42.8-29.1-62.5-45.9c0,0-1.1-0.9-3.2-2.7c-2-1.8-5.1-4.2-8.7-7.5c-7.4-6.4-17.5-15.5-28.8-26.2
						c-11.2-10.7-23.5-23-35.4-35.6c-11.9-12.5-23.4-25.2-33.7-36.2c-2.5-2.8-5.1-5.4-7.5-7.9s-4.7-4.9-7-7c-2.2-2.2-4.3-4.2-6.3-6
						s-4-3.4-5.7-4.7c-3.6-2.7-6.7-4.4-9.3-4.8s-4.6,0.4-6,2.7c-2.6,4.7-2.7,15.5,2.1,34.5c4.9,18.9,14.6,46.1,34.4,82l-2.8-0.4
						c14,19.4,26.9,34.3,39.9,46.2c13.1,11.9,26.4,20.8,42.1,27.6c-0.4,1.5-0.2,3,0.4,4.6c0.6,1.5,1.7,3.1,3.1,4.6s3.1,3.1,5.1,4.6
						s4.1,3,6.3,4.4c1.1,0.7,2.2,1.5,3.4,2.2c1.1,0.7,2.3,1.4,3.4,2.1c2.3,1.4,4.5,2.7,6.5,4c4.1,2.6,7.6,5,9.4,7.4l-1.4,0.2
						c14.6,4.6,26.3,14.1,38.4,23.2s24.6,17.9,39.2,20.4c-1.4,0.3-3.3,3-9.3,0.2c9.7,3.9,21.4,8.1,30.7,11.8
						c4.6,1.9,8.6,3.7,11.4,5.5c2.8,1.8,4.4,3.5,4.2,5.2c12,4,25.3,8.1,39.2,11.7c13.8,3.6,28.3,6.7,42.3,8.6
						c28.1,4,54.7,3.2,70.8-2.4l-2.2,1.9c9.3-3.7,15.1-4.3,21.4-4.5c3.1-0.2,6.3-0.2,10-0.6c3.7-0.5,7.9-1.1,12.9-2.8
						c1.2,0.7,2.8,0.9,2.6,1.3c9.5-4.9,23.8-7.8,37.5-11.4c13.8-3.4,27-7.5,34-11.9l2.6,3.7c12.5-5.4,24.5-11.6,36.1-18.5
						c-4.6,2.1-9.1,4.3-13.8,6.3c-0.3-6.5,7.1-8.2,17.5-11.5c5.2-1.6,11-3.7,16.9-6.9c2.9-1.7,5.8-3.5,8.5-5.7
						c2.7-2.3,5.3-4.8,7.6-7.9c2.8-2,5.4-4.3,7.7-6.9c2.3-2.7,4.4-5.5,6.2-8.6c1.8-3.1,3.5-6.3,5-9.7c0.8-1.7,1.5-3.4,2.2-5.1
						s1.4-3.4,2.1-5.1c2.7-6.8,5.3-13.6,8.4-19.7s6.8-11.5,12-16c1.5-6.8,1.7-3.2,2.5-0.1c0.7,3.1,2.1,5.7,6.1-3.4
						c5.5,3.2-2.3,9.6,4.8,8.6c1.2-2.2,2.4-4.2,3.6-6c1.3-1.9,2.6-3.6,4-5.2c1.3-1.7,2.7-3.3,4.2-4.9c0.7-0.8,1.4-1.6,2.2-2.4
						c0.7-0.8,1.4-1.6,2.1-2.4c1.4-1.6,2.9-3.3,4.3-5.1c1.4-1.8,2.7-3.7,4.1-5.8c0.7-1,1.3-2.1,1.9-3.2s1.2-2.3,1.8-3.5
						c1.1-2.5,2.2-5.1,3.1-8l4.8,1.3c0.8-4.1,1.9-7.8,3-11.5c0.6-1.8,1.3-3.6,2-5.4c0.7-1.7,1.4-3.5,2.1-5.2s1.5-3.3,2.3-5
						c0.8-1.6,1.5-3.2,2.3-4.8c0.8-1.6,1.6-3.1,2.4-4.7s1.6-3.1,2.3-4.6c6.2-12.1,11.5-23.5,10.1-34.6c1.1-8,2.7-13.1,4.6-16.9
						c0.9-1.9,2-3.4,3-4.7c1-1.4,2.1-2.6,3-3.8c1-1.2,2-2.5,2.8-3.9c0.9-1.5,1.6-3.1,2.1-5.2s0.9-4.5,1-7.6c0.1-3-0.2-6.7-0.7-11
						c2.8-4,5.5-8.1,8.2-12.2c1.3-7.2-0.4-10-2-12.9c-0.8-1.5-1.5-3-1.7-5.1s0-4.8,1-8.8c2,0.6,3.2-4.4,4.2-8.4
						c0.9-4,1.8-6.9,3.6-2.1c0.5-2.3,0.9-4.5,1.2-6.8s0.5-4.6,0.6-6.9s0.2-4.6,0.2-7c0-2.3-0.1-4.7-0.2-7c-0.1-1.2-0.1-2.4-0.2-3.5
						c-0.1-1.2-0.2-2.4-0.3-3.6c-0.2-2.4-0.5-4.8-0.8-7.2c-0.6-4.8-1.3-9.7-2.1-14.6s-1.5-9.9-2.3-15c-0.4-2.5-0.7-5.1-1-7.7
						c-0.4-2.6-0.7-5.2-0.9-7.9c-0.2-2.7-0.5-5.4-0.7-8.1s-0.3-5.5-0.4-8.4c-0.2-5.7-0.1-11.5,0.1-17.6c-2.4-2.2-4.2-5.4-5.7-8.9
						c-1.5-3.6-2.6-7.6-3.8-11.5c-2.2-7.9-4.4-15.4-8.2-18.4c0.8-0.5,0.5-3.7-0.2-7.7c-0.4-2-0.8-4.3-1.2-6.5
						c-0.5-2.2-1-4.5-1.4-6.6s-0.7-3.9-0.9-5.4c-0.2-1.4-0.1-2.5,0.2-2.9c0.6-0.8,2.5,0.8,6.1,6.7c1.2,2.1,2.2,6,0.8,6.1l5.5,1.9
						c0.8-14.3-3.9-26-9.9-37c-1.4-2.8-3.1-5.5-4.6-8.2s-3.1-5.5-4.7-8.2c-1.5-2.8-3-5.6-4.3-8.5c-1.4-2.9-2.6-5.9-3.7-9.1
						c0.7,4,2.1,8.4,2.6,11.1s0.1,3.8-2.7,1.1c-1.3-3.9-2.7-7.7-4.1-11.6s-2.9-7.7-4.3-11.5l5.7,3.2c-3.9-11.7-8.2-23.3-12.7-34.8
						c-0.8,2.2-1.6,4.5-2.4,6.7c-1.3-4.4-2-8.2-2.6-11.8c-0.5-3.6-1-6.9-1.7-10.1c-1.4-6.4-4.3-12.6-12.2-19.9
						c-4-3.1-3.4,1.5-3.2,4.8c0.1,1.7,0.1,3-0.5,3c-0.6-0.1-1.9-1.5-4.6-5.5c-4.2-11.3-9.8-25.3-16.6-39.8
						c-6.8-14.5-14.8-29.3-23.2-42.3c-2.9,5.6-7.6-1.2-13.6-7.3l3.3-3.7c-3.2-2.7-5.5-5-7.3-7c-1.7-2-2.9-3.6-3.7-5
						c-1.5-2.9-1.3-4.9-1.2-7c0.2-2.1,0.4-4.2-1-7.1s-4.4-6.8-10.8-12.1h4.5c-4.5,0-8.9,0.1-13.4,0.1c-6.7-3.9-10.2-6.9-12.3-9.6
						c-2.1-2.7-2.6-5-3.4-7.3c-0.4-1.2-0.8-2.3-1.4-3.5c-0.7-1.2-1.6-2.4-3-3.7c-1.4-1.3-3.2-2.7-5.7-4.2s-5.7-3-9.7-4.7
						c4.9,4.2,4,7.2,0.7,7.5c-1.6,0.2-3.8-0.3-6.3-1.6c-2.4-1.3-5-3.4-7.5-6.5l6.1-0.7c-3.5-2.7-6.1-4.1-8.3-5.5
						c-2.2-1.4-4-2.6-5.8-5c2.8,0.8,4.4,0,4.2-2c-0.1-1-0.8-2.3-2-3.9c-0.6-0.8-1.4-1.6-2.3-2.5s-2-1.8-3.3-2.8l5.2,0.7l5.2,0.8
						c-4-1.7-8-3.3-12-5c-4-1.6-8-3.2-12.1-4.7c-2.7-4-6.6-7.8-10.8-11.5c-2.1-1.8-4.3-3.6-6.5-5.3s-4.4-3.4-6.6-5
						c-4.3-3.2-8.4-6.2-11.6-9s-5.4-5.4-6-7.9c0,0-2-1.6-5.1-4s-7.6-5.5-12.4-8.6c-4.9-3-10-6-14.9-8c-2.4-1-4.7-1.8-6.7-2.4
						c-2.1-0.5-3.9-0.7-5.3-0.5c4.7,0.1,2.4-3-0.1-6.4s-5.2-6.9-1.1-7.6c-3-0.2-7.1-1-11.7-2.4c-2.3-0.6-4.8-1.4-7.3-2.2
						c-1.2-0.4-2.5-0.9-3.8-1.3c-1.3-0.4-2.6-0.9-3.8-1.4c-2.5-1-5.1-2-7.5-3.1s-4.8-2.2-7-3.4c-1.1-0.6-2.1-1.2-3.1-1.8
						s-1.9-1.2-2.8-1.8c-1.8-1.2-3.3-2.5-4.5-3.7l2.5,0.4c-5.1-3.1-10.3-5.5-15.3-7.8c-5.1-2.2-10.1-4.1-15.2-5.7
						c-10-3.3-19.9-5.4-29.6-7.4c-4.9-0.9-9.7-1.9-14.6-2.7c-2.4-0.5-4.8-0.9-7.3-1.4c-2.4-0.4-4.9-0.9-7.3-1.4s-4.9-1-7.3-1.5
						c-2.5-0.5-4.9-1.1-7.4-1.8c-5-1.2-10.1-2.7-15.3-4.2c0.3,1.5-0.9,2.2-2.7,2.5c-0.9,0.2-2,0.3-3.2,0.3c-1.2,0.1-2.4,0.1-3.6,0.2
						c-4.8,0.3-9.1,0.8-6.8,4.7c-11.1,0.6-21.5-0.2-31.3-1.1c-2.4-0.3-4.9-0.5-7.2-0.8c-2.4-0.2-4.7-0.6-7-0.8
						c-4.6-0.4-9-1-13.2-1.2c-16.8-1-30.4,0.9-36.5,13.2c-4.8,1.1-8.8,1.6-12.1,1.8c-3.3,0.2-6.1,0-8.6-0.3s-4.7-0.6-6.9-0.9
						c-2.2-0.2-4.5-0.4-7.1,0.1c1.5-0.8,2.9-1.6,4.4-2.3c-2.3,0.6-4.5,1.4-6.5,2c-2.1,0.7-4.1,1.3-6,1.9c-3.8,1.3-7.2,2.6-10.5,3.7
						c-3.2,1.2-6.2,2.4-9,3.4c-2.8,1.1-5.4,2.2-8,3.3c-2.6,1-5,2.1-7.5,3.2c-2.5,1.1-5,2.1-7.5,3.3s-5.2,2.3-8,3.7s-5.7,2.7-8.9,4.3
						c-2.9,2.2-4.8,4.4-6.4,6.8c-1.6,2.3-2.9,4.8-4.6,7.3c-0.8,1.2-1.8,2.5-2.8,3.7c-1.1,1.3-2.3,2.6-3.7,3.9
						c-2.9,2.6-6.7,5.4-12.1,8.4c2.1-3.9,1.2-4.4-1.2-3.1c-2.4,1.3-6.2,4.3-9.9,7.1c2.2-2.1,3.4-3.6,2.7-4.1
						c-0.7-0.4-3.5,0.2-9.2,2.9c-0.6,2.1-2.2,4.3-3.7,6.5c-0.3-0.2-0.8-0.1-0.9-0.6c-2.8,2.8-4.6,4.9-5.8,6.3
						c-1.1,1.5-1.6,2.3-1.5,2.6c0.1,0.7,2.2-0.7,5.2-2.8c0.1,0.7,1.1,0.9,3.6,0.4c-7.9,3-16.1,10.8-22.8,17.4
						c-1.7,1.7-3.3,3.2-4.8,4.7c-1.5,1.4-2.9,2.7-4.2,3.7c-2.6,2-4.8,3-6.4,2.2c-7.4,9.1-13.5,18.2-18.7,27.1
						c-5.2,8.9-9.4,17.7-13.2,26.3c-0.9,2.2-1.8,4.3-2.7,6.5c-0.4,1.1-0.9,2.1-1.3,3.2s-0.8,2.2-1.2,3.2c-0.8,2.1-1.6,4.3-2.4,6.4
						l-2.3,6.5l-1.1,3.2l-1.1,3.2c-0.7,2.2-1.5,4.3-2.2,6.5s-1.4,4.4-2.1,6.6c-0.4,1.1-0.7,2.2-1.1,3.3c-0.3,1.1-0.7,2.2-1,3.3
						c-2.5,1.3-3.7-0.4-3.9-3.8c-0.1-1.7,0.1-3.8,0.5-6.1c0.4-2.3,1-5,1.8-7.6c-0.9,2.1-1.6,4.2-2.4,6.3c-0.8,2.1-1.6,4.2-2.3,6.4
						c-1.4,4.3-3,8.5-4.3,12.8c-4.9-2.1,2.7-15.6,5.2-23.7c-5.2,6.6-8.9,14.1-11.5,22.1c-0.7,2-1.3,4-1.8,6.1s-1,4.1-1.5,6.2
						c-1,4.2-1.7,8.5-2.4,12.7c-0.7,4.3-1.3,8.6-2,13c-0.3,2.2-0.7,4.4-1,6.6c-0.4,2.2-0.8,4.4-1.2,6.6c-0.4,2.2-0.9,4.4-1.4,6.6
						s-1,4.4-1.6,6.6c-1.2,4.4-2.6,8.8-4.4,13.3c0.9,2.8,1.9,5.5,2.9,8.3l-1,2.1c1.1,0.1,2,2.3,2.8,5.2c0.8,2.9,1.2,6.4,1.3,9.1
						c-2.6,2.3-5.2,1.9-7.4,3.3c-1.1,0.7-2.1,1.8-2.9,3.8c-0.4,1-0.8,2.3-1.1,3.9c-0.3,1.6-0.5,3.5-0.6,5.8
						c-2.8,7.1-2.8,17.6-1.7,28.5c1.2,11,3.6,22.3,5.2,31.7c0.5-10.2,3.1-6.9,4.9-2.7c0.2,4.5-0.7,8.1-1.4,11.5
						c-0.4,1.7-0.7,3.3-0.7,4.9s0.2,3.3,0.8,5l-6.1,1.3c2.8-2,4.7,3.8,6.5,10.5c1.7,6.7,3.4,14.1,4.8,15.6c-4,5.7-5.5-13.5-9.1-15.5
						c2,18.2,2.9,22.7,3.6,27.2c0.3,2.3,0.7,4.5,1.4,8.4c0.3,2,0.7,4.4,1.3,7.4c0.6,3,1.3,6.6,2.2,11.1c4.2,9.1,5.4,7.9,6.5,5.5
						s2.1-6,5.6-2c0.6,2,1.1,4.1,1.8,6.1c0.7,2,1.4,4,2.1,6c1.4,4,2.9,8,4.3,12.1c2.7,8.2,5.2,16.7,6,26.4l3.6-7.3
						c6.3,14.5,10.9,26,14.3,36.6c0.4,1.3,0.8,2.7,1.2,4c0.4,1.3,0.8,2.6,1.1,3.9c0.7,2.6,1.3,5.1,1.8,7.7
						c1.2,5.1,1.9,10.3,2.6,15.7c8,12.5,15.8,23.1,22.9,32.2c1.8,2.3,3.6,4.5,5.3,6.6c1.8,2.1,3.5,4.1,5.1,6
						c3.3,3.9,6.5,7.3,9.5,10.5s5.9,6,8.6,8.6c1.4,1.3,2.7,2.5,3.9,3.7c1.3,1.1,2.5,2.2,3.7,3.2c2.4,2,4.6,3.8,6.7,5.3
						c2.1,1.5,4.1,2.8,5.9,3.9c7.1,4.3,12.1,5.6,15,4.4c3-1.1,4.1-4.6,4-9.4c0.1-9.3-4.4-23.4-8.2-35.4c-1-3-1.9-5.9-2.8-8.5
						c-0.5-1.3-0.9-2.5-1.3-3.7c-0.4-1.2-0.8-2.2-1.1-3.2c-1.4-4-2.3-6.4-2.3-6.4c-6.5-20-12.3-37.2-18.3-53.3
						c-6-16-11.9-31-17.9-46.6c-0.7-1.9-1.5-3.9-2.3-5.9c-0.7-2-1.5-4-2.2-6c-1.5-4-2.9-8.1-4.4-12.2s-2.8-8.4-4.3-12.8
						c-0.7-2.2-1.4-4.4-2-6.6c-0.3-1.1-0.7-2.3-1-3.4s-0.6-2.3-1-3.5c-2.7-9.3-5-19.1-7.2-29.7
						C-264.8,1319-266.5,1307.7-267.6,1295.4z"/>
				</g>
			</g>
		</g>
	</g>
</g>
<g>
	
		<ellipse transform="matrix(0.5372 -0.8435 0.8435 0.5372 -269.059 1014.7028)" class="st0" cx="790.1" cy="752.5" rx="310.9" ry="164.2"/>
	<g>
		<g>
			<g>
				<g>
					<path class="st0" d="M794.5,496.5c1.4-0.4,2.7-0.7,4.1-1.1C798.3,495,797.1,495.1,794.5,496.5z"/>
					<path class="st0" d="M569.4,969.7c-0.2-0.3-0.4-0.6-0.6-0.9C569.1,969.4,569.3,969.6,569.4,969.7z"/>
					<path class="st0" d="M936.2,507.7c-0.1,0-0.1,0-0.1-0.1c-0.3,0-0.5-0.1-0.8,0C935.6,507.6,935.8,507.6,936.2,507.7z"/>
					<path class="st0" d="M777.3,554.1c9.9-7.5,18.5-12.9,26.3-17.3c7.8-4.4,14.8-7.7,21.8-10.9s14.1-6.2,22.2-9.4
						c8.1-3.2,17.1-6.8,28.2-10.1c10.7-2.4,21.6-4.1,31.9-4c10.3,0.1,20,1.7,28.4,5.3c4.8-0.2,10.4,2.9,15.2,7.1
						c4.9,4.1,9.1,9.1,13.8,12.7c0.1,0.8,0.2,1.6,0.2,2.5l0.1,2.5c3.1,2.5,6.1,6.3,6.5,10.5l-0.8,0.1c1,1.2,1.9,2.4,2.6,3.8
						c0.4,0.7,0.7,1.4,1,2c0.3,0.7,0.6,1.4,0.8,2.1c0.5,1.3,1,2.6,1.4,3.7c0.4,1.1,0.8,2,1.3,2.7h-0.8c0.4,1.2,0.8,2.4,1.2,3.6
						l1.1,3.7c-0.4-0.4-0.9-0.7-1.3-1c4.6,10.2,6.2,22.1,5.7,32.6l2.9-1c-1.1,11.4-0.7,19.2-0.5,26.9c0.2,7.6,0,15.1-3.5,25.3
						l-0.7-0.4c1,6.9,0.6,12.9-0.6,18.5c-1.1,5.6-3,10.7-5,15.7c-2,5.1-4,10.1-5.7,15.6c-1.7,5.6-3,11.6-3.4,18.9
						c0.2-3.6-1.9,0.9-2.5,0.4c-3.3,12.5-8.1,25.4-2.7,27.8c-3.7,8.8-4.7,6.5-7.2,6.7c2.4,1,0.1,9-2.9,15.8l0.5-3.5
						c-2.7,6.6-5.5,13.1-8.4,19.6l6.2-1.6c-3.2,4.8-4.8,4.8-6.2,4.8c-1.3,0.1-2.3,0.2-4.3,5.3l3.6,1.7c-4,6.8-8.6,11.5-13.4,15.8
						c-4.8,4.4-9.8,8.4-15,14.1c-17.1,26.1-34.6,53.5-54.7,78.4c-10,12.4-20.7,24.2-32.1,34.6c-11.3,10.5-23.4,19.6-36,26.7
						l-3.8-0.9c-1.7-1.4-3.9,2.1-6.3,5.8c-2.4,3.7-4.9,7.4-7,6.3c-1.5,1.8-3,3.5-4.5,5.3c-2,0.3-5.8,1.6-3.5-0.9
						c-2.6,1.5-3.9,2.4-4.9,3.4c-1,0.9-1.7,2-3.3,3.6c-2.4,0.3-4.7,0.5-7,0.7c-10.9,4.6-20.4,9.7-30.3,14.2c-5,2.2-10,4.3-15.3,6
						s-10.9,2.9-16.7,3.4c-3.5-0.2-7.3-0.5-11.5-0.7c-4-0.3-8.3-0.6-12.6-1.2c-8.6-1.2-17.4-3.2-25.7-6.8c-4.1-1.8-8.2-4-11.9-6.5
						c-3.8-2.5-7.3-5.3-10.5-8.4c-6.5-6.1-11.7-13.3-15.6-19.8c-6-9-9.5-20.3-11-32.2s-1-24.4,0.4-36.9c1.4-12.4,3.7-24.8,5.9-37
						s4.3-24.3,5.4-36.4c1-1.4,0.6-5.6,0.1-5.7c4-14.2,8.7-28.2,14-42c0,0,0.3-0.8,0.8-2.2c0.6-1.4,1.4-3.5,2.4-6.1
						c2-5.2,4.9-12.4,8.3-20.6c3.4-8.2,7.4-17.3,11.3-26.2c4-9,8-17.9,11.3-25.7s5.9-14.7,7-19.5c1.1-4.9,0.6-7.9-2.3-8
						c-2.9-0.1-8.2,2.7-16.4,9.6c-4.1,3.5-8.9,8.1-14.5,13.9c-5.5,5.9-11.8,13-18.7,21.8l-0.3-1.5c-6.8,11.1-11.8,20.6-15.4,29.5
						c-3.6,8.9-5.8,17.4-6.5,26.7c-1.6,0.2-3,1.5-4,3.5c-1.1,2-2,4.6-2.7,7.4c-1.5,5.6-2.6,11.8-4.4,14.4l-0.3-0.7
						c-0.1,8.3-3.2,15.9-6.2,23.7c-2.9,7.7-5.7,15.5-5.1,23.6c-0.3-0.7-1.9-1.3-1.3-4.9c-0.7,5.7-1.4,12.4-2.1,17.8
						c-0.8,5.4-1.8,9.4-3.6,9.6c-1.2,13.7-2.4,30.3-1.4,45.8c0.5,7.8,1.4,15.2,2.9,21.8s3.5,12.2,5.8,16.4l-1.2-1
						c2.9,4.7,3.8,7.8,4.7,11.3c0.5,1.7,0.8,3.5,1.5,5.4c0.3,1,0.7,2,1.2,3.2c0.5,1.1,1.1,2.3,1.8,3.6c-0.2,0.8-0.1,1.6-0.4,1.6
						c1,1.2,1.9,2.5,2.8,4c0.9,1.5,1.8,3.1,2.7,4.8c1.9,3.3,3.7,7,5.7,10.6c3.9,7.1,8.5,13.8,12.2,16.9l-1.3,2
						c5.3,5.9,11.4,11.2,17.9,15.8c-2.3-1.9-4.5-3.9-6.7-6c3.2-1.4,5.8,2.2,10.3,6.8c1.1,1.1,2.3,2.4,3.7,3.5
						c0.7,0.6,1.4,1.2,2.1,1.8c0.7,0.6,1.6,1.1,2.4,1.6c3.3,2.2,7.2,3.8,11.6,4.5c3.7,1.6,7.8,2.3,12,2.2c4.2,0,8.3-0.8,12.4-1.7
						c4-0.9,7.9-1.9,11.7-2.6c0.9-0.2,1.9-0.3,2.8-0.4c0.9-0.1,1.9-0.2,2.8-0.2c1.9,0,3.7,0,5.6,0.4c3.5-1.6,2-0.4,0.9,1
						c-1.1,1.3-1.7,2.8,3.6,1.3c0.6,3.3-5,2.4-2,4.8c5.5-1,9.9-0.7,14.8-0.6c4.9,0.1,10.1-0.2,16.3-2.9l1.1,2.4
						c8-4.4,15.9-6.1,23.2-7.9s13.9-3.7,18.1-8.2c3.8-2.4,6.5-3.5,8.7-4s3.9-0.5,5.7-0.5c1.7,0,3.4-0.2,5.5-1.2s4.7-2.8,8-6.2
						c2.6-0.3,5.3-0.5,7.9-0.8c3.5-1.9,4.1-3.5,4.9-5.2c0.8-1.6,1.7-3.1,5.7-4.9c0.4,1.1,2.9-0.1,5-1c2-0.9,3.6-1.5,2.1,0.8
						c9.1-4.3,16.4-11.5,24.1-19c7.8-7.6,15.9-15.6,27.2-22.4c0.6-3.5,3.6-7,6.5-10.4c1.5-1.7,2.9-3.3,4-4.9c1.1-1.6,1.9-3,2-4.3
						c0.9,0.4,5.4-4.2,8.7-7.4c3.3-3.1,5.6-4.7,2.2,2c-0.6,1.2-2.2,2.7-2.6,2.1l0.7,3c6.8-3.8,10.8-9.2,14.3-15s6.5-11.9,11.3-17.3
						c-1.7,1.4-3.4,3.2-4.5,4.2c-1.2,1-1.7,1.1-1.2-0.9c2.9-3.4,5.8-6.8,8.7-10.2l-0.1,3.5c4.5-5,8.9-10.1,13.2-15.2l-3.8,0.6
						c6.9-7,12.6-7.3,15.8-18.5c1.1-5.3-8.1,5.6-3-3.3c8.8-9.7,21.7-24.8,30.6-39c-3.4-0.1-1-3.9,0.7-8.3l2.5,0.8
						c2.7-8.6,4.7-9.4,6.8-10.1c1-0.4,2.1-0.7,3.2-2.1c1.2-1.3,2.4-3.6,3.8-7.9l0.9,2.2l-2.7-6.6c1.2-8.3,3.3-9.6,5.3-11.3
						s3.9-3.7,4.3-13.2c-2.4,6.6-6.5,0.7-2.1-6.7l1.4,3c1.4-4.6,1-6.4,2.7-9.1c0.1,3.1,2.8,2.8,5-3.9l1.1,5.5l0.4-7l0.3-7
						c1.5-2.1,2.8-4.8,4-7.6c1.1-2.8,2.1-5.8,3-8.6c1.8-5.6,3.4-10.4,5.7-11.9c0,0,0.5-1.3,1.2-3.3s1.7-4.8,2.5-7.8
						c1.7-6,2.9-12.7,1.6-15.7c0.6,2.4,1.9,0.8,3.2-1s2.7-3.8,3.7-1.7c-0.6-3.1-0.5-9,0.1-14.9c0.7-5.9,1.8-11.7,3.8-14.9l0.1,1.3
						c3.6-12.4,3.7-23.6,3.5-34.3c-0.1-5.4-0.3-10.7-0.4-16.1c0-5.4,0.1-11,0.7-16.9c-1.5,0.6-2-2.2-2.6-4.8
						c-0.7-2.6-1.4-4.8-3.2-3.1c-1.5-5.9-2.1-11.6-2.7-17.1c-0.2-2.7-0.5-5.4-0.7-7.9c-0.3-2.6-0.5-5-0.9-7.3
						c-1.3-9.3-4-16.7-11.2-18.7c-0.6-1.3-1.1-2.4-1.5-3.5s-0.8-2-1-2.9c-0.5-1.8-0.9-3.3-1.1-4.7c-0.2-1.4-0.3-2.7-0.6-3.9
						c-0.2-1.3-0.5-2.5-1.1-3.9c0.7,0.7,1.3,1.4,1.9,2.2c-0.7-1.2-1.4-2.3-2.1-3.4c-0.7-1.1-1.3-2.1-2-3.1c-1.4-1.9-2.5-3.7-3.8-5.3
						c-1.2-1.6-2.3-3.1-3.5-4.4c-0.6-0.7-1.1-1.4-1.6-2c-0.6-0.6-1.1-1.3-1.6-1.9c-4.3-4.9-8.3-9.2-14.8-14.6
						c-1.8-1.1-3.5-1.7-5.1-2c-1.6-0.4-3.2-0.6-4.9-0.9c-0.8-0.2-1.7-0.4-2.6-0.6c-0.9-0.2-1.9-0.6-3-1c-1-0.5-2.2-1-3.5-1.6
						c-0.6-0.3-1.3-0.7-2-1.1s-1.4-0.8-2.2-1.3c2.6,0,2.5-0.5,1.2-1.3c-0.7-0.4-1.7-0.9-2.8-1.4c-1.2-0.5-2.4-1-3.7-1.5
						c1.7,0.5,2.8,0.7,2.8,0.2c0-0.2-0.3-0.6-1-1.2s-1.8-1.4-3.4-2.4c-1.2,0.3-2.8,0.1-4.3,0c0-0.2-0.2-0.4,0-0.6
						c-4.5-1.1-6.4-1.1-6.7-0.9s1.1,0.8,3,1.6c-0.3,0.3-0.1,0.8,1,1.7c-4-2.8-10.4-4.2-15.8-5.1c-2.7-0.4-5.1-0.8-6.9-1.2
						c-1.8-0.5-3-1.1-3.2-2c-6.8-0.2-13,0.2-18.8,1.2c-5.8,0.9-11.1,2.2-16.1,3.7c-10.1,3.1-19.2,6.8-28.7,10.9
						c-2.8-1,1.2-4.3,6.9-6.8c-4.7,1.7-9.4,3.5-13.9,5.4c-0.4-1.3,1.4-2.5,4-3.5c1.3-0.5,2.7-1,4.1-1.4c1.4-0.5,2.7-0.9,3.8-1.4
						c-9.3,0.5-17.7,4.8-25.9,9.8c-8.2,4.9-16.3,10.4-26.2,13.6l-2.6,4l-1.2,0.3c0.6,0.9-2.4,4.7-4.8,6.5c-1.8-0.3-2.5-1.5-3.8-1.9
						s-3.2-0.2-7.4,2.7c-4,1.2-8.5,4.7-12.9,8.8s-8.6,8.8-12.3,12.6c4.6-3.1,4-1,2.7,1.2c-3.8,3.1-7.6,3.1-9.9,6.3l-2.4-2.2
						c1.7,0.5-0.2,3.3-2.7,6.1c-2.4,2.9-5.3,5.9-5.5,7c-3.7,0.1,4.4-6.6,4.2-8.8c-7.5,6.6-9.2,8.4-11.1,10.1
						c-1.8,1.7-3.7,3.4-10.7,10.4c-5.8,9.2,3.5,0.9,1.9,6.4c-6.2,7-10.8,15-19.3,21.5l4.4-0.5c-10,14.3-16.7,21.9-26.3,29.2
						c-7.7,14.4-12.7,26.1-16.1,35.2c-3.3,9.2-4.9,15.8-5.5,20.4c-1.1,9.3,2,10.6,6.6,8c4.6-2.4,10.6-8.3,15.6-13.5s9-9.8,9-9.8
						c8.3-8.8,15.3-16.6,21.6-24.2c6.3-7.6,12-15,17.9-22.6s12-15.5,19.2-23.8C758.2,572.3,766.6,563.4,777.3,554.1z"/>
				</g>
			</g>
		</g>
	</g>
</g>
<g>
	
		<ellipse transform="matrix(0.8526 -0.5226 0.5226 0.8526 104.836 558.1343)" class="st0" cx="1041.7" cy="93.2" rx="576.2" ry="227.5"/>
	<g>
		<g>
			<g>
				<g>
					<path class="st0" d="M522.2,277.7c0-0.6,0.2-1.3,0.1-1.8C522.1,277.1,522.1,277.6,522.2,277.7z"/>
					<path class="st0" d="M1199.8-193c21-6.4,38.4-10.4,53.9-13.3c15.5-2.9,29.2-4.9,42.9-6.6c13.7-1.7,27.3-3.2,42.8-4.8
						c7.8-0.8,16-1.6,24.9-2.3s18.5-1.4,28.9-1.8c19.8,0.5,39.6,2.2,57.1,6.4c8.7,2.1,16.7,4.9,23.7,8.2c6.9,3.4,12.8,7.2,17.3,11.6
						c1.7,0.4,3.2,1.3,4.8,2.3c1.4,1.1,2.9,2.4,4.1,4c2.5,3.1,4.5,7,6,11.3s2.5,9,3.4,13.8s1.6,9.7,3,14.4l-2.2,3.5
						c-0.7,1.1-1.6,2.3-2.3,3.4c0.4,1.6,0.6,3.4,0.7,5.2c0.2,1.8,0.1,3.6-0.1,5.5c-0.1,1.8-0.5,3.7-1.1,5.5
						c-0.3,0.9-0.6,1.8-0.9,2.6c-0.4,0.8-0.8,1.7-1.3,2.4l-1-0.7c0.2,5.4-1.3,11-2.7,15.8c-0.8,2.4-1.6,4.7-2.3,6.7
						c-0.7,2-1.2,3.8-1.4,5.2l-0.9-0.9c-0.7,2.1-1.6,4.2-2.4,6.3l-1.2,3.2l-1.3,3.2l-0.5-2.8c-2.6,9.6-6.5,19.1-11.2,28
						s-10.2,17.2-16,24.7l4.9,1.3c-13.3,15.4-20.7,27.1-28.2,38.5c-7.5,11.2-15.1,22-29.9,33.9l-0.5-1.1
						c-5.4,10.9-11.9,19.4-18.8,26.7c-3.5,3.6-7,6.9-10.7,10c-1.8,1.6-3.7,3.1-5.5,4.6c-1.9,1.5-3.8,2.9-5.6,4.4
						c-15.1,11.7-30.5,23-45,43.7c3.6-5.2-3.6-0.1-4-1.3c-16.1,15.9-34.6,31.7-29,39.2c-6.5,5.2-9.7,6.7-11.6,6.7
						c-2,0.1-2.8-1.4-4.8-2.1c1.3,1.6-0.6,5-4.1,8.9c-1.8,2-3.9,4.1-6.3,6.3c-2.4,2.1-5,4.3-7.5,6.3l3.8-4.9
						c-9.6,7.9-19.4,15.6-29.2,23.2l10.5,2c-8.7,4.9-11.1,3.7-13.2,2.8c-2-0.9-3.6-1.3-10.9,4.9l3.9,5.2c-5.8,3.7-11.4,6.5-16.9,8.7
						c-2.7,1.1-5.4,2.2-8.1,3.1c-2.7,0.9-5.4,1.8-8.1,2.6c-10.7,3.3-21.6,5.9-34.1,11c-11.8,7-23.6,14.1-35.5,21.3
						s-23.9,14.4-35.9,21.6c-24.1,14.3-48.6,28.4-73.4,41.4c-12.4,6.5-24.9,12.7-37.4,18.5s-25.2,11.1-37.8,16s-25.3,9.2-37.9,12.9
						c-12.6,3.7-25.2,6.8-37.7,9c-1.9-1.1-3.8-2.2-5.6-3.4c-1-1.6-2.9-1.2-5.4,0.1c-2.5,1.3-5.5,3.5-8.6,5.8
						c-6.2,4.5-12.7,9-15.3,6.3l-10.6,6c-3.5-0.5-10.5-0.3-5.2-3.1c-2.6,0.5-4.6,1-6.2,1.5c-1.6,0.4-2.8,0.9-3.9,1.4
						c-2.2,1-4,2.3-7.6,4.1c-4.1-0.7-8.1-1.3-12.1-2.1c-10.5,1.1-20.4,2.6-30.1,4.2c-4.9,0.8-9.7,1.6-14.4,2.4
						c-4.8,0.8-9.6,1.6-14.3,2.3c-9.6,1.4-19.2,2.6-29.1,3.1c-9.9,0.5-20,0.2-30.2-1.3c-6-1.8-12.6-3.6-19.5-5.6
						c-6.8-2-13.8-4.3-20.7-7s-13.6-5.7-19.6-9.4c-1.5-0.9-3-1.8-4.4-2.8c-0.7-0.5-1.5-0.9-2.1-1.5l-2-1.5l-1-0.8l-1-0.8l-1.9-1.6
						l-1.8-1.7l-0.9-0.8c-0.3-0.3-0.6-0.6-0.9-0.9c-0.6-0.6-1.1-1.2-1.7-1.8c-0.6-0.6-1.1-1.2-1.6-1.9c-1.1-1.2-2-2.6-3.1-3.8
						c-1.9-2.7-3.7-5.4-5.2-8.4c-1.6-2.9-2.8-6.1-4-9.3c-1-3.3-2-6.7-2.6-10.2c-1.4-7-1.9-14.4-1.8-21.6c0.1-7.2,0.8-14.3,1.8-20.9
						c1-9.3,3.4-18.9,6.8-28.4c3.5-9.5,8-18.9,13.4-28.1c10.6-18.4,24.2-35.8,38.8-52.5c7.3-8.3,14.8-16.5,22.4-24.6
						c7.6-8,15.2-16.1,22.8-24c7.5-8,15-16,22.1-24.1c7.2-8.1,14-16.4,20.5-24.8c2.6-1.2,6.2-7.8,5.6-8.3c9.4-8.9,19-17.6,28.8-26.1
						s19.7-16.9,29.8-25.1c0,0,18.1-15.1,42.3-34.5c12.1-9.7,25.8-20.4,39.3-31s26.9-21.2,38.3-30.7c11.4-9.5,20.9-18,26.4-24.6
						c5.6-6.6,7.2-11.5,2.9-13.6c-4.2-2.1-14.4-1.4-32.2,3.4c-4.5,1.2-9.4,2.7-14.9,4.5c-5.4,1.8-11.4,3.9-17.9,6.3
						c-13,4.8-28,11.1-45.4,19.1l0.7-2.4c-19.2,11.5-34.4,21.6-47.2,32.1c-12.8,10.4-23.2,21.1-32.4,34c-2.5-1-5.5-0.1-8.8,1.9
						c-3.3,2.1-6.9,5.2-10.4,8.7s-7.1,7.2-10.3,10.4s-6.2,5.8-8.6,7l0.2-1.2c-7.6,11.9-18.8,20.5-29.9,29.1
						c-11.1,8.7-22.1,17.5-28.7,29.5c0.1-1.3-1.4-3.5,2.7-8c-6.2,7.5-13.4,16.5-19.5,23.4c-3.1,3.4-5.9,6.4-8.3,8.3
						c-2.4,1.9-4.3,2.8-5.6,2.2c-14.6,18.2-32.1,40.2-46.2,62.5c-7.1,11.1-13.3,22.2-18,32.5c-4.7,10.4-8,19.9-9.3,27.8l-0.5-2.6
						c-1.2,9.2-3.2,14.5-5.7,19.9c-1.2,2.7-2.5,5.5-3.8,8.8c-0.6,1.7-1.2,3.5-1.8,5.5c-0.3,1-0.6,2.1-0.8,3.2
						c-0.3,1.1-0.5,2.3-0.7,3.6c-1,0.8-1.8,2-2.1,1.7c-0.2,10.2-3.9,23.9-6,38c-1.2,7-1.9,14.1-2.1,20.4c-0.1,6.4,0.2,12.1,1.2,16.3
						l-3.6,1.4c0.7,7.1,2.2,14.3,4.2,21.4c1.9,7.1,4.7,14,8,20.7l-0.8-1.9c-0.3-0.6-0.5-1.3-0.7-2l-1.4-3.9c-0.5-1.3-0.8-2.6-1.2-4
						l-1.1-4c5.8,1.2,6.4,9.2,10.2,20.4c1,2.8,2,5.8,3.5,8.8c0.7,1.5,1.4,3.1,2.3,4.6c0.9,1.5,1.8,3,2.9,4.6
						c4.2,6,9.8,11.7,16.9,15.6c5.4,5,12.2,8.4,19.2,10.6c7.1,2.1,14.4,3,21.6,3.5c7.2,0.4,14.1,0.5,20.7,1
						c6.6,0.6,12.9,1.6,18.9,4.1c6.5-1.2,3.5,0.2,1.2,1.9c-2.3,1.7-3.9,3.6,5.6,3.5c-0.2,5.4-9.3,1.6-5.2,6.7
						c9.5,0.4,16.9,2.8,24.9,4.7c8,1.9,16.8,3.6,28.3,1.9l0.9,4.1c3.8-0.9,7.4-1.6,11-2c3.6-0.5,7.1-0.7,10.6-0.9
						c3.5-0.2,6.9-0.1,10.2-0.1s6.6,0.1,9.8,0.2c12.7,0.3,24.3,0.2,33.5-4.7c14.6-3.9,20-1.9,25.6-0.4c2.8,0.8,5.6,1.3,9.5,0.8
						c4-0.5,9-2.1,16.2-5.8c4.4,0.9,8.7,1.8,13.1,2.6c13.3-2.4,7.7-8.9,22.7-10.1c0,1.8,4.7,1.2,8.5,0.9c3.8-0.3,6.6-0.5,2.9,2.3
						c17-2,32.8-9,49.7-16.3s34.8-15,57-18.9c1.6-2.5,4.1-4.6,7.2-6.6c3-2,6.5-3.7,9.9-5.4c3.4-1.7,6.8-3.3,9.5-5
						c2.8-1.7,5-3.4,6.1-5.3c0.6,0.6,3.4-0.2,7-1.5s7.9-3.1,11.6-4.4c7.3-2.8,11.9-3.8,2,4.3c-1.7,1.4-5.2,2.8-5.4,1.7l-1.1,4.9
						c13-1.6,23-7.5,32.4-14c4.7-3.3,9.3-6.8,14.1-10.1c4.8-3.3,9.9-6.4,15.5-9c-7.1,2.2-15.7,6.8-11.1,1.4
						c3.5-1.6,6.9-3.3,10.3-4.9c3.4-1.7,6.9-3.3,10.3-5l-2.7,5.2l15.6-7.1c5.2-2.4,10.4-4.8,15.5-7.3l-6.2-1.4
						c7.8-3.1,13.9-3.8,19.8-5.5c5.8-1.8,11.4-4.6,18-11.9c5.7-7.1-16.5,3-1.9-7c20.7-8.7,51.5-22.5,76.1-37.3
						c-4.8-2.5,1.7-6.6,7.7-11.8l3.1,2.9c11-10.8,14.5-10.6,18.1-10.2s7.4,1,18.4-9.7l-0.5,3.9l1.5-11.6c4.3-5.6,7.5-8.6,10.1-10.2
						c2.7-1.7,4.8-2,6.9-2.5c2.2-0.5,4.3-1.1,7-3.4c2.7-2.2,6-6,10.3-12.8c-9,7.8-9.9-3.8,2.7-11.3l-0.5,5.4
						c5.9-5.7,7-8.6,11.7-11.3c-2.4,4.7,1.6,6.1,10.5-1.9l-3.1,8.9l6.5-9.9l6.4-10c4-1.9,8.2-4.8,12.2-8c4.1-3.2,8-6.8,11.8-10.1
						c3.7-3.3,7.2-6.4,10.4-8.7c3.1-2.3,5.9-3.9,8.2-4c0,0,0.5-0.4,1.3-1c0.8-0.7,2-1.6,3.4-2.8c2.8-2.4,6.6-5.6,10.4-9.3
						c7.6-7.3,15.4-16,16.3-21.2c-2.8,8.1,13.1-5.6,12.1,1.8c2-5,7.4-13.3,13.7-21.1c3.1-3.9,6.5-7.7,9.7-10.8
						c3.2-3.2,6.4-5.7,9.2-7.1l-1.1,2c4.1-3.6,7.8-7.3,11.3-11c3.4-3.8,6.7-7.5,9.7-11.3c1.5-1.9,3-3.8,4.4-5.7
						c1.4-1.9,2.8-3.8,4.1-5.7c2.7-3.8,5.2-7.6,7.7-11.4c10.1-15.2,19.3-30.2,32.6-45.3c-1.3-0.3-1.3-1.5-0.9-3.1
						c0.4-1.7,1.4-3.8,2.3-5.8c1.8-4.1,3-7.9-0.9-7.3c4.1-9.5,8.9-18,13.8-25.8c4.9-7.9,9.7-15.2,13.6-22.1
						c7.9-13.8,12.1-26.4,5.4-36.5c1.1-4.7,2.4-8.3,3.5-11.4c0.6-1.5,1.2-2.9,1.8-4.1c0.6-1.2,1.2-2.4,1.7-3.5
						c2.4-4.2,4.6-7.4,5.9-12.6c0.1,1.7,0.1,3.3,0.1,5c1.3-9.5,1.9-17.5,2-24.6c0.2-7.1-0.2-13.2-0.6-19.1c-0.3-2.9-0.6-5.8-1-8.7
						c-0.2-1.4-0.5-2.9-0.7-4.4c-0.1-0.7-0.2-1.5-0.3-2.2c-0.2-0.7-0.3-1.5-0.5-2.2c-0.3-1.5-0.6-3-1-4.6c-0.3-1.6-0.8-3.2-1.2-4.8
						c-0.8-3.3-2-6.8-3.2-10.5c-0.9-1.8-1.9-3.3-2.9-4.6c-0.5-0.7-1-1.3-1.5-1.9c-0.5-0.6-1.1-1.1-1.6-1.7c-2.2-2.1-4.4-3.9-6.8-5.9
						c-1.2-1-2.4-2.1-3.7-3.3c-1.3-1.2-2.6-2.6-4-4.1c-1.4-1.6-3-3.3-4.6-5.4c-0.8-1.1-1.7-2.1-2.6-3.2c-0.9-1.1-1.8-2.4-2.9-3.7
						c4.1,2,4.3,1.2,2.6-1.2c-0.9-1.2-2.3-2.6-3.9-4.3c-0.4-0.4-0.8-0.8-1.3-1.3c-0.4-0.4-0.9-0.8-1.4-1.2c-0.9-0.8-1.9-1.7-2.8-2.5
						c2.6,1.9,4.4,3,4.6,2.3c0.1-0.4-0.2-1.2-1.1-2.6c-0.9-1.4-2.3-3.5-4.5-6c-1.1-0.2-2.3-0.6-3.5-1.1s-2.6-1.1-3.8-1.6
						c0.1-0.3-0.2-0.8,0.2-0.9c-3.6-2.3-6.2-3.5-8-4.3s-2.7-1.1-3-0.9c-0.6,0.2,1.4,1.9,4.5,4.2c-0.6,0.3-0.4,1.1,0.9,3.2
						c-1.4-1.6-3.1-3.2-5-4.8s-4-2.9-6.2-4.3s-4.5-2.5-6.8-3.8c-2.3-1.1-4.6-2.1-6.8-3.2c-4.4-1.9-8.4-3.5-11.3-5
						c-1.4-0.7-2.6-1.5-3.4-2.2s-1.3-1.5-1.3-2.3c-11.3-3.2-21.9-4.8-31.9-5.6c-10-0.9-19.3-0.8-28.3-0.4c-18,0.8-34.5,3.2-52,5.4
						c-4.2-2.8,3.9-6.2,14.3-7.7c-8.5,0.6-16.9,1.6-25.3,2.6c-0.1-2.2,3.5-3.1,8.1-3.7c2.3-0.3,4.8-0.4,7.3-0.5s4.8-0.3,6.8-0.6
						c-15.4-3-31.1,0.2-46.8,4.1c-15.8,4-31.8,8.6-49.5,9l-6.3,4.9l-2.1-0.1c0.5,1.8-6.5,6-11.3,7.7c-2.8-1.3-3.3-3.5-5.1-4.8
						c-0.9-0.7-2.2-1.1-4.2-1.1c-2.1,0-5,0.4-9.1,1.6c-3.5,0-7.6,0.7-12,1.9c-2.2,0.6-4.5,1.4-6.8,2.2c-2.3,0.9-4.6,1.8-7,2.8
						c-4.7,2-9.5,4.3-14.1,6.5c-4.6,2.2-9,4.4-13,6.3c9.3-2.3,7,0.7,3.5,3.2c-8,2.8-13.9,0.6-19.6,4.4l-2.5-4.7
						c2.4,1.8-2.5,4.8-8.1,7.9c-2.8,1.5-5.9,3.1-8.4,4.4c-2.5,1.4-4.4,2.5-4.9,3.3c-2.9-1-0.1-2.9,3.5-5c3.7-2.1,8.2-4.4,8.7-6.1
						c-8,3-13,4.9-16.5,6.3c-3.5,1.3-5.5,2.1-7.5,2.9c-4,1.6-8,3.1-23.7,9.7c-15.3,10.5,4.9,3.3-1.4,10.8c-14.4,7-27.1,16.5-45,21.3
						l7.2,1.8c-6.4,3.9-12.2,7.3-17.6,10.3c-2.7,1.5-5.3,2.9-7.9,4.2c-2.5,1.3-5,2.5-7.4,3.6c-9.7,4.4-18.7,7.5-28.7,10.1
						c-22.5,16.9-39.1,31.2-51.3,42.8c-3,2.9-5.8,5.6-8.3,8.2s-4.7,5-6.8,7.2c-4,4.5-7.1,8.4-9.3,11.7c-4.5,6.6-5.9,10.9-5,13.5
						s4,3.4,8.5,3c4.4-0.3,10.1-1.7,16.1-3.6c6.1-1.9,12.5-4.3,18.4-6.6c2.9-1.2,5.8-2.3,8.3-3.4c2.6-1.1,4.9-2,6.8-2.9
						c3.9-1.7,6.3-2.8,6.3-2.8c19.7-8,36.5-15.7,52.1-23.5s30-15.6,44.9-23.8s30.1-16.7,47.6-25.4c8.7-4.3,18-8.8,28-13.3
						c5-2.3,10.2-4.4,15.6-6.7C1188.3-188.6,1193.9-190.8,1199.8-193z"/>
				</g>
			</g>
		</g>
	</g>
</g>
</svg>
